<svg id="svg-source" height="0" version="1.1" 
  xmlns="http://www.w3.org/2000/svg" style="position:absolute; margin-left: -100%" 
  xmlns:xlink="http://www.w3.org/1999/xlink"><g xmlns="http://www.w3.org/2000/svg" id="align-left" >
    <g>
      <path d="M31.244,0.002H0.756C0.338,0.002,0,0.343,0,0.761c0,0.414,0.338,0.753,0.756,0.753h30.488
		C31.66,1.514,32,1.175,32,0.761C32,0.343,31.66,0.002,31.244,0.002z"/>
      <path d="M0.756,11.679H21.9c0.417,0,0.756-0.341,0.756-0.757c0-0.417-0.339-0.757-0.756-0.757H0.756
		C0.338,10.166,0,10.506,0,10.922C0,11.338,0.338,11.679,0.756,11.679z"/>
      <path d="M0.756,21.84h20.943c0.417,0,0.756-0.339,0.756-0.757c0-0.415-0.339-0.755-0.756-0.755H0.756
		C0.338,20.329,0,20.668,0,21.083C0,21.501,0.338,21.84,0.756,21.84z"/>
      <path d="M31.244,30.484H0.756C0.338,30.484,0,30.825,0,31.241s0.338,0.757,0.756,0.757h30.488
		c0.416,0,0.756-0.341,0.756-0.757S31.66,30.484,31.244,30.484z"/>
    </g>
  </g></svg>