<svg id="svg-source" height="0" version="1.1" 
  xmlns="http://www.w3.org/2000/svg" style="position:absolute; margin-left: -100%" 
  xmlns:xlink="http://www.w3.org/1999/xlink"><g xmlns="http://www.w3.org/2000/svg" id="align-right" >
    <g>
      <path d="M31.244,30.482H0.756C0.339,30.482,0,30.823,0,31.239c0,0.417,0.339,0.757,0.756,0.757h30.488
		c0.417,0,0.756-0.34,0.756-0.757C32,30.823,31.661,30.482,31.244,30.482z"/>
      <path d="M31.244,20.323H10.1c-0.417,0-0.755,0.341-0.755,0.757s0.338,0.755,0.755,0.755h21.145
		c0.417,0,0.756-0.339,0.756-0.755S31.661,20.323,31.244,20.323z"/>
      <path d="M31.244,10.16H10.301c-0.418,0-0.756,0.343-0.756,0.757c0,0.418,0.338,0.757,0.756,0.757h20.943
		c0.417,0,0.756-0.339,0.756-0.757C32,10.503,31.661,10.16,31.244,10.16z"/>
      <path d="M31.244,0.004H0.756C0.339,0.004,0,0.345,0,0.76c0,0.418,0.339,0.757,0.756,0.757h30.488
		C31.661,1.517,32,1.178,32,0.76C32,0.345,31.661,0.004,31.244,0.004z"/>
    </g>
  </g></svg>