<svg id="svg-source" height="0" version="1.1" 
  xmlns="http://www.w3.org/2000/svg" style="position:absolute; margin-left: -100%" 
  xmlns:xlink="http://www.w3.org/1999/xlink"><g xmlns="http://www.w3.org/2000/svg" id="align-center" >
    <g>
      <path d="M1.045,1.789h29.912c0.41,0,0.74-0.333,0.74-0.739c0-0.41-0.33-0.744-0.74-0.744H1.045
		c-0.409,0-0.74,0.334-0.74,0.744C0.305,1.456,0.636,1.789,1.045,1.789z"/>
      <path d="M31.258,10.27H0.74C0.332,10.27,0,10.604,0,11.011c0,0.41,0.332,0.742,0.74,0.742h30.518
		c0.41,0,0.742-0.332,0.742-0.742C32,10.604,31.668,10.27,31.258,10.27z"/>
      <path d="M31.258,20.239H0.74c-0.408,0-0.74,0.334-0.74,0.745c0,0.406,0.332,0.74,0.74,0.74h30.518
		c0.41,0,0.742-0.334,0.742-0.74C32,20.573,31.668,20.239,31.258,20.239z"/>
      <path d="M30.957,30.209H1.045c-0.409,0-0.74,0.334-0.74,0.743c0,0.408,0.331,0.742,0.74,0.742h29.912
		c0.41,0,0.74-0.334,0.74-0.742C31.697,30.543,31.367,30.209,30.957,30.209z"/>
    </g>
  </g></svg>