<svg id="svg-source" height="0" version="1.1" 
  xmlns="http://www.w3.org/2000/svg" style="position:absolute; margin-left: -100%" 
  xmlns:xlink="http://www.w3.org/1999/xlink"><g xmlns="http://www.w3.org/2000/svg" id="arrow-left" >
    <g>
      <path d="M16.003,0C7.18,0,0,7.176,0,15.999C0,24.822,7.18,32,16.003,32C24.823,32,32,24.822,32,15.999
		C32,7.176,24.823,0,16.003,0z M16.003,30.852c-8.188,0-14.854-6.665-14.854-14.854c0-8.188,6.665-14.849,14.854-14.849
		c8.186,0,14.851,6.661,14.851,14.849C30.854,24.187,24.188,30.852,16.003,30.852z"/>
      <path d="M20.191,8.017c-0.225-0.223-0.586-0.223-0.81,0l-7.979,7.981l7.979,7.984
		c0.112,0.112,0.257,0.168,0.405,0.168c0.147,0,0.295-0.056,0.404-0.168c0.225-0.225,0.225-0.587,0-0.812l-7.165-7.173l7.165-7.169
		C20.416,8.605,20.416,8.242,20.191,8.017z"/>
    </g>
  </g></svg>