<svg id="svg-source" height="0" version="1.1" 
  xmlns="http://www.w3.org/2000/svg" style="position:absolute; margin-left: -100%" 
  xmlns:xlink="http://www.w3.org/1999/xlink"><g xmlns="http://www.w3.org/2000/svg" id="arrow-right1" >
    <g>
      <path d="M27.978,4.026c-0.227-0.225-0.591-0.225-0.812,0c-0.227,0.224-0.227,0.587,0,0.812l2.876,2.875H10.217
		C4.581,7.713,0,12.297,0,17.926c0,5.635,4.581,10.217,10.217,10.217H27.57c0.314,0,0.571-0.256,0.571-0.572
		c0-0.318-0.257-0.574-0.571-0.574H10.217c-5.001,0-9.07-4.068-9.07-9.07c0-4.997,4.069-9.063,9.07-9.063h19.824l-2.876,2.872
		c-0.227,0.225-0.227,0.588,0,0.812c0.109,0.112,0.255,0.168,0.405,0.168c0.145,0,0.293-0.056,0.407-0.168l3.854-3.853
		C31.94,8.588,32,8.439,32,8.288c0-0.152-0.06-0.299-0.169-0.403L27.978,4.026z"/>
    </g>
  </g></svg>