<svg id="svg-source" height="0" version="1.1" 
  xmlns="http://www.w3.org/2000/svg" style="position:absolute; margin-left: -100%" 
  xmlns:xlink="http://www.w3.org/1999/xlink"><g xmlns="http://www.w3.org/2000/svg" id="arrow-right" >
    <g>
      <path d="M16.003,0C7.177,0,0,7.178,0,16.003C0,24.825,7.177,32,16.003,32C24.823,32,32,24.825,32,16.003
		C32,7.178,24.823,0,16.003,0z M16.003,30.852c-8.191,0-14.856-6.662-14.856-14.849c0-8.19,6.665-14.854,14.856-14.854
		c8.186,0,14.848,6.663,14.848,14.854C30.851,24.19,24.188,30.852,16.003,30.852z"/>
      <path d="M11.806,8.017c-0.225,0.225-0.225,0.588,0,0.812l7.174,7.174l-7.174,7.168
		c-0.225,0.225-0.225,0.587,0,0.812c0.112,0.112,0.26,0.168,0.407,0.168c0.146,0,0.293-0.056,0.405-0.168l7.983-7.979l-7.983-7.986
		C12.395,7.794,12.03,7.794,11.806,8.017z"/>
    </g>
  </g></svg>