<svg id="svg-source" height="0" version="1.1" 
  xmlns="http://www.w3.org/2000/svg" style="position:absolute; margin-left: -100%" 
  xmlns:xlink="http://www.w3.org/1999/xlink"><g xmlns="http://www.w3.org/2000/svg" id="arrow-left1" >
    <g>
      <path d="M21.783,7.713H1.959l2.879-2.875c0.224-0.225,0.224-0.588,0-0.812c-0.225-0.225-0.589-0.225-0.812,0
		L0.17,7.885C0.061,7.989,0,8.136,0,8.288c0,0.151,0.061,0.3,0.17,0.406l3.855,3.853c0.112,0.112,0.26,0.168,0.404,0.168
		c0.147,0,0.293-0.056,0.408-0.168c0.224-0.225,0.224-0.588,0-0.812L1.959,8.862h19.824c5.002,0,9.07,4.066,9.07,9.063
		c0,5.002-4.068,9.07-9.07,9.07H4.43c-0.314,0-0.571,0.256-0.571,0.574c0,0.316,0.257,0.572,0.571,0.572h17.354
		C27.417,28.143,32,23.561,32,17.926C32,12.297,27.417,7.713,21.783,7.713z"/>
    </g>
  </g></svg>