<svg id="svg-source" height="0" version="1.1" 
  xmlns="http://www.w3.org/2000/svg" style="position:absolute; margin-left: -100%" 
  xmlns:xlink="http://www.w3.org/1999/xlink"><g xmlns="http://www.w3.org/2000/svg" id="bell" >
    <g>
      <path d="M30.306,27.041c-2.918,0-5.377-5.047-5.377-11.02v-4.014c0-4.146-2.855-7.612-6.695-8.611
		c0.131-0.297,0.201-0.619,0.201-0.961C18.435,1.091,17.342,0,15.997,0c-1.34,0-2.433,1.091-2.433,2.436
		c0,0.342,0.067,0.662,0.202,0.961c-3.84,0.999-6.695,4.461-6.695,8.611v4.014c0,5.973-2.459,11.02-5.377,11.02
		c-0.52,0-0.936,0.422-0.936,0.939c0,0.52,0.416,0.941,0.936,0.941h10.468C12.593,30.671,14.111,32,15.997,32
		c1.883,0,3.401-1.329,3.836-3.078h10.473c0.52,0,0.936-0.422,0.936-0.941C31.241,27.463,30.825,27.041,30.306,27.041z
		 M15.997,1.877c0.31,0,0.557,0.251,0.557,0.559c0.004,0.617-1.107,0.627-1.107,0C15.446,2.128,15.692,1.877,15.997,1.877z
		 M15.997,30.117c-0.846,0-1.576-0.488-1.926-1.195h3.854C17.57,29.629,16.841,30.117,15.997,30.117z M19.081,27.041H12.91H5.521
		c2.075-2.246,3.433-6.3,3.433-11.02v-4.014c0-3.891,3.158-7.053,7.043-7.053c3.891,0,7.054,3.162,7.054,7.053v4.014
		c0,4.72,1.357,8.773,3.428,11.02H19.081z"/>
    </g>
  </g></svg>