<svg id="svg-source" height="0" version="1.1" 
  xmlns="http://www.w3.org/2000/svg" style="position:absolute; margin-left: -100%" 
  xmlns:xlink="http://www.w3.org/1999/xlink"><g xmlns="http://www.w3.org/2000/svg" id="blank-document" >
    <path d="M27.461,8.246c-0.01-0.135-0.051-0.265-0.148-0.363L19.6,0.168c-0.099-0.1-0.229-0.14-0.362-0.15
	C19.219,0.016,19.211,0,19.193,0H5.096C4.778,0,4.521,0.258,4.521,0.573v30.853C4.521,31.743,4.778,32,5.096,32h21.811
	c0.316,0,0.573-0.257,0.573-0.574V8.289C27.479,8.27,27.464,8.262,27.461,8.246z M19.768,1.96l5.752,5.753h-5.752V1.96z
	 M5.669,30.852V1.148H18.62v7.14c0,0.315,0.256,0.574,0.573,0.574h7.139v21.99H5.669z"/>
  </g></svg>