<svg id="svg-source" height="0" version="1.1" 
  xmlns="http://www.w3.org/2000/svg" style="position:absolute; margin-left: -100%" 
  xmlns:xlink="http://www.w3.org/1999/xlink"><g xmlns="http://www.w3.org/2000/svg" id="book1" >
    <g>
      <path d="M26.267,0H8.809C6.796,0,5.157,1.638,5.157,3.649v24.703C5.157,30.364,6.796,32,8.809,32h17.458
		c0.318,0,0.576-0.259,0.576-0.574c0-0.316-0.258-0.574-0.576-0.574H8.809c-1.38,0-2.503-1.121-2.503-2.5
		c0-1.38,1.123-2.502,2.503-2.502h17.458c0.318,0,0.576-0.257,0.576-0.572V0.575C26.843,0.257,26.585,0,26.267,0z M8.234,24.749
		c-0.739,0.117-1.405,0.456-1.929,0.949V3.649c0-1.183,0.825-2.174,1.929-2.434V24.749z M25.695,24.705H9.384V1.149h16.312V24.705z"/>
    </g>
  </g></svg>