<svg id="svg-source" height="0" version="1.1" 
  xmlns="http://www.w3.org/2000/svg" style="position:absolute; margin-left: -100%" 
  xmlns:xlink="http://www.w3.org/1999/xlink"><g xmlns="http://www.w3.org/2000/svg" id="book" >
    <path d="M26.27,25.87c0.317,0,0.574-0.258,0.574-0.574c0-0.018-0.002-0.034-0.003-0.053V0.575
	C26.841,0.257,26.583,0,26.267,0H8.805C6.793,0,5.156,1.638,5.156,3.649v24.703C5.156,30.364,6.793,32,8.805,32H26.27
	c0.317,0,0.574-0.259,0.574-0.574c0-0.316-0.257-0.574-0.574-0.574c-1.374,0-2.495-1.119-2.495-2.494
	C23.774,26.986,24.896,25.87,26.27,25.87z M6.305,3.649c0-1.183,0.821-2.174,1.926-2.434v23.534
	c-0.739,0.117-1.405,0.456-1.926,0.949V3.649z M23.617,30.852H8.805c-1.379,0-2.5-1.121-2.5-2.5c0-1.38,1.121-2.502,2.5-2.502
	h14.828c-0.623,0.654-1.005,1.537-1.005,2.508C22.628,29.323,23.004,30.2,23.617,30.852z M9.379,24.705V1.149h16.313v23.556H9.379z"/>
  </g></svg>