<svg id="svg-source" height="0" version="1.1" 
  xmlns="http://www.w3.org/2000/svg" style="position:absolute; margin-left: -100%" 
  xmlns:xlink="http://www.w3.org/1999/xlink"><g xmlns="http://www.w3.org/2000/svg" id="briefcas" >
    <g>
      <path d="M31.439,5.787h-7.161V2.492c0-0.308-0.254-0.56-0.561-0.56H8.282c-0.31,0-0.561,0.252-0.561,0.56v3.295
		H0.561C0.254,5.787,0,6.039,0,6.347v7.722v15.44c0,0.309,0.254,0.56,0.561,0.56h30.879c0.307,0,0.561-0.251,0.561-0.56v-15.44
		V6.347C32,6.039,31.746,5.787,31.439,5.787z M8.841,3.052h14.316v2.735H8.841V3.052z M1.121,6.909h29.758v6.599h-12.45
		c-0.02-0.083-0.07-0.15-0.1-0.232c-0.037-0.114-0.08-0.219-0.131-0.324c-0.088-0.17-0.191-0.317-0.314-0.461
		c-0.072-0.088-0.139-0.174-0.222-0.25c-0.149-0.137-0.323-0.24-0.497-0.335c-0.088-0.049-0.165-0.107-0.259-0.145
		c-0.282-0.111-0.585-0.183-0.907-0.183c-0.323,0-0.628,0.072-0.908,0.183c-0.094,0.038-0.168,0.096-0.254,0.142
		c-0.179,0.096-0.35,0.201-0.502,0.338c-0.082,0.076-0.146,0.162-0.219,0.25c-0.12,0.141-0.227,0.291-0.312,0.461
		c-0.053,0.104-0.099,0.209-0.136,0.324c-0.026,0.082-0.077,0.149-0.097,0.232H1.121V6.909z M14.626,14.069
		c0-0.756,0.617-1.371,1.373-1.371c0.755,0,1.375,0.615,1.375,1.371v3.859c0,0.755-0.62,1.37-1.375,1.37
		c-0.756,0-1.373-0.615-1.373-1.37V14.069z M30.879,28.948H1.121v-14.32h12.387v3.3c0,1.373,1.116,2.49,2.491,2.49
		s2.493-1.117,2.493-2.49v-3.3h12.387V28.948z"/>
    </g>
  </g></svg>