<svg id="svg-source" height="0" version="1.1" 
  xmlns="http://www.w3.org/2000/svg" style="position:absolute; margin-left: -100%" 
  xmlns:xlink="http://www.w3.org/1999/xlink"><g xmlns="http://www.w3.org/2000/svg" id="briefcase" >
    <path d="M31.439,5.785h-5.644h-1.517V2.49c0-0.309-0.252-0.561-0.561-0.561H8.279c-0.31,0-0.561,0.252-0.561,0.561
	v3.295H6.396H0.561C0.251,5.785,0,6.038,0,6.346v7.72v15.442c0,0.31,0.251,0.561,0.561,0.561h5.836h3.766h11.87h3.764h5.644
	c0.31,0,0.561-0.251,0.561-0.561V14.066v-7.72C32,6.038,31.749,5.785,31.439,5.785z M30.88,13.507h-4.523V6.906h4.523V13.507z
	 M8.839,3.05h14.319v2.735h-1.126h-11.87H8.839V3.05z M10.722,6.906h10.749v6.601H10.722V6.906z M1.121,6.906h4.715v6.601H1.121
	V6.906z M1.121,14.628h4.715v14.321H1.121V14.628z M6.957,14.066v-7.16h2.645v7.16v14.883H6.957V14.066z M10.722,14.628h10.749
	v14.321H10.722V14.628z M22.592,14.066v-7.16h2.643v7.16v14.883h-2.643V14.066z M30.88,28.949h-4.523V14.628h4.523V28.949z"/>
  </g></svg>