<svg id="svg-source" height="0" version="1.1" 
  xmlns="http://www.w3.org/2000/svg" style="position:absolute; margin-left: -100%" 
  xmlns:xlink="http://www.w3.org/1999/xlink"><g xmlns="http://www.w3.org/2000/svg" id="bubble-speach5" >
    <g>
      <g>
        <g>
          <g>
            <path d="M23.714,12.715H8.286c-0.318,0-0.575-0.258-0.575-0.574s0.257-0.574,0.575-0.574h15.428
					c0.316,0,0.574,0.258,0.574,0.574S24.03,12.715,23.714,12.715z"/>
          </g>
        </g>
      </g>
      <g>
        <g>
          <g>
            <path d="M25.641,32c-0.149,0-0.297-0.059-0.406-0.168l-7.544-7.541H0.576c-0.316,0-0.574-0.259-0.574-0.574
					V0.575C0.002,0.258,0.26,0,0.576,0h30.849c0.317,0,0.574,0.258,0.574,0.575v23.142c0,0.315-0.257,0.574-0.574,0.574h-5.212
					v7.135c0,0.232-0.139,0.442-0.353,0.529C25.789,31.987,25.714,32,25.641,32z M1.15,23.142h16.778
					c0.152,0,0.297,0.062,0.405,0.169l6.731,6.729v-6.323c0-0.317,0.257-0.576,0.575-0.576h5.211V1.148H1.15V23.142z"/>
          </g>
        </g>
      </g>
      <g>
        <g>
          <g>
            <path d="M23.714,16.577H8.287c-0.317,0-0.572-0.258-0.572-0.574s0.255-0.574,0.572-0.574h15.427
					c0.316,0,0.574,0.258,0.574,0.574S24.03,16.577,23.714,16.577z"/>
          </g>
        </g>
      </g>
      <g>
        <g>
          <g>
            <path d="M23.714,8.862H8.287c-0.317,0-0.572-0.258-0.572-0.574c0-0.315,0.255-0.573,0.572-0.573h15.427
					c0.316,0,0.574,0.258,0.574,0.573C24.288,8.604,24.03,8.862,23.714,8.862z"/>
          </g>
        </g>
      </g>
    </g>
  </g></svg>