<svg id="svg-source" height="0" version="1.1" 
  xmlns="http://www.w3.org/2000/svg" style="position:absolute; margin-left: -100%" 
  xmlns:xlink="http://www.w3.org/1999/xlink"><g xmlns="http://www.w3.org/2000/svg" id="bubble-speach2" >
    <g>
      <g>
        <g>
          <g>
            <g>
              <path d="M26.132,32l-5.265-5.267c-1.585,0.473-3.218,0.714-4.873,0.714c-8.506,0-15.428-6.157-15.428-13.725
						C0.566,6.157,7.488,0,15.994,0c8.516,0,15.439,6.157,15.439,13.722c0,3.976-1.93,7.732-5.302,10.347V32z M21.177,25.462
						l3.837,3.835V23.51l0.222-0.169c3.229-2.407,5.077-5.912,5.077-9.619c0-6.948-6.422-12.602-14.318-12.602
						c-7.887,0-14.307,5.654-14.307,12.602c0,6.949,6.42,12.605,14.307,12.605c1.652,0,3.283-0.257,4.859-0.762L21.177,25.462z"/>
            </g>
          </g>
        </g>
      </g>
      <g>
        <g>
          <g>
            <g>
              <path d="M23.527,14.487H8.479c-0.308,0-0.559-0.251-0.559-0.56c0-0.308,0.251-0.56,0.559-0.56h15.049
						c0.307,0,0.558,0.252,0.558,0.56C24.085,14.236,23.834,14.487,23.527,14.487z"/>
            </g>
          </g>
        </g>
        <g>
          <g>
            <g>
              <path d="M23.527,18.253H8.479c-0.308,0-0.559-0.252-0.559-0.56c0-0.309,0.251-0.561,0.559-0.561h15.049
						c0.307,0,0.558,0.252,0.558,0.561C24.085,18.001,23.834,18.253,23.527,18.253z"/>
            </g>
          </g>
        </g>
        <g>
          <g>
            <g>
              <path d="M23.527,10.73H8.479c-0.308,0-0.559-0.251-0.559-0.56S8.171,9.61,8.479,9.61h15.049
						c0.307,0,0.558,0.252,0.558,0.561S23.834,10.73,23.527,10.73z"/>
            </g>
          </g>
        </g>
      </g>
    </g>
  </g></svg>