<svg id="svg-source" height="0" version="1.1" 
  xmlns="http://www.w3.org/2000/svg" style="position:absolute; margin-left: -100%" 
  xmlns:xlink="http://www.w3.org/1999/xlink"><g xmlns="http://www.w3.org/2000/svg" id="bubble-speach3" >
    <g>
      <g>
        <g>
          <g>
            <path d="M25.64,32c-0.147,0-0.296-0.059-0.405-0.168l-7.544-7.541H0.574C0.258,24.291,0,24.032,0,23.717V0.575
					C0,0.258,0.258,0,0.574,0h30.852C31.744,0,32,0.258,32,0.575v23.142c0,0.315-0.256,0.574-0.574,0.574h-5.212v7.135
					c0,0.232-0.14,0.442-0.354,0.529C25.79,31.987,25.714,32,25.64,32z M1.149,23.142h16.778c0.153,0,0.299,0.062,0.407,0.169
					l6.73,6.729v-6.323c0-0.317,0.257-0.576,0.574-0.576h5.212V1.148H1.149V23.142z"/>
          </g>
        </g>
      </g>
      <g>
        <g>
          <g>
            <g>
              <path d="M10.043,14.644c-1.381,0-2.503-1.122-2.503-2.502c0-1.379,1.122-2.501,2.503-2.501
						c1.379,0,2.502,1.122,2.502,2.501C12.545,13.521,11.422,14.644,10.043,14.644z M10.043,10.787
						c-0.747,0-1.356,0.609-1.356,1.354c0,0.748,0.609,1.355,1.356,1.355c0.746,0,1.354-0.607,1.354-1.355
						C11.396,11.396,10.789,10.787,10.043,10.787z"/>
            </g>
          </g>
        </g>
        <g>
          <g>
            <g>
              <path d="M15.916,14.644c-1.381,0-2.504-1.122-2.504-2.502c0-1.379,1.123-2.501,2.504-2.501
						c1.379,0,2.502,1.122,2.502,2.501C18.418,13.521,17.295,14.644,15.916,14.644z M15.916,10.787
						c-0.747,0-1.355,0.609-1.355,1.354c0,0.748,0.608,1.355,1.355,1.355c0.745,0,1.354-0.607,1.354-1.355
						C17.27,11.396,16.661,10.787,15.916,10.787z"/>
            </g>
          </g>
        </g>
        <g>
          <g>
            <g>
              <path d="M21.785,14.644c-1.381,0-2.501-1.122-2.501-2.502c0-1.379,1.12-2.501,2.501-2.501
						s2.502,1.122,2.502,2.501C24.287,13.521,23.166,14.644,21.785,14.644z M21.785,10.787c-0.746,0-1.355,0.609-1.355,1.354
						c0,0.748,0.609,1.355,1.355,1.355s1.354-0.607,1.354-1.355C23.14,11.396,22.531,10.787,21.785,10.787z"/>
            </g>
          </g>
        </g>
      </g>
    </g>
  </g></svg>