<svg id="svg-source" height="0" version="1.1" 
  xmlns="http://www.w3.org/2000/svg" style="position:absolute; margin-left: -100%" 
  xmlns:xlink="http://www.w3.org/1999/xlink"><g xmlns="http://www.w3.org/2000/svg" id="bubble-speach4" >
    <g>
      <path d="M23.713,15.429H8.287c-0.314,0-0.574,0.258-0.574,0.574c0,0.316,0.26,0.574,0.574,0.574h15.426
		c0.317,0,0.574-0.258,0.574-0.574C24.287,15.687,24.03,15.429,23.713,15.429z"/>
      <path d="M23.713,11.567H8.285c-0.318,0-0.575,0.258-0.575,0.574s0.257,0.574,0.575,0.574h15.428
		c0.317,0,0.574-0.258,0.574-0.574S24.03,11.567,23.713,11.567z"/>
      <path d="M23.713,7.715H8.287c-0.314,0-0.574,0.258-0.574,0.573c0,0.316,0.26,0.574,0.574,0.574h15.426
		c0.317,0,0.574-0.258,0.574-0.574C24.287,7.973,24.03,7.715,23.713,7.715z"/>
      <path d="M29.496,0H2.504C1.122,0,0,1.125,0,2.503v19.281c0,1.354,1.084,2.459,2.424,2.5
		c0.027,0.003,0.055,0.007,0.08,0.007h15.188l7.54,7.541c0.112,0.109,0.26,0.167,0.41,0.167c0.071,0,0.147-0.013,0.219-0.044
		c0.214-0.088,0.355-0.297,0.355-0.529v-7.135h3.28c0.03,0,0.055-0.004,0.082-0.007c1.336-0.044,2.416-1.144,2.422-2.506V2.497
		C31.994,1.121,30.87,0,29.496,0z M30.851,21.79c-0.003,0.743-0.612,1.348-1.354,1.348c-0.024,0-0.049,0.003-0.07,0.004h-3.784
		c-0.32,0-0.574,0.258-0.574,0.575v6.323l-6.733-6.729c-0.109-0.107-0.252-0.169-0.405-0.169H2.574
		c-0.027-0.001-0.046-0.004-0.07-0.004c-0.747,0-1.354-0.608-1.354-1.354V2.503c0-0.747,0.607-1.355,1.354-1.355h26.992
		c0.742,0,1.352,0.608,1.354,1.359V21.79z"/>
    </g>
  </g></svg>