<svg id="svg-source" height="0" version="1.1" 
  xmlns="http://www.w3.org/2000/svg" style="position:absolute; margin-left: -100%" 
  xmlns:xlink="http://www.w3.org/1999/xlink"><g xmlns="http://www.w3.org/2000/svg" id="bubble-speach1" >
    <g>
      <g>
        <g>
          <g>
            <path d="M10.041,14.644c-1.379,0-2.501-1.122-2.501-2.502c0-1.379,1.122-2.501,2.501-2.501
					s2.504,1.123,2.504,2.501C12.545,13.521,11.42,14.644,10.041,14.644z M10.041,10.787c-0.744,0-1.352,0.609-1.352,1.354
					c0,0.748,0.607,1.355,1.352,1.355c0.747,0,1.354-0.607,1.354-1.355C11.396,11.396,10.788,10.787,10.041,10.787z"/>
          </g>
        </g>
      </g>
      <g>
        <g>
          <g>
            <path d="M15.912,14.644c-1.379,0-2.5-1.122-2.5-2.502c0-1.379,1.121-2.501,2.5-2.501s2.504,1.123,2.504,2.501
					C18.416,13.521,17.291,14.644,15.912,14.644z M15.912,10.787c-0.746,0-1.354,0.609-1.354,1.354c0,0.748,0.607,1.355,1.354,1.355
					c0.75,0,1.357-0.607,1.357-1.355C17.27,11.396,16.662,10.787,15.912,10.787z"/>
          </g>
        </g>
      </g>
      <g>
        <g>
          <g>
            <path d="M21.781,14.644c-1.377,0-2.501-1.122-2.501-2.502c0-1.379,1.124-2.501,2.501-2.501
					c1.382,0,2.503,1.123,2.503,2.501C24.284,13.521,23.163,14.644,21.781,14.644z M21.781,10.787c-0.747,0-1.352,0.609-1.352,1.354
					c0,0.748,0.604,1.355,1.352,1.355c0.75,0,1.357-0.607,1.357-1.355C23.139,11.396,22.531,10.787,21.781,10.787z"/>
          </g>
        </g>
      </g>
      <g>
        <g>
          <g>
            <path d="M25.636,32c-0.15,0-0.298-0.058-0.407-0.167l-7.541-7.541H2.504c-0.027,0-0.055-0.004-0.082-0.007
					C1.084,24.246,0,23.138,0,21.784V2.503C0,1.125,1.122,0,2.504,0h26.992c1.377,0,2.498,1.122,2.498,2.5v19.212
					C31.997,21.733,32,21.759,32,21.784c0,0.026-0.003,0.05-0.006,0.078c-0.035,1.315-1.1,2.381-2.418,2.422
					c-0.025,0.003-0.053,0.007-0.08,0.007h-3.285v7.135c0,0.232-0.14,0.441-0.355,0.532C25.783,31.986,25.71,32,25.636,32z
					 M2.572,23.142h15.354c0.153,0,0.299,0.062,0.405,0.169l6.73,6.729v-6.323c0-0.317,0.257-0.575,0.574-0.575h3.79
					c0.024-0.001,0.046-0.004,0.07-0.004c0.744,0,1.35-0.603,1.35-1.346c0-0.004,0-0.008,0-0.014V2.508
					c0-0.753-0.605-1.359-1.35-1.359H2.504c-0.748,0-1.354,0.608-1.354,1.355v19.281c0,0.745,0.604,1.354,1.349,1.354
					C2.525,23.138,2.547,23.141,2.572,23.142z"/>
          </g>
        </g>
      </g>
    </g>
  </g></svg>