<svg id="svg-source" height="0" version="1.1" 
  xmlns="http://www.w3.org/2000/svg" style="position:absolute; margin-left: -100%" 
  xmlns:xlink="http://www.w3.org/1999/xlink"><g xmlns="http://www.w3.org/2000/svg" id="bubble-speach" >
    <g>
      <g>
        <g>
          <g>
            <g>
              <path d="M10.275,16.254c-1.348,0-2.442-1.096-2.442-2.441c0-1.344,1.095-2.441,2.442-2.441
						c1.342,0,2.436,1.097,2.436,2.441C12.711,15.158,11.617,16.254,10.275,16.254z M10.275,12.493c-0.729,0-1.323,0.592-1.323,1.32
						c0,0.729,0.595,1.322,1.323,1.322c0.726,0,1.317-0.593,1.317-1.322C11.593,13.085,11.001,12.493,10.275,12.493z"/>
            </g>
          </g>
        </g>
        <g>
          <g>
            <g>
              <path d="M15.999,16.254c-1.346,0-2.441-1.096-2.441-2.441c0-1.344,1.096-2.441,2.441-2.441
						c1.345,0,2.441,1.097,2.441,2.441C18.44,15.158,17.344,16.254,15.999,16.254z M15.999,12.493c-0.729,0-1.321,0.592-1.321,1.32
						c0,0.729,0.593,1.322,1.321,1.322s1.32-0.593,1.32-1.322C17.319,13.085,16.728,12.493,15.999,12.493z"/>
            </g>
          </g>
        </g>
        <g>
          <g>
            <g>
              <path d="M21.722,16.254c-1.344,0-2.441-1.096-2.441-2.441c0-1.344,1.098-2.441,2.441-2.441
						c1.348,0,2.442,1.097,2.442,2.441C24.164,15.158,23.069,16.254,21.722,16.254z M21.722,12.493c-0.725,0-1.317,0.592-1.317,1.32
						c0,0.729,0.593,1.322,1.317,1.322c0.729,0,1.321-0.593,1.321-1.322C23.043,13.085,22.45,12.493,21.722,12.493z"/>
            </g>
          </g>
        </g>
      </g>
      <g>
        <g>
          <g>
            <path d="M26.133,32l-5.267-5.267c-1.586,0.473-3.219,0.714-4.867,0.714c-8.51,0-15.432-6.157-15.432-13.725
					C0.567,6.157,7.489,0,15.999,0c8.512,0,15.434,6.157,15.434,13.722c0,3.976-1.927,7.732-5.3,10.347V32z M21.178,25.462
					l3.835,3.835V23.51l0.227-0.169c3.226-2.407,5.075-5.912,5.075-9.619c0-6.948-6.426-12.602-14.315-12.602
					c-7.891,0-14.313,5.654-14.313,12.602c0,6.949,6.423,12.605,14.313,12.605c1.646,0,3.276-0.257,4.854-0.762L21.178,25.462z"/>
          </g>
        </g>
      </g>
    </g>
  </g></svg>