<svg id="svg-source" height="0" version="1.1" 
  xmlns="http://www.w3.org/2000/svg" style="position:absolute; margin-left: -100%" 
  xmlns:xlink="http://www.w3.org/1999/xlink"><g xmlns="http://www.w3.org/2000/svg" id="calendar" >
    <g>
      <path d="M31.426,0H0.574C0.26,0,0,0.259,0,0.574v9.567v21.284C0,31.742,0.26,32,0.574,32h30.852
		C31.74,32,32,31.742,32,31.425V10.141V0.574C32,0.259,31.74,0,31.426,0z M1.149,1.149h29.701v8.417H1.149V1.149z M1.149,10.714
		h29.701v12.427H23.71c-0.314,0-0.571,0.258-0.571,0.575v7.135H1.149V10.714z M30.038,24.29l-5.753,5.75v-5.75H30.038z
		 M25.098,30.852l5.753-5.749v5.749H25.098z"/>
      <path d="M9.277,3.849c-0.828,0-1.507,0.674-1.507,1.507c0,0.834,0.679,1.511,1.507,1.511
		c0.832,0,1.511-0.677,1.511-1.511C10.788,4.523,10.109,3.849,9.277,3.849z M8.922,5.356c0-0.199,0.159-0.358,0.355-0.358
		c0.197,0,0.361,0.16,0.361,0.358C9.639,5.763,8.922,5.763,8.922,5.356z"/>
      <path d="M22.714,3.849c-0.829,0-1.507,0.674-1.507,1.507c0,0.834,0.678,1.511,1.507,1.511
		c0.835,0,1.511-0.677,1.511-1.511C24.225,4.523,23.549,3.849,22.714,3.849z M22.355,5.356c0-0.199,0.162-0.358,0.358-0.358
		c0.2,0,0.364,0.16,0.364,0.358C23.075,5.756,22.355,5.762,22.355,5.356z"/>
    </g>
  </g></svg>