<svg id="svg-source" height="0" version="1.1" 
  xmlns="http://www.w3.org/2000/svg" style="position:absolute; margin-left: -100%" 
  xmlns:xlink="http://www.w3.org/1999/xlink"><g xmlns="http://www.w3.org/2000/svg" id="cd" >
    <g>
      <path d="M15.997,0.001C7.174,0.001,0,7.176,0,15.998C0,24.823,7.174,32,15.997,32C24.818,32,32,24.823,32,15.998
		C32,7.176,24.818,0.001,15.997,0.001z M15.997,30.852c-8.188,0-14.851-6.663-14.851-14.854c0-8.188,6.662-14.85,14.851-14.85
		s14.854,6.662,14.854,14.85C30.851,24.188,24.186,30.852,15.997,30.852z"/>
      <path d="M15.997,9.639c-3.505,0-6.358,2.853-6.358,6.359c0,3.508,2.854,6.36,6.358,6.36s6.358-2.853,6.358-6.36
		C22.355,12.491,19.502,9.639,15.997,9.639z M15.997,21.211c-2.875,0-5.212-2.34-5.212-5.213c0-2.874,2.337-5.21,5.212-5.21
		c2.873,0,5.21,2.336,5.21,5.21C21.207,18.871,18.87,21.211,15.997,21.211z"/>
      <path d="M15.997,5.786c-0.319,0-0.574,0.258-0.574,0.575c0,0.315,0.255,0.574,0.574,0.574
		c4.999,0,9.067,4.064,9.067,9.062c0,0.316,0.257,0.572,0.574,0.572s0.574-0.256,0.574-0.572
		C26.213,10.368,21.631,5.786,15.997,5.786z"/>
      <path d="M15.997,25.066c-5.001,0-9.069-4.066-9.069-9.068c0-0.315-0.258-0.574-0.572-0.574
		c-0.32,0-0.574,0.259-0.574,0.574c0,5.634,4.583,10.218,10.216,10.218c0.315,0,0.575-0.26,0.575-0.575
		C16.572,25.324,16.312,25.066,15.997,25.066z"/>
      <path d="M15.997,3.859c-0.319,0-0.574,0.256-0.574,0.574c0,0.316,0.255,0.572,0.574,0.572
		c6.063,0,10.996,4.932,10.996,10.992c0,0.316,0.255,0.572,0.574,0.572c0.317,0,0.575-0.256,0.575-0.572
		C28.143,9.307,22.692,3.859,15.997,3.859z"/>
      <path d="M15.997,26.994c-6.065,0-10.999-4.933-10.999-10.996c0-0.315-0.254-0.574-0.571-0.574
		c-0.32,0-0.574,0.259-0.574,0.574c0,6.695,5.447,12.145,12.145,12.145c0.315,0,0.575-0.256,0.575-0.575
		C16.572,27.253,16.312,26.994,15.997,26.994z"/>
    </g>
  </g></svg>