<svg id="svg-source" height="0" version="1.1" 
  xmlns="http://www.w3.org/2000/svg" style="position:absolute; margin-left: -100%" 
  xmlns:xlink="http://www.w3.org/1999/xlink"><g xmlns="http://www.w3.org/2000/svg" id="cd1" >
    <g>
      <path d="M23.995,2.143C21.563,0.74,18.801,0,16.008,0C10.303,0,4.989,3.062,2.143,8.001
		c-2.203,3.81-2.651,8.16-1.597,12.115c0,0.005-0.008,0.012-0.004,0.022c0.001,0.009,0.013,0.013,0.015,0.022
		c1.064,3.948,3.625,7.493,7.438,9.694C10.425,31.259,13.187,32,15.979,32c5.705,0,11.021-3.065,13.87-8.002
		c2.137-3.7,2.703-8.01,1.597-12.139C30.344,7.734,27.696,4.284,23.995,2.143z M23.91,3.434c3.021,1.898,5.22,4.767,6.268,8.169
		l-8.214,2.202c-0.444-1.218-1.24-2.256-2.305-3.004l3.514-6.087L23.91,3.434z M10.958,17.338c-0.359-1.342-0.175-2.742,0.518-3.945
		c0.933-1.605,2.663-2.604,4.522-2.604c0.908,0,1.808,0.243,2.6,0.699c1.211,0.697,2.072,1.821,2.428,3.16
		c0.36,1.348,0.176,2.755-0.52,3.955c-0.928,1.607-2.656,2.606-4.517,2.606c-0.911,0-1.809-0.241-2.601-0.7
		c-1.202-0.691-2.061-1.811-2.425-3.148c0-0.007,0.003-0.009,0.003-0.014C10.964,17.345,10.958,17.341,10.958,17.338z M3.137,8.574
		c2.643-4.581,7.574-7.427,12.871-7.427c2.401,0,4.777,0.589,6.908,1.712l-4.254,7.368c-0.834-0.384-1.745-0.588-2.664-0.588
		c-2.269,0-4.381,1.216-5.516,3.179c-0.75,1.304-0.982,2.795-0.729,4.26L1.537,19.28C0.735,15.755,1.192,11.94,3.137,8.574z
		 M1.833,20.387l8.221-2.202c0.445,1.216,1.236,2.242,2.293,2.986l-4.26,7.377C4.987,26.594,2.846,23.664,1.833,20.387z
		 M28.856,23.425c-2.646,4.583-7.581,7.428-12.877,7.428c-2.399,0-4.765-0.613-6.896-1.736l4.268-7.39
		c0.831,0.385,1.722,0.631,2.64,0.631c2.268,0,4.379-1.217,5.51-3.179c0.753-1.302,1.015-2.797,0.761-4.267l8.215-2.197
		C31.31,16.373,30.743,20.156,28.856,23.425z"/>
    </g>
  </g></svg>