<svg id="svg-source" height="0" version="1.1" 
  xmlns="http://www.w3.org/2000/svg" style="position:absolute; margin-left: -100%" 
  xmlns:xlink="http://www.w3.org/1999/xlink"><g xmlns="http://www.w3.org/2000/svg" id="close" >
    <g>
      <path d="M16.288,0.003l-0.295-0.002c-8.659,0-15.833,7.046-15.99,15.708c-0.16,8.822,6.885,16.128,15.705,16.289
		L16.004,32c8.659,0,15.835-7.048,15.993-15.707c0.078-4.275-1.512-8.323-4.48-11.396C24.549,1.816,20.562,0.083,16.288,0.003z
		 M16.004,30.852l-0.276-0.004C7.542,30.701,1,23.919,1.15,15.731C1.297,7.69,7.955,1.15,15.993,1.15l0.275,0.003
		c3.968,0.068,7.667,1.683,10.421,4.54c2.755,2.855,4.231,6.611,4.16,10.574C30.702,24.311,24.041,30.852,16.004,30.852z"/>
      <path d="M21.153,10.236l-5.139,4.953l-4.957-5.139c-0.219-0.229-0.583-0.234-0.811-0.016
		c-0.229,0.219-0.234,0.584-0.015,0.812l4.955,5.141l-5.137,4.952c-0.229,0.222-0.235,0.583-0.017,0.812
		c0.113,0.117,0.263,0.174,0.413,0.174c0.144,0,0.288-0.052,0.399-0.16l5.136-4.953l4.953,5.136
		c0.115,0.118,0.265,0.178,0.415,0.178c0.145,0,0.287-0.054,0.397-0.163c0.229-0.219,0.237-0.583,0.015-0.812l-4.951-5.137
		l5.137-4.953c0.229-0.22,0.234-0.582,0.016-0.812C21.744,10.021,21.38,10.02,21.153,10.236z"/>
    </g>
  </g></svg>