<svg id="svg-source" height="0" version="1.1" 
  xmlns="http://www.w3.org/2000/svg" style="position:absolute; margin-left: -100%" 
  xmlns:xlink="http://www.w3.org/1999/xlink"><g xmlns="http://www.w3.org/2000/svg" id="console" >
    <g>
      <path d="M4.293,5.898c0.812,0,1.472-0.659,1.472-1.471c0-0.81-0.659-1.467-1.472-1.467S2.82,3.618,2.82,4.427
		C2.82,5.239,3.48,5.898,4.293,5.898z M4.293,4.109c0.178,0,0.322,0.144,0.322,0.318c0,0.354-0.646,0.354-0.646,0
		C3.97,4.253,4.115,4.109,4.293,4.109z"/>
      <path d="M31.426,0H0.574C0.26,0,0,0.259,0,0.574v30.852C0,31.742,0.26,32,0.574,32h30.852
		C31.743,32,32,31.742,32,31.425V0.574C32,0.259,31.743,0,31.426,0z M30.851,1.149V7.71H1.149V1.149H30.851z M1.149,30.852V8.858
		h29.701v21.994H1.149z"/>
      <path d="M15.948,5.943c0.837,0,1.519-0.68,1.519-1.516c0-0.834-0.682-1.512-1.519-1.512
		c-0.835,0-1.513,0.678-1.513,1.512C14.436,5.263,15.113,5.943,15.948,5.943z M15.948,4.063c0.202,0,0.366,0.165,0.366,0.364
		c0,0.401-0.728,0.405-0.728,0C15.587,4.228,15.748,4.063,15.948,4.063z"/>
      <path d="M4.692,11.733c-0.229-0.218-0.594-0.213-0.812,0.014c-0.22,0.229-0.214,0.592,0.014,0.811l3.575,3.447
		l-3.444,3.444c-0.224,0.224-0.224,0.588,0,0.812c0.115,0.112,0.261,0.168,0.408,0.168s0.292-0.056,0.404-0.168l4.269-4.27
		L4.692,11.733z"/>
      <path d="M12.143,19.281H8.29c-0.317,0-0.574,0.258-0.574,0.574c0,0.315,0.257,0.574,0.574,0.574h3.853
		c0.312,0,0.571-0.258,0.571-0.574C12.714,19.539,12.454,19.281,12.143,19.281z"/>
      <path d="M10.099,5.943c0.837,0,1.516-0.68,1.516-1.516c0-0.834-0.679-1.512-1.516-1.512
		c-0.835,0-1.513,0.678-1.513,1.512C8.586,5.263,9.264,5.943,10.099,5.943z M10.099,4.063c0.202,0,0.366,0.165,0.366,0.364
		c0,0.401-0.73,0.405-0.73,0C9.734,4.228,9.898,4.063,10.099,4.063z"/>
    </g>
  </g></svg>