<svg id="svg-source" height="0" version="1.1" 
  xmlns="http://www.w3.org/2000/svg" style="position:absolute; margin-left: -100%" 
  xmlns:xlink="http://www.w3.org/1999/xlink"><g xmlns="http://www.w3.org/2000/svg" id="contacts" >
    <path d="M27.708,5.968c0.32,0,0.574-0.258,0.574-0.573V1.538c0-0.315-0.254-0.573-0.574-0.573h-1.037V0.573
	C26.671,0.259,26.417,0,26.097,0H4.292C3.973,0,3.718,0.259,3.718,0.573v30.853C3.718,31.742,3.973,32,4.292,32h21.805
	c0.32,0,0.574-0.258,0.574-0.574V17.538h1.037c0.32,0,0.574-0.258,0.574-0.574v-3.857c0-0.315-0.254-0.574-0.574-0.574h-1.037v-0.78
	h1.037c0.32,0,0.574-0.258,0.574-0.574V7.323c0-0.317-0.254-0.575-0.574-0.575h-1.037v-0.78H27.708z M27.134,2.113V4.82h-0.463
	V2.113H27.134z M25.524,19.283h-6.842c-0.244,0-0.46,0.151-0.539,0.379l-4.019,11.19H8.722V1.148h16.803V19.283z M4.864,1.148h2.708
	v29.704H4.864V1.148z M15.345,30.853l3.74-10.421h6.439v10.421H15.345z M27.134,13.682v2.708h-0.463v-2.708H27.134z M27.134,7.897
	v2.708h-0.463V7.897H27.134z"/>
  </g></svg>