<svg id="svg-source" height="0" version="1.1" 
  xmlns="http://www.w3.org/2000/svg" style="position:absolute; margin-left: -100%" 
  xmlns:xlink="http://www.w3.org/1999/xlink"><g xmlns="http://www.w3.org/2000/svg" id="cord" >
    <g>
      <path d="M20.152,27.532c-0.28,0-0.513,0.23-0.513,0.512c0,1.616-1.313,2.932-2.926,2.932
		c-1.438,0-2.632-1.048-2.876-2.419h2.088c0.283,0,0.513-0.229,0.513-0.513V17.719c0-0.207-0.142-0.353-0.32-0.433V5.676
		c0-0.08-0.02-0.157-0.054-0.228l-0.747-1.494l0.747-1.492c0.099-0.198,0.06-0.434-0.095-0.593L14.251,0.15
		c-0.198-0.199-0.523-0.202-0.726,0l-1.727,1.719c-0.156,0.159-0.195,0.395-0.095,0.593l0.747,1.492l-0.747,1.494
		c-0.034,0.07-0.054,0.147-0.054,0.228v11.612c-0.176,0.079-0.315,0.224-0.315,0.431v10.325c0,0.284,0.228,0.513,0.513,0.513h0.965
		C13.063,30.495,14.71,32,16.714,32c2.176,0,3.951-1.773,3.951-3.956C20.665,27.763,20.436,27.532,20.152,27.532z M12.676,5.796
		l0.806-1.614c0.073-0.144,0.073-0.312,0-0.456l-0.695-1.39l1.104-1.101l1.094,1.098l-0.696,1.393c-0.071,0.144-0.071,0.312,0,0.456
		l0.806,1.614v0.033h-2.417V5.796z M12.676,6.852h2.417v0.697h-2.417V6.852z M12.676,8.572h2.417v8.634h-2.417V8.572z M12.36,27.532
		V18.23h3.053v9.302H12.36z"/>
    </g>
  </g></svg>