<svg id="svg-source" height="0" version="1.1" 
  xmlns="http://www.w3.org/2000/svg" style="position:absolute; margin-left: -100%" 
  xmlns:xlink="http://www.w3.org/1999/xlink"><g xmlns="http://www.w3.org/2000/svg" id="direction-size1" >
    <g>
      <path d="M21.998,9.543c0.153,0,0.298-0.06,0.406-0.167l3.597-3.602c0.224-0.225,0.224-0.587,0-0.811l-3.597-3.599
		c-0.108-0.106-0.253-0.167-0.406-0.167h-5.422V0.573C16.576,0.257,16.319,0,16.002,0c-0.318,0-0.574,0.257-0.574,0.573v0.625H6.405
		c-0.232,0-0.442,0.137-0.53,0.354C5.786,1.768,5.835,2.014,6,2.178l3.19,3.191L6,8.563C5.834,8.727,5.786,8.973,5.875,9.188
		c0.088,0.218,0.298,0.354,0.53,0.354h9.019v1.206h-5.421c-0.153,0-0.299,0.061-0.406,0.17L6,14.517
		c-0.225,0.224-0.225,0.588,0,0.812l3.597,3.6c0.107,0.106,0.253,0.167,0.406,0.167h5.426v12.327c0,0.318,0.256,0.577,0.574,0.577
		c0.316,0,0.573-0.259,0.573-0.577V19.096h9.02c0.232,0,0.441-0.138,0.53-0.353s0.04-0.464-0.124-0.627l-3.191-3.193l3.191-3.192
		c0.164-0.164,0.213-0.41,0.124-0.626c-0.089-0.214-0.298-0.355-0.53-0.355h-9.023V9.543H21.998z M24.209,11.898l-2.617,2.618
		c-0.224,0.224-0.224,0.588,0,0.812l2.617,2.617H10.239l-3.022-3.023l3.022-3.024H24.209z M7.79,8.396l2.619-2.621
		c0.223-0.225,0.223-0.587,0-0.811L7.79,2.346h13.971l3.022,3.023l-3.022,3.026H7.79z"/>
    </g>
  </g></svg>