<svg id="svg-source" height="0" version="1.1" 
  xmlns="http://www.w3.org/2000/svg" style="position:absolute; margin-left: -100%" 
  xmlns:xlink="http://www.w3.org/1999/xlink"><g xmlns="http://www.w3.org/2000/svg" id="direction-size2" >
    <g>
      <path d="M25.645,14.683c0.152,0,0.298-0.061,0.406-0.169l5.781-5.786c0.224-0.224,0.224-0.586,0-0.812l-5.781-5.785
		c-0.108-0.106-0.254-0.168-0.406-0.168h-9.068V0.608c0-0.316-0.257-0.575-0.574-0.575s-0.574,0.259-0.574,0.575v1.354H0.575
		c-0.232,0-0.442,0.139-0.53,0.354c-0.089,0.217-0.04,0.463,0.124,0.627l5.38,5.379l-5.38,5.381
		c-0.164,0.162-0.213,0.409-0.124,0.627c0.088,0.213,0.298,0.353,0.53,0.353h14.849v2.638H6.356c-0.153,0-0.299,0.061-0.406,0.167
		l-5.781,5.786c-0.224,0.225-0.224,0.587,0,0.812L5.95,29.87c0.107,0.109,0.253,0.169,0.406,0.169h9.067v1.354
		c0,0.315,0.257,0.574,0.575,0.574c0.316,0,0.574-0.259,0.574-0.574v-1.354h14.854c0.232,0,0.442-0.14,0.53-0.356
		c0.088-0.213,0.039-0.459-0.125-0.625l-5.38-5.379l5.38-5.379c0.164-0.163,0.213-0.412,0.125-0.626
		c-0.088-0.216-0.298-0.354-0.53-0.354H16.572v-2.638H25.645z M30.041,18.468l-4.808,4.806c-0.224,0.225-0.224,0.587,0,0.812
		l4.808,4.805H6.593l-5.206-5.212l5.206-5.211H30.041z M1.96,13.533l4.806-4.806c0.224-0.224,0.224-0.586,0-0.812L1.96,3.11h23.447
		l5.207,5.212l-5.207,5.211H1.96z"/>
    </g>
  </g></svg>