<svg id="svg-source" height="0" version="1.1" 
  xmlns="http://www.w3.org/2000/svg" style="position:absolute; margin-left: -100%" 
  xmlns:xlink="http://www.w3.org/1999/xlink"><g xmlns="http://www.w3.org/2000/svg" id="documents" >
    <g>
      <path d="M1.267,19.506h29.439c0.003,0,0.015,0,0.026,0c0.346,0,0.621-0.278,0.621-0.62
		c0-0.133-0.039-0.254-0.109-0.356L25.619,0.435C25.539,0.177,25.303,0,25.031,0H6.906C6.632,0,6.393,0.177,6.31,0.438L0.673,18.705
		c-0.056,0.186-0.021,0.392,0.095,0.549C0.886,19.411,1.069,19.506,1.267,19.506z M7.361,1.24H24.57l5.291,17.025H2.105L7.361,1.24z
		"/>
      <path d="M30.706,22.431H1.267c-0.343,0-0.617,0.278-0.617,0.619c0,0.343,0.274,0.62,0.617,0.62h29.439
		c0.343,0,0.617-0.277,0.617-0.62C31.323,22.709,31.049,22.431,30.706,22.431z"/>
      <path d="M30.706,26.594H1.267c-0.343,0-0.617,0.279-0.617,0.622c0,0.34,0.274,0.619,0.617,0.619h29.439
		c0.343,0,0.617-0.278,0.617-0.619C31.323,26.873,31.049,26.594,30.706,26.594z"/>
      <path d="M30.706,30.76H1.267c-0.343,0-0.617,0.278-0.617,0.62C0.649,31.721,0.924,32,1.267,32h29.439
		c0.343,0,0.617-0.279,0.617-0.621C31.323,31.038,31.049,30.76,30.706,30.76z"/>
      <path d="M9.592,6.207H22.44c0.34,0,0.62-0.278,0.62-0.619c0-0.342-0.28-0.621-0.62-0.621H9.592
		c-0.346,0-0.62,0.279-0.62,0.621C8.972,5.929,9.246,6.207,9.592,6.207z"/>
      <path d="M8.289,10.373h15.383c0.34,0,0.618-0.278,0.618-0.621c0-0.341-0.278-0.62-0.618-0.62H8.289
		c-0.343,0-0.62,0.278-0.62,0.62C7.669,10.095,7.946,10.373,8.289,10.373z"/>
      <path d="M24.963,13.312H6.983c-0.346,0-0.623,0.278-0.623,0.621c0,0.341,0.277,0.621,0.623,0.621h17.979
		c0.343,0,0.621-0.279,0.621-0.621C25.584,13.59,25.306,13.312,24.963,13.312z"/>
    </g>
  </g></svg>