<svg id="svg-source" height="0" version="1.1" 
  xmlns="http://www.w3.org/2000/svg" style="position:absolute; margin-left: -100%" 
  xmlns:xlink="http://www.w3.org/1999/xlink"><g xmlns="http://www.w3.org/2000/svg" id="documents3" >
    <g>
      <path d="M31.967,19.505c-0.004-0.029,0.019-0.057,0.008-0.087L26.189,0.674c-0.074-0.24-0.295-0.404-0.548-0.404
		H6.357c-0.252,0-0.473,0.165-0.548,0.406L0.026,19.419c-0.01,0.029,0.013,0.057,0.007,0.088C0.029,19.535,0,19.556,0,19.587v11.569
		c0,0.316,0.258,0.574,0.574,0.574h30.853c0.318,0,0.573-0.258,0.573-0.574V19.587C32,19.556,31.972,19.535,31.967,19.505z
		 M6.781,1.418h18.437l5.431,17.595h-9.145c-0.158,0-0.308,0.064-0.417,0.18l-5.096,5.355l-5.368-5.367
		c-0.107-0.107-0.253-0.168-0.405-0.168H1.352L6.781,1.418z M30.854,30.583H1.148V20.162h8.831l5.615,5.615
		c0.107,0.108,0.253,0.168,0.406,0.168c0.149-0.036,0.308-0.065,0.415-0.18l5.334-5.604h9.104V30.583z"/>
    </g>
  </g></svg>