<svg id="svg-source" height="0" version="1.1" 
  xmlns="http://www.w3.org/2000/svg" style="position:absolute; margin-left: -100%" 
  xmlns:xlink="http://www.w3.org/1999/xlink"><g xmlns="http://www.w3.org/2000/svg" id="documents1" >
    <g>
      <path d="M12.172,15.346h7.66c1.372,0,2.489-1.117,2.489-2.489c0-1.372-1.117-2.489-2.493-2.489h-7.664
		c-1.373,0-2.488,1.117-2.488,2.489C9.676,14.229,10.791,15.346,12.172,15.346z M12.164,11.511h7.668
		c0.742,0,1.346,0.604,1.346,1.346c0,0.743-0.604,1.348-1.346,1.348h-7.668c-0.742,0-1.347-0.605-1.347-1.348
		C10.817,12.115,11.422,11.511,12.164,11.511z"/>
      <path d="M32,3.535c0-1.367-1.115-2.482-2.489-2.488H2.482C1.115,1.052,0,2.167,0,3.535v2.489h1.045v24.929h29.912
		V6.024H32V3.535z M1.143,3.535c0-0.74,0.604-1.345,1.342-1.347H29.51c0.744,0.002,1.35,0.607,1.35,1.347v1.348H1.143V3.535z
		 M29.814,29.812H2.186V6.024h27.629V29.812z"/>
    </g>
  </g></svg>