<svg id="svg-source" height="0" version="1.1" 
  xmlns="http://www.w3.org/2000/svg" style="position:absolute; margin-left: -100%" 
  xmlns:xlink="http://www.w3.org/1999/xlink"><g xmlns="http://www.w3.org/2000/svg" id="document" >
    <g>
      <path d="M27.312,7.88L27.312,7.88l-7.717-7.713C19.484,0.055,19.338,0,19.191,0h-14.1
		C4.775,0,4.52,0.256,4.52,0.571v30.856C4.52,31.743,4.775,32,5.092,32H26.91c0.315,0,0.57-0.257,0.57-0.573V8.284
		C27.48,8.128,27.417,7.985,27.312,7.88z M19.764,1.95l5.764,5.762h-5.764V1.95z M26.338,30.855H5.663V1.143h12.958v7.142
		c0,0.314,0.254,0.571,0.57,0.571h7.146V30.855z"/>
      <path d="M8.383,13.63c0,0.315,0.256,0.572,0.572,0.572h14.091c0.315,0,0.571-0.256,0.571-0.572
		c0-0.314-0.256-0.571-0.571-0.571H8.955C8.639,13.059,8.383,13.315,8.383,13.63z"/>
      <path d="M23.046,17.229H8.955c-0.316,0-0.572,0.257-0.572,0.572c0,0.314,0.256,0.571,0.572,0.571h14.091
		c0.315,0,0.571-0.257,0.571-0.571C23.617,17.486,23.361,17.229,23.046,17.229z"/>
      <path d="M23.046,21.406H8.955c-0.316,0-0.572,0.257-0.572,0.572c0,0.315,0.256,0.571,0.572,0.571h14.091
		c0.315,0,0.571-0.256,0.571-0.571C23.617,21.663,23.361,21.406,23.046,21.406z"/>
      <path d="M23.046,25.577H8.955c-0.316,0-0.572,0.257-0.572,0.572s0.256,0.571,0.572,0.571h14.091
		c0.315,0,0.571-0.256,0.571-0.571S23.361,25.577,23.046,25.577z"/>
    </g>
  </g></svg>