<svg id="svg-source" height="0" version="1.1" 
  xmlns="http://www.w3.org/2000/svg" style="position:absolute; margin-left: -100%" 
  xmlns:xlink="http://www.w3.org/1999/xlink"><g xmlns="http://www.w3.org/2000/svg" id="documents2" >
    <g>
      <path d="M31.966,19.505c-0.004-0.029,0.017-0.057,0.008-0.087L26.188,0.674c-0.074-0.239-0.296-0.404-0.548-0.404
		H6.359c-0.253,0-0.475,0.165-0.548,0.404L0.025,19.417c-0.009,0.031,0.013,0.058,0.008,0.087C0.029,19.535,0,19.556,0,19.587
		v11.569c0,0.316,0.257,0.574,0.573,0.574h30.853c0.317,0,0.574-0.258,0.574-0.574V19.587C32,19.556,31.971,19.535,31.966,19.505z
		 M6.783,1.418h18.432l5.433,17.595H1.353L6.783,1.418z M30.852,30.582H1.147v-10.42h29.704V30.582z"/>
      <path d="M12.146,27.876l7.709-0.002c1.381,0,2.502-1.124,2.502-2.503s-1.121-2.503-2.502-2.503l-7.709,0.003
		c-1.381,0-2.504,1.123-2.504,2.502S10.765,27.876,12.146,27.876z M12.146,24.018h7.767c0.72,0.029,1.297,0.627,1.297,1.353
		c0,0.746-0.607,1.354-1.354,1.354h-7.776c-0.717-0.034-1.288-0.628-1.288-1.352C10.79,24.626,11.398,24.018,12.146,24.018z"/>
    </g>
  </g></svg>