<svg id="svg-source" height="0" version="1.1" 
  xmlns="http://www.w3.org/2000/svg" style="position:absolute; margin-left: -100%" 
  xmlns:xlink="http://www.w3.org/1999/xlink"><g xmlns="http://www.w3.org/2000/svg" id="download" >
    <g>
      <path d="M30.471,20.919c-0.005-0.027,0.017-0.051,0.007-0.08L25.233,3.853c-0.066-0.216-0.269-0.365-0.495-0.365
		l-5.242-0.006c-0.001,0-0.001,0-0.001,0c-0.287,0-0.521,0.232-0.521,0.521c0,0.287,0.233,0.52,0.52,0.52l4.858,0.007l4.923,15.947
		h-8.289c-0.143,0-0.278,0.059-0.377,0.162L15.99,25.49l-4.864-4.863c-0.098-0.097-0.229-0.152-0.368-0.152H2.724L7.645,4.528
		l4.86-0.007c0.286,0,0.52-0.232,0.52-0.52c0-0.288-0.233-0.521-0.521-0.521c0,0,0,0-0.001,0L7.259,3.487
		c-0.228,0-0.428,0.149-0.495,0.369L1.521,20.842c-0.008,0.027,0.012,0.051,0.007,0.08c-0.003,0.026-0.03,0.044-0.03,0.073v10.485
		c0,0.286,0.233,0.521,0.52,0.521H29.98c0.287,0,0.521-0.234,0.521-0.521V20.994C30.502,20.966,30.475,20.947,30.471,20.919z
		 M29.461,30.959H2.539v-9.444h8.004l5.089,5.088c0.098,0.098,0.229,0.153,0.367,0.153c0.153,0.001,0.28-0.061,0.378-0.163
		l4.833-5.079h8.251V30.959z"/>
      <path d="M12.873,17.131c-0.203-0.203-0.532-0.203-0.735,0c-0.202,0.203-0.202,0.533,0,0.736l3.496,3.495
		c0.097,0.098,0.229,0.153,0.368,0.153s0.27-0.055,0.368-0.153l3.493-3.495c0.203-0.204,0.203-0.533,0-0.736s-0.533-0.203-0.736,0
		l-2.604,2.607V0.52c0-0.287-0.233-0.52-0.521-0.52S15.48,0.233,15.48,0.52v19.218L12.873,17.131z"/>
    </g>
  </g></svg>