<svg id="svg-source" height="0" version="1.1" 
  xmlns="http://www.w3.org/2000/svg" style="position:absolute; margin-left: -100%" 
  xmlns:xlink="http://www.w3.org/1999/xlink"><g xmlns="http://www.w3.org/2000/svg" id="edit" >
    <g>
      <path d="M23.234,12.053c-0.324,0-0.589,0.267-0.589,0.592v18.172H5.037V5.413h10.334
		c0.327,0,0.592-0.267,0.592-0.589c0-0.328-0.265-0.592-0.592-0.592H4.446c-0.327,0-0.592,0.264-0.592,0.592v26.584
		C3.854,31.733,4.119,32,4.446,32h18.788c0.327,0,0.592-0.267,0.592-0.592V12.645C23.826,12.319,23.561,12.053,23.234,12.053z"/>
      <path d="M21.464,1.107l-1.172,1.171L6.5,16.076c-0.11,0.107-0.181,0.254-0.181,0.421v4.695
		c0,0.327,0.268,0.59,0.592,0.59l4.702,0.006c0.163,0,0.31-0.066,0.417-0.172L27,6.645c1.527-1.527,1.527-4.013,0-5.537
		C25.525-0.369,22.941-0.369,21.464,1.107z M7.5,20.601v-2.674l2.682,2.679L7.5,20.601z M11.613,20.361L7.748,16.5L20.709,3.532
		l3.862,3.87L11.613,20.361z M25.409,6.564l-3.862-3.869l0.338-0.334l3.863,3.865L25.409,6.564z M26.539,5.346l-3.775-3.774
		c1.034-0.666,2.516-0.517,3.4,0.37C27.087,2.864,27.212,4.289,26.539,5.346z"/>
    </g>
  </g></svg>