<svg id="svg-source" height="0" version="1.1" 
  xmlns="http://www.w3.org/2000/svg" style="position:absolute; margin-left: -100%" 
  xmlns:xlink="http://www.w3.org/1999/xlink"><g xmlns="http://www.w3.org/2000/svg" id="edit1" >
    <g>
      <path d="M22.539,1.598l-1.753,1.754c-0.003,0.001-0.003,0-0.005,0.001c-0.003,0.003,0,0.004-0.003,0.006
		L0.168,23.965C0.061,24.07,0,24.214,0,24.374v7.018c0,0.32,0.262,0.58,0.579,0.58l7.019,0.005c0.16,0,0.305-0.066,0.409-0.17
		l20.618-20.613l1.756-1.755c2.158-2.162,2.158-5.682,0-7.846C28.283-0.501,24.629-0.496,22.539,1.598z M1.158,30.812l-0.002-5.039
		l5.045,5.045L1.158,30.812z M7.598,30.579l-6.201-6.205l19.793-19.79l6.207,6.199L7.598,30.579z M28.214,9.963l-6.205-6.197
		l0.941-0.94l6.202,6.202L28.214,9.963z M29.941,8.183l-6.146-6.149c1.673-1.289,4.245-1.133,5.766,0.378
		C31.129,3.983,31.258,6.463,29.941,8.183z"/>
    </g>
  </g></svg>