<svg id="svg-source" height="0" version="1.1" 
  xmlns="http://www.w3.org/2000/svg" style="position:absolute; margin-left: -100%" 
  xmlns:xlink="http://www.w3.org/1999/xlink"><g xmlns="http://www.w3.org/2000/svg" id="equalizer" >
    <g>
      <path d="M8.932,30.851H2.506c-0.317,0-0.575,0.258-0.575,0.572c0,0.316,0.257,0.573,0.575,0.573h6.426
		c0.317,0,0.574-0.257,0.574-0.573C9.505,31.108,9.249,30.851,8.932,30.851z"/>
      <path d="M8.932,26.994H2.506c-0.317,0-0.575,0.257-0.575,0.574c0,0.314,0.257,0.573,0.575,0.573h6.426
		c0.317,0,0.574-0.259,0.574-0.573C9.505,27.251,9.249,26.994,8.932,26.994z"/>
      <path d="M8.932,23.137H2.506c-0.317,0-0.575,0.257-0.575,0.575c0,0.315,0.257,0.572,0.575,0.572h6.426
		c0.317,0,0.574-0.257,0.574-0.572C9.505,23.394,9.249,23.137,8.932,23.137z"/>
      <path d="M8.932,19.28H2.506c-0.317,0-0.575,0.258-0.575,0.574c0,0.317,0.257,0.574,0.575,0.574h6.426
		c0.317,0,0.574-0.257,0.574-0.574C9.505,19.538,9.249,19.28,8.932,19.28z"/>
      <path d="M19.212,30.851h-6.425c-0.317,0-0.574,0.258-0.574,0.572c0,0.316,0.257,0.573,0.574,0.573h6.425
		c0.318,0,0.575-0.257,0.575-0.573C19.787,31.108,19.53,30.851,19.212,30.851z"/>
      <path d="M19.212,26.994h-6.425c-0.317,0-0.574,0.257-0.574,0.574c0,0.314,0.257,0.573,0.574,0.573h6.425
		c0.318,0,0.575-0.259,0.575-0.573C19.787,27.251,19.53,26.994,19.212,26.994z"/>
      <path d="M19.212,23.137h-6.425c-0.317,0-0.574,0.257-0.574,0.575c0,0.315,0.257,0.572,0.574,0.572h6.425
		c0.318,0,0.575-0.257,0.575-0.572C19.787,23.394,19.53,23.137,19.212,23.137z"/>
      <path d="M19.212,19.28h-6.425c-0.317,0-0.574,0.258-0.574,0.574c0,0.317,0.257,0.574,0.574,0.574h6.425
		c0.318,0,0.575-0.257,0.575-0.574C19.787,19.538,19.53,19.28,19.212,19.28z"/>
      <path d="M19.212,15.425h-6.425c-0.317,0-0.574,0.258-0.574,0.574c0,0.315,0.257,0.572,0.574,0.572h6.425
		c0.318,0,0.575-0.257,0.575-0.572C19.787,15.683,19.53,15.425,19.212,15.425z"/>
      <path d="M19.212,11.571h-6.425c-0.317,0-0.574,0.257-0.574,0.573c0,0.315,0.257,0.573,0.574,0.573h6.425
		c0.318,0,0.575-0.258,0.575-0.573C19.787,11.828,19.53,11.571,19.212,11.571z"/>
      <path d="M19.212,7.713h-6.425c-0.317,0-0.574,0.259-0.574,0.573c0,0.317,0.257,0.574,0.574,0.574h6.425
		c0.318,0,0.575-0.257,0.575-0.574C19.787,7.972,19.53,7.713,19.212,7.713z"/>
      <path d="M19.212,3.854h-6.425c-0.317,0-0.574,0.26-0.574,0.577c0,0.314,0.257,0.573,0.574,0.573h6.425
		c0.318,0,0.575-0.259,0.575-0.573C19.787,4.114,19.53,3.854,19.212,3.854z"/>
      <path d="M19.212,0h-6.425c-0.317,0-0.574,0.257-0.574,0.574c0,0.315,0.257,0.572,0.574,0.572h6.425
		c0.318,0,0.575-0.257,0.575-0.572C19.787,0.257,19.53,0,19.212,0z"/>
      <path d="M29.495,30.854h-6.426c-0.317,0-0.574,0.257-0.574,0.571c0,0.315,0.256,0.574,0.574,0.574h6.426
		c0.316,0,0.574-0.259,0.574-0.574C30.069,31.111,29.812,30.854,29.495,30.854z"/>
      <path d="M29.495,26.995h-6.426c-0.317,0-0.574,0.258-0.574,0.576c0,0.314,0.256,0.573,0.574,0.573h6.426
		c0.316,0,0.574-0.259,0.574-0.573C30.069,27.253,29.812,26.995,29.495,26.995z"/>
      <path d="M29.495,23.14h-6.426c-0.317,0-0.574,0.259-0.574,0.574c0,0.314,0.256,0.573,0.574,0.573h6.426
		c0.316,0,0.574-0.259,0.574-0.573C30.069,23.398,29.812,23.14,29.495,23.14z"/>
      <path d="M29.495,19.282h-6.426c-0.317,0-0.574,0.259-0.574,0.575c0,0.317,0.256,0.574,0.574,0.574h6.426
		c0.316,0,0.574-0.257,0.574-0.574C30.069,19.541,29.812,19.282,29.495,19.282z"/>
      <path d="M29.495,15.427h-6.426c-0.317,0-0.574,0.259-0.574,0.574c0,0.316,0.256,0.573,0.574,0.573h6.426
		c0.316,0,0.574-0.257,0.574-0.573C30.069,15.686,29.812,15.427,29.495,15.427z"/>
      <path d="M29.495,11.571h-6.426c-0.317,0-0.574,0.257-0.574,0.573c0,0.315,0.256,0.573,0.574,0.573h6.426
		c0.316,0,0.574-0.258,0.574-0.573C30.069,11.828,29.812,11.571,29.495,11.571z"/>
    </g>
  </g></svg>