<svg id="svg-source" height="0" version="1.1" 
  xmlns="http://www.w3.org/2000/svg" style="position:absolute; margin-left: -100%" 
  xmlns:xlink="http://www.w3.org/1999/xlink"><g xmlns="http://www.w3.org/2000/svg" id="flag1" >
    <g>
      <path d="M25.938,15.501l-3.357-3.357l3.448-3.449c0.167-0.166,0.213-0.412,0.128-0.627
		c-0.093-0.215-0.298-0.355-0.533-0.355h-7.136v-5.21c0-0.317-0.257-0.574-0.572-0.574H6.918V0.573C6.918,0.256,6.661,0,6.35,0
		c-0.32,0-0.578,0.256-0.578,0.573v30.854C5.771,31.744,6.029,32,6.35,32c0.312,0,0.568-0.256,0.568-0.573V14.646h10.423V16
		c0,0.314,0.257,0.573,0.574,0.573h7.708c0.011,0,0.021,0,0.03,0c0.314,0,0.574-0.259,0.574-0.573
		C26.228,15.786,26.11,15.601,25.938,15.501z M17.341,8.288v5.209H6.918V3.077h10.423V8.288z M18.487,15.424v-1.352v-5.21h5.749
		l-2.873,2.875c-0.222,0.224-0.222,0.586,0,0.811l2.873,2.876H18.487z"/>
    </g>
  </g></svg>