<svg id="svg-source" height="0" version="1.1" 
  xmlns="http://www.w3.org/2000/svg" style="position:absolute; margin-left: -100%" 
  xmlns:xlink="http://www.w3.org/1999/xlink"><g xmlns="http://www.w3.org/2000/svg" id="flag" >
    <g>
      <path d="M26.147,2.083c-0.104-0.186-0.295-0.303-0.506-0.303H11.617c0.022-0.104,0.063-0.207,0.063-0.316
		C11.68,0.655,11.023,0,10.215,0c-0.81,0-1.467,0.655-1.467,1.464c0,0.605,0.367,1.123,0.896,1.346v11.113v16.93H6.36
		c-0.32,0-0.574,0.256-0.574,0.572S6.04,32,6.36,32h7.709c0.32,0,0.574-0.259,0.574-0.575s-0.254-0.572-0.574-0.572h-3.278V14.496
		h14.851c0.211,0,0.402-0.114,0.506-0.302c0.099-0.187,0.091-0.412-0.029-0.589l-3.646-5.468l3.646-5.463
		C26.238,2.499,26.246,2.271,26.147,2.083z M9.898,1.464c0-0.179,0.14-0.314,0.317-0.314c0.173,0,0.314,0.14,0.314,0.314
		C10.53,1.814,9.898,1.811,9.898,1.464z M21.306,7.818c-0.131,0.191-0.131,0.443,0,0.638l3.26,4.893H10.791V2.93h13.775
		L21.306,7.818z"/>
    </g>
  </g></svg>