<svg id="svg-source" height="0" version="1.1" 
  xmlns="http://www.w3.org/2000/svg" style="position:absolute; margin-left: -100%" 
  xmlns:xlink="http://www.w3.org/1999/xlink"><g xmlns="http://www.w3.org/2000/svg" id="floppy-disk" >
    <g>
      <path d="M31.817,4.021L27.959,0.17c-0.121-0.119-0.28-0.162-0.438-0.155h-1.862c-0.012,0-0.021-0.012-0.033-0.012
		c-0.011,0-0.02,0.012-0.033,0.012H6.368c-0.006,0-0.009-0.004-0.012-0.004c-0.005,0-0.008,0.004-0.012,0.004H0.573
		C0.256,0.015,0,0.273,0,0.589l0.018,30.833c0,0.316,0.257,0.574,0.574,0.574l30.834-0.019c0.152,0,0.297-0.061,0.406-0.169
		C31.94,31.702,32,31.557,32,31.404L31.985,4.426C31.985,4.272,31.924,4.127,31.817,4.021z M25.051,1.163l0.008,10.396L6.936,11.574
		L6.928,1.163H25.051z M5.019,30.846L5.011,16.577l21.979-0.014l0.008,14.27L5.019,30.846z M28.145,30.833l-0.009-14.844
		c0-0.314-0.256-0.573-0.573-0.573L4.437,15.43c-0.151,0-0.298,0.061-0.405,0.168s-0.168,0.255-0.168,0.406l0.008,14.842
		l-2.707,0.001L1.147,1.163h4.635l0.006,10.985c0,0.152,0.061,0.299,0.17,0.405c0.106,0.109,0.253,0.168,0.404,0.168l19.271-0.013
		c0.318,0,0.573-0.257,0.573-0.575L26.2,1.163h1.129l3.509,3.502l0.017,26.167L28.145,30.833z"/>
      <path d="M8.579,24.283l15.396-0.009c0.316,0,0.573-0.26,0.573-0.574c0-0.315-0.257-0.575-0.573-0.575l-15.396,0.01
		c-0.317,0-0.573,0.258-0.573,0.574C8.005,24.023,8.261,24.283,8.579,24.283z"/>
      <path d="M8.577,20.543l15.396-0.008c0.315,0,0.572-0.257,0.572-0.574c0-0.316-0.257-0.572-0.572-0.572L8.577,19.396
		c-0.317,0-0.574,0.258-0.574,0.572C8.002,20.286,8.259,20.543,8.577,20.543z"/>
      <path d="M23.977,27.069L8.581,27.077c-0.316,0-0.572,0.26-0.572,0.574c0,0.317,0.256,0.574,0.572,0.574
		l15.396-0.008c0.316,0,0.574-0.259,0.574-0.574C24.551,27.329,24.293,27.069,23.977,27.069z"/>
      <path d="M17.922,9.893h3.855c0.009,0,0.019,0,0.029,0c0.316,0,0.574-0.256,0.574-0.572
		c0-0.062-0.01-0.123-0.029-0.181L22.348,3.4c0-0.152-0.061-0.299-0.168-0.405c-0.106-0.107-0.253-0.168-0.404-0.168h-0.003
		L17.92,2.83c-0.153,0-0.299,0.061-0.405,0.168c-0.107,0.106-0.169,0.253-0.169,0.404L17.35,9.32
		C17.35,9.637,17.606,9.893,17.922,9.893z M21.202,3.976l0.002,4.771h-2.707l-0.002-4.77L21.202,3.976z"/>
    </g>
  </g></svg>