<svg id="svg-source" height="0" version="1.1" 
  xmlns="http://www.w3.org/2000/svg" style="position:absolute; margin-left: -100%" 
  xmlns:xlink="http://www.w3.org/1999/xlink"><g xmlns="http://www.w3.org/2000/svg" id="folders" >
    <g>
      <path d="M26.796,0H5.203v22.234H3.165v8.297c0,0.81,0.659,1.469,1.472,1.469h22.729c0.811,0,1.47-0.659,1.47-1.469
		v-8.297h-2.039V0z M25.582,22.234h-8.975V1.213h8.975V22.234z M6.418,1.213h8.978v21.021H6.418V1.213z M27.623,23.447v7.084
		c0,0.144-0.115,0.255-0.258,0.255H4.637c-0.145,0-0.257-0.111-0.257-0.255v-7.084h0.823h21.593H27.623z"/>
      <path d="M12.943,6.512H8.867c-0.333,0-0.607,0.271-0.607,0.607v3.721c0,0.333,0.274,0.605,0.607,0.605h4.076
		c0.333,0,0.604-0.272,0.604-0.605V7.119C13.548,6.783,13.276,6.512,12.943,6.512z M12.337,10.231H9.471V7.725h2.866V10.231z"/>
      <path d="M19.057,11.445h4.076c0.332,0,0.607-0.272,0.607-0.605V7.119c0-0.336-0.275-0.607-0.607-0.607h-4.076
		c-0.333,0-0.607,0.271-0.607,0.607v3.721C18.449,11.173,18.724,11.445,19.057,11.445z M19.663,7.725h2.862v2.507h-2.862V7.725z"/>
    </g>
  </g></svg>