<svg id="svg-source" height="0" version="1.1" 
  xmlns="http://www.w3.org/2000/svg" style="position:absolute; margin-left: -100%" 
  xmlns:xlink="http://www.w3.org/1999/xlink"><g xmlns="http://www.w3.org/2000/svg" id="globe" >
    <g>
      <path d="M28.74,19.854l-2.132,2.133l-1.754-1.754c2.733-3.042,3.458-7.231,2.175-10.899l0,0V9.332
		c-0.525-1.497-1.349-2.906-2.542-4.101c-2.06-2.062-4.808-3.199-7.727-3.199c-0.205,0-0.402,0.046-0.607,0.059
		C16.09,2.098,16.03,2.084,15.97,2.108c-2.421,0.175-4.676,1.127-6.481,2.755L7.734,3.108l2.129-2.129
		c0.224-0.225,0.224-0.587,0-0.812c-0.225-0.224-0.589-0.224-0.813,0L6.517,2.702c-5.65,5.655-5.65,14.852,0,20.502
		c2.714,2.713,6.247,4.11,9.81,4.22c-0.211,1.082-0.953,3.431-3.462,3.431h-0.717c-0.317,0-0.575,0.258-0.575,0.572
		c0,0.315,0.258,0.573,0.575,0.573h9.237c0.317,0,0.577-0.258,0.577-0.573c0-0.314-0.26-0.572-0.577-0.572h-5.562
		c1.025-0.983,1.499-2.382,1.664-3.446c3.466-0.172,6.884-1.561,9.527-4.204l2.539-2.539c0.224-0.225,0.224-0.585,0-0.812
		C29.328,19.63,28.964,19.63,28.74,19.854z M23.675,19.866c-1.847,1.847-4.298,2.865-6.911,2.865c-2.607,0-5.064-1.019-6.909-2.865
		C8.7,18.712,7.937,17.323,7.482,15.86l1.015-0.311l1.33,0.968c0.102,0.073,0.222,0.109,0.339,0.109
		c0.162,0,0.326-0.073,0.438-0.206l1.973-2.317c0.15-0.171,0.187-0.41,0.093-0.617c-0.093-0.203-0.298-0.336-0.522-0.336h-1.403
		l-0.736-0.509L9.964,11.69l0.931-0.648c0.15-0.106,0.243-0.282,0.243-0.471V7.172c0-0.316-0.257-0.573-0.571-0.573H9.4
		C9.559,6.415,9.68,6.217,9.854,6.044c1.48-1.482,3.357-2.399,5.388-2.715l-0.654,1.423c-0.096,0.216-0.055,0.468,0.109,0.637
		l1.087,1.135c0.049,0.053,0.106,0.092,0.169,0.124l2.223,1.046c0.169,0.076,0.355,0.068,0.512-0.012c0,0,0.547-0.288,0.892-0.503
		c0.339,0,1.417,0.242,2.345,0.498l1.721,2.03c0.109,0.126,0.269,0.201,0.438,0.201h1.923
		C27.117,13.301,26.367,17.177,23.675,19.866z M8.514,7.745h1.478v2.528L9.045,10.93c-0.162,0.112-0.255,0.301-0.241,0.498
		l0.068,1.552c0.009,0.181,0.102,0.343,0.249,0.447l1.116,0.771c0.097,0.065,0.211,0.101,0.329,0.101h0.314l-0.812,0.975
		l-1.133-0.818c-0.146-0.106-0.334-0.134-0.504-0.085L7.17,14.757C6.727,12.372,7.182,9.86,8.514,7.745z M23.675,6.044
		c0.808,0.808,1.406,1.738,1.874,2.716h-1.201l-1.663-1.959c-0.074-0.087-0.17-0.149-0.279-0.181
		c-2.843-0.807-3.185-0.58-3.374-0.454c-0.166,0.111-0.432,0.26-0.623,0.364l-1.869-0.876l-0.744-0.777L16.566,3.2
		c0.065-0.003,0.129-0.02,0.194-0.02C19.374,3.181,21.828,4.196,23.675,6.044z M6.963,3.964l1.713,1.715
		C8.36,6.029,8.057,6.381,7.794,6.76c-0.011,0.011-0.017,0.024-0.03,0.038c-2.908,4.25-2.495,10.109,1.278,13.881
		c2.063,2.063,4.805,3.2,7.722,3.2c2.725,0,5.272-1.024,7.278-2.835l1.712,1.713c-5.229,4.793-13.36,4.699-18.425-0.365
		C2.265,17.33,2.169,9.195,6.963,3.964z"/>
      <path d="M19.341,14.359c-0.132-0.174-0.358-0.251-0.574-0.215c-0.214,0.044-0.389,0.211-0.438,0.425
		c-0.096,0.374-0.207,0.796-0.309,1.135c-0.358-0.274-0.903-0.652-1.727-1.175l-2.126-1.296c-0.147-0.092-0.343-0.106-0.504-0.041
		c-0.169,0.063-0.295,0.203-0.347,0.375l-0.484,1.699l-1.582,1.979c-0.079,0.103-0.123,0.229-0.123,0.359v1.964
		c0,0.263,0.178,0.493,0.432,0.557l2.934,0.724h4.392c0.112,0,0.222-0.036,0.314-0.096l1.814-1.188
		c0.159-0.106,0.255-0.287,0.255-0.48v-1.996c0-0.126-0.039-0.246-0.112-0.348L19.341,14.359z M20.121,18.774l-1.409,0.924
		l-4.077,0.018l-2.361-0.594v-1.316l1.529-1.909c0.047-0.061,0.082-0.129,0.104-0.203l0.31-1.083l1.472,0.895
		c0.857,0.544,1.875,1.255,1.981,1.346c0.079,0.235,0.325,0.425,0.572,0.425c0.383,0,0.569-0.14,0.897-1.283l0.982,1.288V18.774z"/>
      <path d="M24.89,10.203h-2.126c-0.317,0-0.574,0.259-0.574,0.575v2.175c0,0.182,0.088,0.349,0.229,0.46
		c0.099,0.073,0.222,0.113,0.345,0.113c0.053,0,0.107-0.005,0.162-0.021l2.125-0.619c0.244-0.07,0.414-0.295,0.414-0.552v-1.556
		C25.465,10.462,25.207,10.203,24.89,10.203z M24.315,11.904l-0.978,0.284v-0.837h0.978V11.904z"/>
    </g>
  </g></svg>