<svg id="svg-source" height="0" version="1.1" 
  xmlns="http://www.w3.org/2000/svg" style="position:absolute; margin-left: -100%" 
  xmlns:xlink="http://www.w3.org/1999/xlink"><g xmlns="http://www.w3.org/2000/svg" id="globe1" >
    <g>
      <path d="M28.743,19.854l-2.129,2.133l-1.754-1.754c3.854-4.283,3.755-10.882-0.366-15.001
		c-2.063-2.062-4.808-3.199-7.722-3.199c-2.725,0-5.275,1.025-7.281,2.834L7.737,3.108l2.132-2.129c0.225-0.225,0.225-0.587,0-0.812
		c-0.222-0.224-0.585-0.224-0.81,0L6.521,2.702C3.781,5.443,2.276,9.083,2.276,12.956c0,3.87,1.508,7.51,4.246,10.248
		c2.636,2.635,6.102,4.115,9.81,4.223c-0.21,1.087-0.944,3.428-3.464,3.428h-0.717c-0.317,0-0.574,0.258-0.574,0.572
		c0,0.315,0.257,0.573,0.574,0.573h9.237c0.317,0,0.577-0.258,0.577-0.573c0-0.314-0.26-0.572-0.577-0.572h-5.56
		c1.025-0.98,1.499-2.378,1.663-3.441c3.599-0.176,6.961-1.643,9.527-4.209l2.536-2.539c0.225-0.225,0.225-0.585,0-0.812
		C29.329,19.63,28.968,19.63,28.743,19.854z M23.685,6.044c3.812,3.811,3.812,10.012,0,13.822c-1.845,1.847-4.302,2.865-6.912,2.865
		s-5.064-1.019-6.911-2.865C6.05,16.055,6.044,9.854,9.855,6.044c1.85-1.848,4.302-2.863,6.917-2.863
		C19.38,3.181,21.837,4.196,23.685,6.044z M3.423,12.956c0-3.371,1.277-6.525,3.543-8.995l1.713,1.718
		c-3.847,4.281-3.751,10.878,0.369,15c2.063,2.063,4.809,3.2,7.725,3.2c2.723,0,5.27-1.024,7.278-2.835l1.71,1.713
		c-2.465,2.266-5.62,3.545-8.988,3.545c-3.568,0-6.92-1.389-9.437-3.91C4.812,19.872,3.423,16.52,3.423,12.956z"/>
    </g>
  </g></svg>