<svg id="svg-source" height="0" version="1.1" 
  xmlns="http://www.w3.org/2000/svg" style="position:absolute; margin-left: -100%" 
  xmlns:xlink="http://www.w3.org/1999/xlink"><g xmlns="http://www.w3.org/2000/svg" id="graph-pie" >
    <g>
      <path d="M15.992,0c-2.332,0-4.597,0.503-6.729,1.493C5.388,3.295,2.447,6.496,0.98,10.508
		c-1.467,4.013-1.282,8.358,0.521,12.234C4.111,28.366,9.809,32,16.014,32c2.332,0,4.6-0.505,6.731-1.496
		c8-3.713,11.482-13.244,7.765-21.249C27.897,3.634,22.197,0,15.992,0z M22.271,29.487c-1.981,0.924-4.089,1.391-6.258,1.391
		c-5.772,0-11.072-3.38-13.497-8.609C-0.94,14.83,2.297,5.968,9.736,2.508c1.979-0.921,4.09-1.388,6.256-1.388
		c1.581,0,3.117,0.274,4.575,0.748l-2.927,8.023c-0.526-0.144-1.066-0.241-1.635-0.241c-3.502,0-6.353,2.851-6.353,6.353
		s2.851,6.349,6.353,6.349c2.537,0,4.712-1.506,5.729-3.662l8.023,2.931C28.335,25.107,25.704,27.895,22.271,29.487z M21.232,16.003
		c0,2.883-2.345,5.229-5.227,5.229c-2.885,0-5.23-2.346-5.23-5.229c0-2.885,2.346-5.232,5.23-5.232
		C18.888,10.771,21.232,13.118,21.232,16.003z M30.144,20.57l-8.029-2.932c0.142-0.524,0.24-1.067,0.24-1.636
		c0-2.539-1.504-4.718-3.662-5.735l2.925-8.005c3.411,1.399,6.274,4.016,7.88,7.466C31.092,13.161,31.303,16.988,30.144,20.57z"/>
      <path d="M11.396,15.999c0,0.309,0.251,0.56,0.561,0.56s0.559-0.251,0.559-0.56c0-1.924,1.567-3.484,3.491-3.484
		c0.307,0,0.561-0.253,0.561-0.562c0-0.31-0.254-0.561-0.561-0.561C13.463,11.393,11.396,13.458,11.396,15.999z"/>
    </g>
  </g></svg>