<svg id="svg-source" height="0" version="1.1" 
  xmlns="http://www.w3.org/2000/svg" style="position:absolute; margin-left: -100%" 
  xmlns:xlink="http://www.w3.org/1999/xlink"><g xmlns="http://www.w3.org/2000/svg" id="graph-pie1" >
    <g>
      <path d="M17.703,0.025h-0.579v15.794H31.92l0.041-0.534C31.983,14.961,32,14.639,32,14.315
		C32,6.436,25.586,0.025,17.703,0.025z M30.837,14.661H18.281V1.194c6.979,0.302,12.562,6.071,12.562,13.121
		C30.843,14.431,30.84,14.548,30.837,14.661z"/>
      <path d="M14.873,3.389h-0.578C6.412,3.389,0,9.802,0,17.685c0,7.88,6.412,14.291,14.295,14.291
		c7.496,0,13.76-5.855,14.253-13.333l0.047-0.616H14.873V3.389z M27.344,19.183c-0.75,6.572-6.365,11.637-13.049,11.637
		c-7.244,0-13.138-5.891-13.138-13.135c0-7.051,5.579-12.823,12.559-13.127v14.625H27.344z"/>
    </g>
  </g></svg>