<svg id="svg-source" height="0" version="1.1" 
  xmlns="http://www.w3.org/2000/svg" style="position:absolute; margin-left: -100%" 
  xmlns:xlink="http://www.w3.org/1999/xlink"><g xmlns="http://www.w3.org/2000/svg" id="grid" >
    <g>
      <path d="M31.997,15.846V0.574c0-0.314-0.257-0.573-0.574-0.573H0.574C0.257,0.001,0,0.26,0,0.574v30.852
		C0,31.742,0.257,32,0.574,32h30.849c0.317,0,0.574-0.258,0.574-0.574V15.854c0,0,0.003-0.003,0.003-0.005L31.997,15.846z
		 M23.139,8.861v6.413h-6.564V8.861H23.139z M30.85,8.861v6.413h-6.562V8.861H30.85z M15.426,15.274H8.86V8.861h6.565V15.274z
		 M8.86,16.424h6.565v6.715H8.86V16.424z M8.86,24.284h6.565v6.568H8.86V24.284z M16.574,24.284h6.564v6.568h-6.564V24.284z
		 M16.574,23.139v-6.715h6.564v6.715H16.574z M24.287,16.424h6.562v6.715h-6.562V16.424z M30.85,7.713H8.86V1.15H30.85V7.713z
		 M7.713,1.15v6.562H1.148V1.15H7.713z M1.148,8.861h6.564v21.991H1.148V8.861z M24.287,30.853v-6.568h6.562v6.568H24.287z"/>
    </g>
  </g></svg>