<svg id="svg-source" height="0" version="1.1" 
  xmlns="http://www.w3.org/2000/svg" style="position:absolute; margin-left: -100%" 
  xmlns:xlink="http://www.w3.org/1999/xlink"><g xmlns="http://www.w3.org/2000/svg" id="heart" >
    <g>
      <path d="M21.753,0c-2.078,0-4.056,0.617-5.752,1.787C14.324,0.631,12.297,0,10.253,0
		C7.554,0,5.019,1.051,3.112,2.959C1.2,4.87,0.146,7.413,0.146,10.115c0,2.705,1.054,5.247,2.94,7.131L16.001,32l12.893-14.727
		c3.945-3.946,3.945-10.367,0.002-14.314C26.985,1.051,24.45,0,21.753,0z M28.068,16.499L16.001,30.278L3.913,16.473
		c-1.7-1.697-2.636-3.955-2.636-6.357c0-2.4,0.936-4.658,2.636-6.355c1.691-1.696,3.943-2.629,6.34-2.629
		c1.969,0,3.84,0.627,5.408,1.807l0.34,0.256l0.342-0.255c1.567-1.181,3.438-1.808,5.41-1.808c2.395,0,4.647,0.933,6.342,2.629
		C31.599,7.266,31.599,12.97,28.068,16.499z"/>
    </g>
  </g></svg>