<svg id="svg-source" height="0" version="1.1" 
  xmlns="http://www.w3.org/2000/svg" style="position:absolute; margin-left: -100%" 
  xmlns:xlink="http://www.w3.org/1999/xlink"><g xmlns="http://www.w3.org/2000/svg" id="image1" >
    <g>
      <path d="M31.426,0H0.574C0.257,0,0,0.256,0,0.573v30.853C0,31.744,0.257,32,0.574,32h30.852
		C31.742,32,32,31.744,32,31.426V0.573C32,0.256,31.742,0,31.426,0z M30.854,30.853H1.148V1.148h29.705V30.853z"/>
      <path d="M4.432,28.143H27.57c0.152,0,0.298-0.061,0.404-0.167c0.104-0.106,0.169-0.249,0.169-0.407V4.43
		c0-0.316-0.257-0.573-0.573-0.573H4.432c-0.315,0-0.572,0.257-0.572,0.573v15.426v7.713C3.859,27.887,4.116,28.143,4.432,28.143z
		 M5.007,5.006h21.987v14.846c0,0-0.001,0.001-0.001,0.004c0,1.811-1.472,3.283-3.279,3.283c-0.813,0-1.585-0.328-2.19-0.884
		l2.685-4.01c0.12-0.174,0.13-0.399,0.03-0.59c-0.099-0.187-0.295-0.302-0.507-0.302H8.307c-0.211,0-0.405,0.115-0.504,0.302
		c-0.102,0.185-0.09,0.415,0.024,0.59l2.657,4.003c-0.607,0.561-1.379,0.891-2.194,0.891c-1.812,0-3.283-1.473-3.283-3.283V5.006z
		 M20.807,21.264c-0.034-0.063-0.084-0.123-0.113-0.191c-0.031-0.072-0.059-0.15-0.084-0.226c-0.104-0.318-0.179-0.648-0.179-0.991
		c0-0.316-0.256-0.573-0.573-0.573s-0.574,0.257-0.574,0.573c0,1.811-1.473,3.283-3.281,3.283c-1.81,0-3.282-1.473-3.284-3.283
		c0-0.316-0.256-0.573-0.573-0.573c-0.318,0-0.574,0.257-0.574,0.573c0,0.34-0.074,0.667-0.178,0.987
		c-0.024,0.077-0.053,0.15-0.082,0.225c-0.027,0.063-0.077,0.12-0.108,0.182l-1.825-2.748h13.279L20.807,21.264z M5.007,22.83
		c0.812,0.893,1.981,1.457,3.283,1.457c1.292,0,2.522-0.58,3.376-1.591c0.178-0.215,0.336-0.438,0.471-0.673
		c0.762,1.348,2.211,2.264,3.865,2.264c1.656,0,3.104-0.916,3.863-2.264c0.135,0.239,0.296,0.467,0.477,0.682
		c0.003,0.004,0.003,0,0.006,0.004c0.851,1.004,2.076,1.578,3.366,1.578c1.298,0,2.47-0.564,3.279-1.457l0.001,4.164H5.007V22.83z"/>
      <path d="M10.235,16.57h11.567c0.006-0.001,0.018-0.001,0.03,0c0.315,0,0.573-0.256,0.573-0.571
		c0-0.19-0.09-0.354-0.229-0.46l-5.699-7.6c-0.218-0.287-0.7-0.287-0.919,0l-5.784,7.713c-0.131,0.177-0.152,0.408-0.055,0.604
		C9.819,16.449,10.018,16.57,10.235,16.57z M16.02,9.242l4.636,6.182h-9.272L16.02,9.242z"/>
    </g>
  </g></svg>