<svg id="svg-source" height="0" version="1.1" 
  xmlns="http://www.w3.org/2000/svg" style="position:absolute; margin-left: -100%" 
  xmlns:xlink="http://www.w3.org/1999/xlink"><g xmlns="http://www.w3.org/2000/svg" id="image" >
    <g>
      <path d="M31.426,0H0.573C0.256,0,0,0.256,0,0.573v30.853C0,31.744,0.256,32,0.573,32h30.853
		C31.743,32,32,31.744,32,31.426V0.573C32,0.256,31.743,0,31.426,0z M30.852,30.853H1.148V1.148h29.703V30.853z"/>
      <path d="M3.967,27.834c0.037,0.064,0.066,0.122,0.125,0.169c0.021,0.018,0.021,0.045,0.045,0.059
		c0.092,0.055,0.194,0.081,0.296,0.081h23.137c0.056,0,0.095-0.044,0.146-0.061c0.052-0.015,0.109,0.006,0.155-0.025
		c0.022-0.016,0.022-0.041,0.04-0.054c0.062-0.051,0.088-0.108,0.124-0.175c0.039-0.067,0.072-0.122,0.082-0.194
		c0-0.026,0.025-0.04,0.025-0.065V4.43c0-0.316-0.258-0.573-0.573-0.573H4.433c-0.317,0-0.575,0.257-0.575,0.573v23.139
		c0,0.028,0.025,0.043,0.029,0.069C3.895,27.711,3.929,27.768,3.967,27.834z M5.446,26.994l4.771-7.951l1.513,2.525l3.257,5.426
		H5.446z M16.326,26.994l-3.432-5.718l5.031-8.052l8.606,13.77H16.326z M5.006,5.006h21.988v20.561l-8.582-13.728
		c-0.207-0.338-0.764-0.338-0.973,0l-5.207,8.329l-1.523-2.539c-0.103-0.169-0.29-0.275-0.492-0.275
		c-0.201,0-0.388,0.106-0.493,0.275l-4.718,7.869V5.006z"/>
      <path d="M12.574,8.828c0-1.381-1.123-2.502-2.503-2.502S7.569,7.447,7.569,8.828c0,1.379,1.122,2.503,2.502,2.503
		S12.574,10.207,12.574,8.828z M8.717,8.828c0-0.747,0.607-1.354,1.354-1.354s1.354,0.607,1.354,1.354
		c0,0.746-0.607,1.353-1.354,1.353S8.717,9.574,8.717,8.828z"/>
    </g>
  </g></svg>