<svg id="svg-source" height="0" version="1.1" 
  xmlns="http://www.w3.org/2000/svg" style="position:absolute; margin-left: -100%" 
  xmlns:xlink="http://www.w3.org/1999/xlink"><g xmlns="http://www.w3.org/2000/svg" id="laptop" >
    <g>
      <path d="M31.428,24.103h-1.362V5.396c0-0.314-0.254-0.573-0.571-0.573H2.504c-0.315,0-0.575,0.259-0.575,0.573
		v18.707H0.574C0.26,24.103,0,24.359,0,24.675c0,1.382,1.125,2.502,2.504,2.502h26.998c0.003,0,0.003,0,0.003,0
		C30.881,27.174,32,26.052,32,24.675C32,24.359,31.742,24.103,31.428,24.103z M3.078,5.97h25.841v18.133H3.078V5.97z M16.003,26.03
		c-0.536,0-0.996-0.321-1.215-0.781h2.43C17.004,25.709,16.545,26.03,16.003,26.03z M1.28,25.249h1.224h11.113
		c0.074,0.286,0.178,0.544,0.339,0.781H2.504C1.962,26.03,1.496,25.71,1.28,25.249z M29.502,26.03v0.576l-0.008-0.576H18.052
		c0.159-0.237,0.269-0.495,0.337-0.781h11.105h1.23C30.506,25.71,30.038,26.027,29.502,26.03z"/>
      <path d="M28.147,22.747V7.324c0-0.316-0.254-0.573-0.574-0.573H4.433c-0.315,0-0.575,0.257-0.575,0.573v15.423
		c0,0.317,0.26,0.574,0.575,0.574h23.141C27.894,23.321,28.147,23.064,28.147,22.747z M26.998,22.176H5.007V7.898h21.991V22.176z"/>
    </g>
  </g></svg>