<svg id="svg-source" height="0" version="1.1" 
  xmlns="http://www.w3.org/2000/svg" style="position:absolute; margin-left: -100%" 
  xmlns:xlink="http://www.w3.org/1999/xlink"><g xmlns="http://www.w3.org/2000/svg" id="left-arrow" >
    <g>
      <path d="M16.29,0.002L15.994,0C7.335,0,0.16,7.049,0.005,15.709c-0.082,4.273,1.511,8.318,4.476,11.398
		c2.967,3.076,6.955,4.813,11.229,4.892L16.006,32l0,0c8.659,0,15.833-7.048,15.989-15.707c0.079-4.275-1.511-8.319-4.477-11.397
		C24.551,1.816,20.563,0.082,16.29,0.002z M16.006,30.853l-0.277-0.004c-3.964-0.069-7.666-1.683-10.418-4.539
		c-2.756-2.855-4.23-6.613-4.159-10.578C1.296,7.69,7.953,1.149,15.994,1.149l0.273,0.003c3.968,0.068,7.667,1.683,10.422,4.541
		c2.753,2.854,4.23,6.611,4.159,10.574C30.703,24.311,24.044,30.853,16.006,30.853z"/>
      <path d="M23.587,15.563L9.819,15.314l6.714-6.479c0.23-0.22,0.235-0.585,0.017-0.811
		c-0.219-0.229-0.585-0.234-0.812-0.015l-8.126,7.836l0.396,0.413c0.003,0,0.003,0.003,0.003,0.003l7.439,7.716
		c0.112,0.115,0.263,0.174,0.413,0.174c0.143,0,0.287-0.053,0.399-0.162c0.228-0.22,0.232-0.584,0.014-0.811l-6.479-6.718
		l13.769,0.249c0.005,0,0.008,0,0.011,0c0.312,0,0.566-0.25,0.574-0.562C24.156,15.83,23.904,15.568,23.587,15.563z"/>
    </g>
  </g></svg>