<svg id="svg-source" height="0" version="1.1" 
  xmlns="http://www.w3.org/2000/svg" style="position:absolute; margin-left: -100%" 
  xmlns:xlink="http://www.w3.org/1999/xlink"><g xmlns="http://www.w3.org/2000/svg" id="light-bulb1" >
    <g>
      <path d="M15.995,0C9.844,0,4.84,5.004,4.84,11.156c0,3.431,1.563,6.605,4.294,8.752
		c0.05,0.069,0.113,0.131,0.184,0.18c0.017,0.008,1.46,0.983,1.46,2.847c0,0.032,0.026,0.048,0.03,0.082
		c0.003,0.021-0.021,0.045-0.014,0.071l1.83,8.361C12.694,31.77,12.978,32,13.308,32h5.377c0.327,0,0.611-0.23,0.681-0.551
		l1.837-8.361c0.007-0.026-0.02-0.05-0.017-0.071c0.003-0.034,0.033-0.05,0.033-0.082c0-1.839,1.4-2.806,1.457-2.847
		c0.063-0.04,0.11-0.094,0.149-0.155c2.758-2.144,4.334-5.336,4.334-8.776C27.159,5.004,22.149,0,15.995,0z M18.122,30.602h-4.251
		l-0.153-0.691h4.551L18.122,30.602z M18.579,28.512h-5.164l-0.154-0.694h5.471L18.579,28.512z M19.038,26.422h-6.084l-0.609-2.785
		h7.307L19.038,26.422z M21.846,18.921c-0.06,0.043-0.106,0.097-0.146,0.155c-0.47,0.375-1.584,1.436-1.831,3.16h-3.166v-9.755
		v-0.005c-0.004-0.367,0.14-0.721,0.399-0.98c0.264-0.267,0.613-0.412,0.987-0.412c0.383,0,0.699-0.314,0.699-0.697
		c0-0.387-0.316-0.699-0.699-0.699c-0.75,0-1.451,0.292-1.978,0.822c-0.046,0.05-0.066,0.116-0.113,0.172
		c-0.046-0.057-0.069-0.127-0.12-0.181c-0.526-0.524-1.227-0.813-1.963-0.813c-0.008,0-0.008,0-0.011,0
		c-0.384,0-0.696,0.312-0.696,0.702c0,0.385,0.312,0.694,0.699,0.694l0,0c0,0,0,0,0.008,0c0.366,0,0.713,0.146,0.977,0.409
		c0.264,0.262,0.41,0.616,0.41,0.988v9.755h-3.178c-0.246-1.732-1.367-2.791-1.83-3.167c-0.043-0.056-0.09-0.105-0.146-0.146
		c-2.487-1.877-3.908-4.711-3.908-7.768c0-5.383,4.375-9.76,9.756-9.76c5.384,0,9.765,4.377,9.765,9.76
		C25.76,14.213,24.333,17.045,21.846,18.921z"/>
    </g>
  </g></svg>