<svg id="svg-source" height="0" version="1.1" 
  xmlns="http://www.w3.org/2000/svg" style="position:absolute; margin-left: -100%" 
  xmlns:xlink="http://www.w3.org/1999/xlink"><g xmlns="http://www.w3.org/2000/svg" id="light-bulb" >
    <g>
      <path d="M15.809,6.918c-4.82,0-8.745,3.924-8.745,8.747c0,2.683,1.223,5.169,3.36,6.852
		c0.039,0.058,0.089,0.108,0.148,0.149c0.014,0.008,1.147,0.771,1.147,2.232c0,0.021,0.023,0.036,0.023,0.061
		c0.003,0.02-0.016,0.036-0.011,0.056l1.436,6.556c0.055,0.251,0.276,0.43,0.535,0.43h4.215c0.256,0,0.479-0.179,0.535-0.43
		l1.438-6.556c0.006-0.02-0.016-0.036-0.013-0.056c0.002-0.024,0.026-0.039,0.026-0.061c0-1.442,1.097-2.204,1.142-2.232
		c0.05-0.034,0.086-0.076,0.12-0.123c2.155-1.684,3.389-4.183,3.389-6.878C24.555,10.842,20.633,6.918,15.809,6.918z M17.477,30.904
		h-3.332l-0.117-0.539h3.566L17.477,30.904z M17.834,29.268h-4.047l-0.121-0.544h4.288L17.834,29.268z M18.195,27.626h-4.77
		l-0.475-2.181h5.725L18.195,27.626z M20.397,21.752c-0.047,0.034-0.086,0.072-0.117,0.119c-0.366,0.295-1.239,1.123-1.435,2.479
		h-2.488v-7.648c0-0.601,0.492-1.092,1.093-1.092c0.301,0,0.549-0.246,0.549-0.549s-0.248-0.549-0.549-0.549
		c-0.664,0-1.238,0.313-1.642,0.78c-0.039-0.046-0.052-0.101-0.096-0.143c-0.41-0.411-0.957-0.638-1.534-0.638
		c-0.003,0-0.005,0-0.008,0c-0.301,0-0.546,0.246-0.546,0.551c0,0.303,0.245,0.547,0.549,0.547c0,0,0,0,0.002,0c0,0,0,0,0.003,0
		c0.284,0,0.557,0.111,0.763,0.317c0.207,0.204,0.322,0.48,0.322,0.774v7.648h-2.485c-0.193-1.349-1.062-2.176-1.433-2.476
		c-0.033-0.046-0.072-0.087-0.119-0.12c-1.95-1.475-3.065-3.692-3.065-6.089c0-4.219,3.431-7.649,7.647-7.649
		c4.221,0,7.651,3.431,7.651,7.649C23.46,18.061,22.342,20.277,20.397,21.752z"/>
      <path d="M16.002,4.781c0.301,0,0.549-0.246,0.549-0.548V0.549C16.551,0.246,16.303,0,16.002,0
		c-0.303,0-0.545,0.246-0.545,0.549v3.685C15.457,4.535,15.699,4.781,16.002,4.781z"/>
      <path d="M7.801,7.856C7.91,7.965,8.049,8.018,8.189,8.018c0.145,0,0.282-0.053,0.387-0.161
		c0.215-0.214,0.215-0.561,0-0.776L5.974,4.477c-0.214-0.216-0.562-0.216-0.776,0c-0.211,0.213-0.211,0.561,0,0.775L7.801,7.856z"/>
      <path d="M5.504,15.281c0-0.302-0.246-0.549-0.547-0.549H1.268c-0.303,0-0.549,0.247-0.549,0.549
		c0,0.303,0.246,0.549,0.549,0.549h3.689C5.258,15.83,5.504,15.584,5.504,15.281z"/>
      <path d="M7.809,22.703L5.197,25.31c-0.211,0.215-0.211,0.561,0,0.775c0.11,0.108,0.249,0.161,0.39,0.161
		c0.136,0,0.28-0.053,0.387-0.161l2.608-2.605c0.214-0.216,0.214-0.562,0-0.776C8.37,22.492,8.022,22.488,7.809,22.703z"/>
      <path d="M24.199,23.174c-0.214-0.209-0.559-0.215-0.775,0c-0.217,0.216-0.217,0.562,0,0.775l2.602,2.611
		c0.107,0.106,0.249,0.16,0.39,0.16c0.139,0,0.28-0.054,0.387-0.16c0.215-0.213,0.215-0.561,0-0.775L24.199,23.174z"/>
      <path d="M30.732,14.732l-3.685-0.004c-0.301,0-0.549,0.244-0.549,0.549c0,0.302,0.245,0.546,0.549,0.546
		l3.685,0.007c0.303,0,0.549-0.244,0.549-0.549C31.281,14.979,31.037,14.732,30.732,14.732z"/>
      <path d="M23.811,8.016c0.139,0,0.279-0.054,0.389-0.162l2.608-2.603c0.214-0.216,0.214-0.562,0-0.776
		c-0.212-0.214-0.56-0.217-0.776,0l-2.607,2.604c-0.217,0.216-0.217,0.561,0,0.774C23.528,7.962,23.669,8.016,23.811,8.016z"/>
    </g>
  </g></svg>