<svg id="svg-source" height="0" version="1.1" 
  xmlns="http://www.w3.org/2000/svg" style="position:absolute; margin-left: -100%" 
  xmlns:xlink="http://www.w3.org/1999/xlink"><g xmlns="http://www.w3.org/2000/svg" id="list" >
    <g>
      <path d="M2.892,13.107C1.298,13.107,0,14.403,0,15.999c0,1.595,1.298,2.894,2.892,2.894
		c1.597,0,2.893-1.299,2.893-2.894C5.784,14.403,4.488,13.107,2.892,13.107z M2.892,17.703c-0.938,0-1.701-0.765-1.701-1.704
		c0-0.94,0.763-1.703,1.701-1.703c0.94,0,1.704,0.763,1.704,1.703C4.596,16.938,3.832,17.703,2.892,17.703z"/>
      <path d="M2.892,1.624C1.298,1.624,0,2.921,0,4.515C0,6.11,1.298,7.409,2.892,7.409c1.597,0,2.893-1.299,2.893-2.895
		C5.784,2.921,4.488,1.624,2.892,1.624z M2.892,6.222c-0.938,0-1.701-0.766-1.701-1.707c0-0.939,0.763-1.699,1.701-1.699
		c0.94,0,1.704,0.76,1.704,1.699C4.596,5.456,3.832,6.222,2.892,6.222z"/>
      <path d="M2.892,24.589C1.298,24.589,0,25.886,0,27.484c0,1.594,1.298,2.892,2.892,2.892
		c1.597,0,2.893-1.298,2.893-2.892C5.784,25.886,4.488,24.589,2.892,24.589z M2.892,29.187c-0.938,0-1.701-0.764-1.701-1.702
		c0-0.943,0.763-1.706,1.701-1.706c0.94,0,1.704,0.763,1.704,1.706C4.596,28.423,3.832,29.187,2.892,29.187z"/>
      <path d="M31.404,26.889H9.78c-0.329,0-0.594,0.269-0.594,0.596c0,0.326,0.265,0.594,0.594,0.594h21.624
		c0.33,0,0.596-0.268,0.596-0.594C32,27.157,31.734,26.889,31.404,26.889z"/>
      <path d="M31.404,15.401H9.78c-0.329,0-0.594,0.27-0.594,0.598c0,0.326,0.265,0.592,0.594,0.592h21.624
		c0.33,0,0.596-0.266,0.596-0.592C32,15.671,31.734,15.401,31.404,15.401z"/>
      <path d="M31.404,3.92H9.78c-0.329,0-0.594,0.267-0.594,0.595S9.451,5.109,9.78,5.109h21.624
		c0.33,0,0.596-0.267,0.596-0.595S31.734,3.92,31.404,3.92z"/>
    </g>
  </g></svg>