<svg id="svg-source" height="0" version="1.1" 
  xmlns="http://www.w3.org/2000/svg" style="position:absolute; margin-left: -100%" 
  xmlns:xlink="http://www.w3.org/1999/xlink"><g xmlns="http://www.w3.org/2000/svg" id="mail3" >
    <g>
      <path d="M32,6.36c0-0.067-0.049-0.112-0.074-0.174c-0.019-0.059-0.008-0.124-0.049-0.178
		c-0.011-0.012-0.024-0.01-0.033-0.018c-0.049-0.058-0.117-0.074-0.186-0.108c-0.068-0.031-0.123-0.077-0.197-0.081
		c-0.014-0.002-0.021-0.016-0.035-0.016H0.574c-0.014,0-0.021,0.014-0.035,0.016C0.463,5.806,0.408,5.851,0.342,5.882
		C0.273,5.917,0.205,5.935,0.153,5.99C0.148,5.999,0.131,5.997,0.121,6.008C0.082,6.062,0.093,6.127,0.074,6.187
		C0.049,6.248,0,6.293,0,6.36V25.64c0,0.067,0.049,0.112,0.074,0.173c0.019,0.061,0.008,0.126,0.047,0.179
		c0.01,0.012,0.021,0.007,0.032,0.017c0.104,0.121,0.249,0.206,0.421,0.206h30.852c0.172,0,0.314-0.085,0.421-0.206
		c0.011-0.01,0.02-0.005,0.03-0.017c0.041-0.053,0.03-0.118,0.049-0.179C31.951,25.752,32,25.707,32,25.64V6.36z M1.149,7.531
		l10.922,8.47L1.149,24.469V7.531z M18.648,15.543c-0.003,0.001-0.008,0-0.008,0.001l-2.496,1.94l-0.142,0.11l-0.12-0.092
		l-2.518-1.958c-0.006-0.001-0.008,0-0.014-0.001l-11.1-8.609h27.494L18.648,15.543z M13.01,16.727l2.641,2.046
		c0.057,0.046,0.131,0.048,0.196,0.068c0.038,0.01,0.068,0.036,0.112,0.038c0.017,0.002,0.027,0.017,0.044,0.017
		c0.014,0,0.024-0.015,0.041-0.015c0.041-0.004,0.071-0.026,0.109-0.038c0.068-0.02,0.143-0.024,0.202-0.07l2.641-2.046l10.75,8.34
		H2.252L13.01,16.727z M19.932,16.001l10.92-8.47v16.938L19.932,16.001z"/>
    </g>
  </g></svg>