<svg id="svg-source" height="0" version="1.1" 
  xmlns="http://www.w3.org/2000/svg" style="position:absolute; margin-left: -100%" 
  xmlns:xlink="http://www.w3.org/1999/xlink"><g xmlns="http://www.w3.org/2000/svg" id="mail2" >
    <g>
      <path d="M31.904,12.266c0-0.161-0.087-0.297-0.195-0.404c-0.014-0.011-0.012-0.035-0.027-0.047l-3.612-2.801V0.57
		c0-0.314-0.255-0.57-0.571-0.57H4.502C4.187,0,3.931,0.256,3.931,0.57v8.444l-3.614,2.801c-0.017,0.012-0.011,0.036-0.024,0.047
		c-0.112,0.107-0.196,0.243-0.196,0.404v19.162c0,0.038,0.021,0.066,0.03,0.102c0.005,0.029-0.009,0.057,0,0.086
		c0.008,0.019,0.027,0.028,0.038,0.048c0.027,0.06,0.068,0.104,0.111,0.151c0.035,0.034,0.06,0.067,0.104,0.092
		c0.014,0.009,0.021,0.027,0.035,0.034c0.073,0.033,0.152,0.049,0.229,0.051C0.653,31.994,0.656,32,0.667,32h30.666
		c0.085,0,0.171-0.02,0.25-0.058c0.02-0.009,0.027-0.026,0.041-0.036c0.038-0.021,0.062-0.054,0.093-0.085
		c0.049-0.049,0.09-0.098,0.119-0.16c0.012-0.019,0.03-0.028,0.035-0.047c0.009-0.027-0.005-0.054,0.003-0.083
		c0.006-0.036,0.03-0.065,0.03-0.104V12.266z M1.235,13.429l2.915,2.258l0,0l7.947,6.159L1.235,30.262V13.429z M26.093,26.645
		l-6.188-4.799l10.392-8.056l0.465-0.361v16.838L26.093,26.645z M30.403,12.266l-2.334,1.806v-3.614L30.403,12.266z M5.072,1.141
		h21.855v8.151v5.472l-10.925,8.473L5.072,14.763V9.292V1.141z M3.931,10.458v3.614l-0.683-0.527l-1.65-1.279L3.931,10.458z
		 M2.334,30.856l10.693-8.289l2.625,2.033c0.203,0.161,0.494,0.161,0.701,0l2.622-2.033l10.688,8.292L2.334,30.856z"/>
    </g>
  </g></svg>