<svg id="svg-source" height="0" version="1.1" 
  xmlns="http://www.w3.org/2000/svg" style="position:absolute; margin-left: -100%" 
  xmlns:xlink="http://www.w3.org/1999/xlink"><g xmlns="http://www.w3.org/2000/svg" id="mail1" >
    <g>
      <path d="M31.929,6.186c-0.021-0.06-0.011-0.125-0.052-0.179c-0.009-0.012-0.022-0.009-0.03-0.018
		c-0.052-0.058-0.12-0.074-0.188-0.108c-0.065-0.033-0.123-0.077-0.197-0.081c-0.011-0.002-0.021-0.016-0.036-0.016H0.571
		c-0.014,0-0.021,0.014-0.035,0.016C0.46,5.805,0.405,5.85,0.337,5.884c-0.066,0.033-0.135,0.05-0.184,0.105
		C0.146,5.998,0.129,5.996,0.12,6.007C0.079,6.062,0.091,6.126,0.071,6.186C0.05,6.248,0,6.292,0,6.359v19.281
		c0,0.316,0.255,0.574,0.571,0.574h30.854c0.318,0,0.575-0.258,0.575-0.574V6.359C32,6.292,31.95,6.248,31.929,6.186z
		 M15.996,17.595L2.249,6.933h27.499L15.996,17.595z M1.149,25.067V7.53L12.066,16L3.842,22.38
		c-0.252,0.192-0.298,0.554-0.102,0.805c0.109,0.146,0.282,0.222,0.452,0.222c0.123,0,0.246-0.04,0.353-0.121l8.458-6.562
		l2.643,2.048c0.104,0.082,0.228,0.123,0.351,0.123s0.251-0.041,0.353-0.123l2.644-2.046l8.463,6.56
		c0.104,0.081,0.228,0.121,0.351,0.121c0.172,0,0.342-0.076,0.454-0.222c0.194-0.25,0.15-0.612-0.102-0.805L19.928,16l10.923-8.47
		v17.537H1.149z"/>
    </g>
  </g></svg>