<svg id="svg-source" height="0" version="1.1" 
  xmlns="http://www.w3.org/2000/svg" style="position:absolute; margin-left: -100%" 
  xmlns:xlink="http://www.w3.org/1999/xlink"><g xmlns="http://www.w3.org/2000/svg" id="mail" >
    <g>
      <path d="M8.289,4.938H16c0.314,0,0.572-0.258,0.572-0.575c0-0.315-0.258-0.574-0.572-0.574H8.289
		c-0.316,0-0.574,0.258-0.574,0.574C7.715,4.68,7.973,4.938,8.289,4.938z"/>
      <path d="M8.289,12.72h15.424c0.315,0,0.575-0.258,0.575-0.575c0-0.315-0.26-0.575-0.575-0.575H8.289
		c-0.316,0-0.574,0.26-0.574,0.575C7.715,12.462,7.973,12.72,8.289,12.72z"/>
      <path d="M8.289,8.862H16c0.314,0,0.572-0.258,0.572-0.574S16.314,7.714,16,7.714H8.289
		c-0.316,0-0.574,0.258-0.574,0.574S7.973,8.862,8.289,8.862z"/>
      <path d="M31.998,12.145c0-0.161-0.087-0.297-0.199-0.405c-0.014-0.012-0.008-0.037-0.025-0.048l-3.636-2.819V0.574
		C28.138,0.258,27.883,0,27.566,0H4.432C4.114,0,3.857,0.258,3.857,0.574v8.299l-3.637,2.819c-0.014,0.011-0.008,0.036-0.021,0.048
		c-0.112,0.107-0.197,0.244-0.197,0.405v19.282c0,0.038,0.021,0.067,0.03,0.103c0.005,0.03-0.009,0.056,0,0.083
		c0.008,0.021,0.027,0.028,0.035,0.046c0.03,0.063,0.071,0.112,0.12,0.162c0.03,0.032,0.055,0.062,0.094,0.085
		c0.016,0.009,0.024,0.026,0.041,0.036C0.401,31.98,0.488,32,0.574,32h30.85c0.085,0,0.172-0.02,0.252-0.058
		c0.016-0.01,0.024-0.027,0.041-0.036c0.038-0.023,0.062-0.054,0.096-0.085c0.047-0.049,0.09-0.099,0.117-0.162
		c0.009-0.019,0.03-0.026,0.036-0.046c0.008-0.027-0.003-0.053,0.003-0.083c0.005-0.036,0.029-0.065,0.029-0.103V12.145z
		 M30.85,13.318v16.936l-10.923-8.47L30.85,13.318z M30.485,12.145l-2.348,1.819v-3.638L30.485,12.145z M5.006,1.147h21.985v8.005
		v5.702l-6.964,5.397L16,23.376l-4.033-3.124l-6.961-5.397V9.153V1.147z M1.148,13.318l10.92,8.466l-10.92,8.47V13.318z
		 M3.857,10.326v3.638l-2.346-1.819L3.857,10.326z M2.251,30.853l10.756-8.342l2.641,2.045c0.101,0.08,0.227,0.12,0.353,0.12
		c0.121,0,0.246-0.04,0.351-0.12l2.64-2.045l10.754,8.342H2.251z"/>
    </g>
  </g></svg>