<svg id="svg-source" height="0" version="1.1" 
  xmlns="http://www.w3.org/2000/svg" style="position:absolute; margin-left: -100%" 
  xmlns:xlink="http://www.w3.org/1999/xlink"><g xmlns="http://www.w3.org/2000/svg" id="mailbox" >
    <g>
      <path d="M29.752,6.07H12.85V3.1h2.329c0.853,0,1.548-0.695,1.548-1.548C16.727,0.696,16.031,0,15.179,0h-4.054
		c-0.24,0-0.434,0.194-0.434,0.433V6.07H6.645c-0.24,0-0.434,0.194-0.434,0.433v11.035L2.662,6.371
		C2.59,6.146,2.346,6.02,2.117,6.089C1.889,6.163,1.762,6.406,1.836,6.635L6.23,20.469c0.015,0.046,0.053,0.073,0.08,0.111
		c0.02,0.027,0.029,0.055,0.057,0.075c0.078,0.068,0.172,0.116,0.277,0.116h7.213v10.794c0,0.239,0.193,0.434,0.434,0.434h4.232
		c0.24,0,0.434-0.195,0.434-0.434V20.771h10.795c0.24,0,0.434-0.195,0.434-0.434V6.503C30.186,6.264,29.992,6.07,29.752,6.07z
		 M29.317,9.977H12.85v-3.04h16.468V9.977z M11.559,0.867h3.62c0.375,0,0.681,0.307,0.681,0.685c0,0.376-0.306,0.681-0.681,0.681
		h-2.763c-0.238,0-0.434,0.196-0.434,0.434v3.836v6.484h-0.424V6.503V0.867z M10.691,6.937v3.04H7.078v-3.04H10.691z M14.724,20.771
		h1.247v10.36h-1.247V20.771z M18.09,31.132h-1.251v-10.36h1.251V31.132z M18.523,19.904h-4.232H7.078v-9.06h3.613v2.577
		c0,0.238,0.193,0.434,0.434,0.434h1.291c0.24,0,0.434-0.195,0.434-0.434v-2.577h16.468v9.06H18.523z"/>
    </g>
  </g></svg>