<svg id="svg-source" height="0" version="1.1" 
  xmlns="http://www.w3.org/2000/svg" style="position:absolute; margin-left: -100%" 
  xmlns:xlink="http://www.w3.org/1999/xlink"><g xmlns="http://www.w3.org/2000/svg" id="mail4" >
    <g>
      <path d="M31.945,0.444c-0.02-0.075-0.035-0.135-0.081-0.198c-0.046-0.061-0.1-0.093-0.165-0.13
		c-0.043-0.027-0.062-0.076-0.112-0.091c-0.03-0.009-0.056,0.013-0.085,0.008s-0.046-0.031-0.076-0.031H0.574
		c-0.029,0-0.047,0.026-0.076,0.031S0.444,0.015,0.414,0.024C0.363,0.04,0.344,0.088,0.301,0.116
		c-0.064,0.037-0.119,0.069-0.164,0.13C0.09,0.309,0.074,0.369,0.056,0.444C0.043,0.49,0,0.524,0,0.575v30.85
		c0,0.316,0.258,0.574,0.574,0.574h30.852c0.317,0,0.574-0.258,0.574-0.574V0.575C32,0.524,31.957,0.49,31.945,0.444z M16,14.645
		c0,0,0.002,0.002,0.006,0.002s0.008,0.002,0.012,0.002c0.354,0.004,0.688,0.142,0.939,0.393c0.256,0.254,0.397,0.596,0.397,0.958
		c0,0.359-0.142,0.701-0.397,0.957c-0.511,0.511-1.403,0.511-1.914,0c-0.527-0.527-0.527-1.388,0-1.915
		C15.298,14.786,15.64,14.645,16,14.645z M16.006,13.499c-0.036,0-0.057,0.031-0.09,0.039c-0.456,0.013-0.884,0.174-1.27,0.423
		v-1.244h2.708v1.016C16.927,13.593,16.477,13.499,16.006,13.499z M14.646,11.568v-1.236c0.405,0.27,0.856,0.456,1.354,0.456
		c0.498,0,0.948-0.186,1.354-0.456v1.236H14.646z M15.043,7.328C15.298,7.074,15.64,6.932,16,6.932c0.361,0,0.701,0.142,0.957,0.396
		c0.256,0.255,0.397,0.598,0.397,0.958c0,0.361-0.142,0.702-0.397,0.958c-0.511,0.51-1.403,0.51-1.914,0
		C14.516,8.716,14.516,7.855,15.043,7.328z M18.502,8.286c0-0.668-0.259-1.296-0.732-1.769c-0.946-0.947-2.592-0.947-3.537,0
		c-0.486,0.486-0.729,1.123-0.731,1.762c0,0.002-0.003,0.005-0.003,0.006v3.283H5.887c-0.826,0-1.718-0.668-1.947-1.459l-2.6-8.96
		h29.321l-2.601,8.96c-0.23,0.791-1.121,1.459-1.946,1.459h-7.612V8.286z M1.148,30.851V4.612l1.688,5.815
		c0.373,1.285,1.713,2.29,3.051,2.29h7.611V16c0,0.002,0.003,0.004,0.003,0.006c0.003,0.639,0.245,1.275,0.731,1.764
		c0.472,0.472,1.1,0.732,1.768,0.732s1.295-0.261,1.77-0.732c0.474-0.474,0.732-1.102,0.732-1.77v-0.172
		c0.48,0.57,0.781,1.296,0.781,2.099c0,0.317,0.256,0.575,0.574,0.575c0.316,0,0.572-0.258,0.572-0.575
		c0-1.516-0.766-2.852-1.928-3.649v-1.561h7.612c1.338,0,2.678-1.004,3.049-2.29l1.688-5.815v26.239H1.148z"/>
    </g>
  </g></svg>