<svg id="svg-source" height="0" version="1.1" 
  xmlns="http://www.w3.org/2000/svg" style="position:absolute; margin-left: -100%" 
  xmlns:xlink="http://www.w3.org/1999/xlink"><g xmlns="http://www.w3.org/2000/svg" id="map-tag" >
    <g>
      <path d="M31.501,1.098c-0.782-1.125-2.375-1.416-4.249-0.716L2.583,9.46C1.2,9.97-0.182,10.647,0.02,11.809
		c0.209,1.154,1.744,1.311,3.215,1.311h11.256c2.42,0,4.388,1.968,4.388,4.386V28.76c0,0.966,0,3.231,1.517,3.236
		c0.841,0,1.458-0.749,2.133-2.586l9.086-24.669C32.307,2.854,31.94,1.717,31.501,1.098z M29.851,4.093L20.77,28.762
		c-0.009,0.016-0.009,0.026-0.018,0.04c0-0.014,0-0.029,0-0.042V17.505c0-3.455-2.805-6.265-6.262-6.265H3.235
		c-0.018,0-0.035,0-0.062,0c0.023-0.005,0.036-0.013,0.059-0.021l24.665-9.078c0.993-0.366,1.808-0.351,2.067,0.031
		C30.209,2.518,30.168,3.237,29.851,4.093z"/>
    </g>
  </g></svg>