<svg id="svg-source" height="0" version="1.1" 
  xmlns="http://www.w3.org/2000/svg" style="position:absolute; margin-left: -100%" 
  xmlns:xlink="http://www.w3.org/1999/xlink"><g xmlns="http://www.w3.org/2000/svg" id="map" >
    <g>
      <path d="M31.222,0.504l-10.079,3.75l-10.084-3.75c-0.02-0.012-0.042-0.003-0.066-0.007
		c-0.047-0.013-0.088-0.017-0.135-0.017s-0.091,0.004-0.135,0.017c-0.024,0.004-0.047-0.005-0.066,0.007L0.377,4.33
		C0.151,4.411,0,4.63,0,4.871v26.084c0,0.189,0.094,0.364,0.247,0.475c0.1,0.066,0.213,0.104,0.328,0.104
		c0.071,0,0.135-0.013,0.203-0.037l10.079-3.754l10.081,3.754c0.069,0.024,0.139,0.037,0.204,0.037c0.066,0,0.135-0.013,0.201-0.037
		l10.279-3.83C31.852,27.584,32,27.368,32,27.126V1.044c0-0.189-0.091-0.365-0.247-0.473C31.599,0.464,31.4,0.434,31.222,0.504z
		 M10.28,26.726l-9.128,3.398V5.271l9.128-3.396V26.726z M20.565,30.124l-9.131-3.398V1.875l9.131,3.396V30.124z M30.848,26.726
		l-9.128,3.398V5.271l9.128-3.396V26.726z"/>
    </g>
  </g></svg>