<svg id="svg-source" height="0" version="1.1" 
  xmlns="http://www.w3.org/2000/svg" style="position:absolute; margin-left: -100%" 
  xmlns:xlink="http://www.w3.org/1999/xlink"><g xmlns="http://www.w3.org/2000/svg" id="map1" >
    <g>
      <path d="M26.285,0H12.574c-0.314,0-0.571,0.257-0.571,0.573v2.859H5.719c-0.318,0-0.575,0.257-0.575,0.571v27.419
		C5.144,31.741,5.4,32,5.719,32h13.709c0.315,0,0.575-0.259,0.575-0.577v-2.852h6.282c0.316,0,0.571-0.257,0.571-0.572V0.573
		C26.856,0.257,26.602,0,26.285,0z M6.293,30.85V4.579h5.71v23.42c0,0.224,0.15,0.381,0.334,0.475l-0.017,0.039l4.679,2.337H6.293z
		 M18.854,30.497l-3.847-1.926h3.847V30.497z M25.71,27.424h-6.282h-6.278V4.004V1.149H25.71V27.424z"/>
    </g>
  </g></svg>