<svg id="svg-source" height="0" version="1.1" 
  xmlns="http://www.w3.org/2000/svg" style="position:absolute; margin-left: -100%" 
  xmlns:xlink="http://www.w3.org/1999/xlink"><g xmlns="http://www.w3.org/2000/svg" id="map2" >
    <g>
      <path d="M29.235,6.667l-0.22-0.307l-0.367,0.078c-3.802,0.821-7.26,2.806-9.886,5.651V0.206L18.26,0.142
		c-1.474-0.19-2.516-0.188-4.002,0l-0.501,0.063v4.811H4.653l-0.17,0.186C3.387,6.393,2.484,7.74,1.795,9.203l-0.386,0.817H5.57
		c-0.759,3.287-2.419,6.279-4.825,8.685l-0.219,0.22l0.062,0.304c0.281,1.371,0.764,2.731,1.435,4.045l0.33,0.644l0.553-0.466
		c4.071-3.455,6.813-8.208,7.754-13.431h3.097v4.409l-4.875,8.121l4.875-2.706v11.954l0.504,0.063C15.014,31.958,15.649,32,16.26,32
		c0.612,0,1.247-0.042,1.999-0.138l0.503-0.063v-2.5h6.39l0.146-0.1c1.57-1.08,2.928-2.424,4.038-4.002l0.639-0.902H18.773
		c0.058-1.354,0.359-2.686,0.819-3.988l4.047,2.246l-2.869-4.78c2.163-3.599,5.867-6.07,9.99-6.629l0.714-0.097l-0.253-0.673
		C30.726,9.059,30.057,7.811,29.235,6.667z M9.684,8.873L9.606,9.357c-0.773,4.895-3.208,9.387-6.884,12.725
		c-0.414-0.914-0.732-1.849-0.945-2.787c2.613-2.699,4.362-6.062,5.065-9.739l0.13-0.683H3.249C3.783,7.902,4.423,6.994,5.16,6.165
		h9.745V1.223c0.97-0.1,1.732-0.095,2.708,0v11.289l-1.353-2.253l-1.355,2.253V8.873H9.684z M27.709,25.441
		c-0.851,1.035-1.828,1.943-2.917,2.709h-7.18v2.629c-0.979,0.098-1.722,0.098-2.708,0v-11.57l1.355-0.754l2.281,1.267
		c-0.616,1.669-0.928,3.399-0.928,5.147v0.572H27.709z M16.26,17.143l-2.503,1.391l-1.686,0.936l4.189-6.981l1.353,2.257v0.583
		l0.198-0.255l2.297,3.825l0.341,0.57L16.26,17.143z M20.1,16.656l-1.119-1.863l-0.415-0.691l0.075-0.096
		c2.474-3.18,5.972-5.43,9.879-6.359c0.532,0.779,0.988,1.609,1.362,2.476C25.904,10.865,22.341,13.248,20.1,16.656z"/>
    </g>
  </g></svg>