<svg id="svg-source" height="0" version="1.1" 
  xmlns="http://www.w3.org/2000/svg" style="position:absolute; margin-left: -100%" 
  xmlns:xlink="http://www.w3.org/1999/xlink"><g xmlns="http://www.w3.org/2000/svg" id="medal" >
    <g>
      <path d="M0,12.594l8.713,2.178c-1.845,1.903-2.932,4.382-2.932,7.013c0,5.633,4.583,10.215,10.216,10.215
		s10.215-4.582,10.215-10.215c0-2.627-1.086-5.109-2.93-7.013L32,12.594V0.001H0V12.594z M25.065,21.784
		c0,4.998-4.068,9.066-9.068,9.066s-9.068-4.068-9.068-9.066c0-2.541,1.1-4.971,3.029-6.702l6.039,1.509l6.04-1.509
		C23.966,16.819,25.065,19.245,25.065,21.784z M21.716,1.147h9.134v10.549l-9.134,2.283V1.147z M11.429,1.147h9.139v13.119
		l-4.57,1.141l-4.568-1.141V1.147z M1.147,1.147h9.131v12.832l-9.131-2.283V1.147z"/>
    </g>
  </g></svg>