<svg id="svg-source" height="0" version="1.1" 
  xmlns="http://www.w3.org/2000/svg" style="position:absolute; margin-left: -100%" 
  xmlns:xlink="http://www.w3.org/1999/xlink"><g xmlns="http://www.w3.org/2000/svg" id="microphone" >
    <g>
      <path d="M23.011,6.22C22.572,2.673,19.558,0,16,0c-3.556,0-6.571,2.673-7.013,6.22L8.965,6.39
		C8.933,6.625,8.9,6.858,8.9,7.099c0,0.238,0.032,0.469,0.064,0.698l0.026,0.202c0.202,1.544,0.901,2.965,1.957,4.047l1.292,14.985
		l3.269,0.005l-0.002,2.818c0,0.861,0.572,2.146,2.145,2.146v-0.985c-1.088,0-1.157-0.97-1.159-1.16l0.001-2.818l3.233,0.004
		l1.325-14.997c1.054-1.08,1.755-2.502,1.955-4.047l0.028-0.207c0.034-0.227,0.064-0.457,0.064-0.69c0-0.238-0.03-0.466-0.064-0.695
		L23.011,6.22z M19.958,13.232H12.04l-0.076-0.879h8.072L19.958,13.232z M18.823,26.055l-5.679-0.009l-1.02-11.828h7.747
		L18.823,26.055z M22.06,7.649l-0.029,0.222c-0.174,1.333-0.765,2.566-1.673,3.497h-8.716c-0.908-0.931-1.5-2.164-1.673-3.495
		L9.94,7.659C9.914,7.476,9.886,7.29,9.886,7.099c0-0.194,0.028-0.384,0.054-0.571l0.024-0.186C10.347,3.288,12.941,0.985,16,0.985
		c3.061,0,5.655,2.303,6.034,5.356l0.026,0.199c0.026,0.184,0.055,0.366,0.055,0.558C22.115,7.288,22.086,7.467,22.06,7.649z"/>
      <path d="M15.999,14.888c-0.272,0-0.493,0.221-0.493,0.491v3.309c0,0.27,0.221,0.49,0.493,0.49
		c0.272,0,0.493-0.221,0.493-0.49v-3.309C16.492,15.108,16.271,14.888,15.999,14.888z"/>
    </g>
  </g></svg>