<svg id="svg-source" height="0" version="1.1" 
  xmlns="http://www.w3.org/2000/svg" style="position:absolute; margin-left: -100%" 
  xmlns:xlink="http://www.w3.org/1999/xlink"><g xmlns="http://www.w3.org/2000/svg" id="mouse" >
    <g>
      <path d="M15.997,0C10.366,0,5.786,4.582,5.786,10.215v11.572C5.786,27.42,10.366,32,15.997,32
		c5.634,0,10.217-4.58,10.217-10.213V10.215C26.214,4.582,21.631,0,15.997,0z M15.997,9.641c-0.747,0-1.354-0.608-1.354-1.355V4.432
		c0-0.748,0.607-1.355,1.354-1.355s1.354,0.607,1.354,1.355v3.854C17.352,9.032,16.744,9.641,15.997,9.641z M15.423,1.207v0.839
		c-1.095,0.267-1.929,1.21-1.929,2.386v3.854c0,1.176,0.834,2.122,1.929,2.386v0.901h-8.49v-1.357
		C6.933,5.415,10.694,1.508,15.423,1.207z M15.997,30.853c-4.999,0-9.064-4.068-9.064-9.065v-9.068h18.132v9.068
		C25.064,26.784,20.999,30.853,15.997,30.853z M25.064,11.572h-8.492v-0.901c1.094-0.264,1.929-1.21,1.929-2.386V4.432
		c0-1.176-0.835-2.119-1.929-2.386V1.207c4.73,0.301,8.492,4.208,8.492,9.008V11.572z"/>
    </g>
  </g></svg>