<svg id="svg-source" height="0" version="1.1" 
  xmlns="http://www.w3.org/2000/svg" style="position:absolute; margin-left: -100%" 
  xmlns:xlink="http://www.w3.org/1999/xlink"><g xmlns="http://www.w3.org/2000/svg" id="notepad" >
    <g>
      <path d="M24.542,1.826c-0.049-0.013-0.096-0.01-0.142-0.006h-2.402V0.542c0-0.3-0.245-0.542-0.542-0.542
		c-0.299,0-0.542,0.242-0.542,0.542V1.82h-2.549V0.542c0-0.3-0.245-0.542-0.542-0.542c-0.3,0-0.545,0.242-0.545,0.542V1.82h-2.552
		V0.542c0-0.3-0.242-0.542-0.542-0.542c-0.297,0-0.541,0.242-0.541,0.542V1.82h-2.55V0.542c0-0.3-0.243-0.542-0.542-0.542
		s-0.542,0.242-0.542,0.542V1.82H7.604c-0.049-0.001-0.092-0.001-0.142,0C6.193,1.861,5.174,2.903,5.174,4.18v5.454v21.825
		C5.174,31.758,5.418,32,5.715,32h20.57c0.3,0,0.54-0.242,0.54-0.541V9.634V4.18C26.826,2.903,25.809,1.861,24.542,1.826z
		 M6.257,4.18c0-0.703,0.57-1.273,1.274-1.273c0.003,0,0.003,0,0.008,0h2.47v1.275c0,0.3,0.243,0.541,0.542,0.541
		s0.542-0.241,0.542-0.541V2.906h2.55v1.275c0,0.3,0.244,0.541,0.541,0.541c0.3,0,0.542-0.241,0.542-0.541V2.906h2.552v1.275
		c0,0.3,0.245,0.541,0.545,0.541c0.297,0,0.542-0.241,0.542-0.541V2.906h2.549v1.275c0,0.3,0.243,0.541,0.542,0.541
		c0.297,0,0.542-0.241,0.542-0.541V2.906h2.464c0.006,0,0.006,0,0.011,0c0.699,0,1.27,0.57,1.27,1.273v4.914H6.257V4.18z
		 M25.742,12.734H6.257v-2.557h19.484V12.734z M6.257,24.725h19.484v2.555H6.257V24.725z M6.257,23.643v-2.555h19.484v2.555H6.257z
		 M6.257,20.006v-2.555h19.484v2.555H6.257z M6.257,16.369v-2.55h19.484v2.55H6.257z M6.257,30.918v-2.555h19.484v2.555H6.257z"/>
    </g>
  </g></svg>