<svg id="svg-source" height="0" version="1.1" 
  xmlns="http://www.w3.org/2000/svg" style="position:absolute; margin-left: -100%" 
  xmlns:xlink="http://www.w3.org/1999/xlink"><g xmlns="http://www.w3.org/2000/svg" id="photo2" >
    <g>
      <path d="M16,11.568c-3.489,0-6.328,2.841-6.328,6.333c0,3.491,2.839,6.326,6.328,6.326
		c3.492,0,6.332-2.835,6.332-6.326C22.332,14.409,19.492,11.568,16,11.568z M16,23.084c-2.86,0-5.187-2.325-5.187-5.183
		c0-2.86,2.326-5.188,5.187-5.188c2.861,0,5.189,2.328,5.189,5.188C21.189,20.759,18.861,23.084,16,23.084z"/>
      <path d="M31.428,7.707h-9.337L20.352,4.23c-0.097-0.193-0.294-0.319-0.511-0.319h-7.678
		c-0.216,0-0.415,0.126-0.512,0.319L9.912,7.707h-9.34C0.256,7.707,0,7.965,0,8.279v19.237c0,0.317,0.256,0.572,0.572,0.572h30.855
		c0.316,0,0.572-0.255,0.572-0.572V8.279C32,7.965,31.744,7.707,31.428,7.707z M30.857,26.946H1.144V8.852h9.121
		c0.217,0,0.415-0.123,0.513-0.318l1.738-3.478h6.971l1.741,3.478c0.097,0.195,0.294,0.318,0.512,0.318h9.118V26.946z"/>
    </g>
  </g></svg>