<svg id="svg-source" height="0" version="1.1" 
  xmlns="http://www.w3.org/2000/svg" style="position:absolute; margin-left: -100%" 
  xmlns:xlink="http://www.w3.org/1999/xlink"><g xmlns="http://www.w3.org/2000/svg" id="photo1" >
    <g>
      <path d="M16,11.568c-3.489,0-6.328,2.841-6.328,6.333c0,3.491,2.839,6.326,6.328,6.326
		c3.492,0,6.332-2.835,6.332-6.326C22.332,14.409,19.492,11.568,16,11.568z M16,23.084c-2.86,0-5.187-2.325-5.187-5.183
		c0-2.86,2.326-5.189,5.187-5.189c2.863,0,5.188,2.329,5.188,5.189C21.188,20.759,18.863,23.084,16,23.084z"/>
      <path d="M31.429,7.707h-9.338l-1.74-3.478c-0.097-0.193-0.294-0.318-0.51-0.318h-7.679
		c-0.215,0-0.414,0.125-0.512,0.318L9.912,7.707h-3.01V6.359c0-0.315-0.256-0.573-0.572-0.573H2.492
		c-0.316,0-0.572,0.258-0.572,0.573v1.348H0.571C0.256,7.707,0,7.964,0,8.279v19.237c0,0.317,0.256,0.572,0.571,0.572h30.857
		c0.315,0,0.572-0.255,0.572-0.572V8.279C32.001,7.964,31.744,7.707,31.429,7.707z M3.062,6.931H5.76v0.776H3.062V6.931z
		 M30.858,26.946H1.143V8.851h1.35H6.33h3.935c0.217,0,0.415-0.122,0.511-0.317l1.74-3.479h6.971l1.741,3.479
		c0.097,0.195,0.294,0.317,0.509,0.317h9.122V26.946z"/>
    </g>
  </g></svg>