<svg id="svg-source" height="0" version="1.1" 
  xmlns="http://www.w3.org/2000/svg" style="position:absolute; margin-left: -100%" 
  xmlns:xlink="http://www.w3.org/1999/xlink"><g xmlns="http://www.w3.org/2000/svg" id="photo" >
    <g>
      <path d="M31.427,8.806h-9.338l-1.74-3.478c-0.097-0.195-0.296-0.318-0.511-0.318h-0.227
		c0.238-0.452,0.511-0.87,0.858-1.22c0.222-0.224,0.222-0.586,0-0.808c-0.224-0.225-0.584-0.225-0.808,0
		c-0.003,0.001-0.004,0.006-0.007,0.006c-1.957,1.951-5.368,1.948-7.325-0.01c-0.106-0.107-0.253-0.166-0.406-0.166
		c-0.152,0-0.3,0.062-0.405,0.17c-0.164,0.162-0.21,0.408-0.123,0.622c0.033,0.082,0.084,0.151,0.148,0.207
		c0.338,0.343,0.604,0.755,0.836,1.198h-0.219c-0.217,0-0.414,0.123-0.512,0.318L9.911,8.806h-3.01V7.457
		c0-0.312-0.256-0.572-0.572-0.572H2.49c-0.315,0-0.571,0.26-0.571,0.572v1.349H0.571C0.256,8.806,0,9.062,0,9.377v19.238
		c0,0.314,0.256,0.572,0.571,0.572h30.855c0.317,0,0.573-0.258,0.573-0.572V9.377C32,9.062,31.744,8.806,31.427,8.806z
		 M18.235,5.236c-0.021,0.053-0.039,0.104-0.058,0.162c-0.494,1.428-0.466,2.931,0.032,4.271c-0.698-0.262-1.446-0.396-2.214-0.396
		c-0.769,0-1.515,0.135-2.213,0.396c0.497-1.346,0.524-2.845,0.032-4.272c-0.019-0.056-0.039-0.108-0.059-0.163
		C15.165,5.768,16.821,5.768,18.235,5.236z M3.062,8.029h2.696v0.776H3.062V8.029z M30.856,28.043H1.143V9.949H2.49h3.839h3.934
		c0.218,0,0.414-0.124,0.512-0.317l1.739-3.477h0.298c0.053,0.203,0.09,0.406,0.12,0.608c0.026,0.196,0.071,0.39,0.076,0.585
		c0.009,0.281-0.032,0.556-0.07,0.832c-0.023,0.179-0.027,0.362-0.071,0.535c-0.072,0.3-0.199,0.583-0.326,0.864
		c-0.063,0.139-0.099,0.287-0.172,0.418c-0.229,0.406-0.507,0.786-0.848,1.127c-0.222,0.225-0.222,0.587,0.002,0.809
		c0.11,0.111,0.257,0.168,0.404,0.168c0.146,0,0.291-0.057,0.403-0.168c1.958-1.955,5.374-1.955,7.332,0
		c0.161,0.164,0.384,0.164,0.585,0.09c0.08-0.028,0.167-0.035,0.227-0.096c0.076-0.073,0.087-0.176,0.111-0.268
		c0.014-0.051,0.055-0.088,0.055-0.135c0-0.147-0.055-0.293-0.166-0.406c-0.34-0.338-0.621-0.721-0.849-1.123
		c-0.072-0.129-0.107-0.275-0.17-0.41c-0.128-0.285-0.256-0.568-0.329-0.87c-0.043-0.173-0.047-0.355-0.071-0.528
		c-0.038-0.281-0.077-0.556-0.069-0.839c0.006-0.193,0.048-0.387,0.074-0.582c0.03-0.204,0.068-0.407,0.122-0.611h0.304l1.738,3.477
		c0.098,0.193,0.295,0.317,0.512,0.317h9.121V28.043z"/>
      <path d="M15.999,12.668c-3.489,0-6.33,2.839-6.33,6.33c0,3.49,2.841,6.328,6.33,6.328c3.49,0,6.33-2.838,6.33-6.328
		C22.329,15.507,19.489,12.668,15.999,12.668z M15.999,24.182c-2.86,0-5.187-2.326-5.187-5.184c0-2.859,2.326-5.187,5.187-5.187
		c2.859,0,5.188,2.327,5.188,5.187C21.188,21.855,18.858,24.182,15.999,24.182z"/>
    </g>
  </g></svg>