<svg id="svg-source" height="0" version="1.1" 
  xmlns="http://www.w3.org/2000/svg" style="position:absolute; margin-left: -100%" 
  xmlns:xlink="http://www.w3.org/1999/xlink"><g xmlns="http://www.w3.org/2000/svg" id="pin" >
    <g>
      <path d="M16,1.771c-2.438,0-4.422,1.984-4.422,4.423c0,0.312,0.252,0.566,0.565,0.566
		c0.312,0,0.565-0.254,0.565-0.566c0-1.815,1.478-3.292,3.292-3.292c0.313,0,0.567-0.253,0.567-0.565
		C16.566,2.027,16.313,1.771,16,1.771z"/>
      <path d="M16,0c-3.503,0-6.354,2.851-6.354,6.354c0,2.574,1.567,4.865,3.923,5.844l1.87,19.291
		C15.467,31.779,15.71,32,16,32c0.292,0,0.536-0.221,0.565-0.512l1.869-19.291c2.355-0.979,3.92-3.27,3.92-5.844
		C22.354,2.851,19.505,0,16,0z M16,25.568l-1.257-12.985c0.834,0.17,1.681,0.17,2.517,0L16,25.568z M17.705,11.285h-0.001
		c-1.124,0.393-2.283,0.393-3.406,0h-0.001c-2.104-0.727-3.518-2.709-3.518-4.932c0-2.881,2.344-5.222,5.221-5.222
		c2.881,0,5.224,2.341,5.224,5.222C21.224,8.576,19.81,10.559,17.705,11.285z"/>
    </g>
  </g></svg>