<svg id="svg-source" height="0" version="1.1" 
  xmlns="http://www.w3.org/2000/svg" style="position:absolute; margin-left: -100%" 
  xmlns:xlink="http://www.w3.org/1999/xlink"><g xmlns="http://www.w3.org/2000/svg" id="pin1" >
    <g>
      <path d="M31.998,32l-9.257-12.655l6.856-6.856c0.233-0.234,0.233-0.618,0-0.851c-0.235-0.236-0.617-0.236-0.854,0
		l-1.166,1.167c-6.374-0.897-11.145-4.916-16.234-10.699l1.075-1.075c0.233-0.236,0.233-0.618,0-0.854
		c-0.238-0.236-0.618-0.236-0.854,0l-1.474,1.474c0,0.003-0.006,0.003-0.006,0.003l-8.432,8.432l0,0L0.18,11.56
		c-0.235,0.236-0.235,0.618,0,0.854c0.121,0.118,0.273,0.177,0.426,0.177c0.155,0,0.311-0.059,0.428-0.177l1.072-1.072
		c5.785,5.089,9.808,9.859,10.699,16.233l-1.167,1.169c-0.235,0.236-0.235,0.617,0,0.853c0.118,0.118,0.271,0.177,0.425,0.177
		c0.155,0,0.308-0.059,0.426-0.177l6.862-6.862L31.998,32z M26.423,26.42l-6.21-4.549l1.666-1.664L26.423,26.42z M13.87,26.509
		c-1.169-6.271-5.213-11.011-10.905-16.025l3.762-3.76l3.759-3.762c5.018,5.694,9.756,9.736,16.026,10.907L13.87,26.509z"/>
    </g>
  </g></svg>