<svg id="svg-source" height="0" version="1.1" 
  xmlns="http://www.w3.org/2000/svg" style="position:absolute; margin-left: -100%" 
  xmlns:xlink="http://www.w3.org/1999/xlink"><g xmlns="http://www.w3.org/2000/svg" id="play-pause" >
    <g>
      <path d="M16.44,14.383L2.799,6.511C1.405,5.694,0,6.564,0,8.124v15.752c0,1.144,0.692,1.937,1.69,1.937
		c0.361,0,0.735-0.104,1.108-0.319l13.642-7.882c0.674-0.387,1.059-0.979,1.059-1.615S17.114,14.773,16.44,14.383z M15.636,16.214
		L1.99,24.096c-0.173,0.096-0.276,0.104-0.3,0.104l-0.004,0.01c-0.02-0.021-0.069-0.117-0.069-0.333V8.124
		c0-0.216,0.05-0.312,0.073-0.323c0.023,0,0.127,0.008,0.3,0.107l13.646,7.878c0.182,0.103,0.243,0.198,0.25,0.204
		C15.879,16.016,15.817,16.109,15.636,16.214z"/>
      <path d="M24.407,5.486c-1.193,0-2.164,0.971-2.164,2.164V24.35c0,1.191,0.971,2.164,2.164,2.164
		s2.164-0.973,2.164-2.164V7.65C26.571,6.457,25.601,5.486,24.407,5.486z M24.954,24.35c0,0.608-1.098,0.608-1.098,0V7.65
		c0-0.305,0.246-0.549,0.551-0.549c0.301,0,0.547,0.244,0.547,0.549V24.35z"/>
      <path d="M29.836,5.486c-1.193,0-2.164,0.971-2.164,2.164V24.35c0,1.191,0.971,2.164,2.164,2.164S32,25.541,32,24.35
		V7.65C32,6.457,31.029,5.486,29.836,5.486z M30.387,24.35c0,0.608-1.102,0.608-1.102,0V7.65c0-0.305,0.251-0.549,0.551-0.549
		s0.551,0.244,0.551,0.549V24.35z"/>
    </g>
  </g></svg>