<svg id="svg-source" height="0" version="1.1" 
  xmlns="http://www.w3.org/2000/svg" style="position:absolute; margin-left: -100%" 
  xmlns:xlink="http://www.w3.org/1999/xlink"><g xmlns="http://www.w3.org/2000/svg" id="play-pause1" >
    <g>
      <path d="M17.967,14.23L3.063,5.626C1.536,4.755,0,5.681,0,7.393v17.215c0,1.249,0.757,2.116,1.847,2.116
		c0.4,0,0.805-0.114,1.217-0.35l14.903-8.613c0.736-0.423,1.157-1.064,1.157-1.765C19.124,15.299,18.703,14.66,17.967,14.23z
		 M17.083,16.233L2.18,24.843c-0.186,0.109-0.304,0.117-0.333,0.117l-0.004,0.011c-0.021-0.023-0.076-0.128-0.076-0.363V7.393
		c0-0.235,0.055-0.341,0.08-0.354c0.029,0,0.147,0.009,0.333,0.118l14.903,8.601c0.202,0.118,0.266,0.223,0.273,0.231
		C17.349,16.017,17.285,16.12,17.083,16.233z"/>
      <path d="M25.191,4.511c-0.492,0-0.884,0.396-0.884,0.882v21.217c0,0.484,0.392,0.88,0.884,0.88
		c0.484,0,0.88-0.396,0.88-0.88V5.393C26.071,4.906,25.676,4.511,25.191,4.511z"/>
      <path d="M31.125,4.511c-0.493,0-0.884,0.396-0.884,0.882v21.217c0,0.484,0.391,0.88,0.884,0.88
		c0.479,0,0.875-0.396,0.875-0.88V5.393C32,4.906,31.604,4.511,31.125,4.511z"/>
    </g>
  </g></svg>