<svg id="svg-source" height="0" version="1.1" 
  xmlns="http://www.w3.org/2000/svg" style="position:absolute; margin-left: -100%" 
  xmlns:xlink="http://www.w3.org/1999/xlink"><g xmlns="http://www.w3.org/2000/svg" id="play" >
    <g>
      <path d="M28.55,13.351L6.29,0.499c-2.268-1.307-4.568,0.089-4.568,2.64v25.703c0,1.865,1.131,3.16,2.752,3.16
		c0.598,0,1.207-0.17,1.811-0.521l22.271-12.855c1.094-0.638,1.723-1.602,1.723-2.642S29.649,13.982,28.55,13.351z M27.23,16.339
		L4.971,29.193c-0.283,0.163-0.452,0.176-0.497,0.176l-0.006,0.016c-0.031-0.034-0.113-0.191-0.113-0.543V3.139
		c0-0.353,0.082-0.51,0.126-0.528c0.038,0,0.207,0.013,0.496,0.176L27.23,15.642c0.308,0.166,0.396,0.323,0.415,0.332
		C27.626,16.015,27.538,16.169,27.23,16.339z"/>
    </g>
  </g></svg>