<svg id="svg-source" height="0" version="1.1" 
  xmlns="http://www.w3.org/2000/svg" style="position:absolute; margin-left: -100%" 
  xmlns:xlink="http://www.w3.org/1999/xlink"><g xmlns="http://www.w3.org/2000/svg" id="presentation" >
    <g>
      <path d="M31.998,1.538C31.998,0.692,31.311,0,30.462,0H1.54C0.691,0,0.002,0.692,0.002,1.538
		c0,0.645,0.399,1.193,0.965,1.422v20.757c0,0.316,0.257,0.574,0.573,0.574h13.89v2.891l-9.28,3.71
		c-0.296,0.119-0.438,0.453-0.319,0.748C5.92,31.863,6.134,32,6.361,32c0.071,0,0.145-0.014,0.213-0.041l9.431-3.77l9.426,3.77
		C25.502,31.986,25.574,32,25.645,32c0.229,0,0.443-0.137,0.533-0.36c0.117-0.295-0.026-0.628-0.318-0.748l-9.281-3.71v-2.891
		h13.884c0.317,0,0.572-0.258,0.572-0.574V2.959C31.6,2.731,31.998,2.183,31.998,1.538z M1.54,1.148h28.922
		c0.214,0,0.391,0.175,0.391,0.389c0,0.216-0.177,0.392-0.391,0.392H1.54c-0.215,0-0.39-0.175-0.39-0.392
		C1.15,1.324,1.325,1.148,1.54,1.148z M29.888,23.142H2.114V3.076h27.773V23.142z"/>
      <path d="M5.396,20.434c0.17,0,0.335-0.075,0.449-0.216l6.723-8.388l5.654,4.614l7.869-9.724
		c0.198-0.247,0.16-0.607-0.087-0.808c-0.246-0.197-0.607-0.162-0.807,0.085l-7.143,8.827l-5.658-4.617L4.949,19.5
		c-0.198,0.246-0.158,0.607,0.089,0.808C5.143,20.393,5.271,20.434,5.396,20.434z"/>
    </g>
  </g></svg>