<svg id="svg-source" height="0" version="1.1" 
  xmlns="http://www.w3.org/2000/svg" style="position:absolute; margin-left: -100%" 
  xmlns:xlink="http://www.w3.org/1999/xlink"><g xmlns="http://www.w3.org/2000/svg" id="rewind" >
    <g>
      <path d="M31.016,14.482L18.3,7.139c-1.304-0.743-2.617,0.047-2.617,1.509v6.153
		c-0.115-0.105-0.198-0.229-0.346-0.318L2.614,7.139C1.314,6.396,0,7.186,0,8.647v14.691c0,1.066,0.646,1.806,1.576,1.806
		c0.341,0,0.689-0.097,1.038-0.298l12.723-7.351c0.147-0.085,0.23-0.212,0.346-0.318v6.161c0,1.066,0.646,1.806,1.572,1.806
		c0.345,0,0.693-0.097,1.045-0.298l12.716-7.351C31.645,17.135,32,16.588,32,15.989C32,15.395,31.645,14.85,31.016,14.482z
		 M14.579,16.192L1.86,23.539c-0.162,0.094-0.259,0.102-0.284,0.102l-0.003,0.009c-0.019-0.021-0.065-0.11-0.065-0.311V8.647
		c0-0.201,0.047-0.291,0.068-0.302c0.025,0,0.122,0.008,0.284,0.101l12.719,7.341c0.173,0.1,0.227,0.189,0.237,0.197
		C14.806,16.008,14.752,16.096,14.579,16.192z M30.262,16.192l-12.72,7.347c-0.165,0.094-0.258,0.102-0.287,0.102l-0.004,0.009
		c-0.014-0.021-0.061-0.11-0.061-0.311V8.647c0-0.201,0.047-0.291,0.064-0.302c0.029,0,0.122,0.008,0.287,0.101l12.72,7.341
		c0.173,0.1,0.227,0.189,0.233,0.197C30.488,16.008,30.435,16.096,30.262,16.192z"/>
    </g>
  </g></svg>