<svg id="svg-source" height="0" version="1.1" 
  xmlns="http://www.w3.org/2000/svg" style="position:absolute; margin-left: -100%" 
  xmlns:xlink="http://www.w3.org/1999/xlink"><g xmlns="http://www.w3.org/2000/svg" id="ribbon" >
    <g>
      <path d="M25.644,0H6.359C6.041,0,5.784,0.257,5.784,0.575v30.85c0,0.232,0.14,0.44,0.353,0.528
		c0.219,0.097,0.463,0.041,0.63-0.123l1.921-1.923c0.005-0.001,0.005-0.004,0.008-0.007L16,22.598l9.236,9.231
		c0.109,0.109,0.254,0.168,0.407,0.168c0.071,0,0.146-0.014,0.22-0.045c0.213-0.088,0.353-0.296,0.353-0.528V0.575
		C26.216,0.257,25.959,0,25.644,0z M25.069,30.037l-0.782-0.779v-3.619c0-0.315-0.258-0.573-0.572-0.573
		c-0.32,0-0.574,0.258-0.574,0.573v2.472l-6.736-6.729c-0.111-0.111-0.257-0.168-0.404-0.168c-0.145,0-0.293,0.057-0.405,0.168
		L8.862,28.11v-2.467c0-0.317-0.26-0.574-0.575-0.574c-0.316,0-0.574,0.257-0.574,0.574v3.614l-0.779,0.779V1.149h18.136V30.037z"/>
      <path d="M8.287,6.934c0.315,0,0.575-0.259,0.575-0.575V2.503c0-0.317-0.26-0.575-0.575-0.575
		c-0.316,0-0.574,0.257-0.574,0.575v3.856C7.713,6.675,7.971,6.934,8.287,6.934z"/>
      <path d="M8.287,14.645c0.315,0,0.575-0.257,0.575-0.571v-3.858c0-0.314-0.26-0.573-0.575-0.573
		c-0.316,0-0.574,0.258-0.574,0.573v3.858C7.713,14.388,7.971,14.645,8.287,14.645z"/>
      <path d="M8.287,22.36c0.315,0,0.575-0.257,0.575-0.574v-3.856c0-0.315-0.26-0.574-0.575-0.574
		c-0.316,0-0.574,0.259-0.574,0.574v3.856C7.713,22.103,7.971,22.36,8.287,22.36z"/>
      <path d="M23.715,6.934c0.314,0,0.572-0.259,0.572-0.575V2.503c0-0.317-0.258-0.575-0.572-0.575
		c-0.32,0-0.574,0.257-0.574,0.575v3.856C23.141,6.675,23.395,6.934,23.715,6.934z"/>
      <path d="M23.715,14.645c0.314,0,0.572-0.257,0.572-0.571v-3.858c0-0.314-0.258-0.573-0.572-0.573
		c-0.32,0-0.574,0.258-0.574,0.573v3.858C23.141,14.388,23.395,14.645,23.715,14.645z"/>
      <path d="M23.715,22.356c0.314,0,0.572-0.259,0.572-0.574v-3.856c0-0.317-0.258-0.574-0.572-0.574
		c-0.32,0-0.574,0.257-0.574,0.574v3.856C23.141,22.097,23.395,22.356,23.715,22.356z"/>
    </g>
  </g></svg>