<svg id="svg-source" height="0" version="1.1" 
  xmlns="http://www.w3.org/2000/svg" style="position:absolute; margin-left: -100%" 
  xmlns:xlink="http://www.w3.org/1999/xlink"><g xmlns="http://www.w3.org/2000/svg" id="right-arrow" >
    <g>
      <path d="M16.291,0.005l-0.298-0.001c-8.662,0-15.832,7.046-15.99,15.705c-0.08,4.272,1.513,8.317,4.479,11.395
		c2.968,3.076,6.954,4.815,11.227,4.891l0.299,0.003h0.003c8.655,0,15.823-7.046,15.987-15.704
		C32.153,7.469,25.108,0.162,16.291,0.005z M16.007,30.847l-0.279-0.001c-3.964-0.071-7.666-1.682-10.42-4.537
		c-2.753-2.855-4.23-6.613-4.159-10.577C1.297,7.694,7.955,1.154,15.993,1.154l0.276,0.001c8.183,0.146,14.724,6.927,14.579,15.112
		C30.703,24.309,24.042,30.847,16.007,30.847z"/>
      <path d="M23.984,15.738l-7.433-7.712c-0.223-0.229-0.58-0.233-0.812-0.015c-0.225,0.219-0.236,0.582-0.018,0.811
		l6.479,6.717l-13.769-0.25c-0.003,0-0.006,0-0.009,0c-0.314,0-0.571,0.252-0.574,0.562c-0.006,0.319,0.246,0.58,0.563,0.588
		l13.761,0.247l-6.711,6.479c-0.227,0.219-0.232,0.583-0.014,0.812c0.112,0.114,0.264,0.174,0.414,0.174
		c0.145,0,0.287-0.052,0.398-0.161l8.123-7.837l-0.396-0.413C23.984,15.74,23.984,15.738,23.984,15.738z"/>
    </g>
  </g></svg>