<svg id="svg-source" height="0" version="1.1" 
  xmlns="http://www.w3.org/2000/svg" style="position:absolute; margin-left: -100%" 
  xmlns:xlink="http://www.w3.org/1999/xlink"><g xmlns="http://www.w3.org/2000/svg" id="road-turn" >
    <g>
      <path d="M20.334,10.479c-0.178-0.104-0.397-0.104-0.575,0c-0.178,0.104-0.288,0.294-0.288,0.498v2.515
		c-3.238,0.13-6.243,1.39-8.688,3.506V9.807h2.51c0.205,0,0.395-0.109,0.497-0.288c0.103-0.176,0.103-0.396,0-0.572L8.775,0.266
		c-0.203-0.354-0.788-0.354-0.993,0L2.774,8.946c-0.103,0.176-0.103,0.396,0,0.572c0.102,0.179,0.291,0.288,0.497,0.288h2.503
		v21.615C5.774,31.741,6.031,32,6.349,32h3.86c0.317,0,0.573-0.259,0.573-0.578v-3.888c0-4.914,3.847-8.947,8.688-9.245v2.71
		c0,0.204,0.11,0.396,0.288,0.497c0.177,0.105,0.396,0.105,0.575,0l8.682-5.013c0.178-0.102,0.287-0.292,0.287-0.497
		c0-0.207-0.109-0.395-0.287-0.5L20.334,10.479z M10.209,8.657c-0.317,0-0.575,0.259-0.575,0.575v9.01v9.292v3.314H6.923V9.232
		c0-0.316-0.257-0.575-0.574-0.575H4.266l4.011-6.955l4.019,6.955H10.209z M20.62,20.004v-2.308c0-0.316-0.256-0.575-0.575-0.575
		c-4.03,0-7.532,2.304-9.263,5.66v-4.302c2.483-2.483,5.764-3.849,9.263-3.849c0.318,0,0.575-0.259,0.575-0.575v-2.084l6.96,4.015
		L20.62,20.004z"/>
    </g>
  </g></svg>