<svg id="svg-source" height="0" version="1.1" 
  xmlns="http://www.w3.org/2000/svg" style="position:absolute; margin-left: -100%" 
  xmlns:xlink="http://www.w3.org/1999/xlink"><g xmlns="http://www.w3.org/2000/svg" id="rotate" >
    <g>
      <path d="M30.328,11.192c-0.125-0.373-0.521-0.576-0.898-0.45c-0.373,0.125-0.576,0.527-0.451,0.898
		c1.672,5,0.424,10.393-3.256,14.078c-5.368,5.356-14.088,5.365-19.442,0c-0.153-0.152-0.247-0.313-0.386-0.475l4.951,0.002
		c0.389,0,0.711-0.318,0.711-0.711c0-0.391-0.322-0.711-0.711-0.711l-6.182-0.002c-0.248-0.206-0.584-0.27-0.852-0.074
		c-0.023,0.02-0.023,0.051-0.043,0.074H3.376v7.469C3.376,31.682,3.697,32,4.088,32c0.389,0,0.711-0.318,0.711-0.709v-5.1
		c0.16,0.176,0.302,0.361,0.475,0.534C8.229,29.679,12.112,31.16,16,31.16c3.88,0,7.768-1.481,10.729-4.435
		C30.789,22.654,32.168,16.703,30.328,11.192z"/>
      <path d="M6.283,6.279c5.361-5.36,14.078-5.36,19.439,0c0.156,0.156,0.247,0.314,0.387,0.479l-4.951-0.005
		c-0.391,0-0.709,0.321-0.709,0.714c0,0.389,0.318,0.711,0.709,0.711l6.188,0.002c0.24,0.199,0.572,0.268,0.84,0.074
		c0.024-0.02,0.024-0.055,0.049-0.074h0.389V0.711C28.623,0.317,28.309,0,27.912,0C27.521,0,27.2,0.317,27.2,0.711v5.098
		c-0.156-0.18-0.298-0.359-0.472-0.535c-5.916-5.916-15.537-5.91-21.448,0C1.211,9.34-0.169,15.295,1.675,20.811
		c0.102,0.296,0.376,0.484,0.675,0.484c0.074,0,0.148-0.012,0.223-0.035c0.377-0.125,0.576-0.529,0.451-0.902
		C1.35,15.355,2.6,9.964,6.283,6.279z"/>
    </g>
  </g></svg>