<svg id="svg-source" height="0" version="1.1" 
  xmlns="http://www.w3.org/2000/svg" style="position:absolute; margin-left: -100%" 
  xmlns:xlink="http://www.w3.org/1999/xlink"><g xmlns="http://www.w3.org/2000/svg" id="search" >
    <g>
      <path d="M21.789,20.972c-0.091-0.087-0.203-0.11-0.318-0.132c2.149-2.305,3.354-5.265,3.354-8.43
		c0.003-3.312-1.29-6.43-3.633-8.772C18.847,1.291,15.729,0,12.415,0C9.1,0,5.983,1.291,3.636,3.638
		C1.293,5.98,0.001,9.099,0.003,12.413c0,3.315,1.293,6.433,3.639,8.776c2.342,2.344,5.458,3.635,8.773,3.635
		c3.162,0,6.124-1.206,8.426-3.352c0.021,0.113,0.044,0.228,0.129,0.316L31.015,31.83c0.11,0.111,0.259,0.17,0.407,0.17
		s0.294-0.059,0.407-0.17c0.225-0.225,0.225-0.59,0-0.814L21.789,20.972z M20.373,20.374c-2.126,2.124-4.952,3.297-7.958,3.297
		c-3.005,0-5.832-1.173-7.96-3.297c-2.126-2.127-3.297-4.952-3.297-7.961C1.155,9.406,2.327,6.58,4.452,4.453
		c2.129-2.127,4.958-3.3,7.963-3.3c3.006,0,5.832,1.173,7.961,3.3c2.125,2.127,3.297,4.952,3.297,7.957
		C23.673,15.417,22.499,18.244,20.373,20.374z"/>
      <path d="M3.044,12.416h1.152c0-4.53,3.69-8.219,8.219-8.219V3.043C7.249,3.043,3.044,7.248,3.044,12.416z"/>
    </g>
  </g></svg>