<svg id="svg-source" height="0" version="1.1" 
  xmlns="http://www.w3.org/2000/svg" style="position:absolute; margin-left: -100%" 
  xmlns:xlink="http://www.w3.org/1999/xlink"><g xmlns="http://www.w3.org/2000/svg" id="search1" >
    <g>
      <path d="M12.714,5.014c-2.057,0-3.987,0.803-5.441,2.256c-1.455,1.451-2.255,3.386-2.255,5.44
		c0,2.057,0.8,3.989,2.255,5.442c1.452,1.457,3.385,2.258,5.441,2.258c2.055,0,3.986-0.801,5.44-2.258c2.999-3,3.001-7.881,0-10.883
		C16.702,5.816,14.771,5.014,12.714,5.014z M17.171,17.169c-1.19,1.194-2.775,1.85-4.457,1.85c-1.686,0-3.27-0.655-4.458-1.85
		c-1.192-1.19-1.851-2.773-1.851-4.459c0-1.685,0.658-3.265,1.851-4.458c1.188-1.193,2.772-1.848,4.458-1.848
		s3.268,0.654,4.459,1.848C19.63,10.711,19.63,14.712,17.171,17.169z"/>
      <path d="M23.581,19.295c3.015-4.965,2.267-11.425-1.878-15.569C19.3,1.323,16.108,0,12.714,0
		S6.127,1.323,3.726,3.726C1.323,6.125,0.004,9.317,0.004,12.71c0,3.397,1.323,6.594,3.726,8.991
		c2.394,2.396,5.583,3.717,8.973,3.717c2.341,0,4.609-0.634,6.595-1.841l7.53,7.536C27.4,31.684,28.159,32,28.97,32
		c0.809,0,1.57-0.316,2.14-0.887c1.183-1.185,1.183-3.104,0-4.284L23.581,19.295z M30.128,30.129c-0.619,0.617-1.699,0.617-2.318,0
		l-8.329-8.332l-0.474,0.318c-1.865,1.252-4.048,1.916-6.305,1.916c-3.019,0-5.856-1.18-7.992-3.314
		c-2.139-2.137-3.315-4.979-3.315-8.007c0-3.021,1.176-5.863,3.313-8.003C6.849,2.57,9.69,1.388,12.714,1.388
		c3.024,0,5.866,1.183,8.007,3.319c3.811,3.811,4.397,9.822,1.396,14.295l-0.319,0.474l8.331,8.335
		C30.767,28.448,30.767,29.49,30.128,30.129z"/>
    </g>
  </g></svg>