<svg id="svg-source" height="0" version="1.1" 
  xmlns="http://www.w3.org/2000/svg" style="position:absolute; margin-left: -100%" 
  xmlns:xlink="http://www.w3.org/1999/xlink"><g xmlns="http://www.w3.org/2000/svg" id="sound" >
    <g>
      <path d="M27.747,0.064L12.805,6.043H3.919c-0.496,0-0.899,0.405-0.899,0.9v18.114c0,0.497,0.403,0.899,0.899,0.899
		h8.886l14.941,5.979C27.854,31.979,27.969,32,28.082,32c0.177,0,0.352-0.056,0.503-0.154c0.247-0.172,0.396-0.448,0.396-0.746V0.9
		c0-0.298-0.148-0.574-0.396-0.743S28.022-0.047,27.747,0.064z M4.819,7.843h7.264v16.315H4.819V7.843z M27.181,29.771
		l-13.302-5.318V7.55l13.302-5.32V29.771z"/>
    </g>
  </g></svg>