<svg id="svg-source" height="0" version="1.1" 
  xmlns="http://www.w3.org/2000/svg" style="position:absolute; margin-left: -100%" 
  xmlns:xlink="http://www.w3.org/1999/xlink"><g xmlns="http://www.w3.org/2000/svg" id="tag" >
    <g>
      <path d="M16.001,0C10.448,0,5.933,4.517,5.933,10.067c0,4.068,4.008,11.777,7.373,17.527
		c1.249,2.135,2.151,3.557,2.151,3.557L16.001,32l0.541-0.849c0,0,0.904-1.422,2.152-3.557c3.363-5.75,7.374-13.459,7.374-17.527
		C26.068,4.517,21.551,0,16.001,0z M17.584,26.945c-0.649,1.112-1.204,2.026-1.583,2.644c-0.382-0.617-0.937-1.531-1.585-2.644
		c-2.69-4.598-7.199-12.899-7.199-16.878c0-4.842,3.939-8.781,8.784-8.781c4.842,0,8.781,3.939,8.781,8.781
		C24.782,14.046,20.272,22.348,17.584,26.945z"/>
      <path d="M16.001,3.771c-3.473,0-6.298,2.825-6.298,6.297c0,3.475,2.825,6.297,6.298,6.297
		c3.472,0,6.296-2.822,6.296-6.297C22.297,6.596,19.473,3.771,16.001,3.771z M16.001,15.079c-2.765,0-5.013-2.246-5.013-5.012
		c0-2.762,2.248-5.01,5.013-5.01c2.762,0,5.011,2.248,5.011,5.01C21.012,12.833,18.763,15.079,16.001,15.079z"/>
    </g>
  </g></svg>