<svg id="svg-source" height="0" version="1.1" 
  xmlns="http://www.w3.org/2000/svg" style="position:absolute; margin-left: -100%" 
  xmlns:xlink="http://www.w3.org/1999/xlink"><g xmlns="http://www.w3.org/2000/svg" id="tag1" >
    <g>
      <path d="M16,0c-5.06,0-9.176,4.117-9.176,9.176c0,3.539,3.322,10.081,6.292,15.227
		c-3.371,0.541-5.589,1.961-5.589,3.675C7.525,30.313,11.169,32,16,32c4.831,0,8.473-1.687,8.473-3.923
		c0-1.714-2.218-3.134-5.587-3.675c2.967-5.148,6.291-11.693,6.291-15.227C25.176,4.117,21.059,0,16,0z M16,1.173
		c4.415,0,8.003,3.588,8.003,8.003c0,3.623-4.106,11.192-6.557,15.387c-0.591,1.01-1.099,1.842-1.446,2.408
		c-0.346-0.566-0.853-1.398-1.444-2.408c-2.451-4.191-6.562-11.76-6.562-15.387C7.994,4.761,11.585,1.173,16,1.173z M23.301,28.077
		c0,1.304-2.999,2.752-7.302,2.752c-4.304,0-7.304-1.448-7.304-2.752c0-0.972,1.879-2.181,5.042-2.594
		c0.152,0.26,0.28,0.471,0.418,0.702c0.075,0.127,0.155,0.258,0.226,0.379c0.175,0.287,0.322,0.527,0.46,0.756
		c0.044,0.071,0.092,0.15,0.132,0.215c0.151,0.248,0.268,0.436,0.357,0.581c0.009,0.011,0.022,0.035,0.032,0.049
		c0.089,0.144,0.142,0.225,0.142,0.225l0.493,0.779l0.497-0.779c0,0,0.047-0.073,0.134-0.212c0.02-0.032,0.049-0.081,0.075-0.123
		c0.088-0.137,0.19-0.302,0.327-0.527c0.032-0.049,0.068-0.11,0.102-0.162c0.145-0.241,0.306-0.503,0.492-0.812
		c0.063-0.106,0.136-0.229,0.204-0.344c0.142-0.237,0.276-0.459,0.433-0.726C21.425,25.896,23.301,27.105,23.301,28.077z"/>
      <path d="M21.741,9.176c0-3.164-2.577-5.738-5.742-5.738s-5.74,2.574-5.74,5.738c0,3.168,2.575,5.745,5.74,5.745
		S21.741,12.344,21.741,9.176z M11.431,9.176c0-2.52,2.05-4.567,4.568-4.567c2.52,0,4.569,2.048,4.569,4.567
		c0,2.521-2.05,4.572-4.569,4.572C13.481,13.748,11.431,11.697,11.431,9.176z"/>
    </g>
  </g></svg>