<svg id="svg-source" height="0" version="1.1" 
  xmlns="http://www.w3.org/2000/svg" style="position:absolute; margin-left: -100%" 
  xmlns:xlink="http://www.w3.org/1999/xlink"><g xmlns="http://www.w3.org/2000/svg" id="type" >
    <g>
      <path d="M4.523,32h22.954V0H4.523V32z M5.666,1.145h20.67v29.712H5.666V1.145z"/>
      <path d="M21.759,7.747c-0.316,0-0.572,0.258-0.572,0.571v10.463l-4.686-8.81c-0.028-0.053-0.088-0.065-0.129-0.104
		c-0.044-0.045-0.061-0.11-0.12-0.141c-0.017-0.008-0.035,0.004-0.054-0.001c-0.071-0.028-0.14-0.017-0.217-0.015
		c-0.072,0.001-0.135-0.009-0.199,0.02c-0.018,0.007-0.037-0.005-0.053,0.003c-0.061,0.032-0.074,0.097-0.117,0.142
		c-0.04,0.041-0.099,0.056-0.126,0.109l-5.758,11.52c-0.141,0.282-0.026,0.626,0.256,0.768c0.083,0.038,0.171,0.06,0.255,0.06
		c0.21,0,0.411-0.115,0.512-0.317l2.72-5.441h5.247l2.469,4.641v3.17c0,0.314,0.256,0.572,0.572,0.572
		c0.315,0,0.57-0.258,0.57-0.572V8.318C22.33,8.005,22.075,7.747,21.759,7.747z M14.043,15.429l1.97-3.942l2.095,3.942H14.043z"/>
    </g>
  </g></svg>