<svg id="svg-source" height="0" version="1.1" 
  xmlns="http://www.w3.org/2000/svg" style="position:absolute; margin-left: -100%" 
  xmlns:xlink="http://www.w3.org/1999/xlink"><g xmlns="http://www.w3.org/2000/svg" id="upload" >
    <g>
      <path d="M30.472,20.917c-0.004-0.025,0.017-0.051,0.008-0.08L25.235,3.849c-0.067-0.217-0.269-0.365-0.497-0.365
		h-0.001l-1.762,0.005c-0.287,0-0.52,0.234-0.519,0.521c0.001,0.287,0.234,0.519,0.521,0.519h0.001l1.375-0.003l4.924,15.947h-8.289
		c-0.144,0-0.279,0.059-0.378,0.163l-4.619,4.854l-4.865-4.864c-0.099-0.098-0.23-0.153-0.368-0.153H2.722L7.644,4.525l1.379,0.003
		h0.001c0.287,0,0.52-0.232,0.521-0.519c0.001-0.288-0.232-0.521-0.52-0.521L7.259,3.483l0,0c-0.229,0-0.43,0.148-0.496,0.368
		l-5.242,16.99c-0.01,0.026,0.012,0.051,0.007,0.079c-0.005,0.026-0.03,0.045-0.03,0.073v10.486c0,0.287,0.231,0.521,0.52,0.521
		h27.966c0.288,0,0.521-0.234,0.521-0.521V20.993C30.503,20.965,30.477,20.946,30.472,20.917z M29.462,30.959H2.537v-9.446h8.004
		l5.09,5.089c0.099,0.098,0.229,0.152,0.368,0.152c0.099,0.004,0.279-0.061,0.377-0.162l4.836-5.079h8.25V30.959z"/>
      <path d="M12.873,4.383l2.605-2.606v19.221c0,0.287,0.233,0.521,0.521,0.521c0.288,0,0.521-0.234,0.521-0.521V1.776
		l2.607,2.606c0.102,0.102,0.234,0.152,0.367,0.152c0.134,0,0.267-0.05,0.369-0.152c0.202-0.204,0.202-0.534,0-0.737l-3.497-3.494
		c-0.202-0.204-0.532-0.204-0.736,0l-3.493,3.494c-0.203,0.203-0.203,0.533,0,0.737C12.341,4.585,12.67,4.585,12.873,4.383z"/>
    </g>
  </g></svg>