<svg id="svg-source" height="0" version="1.1" 
  xmlns="http://www.w3.org/2000/svg" style="position:absolute; margin-left: -100%" 
  xmlns:xlink="http://www.w3.org/1999/xlink"><g xmlns="http://www.w3.org/2000/svg" id="volume" >
    <g>
      <path d="M27.011,0.116c-0.28-0.158-0.627-0.158-0.906,0.018L11.224,9.064H5.43c-0.496,0-0.897,0.402-0.897,0.897
		v12.079c0,0.494,0.401,0.899,0.897,0.899h5.791l14.884,8.931C26.249,31.957,26.408,32,26.567,32c0.152,0,0.307-0.039,0.443-0.116
		c0.281-0.162,0.457-0.462,0.457-0.784V0.9C27.468,0.579,27.292,0.279,27.011,0.116z M6.33,10.859h4.243v10.283H6.33V10.859z
		 M25.669,29.513l-13.298-7.979V10.472l13.298-7.983V29.513z"/>
    </g>
  </g></svg>