<svg id="svg-source" height="0" version="1.1" 
  xmlns="http://www.w3.org/2000/svg" style="position:absolute; margin-left: -100%" 
  xmlns:xlink="http://www.w3.org/1999/xlink"><g xmlns="http://www.w3.org/2000/svg" id="volume-up" >
    <g>
      <path d="M22.465,0.127c-0.282-0.158-0.628-0.158-0.906,0.018L6.688,9.069H0.899C0.402,9.069,0,9.472,0,9.966v12.07
		c0,0.495,0.402,0.899,0.899,0.899h5.786l14.875,8.925c0.141,0.086,0.303,0.129,0.461,0.129c0.152,0,0.307-0.039,0.443-0.116
		c0.283-0.162,0.457-0.462,0.457-0.783V0.911C22.922,0.59,22.748,0.29,22.465,0.127z M1.797,10.863h4.242V21.14H1.797V10.863z
		 M21.123,29.503L7.835,21.529V10.476l13.288-7.979V29.503z"/>
      <path d="M27.82,10.242c1.541,1.54,2.391,3.585,2.391,5.763c0,2.18-0.852,4.225-2.394,5.771
		c-0.351,0.351-0.351,0.918,0,1.268c0.175,0.178,0.405,0.266,0.634,0.266c0.23,0,0.461-0.088,0.637-0.266
		c3.881-3.88,3.883-10.194,0.004-14.077L27.82,10.242z"/>
    </g>
  </g></svg>