<svg id="svg-source" height="0" version="1.1" 
  xmlns="http://www.w3.org/2000/svg" style="position:absolute; margin-left: -100%" 
  xmlns:xlink="http://www.w3.org/1999/xlink"><g xmlns="http://www.w3.org/2000/svg" id="volume-loud" >
    <g>
      <path d="M18.036,4.377L7.138,8.737H0.656C0.294,8.737,0,9.033,0,9.395v13.212c0,0.362,0.294,0.656,0.656,0.656
		h6.481l10.898,4.36c0.077,0.031,0.161,0.047,0.243,0.047c0.129,0,0.258-0.04,0.368-0.112c0.181-0.125,0.289-0.326,0.289-0.544
		V4.986c0-0.217-0.108-0.418-0.289-0.542S18.237,4.296,18.036,4.377z M1.312,10.051H6.61V21.95H1.312V10.051z M17.622,26.045
		l-9.701-3.879V9.836l9.701-3.881V26.045z"/>
      <path d="M31.344,15.346h-8.66c-0.362,0-0.655,0.293-0.655,0.654s0.293,0.655,0.655,0.655h8.66
		C31.706,16.655,32,16.361,32,16S31.706,15.346,31.344,15.346z"/>
      <path d="M21.396,13.54c0.168,0,0.335-0.063,0.464-0.192l6.123-6.121c0.255-0.257,0.255-0.672,0-0.929
		c-0.256-0.257-0.672-0.257-0.928,0l-6.123,6.124c-0.255,0.256-0.255,0.67,0,0.926C21.061,13.477,21.229,13.54,21.396,13.54z"/>
      <path d="M21.86,18.652c-0.256-0.255-0.671-0.255-0.927,0c-0.255,0.258-0.255,0.674,0,0.929l6.123,6.123
		c0.128,0.128,0.296,0.192,0.463,0.192s0.336-0.064,0.464-0.192c0.255-0.256,0.255-0.671,0-0.927L21.86,18.652z"/>
    </g>
  </g></svg>