<svg id="svg-source" height="0" version="1.1" 
  xmlns="http://www.w3.org/2000/svg" style="position:absolute; margin-left: -100%" 
  xmlns:xlink="http://www.w3.org/1999/xlink"><g xmlns="http://www.w3.org/2000/svg" id="volume-mute" >
    <g>
      <path d="M31.396,15.465H0.604C0.268,15.465,0,15.736,0,16.069c0,0.332,0.268,0.603,0.604,0.603h30.792
		c0.335,0,0.604-0.271,0.604-0.603C32,15.736,31.73,15.465,31.396,15.465z"/>
      <path d="M8.899,14.795c0.334,0,0.603-0.271,0.603-0.604v-1.644h2.852v1.644c0,0.333,0.27,0.604,0.604,0.604
		s0.604-0.271,0.604-0.604v-1.904l8.933-5.362v7.267c0,0.333,0.271,0.604,0.605,0.604s0.602-0.271,0.602-0.604V5.856
		c0-0.216-0.117-0.417-0.307-0.526c-0.188-0.106-0.42-0.106-0.609,0.012l-9.995,5.999H8.899c-0.333,0-0.604,0.271-0.604,0.604v2.246
		C8.295,14.523,8.566,14.795,8.899,14.795z"/>
      <path d="M23.1,17.211c-0.334,0-0.605,0.271-0.605,0.604v7.262l-8.933-5.359v-1.902c0-0.334-0.271-0.604-0.604-0.604
		s-0.604,0.271-0.604,0.604v1.641H9.502v-1.641c0-0.334-0.269-0.604-0.603-0.604c-0.333,0-0.604,0.271-0.604,0.604v2.245
		c0,0.333,0.271,0.604,0.604,0.604h3.89l9.999,5.996c0.095,0.058,0.202,0.087,0.312,0.087c0.102,0,0.203-0.026,0.295-0.078
		c0.189-0.109,0.307-0.311,0.307-0.526v-8.328C23.701,17.481,23.434,17.211,23.1,17.211z"/>
    </g>
  </g></svg>