<svg id="svg-source" height="0" version="1.1" 
  xmlns="http://www.w3.org/2000/svg" style="position:absolute; margin-left: -100%" 
  xmlns:xlink="http://www.w3.org/1999/xlink"><g xmlns="http://www.w3.org/2000/svg" id="window" >
    <g>
      <path d="M4.29,5.898c0.812,0,1.472-0.659,1.472-1.471c0-0.81-0.659-1.467-1.472-1.467
		c-0.81,0-1.467,0.657-1.467,1.467C2.823,5.239,3.48,5.898,4.29,5.898z M4.29,4.109c0.183,0,0.325,0.139,0.325,0.318
		c0,0.36-0.643,0.368-0.643,0C3.973,4.253,4.115,4.109,4.29,4.109z"/>
      <path d="M31.426,0H0.572C0.26,0,0,0.259,0,0.574v30.852C0,31.742,0.26,32,0.572,32h30.854
		C31.74,32,32,31.742,32,31.425V0.574C32,0.259,31.74,0,31.426,0z M30.851,1.149V7.71H1.146V1.149H30.851z M1.146,30.852V8.858
		h29.704v21.994H1.146z"/>
      <path d="M15.951,5.943c0.834,0,1.51-0.68,1.51-1.516c0-0.834-0.676-1.512-1.51-1.512
		c-0.835,0-1.516,0.678-1.516,1.512C14.436,5.263,15.116,5.943,15.951,5.943z M15.951,4.063c0.202,0,0.363,0.165,0.363,0.364
		c0,0.405-0.73,0.401-0.73,0C15.584,4.228,15.751,4.063,15.951,4.063z"/>
      <path d="M10.102,5.943c0.834,0,1.51-0.68,1.51-1.516c0-0.834-0.676-1.512-1.51-1.512
		c-0.838,0-1.516,0.678-1.516,1.512C8.586,5.263,9.264,5.943,10.102,5.943z M10.102,4.063c0.199,0,0.363,0.165,0.363,0.364
		c0,0.405-0.733,0.401-0.733,0C9.731,4.228,9.898,4.063,10.102,4.063z"/>
    </g>
  </g></svg>