<svg id="svg-source" height="0" version="1.1" 
  xmlns="http://www.w3.org/2000/svg" style="position:absolute; margin-left: -100%" 
  xmlns:xlink="http://www.w3.org/1999/xlink"><g xmlns="http://www.w3.org/2000/svg" id="address-book-2">
    <path id="address-book-2" d="M28,32H8c-1.104,0-2-0.894-2-2v-2c1.104,0,2-0.894,2-2v-2c0-1.104-0.896-2-2-2V10
	c1.104,0,2-0.896,2-2V6c0-1.104-0.896-2-2-2V2c0-1.104,0.896-2,2-2h20c1.106,0,2,0.896,2,2v28C30,31.106,29.106,32,28,32z M26,16
	c0-4.418-3.582-8-8-8s-8,3.582-8,8s3.582,8,8,8h1c0.552,0,1-0.448,1-1s-0.448-1-1-1h-1c-3.312,0-6-2.687-6-6s2.688-6,6-6
	c3.313,0,6,2.687,6,6v3c0,0.552-0.448,1-1,1s-1-0.448-1-1v-3c0-2.208-1.792-4-4-4s-4,1.792-4,4s1.792,4,4,4
	c0.75,0,1.444-0.218,2.042-0.578C20.25,20.876,21.488,22,23,22c1.656,0,3-1.344,3-3V16z M18,18c-1.106,0-2-0.894-2-2s0.894-2,2-2
	s2,0.894,2,2S19.106,18,18,18z M5,8H3C2.448,8,2,7.552,2,7s0.448-1,1-1h2c0.552,0,1,0.448,1,1S5.552,8,5,8z M2,2
	c0-1.104,0.896-2,2-2v4H2V2z M4,22H2V10h2V22z M3,24h2c0.552,0,1,0.448,1,1s-0.448,1-1,1H3c-0.552,0-1-0.448-1-1S2.448,24,3,24z
	 M4,32c-1.104,0-2-0.894-2-2v-2h2V32z"/>
  </g></svg>