<svg id="svg-source" height="0" version="1.1" 
  xmlns="http://www.w3.org/2000/svg" style="position:absolute; margin-left: -100%" 
  xmlns:xlink="http://www.w3.org/1999/xlink"><g xmlns="http://www.w3.org/2000/svg" id="address-book">
    <path id="address-book" d="M28,32H8c-1.106,0-2-0.894-2-2v-2c1.106,0,2-0.894,2-2v-2c0-1.104-0.894-2-2-2V10
	c1.106,0,2-0.894,2-2V6c0-1.104-0.894-2-2-2V2c0-1.104,0.894-2,2-2h20c1.106,0,2,0.896,2,2v28C30,31.106,29.106,32,28,32z M24,21
	c-0.308-1.834-1.542-3.376-3.112-4.244C21.574,16.04,22,15.07,22,14v-2c0-2.208-1.792-4-4-4s-4,1.792-4,4v2
	c0,1.07,0.426,2.04,1.112,2.756C13.542,17.624,12.308,19.166,12,21l0,0c0,1.656,1.344,3,3,3h6C22.656,24,24,22.656,24,21L24,21z
	 M5,8H3C2.448,8,2,7.552,2,7s0.448-1,1-1h2c0.552,0,1,0.448,1,1S5.552,8,5,8z M2,2c0-1.104,0.894-2,2-2v4H2V2z M4,22H2V10h2V22z
	 M3,24h2c0.552,0,1,0.448,1,1s-0.448,1-1,1H3c-0.552,0-1-0.448-1-1S2.448,24,3,24z M4,32c-1.106,0-2-0.894-2-2v-2h2V32z"/>
  </g></svg>