<svg id="svg-source" height="0" version="1.1" 
  xmlns="http://www.w3.org/2000/svg" style="position:absolute; margin-left: -100%" 
  xmlns:xlink="http://www.w3.org/1999/xlink"><g xmlns="http://www.w3.org/2000/svg" id="alarm-clock">
    <path id="alarm-clock" d="M31.019,10.522c-1.616-4.422-5.116-7.925-9.543-9.54C22.516,0.374,23.708,0,25,0
	c3.868,0,7,3.134,7,7C32,8.292,31.624,9.484,31.019,10.522z M30,16c0,3.808-1.532,7.254-4,9.778V26v4c0,1.106-0.894,2-2,2
	s-2-0.894-2-2v-1.398C20.176,29.472,18.156,30,16,30c-2.157,0-4.176-0.528-6-1.398V30c0,1.106-0.896,2-2,2s-2-0.894-2-2v-4v-0.222
	C3.532,23.254,2,19.808,2,16C2,8.269,8.269,2,16,2S30,8.269,30,16z M16,6C10.478,6,6,10.476,6,16s4.478,10,10,10
	c5.524,0,10-4.476,10-10S21.524,6,16,6z M20,18h-4c-1.104,0-2-0.894-2-2v-4c0-1.106,0.896-2,2-2c1.106,0,2,0.894,2,2v2h2
	c1.106,0,2,0.894,2,2S21.106,18,20,18z M0.981,10.522C0.374,9.484,0,8.292,0,7c0-3.866,3.134-7,7-7c1.292,0,2.484,0.374,3.522,0.982
	C6.098,2.598,2.598,6.101,0.981,10.522z"/>
  </g></svg>