<svg id="svg-source" height="0" version="1.1" 
  xmlns="http://www.w3.org/2000/svg" style="position:absolute; margin-left: -100%" 
  xmlns:xlink="http://www.w3.org/1999/xlink"><g xmlns="http://www.w3.org/2000/svg" id="align-horizontal-centers">
    <path id="align-horizontal-centers" d="M26,0H6C2.687,0,0,2.687,0,6v20c0,3.313,2.687,6,6,6h20c3.312,0,6-2.687,6-6
	V6C32,2.687,29.312,0,26,0z M28,26c0,1.106-0.894,2-2,2H6c-1.104,0-2-0.894-2-2V6c0-1.106,0.896-2,2-2h20c1.106,0,2,0.894,2,2V26z
	 M14,14h4c1.106,0,2-0.894,2-2v-2c0-1.106-0.894-2-2-2h-4c-1.104,0-2,0.894-2,2v2C12,13.106,12.896,14,14,14z M14,10h4v2h-4V10z
	 M22,18H10c-1.104,0-2,0.894-2,2v2c0,1.106,0.896,2,2,2h12c1.106,0,2-0.894,2-2v-2C24,18.894,23.106,18,22,18z M22,22H10v-2h12V22z"/>
  </g></svg>