<svg id="svg-source" height="0" version="1.1" 
  xmlns="http://www.w3.org/2000/svg" style="position:absolute; margin-left: -100%" 
  xmlns:xlink="http://www.w3.org/1999/xlink"><g xmlns="http://www.w3.org/2000/svg" id="align-vertical-centers">
    <path id="align-vertical-centers" d="M12,8h-2c-1.104,0-2,0.894-2,2v12c0,1.106,0.896,2,2,2h2c1.104,0,2-0.894,2-2
	V10C14,8.894,13.104,8,12,8z M12,22h-2V10h2V22z M26,0H6C2.687,0,0,2.687,0,6v20c0,3.313,2.687,6,6,6h20c3.312,0,6-2.687,6-6V6
	C32,2.687,29.312,0,26,0z M28,26c0,1.106-0.894,2-2,2H6c-1.104,0-2-0.894-2-2V6c0-1.106,0.896-2,2-2h20c1.106,0,2,0.894,2,2V26z
	 M22,12h-2c-1.106,0-2,0.896-2,2v4c0,1.106,0.894,2,2,2h2c1.106,0,2-0.894,2-2v-4C24,12.896,23.106,12,22,12z M22,18h-2v-4h2V18z"/>
  </g></svg>