<svg id="svg-source" height="0" version="1.1" 
  xmlns="http://www.w3.org/2000/svg" style="position:absolute; margin-left: -100%" 
  xmlns:xlink="http://www.w3.org/1999/xlink"><g xmlns="http://www.w3.org/2000/svg" id="anchor">
    <path id="anchor" d="M16,32C7.164,32,0,24.836,0,16l0,0v-4l8,8H4.706c1.436,4.036,4.966,7.067,9.294,7.798V18h-2
	c-1.104,0-2-0.894-2-2s0.896-2,2-2h2v-2.368C11.674,10.806,10,8.61,10,6c0-3.038,2.266-5.522,5.194-5.918
	C15.454,0.028,15.724,0,16,0s0.546,0.028,0.806,0.082C19.734,0.478,22,2.962,22,6c0,2.61-1.676,4.806-4,5.632V14h2
	c1.106,0,2,0.894,2,2s-0.894,2-2,2h-2v9.798c4.328-0.73,7.86-3.764,9.294-7.798H24l8-8v4l0,0C32,24.836,24.836,32,16,32z M16,4
	c-1.104,0-2,0.894-2,2s0.896,2,2,2s2-0.894,2-2S17.104,4,16,4z"/>
  </g></svg>