<svg id="svg-source" height="0" version="1.1" 
  xmlns="http://www.w3.org/2000/svg" style="position:absolute; margin-left: -100%" 
  xmlns:xlink="http://www.w3.org/1999/xlink"><g xmlns="http://www.w3.org/2000/svg" id="arrow-down">
    <path id="arrow-down" d="M32,16c0-8.836-7.164-16-16-16S0,7.164,0,16s7.164,16,16,16S32,24.836,32,16z M28,16
	c0,6.626-5.374,12-12,12S4,22.626,4,16S9.374,4,16,4S28,9.374,28,16z M17.414,23.416c-0.39,0.39-0.902,0.586-1.414,0.586
	s-1.024-0.196-1.414-0.586l-4-4c-0.571-0.572-0.742-1.435-0.434-2.182C10.46,16.488,11.192,16,12,16h2v-6c0-1.106,0.894-2,2-2
	s2,0.894,2,2v6h2c0.808,0,1.54,0.488,1.848,1.234c0.309,0.75,0.137,1.609-0.434,2.182L17.414,23.416z"/>
  </g></svg>