<svg id="svg-source" height="0" version="1.1" 
  xmlns="http://www.w3.org/2000/svg" style="position:absolute; margin-left: -100%" 
  xmlns:xlink="http://www.w3.org/1999/xlink"><g xmlns="http://www.w3.org/2000/svg" id="arrow-up">
    <path id="arrow-up" d="M16,0C7.164,0,0,7.164,0,16s7.164,16,16,16s16-7.164,16-16S24.836,0,16,0z M16,28
	C9.374,28,4,22.626,4,16S9.374,4,16,4s12,5.374,12,12S22.626,28,16,28z M17.414,8.584l4,4c0.57,0.572,0.742,1.432,0.434,2.182
	C21.54,15.512,20.808,16,20,16h-2v6c0,1.106-0.894,2-2,2s-2-0.894-2-2v-6h-2c-0.808,0-1.54-0.488-1.848-1.234
	c-0.309-0.747-0.138-1.609,0.434-2.182l4-4c0.39-0.39,0.902-0.586,1.414-0.586S17.024,8.194,17.414,8.584z"/>
  </g></svg>