<svg id="svg-source" height="0" version="1.1" 
  xmlns="http://www.w3.org/2000/svg" style="position:absolute; margin-left: -100%" 
  xmlns:xlink="http://www.w3.org/1999/xlink"><g xmlns="http://www.w3.org/2000/svg" id="arrow-right">
    <path id="arrow-right" d="M16,0C7.164,0,0,7.164,0,16s7.164,16,16,16s16-7.164,16-16S24.836,0,16,0z M16,4
	c6.626,0,12,5.374,12,12s-5.374,12-12,12S4,22.626,4,16S9.374,4,16,4z M23.416,14.586c0.39,0.39,0.586,0.902,0.586,1.414
	s-0.196,1.024-0.586,1.414l-4,4c-0.572,0.571-1.435,0.742-2.182,0.434C16.488,21.54,16,20.808,16,20v-2h-6c-1.106,0-2-0.894-2-2
	s0.894-2,2-2h6v-2c0-0.808,0.488-1.54,1.234-1.848c0.75-0.309,1.609-0.137,2.182,0.434L23.416,14.586z"/>
  </g></svg>