<svg id="svg-source" height="0" version="1.1" 
  xmlns="http://www.w3.org/2000/svg" style="position:absolute; margin-left: -100%" 
  xmlns:xlink="http://www.w3.org/1999/xlink"><g xmlns="http://www.w3.org/2000/svg" id="arrow-left">
    <path id="arrow-left" d="M0,16c0,8.836,7.164,16,16,16s16-7.164,16-16S24.836,0,16,0S0,7.164,0,16z M28,16
	c0,6.626-5.374,12-12,12S4,22.626,4,16S9.374,4,16,4S28,9.374,28,16z M8.584,14.586l4-4c0.572-0.57,1.432-0.742,2.182-0.434
	C15.512,10.46,16,11.192,16,12v2h6c1.106,0,2,0.894,2,2s-0.894,2-2,2h-6v2c0,0.808-0.488,1.54-1.234,1.848
	c-0.747,0.309-1.609,0.138-2.182-0.434l-4-4c-0.39-0.39-0.586-0.902-0.586-1.414S8.194,14.976,8.584,14.586z"/>
  </g></svg>