<svg id="svg-source" height="0" version="1.1" 
  xmlns="http://www.w3.org/2000/svg" style="position:absolute; margin-left: -100%" 
  xmlns:xlink="http://www.w3.org/1999/xlink"><g xmlns="http://www.w3.org/2000/svg" id="asterisk">
    <path id="asterisk" d="M28.392,13.464c-1.02,0.588-4.16,1.811-7.035,2.536c2.875,0.726,6.016,1.948,7.037,2.536
	c1.91,1.104,2.566,3.55,1.463,5.464c-1.104,1.914-3.551,2.567-5.463,1.464c-1.021-0.59-3.649-2.702-5.715-4.83
	C19.488,23.489,20,26.821,20,28c0,2.208-1.792,4-4,4s-4-1.792-4-4c0-1.179,0.512-4.511,1.324-7.366
	c-2.066,2.128-4.694,4.24-5.716,4.83c-1.914,1.104-4.36,0.45-5.465-1.464c-1.104-1.914-0.449-4.36,1.465-5.464
	c1.02-0.588,4.16-1.811,7.037-2.536c-2.877-0.726-6.018-1.948-7.037-2.536C1.694,12.36,1.04,9.914,2.144,8
	c1.104-1.914,3.551-2.567,5.465-1.464c1.021,0.59,3.649,2.702,5.716,4.83C12.512,8.511,12,5.179,12,4c0-2.208,1.792-4,4-4
	s4,1.792,4,4c0,1.179-0.512,4.511-1.324,7.366c2.066-2.128,4.696-4.24,5.716-4.83c1.912-1.104,4.36-0.45,5.463,1.464
	C30.96,9.914,30.304,12.36,28.392,13.464z"/>
  </g></svg>