<svg id="svg-source" height="0" version="1.1" 
  xmlns="http://www.w3.org/2000/svg" style="position:absolute; margin-left: -100%" 
  xmlns:xlink="http://www.w3.org/1999/xlink"><g xmlns="http://www.w3.org/2000/svg" id="attachment-2">
    <path id="attachment-2" d="M23,2c0-1.106,0.894-2,2-2s2,0.894,2,2v19c0,6.076-4.926,11-11,11S5,27.076,5,21V8
	c0-4.418,3.582-8,8-8s8,3.582,8,8v13c0,2.762-2.238,5-5,5s-5-2.238-5-5V8c0-1.104,0.894-2,2-2s2,0.896,2,2v13c0,0.552,0.448,1,1,1
	s1-0.448,1-1V8c0-2.208-1.792-4-4-4S9,5.792,9,8v13c0,3.866,3.134,7,7,7s7-3.134,7-7V2z"/>
  </g></svg>