<svg id="svg-source" height="0" version="1.1" 
  xmlns="http://www.w3.org/2000/svg" style="position:absolute; margin-left: -100%" 
  xmlns:xlink="http://www.w3.org/1999/xlink"><g xmlns="http://www.w3.org/2000/svg" id="attachment">
    <path id="attachment" d="M26,2c0-1.106,0.894-2,2-2s2,0.894,2,2v16c0,7.731-6.269,14-14,14S2,25.731,2,18v-8
	C2,4.476,6.476,0,12,0s10,4.476,10,10v6c0,3.313-2.687,6-6,6s-6-2.687-6-6v-6c0-1.106,0.894-2,2-2s2,0.894,2,2v6
	c0,1.106,0.894,2,2,2s2-0.894,2-2v-6c0-3.313-2.687-6-6-6s-6,2.687-6,6v8c0,5.524,4.476,10,10,10s10-4.476,10-10V2z"/>
  </g></svg>