<svg id="svg-source" height="0" version="1.1" 
  xmlns="http://www.w3.org/2000/svg" style="position:absolute; margin-left: -100%" 
  xmlns:xlink="http://www.w3.org/1999/xlink"><g xmlns="http://www.w3.org/2000/svg" id="audio-mute">
    <path id="audio-mute" d="M31.828,18.828L29,21.656l-2.828-2.828l-2.828,2.828l-2.828-2.828L23.344,16l-2.828-2.828
	l2.828-2.829l2.828,2.829L29,10.343l2.828,2.829L29,16L31.828,18.828z M6.172,24c-3.313,0-6-2.688-6-6v-4c0-3.313,2.687-6,6-6h2
	l10-8v32l-10-8H6.172z M14.172,24v-6v-4V8l-4,4h-4c-1.106,0-2,0.896-2,2v4c0,1.106,0.894,2,2,2h4L14.172,24z"/>
  </g></svg>