<svg id="svg-source" height="0" version="1.1" 
  xmlns="http://www.w3.org/2000/svg" style="position:absolute; margin-left: -100%" 
  xmlns:xlink="http://www.w3.org/1999/xlink"><g xmlns="http://www.w3.org/2000/svg" id="audio-mid">
    <path id="audio-mid" d="M9,24c-3.313,0-6-2.688-6-6v-4c0-3.313,2.687-6,6-6h2l10-8v32l-10-8H9z M17,24v-6v-4V8l-4,4
	H9c-1.106,0-2,0.896-2,2v4c0,1.106,0.894,2,2,2h4L17,24z M29,16c0,3.722-2.554,6.824-6,7.716v-4.27c1.192-0.694,2-1.971,2-3.446
	s-0.808-2.752-2-3.446v-4.27C26.446,9.174,29,12.276,29,16z"/>
  </g></svg>