<svg id="svg-source" height="0" version="1.1" 
  xmlns="http://www.w3.org/2000/svg" style="position:absolute; margin-left: -100%" 
  xmlns:xlink="http://www.w3.org/1999/xlink"><g xmlns="http://www.w3.org/2000/svg" id="battery-charge-2">
    <path id="battery-charge-2" d="M32,17.937L32,17.937v-4l0,0v-2h-2c0-3.313-2.687-6-6-6h-6.39l0.386-1.903
	l-1.398,1.903H6c-3.313,0-6,2.687-6,6v8c0,3.314,2.687,6,6,6h8.238l-0.44,2.03l1.488-2.03H24c3.313,0,6-2.686,6-6l0,0h2V17.937z
	 M6,9.937h7.666L7.851,17.87h8.139l-0.881,4.066H6c-1.106,0-2-0.894-2-2v-8C4,10.833,4.894,9.937,6,9.937z M26,11.937v8
	c0,1.106-0.894,2-2,2h-5.784l5.872-8.014h-8.099l0.809-3.986H24C25.106,9.937,26,10.833,26,11.937z"/>
  </g></svg>