<svg id="svg-source" height="0" version="1.1" 
  xmlns="http://www.w3.org/2000/svg" style="position:absolute; margin-left: -100%" 
  xmlns:xlink="http://www.w3.org/1999/xlink"><g xmlns="http://www.w3.org/2000/svg" id="battery-charge">
    <path id="battery-charge" d="M30,21v4c0,1.106-0.894,2-2,2H2c-1.104,0-2-0.894-2-2V7c0-1.104,0.896-2,2-2h26
	c1.106,0,2,0.896,2,2v4c1.106,0,2,0.896,2,2v6C32,20.106,31.106,21,30,21z M26,19v-6v-2c0-1.104-0.894-2-2-2H6c-1.104,0-2,0.896-2,2
	v10c0,1.106,0.896,2,2,2h18c1.106,0,2-0.894,2-2V19z M22,21h-2h-2v-2h-2v-2h-2v-2h2v-2h2v-2h2h2v2h2v2h-2v2h2v2h-2V21z M6,15h6v2H6
	V15z"/>
  </g></svg>