<svg id="svg-source" height="0" version="1.1" 
  xmlns="http://www.w3.org/2000/svg" style="position:absolute; margin-left: -100%" 
  xmlns:xlink="http://www.w3.org/1999/xlink"><g xmlns="http://www.w3.org/2000/svg" id="battery-60">
    <path id="battery-60" d="M30,11V7c0-1.104-0.894-2-2-2H2C0.896,5,0,5.896,0,7v18c0,1.106,0.896,2,2,2h26
	c1.106,0,2-0.894,2-2v-4c1.106,0,2-0.894,2-2v-6C32,11.896,31.106,11,30,11z M26,21c0,1.106-0.894,2-2,2H6c-1.104,0-2-0.894-2-2V11
	c0-1.104,0.896-2,2-2h18c1.106,0,2,0.896,2,2V21z M7,11c-0.552,0-1,0.448-1,1v8c0,0.552,0.448,1,1,1s1-0.448,1-1v-8
	C8,11.448,7.552,11,7,11z M11,11c-0.552,0-1,0.448-1,1v8c0,0.552,0.448,1,1,1s1-0.448,1-1v-8C12,11.448,11.552,11,11,11z M15,11
	c-0.552,0-1,0.448-1,1v8c0,0.552,0.448,1,1,1s1-0.448,1-1v-8C16,11.448,15.552,11,15,11z"/>
  </g></svg>