<svg id="svg-source" height="0" version="1.1" 
  xmlns="http://www.w3.org/2000/svg" style="position:absolute; margin-left: -100%" 
  xmlns:xlink="http://www.w3.org/1999/xlink"><g xmlns="http://www.w3.org/2000/svg" id="battery-100-2">
    <path id="battery-100-2" d="M32,18L32,18v2h-2l0,0c0,3.313-2.687,6-6,6H6c-3.313,0-6-2.687-6-6v-8
	c0-3.313,2.687-6,6-6h18c3.313,0,6,2.687,6,6h2v2l0,0V18z M26,12c0-1.104-0.894-2-2-2H6c-1.106,0-2,0.896-2,2v8c0,1.106,0.894,2,2,2
	h18c1.106,0,2-0.894,2-2V12z M22,12h2v8h-2V12z M18,12h2v8h-2V12z M14,12h2v8h-2V12z M10,12h2v8h-2V12z M6,12h2v8H6V12z"/>
  </g></svg>