<svg id="svg-source" height="0" version="1.1" 
  xmlns="http://www.w3.org/2000/svg" style="position:absolute; margin-left: -100%" 
  xmlns:xlink="http://www.w3.org/1999/xlink"><g xmlns="http://www.w3.org/2000/svg" id="bell-2">
    <path id="bell-2" d="M16,26c-6.626,0-12-2.687-12-6c0-1.224,0.742-2.36,2-3.308V14c0-4.13,2.506-7.674,6.082-9.2
	C12.028,4.542,12,4.274,12,4c0-2.208,1.792-4,4-4s4,1.792,4,4c0,0.274-0.028,0.542-0.082,0.8C23.492,6.326,26,9.87,26,14v2.692
	c1.258,0.947,2,2.084,2,3.308C28,23.313,22.626,26,16,26z M16,28c1.388,0,2.704-0.132,3.968-0.32C19.976,27.788,20,27.89,20,28
	c0,2.208-1.792,4-4,4s-4-1.792-4-4c0-0.11,0.024-0.212,0.032-0.32C13.298,27.868,14.612,28,16,28z"/>
  </g></svg>