<svg id="svg-source" height="0" version="1.1" 
  xmlns="http://www.w3.org/2000/svg" style="position:absolute; margin-left: -100%" 
  xmlns:xlink="http://www.w3.org/1999/xlink"><g xmlns="http://www.w3.org/2000/svg" id="bell">
    <path id="bell" d="M16,32c-7.573,0-13.714-3.07-13.714-6.857c0-1.398,0.848-2.697,2.285-3.78V16
	c0-4.721,2.864-8.771,6.951-10.514c-0.062-0.296-0.094-0.602-0.094-0.915C11.429,2.048,13.477,0,16,0s4.571,2.048,4.571,4.571
	c0,0.313-0.032,0.619-0.094,0.915c4.085,1.743,6.951,5.793,6.951,10.514v5.362c1.438,1.086,2.285,2.382,2.285,3.78
	C29.714,28.93,23.573,32,16,32z M16,20.571c-5.049,0-9.143,2.048-9.143,4.571c0,2.524,4.094,4.571,9.143,4.571
	s9.143-2.047,9.143-4.571C25.143,22.619,21.049,20.571,16,20.571z M16,27.429c-2.233,0-4.085-1.603-4.484-3.717
	c1.205-0.526,2.761-0.854,4.484-0.854s3.283,0.328,4.486,0.854C20.085,25.826,18.233,27.429,16,27.429z"/>
  </g></svg>