<svg id="svg-source" height="0" version="1.1" 
  xmlns="http://www.w3.org/2000/svg" style="position:absolute; margin-left: -100%" 
  xmlns:xlink="http://www.w3.org/1999/xlink"><g xmlns="http://www.w3.org/2000/svg" id="bell-mute-2">
    <path id="bell-mute-2" d="M11.012,5.354c0.346-0.202,0.698-0.396,1.072-0.555c-0.055-0.258-0.082-0.525-0.082-0.8
	c0-2.208,1.791-4,4-4c2.208,0,4,1.792,4,4c0,0.274-0.028,0.542-0.082,0.8c3.574,1.526,6.082,5.07,6.082,9.2v2.692
	c1.258,0.947,2,2.084,2,3.308c0,0.616-0.238,1.2-0.586,1.758L11.012,5.354z M27.9,30.728L1.273,4.102l2.828-2.829l26.626,26.627
	L27.9,30.728z M6.002,16.692V14c0-0.722,0.102-1.418,0.248-2.097l13.732,13.732C18.728,25.858,17.404,26,16.002,26
	c-6.627,0-12-2.687-12-6C4.002,18.776,4.744,17.64,6.002,16.692z M16.002,28c1.388,0,2.704-0.132,3.968-0.32
	c0.008,0.108,0.032,0.21,0.032,0.32c0,2.208-1.792,4-4,4c-2.209,0-4-1.792-4-4c0-0.11,0.023-0.212,0.031-0.32
	C13.3,27.868,14.613,28,16.002,28z"/>
  </g></svg>