<svg id="svg-source" height="0" version="1.1" 
  xmlns="http://www.w3.org/2000/svg" style="position:absolute; margin-left: -100%" 
  xmlns:xlink="http://www.w3.org/1999/xlink"><g xmlns="http://www.w3.org/2000/svg" id="bell-mute">
    <path id="bell-mute" d="M28.258,31.492L0.508,3.739l3.231-3.231l27.753,27.753L28.258,31.492z M27.429,20.964
	L11.472,5.006c-0.014-0.145-0.043-0.285-0.043-0.435C11.429,2.048,13.477,0,16,0s4.571,2.048,4.571,4.571
	c0,0.313-0.032,0.619-0.094,0.915c4.085,1.743,6.951,5.793,6.951,10.514V20.964z M16,27.429c-2.233,0-4.085-1.603-4.484-3.717
	c1.205-0.526,2.761-0.854,4.484-0.854c0.153,0,0.283,0.036,0.435,0.041l2.942,2.941C18.537,26.789,17.364,27.429,16,27.429z
	 M16,29.714c2.341,0,4.455-0.452,6.07-1.177l2.09,2.086C21.874,31.477,19.072,32,16,32c-7.573,0-13.714-3.07-13.714-6.857
	c0-1.398,0.848-2.697,2.285-3.78V16c0-1.472,0.307-2.861,0.812-4.151l8.813,8.814c-4.185,0.418-7.339,2.263-7.339,4.479
	C6.857,27.667,10.951,29.714,16,29.714z"/>
  </g></svg>