<svg id="svg-source" height="0" version="1.1" 
  xmlns="http://www.w3.org/2000/svg" style="position:absolute; margin-left: -100%" 
  xmlns:xlink="http://www.w3.org/1999/xlink"><g xmlns="http://www.w3.org/2000/svg" id="bin-3">
    <path id="bin-3" d="M28,10v16c0,3.313-2.688,6-6,6H10c-3.313,0-6-2.687-6-6V10c-1.104,0-2-0.894-2-2s0.896-2,2-2h6
	l0,0c0-3.313,2.687-6,6-6c3.312,0,6,2.687,6,6l0,0h6c1.106,0,2,0.894,2,2S29.106,10,28,10z M16,4c-1.104,0-2,0.894-2,2h4
	C18,4.894,17.106,4,16,4z M8,10v16c0,1.106,0.896,2,2,2h12c1.106,0,2-0.894,2-2V10H8z M19,24c-0.55,0-1-0.448-1-1v-8
	c0-0.552,0.45-1,1-1c0.552,0,1,0.448,1,1v8C20,23.552,19.552,24,19,24z M13,24c-0.552,0-1-0.448-1-1v-8c0-0.552,0.448-1,1-1
	s1,0.448,1,1v8C14,23.552,13.552,24,13,24z"/>
  </g></svg>