<svg id="svg-source" height="0" version="1.1" 
  xmlns="http://www.w3.org/2000/svg" style="position:absolute; margin-left: -100%" 
  xmlns:xlink="http://www.w3.org/1999/xlink"><g xmlns="http://www.w3.org/2000/svg" id="book-2">
    <path id="book-2" d="M30,28c-3.06,0.134-8.894,0.657-12.06,2.302C17.79,31.258,16.998,32,16,32
	c-0.996,0-1.79-0.742-1.94-1.698C10.894,28.657,5.06,28.134,2,28c-1.104,0-2-0.894-2-2V2c0-1.104,0.896-2,2-2
	c0.07,0,0.128,0.034,0.198,0.04C15.952,0.396,16,4,16,4s0.048-3.604,13.802-3.96C29.872,0.034,29.93,0,30,0c1.106,0,2,0.896,2,2v24
	C32,27.106,31.106,28,30,28z M14,6.269C11.42,4.956,7.152,4.41,4,4.176v19.933c5.368,0.273,8.372,1.078,10,1.892V6.269z M28,4.176
	c-3.149,0.234-7.42,0.78-10,2.09V26c1.628-0.813,4.63-1.618,10-1.89V4.176z"/>
  </g></svg>