<svg id="svg-source" height="0" version="1.1" 
  xmlns="http://www.w3.org/2000/svg" style="position:absolute; margin-left: -100%" 
  xmlns:xlink="http://www.w3.org/1999/xlink"><g xmlns="http://www.w3.org/2000/svg" id="book-lines-2">
    <path id="book-lines-2" d="M30,28c-3.06,0.134-8.894,0.657-12.06,2.302C17.79,31.258,16.998,32,16,32
	s-1.788-0.742-1.94-1.698C10.896,28.657,5.06,28.134,2,28c-1.104,0-2-0.894-2-2V2c0-1.104,0.896-2,2-2
	c0.07,0,0.128,0.034,0.198,0.04C15.952,0.394,16,4,16,4s0.048-3.606,13.802-3.96C29.872,0.034,29.93,0,30,0c1.106,0,2,0.896,2,2v24
	C32,27.106,31.106,28,30,28z M14,6.269C11.42,4.956,7.152,4.41,4,4.179V24.11c5.368,0.271,8.372,1.076,10,1.89V6.269z M28,4.179
	c-3.152,0.231-7.42,0.777-10,2.09V26c1.628-0.813,4.632-1.618,10-1.89V4.179z M26,8v4c0,0-6,0-6,2v-4C20,10,20,8,26,8z M26,16v4
	c0,0-6,0-6,2v-4C20,18,20,16,26,16z M12,10v4c0-2-6-2-6-2V8C12,8,12,10,12,10z M12,18v4c0-2-6-2-6-2v-4C12,16,12,18,12,18z"/>
  </g></svg>