<svg id="svg-source" height="0" version="1.1" 
  xmlns="http://www.w3.org/2000/svg" style="position:absolute; margin-left: -100%" 
  xmlns:xlink="http://www.w3.org/1999/xlink"><g xmlns="http://www.w3.org/2000/svg" id="book">
    <path id="book" d="M30.242,1.688C29.57,1.234,28.79,1,28,1c-0.502,0-1.006,0.097-1.485,0.288l-10,4
	c-0.188,0.074-0.343,0.197-0.515,0.3c-0.172-0.103-0.326-0.226-0.515-0.3l-10-4C5.006,1.097,4.502,1,4,1
	C3.212,1,2.429,1.234,1.758,1.688C0.657,2.433,0,3.672,0,5v18c0,1.634,0.996,3.108,2.515,3.714l10,4C12.994,30.906,13.498,31,14,31
	c0.7,0,1.382-0.212,2-0.571C16.618,30.788,17.3,31,18,31c0.502,0,1.006-0.094,1.485-0.286l10-4C31.004,26.108,32,24.634,32,23V5
	C32,3.672,31.343,2.433,30.242,1.688z M14,27L4,23V5l10,4V27z M28,23l-10,4V9l10-4V23z"/>
  </g></svg>