<svg id="svg-source" height="0" version="1.1" 
  xmlns="http://www.w3.org/2000/svg" style="position:absolute; margin-left: -100%" 
  xmlns:xlink="http://www.w3.org/1999/xlink"><g xmlns="http://www.w3.org/2000/svg" id="brightness-high">
    <path id="brightness-high" d="M30,18h-2c-1.106,0-2-0.896-2-2s0.894-2,2-2h2c1.106,0,2,0.896,2,2S31.106,18,30,18z
	 M25.899,8.93c-0.781,0.78-2.048,0.78-2.829,0c-0.782-0.781-0.782-2.048,0-2.829l1.415-1.414c0.78-0.783,2.047-0.783,2.828,0
	c0.783,0.781,0.783,2.045,0,2.828L25.899,8.93z M16,24c-4.418,0-8-3.582-8-8s3.582-8,8-8s8,3.582,8,8S20.418,24,16,24z M16,12
	c-2.208,0-4,1.792-4,4s1.792,4,4,4s4-1.792,4-4S18.208,12,16,12z M16,6c-1.106,0-2-0.896-2-2V2c0-1.104,0.894-2,2-2s2,0.896,2,2v2
	C18,5.104,17.106,6,16,6z M6.102,8.93L4.687,7.515c-0.783-0.783-0.783-2.047,0-2.828c0.781-0.783,2.048-0.783,2.829,0L8.93,6.101
	c0.782,0.781,0.782,2.048,0,2.829C8.148,9.71,6.88,9.71,6.102,8.93z M6,16c0,1.104-0.894,2-2,2H2c-1.106,0-2-0.896-2-2s0.894-2,2-2
	h2C5.106,14,6,14.896,6,16z M6.102,23.07c0.78-0.782,2.047-0.782,2.828,0c0.782,0.781,0.782,2.046,0,2.828l-1.414,1.413
	c-0.781,0.782-2.048,0.782-2.829,0c-0.783-0.779-0.783-2.046,0-2.827L6.102,23.07z M16,26c1.106,0,2,0.894,2,2v2
	c0,1.106-0.894,2-2,2s-2-0.894-2-2v-2C14,26.894,14.894,26,16,26z M25.899,23.07l1.414,1.414c0.783,0.781,0.783,2.048,0,2.827
	c-0.781,0.782-2.048,0.782-2.828,0l-1.415-1.413c-0.782-0.782-0.782-2.047,0-2.828C23.852,22.288,25.12,22.29,25.899,23.07z"/>
  </g></svg>