<svg id="svg-source" height="0" version="1.1" 
  xmlns="http://www.w3.org/2000/svg" style="position:absolute; margin-left: -100%" 
  xmlns:xlink="http://www.w3.org/1999/xlink"><g xmlns="http://www.w3.org/2000/svg" id="brightness-low">
    <path id="brightness-low" d="M29.714,18.286c-1.264,0-2.285-1.024-2.285-2.286s1.021-2.286,2.285-2.286
	C30.979,13.714,32,14.738,32,16S30.979,18.286,29.714,18.286z M24.08,7.92c-0.895-0.894-0.895-2.34,0-3.234
	c0.894-0.894,2.34-0.894,3.234,0c0.891,0.895,0.891,2.341,0,3.234C26.423,8.811,24.974,8.811,24.08,7.92z M16,25.143
	c-5.049,0-9.143-4.094-9.143-9.143S10.951,6.857,16,6.857s9.143,4.094,9.143,9.143S21.049,25.143,16,25.143z M16,11.429
	c-2.523,0-4.571,2.048-4.571,4.571s2.048,4.571,4.571,4.571s4.571-2.048,4.571-4.571S18.523,11.429,16,11.429z M16,4.571
	c-1.264,0-2.286-1.023-2.286-2.285C13.714,1.023,14.736,0,16,0s2.286,1.023,2.286,2.286C18.286,3.548,17.264,4.571,16,4.571z
	 M4.688,7.92c-0.893-0.894-0.893-2.34,0-3.234c0.893-0.894,2.339-0.894,3.232,0c0.895,0.895,0.895,2.341,0,3.234
	C7.026,8.811,5.577,8.811,4.688,7.92z M2.286,18.286C1.021,18.286,0,17.262,0,16s1.021-2.286,2.286-2.286
	c1.264,0,2.285,1.024,2.285,2.286S3.55,18.286,2.286,18.286z M7.92,24.08c0.895,0.894,0.895,2.338,0,3.232
	c-0.894,0.893-2.34,0.893-3.232,0c-0.893-0.895-0.893-2.339,0-3.232C5.577,23.189,7.026,23.189,7.92,24.08z M16,27.429
	c1.264,0,2.286,1.021,2.286,2.285C18.286,30.979,17.264,32,16,32s-2.286-1.021-2.286-2.286C13.714,28.45,14.736,27.429,16,27.429z
	 M27.314,24.08c0.891,0.894,0.891,2.338,0,3.232c-0.895,0.893-2.341,0.893-3.234,0c-0.895-0.895-0.895-2.339,0-3.232
	C24.974,23.186,26.423,23.189,27.314,24.08z"/>
  </g></svg>