<svg id="svg-source" height="0" version="1.1" 
  xmlns="http://www.w3.org/2000/svg" style="position:absolute; margin-left: -100%" 
  xmlns:xlink="http://www.w3.org/1999/xlink"><g xmlns="http://www.w3.org/2000/svg" id="browser-upload-2">
    <path id="browser-upload-2" d="M26,32h-4v-4h4c1.106,0,2-0.894,2-2V8H4v18c0,1.106,0.894,2,2,2h4v4H6
	c-3.313,0-6-2.688-6-6V6c0-3.313,2.687-6,6-6h20c3.313,0,6,2.687,6,6v20C32,29.312,29.313,32,26,32z M6,2C4.894,2,4,2.896,4,4
	s0.894,2,2,2s2-0.896,2-2S7.106,2,6,2z M14.586,16.584c0.39-0.39,0.902-0.586,1.414-0.586s1.024,0.196,1.414,0.586l4,4
	c0.57,0.572,0.742,1.432,0.434,2.182C21.54,23.512,20.808,24,20,24h-2v6c0,1.106-0.894,2-2,2c-1.104,0-2-0.894-2-2v-6h-2
	c-0.808,0-1.54-0.488-1.848-1.234c-0.309-0.747-0.138-1.609,0.434-2.182L14.586,16.584z"/>
  </g></svg>