<svg id="svg-source" height="0" version="1.1" 
  xmlns="http://www.w3.org/2000/svg" style="position:absolute; margin-left: -100%" 
  xmlns:xlink="http://www.w3.org/1999/xlink"><g xmlns="http://www.w3.org/2000/svg" id="browser-close-2">
    <path id="browser-close-2" d="M26,32H6c-3.313,0-6-2.687-6-6V6c0-3.313,2.687-6,6-6h20c3.313,0,6,2.687,6,6v20
	C32,29.313,29.313,32,26,32z M6,2C4.896,2,4,2.896,4,4s0.896,2,2,2s2-0.896,2-2S7.104,2,6,2z M28,8H4v18c0,1.106,0.896,2,2,2h20
	c1.106,0,2-0.894,2-2V8z M20.242,22.242c-0.782,0.782-2.046,0.782-2.828,0L16,20.828l-1.414,1.414c-0.782,0.782-2.048,0.782-2.828,0
	c-0.782-0.782-0.782-2.046,0-2.828L13.172,18l-1.414-1.414c-0.782-0.782-0.782-2.048,0-2.828c0.78-0.782,2.046-0.782,2.828,0
	L16,15.172l1.414-1.414c0.782-0.782,2.046-0.782,2.828,0c0.782,0.78,0.782,2.046,0,2.828L18.828,18l1.414,1.414
	C21.024,20.196,21.024,21.46,20.242,22.242z"/>
  </g></svg>