<svg id="svg-source" height="0" version="1.1" 
  xmlns="http://www.w3.org/2000/svg" style="position:absolute; margin-left: -100%" 
  xmlns:xlink="http://www.w3.org/1999/xlink"><g xmlns="http://www.w3.org/2000/svg" id="browser-close">
    <path id="browser-close" d="M26,32H6c-3.313,0-6-2.687-6-6V6c0-3.313,2.687-6,6-6h20c3.313,0,6,2.687,6,6v20
	C32,29.313,29.313,32,26,32z M28,6c0-1.104-0.894-2-2-2H6C4.896,4,4,4.896,4,6v4h24V6z M28,12H4v14c0,1.106,0.896,2,2,2h20
	c1.106,0,2-0.894,2-2V12z M20.242,24.242c-0.782,0.782-2.046,0.782-2.828,0L16,22.828l-1.414,1.414
	c-0.782,0.782-2.048,0.782-2.828,0c-0.782-0.782-0.782-2.046,0-2.828L13.172,20l-1.414-1.414c-0.782-0.782-0.782-2.048,0-2.828
	c0.78-0.782,2.046-0.782,2.828,0L16,17.172l1.414-1.414c0.782-0.782,2.046-0.782,2.828,0c0.782,0.78,0.782,2.046,0,2.828L18.828,20
	l1.414,1.414C21.024,22.196,21.024,23.46,20.242,24.242z M8,8H6V6h2V8z M12,8h-2V6h2V8z M26,8H14V6h12V8z"/>
  </g></svg>