<svg id="svg-source" height="0" version="1.1" 
  xmlns="http://www.w3.org/2000/svg" style="position:absolute; margin-left: -100%" 
  xmlns:xlink="http://www.w3.org/1999/xlink"><g xmlns="http://www.w3.org/2000/svg" id="browser-download">
    <path id="browser-download" d="M25.999,31.996h-3.512l1.76-1.762c0.644-0.648,1.12-1.414,1.409-2.237h0.343
	c1.105,0,1.999-0.895,1.999-2V11.999H4.002v13.998c0,1.105,0.896,2,1.999,2h0.34c0.292,0.827,0.769,1.597,1.416,2.245l1.758,1.754
	H6.001c-3.313,0-5.999-2.688-5.999-5.999V5.999C0.002,2.686,2.688,0,6.001,0h19.998c3.313,0,5.999,2.686,5.999,5.999v19.998
	C31.998,29.309,29.312,31.996,25.999,31.996z M27.998,5.999C27.998,4.896,27.104,4,25.999,4H6.001C4.897,4,4.002,4.896,4.002,5.999
	v4h23.996V5.999z M8.001,7.999h-2v-2h2V7.999z M12,7.999h-1.999v-2H12V7.999z M25.999,7.999H14v-2h11.999V7.999z M12,23.997h2
	v-5.999c0-1.104,0.896-2,2-2c1.106,0,2,0.894,2,2v5.999h2c0.808,0,1.54,0.488,1.847,1.234c0.309,0.75,0.137,1.609-0.434,2.18
	l-3.999,3.999C17.024,31.8,16.512,32,16,32s-1.024-0.2-1.414-0.59l-3.999-3.999c-0.572-0.57-0.742-1.434-0.434-2.18
	C10.46,24.485,11.192,23.997,12,23.997z"/>
  </g></svg>