<svg id="svg-source" height="0" version="1.1" 
  xmlns="http://www.w3.org/2000/svg" style="position:absolute; margin-left: -100%" 
  xmlns:xlink="http://www.w3.org/1999/xlink"><g xmlns="http://www.w3.org/2000/svg" id="browser-download-2">
    <path id="browser-download-2" d="M31.999,25.997c0,3.313-2.687,5.999-6,5.999h-3.511l1.759-1.76
	c0.645-0.647,1.12-1.415,1.41-2.239h0.342c1.106,0,2-0.895,2-2V8H4.001v17.997c0,1.105,0.896,2,2,2h0.34
	c0.292,0.828,0.768,1.598,1.416,2.246l1.755,1.753H6.001c-3.313,0-6-2.686-6-5.999V6c0-3.314,2.687-6,6-6h19.998
	c3.313,0,6,2.686,6,6V25.997z M6.001,2c-1.104,0-2,0.896-2,2s0.896,2,2,2C7.104,6,8,5.104,8,4S7.104,2,6.001,2z M12,23.997h2v-5.998
	C14,16.894,14.896,16,16,16c1.106,0,2,0.894,2,1.999v5.998h2c0.808,0,1.54,0.488,1.848,1.235c0.309,0.75,0.137,1.61-0.434,2.181
	l-4,4C17.024,31.803,16.512,32,16,32s-1.024-0.197-1.414-0.587l-4-4c-0.571-0.57-0.742-1.435-0.434-2.181
	C10.46,24.485,11.192,23.997,12,23.997z"/>
  </g></svg>