<svg id="svg-source" height="0" version="1.1" 
  xmlns="http://www.w3.org/2000/svg" style="position:absolute; margin-left: -100%" 
  xmlns:xlink="http://www.w3.org/1999/xlink"><g xmlns="http://www.w3.org/2000/svg" id="bulb-2">
    <path id="bulb-2" d="M24.754,14.774C24.628,15.172,24.416,15.584,24,16c-2,2-2,4-2,4v2c0,1.106-0.894,2-2,2h-8
	c-1.106,0-2-0.894-2-2v-2c0-1.454-1.048-2.894-1.626-3.582c-0.018-0.02-0.034-0.042-0.048-0.06C8.13,16.13,8,16,8,16v-0.07
	C6.756,14.274,6,12.234,6,10C6,4.476,10.476,0,16,0s10,4.476,10,10C26,11.738,25.54,13.358,24.754,14.774z M16,4
	c-3.313,0-6,2.687-6,6c0,2.61,1.676,4.806,4,5.632V18c0,1.106,0.894,2,2,2s2-0.894,2-2v-2.368c2.324-0.826,4-3.021,4-5.632
	C22,6.687,19.313,4,16,4z M13,26h6c0.552,0,1,0.448,1,1s-0.448,1-1,1h-6c-0.552,0-1-0.448-1-1S12.448,26,13,26z M15,30h2
	c0.552,0,1,0.448,1,1s-0.448,1-1,1h-2c-0.552,0-1-0.448-1-1S14.448,30,15,30z"/>
  </g></svg>