<svg id="svg-source" height="0" version="1.1" 
  xmlns="http://www.w3.org/2000/svg" style="position:absolute; margin-left: -100%" 
  xmlns:xlink="http://www.w3.org/1999/xlink"><g xmlns="http://www.w3.org/2000/svg" id="bulb">
    <path id="bulb" d="M21.304,19.869c-0.337,0.474-0.689,0.927-1.064,1.328c0.002,0.049,0.027,0.089,0.027,0.136V25.6
	c0,1.181-0.953,2.134-2.133,2.134h-4.268c-1.18,0-2.133-0.953-2.133-2.134v-4.267c0-0.047,0.025-0.087,0.027-0.135
	c-0.375-0.4-0.728-0.853-1.064-1.326c-3.189-1.846-5.363-5.254-5.363-9.205C5.333,4.774,10.107,0,16,0s10.667,4.774,10.667,10.667
	C26.667,14.618,24.493,18.026,21.304,19.869z M14.934,29.866h2.133c0.589,0,1.067,0.479,1.067,1.067S17.655,32,17.066,32h-2.133
	c-0.589,0-1.067-0.478-1.067-1.066S14.345,29.866,14.934,29.866z"/>
  </g></svg>