<svg id="svg-source" height="0" version="1.1" 
  xmlns="http://www.w3.org/2000/svg" style="position:absolute; margin-left: -100%" 
  xmlns:xlink="http://www.w3.org/1999/xlink"><g xmlns="http://www.w3.org/2000/svg" id="bullhorn">
    <path id="bullhorn" d="M26,0L14,4H8c-3.313,0-6,2.687-6,6c-1.104,0-2,0.896-2,2s0.896,2,2,2
	c0,2.468,1.494,4.586,3.624,5.508L4,30c0,1.106,0.896,2,2,2h4c1.104,0,2-0.894,2-2l1.5-10H14l12,4c3.312,0,6-5.374,6-12
	S29.312,0,26,0z M8,12H6V8h2V12z M12,12h-2V8h2V12z M26,20c-2.208,0-4-3.582-4-8s1.792-8,4-8s4,3.582,4,8S28.208,20,26,20z M26,10
	h-1.816C24.071,10.628,24,11.294,24,12s0.071,1.372,0.184,2H26c1.106,0,2-0.896,2-2S27.106,10,26,10z"/>
  </g></svg>