<svg id="svg-source" height="0" version="1.1" 
  xmlns="http://www.w3.org/2000/svg" style="position:absolute; margin-left: -100%" 
  xmlns:xlink="http://www.w3.org/1999/xlink"><g xmlns="http://www.w3.org/2000/svg" id="bullhorn-2">
    <path id="bullhorn-2" d="M26,10h-1.816C24.071,10.628,24,11.294,24,12s0.071,1.372,0.184,2H26c1.106,0,2-0.896,2-2
	S27.106,10,26,10z M26,0c-5.688,5.812-14,6-14,6H6c-3.313,0-6,2.687-6,6s2.687,6,6,6c0,0.278,0.056,0.54,0.157,0.778
	c0.189,0.449,0.545,0.796,0.98,1.008c0.03,0.014,0.053,0.042,0.084,0.058C7.46,19.946,7.724,20,8,20L6,30c0,1.106,0.896,2,2,2h4
	c1.104,0,2-0.894,2-2s-0.896-2-2-2l1.601-8H14c0.902,0,1.636-0.61,1.884-1.43C18.796,19.25,22.81,20.739,26,24c3.312,0,6-5.374,6-12
	S29.312,0,26,0z M6,14H4v-4h2V14z M26,20c-2.208,0-4-3.582-4-8s1.792-8,4-8s4,3.582,4,8S28.208,20,26,20z"/>
  </g></svg>