<svg id="svg-source" height="0" version="1.1" 
  xmlns="http://www.w3.org/2000/svg" style="position:absolute; margin-left: -100%" 
  xmlns:xlink="http://www.w3.org/1999/xlink"><g xmlns="http://www.w3.org/2000/svg" id="camera-3">
    <path id="camera-3" d="M30,32H2c-1.106,0-2-0.894-2-2V8c0-1.104,0.894-2,2-2h2V4h2v2h4V2c0-1.104,0.894-2,2-2h8
	c1.106,0,2,0.896,2,2v4h8c1.106,0,2,0.896,2,2v8v2v12C32,31.106,31.106,32,30,32z M18,4h-4v2h4V4z M28,10h-8h-8H4v6h7.556l0,0
	c1.101-1.218,2.675-2,4.444-2s3.344,0.782,4.444,2l0,0H28V10z M12,20c0,2.208,1.792,4,4,4s4-1.792,4-4s-1.792-4-4-4S12,17.792,12,20
	z M28,18h-6.368l0,0C21.856,18.628,22,19.294,22,20c0,3.312-2.687,6-6,6s-6-2.688-6-6c0-0.706,0.144-1.372,0.368-2l0,0H4v10h24V18z
	 M26,14h-4v-2h4V14z M10,12h2v2h-2V12z M6,12h2v2H6V12z"/>
  </g></svg>