<svg id="svg-source" height="0" version="1.1" 
  xmlns="http://www.w3.org/2000/svg" style="position:absolute; margin-left: -100%" 
  xmlns:xlink="http://www.w3.org/1999/xlink"><g xmlns="http://www.w3.org/2000/svg" id="camera-2">
    <path id="camera-2" d="M30,30H2c-1.106,0-2-0.894-2-2V8c0-1.104,0.894-2,2-2h6V4c0-1.104,0.894-2,2-2h12
	c1.106,0,2,0.896,2,2v2h6c1.106,0,2,0.896,2,2v20C32,29.106,31.106,30,30,30z M28,10h-6h-2V6h-8v4h-2H4v16h24V10z M7,12
	c0.552,0,1,0.448,1,1s-0.448,1-1,1s-1-0.448-1-1S6.448,12,7,12z M16,12c3.313,0,6,2.687,6,6c0,3.312-2.687,6-6,6s-6-2.688-6-6
	C10,14.687,12.687,12,16,12z M16,22c2.208,0,4-1.792,4-4s-1.792-4-4-4s-4,1.792-4,4S13.792,22,16,22z"/>
  </g></svg>