<svg id="svg-source" height="0" version="1.1" 
  xmlns="http://www.w3.org/2000/svg" style="position:absolute; margin-left: -100%" 
  xmlns:xlink="http://www.w3.org/1999/xlink"><g xmlns="http://www.w3.org/2000/svg" id="camera">
    <path id="camera" d="M30,6h-4c-1.106,0-2-0.896-2-2s-0.894-2-2-2H10C8.894,2,8,2.896,8,4S7.106,6,6,6H2
	C0.894,6,0,6.896,0,8v20c0,1.106,0.894,2,2,2h28c1.106,0,2-0.894,2-2V8C32,6.896,31.106,6,30,6z M16,26c-5.524,0-10-4.476-10-10
	c0-5.522,4.476-10,10-10s10,4.478,10,10C26,21.524,21.524,26,16,26z M16,10c-3.313,0-6,2.687-6,6c0,3.312,2.687,6,6,6s6-2.688,6-6
	C22,12.687,19.313,10,16,10z"/>
  </g></svg>