<svg id="svg-source" height="0" version="1.1" 
  xmlns="http://www.w3.org/2000/svg" style="position:absolute; margin-left: -100%" 
  xmlns:xlink="http://www.w3.org/1999/xlink"><g xmlns="http://www.w3.org/2000/svg" id="cassette">
    <path id="cassette" d="M26,28L26,28h-2c0-2.208-1.792-4-4-4h-8c-2.208,0-4,1.792-4,4H6l0,0c-3.313,0-6-2.688-6-6V10
	c0-3.313,2.687-6,6-6h20c3.312,0,6,2.687,6,6v12C32,25.312,29.312,28,26,28z M26,26h2v-2h-2V26z M4,26h2v-2H4V26z M28,10
	c0-1.104-0.894-2-2-2H6c-1.104,0-2,0.896-2,2v10c0,1.106,0.896,2,2,2h20c1.106,0,2-0.894,2-2V10z M23,20c-1.656,0-3-1.344-3-3
	s1.344-3,3-3s3,1.344,3,3S24.656,20,23,20z M6,10h20v2H6V10z M9,14c1.657,0,3,1.344,3,3s-1.343,3-3,3s-3-1.344-3-3S7.343,14,9,14z
	 M18,18h-4v-2h4V18z M13,26h6c1.304,0,2.402,0.838,2.816,2H10.184C10.597,26.838,11.696,26,13,26z"/>
  </g></svg>