<svg id="svg-source" height="0" version="1.1" 
  xmlns="http://www.w3.org/2000/svg" style="position:absolute; margin-left: -100%" 
  xmlns:xlink="http://www.w3.org/1999/xlink"><g xmlns="http://www.w3.org/2000/svg" id="clipboard-2">
    <path id="clipboard-2" d="M28,2h-4v4h2v22H6V6h2V2H4C2.894,2,2,2.896,2,4v26c0,1.106,0.894,2,2,2h24
	c1.106,0,2-0.894,2-2V4C30,2.896,29.106,2,28,2z M12,8h8c1.106,0,2-0.896,2-2V2h-4V0h-4v2h-4v4C10,7.104,10.894,8,12,8z M14,4h4v2
	h-4V4z M8,26h16V8h-2c0,1.104-0.894,2-2,2h-8c-1.106,0-2-0.896-2-2H8V26z M10,12h12v2H10V12z M10,16h8v2h-8V16z M10,20h10v2H10V20z"/>
  </g></svg>