<svg id="svg-source" height="0" version="1.1" 
  xmlns="http://www.w3.org/2000/svg" style="position:absolute; margin-left: -100%" 
  xmlns:xlink="http://www.w3.org/1999/xlink"><g xmlns="http://www.w3.org/2000/svg" id="clock">
    <path id="clock" d="M16,0C7.164,0,0,7.164,0,16s7.164,16,16,16s16-7.164,16-16S24.836,0,16,0z M16,28
	C9.374,28,4,22.626,4,16S9.374,4,16,4s12,5.374,12,12S22.626,28,16,28z M22,14h-4v-4c0-1.106-0.896-2-2-2s-2,0.894-2,2v6
	c0,1.106,0.896,2,2,2h6c1.106,0,2-0.894,2-2S23.106,14,22,14z"/>
  </g></svg>