<svg id="svg-source" height="0" version="1.1" 
  xmlns="http://www.w3.org/2000/svg" style="position:absolute; margin-left: -100%" 
  xmlns:xlink="http://www.w3.org/1999/xlink"><g xmlns="http://www.w3.org/2000/svg" id="cloud-add">
    <path id="cloud-add" d="M23,32c-4.97,0-9-4.03-9-9s4.03-9,9-9s9,4.03,9,9S27.97,32,23,32z M23,18
	c-2.762,0-5,2.238-5,5s2.238,5,5,5s5-2.238,5-5S25.762,18,23,18z M24,26h-2v-2h-2v-2h2v-2h2v2h2v2h-2V26z M25.708,10.03L23,10
	c-7.168,0-13,5.832-13,13c0,0.338,0.026,0.668,0.05,1H8c-4.418,0-8-3.582-8-8v-2c0-4.418,3.582-8,8-8
	c0.761,0,1.481,0.14,2.179,0.338C10.944,2.718,14.152,0,18,0c4.418,0,8,3.582,8,8C26,8.706,25.878,9.378,25.708,10.03z"/>
  </g></svg>