<svg id="svg-source" height="0" version="1.1" 
  xmlns="http://www.w3.org/2000/svg" style="position:absolute; margin-left: -100%" 
  xmlns:xlink="http://www.w3.org/1999/xlink"><g xmlns="http://www.w3.org/2000/svg" id="cloud-download">
    <path id="cloud-download" d="M26,24h-0.36c-0.035-0.098-0.058-0.2-0.098-0.294C24.878,22.098,24,20.896,22,20.343V18
	c0-3.308-2.692-6-6-6s-6,2.692-6,6v2.338c-2,0.554-2.878,1.756-3.542,3.358c-0.02,0.046-0.029,0.098-0.046,0.144
	C2.754,23.104,0,19.874,0,16v-2c0-4.418,3.582-8,8-8c0.761,0,1.481,0.14,2.179,0.338C10.944,2.718,14.152,0,18,0
	c4.418,0,8,3.582,8,8c0,0.706-0.122,1.378-0.292,2.03C25.806,10.024,25.899,10,26,10c3.313,0,6,2.688,6,6v2
	C32,21.313,29.313,24,26,24z M12,24h2.004v-6c0-1.106,0.895-2,2-2c1.108,0,2.002,0.894,2.002,2v6h1.996
	c0.808,0,1.54,0.488,1.849,1.234c0.078,0.188,0.123,0.378,0.144,0.573c0.054,0.586-0.147,1.177-0.578,1.606l-4.002,4
	C17.024,31.804,16.512,32,16,32s-1.024-0.196-1.414-0.586l-4-4c-0.426-0.43-0.628-1.021-0.574-1.606
	c0.017-0.195,0.062-0.386,0.141-0.573C10.462,24.488,11.192,24,12,24z"/>
  </g></svg>