<svg id="svg-source" height="0" version="1.1" 
  xmlns="http://www.w3.org/2000/svg" style="position:absolute; margin-left: -100%" 
  xmlns:xlink="http://www.w3.org/1999/xlink"><g xmlns="http://www.w3.org/2000/svg" id="cloud-upload">
    <path id="cloud-upload" d="M17.418,16.586l4,4c0.426,0.43,0.628,1.021,0.574,1.606
	c-0.017,0.195-0.062,0.386-0.141,0.573C21.544,23.512,20.812,24,20.004,24H18v6c0,1.106-0.894,2-2,2s-2-0.894-2-2v-6h-1.996
	c-0.808,0-1.54-0.488-1.848-1.234c-0.078-0.188-0.124-0.378-0.145-0.573c-0.054-0.586,0.148-1.177,0.578-1.606l4-4
	C14.98,16.196,15.492,16,16.004,16S17.028,16.196,17.418,16.586z M26,10c3.313,0,6,2.688,6,6v2c0,3.313-2.687,6-6,6h-0.358
	c0.172-0.481,0.295-0.974,0.332-1.438c0.166-1.775-0.458-3.521-1.728-4.804l-4-4C19.114,12.624,17.606,12,16.004,12
	c-1.602,0-3.11,0.624-4.243,1.758l-4,4c-1.269,1.269-1.898,3.021-1.73,4.832c0.044,0.418,0.144,0.824,0.268,1.22
	C2.7,23.03,0,19.834,0,16v-2c0-4.418,3.582-8,8-8c0.762,0,1.48,0.14,2.179,0.338C10.944,2.718,14.152,0,18,0c4.418,0,8,3.582,8,8
	c0,0.706-0.122,1.378-0.292,2.03C25.806,10.024,25.899,10,26,10z"/>
  </g></svg>