<svg id="svg-source" height="0" version="1.1" 
  xmlns="http://www.w3.org/2000/svg" style="position:absolute; margin-left: -100%" 
  xmlns:xlink="http://www.w3.org/1999/xlink"><g xmlns="http://www.w3.org/2000/svg" id="cloud-remove-2">
    <path id="cloud-remove-2" d="M26,14c-0.101,0-0.194,0.024-0.292,0.03C25.878,13.378,26,12.706,26,12
	c0-4.418-3.582-8-8-8c-3.848,0-7.056,2.718-7.821,6.338C9.48,10.14,8.762,10,8,10c-4.418,0-8,3.582-8,8v2c0,4.418,3.582,8,8,8h18
	c3.313,0,6-2.687,6-6v-2C32,16.688,29.313,14,26,14z M17,24c-2.762,0-5-2.238-5-5s2.238-5,5-5s5,2.238,5,5S19.762,24,17,24z M14,20
	h6v-2h-6V20z"/>
  </g></svg>