<svg id="svg-source" height="0" version="1.1" 
  xmlns="http://www.w3.org/2000/svg" style="position:absolute; margin-left: -100%" 
  xmlns:xlink="http://www.w3.org/1999/xlink"><g xmlns="http://www.w3.org/2000/svg" id="cloud">
    <path id="cloud" d="M0,18c0-4.418,3.582-8,8-8c0.761,0,1.481,0.14,2.179,0.338C10.944,6.718,14.152,4,18,4
	c4.418,0,8,3.582,8,8c0,0.706-0.122,1.378-0.292,2.03C25.806,14.024,25.899,14,26,14c3.313,0,6,2.688,6,6l0,0v2c0,3.313-2.687,6-6,6
	H8c-4.418,0-8-3.582-8-8l0,0V18z"/>
  </g></svg>