<svg id="svg-source" height="0" version="1.1" 
  xmlns="http://www.w3.org/2000/svg" style="position:absolute; margin-left: -100%" 
  xmlns:xlink="http://www.w3.org/1999/xlink"><g xmlns="http://www.w3.org/2000/svg" id="cloud-add-2">
    <path id="cloud-add-2" d="M26,28H8c-4.418,0-8-3.582-8-8v-2c0-4.418,3.582-8,8-8c0.761,0,1.481,0.14,2.179,0.338
	C10.944,6.718,14.152,4,18,4c4.418,0,8,3.582,8,8c0,0.706-0.122,1.378-0.292,2.03C25.806,14.024,25.899,14,26,14
	c3.313,0,6,2.688,6,6v2C32,25.313,29.313,28,26,28z M17,14c-2.762,0-5,2.238-5,5s2.238,5,5,5s5-2.238,5-5S19.762,14,17,14z M18,22
	h-2v-2h-2v-2h2v-2h2v2h2v2h-2V22z"/>
  </g></svg>