<svg id="svg-source" height="0" version="1.1" 
  xmlns="http://www.w3.org/2000/svg" style="position:absolute; margin-left: -100%" 
  xmlns:xlink="http://www.w3.org/1999/xlink"><g xmlns="http://www.w3.org/2000/svg" id="cmd">
    <path id="cmd" d="M26,12L26,12L26,12h-2v8h2l0,0l0,0c3.312,0,6,2.688,6,6s-2.688,6-6,6s-6-2.688-6-6l0,0l0,0v-2h-8v2
	c0,3.312-2.687,6-6,6s-6-2.688-6-6s2.687-6,6-6l0,0l0,0h2v-8H6c-3.313,0-6-2.687-6-6s2.687-6,6-6s6,2.687,6,6
	c0,0.706-0.144,1.372-0.368,2H12h8h0.368C20.144,7.372,20,6.706,20,6c0-3.313,2.688-6,6-6s6,2.687,6,6S29.312,12,26,12z M26,28
	c1.106,0,2-0.894,2-2s-0.894-2-2-2s-2,0.894-2,2S24.894,28,26,28z M6,24c-1.104,0-2,0.894-2,2s0.896,2,2,2s2-0.894,2-2
	S7.104,24,6,24z M6,4C4.896,4,4,4.896,4,6s0.896,2,2,2s2-0.896,2-2S7.104,4,6,4z M20,12h-8v8h8V12z M26,4c-1.106,0-2,0.896-2,2
	s0.894,2,2,2s2-0.896,2-2S27.106,4,26,4z"/>
  </g></svg>