<svg id="svg-source" height="0" version="1.1" 
  xmlns="http://www.w3.org/2000/svg" style="position:absolute; margin-left: -100%" 
  xmlns:xlink="http://www.w3.org/1999/xlink"><g xmlns="http://www.w3.org/2000/svg" id="code">
    <path id="code" d="M26,32H6c-3.313,0-6-2.688-6-6V6c0-3.313,2.687-6,6-6h20c3.312,0,6,2.687,6,6v20
	C32,29.312,29.312,32,26,32z M28,6c0-1.104-0.894-2-2-2H6C4.896,4,4,4.896,4,6v20c0,1.106,0.896,2,2,2h20c1.106,0,2-0.894,2-2V6z
	 M24,18v2c0,3.312-2.688,6-6,6v-4c1.106,0,2-0.894,2-2v-2c1.106,0,2-0.896,2-2s-0.894-2-2-2v-2c0-1.104-0.894-2-2-2V6
	c3.312,0,6,2.687,6,6v2c1.106,0,2,0.896,2,2S25.106,18,24,18z M8,20v-2c-1.104,0-2-0.896-2-2s0.896-2,2-2v-2c0-3.313,2.687-6,6-6v4
	c-1.104,0-2,0.896-2,2v2c-1.104,0-2,0.896-2,2s0.896,2,2,2v2c0,1.106,0.896,2,2,2v4C10.687,26,8,23.312,8,20z"/>
  </g></svg>