<svg id="svg-source" height="0" version="1.1" 
  xmlns="http://www.w3.org/2000/svg" style="position:absolute; margin-left: -100%" 
  xmlns:xlink="http://www.w3.org/1999/xlink"><g xmlns="http://www.w3.org/2000/svg" id="compose-4">
    <path id="compose-4" d="M30.828,6.83l-2.978,2.978L22.106,4.24l3.065-3.066c1.56-1.562,4.094-1.562,5.656,0
	C32.39,2.734,32.39,5.266,30.828,6.83z M26.106,11.55L13.796,23.83L6,26l2.139-7.826L20.38,5.964L26.106,11.55z M30.828,6.83
	l-2.978,2.978L22.106,4.24l3.065-3.066c1.56-1.562,4.094-1.562,5.656,0C32.39,2.734,32.39,5.266,30.828,6.83z M26.106,11.55
	L13.796,23.83L6,26l2.137-7.826l12.241-12.21L26.106,11.55z M28,15.312l4-3.998V26c0,3.313-2.687,6-6,6H6c-3.314,0-6-2.687-6-6V6
	c0-3.314,2.686-6,6-6h14.684l-4.008,4H6C4.896,4,4,4.896,4,6v20c0,1.106,0.896,2,2,2h20c1.106,0,2-0.894,2-2V15.312z"/>
  </g></svg>