<svg id="svg-source" height="0" version="1.1" 
  xmlns="http://www.w3.org/2000/svg" style="position:absolute; margin-left: -100%" 
  xmlns:xlink="http://www.w3.org/1999/xlink"><g xmlns="http://www.w3.org/2000/svg" id="compose-2">
    <path id="compose-2" d="M18,22c-1.698,0-3.266-0.538-4.561-1.44L8,26H6v-2l5.439-5.44l0,0L24,6L10.324,16.194
	C10.124,15.494,10,14.764,10,14C10,9.582,25.582,0,30,0c2,0,2,0,2,2C32,6.418,22.418,22,18,22z M28,18.694
	c1.468-1.915,2.828-4.012,4-6.104V26c0,3.313-2.687,6-6,6H6c-3.314,0-6-2.687-6-6V6c0-3.314,2.686-6,6-6h13.41
	c-2.093,1.172-4.189,2.532-6.104,4H6C4.895,4,4,4.894,4,6v20c0,1.106,0.895,2,2,2h20c1.106,0,2-0.894,2-2V18.694z"/>
  </g></svg>