<svg id="svg-source" height="0" version="1.1" 
  xmlns="http://www.w3.org/2000/svg" style="position:absolute; margin-left: -100%" 
  xmlns:xlink="http://www.w3.org/1999/xlink"><g xmlns="http://www.w3.org/2000/svg" id="compose">
    <path id="compose" d="M26,12c3.313,0,6-2.686,6-6s-2.687-6-6-6l0,0C8,0,6,24,6,24v1c0,0.552,0.447,1,1,1s1-0.448,1-1
	v-1c0,0,0.204-2.832,2.016-5.082C10.016,18.948,10,18.97,10,19c0,1.656,1.344,3,3,3s3-1.344,3-3c0-0.504-0.156-0.958-0.376-1.376
	C16.042,17.844,16.494,18,17,18c1.656,0,3-1.344,3-3c0-0.504-0.156-0.958-0.376-1.376C20.042,13.844,20.494,14,21,14
	c1.454,0,2.608-1.052,2.882-2.424C24.542,11.832,25.248,12,26,12z M28,15.798c1.485-0.302,2.832-0.964,4-1.848V26
	c0,3.313-2.687,6-6,6H6c-3.314,0-6-2.687-6-6V6c0-3.314,2.686-6,6-6h7.693c-1.561,1.164-2.955,2.506-4.164,4H6C4.896,4,4,4.896,4,6
	v20c0,1.106,0.896,2,2,2h20c1.106,0,2-0.894,2-2V15.798z"/>
  </g></svg>