<svg id="svg-source" height="0" version="1.1" 
  xmlns="http://www.w3.org/2000/svg" style="position:absolute; margin-left: -100%" 
  xmlns:xlink="http://www.w3.org/1999/xlink"><g xmlns="http://www.w3.org/2000/svg" id="compass">
    <path id="compass" d="M16,32C7.164,32,0,24.836,0,16S7.164,0,16,0s16,7.164,16,16S24.836,32,16,32z M16,4
	C9.374,4,4,9.374,4,16s5.374,12,12,12s12-5.374,12-12S22.626,4,16,4z M10.342,21.656c-1.562-1.56,1.266-6.922,2.83-8.484
	c1.562-1.562,6.925-4.39,8.484-2.828c1.562,1.56-1.267,6.921-2.828,8.484C17.266,20.39,11.906,23.218,10.342,21.656z M20.242,11.758
	c-0.782-0.782-4.875,2.046-5.656,2.828l2.828,2.828C18.196,16.632,21.024,12.54,20.242,11.758z"/>
  </g></svg>