<svg id="svg-source" height="0" version="1.1" 
  xmlns="http://www.w3.org/2000/svg" style="position:absolute; margin-left: -100%" 
  xmlns:xlink="http://www.w3.org/1999/xlink"><g xmlns="http://www.w3.org/2000/svg" id="contract-3">
    <path id="contract-3" d="M12,18c1.106,0,2,0.894,2,2v6c0,0.808-0.488,1.54-1.234,1.848
	C12.518,27.949,12.258,28,12,28c-0.52,0-1.031-0.205-1.414-0.586L9,25.828l-5.586,5.585c-0.781,0.782-2.045,0.782-2.828,0
	c-0.781-0.781-0.781-2.046,0-2.828L6.172,23l-1.586-1.586c-0.571-0.572-0.741-1.433-0.434-2.18C4.461,18.488,5.192,18,6,18H12z
	 M20,14c-1.106,0-2-0.894-2-2V6c0-0.808,0.488-1.54,1.234-1.848C19.481,4.051,19.742,4,20,4c0.52,0,1.031,0.204,1.414,0.586
	L23,6.172l5.585-5.586c0.782-0.782,2.047-0.782,2.828,0c0.782,0.782,0.782,2.046,0,2.828L25.828,9l1.586,1.585
	c0.571,0.572,0.741,1.432,0.434,2.18C27.54,13.512,26.808,14,26,14H20z M12.766,4.152C13.512,4.46,14,5.192,14,6v6
	c0,1.106-0.894,2-2,2H6c-0.808,0-1.539-0.488-1.848-1.234c-0.308-0.748-0.138-1.608,0.434-2.18L6.172,9L0.586,3.415
	c-0.781-0.782-0.781-2.046,0-2.828c0.783-0.782,2.047-0.782,2.828,0L9,6.172l1.586-1.586C10.969,4.205,11.48,4,12,4
	C12.258,4,12.518,4.051,12.766,4.152z M25.828,23l5.585,5.585c0.782,0.782,0.782,2.047,0,2.828c-0.781,0.782-2.046,0.782-2.828,0
	L23,25.828l-1.586,1.586C21.031,27.795,20.52,28,20,28c-0.258,0-0.519-0.051-0.766-0.152C18.488,27.54,18,26.808,18,26v-6
	c0-1.106,0.894-2,2-2h6c0.808,0,1.54,0.488,1.848,1.234c0.308,0.747,0.138,1.607-0.434,2.18L25.828,23z"/>
  </g></svg>