<svg id="svg-source" height="0" version="1.1" 
  xmlns="http://www.w3.org/2000/svg" style="position:absolute; margin-left: -100%" 
  xmlns:xlink="http://www.w3.org/1999/xlink"><g xmlns="http://www.w3.org/2000/svg" id="contract">
    <path id="contract" d="M32,26c0,3.313-2.687,6-6,6H6c-3.314,0-6-2.687-6-6V8V6c0-3.314,2.686-6,6-6h2h18
	c3.313,0,6,2.686,6,6V26z M10,6c0-1.104-0.896-2-2-2H6C4.896,4,4,4.896,4,6v2c0,1.104,0.896,2,2,2h2c1.104,0,2-0.896,2-2V6z
	 M28,25.11l-3.746-3.746l1.402-1.366c0.571-0.572,0.743-1.724,0.434-2.47C25.78,16.78,25.05,16,24.242,16h-5.656
	c-0.552,0-1.347,0.516-1.708,0.877C16.519,17.238,16,18.032,16,18.584v5.655c0,0.811,0.782,1.539,1.528,1.849
	c0.746,0.311,1.754,0.138,2.326-0.435l1.537-1.497L25.234,28H6c-1.104,0-2-0.894-2-2V14h4c3.312,0,6-2.686,6-6V4h12
	c1.106,0,2,0.896,2,2V25.11z"/>
  </g></svg>