<svg id="svg-source" height="0" version="1.1" 
  xmlns="http://www.w3.org/2000/svg" style="position:absolute; margin-left: -100%" 
  xmlns:xlink="http://www.w3.org/1999/xlink"><g xmlns="http://www.w3.org/2000/svg" id="converge">
    <path id="converge" d="M30,0c-1.106,0-2,0.896-2,2v6c0,1.104-0.894,2-2,2h-6c-1.542,0-2.938,0.6-4,1.558
	C14.936,10.6,13.544,10,12,10H6c-1.104,0-2-0.896-2-2V2c0-1.104-0.896-2-2-2S0,0.896,0,2v6c0,3.314,2.686,6,6,6h6
	c1.104,0,2,0.896,2,2v8h-2c-0.809,0-1.54,0.488-1.848,1.234c-0.309,0.747-0.137,1.608,0.434,2.18l4,4C14.977,31.804,15.488,32,16,32
	s1.024-0.196,1.414-0.586l4-4c0.571-0.571,0.742-1.433,0.434-2.18C21.54,24.488,20.808,24,20,24h-2v-8c0-1.104,0.894-2,2-2h6
	c3.313,0,6-2.686,6-6V2C32,0.896,31.106,0,30,0z"/>
  </g></svg>