<svg id="svg-source" height="0" version="1.1" 
  xmlns="http://www.w3.org/2000/svg" style="position:absolute; margin-left: -100%" 
  xmlns:xlink="http://www.w3.org/1999/xlink"><g xmlns="http://www.w3.org/2000/svg" id="crate">
    <path id="crate" d="M31.422,28.532L28,25.11V6.954l3.446-3.444C31.792,4.27,32,5.108,32,6v20
	C32,26.907,31.784,27.761,31.422,28.532z M6.704,4L3.348,0.644C4.15,0.246,5.042,0,6,0h20c0.958,0,1.851,0.246,2.652,0.644L25.296,4
	H6.704z M4,25.11l-3.422,3.422C0.217,27.761,0,26.907,0,26V6c0-0.892,0.208-1.73,0.557-2.49L4,6.954V25.11z M24,24H8v-4h16V24z M8,8
	h16v4H8V8z M24,18H8v-4h16V18z M25.234,28l3.378,3.378C27.82,31.766,26.942,32,26,32H6c-0.939,0-1.82-0.234-2.611-0.622L6.766,28
	H25.234z"/>
  </g></svg>