<svg id="svg-source" height="0" version="1.1" 
  xmlns="http://www.w3.org/2000/svg" style="position:absolute; margin-left: -100%" 
  xmlns:xlink="http://www.w3.org/1999/xlink"><g xmlns="http://www.w3.org/2000/svg" id="credit-card">
    <path id="credit-card" d="M30,28H2c-1.104,0-2-0.894-2-2V6c0-1.106,0.896-2,2-2h28c1.106,0,2,0.894,2,2v20
	C32,27.106,31.106,28,30,28z M30,6H2v2h28V6z M30,12H2v14h28V12z M10,20H4v-6h6V20z M8,24H4v-2h4V24z M14,24h-4v-2h4V24z M20,24h-4
	v-2h4V24z M24,24h-2v-2h2V24z M28,24h-2v-2h2V24z"/>
  </g></svg>