<svg id="svg-source" height="0" version="1.1" 
  xmlns="http://www.w3.org/2000/svg" style="position:absolute; margin-left: -100%" 
  xmlns:xlink="http://www.w3.org/1999/xlink"><g xmlns="http://www.w3.org/2000/svg" id="credit-card-4">
    <path id="credit-card-4" d="M30,28H2c-1.104,0-2-0.894-2-2V10h32v16C32,27.106,31.106,28,30,28z M17.515,14.702
	C16.772,14.266,15.92,14,15,14c-2.762,0-5,2.238-5,5c0,2.762,2.238,5,5,5c0.92,0,1.772-0.266,2.515-0.702
	C16.58,22.11,16,20.628,16,19S16.58,15.89,17.515,14.702z M23,14c-2.762,0-5,2.238-5,5c0,2.762,2.238,5,5,5s5-2.238,5-5
	C28,16.238,25.762,14,23,14z M0,6c0-1.106,0.896-2,2-2h28c1.106,0,2,0.894,2,2v2H0V6z"/>
  </g></svg>