<svg id="svg-source" height="0" version="1.1" 
  xmlns="http://www.w3.org/2000/svg" style="position:absolute; margin-left: -100%" 
  xmlns:xlink="http://www.w3.org/1999/xlink"><g xmlns="http://www.w3.org/2000/svg" id="credit-card-3">
    <path id="credit-card-3" d="M30,28H2c-1.104,0-2-0.894-2-2V8V6c0-1.106,0.896-2,2-2h28c1.106,0,2,0.894,2,2v20
	C32,27.106,31.106,28,30,28z M30,6H2v2h28V6z M30,12H2v14h28V12z M10,16H4v-2h6V16z M6,20H4v-2h2V20z M10,24H4v-2h6V24z M19,14
	c0.71,0,1.386,0.154,2,0.422C21.614,14.154,22.29,14,23,14c2.762,0,5,2.238,5,5c0,2.762-2.238,5-5,5c-0.71,0-1.386-0.153-2-0.422
	C20.386,23.847,19.71,24,19,24c-2.762,0-5-2.238-5-5C14,16.238,16.238,14,19,14z M22.98,21.996C22.988,21.996,22.992,22,23,22
	c1.656,0,3-1.344,3-3s-1.344-3-3-3c-0.008,0-0.012,0.004-0.02,0.004C23.612,16.842,24,17.872,24,19S23.612,21.16,22.98,21.996z
	 M21,21.204c0.606-0.551,1-1.324,1-2.204s-0.394-1.653-1-2.205c-0.606,0.551-1,1.325-1,2.205S20.394,20.653,21,21.204z M19,22
	c0.008,0,0.012-0.004,0.02-0.004C18.388,21.16,18,20.128,18,19s0.388-2.158,1.02-2.996C19.012,16.004,19.008,16,19,16
	c-1.657,0-3,1.344-3,3S17.343,22,19,22z"/>
  </g></svg>