<svg id="svg-source" height="0" version="1.1" 
  xmlns="http://www.w3.org/2000/svg" style="position:absolute; margin-left: -100%" 
  xmlns:xlink="http://www.w3.org/1999/xlink"><g xmlns="http://www.w3.org/2000/svg" id="cross">
    <path id="cross" d="M26,32H6c-3.314,0-6-2.687-6-6V6c0-3.314,2.686-6,6-6h20c3.312,0,6,2.686,6,6v20
	C32,29.313,29.312,32,26,32z M28,6c0-1.106-0.894-2-2-2H6C4.896,4,4,4.894,4,6v20c0,1.106,0.896,2,2,2h20c1.106,0,2-0.894,2-2V6z
	 M21.656,21.656c-0.782,0.782-2.046,0.782-2.828,0L16,18.828l-2.828,2.828c-0.781,0.782-2.048,0.782-2.83,0
	c-0.779-0.782-0.779-2.046,0-2.828L13.172,16l-2.83-2.828c-0.779-0.782-0.779-2.046,0-2.828c0.782-0.782,2.049-0.782,2.83,0
	L16,13.172l2.828-2.828c0.782-0.782,2.046-0.782,2.828,0c0.782,0.782,0.782,2.046,0,2.828L18.828,16l2.828,2.828
	C22.438,19.61,22.438,20.876,21.656,21.656z"/>
  </g></svg>