<svg id="svg-source" height="0" version="1.1" 
  xmlns="http://www.w3.org/2000/svg" style="position:absolute; margin-left: -100%" 
  xmlns:xlink="http://www.w3.org/1999/xlink"><g xmlns="http://www.w3.org/2000/svg" id="curlybrace-2">
    <path id="curlybrace-2" d="M26,20L26,20c-1.106,0-2,0.894-2,2v4c0,3.312-2.688,6-6,6v-4c1.106,0,2-0.894,2-2v-4
	c0-3.312,2.688-6,6-6c-3.312,0-6-2.686-6-6V6l0,0c0-1.104-0.894-2-2-2V0c3.312,0,6,2.686,6,6v4c0,1.104,0.894,2,2,2
	c2.208,0,4,1.792,4,4S28.208,20,26,20z M8,26v-4c0-1.106-0.896-2-2-2l0,0c-2.208,0-4-1.792-4-4s1.792-4,4-4c1.104,0,2-0.896,2-2V6
	c0-3.314,2.686-6,6-6v4c-1.104,0-2,0.896-2,2l0,0v4c0,3.314-2.686,6-6,6c3.314,0,6,2.688,6,6v4c0,1.106,0.896,2,2,2v4
	C10.686,32,8,29.312,8,26z"/>
  </g></svg>