<svg id="svg-source" height="0" version="1.1" 
  xmlns="http://www.w3.org/2000/svg" style="position:absolute; margin-left: -100%" 
  xmlns:xlink="http://www.w3.org/1999/xlink"><g xmlns="http://www.w3.org/2000/svg" id="curlybrace">
    <path id="curlybrace" d="M28,12c2.208,0,4,1.792,4,4s-1.792,4-4,4c-1.106,0-2,0.894-2,2v4c0,3.312-2.688,6-6,6v-4
	c1.106,0,2-0.894,2-2v-4c0-3.312,2.688-6,6-6c-3.312,0-6-2.686-6-6V6c0-1.104-0.894-2-2-2V0c3.312,0,6,2.686,6,6v4
	C26,11.104,26.894,12,28,12z M6,6c0-3.314,2.686-6,6-6v4c-1.104,0-2,0.896-2,2v4c0,3.314-2.686,6-6,6c3.314,0,6,2.688,6,6v4
	c0,1.106,0.896,2,2,2v4c-3.314,0-6-2.688-6-6v-4c0-1.106-0.896-2-2-2c-2.208,0-4-1.792-4-4s1.792-4,4-4c1.104,0,2-0.896,2-2V6z
	 M16,14c1.104,0,2,0.896,2,2c0,1.104-0.896,2-2,2c-1.104,0-2-0.896-2-2C14,14.896,14.896,14,16,14z"/>
  </g></svg>