<svg id="svg-source" height="0" version="1.1" 
  xmlns="http://www.w3.org/2000/svg" style="position:absolute; margin-left: -100%" 
  xmlns:xlink="http://www.w3.org/1999/xlink"><g xmlns="http://www.w3.org/2000/svg" id="database">
    <path id="database" d="M16,32c-6.626,0-12-2.687-12-6l0,0v-3.376C4,25.94,9.374,28,16,28s12-2.06,12-5.376V26l0,0
	C28,29.313,22.626,32,16,32z M16,26c-6.626,0-12-2.687-12-6v-3.376C4,19.94,9.374,22,16,22s12-2.06,12-5.376V20
	C28,23.313,22.626,26,16,26z M16,20c-6.626,0-12-2.687-12-6v-3.376C4,13.94,9.374,16,16,16s12-2.06,12-5.376V14
	C28,17.313,22.626,20,16,20z M16,14C9.374,14,4,11.314,4,8V6c0-3.314,5.374-6,12-6s12,2.686,12,6v2C28,11.314,22.626,14,16,14z"/>
  </g></svg>