<svg id="svg-source" height="0" version="1.1" 
  xmlns="http://www.w3.org/2000/svg" style="position:absolute; margin-left: -100%" 
  xmlns:xlink="http://www.w3.org/1999/xlink"><g xmlns="http://www.w3.org/2000/svg" id="database-add">
    <path id="database-add" d="M21,32c-4.97,0-9-4.03-9-9s4.03-9,9-9s9,4.03,9,9S25.97,32,21,32z M21,18
	c-2.762,0-5,2.238-5,5s2.238,5,5,5s5-2.238,5-5S23.762,18,21,18z M22,26h-2v-2h-2v-2h2v-2h2v2h2v2h-2V26z M26,10.624v2.628
	c-0.3-0.154-0.59-0.32-0.906-0.448C25.672,12.16,26,11.432,26,10.624z M22.618,12.162C22.086,12.084,21.554,12,21,12
	c-2.326,0-4.474,0.73-6.252,1.962C14.496,13.97,14.256,14,14,14C7.374,14,2,11.314,2,8V6c0-3.314,5.374-6,12-6s12,2.686,12,6v2
	C26,9.62,24.704,11.084,22.618,12.162z M12.624,15.946c-0.925,1.098-1.628,2.368-2.069,3.772C5.62,18.974,2,16.709,2,14v-3.376
	C2,13.704,6.652,15.678,12.624,15.946z M10.128,21.724C10.078,22.148,10,22.562,10,23c0,0.934,0.152,1.824,0.372,2.69
	C5.529,24.918,2,22.679,2,20v-3.376C2,19.258,5.412,21.078,10.128,21.724z M11.176,27.856c0.814,1.642,2.002,3.058,3.486,4.111
	C14.439,31.972,14.227,32,14,32c-6.626,0-12-2.687-12-6v-3.376C2,25.45,5.918,27.352,11.176,27.856z"/>
  </g></svg>