<svg id="svg-source" height="0" version="1.1" 
  xmlns="http://www.w3.org/2000/svg" style="position:absolute; margin-left: -100%" 
  xmlns:xlink="http://www.w3.org/1999/xlink"><g xmlns="http://www.w3.org/2000/svg" id="delete">
    <path id="delete" d="M16,32C7.164,32,0,24.836,0,16S7.164,0,16,0s16,7.164,16,16S24.836,32,16,32z M16,4
	C9.374,4,4,9.374,4,16s5.374,12,12,12s12-5.374,12-12S22.626,4,16,4z M21.656,21.656c-0.782,0.782-2.046,0.782-2.828,0L16,18.828
	l-2.828,2.828c-0.781,0.782-2.048,0.782-2.83,0c-0.781-0.782-0.781-2.046,0-2.828L13.172,16l-2.83-2.828
	c-0.781-0.782-0.781-2.048,0-2.83c0.782-0.782,2.049-0.782,2.83,0L16,13.172l2.828-2.83c0.782-0.782,2.046-0.782,2.828,0
	c0.782,0.782,0.782,2.048,0,2.83L18.828,16l2.828,2.828C22.438,19.61,22.438,20.876,21.656,21.656z"/>
  </g></svg>