<svg id="svg-source" height="0" version="1.1" 
  xmlns="http://www.w3.org/2000/svg" style="position:absolute; margin-left: -100%" 
  xmlns:xlink="http://www.w3.org/1999/xlink"><g xmlns="http://www.w3.org/2000/svg" id="distribute-right-edges">
    <path id="distribute-right-edges" d="M6,32h20c3.313,0,6-2.687,6-6V6c0-3.314-2.687-6-6-6H6C2.686,0,0,2.686,0,6v20
	C0,29.313,2.686,32,6,32z M4,6c0-1.106,0.895-2,2-2h20c1.106,0,2,0.894,2,2v20c0,1.106-0.894,2-2,2H6c-1.105,0-2-0.894-2-2V6z
	 M10,20h2l0,0v6h2v-8v-4V6h-2v6l0,0h-2c-1.105,0-2,0.896-2,2v4C8,19.106,8.895,20,10,20z M10,14h2v4h-2V14z M20,24h2v2h2v-4V10V6h-2
	v2h-2c-1.106,0-2,0.894-2,2v12C18,23.106,18.894,24,20,24z M20,10h2v12h-2V10z"/>
  </g></svg>