<svg id="svg-source" height="0" version="1.1" 
  xmlns="http://www.w3.org/2000/svg" style="position:absolute; margin-left: -100%" 
  xmlns:xlink="http://www.w3.org/1999/xlink"><g xmlns="http://www.w3.org/2000/svg" id="distribute-bottom-edges">
    <path id="distribute-bottom-edges" d="M26,32H6c-3.314,0-6-2.687-6-6V6c0-3.314,2.686-6,6-6h20c3.313,0,6,2.686,6,6
	v20C32,29.313,29.313,32,26,32z M28,6c0-1.106-0.894-2-2-2H6C4.895,4,4,4.894,4,6v20c0,1.106,0.895,2,2,2h20c1.106,0,2-0.894,2-2V6z
	 M10,24H6v-2h2v-2c0-1.106,0.895-2,2-2h12c1.106,0,2,0.894,2,2v2h2v2h-4H10z M22,20H10v2h12V20z M14,14H6v-2h6v-2
	c0-1.106,0.895-2,2-2h4c1.106,0,2,0.894,2,2v2h6v2h-8H14z M18,10h-4v2h4V10z"/>
  </g></svg>