<svg id="svg-source" height="0" version="1.1" 
  xmlns="http://www.w3.org/2000/svg" style="position:absolute; margin-left: -100%" 
  xmlns:xlink="http://www.w3.org/1999/xlink"><g xmlns="http://www.w3.org/2000/svg" id="distribute-vertical-centers">
    <path id="distribute-vertical-centers" d="M22,18H10c-1.104,0-2,0.894-2,2H6v2h2c0,1.106,0.896,2,2,2h12
	c1.106,0,2-0.894,2-2h2v-2h-2C24,18.894,23.106,18,22,18z M22,22H10v-2h12V22z M26,0H6C2.686,0,0,2.686,0,6v20c0,3.313,2.686,6,6,6
	h20c3.313,0,6-2.687,6-6V6C32,2.686,29.313,0,26,0z M28,26c0,1.106-0.894,2-2,2H6c-1.104,0-2-0.894-2-2V6c0-1.106,0.896-2,2-2h20
	c1.106,0,2,0.894,2,2V26z M18,8h-4c-1.104,0-2,0.894-2,2H6v2h6c0,1.106,0.896,2,2,2h4c1.106,0,2-0.894,2-2h6v-2h-6
	C20,8.894,19.106,8,18,8z M18,12h-4v-2h4V12z"/>
  </g></svg>