<svg id="svg-source" height="0" version="1.1" 
  xmlns="http://www.w3.org/2000/svg" style="position:absolute; margin-left: -100%" 
  xmlns:xlink="http://www.w3.org/1999/xlink"><g xmlns="http://www.w3.org/2000/svg" id="document-remove">
    <path id="document-remove" d="M18,22h6v2h-6V22z M26,15.554V15.52V8l-8-8H4C2.895,0,2,0.894,2,2v28
	c0,1.106,0.895,2,2,2h17c4.97,0,9-4.03,9-9C30,19.886,28.403,17.166,26,15.554z M13.52,28H6V4h10v6h6v4.076V14.1
	c-0.33-0.046-0.657-0.1-1-0.1c-4.97,0-9,4.03-9,9C12,24.852,12.562,26.57,13.52,28z M21,28c-2.762,0-5-2.238-5-5s2.238-5,5-5
	s5,2.238,5,5S23.762,28,21,28z"/>
  </g></svg>