<svg id="svg-source" height="0" version="1.1" 
  xmlns="http://www.w3.org/2000/svg" style="position:absolute; margin-left: -100%" 
  xmlns:xlink="http://www.w3.org/1999/xlink"><g xmlns="http://www.w3.org/2000/svg" id="expand-3">
    <path id="expand-3" d="M7.828,5l5.586,5.586c0.781,0.782,0.781,2.046,0,2.828s-2.047,0.782-2.828,0L5,7.828
	L3.414,9.414C3.031,9.796,2.52,10,2,10c-0.258,0-0.518-0.05-0.766-0.152C0.488,9.538,0,8.808,0,8V2c0-1.104,0.896-2,2-2h6
	c0.809,0,1.538,0.488,1.848,1.234c0.311,0.748,0.139,1.608-0.434,2.18L7.828,5z M30,0c1.106,0,2,0.896,2,2v6
	c0,0.808-0.488,1.538-1.234,1.848C30.519,9.95,30.258,10,30,10c-0.52,0-1.032-0.204-1.414-0.586L27,7.828l-5.586,5.586
	c-0.782,0.782-2.046,0.782-2.828,0s-0.782-2.046,0-2.828L24.172,5l-1.586-1.586c-0.571-0.572-0.742-1.432-0.434-2.18
	C22.46,0.488,23.192,0,24,0H30z M10.586,18.586c0.781-0.782,2.047-0.782,2.828,0s0.781,2.046,0,2.828L7.828,27l1.586,1.586
	c0.572,0.571,0.744,1.433,0.434,2.18C9.538,31.512,8.809,32,8,32H2c-1.104,0-2-0.894-2-2v-6c0-0.808,0.488-1.54,1.234-1.848
	C1.482,22.05,1.742,22,2,22c0.52,0,1.031,0.204,1.414,0.586L5,24.172L10.586,18.586z M30.766,22.152C31.512,22.46,32,23.192,32,24v6
	c0,1.106-0.894,2-2,2h-6c-0.808,0-1.54-0.488-1.848-1.234c-0.309-0.747-0.138-1.608,0.434-2.18L24.172,27l-5.586-5.586
	c-0.782-0.782-0.782-2.046,0-2.828s2.046-0.782,2.828,0L27,24.172l1.586-1.586C28.968,22.204,29.48,22,30,22
	C30.258,22,30.519,22.05,30.766,22.152z"/>
  </g></svg>