<svg id="svg-source" height="0" version="1.1" 
  xmlns="http://www.w3.org/2000/svg" style="position:absolute; margin-left: -100%" 
  xmlns:xlink="http://www.w3.org/1999/xlink"><g xmlns="http://www.w3.org/2000/svg" id="expand">
    <path id="expand" d="M26,0H6C2.686,0,0,2.686,0,6v20c0,3.313,2.686,6,6,6h20c3.313,0,6-2.687,6-6V6
	C32,2.686,29.313,0,26,0z M4,6c0-1.104,0.896-2,2-2h2c1.104,0,2,0.896,2,2v2c0,1.104-0.896,2-2,2H6c-1.104,0-2-0.896-2-2V6z M28,26
	c0,1.106-0.894,2-2,2H6c-1.104,0-2-0.894-2-2V14h7.172l4.762,4.762l-1.348,1.382c-0.572,0.572-0.744,1.582-0.434,2.328
	C14.462,23.218,15.189,24,16,24h5.656c0.552,0,1.224-0.52,1.586-0.878C23.604,22.758,24,21.964,24,21.412v-5.658
	c0-0.808-0.66-1.538-1.406-1.848c-0.746-0.31-1.78-0.138-2.352,0.434l-1.519,1.558L14,11.172V4h12c1.106,0,2,0.896,2,2V26z"/>
  </g></svg>