<svg id="svg-source" height="0" version="1.1" 
  xmlns="http://www.w3.org/2000/svg" style="position:absolute; margin-left: -100%" 
  xmlns:xlink="http://www.w3.org/1999/xlink"><g xmlns="http://www.w3.org/2000/svg" id="eye-2">
    <path id="eye-2" d="M16,30C5.188,30,0,16,0,16S5.188,2,16,2c10.812,0,16,14,16,14S26.812,30,16,30z M16,6
	C10.477,6,6,10.476,6,16c0,5.524,4.477,10,10,10c5.524,0,10-4.476,10-10C26,10.476,21.524,6,16,6z M16,22c-3.314,0-6-2.687-6-6
	c0-0.706,0.145-1.372,0.367-2H14v-3.632C14.628,10.144,15.294,10,16,10c3.313,0,6,2.686,6,6C22,19.313,19.313,22,16,22z"/>
  </g></svg>