<svg id="svg-source" height="0" version="1.1" 
  xmlns="http://www.w3.org/2000/svg" style="position:absolute; margin-left: -100%" 
  xmlns:xlink="http://www.w3.org/1999/xlink"><g xmlns="http://www.w3.org/2000/svg" id="fast-forward">
    <path id="fast-forward" d="M1.057,25.764C0.406,25.414,0,24.738,0,24V8c0-0.738,0.408-1.416,1.059-1.764
	c0.649-0.348,1.438-0.308,2.051,0.1l12,8C15.666,14.708,16,15.33,16,16c0,0.668-0.334,1.292-0.893,1.664l-12,8
	C2.496,26.074,1.706,26.112,1.057,25.764z M17.056,25.764C16.406,25.414,16,24.738,16,24v-8V8c0-0.738,0.407-1.416,1.058-1.764
	c0.65-0.348,1.438-0.308,2.053,0.1l12,8C31.666,14.708,32,15.33,32,16c0,0.668-0.334,1.292-0.892,1.664l-12,8
	C18.496,26.074,17.706,26.112,17.056,25.764z"/>
  </g></svg>