<svg id="svg-source" height="0" version="1.1" 
  xmlns="http://www.w3.org/2000/svg" style="position:absolute; margin-left: -100%" 
  xmlns:xlink="http://www.w3.org/1999/xlink"><g xmlns="http://www.w3.org/2000/svg" id="flask-empty">
    <path id="flask-empty" d="M30.242,21.756L22,13.514V4c1.105,0,2-0.896,2-2c0-1.104-0.895-2-2-2H10
	C8.896,0,8,0.896,8,2c0,1.104,0.896,2,2,2v9.514l-8.244,8.242c-2.342,2.345-2.342,6.143,0,8.486C2.929,31.414,4.465,32,6,32h20
	c1.537,0,3.07-0.586,4.242-1.758C32.586,27.898,32.586,24.101,30.242,21.756z M27.414,27.414C26.904,27.924,26.309,28,26,28H6
	c-0.31,0-0.903-0.076-1.416-0.586c-0.779-0.78-0.779-2.05,0-2.83L14,15.172V4h4v11.172l9.414,9.412
	C27.924,25.094,28,25.69,28,25.998C28,26.308,27.924,26.903,27.414,27.414z"/>
  </g></svg>