<svg id="svg-source" height="0" version="1.1" 
  xmlns="http://www.w3.org/2000/svg" style="position:absolute; margin-left: -100%" 
  xmlns:xlink="http://www.w3.org/1999/xlink"><g xmlns="http://www.w3.org/2000/svg" id="floppy">
    <path id="floppy" d="M30,32h-2v-3c0-0.55-0.448-1-1-1s-1,0.45-1,1v3h-4v-1c0-0.55-0.448-1-1-1s-1,0.45-1,1v1h-8v-1
	c0-0.55-0.447-1-1-1s-1,0.45-1,1v1H2c-1.105,0-2-0.894-2-2V2c0-1.104,0.895-2,2-2h28c1.106,0,2,0.896,2,2v28
	C32,31.106,31.106,32,30,32z M14,28c0,1.106,0.895,2,2,2c1.106,0,2-0.894,2-2v-2c0-1.106-0.894-2-2-2c-1.105,0-2,0.894-2,2V28z
	 M16,22c3.313,0,6-2.688,6-6c0-3.314-2.687-6-6-6c-3.314,0-6,2.686-6,6C10,19.312,12.686,22,16,22z M30,4c0-1.104-0.894-2-2-2H4
	C2.895,2,2,2.896,2,4v2c0,1.104,0.895,2,2,2h24c1.106,0,2-0.896,2-2V4z M4,4h14v2H4V4z M16,12c2.208,0,4,1.792,4,4s-1.792,4-4,4
	s-4-1.792-4-4S13.792,12,16,12z M16,18c1.106,0,2-0.896,2-2c0-1.104-0.894-2-2-2c-1.105,0-2,0.896-2,2C14,17.104,14.895,18,16,18z"/>
  </g></svg>