<svg id="svg-source" height="0" version="1.1" 
  xmlns="http://www.w3.org/2000/svg" style="position:absolute; margin-left: -100%" 
  xmlns:xlink="http://www.w3.org/1999/xlink"><g xmlns="http://www.w3.org/2000/svg" id="flux">
    <path id="flux" d="M16,32C7.164,32,0,24.836,0,16S7.164,0,16,0s16,7.164,16,16S24.836,32,16,32z M16,28
	c5.878,0,10.748-4.231,11.78-9.81c-3.924,3.063-9.584,2.834-13.194-0.776c-2.344-2.344-6.143-2.344-8.486,0
	c-0.686,0.688-1.147,1.506-1.432,2.372C6.26,24.546,10.704,28,16,28z M16,4C10.122,4,5.252,8.232,4.221,13.81
	c3.924-3.064,9.584-2.834,13.193,0.776c2.344,2.344,6.142,2.344,8.484,0c0.688-0.688,1.147-1.506,1.434-2.372
	C25.739,7.456,21.296,4,16,4z"/>
  </g></svg>