<svg id="svg-source" height="0" version="1.1" 
  xmlns="http://www.w3.org/2000/svg" style="position:absolute; margin-left: -100%" 
  xmlns:xlink="http://www.w3.org/1999/xlink"><g xmlns="http://www.w3.org/2000/svg" id="folder-add">
    <path id="folder-add" d="M32,23c0,4.97-4.03,9-9,9l0,0H6c-3.314,0-6-2.687-6-6V6c0-3.314,2.686-6,6-6h8
	c2.608,0,4.806,1.674,5.632,4H26c3.313,0,6,2.686,6,6V23L32,23z M22.998,28L22.998,28C25.762,28,28,25.762,28,23l0,0
	c0-2.762-2.238-5-5-5s-5,2.238-5,5S20.238,28,22.998,28z M26,8H16V6c0-1.104-0.896-2-2-2H6C4.896,4,4,4.896,4,6v20
	c0,1.106,0.896,2,2,2h9.52C14.562,26.57,14,24.852,14,23c0-4.97,4.03-9,9-9c1.852,0,3.57,0.562,5,1.52V10C28,8.896,27.106,8,26,8z
	 M22,20h2v2h2v2h-2v2h-2v-2h-2v-2h2V20z"/>
  </g></svg>