<svg id="svg-source" height="0" version="1.1" 
  xmlns="http://www.w3.org/2000/svg" style="position:absolute; margin-left: -100%" 
  xmlns:xlink="http://www.w3.org/1999/xlink"><g xmlns="http://www.w3.org/2000/svg" id="folder-remove">
    <path id="folder-remove" d="M26,4h-6.368C18.806,1.674,16.608,0,14,0H6C2.686,0,0,2.686,0,6v20c0,3.313,2.686,6,6,6
	h17c4.97,0,9-4.03,9-9V10C32,6.686,29.313,4,26,4z M23,28L23,28c-2.762,0-5-2.238-5-5s2.238-5,5-5s5,2.238,5,5S25.762,28,23,28z
	 M28,15.52C26.57,14.562,24.852,14,23,14c-4.97,0-9,4.03-9,9c0,1.852,0.562,3.57,1.52,5H6c-1.104,0-2-0.894-2-2V6
	c0-1.104,0.896-2,2-2h8c1.104,0,2,0.896,2,2v2h10c1.106,0,2,0.896,2,2V15.52z M20,22h6v2h-6V22z"/>
  </g></svg>