<svg id="svg-source" height="0" version="1.1" 
  xmlns="http://www.w3.org/2000/svg" style="position:absolute; margin-left: -100%" 
  xmlns:xlink="http://www.w3.org/1999/xlink"><g xmlns="http://www.w3.org/2000/svg" id="folder-duplicate">
    <path id="folder-duplicate" d="M28,25.632V14c0-3.314-2.688-6-6-6h-6.367C14.807,5.676,12.607,4,10,4H6.367
	C7.193,1.676,9.393,0,12,0h2c2.608,0,4.804,1.676,5.632,4H26c3.312,0,6,2.686,6,6v10C32,22.61,30.324,24.806,28,25.632z M13.633,10
	H20c3.312,0,6,2.686,6,6v10c0,3.313-2.688,6-6,6H6c-3.314,0-6-2.687-6-6V12c0-3.314,2.686-6,6-6h2C10.607,6,12.807,7.676,13.633,10z
	 M4,12v14c0,1.106,0.896,2,2,2h14c1.106,0,2-0.894,2-2V16c0-1.104-0.894-2-2-2H10v-2c0-1.104-0.896-2-2-2H6C4.896,10,4,10.896,4,12z
	"/>
  </g></svg>