<svg id="svg-source" height="0" version="1.1" 
  xmlns="http://www.w3.org/2000/svg" style="position:absolute; margin-left: -100%" 
  xmlns:xlink="http://www.w3.org/1999/xlink"><g xmlns="http://www.w3.org/2000/svg" id="fork">
    <path id="fork" d="M20,20h-8c-0.566,0-1.072,0.239-1.436,0.618C12.588,21.58,14,23.612,14,26c0,3.313-2.686,6-6,6
	s-6-2.687-6-6c0-2.61,1.674-4.806,4-5.634v-8.734C3.674,10.806,2,8.61,2,6c0-3.314,2.686-6,6-6s6,2.686,6,6
	c0,2.61-1.674,4.806-4,5.632v4.735C10.628,16.144,11.294,16,12,16h8c1.106,0,2-0.894,2-2v-0.368C19.676,12.806,18,10.61,18,8
	c0-3.314,2.688-6,6-6s6,2.686,6,6c0,2.61-1.676,4.806-4,5.632V14C26,17.313,23.312,20,20,20z M24,6c1.106,0,2,0.894,2,2
	s-0.894,2-2,2s-2-0.894-2-2S22.894,6,24,6z M8,4c1.104,0,2,0.894,2,2S9.104,8,8,8S6,7.106,6,6S6.896,4,8,4z M8,24
	c1.104,0,2,0.894,2,2s-0.896,2-2,2s-2-0.894-2-2S6.896,24,8,24z"/>
  </g></svg>