<svg id="svg-source" height="0" version="1.1" 
  xmlns="http://www.w3.org/2000/svg" style="position:absolute; margin-left: -100%" 
  xmlns:xlink="http://www.w3.org/1999/xlink"><g xmlns="http://www.w3.org/2000/svg" id="grid">
    <path id="grid" d="M14,24h4v-4h-4V24z M8,12h4V8H8V12z M14,18h4v-4h-4V18z M8,24h4v-4H8V24z M8,18h4v-4H8V18z M26,0
	H6C2.686,0,0,2.686,0,6v20c0,3.312,2.686,6,6,6h20c3.312,0,6-2.688,6-6V6C32,2.686,29.312,0,26,0z M28,26c0,1.106-0.894,2-2,2H6
	c-1.104,0-2-0.894-2-2V6c0-1.104,0.896-2,2-2h20c1.106,0,2,0.896,2,2V26z M20,18h4v-4h-4V18z M20,12h4V8h-4V12z M14,12h4V8h-4V12z
	 M20,24h4v-4h-4V24z"/>
  </g></svg>