<svg id="svg-source" height="0" version="1.1" 
  xmlns="http://www.w3.org/2000/svg" style="position:absolute; margin-left: -100%" 
  xmlns:xlink="http://www.w3.org/1999/xlink"><g xmlns="http://www.w3.org/2000/svg" id="headphones">
    <path id="headphones" d="M30,18c-0.124,0-0.228-0.048-0.347-0.07C28.848,20.292,26.634,22,24,22V8h-2
	c0-1.104-0.894-2-2-2h-8c-1.104,0-2,0.896-2,2H8v12v2v2c0,1.106,0.896,2,2,2c0-1.106,0.896-2,2-2h2c1.104,0,2,0.894,2,2v2
	c0,1.106-0.896,2-2,2h-2c-1.104,0-2-0.894-2-2c-2.208,0-4-1.792-4-4v-2.356c-1.714-0.611-3.064-1.983-3.654-3.714
	C2.23,17.952,2.124,18,2,18c-1.104,0-2-0.896-2-2c0-1.104,0.896-2,2-2c0.117,0,0.221,0.048,0.334,0.068
	c0.592-1.724,1.947-3.09,3.666-3.7V8c0-3.314,2.686-6,6-6h8c3.313,0,6,2.686,6,6v2.368c1.718,0.612,3.071,1.979,3.668,3.7
	C29.78,14.048,29.88,14,30,14c1.106,0,2,0.896,2,2C32,17.104,31.106,18,30,18z M6,14H4v4h2V14z M28,14h-2v4h2V14z"/>
  </g></svg>