<svg id="svg-source" height="0" version="1.1" 
  xmlns="http://www.w3.org/2000/svg" style="position:absolute; margin-left: -100%" 
  xmlns:xlink="http://www.w3.org/1999/xlink"><g xmlns="http://www.w3.org/2000/svg" id="heart-empty">
    <path id="heart-empty" d="M29.654,15.758L16,29.913L2.346,15.758c-3.127-3.127-3.127-8.198,0-11.325
	c3.127-3.127,8.197-3.127,11.324,0L16,7.266l2.33-2.831c3.127-3.127,8.198-3.127,11.324,0C32.781,7.56,32.781,12.631,29.654,15.758z
	 M21.161,7.266L16,12.927l-5.161-5.661c-1.563-1.563-4.1-1.563-5.663,0c-1.562,1.563-1.562,4.098,0,5.661L16,24.251l10.824-11.324
	c1.562-1.563,1.562-4.098,0-5.661C25.261,5.7,22.725,5.7,21.161,7.266z"/>
  </g></svg>