<svg id="svg-source" height="0" version="1.1" 
  xmlns="http://www.w3.org/2000/svg" style="position:absolute; margin-left: -100%" 
  xmlns:xlink="http://www.w3.org/1999/xlink"><g xmlns="http://www.w3.org/2000/svg" id="icon0">
    <path id="icon0" d="M32,16c0-8.836-7.164-16-16-16S0,7.164,0,16s7.164,16,16,16h2c1.102,0,2-0.898,2-2s-0.898-2-2-2
	h-2C9.376,28,4,22.628,4,16S9.376,4,16,4c6.628,0,12,5.372,12,12v6c0,1.102-0.898,2-2,2s-2-0.898-2-2v-6c0-4.416-3.586-8-8-8
	c-4.416,0-8,3.584-8,8c0,4.414,3.584,8,8,8c1.5,0,2.89-0.438,4.086-1.156C20.5,25.75,22.976,28,26,28c3.312,0,6-2.688,6-6V16z
	 M16,20c-2.212,0-4-1.79-4-4c0-2.212,1.788-4,4-4c2.21,0,4,1.788,4,4C20,18.21,18.21,20,16,20z"/>
  </g></svg>