<svg id="svg-source" height="0" version="1.1" 
  xmlns="http://www.w3.org/2000/svg" style="position:absolute; margin-left: -100%" 
  xmlns:xlink="http://www.w3.org/1999/xlink"><g xmlns="http://www.w3.org/2000/svg" id="image">
    <path id="image" d="M12.938,22.062c-1.485,0-3.812-5.875-4.938-3.5c-0.469,0.988-1.248,3.095-2,4.781V24
	c0,1.106,0.896,2,2,2h16c1.106,0,2-0.894,2-2v-0.933c-1.13-2.543-2.594-6.759-4-8.379C19.124,11.376,15.688,22.062,12.938,22.062z
	 M26,0H6C2.686,0,0,2.686,0,6v20c0,3.312,2.686,6,6,6h20c3.312,0,6-2.688,6-6V6C32,2.686,29.312,0,26,0z M28,26c0,1.106-0.894,2-2,2
	H6c-1.104,0-2-0.894-2-2V6c0-1.104,0.896-2,2-2h20c1.106,0,2,0.896,2,2V26z M9,12c1.658,0,3-1.342,3-3s-1.342-3-3-3S6,7.342,6,9
	S7.342,12,9,12z"/>
  </g></svg>