<svg id="svg-source" height="0" version="1.1" 
  xmlns="http://www.w3.org/2000/svg" style="position:absolute; margin-left: -100%" 
  xmlns:xlink="http://www.w3.org/1999/xlink"><g xmlns="http://www.w3.org/2000/svg" id="in">
    <path id="in" d="M26,32H6c-3.314,0-6-2.687-6-6v-4h4v4c0,1.106,0.896,2,2,2h20c1.106,0,2-0.894,2-2V6
	c0-1.104-0.894-2-2-2H6C4.896,4,4,4.896,4,6v4H0V6c0-3.314,2.686-6,6-6h20c3.313,0,6,2.686,6,6v20C32,29.313,29.313,32,26,32z
	 M9.234,10.15c0.748-0.308,1.607-0.138,2.18,0.434l4,4C15.805,14.974,16,15.486,16,15.998s-0.195,1.024-0.586,1.414l-4,4
	c-0.572,0.569-1.432,0.741-2.18,0.435C8.488,21.538,8,20.806,8,19.998V18H2c-1.104,0-2-0.894-2-2c0-1.104,0.896-2,2-2h6v-2.002
	C8,11.19,8.488,10.458,9.234,10.15z"/>
  </g></svg>