<svg id="svg-source" height="0" version="1.1" 
  xmlns="http://www.w3.org/2000/svg" style="position:absolute; margin-left: -100%" 
  xmlns:xlink="http://www.w3.org/1999/xlink"><g xmlns="http://www.w3.org/2000/svg" id="inbox-2">
    <path id="inbox-2" d="M26,32H6c-3.314,0-6-2.687-6-6v-6l6.891-6.89c0.244,0.402,0.525,0.786,0.867,1.13l1.832,1.832
	L4,22h6v2c0,1.106,0.896,2,2,2h8c1.106,0,2-0.894,2-2v-2h6l-5.59-5.928l1.832-1.832c0.344-0.344,0.624-0.728,0.87-1.128L32,20v6
	C32,29.313,29.313,32,26,32z M17.414,15.412c-0.39,0.39-0.902,0.586-1.414,0.586s-1.023-0.196-1.414-0.586l-4-4
	c-0.57-0.572-0.742-1.432-0.434-2.18C10.46,8.486,11.191,8,12,8h2V2c0-1.104,0.896-2,2-2c1.106,0,2,0.896,2,2v6h2
	c0.808,0,1.54,0.488,1.848,1.234c0.309,0.748,0.138,1.606-0.434,2.178L17.414,15.412z"/>
  </g></svg>