<svg id="svg-source" height="0" version="1.1" 
  xmlns="http://www.w3.org/2000/svg" style="position:absolute; margin-left: -100%" 
  xmlns:xlink="http://www.w3.org/1999/xlink"><g xmlns="http://www.w3.org/2000/svg" id="inbox">
    <path id="inbox" d="M26,0c3.313,0,6,2.686,6,6v20c0,3.313-2.687,6-6,6H6c-3.314,0-6-2.687-6-6V6c0-3.314,2.686-6,6-6
	h4v4H6C4.896,4,4,4.896,4,6v20c0,1.106,0.896,2,2,2h20c1.106,0,2-0.894,2-2V6c0-1.104-0.894-2-2-2h-4V0H26z M10,20h12l4,6H6L10,20z
	 M14.586,15.414l-4-4c-0.572-0.572-0.742-1.432-0.434-2.18C10.46,8.488,11.191,8,12,8h2V2c0-1.106,0.896-2,2-2c1.106,0,2,0.894,2,2
	v6h2c0.808,0,1.54,0.488,1.848,1.234c0.309,0.748,0.137,1.608-0.434,2.18l-4,4C17.024,15.804,16.512,16,16,16
	S14.977,15.804,14.586,15.414z"/>
  </g></svg>