<svg id="svg-source" height="0" version="1.1" 
  xmlns="http://www.w3.org/2000/svg" style="position:absolute; margin-left: -100%" 
  xmlns:xlink="http://www.w3.org/1999/xlink"><g xmlns="http://www.w3.org/2000/svg" id="infinity">
    <path id="infinity" d="M32,16c0,5.049-4.094,9.143-9.143,9.143c-5.05,0-9.143-4.094-9.143-9.143
	c0-2.523-2.049-4.571-4.572-4.571S4.571,13.477,4.571,16s2.048,4.571,4.571,4.571c0.279,0,0.549-0.034,0.814-0.082
	c0.523,1.502,1.293,2.868,2.271,4.082c-0.967,0.348-1.995,0.571-3.086,0.571C4.094,25.143,0,21.049,0,16
	c0-5.049,4.094-9.143,9.143-9.143s9.144,4.094,9.144,9.143c0,2.523,2.047,4.571,4.571,4.571c2.523,0,4.571-2.048,4.571-4.571l0,0
	c0-2.523-2.048-4.571-4.571-4.571c-0.279,0-0.55,0.034-0.814,0.082c-0.522-1.501-1.291-2.869-2.271-4.082
	c0.967-0.348,1.995-0.572,3.086-0.572C27.906,6.857,32,10.951,32,16L32,16z"/>
  </g></svg>