<svg id="svg-source" height="0" version="1.1" 
  xmlns="http://www.w3.org/2000/svg" style="position:absolute; margin-left: -100%" 
  xmlns:xlink="http://www.w3.org/1999/xlink"><g xmlns="http://www.w3.org/2000/svg" id="key-2">
    <path id="key-2" d="M32,32h-4h-2v-4h-4v-4h-4v-2h-4v-2v-0.844C12.773,19.694,11.424,20,10,20C4.479,20,0,15.524,0,10
	S4.479,0,10,0s10,4.476,10,10c0,1.424-0.308,2.774-0.844,4H22v2l10,8v2l0,0V32z M8,4C5.792,4,4,5.792,4,8s1.792,4,4,4s4-1.792,4-4
	S10.208,4,8,4z"/>
  </g></svg>