<svg id="svg-source" height="0" version="1.1" 
  xmlns="http://www.w3.org/2000/svg" style="position:absolute; margin-left: -100%" 
  xmlns:xlink="http://www.w3.org/1999/xlink"><g xmlns="http://www.w3.org/2000/svg" id="keys">
    <path id="keys" d="M26,32h-2V20c1.106,0,2-0.894,2-2V0c3.313,0,6,2.686,6,6v20C32,29.312,29.313,32,26,32z M22,20v12
	H10V20c1.105,0,2-0.894,2-2V0h8v18C20,19.106,20.894,20,22,20z M8,20v12H6c-3.314,0-6-2.688-6-6V6c0-3.314,2.686-6,6-6v18
	C6,19.106,6.895,20,8,20z"/>
  </g></svg>