<svg id="svg-source" height="0" version="1.1" 
  xmlns="http://www.w3.org/2000/svg" style="position:absolute; margin-left: -100%" 
  xmlns:xlink="http://www.w3.org/1999/xlink"><g xmlns="http://www.w3.org/2000/svg" id="layout-sidebar-left">
    <path id="layout-sidebar-left" d="M26,32H6c-3.314,0-6-2.687-6-6V6c0-3.314,2.686-6,6-6h20c3.312,0,6,2.686,6,6v20
	C32,29.313,29.312,32,26,32z M28,26V12H12v16h14C27.106,28,28,27.106,28,26z M6,28h4V12H4v14C4,27.106,4.896,28,6,28z M26,4H6
	C4.896,4,4,4.896,4,6v4h6h2h16V6C28,4.896,27.106,4,26,4z"/>
  </g></svg>