<svg id="svg-source" height="0" version="1.1" 
  xmlns="http://www.w3.org/2000/svg" style="position:absolute; margin-left: -100%" 
  xmlns:xlink="http://www.w3.org/1999/xlink"><g xmlns="http://www.w3.org/2000/svg" id="layout-column-center">
    <path id="layout-column-center" d="M26,32H6c-3.314,0-6-2.687-6-6V6c0-3.314,2.686-6,6-6h20c3.312,0,6,2.686,6,6v20
	C32,29.313,29.312,32,26,32z M22,28V12H10v16H22z M4,26c0,1.106,0.896,2,2,2h2V12H4V26z M28,6c0-1.104-0.894-2-2-2H6
	C4.896,4,4,4.896,4,6v4h4h2h12h2h4V6z M28,12h-4v16h2c1.106,0,2-0.894,2-2V12z"/>
  </g></svg>