<svg id="svg-source" height="0" version="1.1" 
  xmlns="http://www.w3.org/2000/svg" style="position:absolute; margin-left: -100%" 
  xmlns:xlink="http://www.w3.org/1999/xlink"><g xmlns="http://www.w3.org/2000/svg" id="layout-content-right-2">
    <path id="layout-content-right-2" d="M6,32h20c3.313,0,6-2.687,6-6V6c0-3.314-2.687-6-6-6H6C2.686,0,0,2.686,0,6v20
	C0,29.313,2.686,32,6,32z M4,6c0-1.104,0.896-2,2-2h20c1.106,0,2,0.896,2,2v20c0,1.106-0.894,2-2,2H6c-1.104,0-2-0.894-2-2V6z
	 M14,20H8v4h6V20z M14,14H8v4h6V14z M14,8H8v4h6V8z M24,8h-6v16h6V8z"/>
  </g></svg>