<svg id="svg-source" height="0" version="1.1" 
  xmlns="http://www.w3.org/2000/svg" style="position:absolute; margin-left: -100%" 
  xmlns:xlink="http://www.w3.org/1999/xlink"><g xmlns="http://www.w3.org/2000/svg" id="link-2">
    <path id="link-2" d="M26,24h-2c-2.61,0-4.804-1.674-5.632-4H26c1.106,0,2-0.894,2-2v-4c0-1.106-0.894-2-2-2h-7.632
	C19.196,9.676,21.39,8,24,8h2c3.312,0,6,2.686,6,6v4C32,21.313,29.312,24,26,24z M8,16c0-1.106,0.896-2,2-2h12c1.106,0,2,0.894,2,2
	c0,1.106-0.894,2-2,2H10C8.896,18,8,17.106,8,16z M4,14v4c0,1.106,0.896,2,2,2h7.633c-0.826,2.326-3.025,4-5.633,4H6
	c-3.314,0-6-2.687-6-6v-4c0-3.314,2.686-6,6-6h2c2.607,0,4.807,1.676,5.633,4H6C4.896,12,4,12.894,4,14z"/>
  </g></svg>