<svg id="svg-source" height="0" version="1.1" 
  xmlns="http://www.w3.org/2000/svg" style="position:absolute; margin-left: -100%" 
  xmlns:xlink="http://www.w3.org/1999/xlink"><g xmlns="http://www.w3.org/2000/svg" id="mail-3">
    <path id="mail-3" d="M32,20c0,2.208-1.792,4-4,4c2.208,0,4,1.792,4,4s-1.792,4-4,4s-4-1.792-4-4c0,2.208-1.792,4-4,4
	s-4-1.792-4-4c0,2.208-1.792,4-4,4s-4-1.792-4-4c0,2.208-1.792,4-4,4s-4-1.792-4-4s1.792-4,4-4c-2.208,0-4-1.792-4-4s1.792-4,4-4
	c-2.208,0-4-1.792-4-4s1.792-4,4-4C1.792,8,0,6.208,0,4s1.792-4,4-4s4,1.792,4,4c0-2.208,1.792-4,4-4s4,1.792,4,4
	c0-2.208,1.792-4,4-4s4,1.792,4,4c0-2.208,1.792-4,4-4s4,1.792,4,4s-1.792,4-4,4c2.208,0,4,1.792,4,4s-1.792,4-4,4
	C30.208,16,32,17.792,32,20z M26,6H6v20h20V6z M16,8c4.418,0,8,3.582,8,8v3c0,1.656-1.344,3-3,3c-1.512,0-2.75-1.124-2.958-2.578
	C17.444,19.782,16.75,20,16,20c-2.208,0-4-1.792-4-4s1.792-4,4-4s4,1.792,4,4v3c0,0.552,0.448,1,1,1s1-0.448,1-1v-3
	c0-3.314-2.687-6-6-6c-3.312,0-6,2.686-6,6c0,3.313,2.688,6,6,6h1c0.552,0,1,0.448,1,1s-0.448,1-1,1h-1c-4.418,0-8-3.582-8-8
	S11.582,8,16,8z M16,14c-1.105,0-2,0.894-2,2c0,1.106,0.895,2,2,2c1.106,0,2-0.894,2-2C18,14.894,17.106,14,16,14z"/>
  </g></svg>