<svg id="svg-source" height="0" version="1.1" 
  xmlns="http://www.w3.org/2000/svg" style="position:absolute; margin-left: -100%" 
  xmlns:xlink="http://www.w3.org/1999/xlink"><g xmlns="http://www.w3.org/2000/svg" id="mail-incoming">
    <path id="mail-incoming" d="M14.586,15.414C14.977,15.804,15.488,16,16,16s1.024-0.196,1.414-0.586l4-4
	c0.57-0.57,0.742-1.432,0.434-2.18C21.54,8.488,20.808,8,20,8h-1.998V2c0-1.106-0.894-2-2-2c-1.104,0-2,0.894-2,2v6H12
	c-0.809,0-1.54,0.488-1.848,1.234c-0.309,0.748-0.139,1.61,0.434,2.18L14.586,15.414z M26,8h-0.36c0.467,1.322,0.469,2.728,0.018,4
	H26c0.488,0,0.922,0.198,1.27,0.488L16,20L4.732,12.488C5.08,12.198,5.51,12,6,12h0.34c-0.449-1.272-0.449-2.678,0.018-4H6
	c-3.314,0-6,2.688-6,6v12c0,3.313,2.686,6,6,6h20c3.313,0,6-2.687,6-6V14C32,10.688,29.313,8,26,8z M28,24l-6-2l5.414,5.414
	C27.052,27.776,26.552,28,26,28H6c-0.553,0-1.053-0.224-1.414-0.586L10,22l-6,2v-8l12,8l12-8V24z"/>
  </g></svg>