<svg id="svg-source" height="0" version="1.1" 
  xmlns="http://www.w3.org/2000/svg" style="position:absolute; margin-left: -100%" 
  xmlns:xlink="http://www.w3.org/1999/xlink"><g xmlns="http://www.w3.org/2000/svg" id="mail-outgoing">
    <path id="mail-outgoing" d="M12,8h2.002v6c0,1.106,0.896,2,2,2c1.106,0,2-0.894,2-2V8H20
	c0.808,0,1.54-0.488,1.848-1.234c0.309-0.748,0.137-1.61-0.434-2.18l-4-4C17.024,0.196,16.512,0,16,0s-1.023,0.196-1.414,0.586l-4,4
	c-0.572,0.57-0.742,1.432-0.434,2.18C10.46,7.512,11.191,8,12,8z M26,8h-0.362c-0.036,0.098-0.056,0.196-0.096,0.292
	C24.876,9.902,24,11.104,22,11.66V12h4c0.488,0,0.922,0.198,1.27,0.488L16,20L4.732,12.488C5.08,12.198,5.51,12,6,12h4v-0.34
	c-2-0.554-2.878-1.756-3.544-3.366C6.416,8.2,6.393,8.098,6.357,8H6c-3.314,0-6,2.688-6,6v12c0,3.313,2.686,6,6,6h20
	c3.313,0,6-2.687,6-6V14C32,10.688,29.313,8,26,8z M28,24l-6-2l5.414,5.414C27.052,27.776,26.552,28,26,28H6
	c-0.553,0-1.053-0.224-1.414-0.586L10,22l-6,2v-8l12,8l12-8V24z"/>
  </g></svg>