<svg id="svg-source" height="0" version="1.1" 
  xmlns="http://www.w3.org/2000/svg" style="position:absolute; margin-left: -100%" 
  xmlns:xlink="http://www.w3.org/1999/xlink"><g xmlns="http://www.w3.org/2000/svg" id="map-2">
    <path id="map-2" d="M6,20v2h2v-2H6z M6,26h2v-2H6V26z M12,26v-2h-2v2H12z M8,24h2v-2H8V24z M12,6h-2v2h2V6z M8,14h2
	v-2H8V14z M24,12h-2v2h2V12z M8,8H6v2h2V8z M14,24h2v-2h-2V24z M24,18h2v-2h-2V18z M22,22h2v-2h-2V22z M18,12h2v-2h-2V12z M26,0H6
	C2.686,0,0,2.686,0,6v20c0,3.312,2.686,6,6,6h20c3.313,0,6-2.688,6-6V6C32,2.686,29.313,0,26,0z M28,26c0,1.106-0.894,2-2,2H6
	c-1.105,0-2-0.894-2-2V6c0-1.104,0.895-2,2-2h20c1.106,0,2,0.896,2,2V26z M10,22h2v-2h-2V22z M18,14h-2v2h2V14z M18,24h2v-2h-2V24z
	 M14,14h-2v2h2V14z"/>
  </g></svg>