<svg id="svg-source" height="0" version="1.1" 
  xmlns="http://www.w3.org/2000/svg" style="position:absolute; margin-left: -100%" 
  xmlns:xlink="http://www.w3.org/1999/xlink"><g xmlns="http://www.w3.org/2000/svg" id="map">
    <path id="map" d="M26,32H6c-3.314,0-6-2.688-6-6V6c0-3.314,2.686-6,6-6h1.115C5.92,1.326,5.036,2.916,4.525,4.676
	C4.208,5.03,4,5.488,4,6v20c0,1.106,0.895,2,2,2h20c1.106,0,2-0.894,2-2V6c0-0.512-0.208-0.97-0.526-1.324
	c-0.51-1.76-1.394-3.35-2.588-4.676H26c3.313,0,6,2.686,6,6v20C32,29.312,29.313,32,26,32z M8,8c0-4.418,3.582-8,8-8s8,3.582,8,8
	s-8,16-8,16S8,12.418,8,8z M20,8c0-2.208-1.792-4-4-4s-4,1.792-4,4s1.792,4,4,4S20,10.208,20,8z"/>
  </g></svg>