<svg id="svg-source" height="0" version="1.1" 
  xmlns="http://www.w3.org/2000/svg" style="position:absolute; margin-left: -100%" 
  xmlns:xlink="http://www.w3.org/1999/xlink"><g xmlns="http://www.w3.org/2000/svg" id="marquee-upload">
    <path id="marquee-upload" d="M28,18h4v4h-4V18z M28,10h4v4h-4V10z M26,4V0c3.313,0,6,2.686,6,6h-4
	C28,4.896,27.106,4,26,4z M18,28h4v4h-4V28z M18,0h4v4h-4V0z M21.848,14.766C21.54,15.512,20.808,16,20,16h-2v6c0,1.106-0.894,2-2,2
	c-1.104,0-2-0.894-2-2v-6h-2c-0.809,0-1.54-0.488-1.848-1.234c-0.309-0.748-0.139-1.61,0.434-2.182l4-4
	c0.391-0.39,0.902-0.586,1.414-0.586s1.024,0.196,1.414,0.586l4,4C21.984,13.156,22.156,14.016,21.848,14.766z M10,0h4v4h-4V0z
	 M0,26h4c0,1.106,0.896,2,2,2v4C2.686,32,0,29.313,0,26z M4,6H0c0-3.314,2.686-6,6-6v4C4.896,4,4,4.896,4,6z M4,14H0v-4h4V14z M4,22
	H0v-4h4V22z M14,32h-4v-4h4V32z M28,26h4c0,3.313-2.687,6-6,6v-4C27.106,28,28,27.106,28,26z"/>
  </g></svg>