<svg id="svg-source" height="0" version="1.1" 
  xmlns="http://www.w3.org/2000/svg" style="position:absolute; margin-left: -100%" 
  xmlns:xlink="http://www.w3.org/1999/xlink"><g xmlns="http://www.w3.org/2000/svg" id="marquee-download">
    <path id="marquee-download" d="M28,18h4v4h-4V18z M28,10h4v4h-4V10z M28,6c0-1.104-0.894-2-2-2V0
	c3.313,0,6,2.686,6,6H28z M18,28h4v4h-4V28z M18,0h4v4h-4V0z M21.848,17.234c0.309,0.75,0.137,1.608-0.434,2.18l-4,4
	C17.024,23.804,16.512,24,16,24s-1.023-0.196-1.414-0.586l-4-4c-0.572-0.571-0.742-1.433-0.434-2.18C10.46,16.488,11.191,16,12,16h2
	V9.998c0-1.106,0.896-2,2-2c1.106,0,2,0.894,2,2V16h2C20.808,16,21.54,16.488,21.848,17.234z M10,0h4v4h-4V0z M4,26
	c0,1.106,0.896,2,2,2v4c-3.314,0-6-2.687-6-6H4z M0,6c0-3.314,2.686-6,6-6v4C4.896,4,4,4.896,4,6H0z M0,10h4v4H0V10z M0,18h4v4H0V18
	z M10,28h4v4h-4V28z M26,28c1.106,0,2-0.894,2-2h4c0,3.313-2.687,6-6,6V28z"/>
  </g></svg>