<svg id="svg-source" height="0" version="1.1" 
  xmlns="http://www.w3.org/2000/svg" style="position:absolute; margin-left: -100%" 
  xmlns:xlink="http://www.w3.org/1999/xlink"><g xmlns="http://www.w3.org/2000/svg" id="marquee-minus">
    <path id="marquee-minus" d="M28,18h4v4h-4V18z M28,10h4v4h-4V10z M26,4V0c3.313,0,6,2.686,6,6h-4
	C28,4.896,27.106,4,26,4z M22,18H10c-1.104,0-2-0.894-2-2c0-1.104,0.896-2,2-2h12c1.106,0,2,0.896,2,2C24,17.106,23.106,18,22,18z
	 M18,0h4v4h-4V0z M10,0h4v4h-4V0z M0,26h4c0,1.106,0.896,2,2,2v4C2.686,32,0,29.313,0,26z M4,6H0c0-3.314,2.686-6,6-6v4
	C4.896,4,4,4.896,4,6z M4,14H0v-4h4V14z M4,22H0v-4h4V22z M14,32h-4v-4h4V32z M22,32h-4v-4h4V32z M28,26h4c0,3.313-2.687,6-6,6v-4
	C27.106,28,28,27.106,28,26z"/>
  </g></svg>