<svg id="svg-source" height="0" version="1.1" 
  xmlns="http://www.w3.org/2000/svg" style="position:absolute; margin-left: -100%" 
  xmlns:xlink="http://www.w3.org/1999/xlink"><g xmlns="http://www.w3.org/2000/svg" id="maximise">
    <path id="maximise" d="M30,0c1.106,0,2,0.896,2,2v6c0,0.808-0.488,1.538-1.234,1.848C30.519,9.95,30.258,10,30,10
	c-0.52,0-1.032-0.204-1.414-0.586L27,7.828l-5.586,5.586c-0.782,0.782-2.046,0.782-2.828,0s-0.782-2.046,0-2.828L24.172,5
	l-1.586-1.586c-0.571-0.572-0.742-1.432-0.434-2.18C22.46,0.488,23.192,0,24,0H30z M10.586,18.586c0.781-0.782,2.047-0.782,2.828,0
	s0.781,2.046,0,2.828L7.828,27l1.586,1.586c0.572,0.571,0.744,1.433,0.434,2.18C9.538,31.512,8.809,32,8,32H2c-1.104,0-2-0.894-2-2
	v-6c0-0.808,0.488-1.54,1.234-1.848C1.482,22.05,1.742,22,2,22c0.52,0,1.031,0.204,1.414,0.586L5,24.172L10.586,18.586z"/>
  </g></svg>