<svg id="svg-source" height="0" version="1.1" 
  xmlns="http://www.w3.org/2000/svg" style="position:absolute; margin-left: -100%" 
  xmlns:xlink="http://www.w3.org/1999/xlink"><g xmlns="http://www.w3.org/2000/svg" id="menu">
    <path id="menu" d="M26,32H6c-3.314,0-6-2.687-6-6V6c0-3.314,2.686-6,6-6h20c3.313,0,6,2.686,6,6v20
	C32,29.313,29.313,32,26,32z M28,6c0-1.104-0.894-2-2-2H6C4.895,4,4,4.896,4,6v20c0,1.106,0.895,2,2,2h20c1.106,0,2-0.894,2-2V6z
	 M8,20h16v4H8V20z M8,14h16v4H8V14z M8,8h16v4H8V8z"/>
  </g></svg>