<svg id="svg-source" height="0" version="1.1" 
  xmlns="http://www.w3.org/2000/svg" style="position:absolute; margin-left: -100%" 
  xmlns:xlink="http://www.w3.org/1999/xlink"><g xmlns="http://www.w3.org/2000/svg" id="menu-pull-up">
    <path id="menu-pull-up" d="M6,16h20v-2H6V16z M6,12h20v-2H6V12z M26,0H6C2.686,0,0,2.686,0,6v20c0,3.313,2.686,6,6,6
	h20c3.313,0,6-2.687,6-6V6C32,2.686,29.313,0,26,0z M28,26c0,1.106-0.894,2-2,2H6c-1.104,0-2-0.894-2-2V6c0-1.104,0.896-2,2-2h20
	c1.106,0,2,0.896,2,2V26z M6,8h20V6H6V8z M17.414,18.588C17.024,18.198,16.512,18,16,18s-1.023,0.198-1.414,0.588l-4,4
	c-0.57,0.569-0.742,1.428-0.434,2.178C10.46,25.515,11.191,26,12,26h8c0.808,0,1.54-0.485,1.848-1.234
	c0.309-0.746,0.138-1.609-0.434-2.18L17.414,18.588z"/>
  </g></svg>