<svg id="svg-source" height="0" version="1.1" 
  xmlns="http://www.w3.org/2000/svg" style="position:absolute; margin-left: -100%" 
  xmlns:xlink="http://www.w3.org/1999/xlink"><g xmlns="http://www.w3.org/2000/svg" id="menu-pull-down">
    <path id="menu-pull-down" d="M6,14h20v2H6V14z M6,10h20v2H6V10z M26,0H6C2.686,0,0,2.686,0,6v20c0,3.313,2.686,6,6,6
	h20c3.313,0,6-2.687,6-6V6C32,2.686,29.313,0,26,0z M28,26c0,1.106-0.894,2-2,2H6c-1.104,0-2-0.894-2-2V6c0-1.104,0.896-2,2-2h20
	c1.106,0,2,0.896,2,2V26z M6,6h20v2H6V6z M20,18c0.808,0,1.54,0.485,1.848,1.234c0.309,0.75,0.137,1.608-0.434,2.178l-4,4
	C17.024,25.802,16.512,26,16,26s-1.023-0.198-1.414-0.588l-4-3.998c-0.572-0.57-0.742-1.434-0.434-2.18
	C10.46,18.485,11.191,18,12,18H20z"/>
  </g></svg>