<svg id="svg-source" height="0" version="1.1" 
  xmlns="http://www.w3.org/2000/svg" style="position:absolute; margin-left: -100%" 
  xmlns:xlink="http://www.w3.org/1999/xlink"><g xmlns="http://www.w3.org/2000/svg" id="microphone-2">
    <path id="microphone-2" d="M18.287,17.143c0,0.631,0.514,1.144,1.143,1.144h5.713c0,2.982-1.914,5.492-4.57,6.437
	v-3.009c0-0.628-0.514-1.143-1.143-1.143s-1.143,0.515-1.143,1.143v8C18.287,30.979,17.262,32,16,32s-2.285-1.021-2.285-2.286v-8
	c0-0.628-0.512-1.143-1.143-1.143s-1.143,0.515-1.143,1.143v3.009c-2.659-0.944-4.572-3.454-4.572-6.437h5.715
	c0.631,0,1.143-0.513,1.143-1.144S13.203,16,12.572,16H6.857v-2.286h3.429c0.631,0,1.144-0.512,1.144-1.143
	s-0.513-1.143-1.144-1.143H6.857V9.143h5.715c0.631,0,1.143-0.512,1.143-1.143s-0.512-1.143-1.143-1.143H6.857l0,0
	c0-2.98,1.913-5.492,4.572-6.437v3.008c0,0.631,0.512,1.143,1.143,1.143s1.143-0.512,1.143-1.143V0h4.572v3.429
	c0,0.631,0.514,1.143,1.143,1.143s1.143-0.512,1.143-1.143V0.42c2.656,0.944,4.57,3.456,4.57,6.437l0,0H19.43
	c-0.629,0-1.143,0.512-1.143,1.143s0.514,1.143,1.143,1.143h5.713v2.286h-3.428c-0.629,0-1.143,0.512-1.143,1.143
	s0.514,1.143,1.143,1.143h3.428V16H19.43C18.801,16,18.287,16.512,18.287,17.143z M17.143,11.429h-2.285
	c-0.631,0-1.143,0.512-1.143,1.143s0.512,1.143,1.143,1.143h2.285c0.631,0,1.145-0.512,1.145-1.143S17.773,11.429,17.143,11.429z"/>
  </g></svg>