<svg id="svg-source" height="0" version="1.1" 
  xmlns="http://www.w3.org/2000/svg" style="position:absolute; margin-left: -100%" 
  xmlns:xlink="http://www.w3.org/1999/xlink"><g xmlns="http://www.w3.org/2000/svg" id="microphone">
    <path id="microphone" d="M16,32C9.374,32,4,26.628,4,20c0-1.106,0.896-2,2-2s2,0.894,2,2c0,4.418,3.582,8,8,8
	s8-3.582,8-8c0-1.106,0.894-2,2-2s2,0.894,2,2C28,26.628,22.626,32,16,32z M19,4c-0.55,0-1,0.448-1,1s0.45,1,1,1h3v2h-3
	c-0.55,0-1,0.448-1,1s0.45,1,1,1h3v2h-3c-0.55,0-1,0.448-1,1s0.45,1,1,1h3v2h-3c-0.55,0-1,0.448-1,1s0.45,1,1,1h3v2
	c0,3.312-2.688,6-6,6c-3.314,0-6-2.688-6-6v-2h3c0.553,0,1-0.448,1-1s-0.447-1-1-1h-3v-2h3c0.553,0,1-0.448,1-1s-0.447-1-1-1h-3v-2
	h3c0.553,0,1-0.448,1-1s-0.447-1-1-1h-3V6h3c0.553,0,1-0.448,1-1s-0.447-1-1-1h-2.633C11.193,1.674,13.393,0,16,0
	c2.61,0,4.806,1.674,5.632,4H19z"/>
  </g></svg>