<svg id="svg-source" height="0" version="1.1" 
  xmlns="http://www.w3.org/2000/svg" style="position:absolute; margin-left: -100%" 
  xmlns:xlink="http://www.w3.org/1999/xlink"><g xmlns="http://www.w3.org/2000/svg" id="mixer">
    <path id="mixer" d="M26,32H6c-3.314,0-6-2.688-6-6V6c0-3.314,2.686-6,6-6h20c3.313,0,6,2.686,6,6v20
	C32,29.312,29.313,32,26,32z M28,6c0-1.104-0.894-2-2-2H6C4.895,4,4,4.896,4,6v20c0,1.106,0.895,2,2,2h20c1.106,0,2-0.894,2-2V6z
	 M22,22v3c0,0.552-0.448,1-1,1s-1-0.448-1-1v-3c-1.106,0-2-0.894-2-2v-2c0-1.104,0.894-2,2-2V7c0-0.552,0.448-1,1-1s1,0.448,1,1v9
	c1.106,0,2,0.896,2,2v2C24,21.106,23.106,22,22,22z M12,16v9c0,0.552-0.447,1-1,1s-1-0.448-1-1v-9c-1.105,0-2-0.896-2-2v-2
	c0-1.104,0.895-2,2-2V7c0-0.552,0.447-1,1-1s1,0.448,1,1v3c1.105,0,2,0.896,2,2v2C14,15.104,13.105,16,12,16z"/>
  </g></svg>