<svg id="svg-source" height="0" version="1.1" 
  xmlns="http://www.w3.org/2000/svg" style="position:absolute; margin-left: -100%" 
  xmlns:xlink="http://www.w3.org/1999/xlink"><g xmlns="http://www.w3.org/2000/svg" id="newspaper">
    <path id="newspaper" d="M26,32H6c-3.314,0-6-2.687-6-6V0h24v2h4l0,0v2h2h2v22C32,29.313,29.313,32,26,32z M20,4H4v22
	c0,1.106,0.895,2,2,2h14V4z M30,6h-2v19c0,0.552-0.448,1-1,1s-1-0.448-1-1V4h-2v21c0,1.656,1.344,3,3,3s3-1.344,3-3V6z M6,24h6v2H6
	V24z M6,20h8v2H6V20z M18,22h-2v-2h2V22z M14,16h4v2h-4V16z M6,6h12v8H6V6z M12,18H6v-2h6V18z"/>
  </g></svg>