<svg id="svg-source" height="0" version="1.1" 
  xmlns="http://www.w3.org/2000/svg" style="position:absolute; margin-left: -100%" 
  xmlns:xlink="http://www.w3.org/1999/xlink"><g xmlns="http://www.w3.org/2000/svg" id="next">
    <path id="next" d="M1.408,29.019C0.541,28.551,0,27.651,0,26.667V5.333c0-0.984,0.544-1.888,1.41-2.352
	C2.277,2.517,3.328,2.57,4.146,3.114l16,10.667c0.741,0.496,1.187,1.325,1.187,2.219c0,0.891-0.445,1.723-1.188,2.219l-16,10.667
	C3.328,29.432,2.275,29.482,1.408,29.019z M24,29.333c-1.475,0-2.667-1.191-2.667-2.666V16V5.333c0-1.475,1.192-2.667,2.667-2.667
	h5.333C30.809,2.666,32,3.858,32,5.333v21.333c0,1.475-1.191,2.666-2.667,2.666H24z"/>
  </g></svg>