<svg id="svg-source" height="0" version="1.1" 
  xmlns="http://www.w3.org/2000/svg" style="position:absolute; margin-left: -100%" 
  xmlns:xlink="http://www.w3.org/1999/xlink"><g xmlns="http://www.w3.org/2000/svg" id="nib">
    <path id="nib" d="M28.958,12.958L19.011,3.01L22,0l10,10L28.958,12.958z M25.998,15.84
	c-0.068,0.066-0.122,0.103-0.187,0.16H24h-2l-2,8L4,32H2l6.359-6.36C8.861,25.868,9.414,26,10,26c2.208,0,4-1.792,4-4s-1.792-4-4-4
	s-4,1.792-4,4c0,0.586,0.133,1.138,0.359,1.64L0,30v-2l8-16l8-2V8V6.056c0.038-0.04,0.056-0.074,0.098-0.116l0.918-0.924
	l9.917,9.916L25.998,15.84z"/>
  </g></svg>