<svg id="svg-source" height="0" version="1.1" 
  xmlns="http://www.w3.org/2000/svg" style="position:absolute; margin-left: -100%" 
  xmlns:xlink="http://www.w3.org/1999/xlink"><g xmlns="http://www.w3.org/2000/svg" id="options">
    <path id="options" d="M28,24v-5.002l4-3V24c0,3.313-2.687,6-6,6H6c-3.312,0-6-2.687-6-6V14c0-3.312,2.688-6,6-6
	h1.521C6.5,9.272,5.678,10.708,5.08,12.252C4.447,12.588,4,13.234,4,14v10c0,1.106,0.896,2,2,2h20C27.106,26,28,25.106,28,24z
	 M20,14c-5.223,0-9.652,3.343-11.303,8C8.254,20.748,8,19.403,8,18c0-6.626,5.374-12,12-12V4c0-0.758,0.429-1.45,1.106-1.79
	C21.388,2.07,21.696,2,22,2c0.424,0,0.848,0.136,1.2,0.4l8,6C31.704,8.778,32,9.372,32,10c0,0.63-0.296,1.222-0.8,1.6l-8,6
	C22.848,17.864,22.424,18,22,18c-0.304,0-0.612-0.07-0.894-0.21C20.429,17.45,20,16.758,20,16V14z"/>
  </g></svg>