<svg id="svg-source" height="0" version="1.1" 
  xmlns="http://www.w3.org/2000/svg" style="position:absolute; margin-left: -100%" 
  xmlns:xlink="http://www.w3.org/1999/xlink"><g xmlns="http://www.w3.org/2000/svg" id="out">
    <path id="out" d="M26,0c3.313,0,6,2.686,6,6v20c0,3.313-2.687,6-6,6H6c-3.314,0-6-2.687-6-6v-3.519l1.758,1.758
	C2.4,24.882,3.168,25.34,4,25.634V26c0,1.106,0.896,2,2,2h20c1.106,0,2-0.894,2-2V6c0-1.104-0.894-2-2-2H6C4.896,4,4,4.896,4,6
	v0.364c-0.83,0.294-1.598,0.75-2.242,1.392L0,9.514V6c0-3.314,2.686-6,6-6H26z M6.766,10.15C7.512,10.458,8,11.19,8,11.998V14h6
	c1.105,0,2,0.896,2,2c0,1.106-0.895,2-2,2H8v1.998c0,0.808-0.488,1.54-1.234,1.849c-0.748,0.307-1.607,0.135-2.18-0.435l-4-4
	C0.195,17.022,0,16.511,0,15.998s0.195-1.024,0.586-1.414l4-4C5.158,10.012,6.018,9.842,6.766,10.15z"/>
  </g></svg>