<svg id="svg-source" height="0" version="1.1" 
  xmlns="http://www.w3.org/2000/svg" style="position:absolute; margin-left: -100%" 
  xmlns:xlink="http://www.w3.org/1999/xlink"><g xmlns="http://www.w3.org/2000/svg" id="outbox-2">
    <path id="outbox-2" d="M26,32H6c-3.314,0-6-2.687-6-6v-6l8-8h2v4H9.658L4,22h6v2c0,1.106,0.896,2,2,2h8
	c1.106,0,2-0.894,2-2v-2h6l-5.656-6H22v-4h2l8,8v6C32,29.313,29.313,32,26,32z M20,8h-2v6c0,1.104-0.894,2-2,2c-1.104,0-2-0.896-2-2
	V8h-2c-0.809,0-1.54-0.488-1.848-1.234c-0.309-0.748-0.137-1.608,0.434-2.18l4-4C14.977,0.196,15.488,0,16,0
	s1.024,0.196,1.414,0.586l4,4c0.571,0.572,0.742,1.432,0.434,2.18C21.54,7.512,20.808,8,20,8z"/>
  </g></svg>