<svg id="svg-source" height="0" version="1.1" 
  xmlns="http://www.w3.org/2000/svg" style="position:absolute; margin-left: -100%" 
  xmlns:xlink="http://www.w3.org/1999/xlink"><g xmlns="http://www.w3.org/2000/svg" id="outbox">
    <path id="outbox" d="M6.001,26.001l4-6H22l3.999,6H6.001z M12,8.002c-0.808,0-1.54-0.488-1.848-1.234
	c-0.075-0.188-0.124-0.382-0.142-0.576c-0.057-0.586,0.146-1.176,0.576-1.606l3.999-4C14.976,0.196,15.487,0,16,0
	c0.512,0,1.024,0.196,1.414,0.586l4,4c0.428,0.43,0.63,1.022,0.575,1.606c-0.018,0.194-0.063,0.388-0.142,0.576
	C21.54,7.514,20.808,8.002,20,8.002h-2v6c0,1.106-0.894,2-2,2c-1.104,0-2-0.895-2-2v-6H12z M25.999,0.002c3.314,0,6,2.686,6,6
	v19.999c0,3.313-2.686,5.999-6,5.999H6.001c-3.314,0-6-2.686-6-5.999V6.002c0-3.314,2.686-6,6-6h3.514L7.757,1.758
	C7.108,2.406,6.633,3.174,6.341,4.002h-0.34c-1.104,0-2,0.896-2,2v19.999c0,1.105,0.896,2,2,2h19.998c1.106,0,2-0.895,2-2V6.002
	c0-1.104-0.894-2-2-2h-0.342c-0.292-0.826-0.768-1.594-1.416-2.244l-1.756-1.756H25.999z"/>
  </g></svg>