<svg id="svg-source" height="0" version="1.1" 
  xmlns="http://www.w3.org/2000/svg" style="position:absolute; margin-left: -100%" 
  xmlns:xlink="http://www.w3.org/1999/xlink"><g xmlns="http://www.w3.org/2000/svg" id="outgoing-2">
    <path id="outgoing-2" d="M6,32c-3.314,0-6-2.687-6-6v-7.5l4,3V26c0,1.106,0.895,2,2,2h20c1.106,0,2-0.894,2-2V6
	c0-1.104-0.894-2-2-2h-8c0-1.442-0.39-2.808-1.078-4H26c3.312,0,6,2.688,6,6v20c0,3.313-2.688,6-6,6H6z M8.801,17.601l-8-6
	C0.296,11.222,0,10.628,0,10s0.296-1.222,0.801-1.6l8-6C9.152,2.136,9.576,2,10,2c0.305,0,0.611,0.07,0.895,0.21
	C11.572,2.55,12,3.242,12,4v2c7.731,0,14,6.268,14,14c0,1.39-0.21,2.731-0.588,4C23.692,18.218,18.34,14,12,14v0.086V16
	c0,0.758-0.428,1.45-1.105,1.79C10.611,17.93,10.305,18,10,18C9.576,18,9.152,17.864,8.801,17.601z"/>
  </g></svg>