<svg id="svg-source" height="0" version="1.1" 
  xmlns="http://www.w3.org/2000/svg" style="position:absolute; margin-left: -100%" 
  xmlns:xlink="http://www.w3.org/1999/xlink"><g xmlns="http://www.w3.org/2000/svg" id="outgoing">
    <path id="outgoing" d="M26,32H6c-3.312,0-6-2.687-6-6V6c0-3.314,2.688-6,6-6h9.078C14.389,1.192,14,2.558,14,4H6
	C4.895,4,4,4.896,4,6v20c0,1.106,0.895,2,2,2h20c1.106,0,2-0.894,2-2v-4.5l4-3V26C32,29.313,29.313,32,26,32z M23.2,17.601
	C22.848,17.864,22.424,18,22,18c-0.304,0-0.612-0.07-0.894-0.21C20.429,17.45,20,16.758,20,16v-1.916V14
	c-6.342,0-11.691,4.218-13.412,10C6.208,22.73,6,21.39,6,20c0-7.732,6.268-14,14-14V4c0-0.758,0.429-1.45,1.106-1.79
	C21.388,2.07,21.696,2,22,2c0.424,0,0.848,0.136,1.2,0.4l8,6C31.704,8.778,32,9.37,32,10s-0.296,1.222-0.8,1.6L23.2,17.601z"/>
  </g></svg>