<svg id="svg-source" height="0" version="1.1" 
  xmlns="http://www.w3.org/2000/svg" style="position:absolute; margin-left: -100%" 
  xmlns:xlink="http://www.w3.org/1999/xlink"><g xmlns="http://www.w3.org/2000/svg" id="paper-ripped">
    <path id="paper-ripped" d="M32,32L32,32l-4-4l-4,4l-4-4l-4,4l-4-4l-4,4l-4-4l-4,4l0,0l0,0V6c0-3.314,2.686-6,6-6h20
	c3.312,0,6,2.686,6,6V32L32,32z M28,18V6c0-1.104-0.894-2-2-2H6C4.896,4,4,4.896,4,6v12v4l4,4l4-4l4,4l4-4l4,4l4-4V18z M8,16h16v2H8
	V16z M8,12h16v2H8V12z M8,8h16v2H8V8z"/>
  </g></svg>