<svg id="svg-source" height="0" version="1.1" 
  xmlns="http://www.w3.org/2000/svg" style="position:absolute; margin-left: -100%" 
  xmlns:xlink="http://www.w3.org/1999/xlink"><g xmlns="http://www.w3.org/2000/svg" id="paragraph-center-2">
    <path id="paragraph-center-2" d="M26,32H6c-3.314,0-6-2.688-6-6V6c0-3.314,2.686-6,6-6h20c3.312,0,6,2.686,6,6v20
	C32,29.312,29.312,32,26,32z M28,6c0-1.104-0.894-2-2-2H6C4.896,4,4,4.896,4,6v20c0,1.106,0.896,2,2,2h20c1.106,0,2-0.894,2-2V6z
	 M10,10H8V8h2h12h2v2h-2H10z M20,12v2h-8v-2H20z M22,18H10v-2h12V18z M18,22h-4v-2h4V22z"/>
  </g></svg>