<svg id="svg-source" height="0" version="1.1" 
  xmlns="http://www.w3.org/2000/svg" style="position:absolute; margin-left: -100%" 
  xmlns:xlink="http://www.w3.org/1999/xlink"><g xmlns="http://www.w3.org/2000/svg" id="paragraph-right-2">
    <path id="paragraph-right-2" d="M26,32H6c-3.314,0-6-2.688-6-6V6c0-3.314,2.686-6,6-6h20c3.313,0,6,2.686,6,6v20
	C32,29.312,29.313,32,26,32z M28,6c0-1.104-0.894-2-2-2H6C4.896,4,4,4.896,4,6v20c0,1.106,0.896,2,2,2h20c1.106,0,2-0.894,2-2V6z
	 M18,20h6v2h-6V20z M14,16h10v2H14V16z M16,12h8v2h-8V12z M12,8h12v2H12V8z"/>
  </g></svg>