<svg id="svg-source" height="0" version="1.1" 
  xmlns="http://www.w3.org/2000/svg" style="position:absolute; margin-left: -100%" 
  xmlns:xlink="http://www.w3.org/1999/xlink"><g xmlns="http://www.w3.org/2000/svg" id="plus">
    <path id="plus" d="M26,32H6c-3.314,0-6-2.688-6-6V6c0-3.314,2.686-6,6-6h20c3.313,0,6,2.686,6,6v20
	C32,29.312,29.313,32,26,32z M28,6c0-1.104-0.894-2-2-2H6C4.895,4,4,4.896,4,6v20c0,1.106,0.895,2,2,2h20c1.106,0,2-0.894,2-2V6z
	 M22,18h-4v4c0,1.106-0.894,2-2,2c-1.105,0-2-0.894-2-2v-4h-4c-1.105,0-2-0.896-2-2c0-1.104,0.895-2,2-2h4v-4c0-1.104,0.895-2,2-2
	c1.106,0,2,0.896,2,2v4h4c1.106,0,2,0.896,2,2C24,17.104,23.106,18,22,18z"/>
  </g></svg>