<svg id="svg-source" height="0" version="1.1" 
  xmlns="http://www.w3.org/2000/svg" style="position:absolute; margin-left: -100%" 
  xmlns:xlink="http://www.w3.org/1999/xlink"><g xmlns="http://www.w3.org/2000/svg" id="podcast">
    <path id="podcast" d="M24,29.843V28c0-0.954-0.196-1.854-0.5-2.702C26.222,23.101,28,19.774,28,16
	c0-6.626-5.374-12-12-12S4,9.374,4,16c0,3.774,1.777,7.101,4.5,9.298C8.195,26.146,8,27.046,8,28v1.843C3.223,27.074,0,21.918,0,16
	C0,7.164,7.164,0,16,0s16,7.164,16,16C32,21.918,28.778,27.074,24,29.843z M16,6c5.524,0,10,4.476,10,10
	c0,2.988-1.336,5.638-3.412,7.47c-0.776-1.123-1.842-2.018-3.076-2.623C21.015,19.754,22,17.998,22,16c0-3.314-2.687-6-6-6
	c-3.314,0-6,2.686-6,6c0,1.998,0.986,3.754,2.488,4.847c-1.234,0.607-2.301,1.5-3.076,2.623C7.336,21.638,6,18.988,6,16
	C6,10.476,10.477,6,16,6z M12,16c0-2.208,1.792-4,4-4s4,1.792,4,4s-1.792,4-4,4S12,18.208,12,16z M16,22c3.313,0,6,2.687,6,6v4H10
	v-4C10,24.687,12.686,22,16,22z"/>
  </g></svg>