<svg id="svg-source" height="0" version="1.1" 
  xmlns="http://www.w3.org/2000/svg" style="position:absolute; margin-left: -100%" 
  xmlns:xlink="http://www.w3.org/1999/xlink"><g xmlns="http://www.w3.org/2000/svg" id="podcast-2">
    <path id="podcast-2" d="M25.898,8.103c-5.467-5.468-14.331-5.468-19.797,0l-2.83-2.83
	c7.029-7.03,18.428-7.03,25.457,0L25.898,8.103z M10.344,12.344l-2.828-2.83c4.686-4.686,12.283-4.686,16.967,0l-2.826,2.83
	C18.533,9.219,13.465,9.219,10.344,12.344z M25.998,30c0,1.105-0.893,2-2,2H8c-1.107,0-2-0.895-2-2v-2
	c0.58-2.851,2.569-5.261,5.012-6.668C10.375,20.377,10,19.235,10,18c0-3.314,2.686-6,6-6c3.312,0,6,2.686,6,6
	c0,1.234-0.377,2.377-1.012,3.332c2.441,1.407,4.43,3.817,5.01,6.668V30z M16,16c-1.107,0-2.001,0.894-2.001,2
	c0,1.105,0.894,2,2.001,2c1.105,0,2-0.895,2-2C18,16.894,17.105,16,16,16z M21.631,28c-0.826-2.324-3.021-4-5.631-4
	c-2.611,0-4.807,1.676-5.633,4H21.631z"/>
  </g></svg>