<svg id="svg-source" height="0" version="1.1" 
  xmlns="http://www.w3.org/2000/svg" style="position:absolute; margin-left: -100%" 
  xmlns:xlink="http://www.w3.org/1999/xlink"><g xmlns="http://www.w3.org/2000/svg" id="polaroid">
    <path id="polaroid" d="M26,32H6c-3.314,0-6-2.688-6-6V6c0-3.314,2.686-6,6-6h20c3.313,0,6,2.686,6,6v20
	C32,29.312,29.313,32,26,32z M28,6c0-1.104-0.894-2-2-2H6C4.896,4,4,4.896,4,6v18h24V6z M13.111,14.756
	C12.426,14.038,12,13.072,12,12v-2c0-2.208,1.792-4,4-4s4,1.792,4,4v2c0,1.072-0.426,2.038-1.112,2.756
	c1.57,0.868,2.807,2.41,3.112,4.244l0,0c0,1.656-1.344,3-3,3h-6c-1.658,0-3-1.344-3-3l0,0
	C10.311,17.166,11.544,15.624,13.111,14.756z"/>
  </g></svg>