<svg id="svg-source" height="0" version="1.1" 
  xmlns="http://www.w3.org/2000/svg" style="position:absolute; margin-left: -100%" 
  xmlns:xlink="http://www.w3.org/1999/xlink"><g xmlns="http://www.w3.org/2000/svg" id="polaroid-2">
    <path id="polaroid-2" d="M26,32H6c-3.314,0-6-2.688-6-6V6c0-3.314,2.686-6,6-6h20c3.313,0,6,2.686,6,6v20
	C32,29.312,29.313,32,26,32z M28,6c0-1.104-0.894-2-2-2H6C4.895,4,4,4.896,4,6v18h24V6z M13.111,14.756
	C12.426,14.04,12,13.072,12,12v-2c0-2.208,1.792-4,4-4s4,1.792,4,4v2c0,1.072-0.426,2.04-1.112,2.756
	c1.57,0.868,2.805,2.41,3.112,4.244l0,0c0,1.656-1.344,3-3,3h-6c-1.656,0-3-1.344-3-3l0,0
	C10.309,17.166,11.542,15.624,13.111,14.756z M18,10c0-1.104-0.894-2-2-2c-1.105,0-2,0.896-2,2v2c0,1.104,0.895,2,2,2
	c1.106,0,2-0.896,2-2V10z M13,20h6c0.552,0,1-0.448,1-1l0,0c-0.448-1.722-2.138-3-4-3c-1.861,0-3.553,1.278-4,3l0,0
	C12,19.552,12.447,20,13,20z"/>
  </g></svg>