<svg id="svg-source" height="0" version="1.1" 
  xmlns="http://www.w3.org/2000/svg" style="position:absolute; margin-left: -100%" 
  xmlns:xlink="http://www.w3.org/1999/xlink"><g xmlns="http://www.w3.org/2000/svg" id="power">
    <path id="power" d="M16,32C8.268,32,2,25.731,2,18c0-5.574,3.281-10.332,8-12.572v4.614C7.58,11.864,6,14.738,6,18
	c0,5.524,4.477,10,10,10c5.524,0,10-4.476,10-10c0-3.262-1.58-6.136-4-7.958V5.428c4.718,2.242,8,7,8,12.572
	C30,25.731,23.731,32,16,32z M18,14c0,1.104-0.894,2-2,2c-1.105,0-2-0.896-2-2V2c0-1.104,0.895-2,2-2c1.106,0,2,0.896,2,2V14z"/>
  </g></svg>