<svg id="svg-source" height="0" version="1.1" 
  xmlns="http://www.w3.org/2000/svg" style="position:absolute; margin-left: -100%" 
  xmlns:xlink="http://www.w3.org/1999/xlink"><g xmlns="http://www.w3.org/2000/svg" id="previous">
    <path id="previous" d="M30.592,29.019c-0.866,0.463-1.92,0.413-2.736-0.134l-16-10.667
	c-0.744-0.496-1.189-1.328-1.189-2.219c0-0.894,0.445-1.723,1.188-2.219l16-10.667c0.818-0.544,1.869-0.597,2.736-0.133
	S32,4.349,32,5.333v21.333C32,27.651,31.458,28.551,30.592,29.019z M8,29.333H2.666C1.191,29.333,0,28.141,0,26.667V5.333
	c0-1.475,1.191-2.667,2.666-2.667H8c1.475,0,2.666,1.192,2.666,2.667V16v10.667C10.666,28.141,9.475,29.333,8,29.333z"/>
  </g></svg>