<svg id="svg-source" height="0" version="1.1" 
  xmlns="http://www.w3.org/2000/svg" style="position:absolute; margin-left: -100%" 
  xmlns:xlink="http://www.w3.org/1999/xlink"><g xmlns="http://www.w3.org/2000/svg" id="pull">
    <path id="pull" d="M32,26c0,3.313-2.688,6-6,6s-6-2.687-6-6c0-2.61,1.676-4.806,4-5.632V10c0-1.106-0.894-2-2-2
	v1.998c0,0.808-0.488,1.54-1.234,1.848c-0.747,0.31-1.608,0.138-2.18-0.432l-4-4.002C14.195,7.022,14,6.512,14,5.998
	c0-0.51,0.195-1.022,0.586-1.412l4-4c0.571-0.572,1.433-0.742,2.18-0.434C21.512,0.46,22,1.19,22,1.998V4c3.312,0,6,2.686,6,6
	v10.368C30.324,21.194,32,23.39,32,26z M26,24c-1.106,0-2,0.894-2,2s0.894,2,2,2s2-0.894,2-2S27.106,24,26,24z M12,26
	c0,3.313-2.686,6-6,6s-6-2.687-6-6c0-2.61,1.674-4.806,4-5.632v-8.736C1.674,10.806,0,8.61,0,6c0-3.314,2.686-6,6-6s6,2.686,6,6
	c0,2.61-1.674,4.806-4,5.632v8.734C10.326,21.194,12,23.39,12,26z M6,4C4.896,4,4,4.894,4,6s0.896,2,2,2s2-0.894,2-2S7.104,4,6,4z
	 M6,24c-1.104,0-2,0.894-2,2s0.896,2,2,2s2-0.894,2-2S7.104,24,6,24z"/>
  </g></svg>