<svg id="svg-source" height="0" version="1.1" 
  xmlns="http://www.w3.org/2000/svg" style="position:absolute; margin-left: -100%" 
  xmlns:xlink="http://www.w3.org/1999/xlink"><g xmlns="http://www.w3.org/2000/svg" id="quill">
    <path id="quill" d="M26,12c3.313,0,6-2.686,6-6s-2.687-6-6-6l0,0C8,0,0,30,0,30v1c0,0.552,0.447,1,1,1s1-0.448,1-1
	v-1c1.275-3.828,4.38-7.648,8.016-11.082C10.016,18.948,10,18.97,10,19c0,1.656,1.342,3,3,3s3-1.344,3-3
	c0-0.504-0.156-0.958-0.376-1.376C16.042,17.844,16.496,18,17,18c1.656,0,3-1.344,3-3c0-0.504-0.156-0.958-0.376-1.376
	C20.042,13.844,20.494,14,21,14c1.454,0,2.608-1.052,2.882-2.424C24.542,11.832,25.248,12,26,12z"/>
  </g></svg>