<svg id="svg-source" height="0" version="1.1" 
  xmlns="http://www.w3.org/2000/svg" style="position:absolute; margin-left: -100%" 
  xmlns:xlink="http://www.w3.org/1999/xlink"><g xmlns="http://www.w3.org/2000/svg" id="refresh">
    <path id="refresh" d="M31.826,17.411c0.354,0.854,0.157,1.837-0.496,2.49l-4.571,4.572
	c-0.445,0.445-1.031,0.669-1.616,0.669s-1.17-0.224-1.616-0.669l-4.571-4.572c-0.653-0.653-0.848-1.637-0.495-2.49
	C18.811,16.558,19.648,16,20.571,16h2.286c0-5.049-4.094-9.143-9.143-9.143c-5.05,0-9.144,4.094-9.144,9.143
	c0,5.049,4.094,9.143,9.144,9.143c1.19,0,2.317-0.242,3.361-0.656l3.447,3.406c-2.007,1.152-4.329,1.821-6.809,1.821
	C6.142,29.714,0,23.573,0,16C0,8.427,6.142,2.286,13.715,2.286c7.572,0,13.714,6.142,13.714,13.714h2.285
	C30.638,16,31.475,16.558,31.826,17.411z"/>
  </g></svg>