<svg id="svg-source" height="0" version="1.1" 
  xmlns="http://www.w3.org/2000/svg" style="position:absolute; margin-left: -100%" 
  xmlns:xlink="http://www.w3.org/1999/xlink"><g xmlns="http://www.w3.org/2000/svg" id="reminder">
    <path id="reminder" d="M28,13.254V6c0-1.104-0.894-2-2-2H10C8.895,4,8,4.896,8,6v20c0,1.106,0.895,2,2,2h3.254
	c0.82,1.597,1.99,2.976,3.45,4H10c-3.314,0-6-2.688-6-6l0,0H2c-1.105,0-2-0.894-2-2s0.895-2,2-2h2v-4H2c-1.105,0-2-0.896-2-2
	c0-1.104,0.895-2,2-2h2v-4H2c-1.105,0-2-0.896-2-2s0.895-2,2-2h2l0,0c0-3.314,2.686-6,6-6h16c3.313,0,6,2.686,6,6v10.704
	C30.976,15.244,29.597,14.076,28,13.254z M10,14h6.704c-0.804,0.562-1.498,1.25-2.124,2H10V14z M10,18h3.254
	c-0.326,0.634-0.588,1.3-0.787,2H10V18z M10,24v-2h2.102C12.07,22.336,12,22.656,12,23s0.07,0.666,0.102,1H10z M10,6h16v2H10V6z
	 M26,12H10v-2h16V12z M14,23c0-4.97,4.03-9,9-9s9,4.03,9,9s-4.03,9-9,9S14,27.97,14,23z M23,28c2.762,0,5-2.238,5-5s-2.238-5-5-5
	s-5,2.238-5,5S20.238,28,23,28z M23,20c0.552,0,1,0.45,1,1v1h1c0.552,0,1,0.45,1,1c0,0.552-0.448,1-1,1h-2c-0.552,0-1-0.448-1-1v-2
	C22,20.45,22.448,20,23,20z"/>
  </g></svg>