<svg id="svg-source" height="0" version="1.1" 
  xmlns="http://www.w3.org/2000/svg" style="position:absolute; margin-left: -100%" 
  xmlns:xlink="http://www.w3.org/1999/xlink"><g xmlns="http://www.w3.org/2000/svg" id="repeat-2">
    <path id="repeat-2" d="M31.848,13.234C31.541,12.488,30.809,12,30,12h-2v-2c0-3.314-2.686-6-6-6H10
	C7.289,4,5.023,5.81,4.281,8.28C4.834,8.114,5.405,8,6,8c0.907,0,1.777,0.222,2.573,0.602C8.938,8.232,9.439,8,10,8h12
	c1.105,0,2,0.896,2,2v2h-2c-0.809,0-1.541,0.488-1.848,1.234c-0.309,0.748-0.139,1.608,0.434,2.18l4,4
	C24.977,19.804,25.488,20,26,20s1.023-0.196,1.414-0.586l4-4C31.986,14.842,32.158,13.982,31.848,13.234z M23.426,23.398
	C23.062,23.769,22.561,24,22,24H10c-1.104,0-2-0.894-2-2v-2h2c0.808,0,1.539-0.488,1.848-1.234c0.31-0.747,0.138-1.608-0.434-2.18
	l-4-4C7.023,12.196,6.512,12,6,12c-0.513,0-1.024,0.196-1.414,0.586l-4,4c-0.572,0.571-0.742,1.433-0.435,2.18
	C0.459,19.512,1.191,20,2,20h2v2c0,3.314,2.686,6,6,6h12c2.713,0,4.977-1.81,5.719-4.28C27.166,23.886,26.594,24,26,24
	C25.092,24,24.223,23.78,23.426,23.398z"/>
  </g></svg>