<svg id="svg-source" height="0" version="1.1" 
  xmlns="http://www.w3.org/2000/svg" style="position:absolute; margin-left: -100%" 
  xmlns:xlink="http://www.w3.org/1999/xlink"><g xmlns="http://www.w3.org/2000/svg" id="repeat">
    <path id="repeat" d="M26,8c3.313,0,6,2.688,6,6v8c0,3.314-2.687,6-6,6H6c-3.314,0-6-2.686-6-6v-8
	c0-3.312,2.686-6,6-6h8V6.001c0-0.808,0.488-1.54,1.234-1.848c0.748-0.31,1.608-0.14,2.18,0.434l4,3.998
	C21.804,8.975,22,9.487,22,10c0,0.512-0.196,1.024-0.586,1.414l-4,4c-0.57,0.572-1.432,0.742-2.18,0.434
	C14.488,15.54,14,14.807,14,14v-2H6c-1.104,0-2,0.894-2,2v8c0,1.106,0.896,2,2,2h20c1.106,0,2-0.894,2-2v-8c0-1.106-0.894-2-2-2
	h-0.364C25.862,11.363,26,10.695,26,10c0-0.696-0.138-1.364-0.364-2H26z"/>
  </g></svg>