<svg id="svg-source" height="0" version="1.1" 
  xmlns="http://www.w3.org/2000/svg" style="position:absolute; margin-left: -100%" 
  xmlns:xlink="http://www.w3.org/1999/xlink"><g xmlns="http://www.w3.org/2000/svg" id="reply">
    <path id="reply" d="M31.202,28.571c-1.884-5.323-6.948-9.143-12.916-9.143V24c0,0.844-0.465,1.616-1.207,2.017
	c-0.743,0.397-1.646,0.354-2.346-0.115L1.02,16.759C0.382,16.333,0,15.62,0,14.857c0-0.764,0.382-1.477,1.018-1.902l13.714-9.143
	c0.702-0.466,1.602-0.512,2.345-0.114c0.744,0.398,1.21,1.173,1.21,2.016v4.571C25.858,10.286,32,16.427,32,24
	C32,25.604,31.71,27.141,31.202,28.571z"/>
  </g></svg>