<svg id="svg-source" height="0" version="1.1" 
  xmlns="http://www.w3.org/2000/svg" style="position:absolute; margin-left: -100%" 
  xmlns:xlink="http://www.w3.org/1999/xlink"><g xmlns="http://www.w3.org/2000/svg" id="reply-all">
    <path id="reply-all" d="M24,12c4.418,0,8,3.582,8,8c0,1.464-0.422,2.818-1.11,4c-1.386-2.38-3.936-4-6.89-4v4
	c0,0.738-0.406,1.414-1.058,1.765c-0.65,0.348-1.438,0.31-2.053-0.101l-11.999-8C8.334,17.292,8,16.667,8,16
	s0.334-1.292,0.893-1.664l11.999-8c0.612-0.408,1.402-0.448,2.053-0.1C23.594,6.583,24,7.262,24,8V12z M6,16
	c0,1.343,0.666,2.584,1.779,3.33l8.072,5.38c-0.17,0.44-0.479,0.822-0.91,1.055c-0.649,0.348-1.438,0.31-2.051-0.101l-12-8
	C0.334,17.292,0,16.667,0,16s0.334-1.292,0.893-1.664l12-8c0.611-0.408,1.401-0.448,2.051-0.1c0.431,0.23,0.74,0.612,0.91,1.056
	l-8.072,5.38C6.666,13.416,6,14.66,6,16z"/>
  </g></svg>