<svg id="svg-source" height="0" version="1.1" 
  xmlns="http://www.w3.org/2000/svg" style="position:absolute; margin-left: -100%" 
  xmlns:xlink="http://www.w3.org/1999/xlink"><g xmlns="http://www.w3.org/2000/svg" id="return">
    <path id="return" d="M26,4c3.313,0,6,2.686,6,6v8c0,3.313-2.687,6-6,6H8v2c0,0.808-0.488,1.54-1.234,1.848
	c-0.748,0.309-1.607,0.137-2.18-0.434l-4-4C0.195,23.024,0,22.512,0,22s0.195-1.024,0.586-1.414l4-4
	c0.572-0.572,1.432-0.742,2.18-0.434C7.512,16.459,8,17.192,8,18v2h18c1.106,0,2-0.895,2-2v-8c0-1.104-0.894-2-2-2H10
	C8.896,8,8,7.104,8,6c0-1.104,0.896-2,2-2H26z"/>
  </g></svg>