<svg id="svg-source" height="0" version="1.1" 
  xmlns="http://www.w3.org/2000/svg" style="position:absolute; margin-left: -100%" 
  xmlns:xlink="http://www.w3.org/1999/xlink"><g xmlns="http://www.w3.org/2000/svg" id="revert">
    <path id="revert" d="M20,12v2h2c1.105,0,2,0.894,2,2c0,1.106-0.895,2-2,2h-4c-1.107,0-2-0.894-2-2v-4
	c0-1.106,0.893-2,2-2C19.105,10,20,10.894,20,12z M18,30c-4.328,0-8.198-1.966-10.767-5.052c0.058-0.045,0.126-0.066,0.181-0.12
	l2.813-2.608C12.058,24.508,14.842,26,18,26c5.523,0,10-4.476,10-10c0-5.522-4.477-10-10-10c-4.838,0-8.873,3.436-9.799,8H10
	c0.808,0,1.539,0.488,1.848,1.234c0.308,0.75,0.136,1.609-0.434,2.18l-4,4C7.023,21.804,6.512,22,6,22
	c-0.513,0-1.024-0.196-1.414-0.586l-4-4c-0.572-0.57-0.742-1.434-0.435-2.18C0.459,14.488,1.191,14,2,14h2.16
	C5.129,7.218,10.947,2,18,2c7.732,0,14,6.268,14,14C32,23.731,25.732,30,18,30z"/>
  </g></svg>