<svg id="svg-source" height="0" version="1.1" 
  xmlns="http://www.w3.org/2000/svg" style="position:absolute; margin-left: -100%" 
  xmlns:xlink="http://www.w3.org/1999/xlink"><g xmlns="http://www.w3.org/2000/svg" id="rewind">
    <path id="rewind" d="M30.944,25.764c-0.65,0.348-1.44,0.31-2.053-0.101l-12-8C16.334,17.292,16,16.667,16,16
	c0-0.67,0.334-1.292,0.89-1.664l12-8c0.614-0.408,1.402-0.448,2.053-0.1C31.593,6.583,32,7.262,32,8v16
	C32,24.738,31.594,25.414,30.944,25.764z M14.943,25.764c-0.649,0.348-1.439,0.31-2.051-0.101l-12-8C0.334,17.292,0,16.667,0,16
	c0-0.67,0.334-1.292,0.891-1.664l12-8c0.613-0.408,1.401-0.448,2.051-0.1C15.592,6.583,16,7.262,16,8v8v8
	C16,24.738,15.594,25.414,14.943,25.764z"/>
  </g></svg>