<svg id="svg-source" height="0" version="1.1" 
  xmlns="http://www.w3.org/2000/svg" style="position:absolute; margin-left: -100%" 
  xmlns:xlink="http://www.w3.org/1999/xlink"><g xmlns="http://www.w3.org/2000/svg" id="safe">
    <path id="safe" d="M5,12c0.553,0,1-0.448,1-1s-0.447-1-1-1s-1,0.448-1,1S4.447,12,5,12z M5,20c-0.553,0-1,0.448-1,1
	s0.447,1,1,1s1-0.448,1-1S5.553,20,5,20z M26,0H6C2.686,0,0,2.686,0,6v20c0,3.313,2.686,6,6,6h20c3.312,0,6-2.687,6-6V6
	C32,2.686,29.312,0,26,0z M28,26c0,1.106-0.894,2-2,2H6c-1.104,0-2-0.894-2-2v-2c-1.104,0-2-0.894-2-2v-2c0-1.104,0.896-2,2-2v-4
	c-1.104,0-2-0.894-2-2v-2c0-1.104,0.896-2,2-2V6c0-1.104,0.896-2,2-2h20c1.106,0,2,0.896,2,2V26z M24,6H8C6.896,6,6,6.896,6,8
	c1.104,0,2,0.896,2,2v2c0,1.106-0.896,2-2,2v4c1.104,0,2,0.896,2,2v2c0,1.106-0.896,2-2,2c0,1.106,0.896,2,2,2h16
	c1.106,0,2-0.894,2-2V8C26,6.896,25.106,6,24,6z M16,22c-3.314,0-6-2.687-6-6c0-3.314,2.686-6,6-6c3.312,0,6,2.686,6,6
	C22,19.313,19.312,22,16,22z M16,12c-2.208,0-4,1.792-4,4s1.792,4,4,4s4-1.792,4-4S18.208,12,16,12z"/>
  </g></svg>