<svg id="svg-source" height="0" version="1.1" 
  xmlns="http://www.w3.org/2000/svg" style="position:absolute; margin-left: -100%" 
  xmlns:xlink="http://www.w3.org/1999/xlink"><g xmlns="http://www.w3.org/2000/svg" id="search">
    <path id="search" d="M31.119,26.869l-7.043-7.042c1.227-1.985,1.967-4.301,1.967-6.806
	C26.043,5.83,20.213,0,13.021,0S0,5.83,0,13.021c0,7.192,5.83,13.021,13.021,13.021c2.504,0,4.82-0.74,6.803-1.965l7.045,7.041
	c1.174,1.175,3.074,1.175,4.25,0C32.293,29.945,32.293,28.043,31.119,26.869z M13.021,22.037c-4.979,0-9.015-4.037-9.015-9.016
	c0-4.978,4.036-9.015,9.015-9.015s9.016,4.037,9.016,9.015C22.037,18,18,22.037,13.021,22.037z"/>
  </g></svg>