<svg id="svg-source" height="0" version="1.1" 
  xmlns="http://www.w3.org/2000/svg" style="position:absolute; margin-left: -100%" 
  xmlns:xlink="http://www.w3.org/1999/xlink"><g xmlns="http://www.w3.org/2000/svg" id="section">
    <path id="section" d="M16,8c2.208,0,4.208,0.896,5.656,2.344C23.106,11.792,24,13.792,24,16
	c0,2.624-1.282,4.934-3.234,6.39C21.53,23.398,22,24.64,22,26c0,3.312-2.688,6-6,6c-3.314,0-6-2.688-6-6h4c0,1.106,0.896,2,2,2
	c1.104,0,2-0.894,2-2s-0.896-2-2-2c-2.208,0-4.208-0.894-5.658-2.344C8.896,20.208,8,18.208,8,16c0-2.624,1.281-4.932,3.234-6.392
	C10.471,8.602,10,7.362,10,6c0-3.314,2.686-6,6-6c3.312,0,6,2.686,6,6h-4c0-1.104-0.896-2-2-2c-1.104,0-2,0.896-2,2S14.896,8,16,8z
	 M12,16c0,2.208,1.792,4,4,4s4-1.792,4-4s-1.792-4-4-4S12,13.792,12,16z"/>
  </g></svg>