<svg id="svg-source" height="0" version="1.1" 
  xmlns="http://www.w3.org/2000/svg" style="position:absolute; margin-left: -100%" 
  xmlns:xlink="http://www.w3.org/1999/xlink"><g xmlns="http://www.w3.org/2000/svg" id="settings-2">
    <path id="settings-2" d="M30,14h-2c-0.07,0-0.128,0.034-0.198,0.04c-0.304-1.846-1.018-3.544-2.062-5.004
	c0.051-0.042,0.112-0.058,0.16-0.106l1.414-1.414c0.783-0.782,0.783-2.046,0-2.828c-0.781-0.782-2.048-0.782-2.829,0L23.07,6.1
	c-0.046,0.046-0.064,0.11-0.106,0.16c-1.458-1.046-3.158-1.758-5.004-2.062C17.966,4.128,18,4.07,18,4V2c0-1.104-0.894-2-2-2
	c-1.105,0-2,0.896-2,2v2c0,0.07,0.033,0.128,0.04,0.198c-1.847,0.304-3.546,1.016-5.004,2.062C8.994,6.21,8.977,6.148,8.93,6.1
	L7.516,4.686c-0.781-0.782-2.047-0.782-2.83,0c-0.779,0.782-0.779,2.046,0,2.828l1.416,1.414C6.148,8.976,6.208,8.994,6.26,9.036
	c-1.046,1.46-1.758,3.158-2.062,5.004C4.128,14.034,4.07,14,4,14H2c-1.105,0-2,0.896-2,2c0,1.104,0.895,2,2,2h2
	c0.07,0,0.128-0.032,0.197-0.04c0.305,1.846,1.02,3.544,2.062,5.004c-0.05,0.042-0.111,0.059-0.158,0.106l-1.416,1.414
	c-0.779,0.781-0.779,2.048,0,2.827c0.783,0.782,2.049,0.782,2.83,0l1.414-1.413c0.047-0.047,0.064-0.11,0.106-0.16
	c1.458,1.046,3.157,1.758,5.004,2.063C14.033,27.872,14,27.93,14,28v2c0,1.106,0.895,2,2,2c1.106,0,2-0.894,2-2v-2
	c0-0.07-0.034-0.128-0.04-0.198c1.846-0.306,3.544-1.018,5.004-2.063c0.042,0.05,0.059,0.113,0.106,0.16l1.414,1.413
	c0.781,0.782,2.048,0.782,2.829,0c0.783-0.779,0.783-2.046,0-2.827l-1.414-1.414c-0.048-0.046-0.109-0.062-0.16-0.106
	c1.045-1.46,1.759-3.158,2.062-5.004C27.872,17.968,27.93,18,28,18h2c1.106,0,2-0.896,2-2C32,14.896,31.106,14,30,14z M16,22
	c-3.314,0-6-2.688-6-6c0-3.314,2.686-6,6-6c3.313,0,6,2.686,6,6C22,19.312,19.313,22,16,22z"/>
  </g></svg>