<svg id="svg-source" height="0" version="1.1" 
  xmlns="http://www.w3.org/2000/svg" style="position:absolute; margin-left: -100%" 
  xmlns:xlink="http://www.w3.org/1999/xlink"><g xmlns="http://www.w3.org/2000/svg" id="settings-4">
    <path id="settings-4" d="M16,0C7.164,0,0,7.164,0,16s7.164,16,16,16s16-7.164,16-16S24.836,0,16,0z M26,18h-2.284
	c-0.188,0.726-0.477,1.407-0.848,2.042l1.617,1.615c0.78,0.783,0.78,2.049,0,2.831c-0.781,0.78-2.047,0.78-2.829,0L20.04,22.87
	c-0.633,0.369-1.314,0.66-2.04,0.846V26c0,1.106-0.894,2-2,2c-1.105,0-2-0.894-2-2v-2.284c-0.727-0.188-1.408-0.477-2.042-0.848
	l-1.616,1.617c-0.781,0.78-2.048,0.78-2.828,0c-0.781-0.781-0.781-2.047,0-2.829L9.13,20.04C8.76,19.407,8.471,18.726,8.283,18H6
	c-1.105,0-2-0.894-2-2c0-1.106,0.895-2,2-2h2.283c0.188-0.726,0.477-1.408,0.847-2.042l-1.614-1.614
	c-0.781-0.782-0.781-2.048,0-2.828c0.78-0.782,2.047-0.782,2.828,0l1.616,1.616C12.592,8.76,13.273,8.47,14,8.284V6
	c0-1.106,0.895-2,2-2c1.106,0,2,0.894,2,2v2.284c0.726,0.188,1.407,0.477,2.042,0.849l1.615-1.616c0.783-0.782,2.049-0.782,2.831,0
	c0.78,0.78,0.78,2.046,0,2.828L22.87,11.96c0.369,0.632,0.66,1.314,0.846,2.04H26c1.106,0,2,0.894,2,2C28,17.106,27.106,18,26,18z
	 M16,12c-2.208,0-4,1.792-4,4s1.792,4,4,4s4-1.792,4-4S18.208,12,16,12z"/>
  </g></svg>