<svg id="svg-source" height="0" version="1.1" 
  xmlns="http://www.w3.org/2000/svg" style="position:absolute; margin-left: -100%" 
  xmlns:xlink="http://www.w3.org/1999/xlink"><g xmlns="http://www.w3.org/2000/svg" id="settings-3">
    <path id="settings-3" d="M30,22c1.106,0,2,0.894,2,2s-0.894,2-2,2h-0.368c-0.07,0.196-0.144,0.386-0.232,0.571
	l0.257,0.257c0.782,0.782,0.782,2.046,0,2.828s-2.046,0.782-2.828,0l-0.257-0.257c-0.186,0.089-0.375,0.162-0.571,0.232V30
	c0,1.106-0.894,2-2,2s-2-0.894-2-2v-0.368c-0.196-0.07-0.386-0.144-0.571-0.232l-0.257,0.257c-0.782,0.782-2.046,0.782-2.828,0
	s-0.782-2.046,0-2.828l0.257-0.257c-0.089-0.186-0.162-0.375-0.232-0.571H18c-1.106,0-2-0.894-2-2s0.894-2,2-2h0.368
	c0.07-0.196,0.144-0.386,0.232-0.571l-0.257-0.257c-0.782-0.782-0.782-2.046,0-2.828s2.046-0.782,2.828,0l0.257,0.257
	c0.186-0.089,0.375-0.162,0.571-0.232V18c0-1.104,0.894-2,2-2s2,0.896,2,2v0.368c0.196,0.07,0.386,0.144,0.571,0.232l0.257-0.257
	c0.782-0.782,2.046-0.782,2.828,0s0.782,2.046,0,2.828l-0.257,0.257c0.089,0.186,0.162,0.375,0.232,0.571H30z M24,20
	c-2.208,0-4,1.792-4,4s1.792,4,4,4s4-1.792,4-4S26.208,20,24,20z M18,12h-0.284c-0.186,0.728-0.477,1.41-0.848,2.04l0.203,0.202
	c0.783,0.783,0.783,2.048,0,2.829c-0.781,0.781-2.046,0.781-2.827,0l-0.204-0.202c-0.63,0.371-1.312,0.662-2.04,0.848V18
	c0,1.106-0.896,2-2,2s-2-0.894-2-2v-0.284c-0.729-0.186-1.41-0.477-2.04-0.848L5.758,17.07c-0.781,0.781-2.048,0.781-2.83,0
	c-0.781-0.78-0.781-2.046,0-2.829l0.205-0.202c-0.375-0.63-0.66-1.312-0.85-2.04H2c-1.104,0-2-0.896-2-2s0.896-2,2-2h0.283
	c0.189-0.728,0.477-1.41,0.85-2.04L2.928,5.758c-0.781-0.782-0.781-2.048,0-2.83c0.782-0.782,2.049-0.782,2.83,0L5.96,3.132
	C6.59,2.758,7.271,2.472,8,2.284V2c0-1.104,0.896-2,2-2s2,0.896,2,2v0.284c0.729,0.188,1.41,0.477,2.04,0.849l0.202-0.204
	c0.781-0.782,2.046-0.782,2.828,0c0.781,0.782,0.781,2.048,0,2.83L16.868,5.96C17.239,6.59,17.53,7.272,17.716,8H18
	c1.106,0,2,0.896,2,2S19.106,12,18,12z M10,6c-2.208,0-4,1.792-4,4s1.792,4,4,4s4-1.792,4-4S12.208,6,10,6z"/>
  </g></svg>