<svg id="svg-source" height="0" version="1.1" 
  xmlns="http://www.w3.org/2000/svg" style="position:absolute; margin-left: -100%" 
  xmlns:xlink="http://www.w3.org/1999/xlink"><g xmlns="http://www.w3.org/2000/svg" id="shuffle">
    <path id="shuffle" d="M2,10.002c-1.104,0-2-0.896-2-2c0-1.104,0.896-2,2-2h2c2.561,0,4.872,0.992,6.641,2.576
	c-0.869,1.09-1.539,2.328-1.984,3.682c-1.1-1.366-2.766-2.258-4.656-2.258H2z M20,10.002c-3.313,0-6,2.686-6,6
	c0,5.524-4.479,10-10,10H2c-1.104,0-2-0.894-2-2s0.896-2,2-2h2c3.314,0,6-2.687,6-6c0-5.522,4.479-10,10-10h4V4
	c0-0.808,0.488-1.54,1.234-1.848c0.747-0.308,1.608-0.136,2.18,0.434l4,4C31.804,6.976,32,7.488,32,8
	c0,0.512-0.196,1.024-0.586,1.414l-4,4c-0.571,0.572-1.433,0.742-2.18,0.434C24.488,13.54,24,12.808,24,12v-1.998H20z
	 M27.414,18.586l4,4C31.804,22.976,32,23.487,32,24s-0.196,1.024-0.586,1.414l-4,4c-0.571,0.572-1.433,0.741-2.18,0.435
	C24.488,29.54,24,28.808,24,28v-1.998h-4c-2.56,0-4.872-0.989-6.643-2.574c0.869-1.092,1.539-2.328,1.986-3.684
	c1.101,1.368,2.767,2.258,4.656,2.258h4V20c0-0.808,0.488-1.54,1.234-1.849C25.981,17.845,26.843,18.017,27.414,18.586z"/>
  </g></svg>