<svg id="svg-source" height="0" version="1.1" 
  xmlns="http://www.w3.org/2000/svg" style="position:absolute; margin-left: -100%" 
  xmlns:xlink="http://www.w3.org/1999/xlink"><g xmlns="http://www.w3.org/2000/svg" id="spam-2">
    <path id="spam-2" d="M16,0c3.779,0,6.857,3.077,6.857,6.857c0,0.188-0.023,0.373-0.068,0.558l-2.23,8.914
	c-0.168,2.368-2.148,4.242-4.559,4.242c-2.371,0-4.33-1.814-4.549-4.13c-0.564-1.66-2.309-7.006-2.309-9.584
	C9.143,3.077,12.219,0,16,0z M16,22.857c2.52,0,4.57,2.051,4.57,4.571S18.52,32,16,32c-2.521,0-4.572-2.051-4.572-4.571
	S13.479,22.857,16,22.857z"/>
  </g></svg>