<svg id="svg-source" height="0" version="1.1" 
  xmlns="http://www.w3.org/2000/svg" style="position:absolute; margin-left: -100%" 
  xmlns:xlink="http://www.w3.org/1999/xlink"><g xmlns="http://www.w3.org/2000/svg" id="spam">
    <path id="spam" d="M16,32C7.164,32,0,24.836,0,16S7.164,0,16,0s16,7.164,16,16S24.836,32,16,32z M16,4
	C9.374,4,4,9.374,4,16s5.374,12,12,12s12-5.374,12-12S22.626,4,16,4z M16,20c-1.105,0-2-0.894-2-2c0,0-2-5.792-2-8s1.792-4,4-4
	s4,1.792,4,4l-2,8C18,19.106,17.106,20,16,20z M16,22c1.106,0,2,0.896,2,2c0,1.106-0.894,2-2,2c-1.105,0-2-0.894-2-2
	C14,22.896,14.895,22,16,22z"/>
  </g></svg>