<svg id="svg-source" height="0" version="1.1" 
  xmlns="http://www.w3.org/2000/svg" style="position:absolute; margin-left: -100%" 
  xmlns:xlink="http://www.w3.org/1999/xlink"><g xmlns="http://www.w3.org/2000/svg" id="speech-bubble-right-4">
    <path id="speech-bubble-right-4" d="M4,21.632V10c0-3.314,2.686-6,6-6h15.632C24.806,1.674,22.61,0,20,0H6
	C2.686,0,0,2.686,0,6v10C0,18.61,1.676,20.806,4,21.632z M6,12v8c0,3.312,2.686,6,6,6h6l4,6l4-6c3.313,0,6-2.688,6-6v-8
	c0-3.314-2.687-6-6-6H12C8.686,6,6,8.686,6,12z M28,12v8c0,1.106-0.894,2-2,2h-1.334L22,26l-2.666-4H12c-1.105,0-2-0.894-2-2v-8
	c0-1.104,0.895-2,2-2h14C27.106,10,28,10.896,28,12z"/>
  </g></svg>