<svg id="svg-source" height="0" version="1.1" 
  xmlns="http://www.w3.org/2000/svg" style="position:absolute; margin-left: -100%" 
  xmlns:xlink="http://www.w3.org/1999/xlink"><g xmlns="http://www.w3.org/2000/svg" id="spinner">
    <path id="spinner" d="M30,18h-4c-1.106,0-2-0.894-2-2c0-1.104,0.894-2,2-2h4c1.106,0,2,0.896,2,2
	C32,17.106,31.106,18,30,18z M24.484,10.344c-0.782,0.782-2.046,0.782-2.828,0c-0.782-0.782-0.782-2.046,0-2.828l2.828-2.83
	c0.781-0.78,2.046-0.78,2.827,0c0.782,0.782,0.782,2.048,0,2.83L24.484,10.344z M16,32c-1.104,0-2-0.894-2-2v-4c0-1.104,0.896-2,2-2
	c1.106,0,2,0.896,2,2v4C18,31.106,17.106,32,16,32z M16,8c-1.104,0-2-0.894-2-2V2c0-1.104,0.896-2,2-2c1.106,0,2,0.896,2,2v4
	C18,7.106,17.106,8,16,8z M7.514,27.313c-0.781,0.783-2.045,0.783-2.828,0c-0.781-0.781-0.781-2.048,0-2.828l2.828-2.829
	c0.782-0.78,2.049-0.78,2.828,0c0.782,0.782,0.782,2.048,0,2.829L7.514,27.313z M7.514,10.344L4.686,7.516
	c-0.781-0.782-0.781-2.048,0-2.83c0.783-0.78,2.047-0.78,2.828,0l2.828,2.83c0.782,0.782,0.782,2.046,0,2.828
	C9.562,11.124,8.296,11.124,7.514,10.344z M8,16c0,1.106-0.896,2-2,2H2c-1.104,0-2-0.894-2-2c0-1.104,0.896-2,2-2h4
	C7.104,14,8,14.896,8,16z M24.484,21.656l2.827,2.829c0.782,0.78,0.782,2.047,0,2.828c-0.781,0.783-2.046,0.783-2.827,0
	l-2.828-2.828c-0.782-0.781-0.782-2.047,0-2.829C22.438,20.876,23.704,20.876,24.484,21.656z"/>
  </g></svg>