<svg id="svg-source" height="0" version="1.1" 
  xmlns="http://www.w3.org/2000/svg" style="position:absolute; margin-left: -100%" 
  xmlns:xlink="http://www.w3.org/1999/xlink"><g xmlns="http://www.w3.org/2000/svg" id="split">
    <path id="split" d="M31.848,25.234C31.541,24.488,30.809,24,30,24h-2v-4c0-3.313-2.688-6-6-6h-2
	c-1.105,0-2-0.894-2-2V2c0-1.104-0.893-2-2-2c-1.104,0-2,0.896-2,2v10c0,1.106-0.895,2-2,2h-2c-3.313,0-6,2.687-6,6v4H2
	c-0.807,0-1.539,0.488-1.848,1.234c-0.308,0.747-0.136,1.608,0.434,2.18l4,4C4.977,31.804,5.488,32,6,32
	c0.513,0,1.025-0.196,1.414-0.586l4-4c0.572-0.571,0.742-1.433,0.435-2.18C11.541,24.488,10.809,24,10,24H8v-4c0-1.104,0.896-2,2-2
	h2c1.545,0,2.937-0.601,4-1.556C17.062,17.399,18.459,18,20,18h2c1.107,0,2,0.896,2,2v4h-2c-0.807,0-1.539,0.488-1.848,1.234
	c-0.309,0.747-0.137,1.608,0.434,2.18l4,4C24.977,31.804,25.488,32,26,32s1.025-0.196,1.414-0.586l4-4
	C31.986,26.843,32.156,25.981,31.848,25.234z"/>
  </g></svg>