<svg id="svg-source" height="0" version="1.1" 
  xmlns="http://www.w3.org/2000/svg" style="position:absolute; margin-left: -100%" 
  xmlns:xlink="http://www.w3.org/1999/xlink"><g xmlns="http://www.w3.org/2000/svg" id="split-2">
    <path id="split-2" d="M10,24c0.809,0,1.541,0.488,1.849,1.234c0.308,0.747,0.138,1.608-0.435,2.18l-4,4
	C7.025,31.804,6.513,32,6,32c-0.512,0-1.023-0.196-1.414-0.586l-4-4c-0.569-0.571-0.741-1.433-0.434-2.18
	C0.461,24.488,1.193,24,2,24h2v-4c0-3.313,2.65-6,5.963-6h12C23.068,14,24,13.104,24,12V2c0-1.104,0.895-2,2-2c1.107,0,2,0.896,2,2
	v10c0,3.314-2.721,6-6.037,6h-12C8.859,18,8,18.896,8,20v4H10z M31.848,25.234c0.309,0.747,0.139,1.608-0.434,2.18l-4,4
	C27.025,31.804,26.512,32,26,32s-1.023-0.196-1.414-0.586l-4-4c-0.57-0.571-0.742-1.433-0.434-2.18C20.461,24.488,21.193,24,22,24h2
	v-4.284c2-0.408,2-1.282,4-2.477V24h2C30.809,24,31.541,24.488,31.848,25.234z"/>
  </g></svg>