<svg id="svg-source" height="0" version="1.1" 
  xmlns="http://www.w3.org/2000/svg" style="position:absolute; margin-left: -100%" 
  xmlns:xlink="http://www.w3.org/1999/xlink"><g xmlns="http://www.w3.org/2000/svg" id="spool">
    <path id="spool" d="M16,32C7.164,32,0,24.836,0,16S7.164,0,16,0s16,7.164,16,16S24.836,32,16,32z M16,4
	C9.374,4,4,9.374,4,16c0,6.628,5.374,12,12,12s12-5.372,12-12C28,9.374,22.626,4,16,4z M24.66,21
	c-0.55,0.958-1.776,1.286-2.731,0.731c-0.957-0.552-1.285-1.775-0.732-2.731c0.552-0.958,1.777-1.284,2.732-0.731
	C24.884,18.82,25.212,20.042,24.66,21z M16,20c-2.208,0-4-1.792-4-4s1.792-4,4-4s4,1.792,4,4S18.208,20,16,20z M16,14
	c-1.104,0-2,0.896-2,2c0,1.104,0.896,2,2,2c1.104,0,2-0.896,2-2C18,14.896,17.104,14,16,14z M16,10c-1.104,0-2-0.896-2-2
	s0.896-2,2-2c1.104,0,2,0.896,2,2S17.104,10,16,10z M10.072,21.731C9.113,22.284,7.893,21.956,7.34,21
	c-0.552-0.956-0.225-2.18,0.732-2.731c0.955-0.553,2.18-0.227,2.732,0.731C11.355,19.958,11.027,21.18,10.072,21.731z"/>
  </g></svg>