<svg id="svg-source" height="0" version="1.1" 
  xmlns="http://www.w3.org/2000/svg" style="position:absolute; margin-left: -100%" 
  xmlns:xlink="http://www.w3.org/1999/xlink"><g xmlns="http://www.w3.org/2000/svg" id="stamp-2">
    <path id="stamp-2" d="M26,6H6v20h20V6z M8,8h6v2H8V8z M8,14h10v2H8V14z M16,24H8v-2h8V24z M22,20H8v-2h14V20z M24,10
	h-2V8h2V10z M32,6V2c0-1.104-0.894-2-2-2h-4c0,1.106-0.894,2-2,2s-2-0.894-2-2h-4c0,1.106-0.894,2-2,2c-1.105,0-2-0.894-2-2h-4
	c0,1.106-0.895,2-2,2S6,1.106,6,0H2C0.895,0,0,0.896,0,2v4c1.105,0,2,0.896,2,2c0,1.106-0.895,2-2,2v4c1.105,0,2,0.896,2,2
	c0,1.106-0.895,2-2,2v4c1.105,0,2,0.896,2,2c0,1.106-0.895,2-2,2v4c0,1.106,0.895,2,2,2h4c0-1.104,0.895-2,2-2s2,0.896,2,2h4
	c0-1.104,0.895-2,2-2c1.106,0,2,0.896,2,2h4c0-1.104,0.894-2,2-2s2,0.896,2,2h4c1.106,0,2-0.894,2-2v-4c-1.106,0-2-0.894-2-2
	c0-1.104,0.894-2,2-2v-4c-1.106,0-2-0.894-2-2c0-1.104,0.894-2,2-2v-4c-1.106,0-2-0.894-2-2C30,6.896,30.894,6,32,6z M28,28H4V4h24
	V28z"/>
  </g></svg>