<svg id="svg-source" height="0" version="1.1" 
  xmlns="http://www.w3.org/2000/svg" style="position:absolute; margin-left: -100%" 
  xmlns:xlink="http://www.w3.org/1999/xlink"><g xmlns="http://www.w3.org/2000/svg" id="stamp">
    <path id="stamp" d="M32,26v4c0,1.106-0.894,2-2,2h-4c0-1.104-0.894-2-2-2s-2,0.896-2,2h-4c0-1.104-0.894-2-2-2
	c-1.105,0-2,0.896-2,2h-4c0-1.104-0.895-2-2-2s-2,0.896-2,2H2c-1.105,0-2-0.894-2-2v-4c1.105,0,2-0.894,2-2c0-1.104-0.895-2-2-2v-4
	c1.105,0,2-0.894,2-2c0-1.104-0.895-2-2-2v-4c1.105,0,2-0.894,2-2c0-1.104-0.895-2-2-2V2c0-1.104,0.895-2,2-2h4c0,1.106,0.895,2,2,2
	s2-0.894,2-2h4c0,1.106,0.895,2,2,2c1.106,0,2-0.894,2-2h4c0,1.106,0.894,2,2,2s2-0.894,2-2h4c1.106,0,2,0.896,2,2v4
	c-1.106,0-2,0.896-2,2c0,1.106,0.894,2,2,2v4c-1.106,0-2,0.896-2,2c0,1.106,0.894,2,2,2v4c-1.106,0-2,0.896-2,2
	C30,25.106,30.894,26,32,26z M28,4H4v24h24V4z M26,26H6V6h20V26z M24,8H8v16h16V8z"/>
  </g></svg>