<svg id="svg-source" height="0" version="1.1" 
  xmlns="http://www.w3.org/2000/svg" style="position:absolute; margin-left: -100%" 
  xmlns:xlink="http://www.w3.org/1999/xlink"><g xmlns="http://www.w3.org/2000/svg" id="star">
    <path id="star" d="M16,0C7.164,0,0,7.164,0,16s7.164,16,16,16s16-7.164,16-16S24.836,0,16,0z M16,28
	C9.374,28,4,22.626,4,16S9.374,4,16,4s12,5.374,12,12S22.626,28,16,28z M18.94,11.956L16,6.002l-2.938,5.954L6.49,12.912
	l4.756,4.634l-1.124,6.542L16,21l5.876,3.09l-1.122-6.542l4.754-4.634L18.94,11.956z"/>
  </g></svg>