<svg id="svg-source" height="0" version="1.1" 
  xmlns="http://www.w3.org/2000/svg" style="position:absolute; margin-left: -100%" 
  xmlns:xlink="http://www.w3.org/1999/xlink"><g xmlns="http://www.w3.org/2000/svg" id="stiffy">
    <path id="stiffy" d="M24,20H8c-1.105,0-2,0.894-2,2v8c0,1.106,0.895,2,2,2h16c1.106,0,2-0.894,2-2v-8
	C26,20.894,25.106,20,24,20z M28,0.368V12c0,1.104-0.894,2-2,2H6c-1.105,0-2-0.896-2-2V0.368C1.676,1.194,0,3.392,0,6v20
	c0,2.61,1.676,4.806,4,5.632V20c0-1.106,0.895-2,2-2h20c1.106,0,2,0.894,2,2v11.632c2.324-0.826,4-3.023,4-5.632V6
	C32,3.392,30.324,1.194,28,0.368z M12,12h12c1.106,0,2-0.896,2-2V2c0-1.104-0.894-2-2-2H12c-1.105,0-2,0.896-2,2v8
	C10,11.104,10.895,12,12,12z M20,4c0-1.104,0.894-2,2-2s2,0.896,2,2v4c0,1.104-0.894,2-2,2s-2-0.896-2-2V4z"/>
  </g></svg>