<svg id="svg-source" height="0" version="1.1" 
  xmlns="http://www.w3.org/2000/svg" style="position:absolute; margin-left: -100%" 
  xmlns:xlink="http://www.w3.org/1999/xlink"><g xmlns="http://www.w3.org/2000/svg" id="support">
    <path id="support" d="M32,16c0,0.676-0.054,1.34-0.136,1.994c-0.021,0.159-0.048,0.317-0.074,0.476
	c-0.086,0.549-0.196,1.09-0.336,1.62c-0.025,0.094-0.047,0.19-0.072,0.282c-0.38,1.324-0.922,2.582-1.609,3.744
	c-1.377,2.332-3.324,4.279-5.656,5.656c-1.162,0.688-2.42,1.228-3.744,1.609c-0.092,0.025-0.188,0.047-0.282,0.072
	c-0.53,0.14-1.07,0.25-1.62,0.336c-0.158,0.026-0.316,0.054-0.476,0.074C17.34,31.946,16.676,32,16,32l0,0l0,0
	c-0.676,0-1.34-0.054-1.994-0.136c-0.162-0.021-0.318-0.048-0.479-0.074c-0.547-0.086-1.09-0.196-1.619-0.336
	c-0.092-0.025-0.188-0.047-0.28-0.072c-1.325-0.38-2.582-0.922-3.743-1.609c-2.332-1.377-4.281-3.324-5.658-5.656
	c-0.687-1.162-1.229-2.42-1.609-3.744C0.592,20.28,0.57,20.184,0.546,20.09c-0.14-0.53-0.25-1.07-0.336-1.62
	c-0.024-0.158-0.052-0.316-0.073-0.476C0.055,17.34,0,16.676,0,16l0,0l0,0c0-0.676,0.055-1.34,0.137-1.994
	c0.02-0.162,0.047-0.318,0.073-0.478c0.086-0.548,0.196-1.09,0.338-1.62c0.024-0.092,0.046-0.188,0.072-0.28
	C1,10.304,1.542,9.046,2.229,7.884c1.377-2.332,3.326-4.28,5.658-5.658C9.046,1.542,10.305,1,11.628,0.62
	c0.093-0.026,0.188-0.048,0.28-0.072c0.529-0.142,1.072-0.25,1.619-0.338c0.16-0.024,0.316-0.052,0.479-0.074
	C14.66,0.054,15.324,0,16,0l0,0l0,0c0.676,0,1.34,0.054,1.994,0.136c0.159,0.02,0.317,0.048,0.476,0.074
	c0.549,0.086,1.09,0.196,1.62,0.338c0.094,0.024,0.19,0.046,0.282,0.072c1.324,0.38,2.582,0.922,3.744,1.608
	c2.332,1.378,4.279,3.326,5.656,5.658C30.46,9.048,31,10.304,31.382,11.63c0.025,0.092,0.047,0.188,0.072,0.28
	c0.14,0.53,0.25,1.072,0.336,1.62c0.026,0.16,0.054,0.316,0.074,0.479C31.946,14.66,32,15.324,32,16L32,16L32,16z M6.706,12.364
	L3.732,9.388C2.664,11.366,2,13.594,2,16c0,2.406,0.664,4.634,1.732,6.612l2.974-2.975C6.264,18.508,6,17.288,6,16
	C6,14.714,6.264,13.494,6.706,12.364z M16,30c2.406,0,4.634-0.662,6.612-1.73l-2.975-2.976C18.508,25.735,17.288,26,16,26
	c-1.286,0-2.506-0.265-3.637-0.708l-2.975,2.977C11.365,29.338,13.594,30,16,30z M16,2c-2.406,0-4.635,0.664-6.611,1.732
	l2.975,2.974C13.494,6.264,14.714,6,16,6c1.288,0,2.508,0.264,3.636,0.706l2.975-2.974C20.634,2.664,18.406,2,16,2z M23.704,13.954
	L23.704,13.954c-0.734-2.764-2.893-4.922-5.656-5.658l0,0l0,0c-0.266-0.07-0.533-0.128-0.81-0.172C16.834,8.052,16.426,8,16,8
	s-0.834,0.052-1.24,0.124c-0.273,0.044-0.541,0.102-0.806,0.172l0,0l0,0c-2.765,0.736-4.923,2.894-5.658,5.658l0,0l0,0
	c-0.069,0.264-0.128,0.532-0.172,0.806C8.053,15.166,8,15.574,8,16c0,0.426,0.053,0.834,0.124,1.238
	c0.042,0.276,0.103,0.542,0.172,0.808l0,0l0,0c0.733,2.764,2.894,4.922,5.658,5.656l0,0l0,0c0.265,0.07,0.532,0.128,0.806,0.172
	C15.166,23.948,15.574,24,16,24s0.834-0.052,1.238-0.124c0.276-0.042,0.542-0.102,0.808-0.172l0,0l0,0
	c2.764-0.734,4.922-2.893,5.656-5.656l0,0l0,0c0.07-0.266,0.128-0.533,0.172-0.809C23.948,16.834,24,16.426,24,16
	c0-0.426-0.052-0.834-0.124-1.24C23.832,14.486,23.774,14.218,23.704,13.954L23.704,13.954z M28.27,9.388l-2.976,2.976
	C25.735,13.494,26,14.714,26,16c0,1.288-0.265,2.508-0.708,3.636l2.977,2.975C29.338,20.634,30,18.406,30,16
	C30,13.594,29.338,11.366,28.27,9.388z"/>
  </g></svg>