<svg id="svg-source" height="0" version="1.1" 
  xmlns="http://www.w3.org/2000/svg" style="position:absolute; margin-left: -100%" 
  xmlns:xlink="http://www.w3.org/1999/xlink"><g xmlns="http://www.w3.org/2000/svg" id="support-2">
    <path id="support-2" d="M28.263,9.405c0.443,0.821,0.796,1.696,1.081,2.599h-4.203
	c-1.012-2.293-2.846-4.144-5.144-5.15V2.658c0.911,0.288,1.79,0.644,2.621,1.091l2.562-2.562c1.561-1.56,4.09-1.56,5.65,0
	c1.561,1.561,1.561,4.09,0,5.65L28.263,9.405z M29.417,2.6c-0.78-0.781-2.043-0.781-2.825,0l-2.239,2.242
	c1.071,0.805,2.021,1.752,2.823,2.827l2.241-2.244C30.196,4.644,30.196,3.381,29.417,2.6z M14.004,6.212V2.18
	c0.65-0.1,1.316-0.166,1.998-0.166c0.681,0,1.346,0.066,1.997,0.166v4.03c-0.645-0.13-1.312-0.2-1.997-0.2
	C15.318,6.01,14.648,6.08,14.004,6.212z M6.822,30.812c-1.56,1.561-4.089,1.561-5.651,0c-1.561-1.561-1.561-4.089,0-5.65
	l2.567-2.567c-0.441-0.82-0.793-1.696-1.079-2.599h4.196c1.006,2.298,2.856,4.132,5.15,5.141v4.204
	c-0.912-0.288-1.793-0.642-2.619-1.092L6.822,30.812z M4.827,24.334l-2.243,2.241c-0.779,0.781-0.779,2.044,0,2.825
	c0.78,0.781,2.045,0.781,2.826,0l2.242-2.24C6.579,26.355,5.63,25.406,4.827,24.334z M2.182,17.998
	c-0.1-0.651-0.166-1.316-0.166-1.998c0-0.681,0.066-1.347,0.166-1.998h4.054C6.104,14.649,6.012,15.312,6.012,16
	c0,0.686,0.07,1.353,0.202,1.998H2.182z M6.865,12.004H2.659c0.286-0.903,0.638-1.778,1.081-2.599L1.173,6.837
	c-1.561-1.561-1.561-4.09,0-5.65c1.561-1.56,4.09-1.56,5.652,0l2.563,2.562c0.824-0.447,1.705-0.803,2.617-1.091v4.196
	C9.708,7.86,7.874,9.71,6.865,12.004z M5.41,2.6c-0.781-0.781-2.046-0.781-2.826,0c-0.779,0.781-0.779,2.044,0,2.825l2.243,2.244
	c0.803-1.075,1.75-2.022,2.825-2.827L5.41,2.6z M17.999,25.764v4.056c-0.651,0.1-1.316,0.166-1.997,0.166
	c-0.682,0-1.348-0.066-1.998-0.166v-4.056c0.646,0.133,1.311,0.226,1.998,0.226C16.688,25.989,17.352,25.896,17.999,25.764z
	 M29.819,14.002c0.102,0.651,0.168,1.317,0.168,1.998c0,0.682-0.066,1.347-0.168,1.998h-4.03c0.132-0.646,0.202-1.312,0.202-1.998
	c0-0.688-0.094-1.351-0.226-1.998H29.819z M19.997,25.137c2.294-1.009,4.145-2.843,5.151-5.141h4.195
	c-0.285,0.902-0.636,1.778-1.081,2.599l2.567,2.567c1.561,1.562,1.561,4.09,0,5.65s-4.09,1.561-5.65,0l-2.562-2.561
	c-0.828,0.448-1.708,0.802-2.621,1.091V25.137z M26.592,29.4c0.782,0.781,2.045,0.781,2.825,0c0.782-0.781,0.782-2.044,0-2.825
	l-2.241-2.241c-0.803,1.072-1.752,2.021-2.823,2.826L26.592,29.4z"/>
  </g></svg>