<svg id="svg-source" height="0" version="1.1" 
  xmlns="http://www.w3.org/2000/svg" style="position:absolute; margin-left: -100%" 
  xmlns:xlink="http://www.w3.org/1999/xlink"><g xmlns="http://www.w3.org/2000/svg" id="support-3">
    <path id="support-3" d="M28.263,9.404c0.763,1.413,1.303,2.958,1.556,4.598h-6.109
	c-0.724-2.797-2.913-4.987-5.711-5.71v-6.11c1.648,0.254,3.201,0.8,4.619,1.567l2.562-2.562c1.56-1.56,4.09-1.56,5.649,0
	c1.562,1.561,1.562,4.09,0,5.651L28.263,9.404z M29.417,2.599c-0.78-0.781-2.044-0.781-2.825,0l-2.24,2.242
	c1.071,0.803,2.021,1.752,2.824,2.825l2.241-2.242C30.196,4.643,30.196,3.38,29.417,2.599z M14.002,8.292
	c-2.797,0.724-4.986,2.913-5.711,5.71H2.182c0.254-1.64,0.793-3.185,1.557-4.598L1.17,6.837c-1.561-1.561-1.561-4.09,0-5.651
	c1.561-1.56,4.09-1.56,5.65,0l2.562,2.562c1.418-0.767,2.971-1.313,4.619-1.567V8.292z M5.408,2.599
	c-0.781-0.781-2.044-0.781-2.825,0c-0.781,0.781-0.781,2.044,0,2.825l2.242,2.242c0.803-1.073,1.75-2.022,2.823-2.825L5.408,2.599z
	 M3.738,22.595c-0.764-1.411-1.303-2.956-1.557-4.597h6.109c0.725,2.798,2.914,4.987,5.711,5.711v6.111
	c-1.648-0.255-3.201-0.801-4.619-1.567L6.82,30.813c-1.561,1.561-4.09,1.561-5.65,0s-1.561-4.09,0-5.65L3.738,22.595z M2.583,29.401
	c0.781,0.781,2.044,0.781,2.825,0l2.24-2.24c-1.073-0.806-2.022-1.754-2.823-2.827l-2.242,2.242
	C1.804,27.356,1.804,28.62,2.583,29.401z M17.998,23.709c2.798-0.724,4.987-2.913,5.711-5.711h6.109
	c-0.253,1.641-0.793,3.186-1.556,4.597l2.566,2.568c1.562,1.561,1.562,4.09,0,5.65c-1.56,1.561-4.09,1.561-5.649,0l-2.562-2.561
	c-1.418,0.767-2.969,1.312-4.619,1.567V23.709z M26.592,29.401c0.781,0.781,2.045,0.781,2.825,0c0.781-0.781,0.781-2.045,0-2.825
	l-2.241-2.242c-0.804,1.073-1.753,2.021-2.824,2.827L26.592,29.401z"/>
  </g></svg>