<svg id="svg-source" height="0" version="1.1" 
  xmlns="http://www.w3.org/2000/svg" style="position:absolute; margin-left: -100%" 
  xmlns:xlink="http://www.w3.org/1999/xlink"><g xmlns="http://www.w3.org/2000/svg" id="swap-2">
    <path id="swap-2" d="M31.848,15.235c-0.307-0.746-1.039-1.234-1.848-1.234h-2v-4c0-3.314-2.686-6-5.998-6h-4V1.999
	c0-0.808-0.488-1.54-1.234-1.848c-0.748-0.308-1.608-0.136-2.18,0.434l-4,4c-0.391,0.39-0.586,0.902-0.586,1.414
	s0.195,1.024,0.586,1.414l4,4c0.571,0.572,1.432,0.742,2.18,0.434c0.746-0.308,1.234-1.04,1.234-1.848V8.001h4c1.105,0,2,0.896,2,2
	v4h-2c-0.809,0-1.541,0.488-1.848,1.234c-0.309,0.748-0.137,1.608,0.434,2.18l4,4c0.389,0.39,0.902,0.586,1.414,0.586
	s1.023-0.196,1.412-0.586l4-4C31.986,16.843,32.156,15.983,31.848,15.235z M16.002,20.001c1.105,0,2,0.894,2,2V30
	c0,1.106-0.895,2-2,2h-8c-1.104,0-2-0.894-2-2v-2h4h4v-4v-3.999H16.002z M12.002,24v-8c0-1.104-0.896-2-2-2h-8c-1.104,0-2,0.896-2,2
	v8c0,1.106,0.896,2,2,2h8C11.105,26,12.002,25.106,12.002,24z M8.002,22.001h-4v-4h4V22.001z"/>
  </g></svg>