<svg id="svg-source" height="0" version="1.1" 
  xmlns="http://www.w3.org/2000/svg" style="position:absolute; margin-left: -100%" 
  xmlns:xlink="http://www.w3.org/1999/xlink"><g xmlns="http://www.w3.org/2000/svg" id="swap">
    <path id="swap" d="M10,20H2c-1.104,0-2,0.896-2,2v8c0,1.106,0.896,2,2,2h8c1.104,0,2-0.894,2-2v-8
	C12,20.896,11.104,20,10,20z M8,28H4v-4h4V28z M30,0h-8c-1.106,0-2,0.896-2,2v8c0,1.104,0.894,2,2,2h8c1.106,0,2-0.896,2-2V2
	C32,0.896,31.106,0,30,0z M28,8h-4V4h4V8z M14,2c1.104,0,2,0.896,2,2s-0.896,2-2,2h-4C8.896,6,8,6.896,8,8h2
	c0.809,0,1.54,0.488,1.848,1.234c0.309,0.748,0.139,1.608-0.434,2.18l-4,4C7.023,15.804,6.512,16,6,16s-1.023-0.196-1.414-0.586
	l-4-4c-0.57-0.572-0.742-1.432-0.434-2.18C0.46,8.488,1.191,8,2,8h2c0-3.314,2.686-6,6-6H14z M27.414,16.586l4,4
	c0.57,0.571,0.742,1.433,0.434,2.18C31.54,23.512,30.808,24,30,24h-2c0,3.312-2.688,6-6,6h-4c-1.106,0-2-0.896-2-2
	c0-1.106,0.896-2,2-2h4c1.106,0,2-0.894,2-2h-2c-0.808,0-1.54-0.488-1.848-1.234c-0.309-0.747-0.138-1.608,0.434-2.18l4-4
	C24.976,16.196,25.488,16,26,16S27.024,16.196,27.414,16.586z"/>
  </g></svg>