<svg id="svg-source" height="0" version="1.1" 
  xmlns="http://www.w3.org/2000/svg" style="position:absolute; margin-left: -100%" 
  xmlns:xlink="http://www.w3.org/1999/xlink"><g xmlns="http://www.w3.org/2000/svg" id="swatch">
    <path id="swatch" d="M26,32H6c-3.314,0-6-2.687-6-6V6c0-3.314,2.686-6,6-6h20c3.313,0,6,2.686,6,6v20
	C32,29.313,29.313,32,26,32z M26,28l2-4h-4L26,28z M26,4H6C4.895,4,4,4.896,4,6v20c0,1.106,0.895,2,2,2h14v-6c0-1.106,0.894-2,2-2h6
	V6C28,4.896,27.106,4,26,4z"/>
  </g></svg>