<svg id="svg-source" height="0" version="1.1" 
  xmlns="http://www.w3.org/2000/svg" style="position:absolute; margin-left: -100%" 
  xmlns:xlink="http://www.w3.org/1999/xlink"><g xmlns="http://www.w3.org/2000/svg" id="switch-off">
    <path id="switch-off" d="M26,0H6C2.686,0,0,2.686,0,6v20c0,3.312,2.686,6,6,6h20c3.312,0,6-2.688,6-6V6
	C32,2.686,29.312,0,26,0z M5,28c-0.553,0-1-0.448-1-1c0-0.55,0.447-1,1-1s1,0.45,1,1C6,27.552,5.553,28,5,28z M5,6
	C4.447,6,4,5.552,4,5s0.447-1,1-1s1,0.448,1,1S5.553,6,5,6z M22,26c0,1.106-0.894,2-2,2h-8c-1.104,0-2-0.894-2-2V6
	c0-1.104,0.896-2,2-2h8c1.106,0,2,0.896,2,2V26z M27,28c-0.55,0-1-0.448-1-1c0-0.55,0.45-1,1-1s1,0.45,1,1C28,27.552,27.55,28,27,28
	z M27,6c-0.55,0-1-0.448-1-1s0.45-1,1-1s1,0.448,1,1S27.55,6,27,6z M18,16h-4c-1.104,0-2,0.896-2,2v6c0,1.106,0.896,2,2,2h4
	c1.106,0,2-0.894,2-2v-6C20,16.896,19.106,16,18,16z"/>
  </g></svg>