<svg id="svg-source" height="0" version="1.1" 
  xmlns="http://www.w3.org/2000/svg" style="position:absolute; margin-left: -100%" 
  xmlns:xlink="http://www.w3.org/1999/xlink"><g xmlns="http://www.w3.org/2000/svg" id="tag-4">
    <path id="tag-4" d="M30.242,24.242l-6,6c-2.344,2.344-6.141,2.344-8.484,0l-10-10C4.586,19.07,4,17.536,4,16V4h6
	c0-1.106-0.895-2-2-2H4C2.895,2,2,2.894,2,4v3c0,0.552-0.447,1-1,1S0,7.552,0,7V4c0-2.208,1.792-4,4-4h4c2.208,0,4,1.792,4,4l0,0v7
	c0,0.552-0.447,1-1,1s-1-0.448-1-1V8.202C8.84,8.618,8,9.698,8,11c0,1.656,1.344,3,3,3s3-1.344,3-3V4h2
	c1.536,0,3.07,0.586,4.242,1.758l10,10C32.586,18.102,32.586,21.898,30.242,24.242z"/>
  </g></svg>