<svg id="svg-source" height="0" version="1.1" 
  xmlns="http://www.w3.org/2000/svg" style="position:absolute; margin-left: -100%" 
  xmlns:xlink="http://www.w3.org/1999/xlink"><g xmlns="http://www.w3.org/2000/svg" id="tag-3">
    <path id="tag-3" d="M30.242,24.242l-6,6c-2.344,2.344-6.141,2.344-8.484,0l-10-10C4.586,19.07,4,17.536,4,16V4h6
	c0-1.104-0.896-2-2-2H4C2.896,2,2,2.896,2,4v3c0,0.552-0.447,1-1,1S0,7.552,0,7V4c0-2.208,1.792-4,4-4h4c2.208,0,4,1.792,4,4h4
	c1.536,0,3.07,0.586,4.242,1.758l10,10C32.586,18.102,32.586,21.898,30.242,24.242z M12,8.202V11c0,0.552-0.447,1-1,1s-1-0.448-1-1
	V8.202C8.84,8.618,8,9.698,8,11c0,1.658,1.342,3,3,3s3-1.342,3-3C14,9.698,13.16,8.618,12,8.202z M27.414,18.586l-10-10
	C17.024,8.196,16.512,8,16,8h-1.021C15.609,8.838,16,9.87,16,11c0,2.762-2.238,5-5,5c-1.13,0-2.162-0.39-3-1.022V16
	c0,0.512,0.195,1.024,0.586,1.414l10,10c0.782,0.782,2.046,0.782,2.828,0l6-6C28.196,20.632,28.196,19.368,27.414,18.586z"/>
  </g></svg>