<svg id="svg-source" height="0" version="1.1" 
  xmlns="http://www.w3.org/2000/svg" style="position:absolute; margin-left: -100%" 
  xmlns:xlink="http://www.w3.org/1999/xlink"><g xmlns="http://www.w3.org/2000/svg" id="tag">
    <path id="tag" d="M30.242,15.758l-14-14C15.07,0.586,13.536,0,12,0H0v12c0,1.536,0.586,3.07,1.758,4.242l14,14
	c2.344,2.344,6.141,2.344,8.484,0l6-6C32.586,21.898,32.586,18.102,30.242,15.758z M27.414,21.414l-6,6
	c-0.782,0.782-2.046,0.782-2.828,0l-14-14C4.195,13.024,4,12.512,4,12V4h8c0.512,0,1.023,0.196,1.414,0.586l14,14
	C28.196,19.368,28.196,20.632,27.414,21.414z M8,6C6.895,6,6,6.894,6,8s0.895,2,2,2s2-0.894,2-2S9.105,6,8,6z"/>
  </g></svg>