<svg id="svg-source" height="0" version="1.1" 
  xmlns="http://www.w3.org/2000/svg" style="position:absolute; margin-left: -100%" 
  xmlns:xlink="http://www.w3.org/1999/xlink"><g xmlns="http://www.w3.org/2000/svg" id="terminal-3">
    <path id="terminal-3" d="M10,16h2v-2h-2V16z M8,8v2h2V8H8z M8,18h2v-2H8V18z M14,12h-2v2h2V12z M26,0H6
	C2.686,0,0,2.686,0,6v20c0,3.312,2.686,6,6,6h20c3.312,0,6-2.688,6-6V6C32,2.686,29.312,0,26,0z M28,26c0,1.106-0.894,2-2,2H6
	c-1.104,0-2-0.894-2-2V6c0-1.104,0.896-2,2-2h20c1.106,0,2,0.896,2,2V26z M10,10v2h2v-2H10z M14,18h6v-2h-6V18z"/>
  </g></svg>