<svg id="svg-source" height="0" version="1.1" 
  xmlns="http://www.w3.org/2000/svg" style="position:absolute; margin-left: -100%" 
  xmlns:xlink="http://www.w3.org/1999/xlink"><g xmlns="http://www.w3.org/2000/svg" id="terminal-2">
    <path id="terminal-2" d="M26,0H6C2.686,0,0,2.686,0,6v20c0,3.313,2.686,6,6,6h20c3.313,0,6-2.687,6-6V6
	C32,2.686,29.313,0,26,0z M6,2c1.105,0,2,0.896,2,2S7.105,6,6,6S4,5.104,4,4S4.895,2,6,2z M28,26c0,1.106-0.894,2-2,2H6
	c-1.105,0-2-0.894-2-2V8h24V26z M10,18h4v-2h-4V18z M6,10v2h2v-2H6z M8,14H6v2h2V14z M10,12H8v2h2V12z"/>
  </g></svg>