<svg id="svg-source" height="0" version="1.1" 
  xmlns="http://www.w3.org/2000/svg" style="position:absolute; margin-left: -100%" 
  xmlns:xlink="http://www.w3.org/1999/xlink"><g xmlns="http://www.w3.org/2000/svg" id="tick">
    <path id="tick" d="M26,0H6C2.686,0,0,2.688,0,6v20c0,3.313,2.686,6,6,6h20c3.313,0,6-2.687,6-6V6
	C32,2.688,29.313,0,26,0z M28,26c0,1.106-0.894,2-2,2H6c-1.104,0-2-0.894-2-2V6c0-1.104,0.896-2,2-2h20c1.106,0,2,0.896,2,2V26z
	 M20.918,10.34l-7.07,7.07l-2.83-2.828c-0.779-0.782-2.045-0.782-2.828,0c-0.781,0.782-0.781,2.048,0,2.828l4.244,4.242
	c0.78,0.781,2.047,0.781,2.828,0l8.484-8.484c0.782-0.782,0.782-2.046,0-2.828C22.964,9.558,21.7,9.558,20.918,10.34z"/>
  </g></svg>