<svg id="svg-source" height="0" version="1.1" 
  xmlns="http://www.w3.org/2000/svg" style="position:absolute; margin-left: -100%" 
  xmlns:xlink="http://www.w3.org/1999/xlink"><g xmlns="http://www.w3.org/2000/svg" id="tilde">
    <path id="tilde" d="M22.857,25.143c-5.05,0-9.143-4.094-9.143-9.143c0-2.523-2.049-4.571-4.572-4.571
	S4.571,13.477,4.571,16c0,1.262-1.021,2.286-2.286,2.286C1.021,18.286,0,17.262,0,16c0-5.049,4.094-9.143,9.143-9.143
	s9.144,4.094,9.144,9.143c0,2.523,2.047,4.571,4.571,4.571c2.523,0,4.571-2.048,4.571-4.571c0-1.262,1.021-2.286,2.285-2.286
	C30.979,13.714,32,14.738,32,16C32,21.049,27.906,25.143,22.857,25.143z"/>
  </g></svg>