<svg id="svg-source" height="0" version="1.1" 
  xmlns="http://www.w3.org/2000/svg" style="position:absolute; margin-left: -100%" 
  xmlns:xlink="http://www.w3.org/1999/xlink"><g xmlns="http://www.w3.org/2000/svg" id="timeline">
    <path id="timeline" d="M26,32H6c-3.314,0-6-2.687-6-6V6c0-3.314,2.686-6,6-6h20c3.312,0,6,2.686,6,6v20
	C32,29.313,29.312,32,26,32z M28,6c0-1.106-0.894-2-2-2H6C4.896,4,4,4.894,4,6v20c0,1.106,0.896,2,2,2h20c1.106,0,2-0.894,2-2V6z
	 M23,24c-1.3,0-2.382-0.84-2.796-2h-4.408c-0.413,1.16-1.495,2-2.796,2c-1.658,0-3-1.344-3-3s1.342-3,3-3
	c1.301,0,2.383,0.84,2.796,2h4.406c0.414-1.16,1.496-2,2.796-2c1.655,0,3,1.344,3,3S24.656,24,23,24z M23,20c-0.55,0-1,0.448-1,1
	s0.45,1,1,1s1-0.448,1-1S23.55,20,23,20z M19,14c-1.3,0-2.382-0.84-2.796-2h-4.406c-0.415,1.16-1.495,2-2.798,2
	c-1.658,0-3-1.344-3-3s1.342-3,3-3c1.303,0,2.383,0.84,2.798,2h4.406C16.618,8.84,17.7,8,19,8c1.656,0,3,1.344,3,3S20.656,14,19,14z
	 M9,10c-0.553,0-1,0.448-1,1s0.447,1,1,1s1-0.448,1-1S9.553,10,9,10z"/>
  </g></svg>