<svg id="svg-source" height="0" version="1.1" 
  xmlns="http://www.w3.org/2000/svg" style="position:absolute; margin-left: -100%" 
  xmlns:xlink="http://www.w3.org/1999/xlink"><g xmlns="http://www.w3.org/2000/svg" id="toggle-on">
    <path id="toggle-on" d="M26,32H6c-3.314,0-6-2.688-6-6V6c0-3.314,2.686-6,6-6h20c3.312,0,6,2.686,6,6v20
	C32,29.312,29.312,32,26,32z M5,28c0.553,0,1-0.448,1-1c0-0.55-0.447-1-1-1s-1,0.45-1,1C4,27.552,4.447,28,5,28z M5,4
	C4.447,4,4,4.448,4,5s0.447,1,1,1s1-0.448,1-1S5.553,4,5,4z M27,4c-0.55,0-1,0.448-1,1s0.45,1,1,1s1-0.448,1-1S27.55,4,27,4z M22,10
	H10c-3.314,0-6,2.686-6,6c0,3.312,2.686,6,6,6h12c3.312,0,6-2.688,6-6C28,12.686,25.312,10,22,10z M27,26c-0.55,0-1,0.45-1,1
	c0,0.552,0.45,1,1,1s1-0.448,1-1C28,26.45,27.55,26,27,26z M10,20c-2.208,0-4-1.792-4-4s1.792-4,4-4s4,1.792,4,4S12.208,20,10,20z"/>
  </g></svg>