<svg id="svg-source" height="0" version="1.1" 
  xmlns="http://www.w3.org/2000/svg" style="position:absolute; margin-left: -100%" 
  xmlns:xlink="http://www.w3.org/1999/xlink"><g xmlns="http://www.w3.org/2000/svg" id="toggle-off">
    <path id="toggle-off" d="M26,0H6C2.686,0,0,2.686,0,6v20c0,3.312,2.686,6,6,6h20c3.312,0,6-2.688,6-6V6
	C32,2.686,29.312,0,26,0z M5,4c0.553,0,1,0.448,1,1S5.553,6,5,6S4,5.552,4,5S4.447,4,5,4z M5,28c-0.553,0-1-0.448-1-1
	c0-0.55,0.447-1,1-1s1,0.45,1,1C6,27.552,5.553,28,5,28z M27,28c-0.55,0-1-0.448-1-1c0-0.55,0.45-1,1-1s1,0.45,1,1
	C28,27.552,27.55,28,27,28z M22,22H10c-3.314,0-6-2.688-6-6c0-3.314,2.686-6,6-6h12c3.312,0,6,2.686,6,6C28,19.312,25.312,22,22,22z
	 M27,6c-0.55,0-1-0.448-1-1s0.45-1,1-1s1,0.448,1,1S27.55,6,27,6z M22,12c-2.208,0-4,1.792-4,4s1.792,4,4,4s4-1.792,4-4
	S24.208,12,22,12z"/>
  </g></svg>