<svg id="svg-source" height="0" version="1.1" 
  xmlns="http://www.w3.org/2000/svg" style="position:absolute; margin-left: -100%" 
  xmlns:xlink="http://www.w3.org/1999/xlink"><g xmlns="http://www.w3.org/2000/svg" id="transfer">
    <path id="transfer" d="M4.586,13.412l-4-4C0.195,9.022,0,8.51,0,7.998c0-0.512,0.195-1.024,0.586-1.414l4-4
	c0.572-0.57,1.432-0.742,2.18-0.434C7.512,2.458,8,3.19,8,3.998V6h2v4H8v1.998c0,0.808-0.488,1.54-1.234,1.848
	C6.018,14.154,5.158,13.984,4.586,13.412z M27.414,18.584l4,4c0.39,0.39,0.586,0.901,0.586,1.414c0,0.512-0.196,1.023-0.586,1.414
	l-4,4c-0.571,0.572-1.433,0.741-2.18,0.434C24.488,29.538,24,28.806,24,27.999V26h-2v-4h2v-2.002c0-0.809,0.488-1.54,1.234-1.849
	C25.981,17.842,26.843,18.014,27.414,18.584z M14,22h2v4h-2V22z M12,6h2v4h-2V6z M10,18H2c-1.104,0-2,0.896-2,2v8
	c0,1.105,0.896,2,2,2h8c1.104,0,2-0.895,2-2v-8C12,18.896,11.104,18,10,18z M8,26H4v-4h4V26z M16,6h2v4h-2V6z M30,2h-8
	c-1.106,0-2,0.896-2,2v8c0,1.104,0.894,2,2,2h8c1.106,0,2-0.896,2-2V4C32,2.896,31.106,2,30,2z M28,10h-4V6h4V10z M18,22h2v4h-2V22z
	"/>
  </g></svg>