<svg id="svg-source" height="0" version="1.1" 
  xmlns="http://www.w3.org/2000/svg" style="position:absolute; margin-left: -100%" 
  xmlns:xlink="http://www.w3.org/1999/xlink"><g xmlns="http://www.w3.org/2000/svg" id="unlocked">
    <path id="unlocked" d="M26,14H10v-4c0-3.314,2.686-6,6-6c2.61,0,4.804,1.676,5.632,4h4.166
	C24.872,3.436,20.838,0,16,0C10.479,0,6,4.476,6,10v4c-1.104,0-2,0.896-2,2v14c0,1.106,0.896,2,2,2h20c1.106,0,2-0.894,2-2V16
	C28,14.896,27.106,14,26,14z M24,18v10H8V18H24z"/>
  </g></svg>