<svg id="svg-source" height="0" version="1.1" 
  xmlns="http://www.w3.org/2000/svg" style="position:absolute; margin-left: -100%" 
  xmlns:xlink="http://www.w3.org/1999/xlink"><g xmlns="http://www.w3.org/2000/svg" id="unwatch">
    <path id="unwatch" d="M30,8h-8c-1.106,0-2-0.894-2-2s0.894-2,2-2h8c1.106,0,2,0.894,2,2S31.106,8,30,8z M16,20
	c-2.208,0-4-1.792-4-4c0-0.068,0.016-0.13,0.02-0.198C12.33,15.91,12.652,16,13,16c1.656,0,3-1.344,3-3
	c0-0.348-0.09-0.67-0.197-0.98C15.87,12.016,15.932,12,16,12c2.208,0,4,1.792,4,4S18.208,20,16,20z M16,8c-4.418,0-8,3.582-8,8
	s3.582,8,8,8s8-3.582,8-8c0-1.464-0.422-2.818-1.11-4h7.074C31.392,14.202,32,16,32,16s-4,12-16,12S0,16,0,16S4,4,16,4
	c0.124,0,0.235,0.02,0.362,0.024C16.142,4.644,16,5.302,16,6c0,0.718,0.146,1.398,0.378,2.04C16.25,8.032,16.13,8,16,8z"/>
  </g></svg>