<svg id="svg-source" height="0" version="1.1" 
  xmlns="http://www.w3.org/2000/svg" style="position:absolute; margin-left: -100%" 
  xmlns:xlink="http://www.w3.org/1999/xlink"><g xmlns="http://www.w3.org/2000/svg" id="user-4-add">
    <path id="user-4-add" d="M29.714,27.429h-2.285v2.285c0,1.265-1.021,2.286-2.286,2.286
	c-1.264,0-2.285-1.021-2.285-2.286v-2.285h-2.286c-1.264,0-2.285-1.021-2.285-2.286c0-1.264,1.021-2.285,2.285-2.285h2.286v-2.286
	c0-1.264,1.021-2.285,2.285-2.285c1.265,0,2.286,1.021,2.286,2.285v2.286h2.285c1.265,0,2.286,1.021,2.286,2.285
	C32,26.407,30.979,27.429,29.714,27.429z M18.607,18.607c-2.824,0.849-4.893,3.438-4.893,6.535c0,2.983,1.912,5.493,4.571,6.438V32
	H2.285C1.023,32,0,30.979,0,29.714c0-4.571,4.418-8.836,8.936-10.523c-2.608-1.61-4.364-4.474-4.364-7.762V9.143
	C4.571,4.094,8.665,0,13.715,0c5.049,0,9.143,4.094,9.143,9.143v2.286c0,1.065-0.238,2.055-0.576,3.001
	C20.542,15.258,19.17,16.731,18.607,18.607z"/>
  </g></svg>