<svg id="svg-source" height="0" version="1.1" 
  xmlns="http://www.w3.org/2000/svg" style="position:absolute; margin-left: -100%" 
  xmlns:xlink="http://www.w3.org/1999/xlink"><g xmlns="http://www.w3.org/2000/svg" id="user-4-remove">
    <path id="user-4-remove" d="M29.714,27.429h-9.143c-1.264,0-2.285-1.021-2.285-2.286
	c0-1.264,1.021-2.285,2.285-2.285h9.143c1.265,0,2.286,1.021,2.286,2.285C32,26.407,30.979,27.429,29.714,27.429z M13.715,25.143
	c0,3.787,3.069,6.857,6.856,6.857H2.285C1.023,32,0,30.979,0,29.714c0-4.571,4.418-8.836,8.936-10.523
	c-2.608-1.61-4.364-4.474-4.364-7.762V9.143C4.571,4.094,8.665,0,13.715,0c5.049,0,9.143,4.094,9.143,9.143v2.286
	c0,2.832-1.344,5.294-3.371,6.967C16.217,18.919,13.715,21.728,13.715,25.143z"/>
  </g></svg>