<svg id="svg-source" height="0" version="1.1" 
  xmlns="http://www.w3.org/2000/svg" style="position:absolute; margin-left: -100%" 
  xmlns:xlink="http://www.w3.org/1999/xlink"><g xmlns="http://www.w3.org/2000/svg" id="users">
    <path id="users" d="M25.778,17.512C28.914,19.25,31.382,22.332,32,26c0,3.312-2.688,6-6,6h-2.765
	c1.193-1.042,2.068-2.42,2.48-4H26c1.106,0,2-0.894,2-2c-0.516-1.992-1.878-3.664-3.644-4.739c-0.932-1.617-2.188-3.072-3.715-4.25
	c0.232-0.395,0.433-0.807,0.606-1.229C22.843,15.254,24,13.77,24,12V8c0-1.772-1.157-3.256-2.754-3.782
	c-0.652-1.586-1.72-2.942-3.042-3.998C18.784,0.086,19.38,0,20,0c4.418,0,8,3.582,8,8v4C28,14.142,27.146,16.076,25.778,17.512z
	 M18,32H6c-3.314,0-6-2.688-6-6l0,0c0.617-3.668,3.086-6.75,6.225-8.488C4.854,16.076,4,14.142,4,12V8c0-4.418,3.582-8,8-8
	s8,3.582,8,8v4c0,2.142-0.854,4.076-2.222,5.512C20.914,19.25,23.382,22.332,24,26l0,0C24,29.312,21.312,32,18,32z M16,12V8
	c0-2.208-1.792-4-4-4S8,5.792,8,8v4c0,2.208,1.792,4,4,4S16,14.208,16,12z M20,26c-0.892-3.446-4.277-6-8-6l0,0l0,0
	c-3.725,0-7.107,2.554-8,6l0,0c0,1.106,0.896,2,2,2h12C19.106,28,20,27.106,20,26L20,26z"/>
  </g></svg>