<svg id="svg-source" height="0" version="1.1" 
  xmlns="http://www.w3.org/2000/svg" style="position:absolute; margin-left: -100%" 
  xmlns:xlink="http://www.w3.org/1999/xlink"><g xmlns="http://www.w3.org/2000/svg" id="user-2-remove">
    <path id="user-2-remove" d="M28,26h-8c-1.106,0-2-0.894-2-2s0.894-2,2-2h8c1.106,0,2,0.894,2,2S29.106,26,28,26z
	 M20.474,18H20c-1.832,0-3.454,0.84-4.555,2.134C14.973,20.048,14.49,20,14,20c-3.725,0-7.107,2.554-8,6c0,1.106,0.896,2,2,2h7.559
	c1.098,1.218,2.672,2,4.441,2h4.442c-1.099,1.218-2.673,2-4.442,2H8c-3.314,0-6-2.688-6-6c0.617-3.668,3.086-6.75,6.225-8.485
	C6.854,16.076,6,14.14,6,12V8c0-4.418,3.582-8,8-8s8,3.582,8,8v4c0,2.14-0.854,4.076-2.222,5.515
	C20.026,17.649,20.235,17.847,20.474,18z M18,8c0-2.208-1.792-4-4-4s-4,1.792-4,4v4c0,2.208,1.792,4,4,4s4-1.792,4-4V8z"/>
  </g></svg>