<svg id="svg-source" height="0" version="1.1" 
  xmlns="http://www.w3.org/2000/svg" style="position:absolute; margin-left: -100%" 
  xmlns:xlink="http://www.w3.org/1999/xlink"><g xmlns="http://www.w3.org/2000/svg" id="user-3">
    <path id="user-3" d="M16,32C7.164,32,0,24.836,0,16S7.164,0,16,0s16,7.164,16,16S24.836,32,16,32z M16,4
	C9.374,4,4,9.374,4,16c0,6.628,5.374,12,12,12s12-5.372,12-12C28,9.374,22.626,4,16,4z M16,26c-2.154,0-4.137-0.696-5.77-1.856
	C10.086,23.792,10,23.406,10,23l0,0c0.309-1.834,1.542-3.376,3.113-4.244C12.426,18.04,12,17.07,12,16v-2c0-2.208,1.792-4,4-4
	s4,1.792,4,4v2c0,1.07-0.426,2.04-1.112,2.756c1.57,0.868,2.805,2.41,3.112,4.244l0,0c0,0.406-0.086,0.792-0.23,1.144
	C20.136,25.304,18.153,26,16,26z"/>
  </g></svg>