<svg id="svg-source" height="0" version="1.1" 
  xmlns="http://www.w3.org/2000/svg" style="position:absolute; margin-left: -100%" 
  xmlns:xlink="http://www.w3.org/1999/xlink"><g xmlns="http://www.w3.org/2000/svg" id="user-card">
    <path id="user-card" d="M30,28h-6v-2h1c0.552,0,1-0.448,1-1s-0.448-1-1-1h-4c-0.55,0-1,0.448-1,1s0.45,1,1,1h1v2H10
	v-2h1c0.553,0,1-0.448,1-1s-0.447-1-1-1H7c-0.553,0-1,0.448-1,1s0.447,1,1,1h1v2H2c-1.104,0-2-0.894-2-2V6c0-1.104,0.896-2,2-2h28
	c1.106,0,2,0.896,2,2v20C32,27.106,31.106,28,30,28z M20,22h2v-2h-2V22z M20,14h4v-2h-4V14z M18,8H4v14h14V8z M26,8h-6v2h6V8z M30,8
	h-2v2h2V8z M30,12h-4v2h4V12z M30,16H20v2h10V16z M10,18.122v-0.324C8.84,17.382,8,16.302,8,15v-2c0-1.658,1.342-3,3-3s3,1.342,3,3
	v2c0,1.302-0.84,2.382-2,2.798v0.322c1.208,0.252,2.258,0.928,2.979,1.88H12h-2H7.021C7.742,19.048,8.792,18.372,10,18.122z"/>
  </g></svg>