<svg id="svg-source" height="0" version="1.1" 
  xmlns="http://www.w3.org/2000/svg" style="position:absolute; margin-left: -100%" 
  xmlns:xlink="http://www.w3.org/1999/xlink"><g xmlns="http://www.w3.org/2000/svg" id="user-2-add">
    <path id="user-2-add" d="M28,26h-2v2c0,1.106-0.894,2-2,2s-2-0.894-2-2v-2h-2c-1.106,0-2-0.894-2-2s0.894-2,2-2h2v-2
	c0-1.106,0.894-2,2-2s2,0.894,2,2v2h2c1.106,0,2,0.894,2,2S29.106,26,28,26z M18.282,18.282c-1.118,0.336-2.088,0.994-2.83,1.855
	C14.977,20.05,14.492,20,14,20c-3.725,0-7.107,2.554-8,6c0,1.106,0.896,2,2,2h7.637c0.655,0.708,1.434,1.302,2.363,1.632V32H8
	c-3.314,0-6-2.688-6-6c0.617-3.668,3.086-6.75,6.225-8.485C6.854,16.076,6,14.14,6,12V8c0-4.418,3.582-8,8-8s8,3.582,8,8v4
	c0,0.898-0.18,1.746-0.456,2.548C19.985,15.262,18.782,16.614,18.282,18.282z M18,8c0-2.208-1.792-4-4-4s-4,1.792-4,4v4
	c0,2.208,1.792,4,4,4s4-1.792,4-4V8z"/>
  </g></svg>