<svg id="svg-source" height="0" version="1.1" 
  xmlns="http://www.w3.org/2000/svg" style="position:absolute; margin-left: -100%" 
  xmlns:xlink="http://www.w3.org/1999/xlink"><g xmlns="http://www.w3.org/2000/svg" id="user-2">
    <path id="user-2" d="M22,32H10c-3.314,0-6-2.688-6-6l0,0c0.617-3.668,3.086-6.75,6.225-8.488
	C8.854,16.076,8,14.142,8,12V8c0-4.418,3.582-8,8-8s8,3.582,8,8v4c0,2.142-0.854,4.076-2.222,5.512
	C24.914,19.25,27.382,22.332,28,26l0,0C28,29.312,25.312,32,22,32z M20,12V8c0-2.208-1.792-4-4-4s-4,1.792-4,4v4
	c0,2.208,1.792,4,4,4S20,14.208,20,12z M24,26c-0.892-3.446-4.278-6-8-6l0,0l0,0c-3.725,0-7.107,2.554-8,6l0,0c0,1.106,0.896,2,2,2
	h12C23.106,28,24,27.106,24,26L24,26z"/>
  </g></svg>