<svg id="svg-source" height="0" version="1.1" 
  xmlns="http://www.w3.org/2000/svg" style="position:absolute; margin-left: -100%" 
  xmlns:xlink="http://www.w3.org/1999/xlink"><g xmlns="http://www.w3.org/2000/svg" id="user">
    <path id="user" d="M30.934,32H1.066c0-3.859,4.514-7.083,10.666-8.136v-1.579c-2.538-1.481-4.266-4.2-4.266-7.352
	v-0.216c-1.238-0.443-2.134-1.596-2.134-2.984c0-1.389,0.896-2.541,2.134-2.984V8.533C7.467,3.821,11.287,0,16,0
	s8.533,3.821,8.533,8.533v0.216c1.236,0.443,2.133,1.595,2.133,2.984c0,1.389-0.896,2.541-2.133,2.984v0.216
	c0,3.151-1.729,5.87-4.268,7.349v1.579C26.42,24.917,30.934,28.141,30.934,32z"/>
  </g></svg>