<svg id="svg-source" height="0" version="1.1" 
  xmlns="http://www.w3.org/2000/svg" style="position:absolute; margin-left: -100%" 
  xmlns:xlink="http://www.w3.org/1999/xlink"><g xmlns="http://www.w3.org/2000/svg" id="video-2">
    <path id="video-2" d="M26,32H6c-3.314,0-6-2.688-6-6V6c0-3.314,2.686-6,6-6h20c3.312,0,6,2.686,6,6v20
	C32,29.312,29.312,32,26,32z M28,6c0-1.104-0.894-2-2-2H6l0,0l0,0v2H4l0,0l0,0v4h24V6z M28,14H4v12c0,1.106,0.896,2,2,2h20
	c1.106,0,2-0.894,2-2V14z M6,20h18v2H6V20z M6,16h18v2H6V16z M20,26H6v-2h14V26z M12,6h-2V4h2V6z M14,8h-2V6h2V8z M10,10V8h2v2H10z
	 M18,6h-2V4h2V6z M20,8h-2V6h2V8z M16,10V8h2v2H16z M24,6h-2V4h2V6z M26,8h-2V6h2V8z M22,10V8h2v2H22z M8,8H6V6h2V8z M4,10V8h2v2H4z
	"/>
  </g></svg>