<svg id="svg-source" height="0" version="1.1" 
  xmlns="http://www.w3.org/2000/svg" style="position:absolute; margin-left: -100%" 
  xmlns:xlink="http://www.w3.org/1999/xlink"><g xmlns="http://www.w3.org/2000/svg" id="video">
    <path id="video" d="M26,32H6c-3.314,0-6-2.688-6-6V6c0-3.314,2.686-6,6-6h20c3.312,0,6,2.686,6,6v20
	C32,29.312,29.312,32,26,32z M28,6c0-1.104-0.894-2-2-2H6C4.896,4,4,4.896,4,6v20c0,1.106,0.896,2,2,2h20c1.106,0,2-0.894,2-2V6z
	 M24,26h-2V6h4v2h-2v2h2v2h-2v2h2v2h-2v2h2v2h-2v2h2v2h-2V26z M12,22h8v4h-8V22z M12,12h8v8h-8V12z M12,6h8v4h-8V6z M8,24H6v-2h2v-2
	H6v-2h2v-2H6v-2h2v-2H6v-2h2V8H6V6h4v20H8V24z"/>
  </g></svg>