<svg id="svg-source" height="0" version="1.1" 
  xmlns="http://www.w3.org/2000/svg" style="position:absolute; margin-left: -100%" 
  xmlns:xlink="http://www.w3.org/1999/xlink"><g xmlns="http://www.w3.org/2000/svg" id="vinyl">
    <path id="vinyl" d="M16,32c8.836,0,16-7.164,16-16S24.836,0,16,0S0,7.164,0,16S7.164,32,16,32z M16,4
	c6.626,0,12,5.374,12,12c0,6.628-5.374,12-12,12S4,22.628,4,16C4,9.374,9.374,4,16,4z M8,16c0-4.418,3.582-8,8-8V6
	C10.477,6,6,10.478,6,16H8z M10,16c0,3.312,2.686,6,6,6c3.313,0,6-2.688,6-6c0-3.314-2.687-6-6-6C12.686,10,10,12.686,10,16z M16,14
	c1.106,0,2,0.896,2,2c0,1.104-0.894,2-2,2c-1.105,0-2-0.896-2-2C14,14.896,14.895,14,16,14z M16,24v2c5.524,0,10-4.476,10-10h-2
	C24,20.418,20.418,24,16,24z"/>
  </g></svg>