<svg id="svg-source" height="0" version="1.1" 
  xmlns="http://www.w3.org/2000/svg" style="position:absolute; margin-left: -100%" 
  xmlns:xlink="http://www.w3.org/1999/xlink"><g xmlns="http://www.w3.org/2000/svg" id="voicemail">
    <path id="voicemail" d="M25,23H7c-0.484,0-0.956-0.048-1.412-0.142C4.223,22.578,3,21.899,2.048,20.95
	C0.783,19.684,0,17.934,0,16c0-3.868,3.135-7,7-7s7,3.132,7,7c0,1.078-0.264,2.088-0.699,3H18.7c-0.436-0.912-0.7-1.922-0.7-3
	c0-3.868,3.134-7,7-7s7,3.132,7,7C32,19.866,28.866,23,25,23z M10,16c0-1.656-1.342-3-3-3s-3,1.344-3,3c0,1.656,1.342,3,3,3
	S10,17.656,10,16z M25,13c-1.656,0-3,1.344-3,3c0,1.656,1.344,3,3,3s3-1.344,3-3C28,14.344,26.656,13,25,13z"/>
  </g></svg>