<svg id="svg-source" height="0" version="1.1" 
  xmlns="http://www.w3.org/2000/svg" style="position:absolute; margin-left: -100%" 
  xmlns:xlink="http://www.w3.org/1999/xlink"><g xmlns="http://www.w3.org/2000/svg" id="wallet">
    <path id="wallet" d="M0,26V6c0-3.314,2.686-6,6-6h16c3.312,0,6,2.686,6,6v4h2c1.106,0,2,0.894,2,2v8
	c0,1.106-0.894,2-2,2h-2v4c0,3.313-2.688,6-6,6H6C2.686,32,0,29.313,0,26z M30,20v-8H18v8H30z M22,28c1.106,0,2-0.894,2-2v-4h-2v2
	h-2v-2h-2c-1.104,0-2-0.894-2-2v-8c0-1.106,0.896-2,2-2h2h2h2V6c0-1.104-0.894-2-2-2H6C4.896,4,4,4.896,4,6v20c0,1.106,0.896,2,2,2
	H22z M6,24h2v2C6.896,26,6,25.106,6,24z M12,24v2h-2v-2H12z M16,24v2h-2v-2H16z M8,20v2H6v-2H8z M8,16v2H6v-2H8z M8,12v2H6v-2H8z
	 M8,8v2H6V8H8z M10,6v2H8V6H10z M14,6v2h-2V6H14z M18,6v2h-2V6H18z M22,8h-2V6C21.106,6,22,6.896,22,8z M18,26v-2h2v2H18z M24,16
	c0,1.106-0.894,2-2,2s-2-0.894-2-2c0-1.106,0.894-2,2-2S24,14.894,24,16z"/>
  </g></svg>