<svg id="svg-source" height="0" version="1.1" 
  xmlns="http://www.w3.org/2000/svg" style="position:absolute; margin-left: -100%" 
  xmlns:xlink="http://www.w3.org/1999/xlink"><g xmlns="http://www.w3.org/2000/svg" id="wallet-2">
    <path id="wallet-2" d="M28,28h-0.368c-0.826,2.324-3.023,4-5.632,4H6c-3.314,0-6-2.687-6-6V6c0-3.314,2.686-6,6-6h16
	c3.313,0,6,2.686,6,6v8c2.208,0,4,1.792,4,4v6C32,26.208,30.208,28,28,28z M18,28h4c1.106,0,2-0.894,2-2l0,0h-2h-2h-2V28z M4,26
	c0,1.106,0.896,2,2,2h8v-2h-2c-2.208,0-4-1.792-4-4v-2c0-2.208,1.792-4,4-4h2v-2H4V26z M16,10c1.106,0,2,0.894,2,2v4h2V8H8v2H16z
	 M24,14V6c0-1.106-0.894-2-2-2H6C4.896,4,4,4.894,4,6v4h2V8V6h2h12h2v2v8h2V14z M28,20c0-1.106-0.894-2-2-2h-2H13h-1
	c-1.104,0-2,0.894-2,2v2c0,1.106,0.896,2,2,2h1h11h2c1.106,0,2-0.894,2-2V20z"/>
  </g></svg>