<svg id="svg-source" height="0" version="1.1" 
  xmlns="http://www.w3.org/2000/svg" style="position:absolute; margin-left: -100%" 
  xmlns:xlink="http://www.w3.org/1999/xlink"><g xmlns="http://www.w3.org/2000/svg" id="watch">
    <path id="watch" d="M16,28C4,28,0,16,0,16S4,4,16,4s16,12,16,12S28,28,16,28z M16,8c-4.418,0-8,3.582-8,8
	s3.582,8,8,8s8-3.582,8-8S20.418,8,16,8z M16,20c-2.208,0-4-1.792-4-4c0-0.068,0.016-0.13,0.02-0.198C12.33,15.91,12.652,16,13,16
	c1.656,0,3-1.344,3-3c0-0.348-0.09-0.67-0.197-0.98C15.87,12.016,15.932,12,16,12c2.208,0,4,1.792,4,4S18.208,20,16,20z"/>
  </g></svg>