<svg id="svg-source" height="0" version="1.1" 
  xmlns="http://www.w3.org/2000/svg" style="position:absolute; margin-left: -100%" 
  xmlns:xlink="http://www.w3.org/1999/xlink"><g xmlns="http://www.w3.org/2000/svg" id="watch-2">
    <path id="watch-2" d="M30,10h-2v2c0,1.106-0.894,2-2,2s-2-0.894-2-2v-2h-2c-1.106,0-2-0.894-2-2s0.894-2,2-2h2V4
	c0-1.106,0.894-2,2-2s2,0.894,2,2v2h2c1.106,0,2,0.894,2,2S31.106,10,30,10z M16,22c-2.208,0-4-1.792-4-4
	c0-0.067,0.016-0.13,0.02-0.198C12.33,17.91,12.652,18,13,18c1.656,0,3-1.344,3-3c0-0.348-0.09-0.67-0.197-0.98
	C15.87,14.016,15.932,14,16,14c2.208,0,4,1.792,4,4S18.208,22,16,22z M16,10c-4.418,0-8,3.582-8,8s3.582,8,8,8s8-3.582,8-8
	c0-0.124-0.032-0.242-0.038-0.368C24.598,17.866,25.282,18,26,18c2.008,0,3.766-0.998,4.848-2.516C31.64,16.95,32,18,32,18
	s-4,12-16,12S0,18,0,18S4,6,16,6c0.12,0,0.224,0.02,0.343,0.022C16.124,6.64,16,7.304,16,8c0,0.718,0.134,1.402,0.368,2.038
	C16.242,10.032,16.124,10,16,10z"/>
  </g></svg>