<svg id="svg-source" height="0" version="1.1" 
  xmlns="http://www.w3.org/2000/svg" style="position:absolute; margin-left: -100%" 
  xmlns:xlink="http://www.w3.org/1999/xlink"><g xmlns="http://www.w3.org/2000/svg" id="wave">
    <path id="wave" d="M29.714,32c-1.264,0-2.285-1.021-2.285-2.286V9.143c0-2.523-2.048-4.572-4.571-4.572
	c-2.524,0-4.571,2.048-4.571,4.572v13.714c0,5.049-4.095,9.143-9.144,9.143S0,27.906,0,22.857V2.286C0,1.024,1.021,0,2.285,0
	C3.55,0,4.571,1.024,4.571,2.286v20.572c0,2.523,2.048,4.571,4.571,4.571s4.572-2.048,4.572-4.571V9.143
	C13.715,4.094,17.808,0,22.857,0C27.906,0,32,4.094,32,9.143v20.571C32,30.979,30.979,32,29.714,32z"/>
  </g></svg>