<svg id="svg-source" height="0" version="1.1" 
  xmlns="http://www.w3.org/2000/svg" style="position:absolute; margin-left: -100%" 
  xmlns:xlink="http://www.w3.org/1999/xlink"><g xmlns="http://www.w3.org/2000/svg" id="wave-2">
    <path id="wave-2" d="M26,26L26,26V6c0-1.104-0.894-2-2-2s-2,0.896-2,2v20l0,0c0,3.312-2.687,6-6,6
	c-3.314,0-6-2.688-6-6V6c0-1.104-0.895-2-2-2S6,4.896,6,6v20l0,0c0,3.312-2.686,6-6,6v-4c1.105,0,2-0.894,2-2l0,0V6
	c0-3.314,2.686-6,6-6s6,2.686,6,6v20c0,1.106,0.895,2,2,2c1.106,0,2-0.894,2-2V6l0,0c0-3.314,2.687-6,6-6s6,2.686,6,6v20
	c0,1.106,0.894,2,2,2v4C28.687,32,26,29.312,26,26z"/>
  </g></svg>