<svg id="svg-source" height="0" version="1.1" 
  xmlns="http://www.w3.org/2000/svg" style="position:absolute; margin-left: -100%" 
  xmlns:xlink="http://www.w3.org/1999/xlink"><g xmlns="http://www.w3.org/2000/svg" id="wifi-high">
    <path id="wifi-high" d="M29.09,12.166c-7.23-7.23-18.953-7.23-26.184,0L0,9.257c8.837-8.837,23.164-8.837,32,0
	L29.09,12.166z M27.635,13.62l-2.91,2.91c-4.818-4.821-12.634-4.821-17.451,0l-2.91-2.91C10.789,7.194,21.207,7.194,27.635,13.62z
	 M23.271,17.984l-2.91,2.909c-2.408-2.411-6.314-2.411-8.725,0l-2.909-2.909C12.742,13.968,19.256,13.968,23.271,17.984z
	 M15.998,21.143c2.271,0,4.115,1.843,4.115,4.113c0,2.271-1.844,4.114-4.115,4.114c-2.27,0-4.113-1.843-4.113-4.114
	C11.885,22.985,13.729,21.143,15.998,21.143z"/>
  </g></svg>