<svg id="svg-source" height="0" version="1.1" 
  xmlns="http://www.w3.org/2000/svg" style="position:absolute; margin-left: -100%" 
  xmlns:xlink="http://www.w3.org/1999/xlink"><g xmlns="http://www.w3.org/2000/svg" id="wiggle">
    <path id="wiggle" d="M31.848,25.234C31.541,24.488,30.809,24,30,24h-2V7c0-3.866-3.133-7-6.998-7
	c-3.867,0-7.001,3.134-7.001,7v18c0,1.656-1.342,3-3,3c-1.657,0-3-1.344-3-3s0-17,0-17h2c0.808,0,1.54-0.488,1.849-1.234
	c0.308-0.748,0.138-1.608-0.435-2.18l-4-4C7.023,0.196,6.512,0,6.001,0c-0.51,0-1.024,0.196-1.415,0.586l-4,4
	c-0.57,0.572-0.742,1.432-0.435,2.18C0.461,7.512,1.191,8,2.002,8h2c0,0,0,13.134,0,17c0,3.865,3.133,7,6.999,7
	c3.868,0,7.001-3.135,7.001-7V7c0-1.658,1.344-3,3-3C22.656,4,24,5.342,24,7v17h-2c-0.807,0-1.539,0.488-1.846,1.234
	c-0.309,0.747-0.137,1.607,0.434,2.18l3.998,4C24.977,31.804,25.488,32,26,32s1.025-0.196,1.414-0.586l4-4
	C31.986,26.842,32.156,25.981,31.848,25.234z"/>
  </g></svg>