<svg id="svg-source" height="0" version="1.1" 
  xmlns="http://www.w3.org/2000/svg" style="position:absolute; margin-left: -100%" 
  xmlns:xlink="http://www.w3.org/1999/xlink"><g xmlns="http://www.w3.org/2000/svg" id="windows">
    <path id="windows" d="M28,25.632V10c0-3.314-2.687-6-6-6H6.367C7.193,1.674,9.391,0,12,0h14c3.313,0,6,2.686,6,6v14
	C32,22.61,30.324,24.806,28,25.632z M26,12v14c0,3.312-2.687,6-6,6H6c-3.314,0-6-2.688-6-6V12c0-3.314,2.686-6,6-6h14
	C23.313,6,26,8.686,26,12z M4,12v14c0,1.106,0.895,2,2,2h14c1.106,0,2-0.894,2-2V12c0-1.104-0.894-2-2-2H6C4.895,10,4,10.896,4,12z"/>
  </g></svg>