<svg id="svg-source" height="0" version="1.1" 
  xmlns="http://www.w3.org/2000/svg" style="position:absolute; margin-left: -100%" 
  xmlns:xlink="http://www.w3.org/1999/xlink"><g xmlns="http://www.w3.org/2000/svg" id="zoom-out-2">
    <path id="zoom-out-2" d="M31.119,31.119c-1.174,1.175-3.075,1.175-4.249,0l-5.304-5.303
	c-2.182,1.396-4.76,2.231-7.543,2.231C6.279,28.048,0,21.769,0,14.024C0,6.279,6.279,0,14.023,0c7.745,0,14.024,6.279,14.024,14.024
	c0,2.783-0.835,5.361-2.231,7.542l5.303,5.304C32.294,28.044,32.294,29.945,31.119,31.119z M14.023,4.007
	c-5.531,0-10.017,4.485-10.017,10.017c0,5.534,4.485,10.017,10.017,10.017c5.534,0,10.018-4.483,10.018-10.017
	C24.041,8.492,19.558,4.007,14.023,4.007z M18.031,16.027h-8.014c-1.106,0-2.004-0.897-2.004-2.003s0.897-2.003,2.004-2.003h8.014
	c1.107,0,2.003,0.897,2.003,2.003S19.139,16.027,18.031,16.027z"/>
  </g></svg>