<svg id="svg-source" height="0" version="1.1" 
  xmlns="http://www.w3.org/2000/svg" style="position:absolute; margin-left: -100%" 
  xmlns:xlink="http://www.w3.org/1999/xlink"><g xmlns="http://www.w3.org/2000/svg" id="zoom-in">
    <path id="zoom-in" d="M31.119,31.119c-1.174,1.174-3.075,1.174-4.249,0l-7.045-7.042
	c-1.982,1.227-4.299,1.968-6.803,1.968C5.83,26.045,0,20.214,0,13.022C0,5.83,5.83,0,13.022,0c7.191,0,13.022,5.83,13.022,13.022
	c0,2.504-0.741,4.82-1.966,6.806l7.042,7.042C32.293,28.044,32.293,29.945,31.119,31.119z M13.022,4.007
	c-4.979,0-9.016,4.037-9.016,9.016s4.037,9.016,9.016,9.016s9.016-4.037,9.016-9.016S18.001,4.007,13.022,4.007z M14.023,18.031
	h-2.003v-4.007H8.014v-2.003h4.007V8.014h2.003v4.007h4.008v2.003h-4.008V18.031z"/>
  </g></svg>