<svg id="svg-source" height="0" version="1.1" 
  xmlns="http://www.w3.org/2000/svg" style="position:absolute; margin-left: -100%" 
  xmlns:xlink="http://www.w3.org/1999/xlink"><g xmlns="http://www.w3.org/2000/svg" id="android">
    <g>
      <path fill="#9AC43B" d="M16,32c8.837,0,16-7.164,16-16S24.837,0,16,0C7.162,0,0,7.164,0,16S7.162,32,16,32"/>
      <path fill="#FFFFFF" d="M18.39,9.393l0.174-0.262l0.173-0.258l0.386-0.579c0.048-0.071,0.028-0.167-0.044-0.215
		c-0.07-0.048-0.167-0.028-0.214,0.043L18.45,8.743l-0.175,0.261L18.1,9.269c-0.56-0.217-1.184-0.339-1.842-0.339
		s-1.283,0.122-1.843,0.339l-0.176-0.265l-0.174-0.261L13.65,8.122c-0.047-0.07-0.143-0.091-0.215-0.043
		c-0.07,0.048-0.09,0.144-0.043,0.215l0.386,0.579l0.173,0.258l0.175,0.262c-1.314,0.612-2.204,1.771-2.204,3.1h8.671
		C20.593,11.164,19.703,10.005,18.39,9.393z M14.399,11.253c-0.257,0-0.465-0.208-0.465-0.465c0-0.256,0.208-0.464,0.465-0.464
		s0.464,0.208,0.464,0.464C14.863,11.045,14.656,11.253,14.399,11.253z M18.115,11.253c-0.257,0-0.465-0.208-0.465-0.465
		c0-0.256,0.208-0.464,0.465-0.464s0.465,0.208,0.465,0.464C18.58,11.045,18.372,11.253,18.115,11.253z"/>
      <path fill="#FFFFFF" d="M11.989,13.111h-0.067v0.771v0.631v5.41c0,0.541,0.44,0.98,0.981,0.98h0.707
		c-0.023,0.082-0.036,0.169-0.036,0.259v0.052v0.309v1.6c0,0.514,0.416,0.93,0.928,0.93c0.514,0,0.931-0.416,0.931-0.93v-1.6v-0.309
		v-0.052c0-0.09-0.015-0.177-0.038-0.259h1.726c-0.024,0.082-0.037,0.169-0.037,0.259v0.052v0.309v1.6
		c0,0.514,0.416,0.93,0.929,0.93c0.514,0,0.93-0.416,0.93-0.93v-1.6v-0.309v-0.052c0-0.09-0.014-0.177-0.037-0.259h0.708
		c0.541,0,0.98-0.439,0.98-0.98v-5.41v-0.631v-0.771h-0.067H11.989z"/>
      <path fill="#FFFFFF" d="M10.374,13.111c-0.514,0-0.93,0.416-0.93,0.928v3.975c0,0.513,0.416,0.93,0.93,0.93
		c0.513,0,0.929-0.417,0.929-0.93v-3.975C11.303,13.527,10.887,13.111,10.374,13.111z"/>
      <path fill="#FFFFFF" d="M22.142,13.111c-0.514,0-0.93,0.416-0.93,0.928v3.975c0,0.513,0.416,0.93,0.93,0.93
		c0.513,0,0.929-0.417,0.929-0.93v-3.975C23.07,13.527,22.654,13.111,22.142,13.111z"/>
    </g>
  </g></svg>