<svg id="svg-source" height="0" version="1.1" 
  xmlns="http://www.w3.org/2000/svg" style="position:absolute; margin-left: -100%" 
  xmlns:xlink="http://www.w3.org/1999/xlink"><g xmlns="http://www.w3.org/2000/svg" id="b">
    <g>
      <path fill="#E52620" d="M16,32c8.838,0,16-7.164,16-16S24.838,0,16,0S0,7.164,0,16S7.162,32,16,32"/>
      <path fill="#FFFFFF" d="M17.757,11.527c3.402,0,6.223,2.821,6.223,6.223c0,3.388-2.834,6.222-6.223,6.222h-3.531
		C10.842,23.972,8,21.135,8,17.75V9.444C8,8.655,8.654,8,9.444,8c0.787,0,1.443,0.657,1.443,1.444c0,2.768,0.004,5.537,0.004,8.306
		c0,1.822,1.512,3.334,3.334,3.334h3.531c1.815,0,3.335-1.52,3.335-3.334c0-1.823-1.513-3.335-3.335-3.335h-3.809
		c-0.79,0-1.444-0.654-1.444-1.444c0-0.787,0.657-1.444,1.444-1.444H17.757L17.757,11.527z"/>
    </g>
  </g></svg>