<svg id="svg-source" height="0" version="1.1" 
  xmlns="http://www.w3.org/2000/svg" style="position:absolute; margin-left: -100%" 
  xmlns:xlink="http://www.w3.org/1999/xlink"><g xmlns="http://www.w3.org/2000/svg" id="behance">
    <g>
      <path fill="#010202" d="M16,32c8.837,0,16-7.164,16-16c0-8.836-7.163-16-16-16S0,7.164,0,16C0,24.836,7.163,32,16,32"/>
      <path fill="#FFFFFF" d="M15.341,11.985c0.301,0.421,0.453,0.923,0.453,1.509c0,0.603-0.151,1.089-0.456,1.456
		c-0.172,0.206-0.423,0.394-0.755,0.563c0.504,0.185,0.885,0.475,1.143,0.873c0.256,0.397,0.385,0.88,0.385,1.449
		c0,0.586-0.146,1.112-0.441,1.577c-0.187,0.308-0.42,0.568-0.7,0.778c-0.315,0.242-0.686,0.407-1.116,0.497
		c-0.43,0.089-0.895,0.133-1.397,0.133H8v-9.888h4.778C13.984,10.949,14.838,11.3,15.341,11.985z M9.972,12.649v2.182h2.404
		c0.428,0,0.777-0.083,1.046-0.246c0.267-0.164,0.402-0.454,0.402-0.868c0-0.461-0.177-0.765-0.531-0.914
		c-0.306-0.103-0.695-0.154-1.168-0.154H9.972z M9.972,16.466v2.637h2.4c0.429,0,0.764-0.058,1.001-0.174
		c0.435-0.216,0.65-0.627,0.65-1.234c0-0.515-0.208-0.868-0.629-1.061c-0.235-0.107-0.565-0.164-0.988-0.167H9.972z M22.088,13.656
		c0.511,0.228,0.931,0.589,1.262,1.082c0.302,0.434,0.496,0.938,0.584,1.511c0.052,0.335,0.073,0.82,0.063,1.452h-5.327
		c0.031,0.733,0.284,1.248,0.766,1.542c0.292,0.184,0.643,0.275,1.054,0.275c0.434,0,0.789-0.111,1.061-0.335
		c0.149-0.121,0.281-0.289,0.394-0.503h1.952c-0.051,0.433-0.289,0.874-0.708,1.323c-0.655,0.71-1.572,1.065-2.75,1.065
		c-0.974,0-1.833-0.299-2.575-0.899c-0.746-0.6-1.116-1.576-1.116-2.926c0-1.268,0.335-2.239,1.006-2.916
		c0.672-0.675,1.543-1.014,2.614-1.014C21.005,13.313,21.578,13.428,22.088,13.656z M19.229,15.308
		c-0.271,0.279-0.44,0.656-0.51,1.132h3.295c-0.035-0.507-0.206-0.892-0.509-1.156c-0.307-0.262-0.685-0.394-1.136-0.394
		C19.88,14.89,19.499,15.029,19.229,15.308z M22.461,11.393h-4.237v1.23h4.237V11.393z"/>
    </g>
  </g></svg>