<svg id="svg-source" height="0" version="1.1" 
  xmlns="http://www.w3.org/2000/svg" style="position:absolute; margin-left: -100%" 
  xmlns:xlink="http://www.w3.org/1999/xlink"><g xmlns="http://www.w3.org/2000/svg" id="deviantart">
    <g>
      <path fill="#4D5F52" d="M16,32c8.837,0,16-7.164,16-16S24.837,0,16,0C7.162,0,0,7.164,0,16S7.162,32,16,32"/>
      <path fill="#FFFFFF" d="M13.797,14.209c3.623-1.042,6.647,1.086,6.647,1.086l-2.493,0.674l-0.718-1.334
		c-0.675-0.125-1.445-0.164-2.264-0.025l1.698,3.448L24,15.945c0,0-2.66-4.177-10.593-2.827c-0.046,0.008-0.087,0.02-0.133,0.026
		l-0.771-1.563L10.22,11.84l0.932,1.904c-4.814,1.987-2.681,6.675-2.681,6.675l7.344-2.114L13.797,14.209z M10.458,17.99
		c0,0-0.708-1.562,1.351-2.9l1.096,2.241L10.458,17.99z"/>
    </g>
  </g></svg>