<svg id="svg-source" height="0" version="1.1" 
  xmlns="http://www.w3.org/2000/svg" style="position:absolute; margin-left: -100%" 
  xmlns:xlink="http://www.w3.org/1999/xlink"><g xmlns="http://www.w3.org/2000/svg" id="dribbble">
    <g>
      <path fill="#E94190" d="M16,32c8.837,0,16-7.164,16-16c0-8.836-7.163-16-16-16C7.162,0,0,7.164,0,16C0,24.836,7.162,32,16,32"/>
      <path fill-rule="evenodd" clip-rule="evenodd" fill="#FFFFFF" d="M23.836,14.39c-0.104-0.514-0.262-1.021-0.466-1.504
		c-0.2-0.475-0.448-0.932-0.737-1.359c-0.286-0.423-0.615-0.822-0.977-1.183c-0.361-0.362-0.76-0.691-1.184-0.977
		c-0.427-0.29-0.885-0.538-1.358-0.738c-0.483-0.204-0.99-0.362-1.504-0.466C17.084,8.055,16.542,8,16,8s-1.084,0.055-1.611,0.164
		c-0.515,0.104-1.02,0.262-1.503,0.466c-0.474,0.201-0.932,0.448-1.36,0.738c-0.423,0.286-0.82,0.614-1.183,0.977
		c-0.362,0.361-0.69,0.76-0.976,1.183c-0.289,0.427-0.539,0.884-0.738,1.359c-0.204,0.483-0.361,0.99-0.467,1.504
		C8.055,14.915,8,15.458,8,16c0,0.543,0.055,1.085,0.162,1.612c0.105,0.514,0.263,1.021,0.467,1.503
		c0.199,0.474,0.449,0.933,0.738,1.36c0.285,0.423,0.613,0.821,0.976,1.183c0.362,0.361,0.76,0.689,1.183,0.976
		c0.429,0.289,0.887,0.538,1.36,0.738c0.483,0.205,0.988,0.361,1.503,0.466C14.916,23.946,15.458,24,16,24s1.084-0.055,1.61-0.164
		c0.514-0.105,1.021-0.261,1.504-0.466c0.474-0.2,0.932-0.449,1.358-0.738c0.424-0.286,0.822-0.614,1.184-0.976
		c0.361-0.362,0.69-0.76,0.977-1.183c0.289-0.427,0.537-0.886,0.737-1.36c0.204-0.482,0.361-0.989,0.466-1.503
		C23.945,17.085,24,16.542,24,16C24,15.458,23.945,14.915,23.836,14.39z M22.83,15.932c-0.1-0.021-2.411-0.519-4.76-0.224
		c-0.047-0.117-0.096-0.234-0.146-0.353c-0.143-0.334-0.296-0.666-0.454-0.991c2.697-1.102,3.792-2.686,3.806-2.704
		C22.234,12.824,22.812,14.311,22.83,15.932z M20.513,10.873c-0.018,0.026-0.99,1.508-3.57,2.474
		c-1.167-2.146-2.45-3.851-2.553-3.986c0.517-0.125,1.056-0.193,1.61-0.193C17.729,9.167,19.309,9.812,20.513,10.873z M14.363,9.366
		c0,0.001-0.001,0.001-0.001,0.001s-0.009,0.001-0.021,0.004C14.348,9.37,14.355,9.369,14.363,9.366z M13.084,9.821
		c0.092,0.122,1.355,1.834,2.537,3.937c-3.279,0.872-6.127,0.837-6.308,0.834C9.758,12.476,11.179,10.721,13.084,9.821z M9.168,16
		c0-0.073,0.002-0.144,0.005-0.215c0.12,0.002,3.497,0.079,7.015-0.974c0.195,0.383,0.383,0.772,0.554,1.161
		c-0.091,0.025-0.179,0.052-0.269,0.082c-3.688,1.192-5.557,4.509-5.557,4.509s0.002,0.002,0.002,0.003
		C9.83,19.355,9.168,17.755,9.168,16z M16,22.833c-1.653,0-3.17-0.588-4.353-1.566c0.09,0.073,0.153,0.119,0.153,0.119
		s1.309-2.856,5.361-4.268c0.016-0.006,0.03-0.01,0.045-0.015c0.962,2.498,1.359,4.59,1.46,5.188
		C17.848,22.64,16.946,22.833,16,22.833z M19.817,21.667c-0.069-0.413-0.434-2.417-1.329-4.88c2.204-0.353,4.115,0.252,4.257,0.299
		C22.441,18.988,21.352,20.631,19.817,21.667z"/>
    </g>
  </g></svg>