<svg id="svg-source" height="0" version="1.1" 
  xmlns="http://www.w3.org/2000/svg" style="position:absolute; margin-left: -100%" 
  xmlns:xlink="http://www.w3.org/1999/xlink"><g xmlns="http://www.w3.org/2000/svg" id="ebay">
    <g>
      <path fill="#E83D41" d="M16,32c8.837,0,16-7.164,16-16S24.837,0,16,0C7.162,0,0,7.164,0,16S7.162,32,16,32"/>
      <g>
        <g>
          <g>
            <path fill="#FFFFFF" d="M8.509,13.731c-2.534-0.001-2.632,1.972-2.619,2.483c0,0-0.124,2.307,2.558,2.307
					c2.304,0,2.417-1.447,2.417-1.447l-1.06,0.002c0,0-0.207,0.797-1.354,0.775c-1.475-0.027-1.531-1.455-1.531-1.455h4.084
					C11.004,16.396,11.313,13.731,8.509,13.731z M6.954,15.697c0,0,0.072-1.291,1.53-1.292c1.451,0,1.451,1.292,1.451,1.292H6.954z"/>
          </g>
        </g>
        <g>
          <g>
            <path fill="#FFFFFF" d="M13.84,13.731c-1.273-0.008-1.822,0.754-1.822,0.754v-2.548h-1.021l0.018,5.385
					c0,0-0.006,0.628-0.045,1.042h0.992l0.043-0.604c0,0,0.463,0.762,1.814,0.762c1.353,0,2.42-0.833,2.449-2.377
					C16.296,14.6,15.114,13.738,13.84,13.731z M13.606,17.832c-1.609,0.021-1.583-1.706-1.583-1.706s-0.059-1.662,1.58-1.704
					c1.639-0.043,1.585,1.74,1.585,1.74S15.215,17.812,13.606,17.832z"/>
          </g>
        </g>
        <g>
          <g>
            <path fill="#FFFFFF" d="M20.986,17.302c0.002-0.697,0.022-1.319,0-1.758c-0.027-0.509,0.021-1.736-2.178-1.827
					c0,0-2.109-0.192-2.328,1.377h1.078c0,0,0.084-0.719,1.179-0.698c1.035,0.02,1.224,0.527,1.219,1.152
					c0,0-0.888,0.003-1.184,0.004c-0.534,0.003-2.402,0.062-2.577,1.2c-0.207,1.353,1.001,1.774,1.945,1.77
					c0.945-0.006,1.484-0.289,1.885-0.796l0.043,0.63l0.939-0.005C21.008,18.351,20.983,17.998,20.986,17.302z M18.316,17.87
					c0,0-1.023,0.001-1.083-0.817c-0.064-0.872,1.575-0.82,1.575-0.82l1.157-0.001C19.966,16.231,20.153,17.894,18.316,17.87z"/>
          </g>
        </g>
        <polygon fill="#FFFFFF" points="20.428,13.901 21.612,13.901 23.346,17.357 25.082,13.901 26.153,13.901 23.018,20.062 
			21.872,20.062 22.779,18.351 		"/>
      </g>
    </g>
  </g></svg>