<svg id="svg-source" height="0" version="1.1" 
  xmlns="http://www.w3.org/2000/svg" style="position:absolute; margin-left: -100%" 
  xmlns:xlink="http://www.w3.org/1999/xlink"><g xmlns="http://www.w3.org/2000/svg" id="facebook">
    <g>
      <path fill="#35679A" d="M16,32c8.836,0,16-7.163,16-16c0-8.836-7.164-16-16-16S0,7.164,0,16C0,24.837,7.163,32,16,32"/>
      <path fill="#FFFFFF" d="M12.14,13.291h1.654v-1.608c0-0.708,0.018-1.802,0.533-2.479C14.869,8.487,15.614,8,16.895,8
		c2.087,0,2.965,0.298,2.965,0.298l-0.414,2.451c0,0-0.689-0.2-1.332-0.2c-0.644,0-1.22,0.231-1.22,0.874v1.869h2.638l-0.184,2.394
		h-2.454V24h-3.101v-8.315H12.14V13.291z"/>
    </g>
  </g></svg>