<svg id="svg-source" height="0" version="1.1" 
  xmlns="http://www.w3.org/2000/svg" style="position:absolute; margin-left: -100%" 
  xmlns:xlink="http://www.w3.org/1999/xlink"><g xmlns="http://www.w3.org/2000/svg" id="google-drive">
    <g>
      <path fill="#343434" d="M16,32c8.837,0,16-7.164,16-16S24.837,0,16,0C7.162,0,0,7.164,0,16S7.162,32,16,32"/>
      <polygon fill="#527BBD" points="13.627,18.933 13.538,18.933 13.494,19.01 11.327,22.799 11.196,23.028 11.46,23.028 
		21.568,23.028 21.657,23.028 21.701,22.951 23.869,19.162 24,18.933 23.736,18.933 	"/>
      <polygon fill="#FDCF49" points="19.238,17.975 19.283,18.052 19.371,18.052 23.736,18.033 24,18.032 23.869,17.804 18.814,9.05 
		18.77,8.973 18.682,8.973 14.316,8.991 14.053,8.992 14.184,9.22 	"/>
      <polygon fill="#13A962" points="15.607,13.524 15.562,13.447 13.363,9.676 13.231,9.449 13.1,9.677 8.045,18.432 8,18.508 
		8.045,18.584 10.243,22.355 10.376,22.584 10.508,22.355 15.562,13.601 	"/>
    </g>
  </g></svg>