<svg id="svg-source" height="0" version="1.1" 
  xmlns="http://www.w3.org/2000/svg" style="position:absolute; margin-left: -100%" 
  xmlns:xlink="http://www.w3.org/1999/xlink"><g xmlns="http://www.w3.org/2000/svg" id="google-plus">
    <g>
      <path fill="#C31718" d="M16,32c8.836,0,16-7.164,16-16S24.837,0,16,0S0,7.164,0,16S7.164,32,16,32"/>
      <path fill="#FFFFFF" d="M13.354,23.165c-1.903,0-3.276-1.203-3.276-2.648c0-1.418,1.705-2.599,3.606-2.577
		c0.443,0.004,0.857,0.076,1.233,0.197c1.032,0.719,1.772,1.124,1.981,1.942c0.04,0.166,0.061,0.336,0.061,0.511
		C16.959,22.036,16.027,23.165,13.354,23.165 M13.853,14.685c-1.276-0.038-2.49-1.428-2.71-3.104
		c-0.221-1.678,0.636-2.96,1.912-2.922s2.49,1.383,2.71,3.06C15.985,13.395,15.129,14.723,13.853,14.685 M16.5,17.168
		c-0.448-0.317-1.304-1.088-1.304-1.541c0-0.533,0.151-0.794,0.951-1.418c0.819-0.641,1.4-1.541,1.4-2.588
		c0-1.246-0.556-2.461-1.598-2.862h1.571l1.109-0.801h-4.956c-2.221,0-4.312,1.683-4.312,3.632c0,1.992,1.514,3.6,3.774,3.6
		c0.157,0,0.31-0.003,0.459-0.013c-0.146,0.279-0.252,0.598-0.252,0.925c0,0.554,0.298,1.003,0.675,1.369
		c-0.285,0-0.56,0.008-0.859,0.008c-2.751,0-4.87,1.753-4.87,3.57c0,1.79,2.322,2.909,5.073,2.909c3.137,0,4.87-1.78,4.87-3.57
		C18.233,18.953,17.81,18.093,16.5,17.168 M23.709,14.831H21.78v-1.929h-1.552v1.929h-1.929v1.553h1.929v1.93h1.552v-1.93h1.929
		V14.831z"/>
    </g>
  </g></svg>