<svg id="svg-source" height="0" version="1.1" 
  xmlns="http://www.w3.org/2000/svg" style="position:absolute; margin-left: -100%" 
  xmlns:xlink="http://www.w3.org/1999/xlink"><g xmlns="http://www.w3.org/2000/svg" id="paypal">
    <g>
      <path fill="#0E447E" d="M16,32c8.837,0,16-7.164,16-16S24.837,0,16,0C7.162,0,0,7.164,0,16S7.162,32,16,32"/>
      <path fill="#FFFFFF" d="M23.995,11.936c-0.037-0.672-0.215-1.25-0.491-1.74c-0.801-1.426-2.437-2.098-3.926-2.098h-8.022
		L8.001,23.902h4.709l1.15-5.23h3.368c0.037,0,0.077-0.006,0.118-0.006c1.911-0.031,3.629-0.742,4.847-2.011
		c0.793-0.833,1.379-1.897,1.664-3.175C23.976,12.92,24.018,12.403,23.995,11.936z M19.436,13.48
		c-0.128,0.522-0.426,0.998-0.82,1.374c-0.142,0.133-0.301,0.253-0.467,0.357c-0.426,0.267-0.916,0.431-1.407,0.431h-2.208
		l0.935-4.008l0.077-0.317h2.305c0.398,0,0.746,0.119,1.026,0.317C19.399,12.014,19.656,12.692,19.436,13.48z"/>
    </g>
  </g></svg>