<svg id="svg-source" height="0" version="1.1" 
  xmlns="http://www.w3.org/2000/svg" style="position:absolute; margin-left: -100%" 
  xmlns:xlink="http://www.w3.org/1999/xlink"><g xmlns="http://www.w3.org/2000/svg" id="pinterest">
    <g>
      <path fill="#CD3434" d="M16,32c8.837,0,16-7.163,16-16c0-8.836-7.163-16-16-16C7.164,0,0,7.164,0,16C0,24.837,7.164,32,16,32"/>
      <path fill="#FFFFFF" d="M16,7.958c-4.418,0-8,3.581-8,8c0,3.275,1.97,6.09,4.79,7.327c-0.023-0.559-0.004-1.229,0.139-1.838
		c0.153-0.648,1.029-4.358,1.029-4.358s-0.255-0.511-0.255-1.266c0-1.187,0.688-2.071,1.543-2.071c0.728,0,1.079,0.547,1.079,1.201
		c0,0.731-0.467,1.826-0.707,2.838c-0.201,0.85,0.425,1.542,1.262,1.542c1.516,0,2.537-1.946,2.537-4.253
		c0-1.754-1.181-3.065-3.328-3.065c-2.427,0-3.938,1.809-3.938,3.83c0,0.697,0.205,1.188,0.527,1.569
		c0.148,0.175,0.168,0.245,0.115,0.446c-0.038,0.146-0.126,0.501-0.163,0.642c-0.053,0.203-0.217,0.275-0.4,0.201
		c-1.118-0.458-1.639-1.682-1.639-3.057c0-2.272,1.916-4.999,5.717-4.999c3.055,0,5.065,2.212,5.065,4.584
		c0,3.139-1.745,5.482-4.317,5.482c-0.863,0-1.676-0.467-1.954-0.997c0,0-0.465,1.843-0.563,2.199
		c-0.169,0.615-0.502,1.233-0.805,1.713c0.719,0.213,1.479,0.328,2.267,0.328c4.418,0,8-3.581,8-7.999
		C24,11.539,20.418,7.958,16,7.958"/>
    </g>
  </g></svg>