<svg id="svg-source" height="0" version="1.1" 
  xmlns="http://www.w3.org/2000/svg" style="position:absolute; margin-left: -100%" 
  xmlns:xlink="http://www.w3.org/1999/xlink"><g xmlns="http://www.w3.org/2000/svg" id="skype">
    <g>
      <path fill="#209DD9" d="M16,32c8.837,0,16-7.164,16-16S24.837,0,16,0C7.162,0,0,7.164,0,16S7.162,32,16,32"/>
      <path fill="#FFFFFF" d="M23.541,17.724c0.115-0.529,0.176-1.076,0.176-1.64c0-4.213-3.416-7.63-7.631-7.63
		c-0.445,0-0.881,0.038-1.306,0.112c-0.682-0.431-1.488-0.681-2.354-0.681C9.981,7.886,8,9.868,8,12.312
		c0,0.816,0.223,1.581,0.608,2.238c-0.102,0.496-0.154,1.01-0.154,1.533c0,4.217,3.416,7.633,7.632,7.633
		c0.478,0,0.943-0.044,1.396-0.129c0.624,0.336,1.336,0.526,2.093,0.526c2.444,0,4.425-1.981,4.425-4.427
		C24,18.982,23.835,18.315,23.541,17.724z M20,19.731c-0.353,0.5-0.875,0.896-1.551,1.177c-0.669,0.279-1.472,0.42-2.385,0.42
		c-1.096,0-2.015-0.192-2.732-0.573c-0.513-0.277-0.936-0.651-1.257-1.115c-0.323-0.466-0.487-0.931-0.487-1.38
		c0-0.278,0.107-0.521,0.317-0.719c0.209-0.198,0.477-0.297,0.797-0.297c0.263,0,0.488,0.079,0.672,0.233
		c0.176,0.149,0.325,0.37,0.448,0.653c0.135,0.311,0.281,0.572,0.438,0.777c0.15,0.199,0.366,0.366,0.64,0.496
		c0.277,0.131,0.65,0.197,1.108,0.197c0.632,0,1.148-0.135,1.537-0.4c0.381-0.26,0.565-0.572,0.565-0.952
		c0-0.302-0.097-0.538-0.295-0.724c-0.208-0.195-0.481-0.346-0.813-0.45c-0.348-0.106-0.818-0.225-1.4-0.348
		c-0.792-0.169-1.465-0.369-2-0.597c-0.548-0.233-0.988-0.557-1.312-0.959c-0.327-0.412-0.494-0.925-0.494-1.531
		c0-0.575,0.175-1.096,0.519-1.543c0.342-0.445,0.84-0.792,1.481-1.028c0.633-0.234,1.387-0.354,2.239-0.354
		c0.682,0,1.28,0.08,1.78,0.235c0.503,0.156,0.928,0.367,1.261,0.628c0.336,0.262,0.586,0.542,0.742,0.833
		c0.158,0.295,0.238,0.588,0.238,0.87c0,0.274-0.104,0.521-0.312,0.737c-0.209,0.218-0.474,0.328-0.784,0.328
		c-0.283,0-0.503-0.07-0.657-0.205c-0.142-0.127-0.291-0.323-0.455-0.606c-0.19-0.362-0.421-0.646-0.685-0.847
		c-0.257-0.197-0.686-0.294-1.275-0.294c-0.546,0-0.992,0.108-1.321,0.325c-0.319,0.209-0.474,0.448-0.474,0.731
		c0,0.174,0.05,0.319,0.152,0.444c0.108,0.134,0.262,0.248,0.455,0.346c0.201,0.101,0.407,0.182,0.614,0.238
		c0.211,0.059,0.568,0.146,1.056,0.259c0.618,0.133,1.187,0.281,1.688,0.441c0.509,0.163,0.946,0.362,1.306,0.597
		c0.365,0.237,0.655,0.542,0.86,0.908c0.206,0.366,0.31,0.818,0.31,1.345C20.533,18.658,20.354,19.232,20,19.731z"/>
    </g>
  </g></svg>