<svg id="svg-source" height="0" version="1.1" 
  xmlns="http://www.w3.org/2000/svg" style="position:absolute; margin-left: -100%" 
  xmlns:xlink="http://www.w3.org/1999/xlink"><g xmlns="http://www.w3.org/2000/svg" id="soundcloud">
    <g>
      <path fill="#E7411F" d="M16,32c8.837,0,16-7.164,16-16S24.837,0,16,0C7.162,0,0,7.164,0,16S7.162,32,16,32"/>
      <path fill="#FFFFFF" d="M8.771,18.593c0.035,0,0.062-0.026,0.067-0.064l0.179-1.405L8.84,15.686
		c-0.006-0.037-0.033-0.064-0.068-0.064c-0.033,0-0.061,0.028-0.066,0.064l-0.156,1.438l0.156,1.405
		C8.711,18.566,8.738,18.593,8.771,18.593z M8.244,17.997L8.244,17.997L8.244,17.997L8.244,17.997z M8.181,18.06
		c0.032,0,0.06-0.025,0.063-0.062l0.14-0.874l-0.14-0.889c-0.004-0.037-0.031-0.062-0.063-0.062c-0.034,0-0.06,0.026-0.063,0.063
		L8,17.123l0.117,0.874C8.121,18.033,8.146,18.06,8.181,18.06z M9.48,15.418c-0.004-0.045-0.038-0.078-0.079-0.078
		c-0.043,0-0.077,0.033-0.08,0.078c0,0.002-0.149,1.705-0.149,1.705l0.149,1.644c0.003,0.045,0.037,0.078,0.08,0.078
		c0.041,0,0.075-0.033,0.079-0.077l0.17-1.645L9.48,15.418z M10.035,18.91c0.049,0,0.089-0.039,0.094-0.092l0,0l0.159-1.695
		l-0.159-1.752c-0.005-0.053-0.045-0.092-0.094-0.092c-0.05,0-0.09,0.039-0.095,0.092L9.8,17.123l0.141,1.695
		C9.945,18.871,9.985,18.91,10.035,18.91z M10.674,18.938c0.057,0,0.103-0.045,0.107-0.105l0,0l0.151-1.709l-0.151-1.625
		c-0.005-0.061-0.051-0.105-0.107-0.105c-0.058,0-0.104,0.046-0.107,0.105l-0.134,1.625l0.134,1.709
		C10.569,18.893,10.616,18.938,10.674,18.938z M11.581,17.125l-0.143-2.645c-0.003-0.067-0.057-0.119-0.121-0.119
		s-0.117,0.052-0.12,0.119l-0.125,2.645l0.125,1.708c0.003,0.066,0.056,0.12,0.12,0.12s0.118-0.054,0.121-0.121v0.001L11.581,17.125
		z M11.967,18.955c0.072,0,0.131-0.059,0.135-0.133v0.001l0.132-1.698l-0.132-3.249c-0.004-0.074-0.062-0.132-0.135-0.132
		s-0.132,0.058-0.135,0.132l-0.117,3.249l0.117,1.697C11.835,18.896,11.895,18.955,11.967,18.955z M12.621,13.459
		c-0.081,0-0.146,0.064-0.148,0.146l-0.109,3.52l0.109,1.681c0.003,0.082,0.067,0.146,0.148,0.146c0.08,0,0.145-0.063,0.148-0.146
		v0.001l0.123-1.681l-0.123-3.52C12.766,13.523,12.701,13.459,12.621,13.459z M13.28,18.955c0.089,0,0.159-0.07,0.162-0.16v0.001
		l0.114-1.671l-0.114-3.638c-0.003-0.091-0.073-0.161-0.162-0.161c-0.088,0-0.159,0.07-0.161,0.161l-0.102,3.638l0.102,1.671
		C13.121,18.885,13.192,18.955,13.28,18.955z M13.945,18.955c0.096,0,0.173-0.078,0.175-0.176v0.001l0.104-1.655L14.12,13.58
		c-0.002-0.098-0.079-0.175-0.175-0.175c-0.097,0-0.174,0.077-0.176,0.175l-0.093,3.545l0.093,1.655
		C13.771,18.877,13.849,18.955,13.945,18.955z M14.899,17.127l-0.095-3.418c-0.003-0.105-0.085-0.188-0.19-0.188
		c-0.104,0-0.187,0.082-0.188,0.188l-0.085,3.417l0.085,1.643c0.002,0.104,0.085,0.187,0.188,0.187c0.105,0,0.188-0.082,0.19-0.188
		v0.002L14.899,17.127z M15.29,18.96c0.109,0,0.201-0.091,0.203-0.202v0.001l0.085-1.632l-0.085-4.066
		c-0.002-0.11-0.094-0.201-0.203-0.201c-0.11,0-0.201,0.091-0.203,0.201l-0.077,4.064c0,0.003,0.077,1.634,0.077,1.634
		C15.089,18.869,15.18,18.96,15.29,18.96z M15.961,12.478c-0.117,0-0.215,0.097-0.217,0.216l-0.088,4.434l0.088,1.609
		c0.002,0.116,0.1,0.214,0.217,0.214c0.118,0,0.216-0.098,0.217-0.216v0.002l0.098-1.609l-0.098-4.435
		C16.177,12.574,16.079,12.478,15.961,12.478z M16.577,18.962c0.005,0,5.42,0.002,5.455,0.002c1.087,0,1.968-0.88,1.968-1.968
		c0-1.087-0.881-1.968-1.968-1.968c-0.271,0-0.527,0.055-0.762,0.152c-0.157-1.773-1.644-3.164-3.458-3.164
		c-0.443,0-0.877,0.087-1.26,0.235c-0.147,0.057-0.188,0.115-0.189,0.231v6.245C16.365,18.849,16.459,18.949,16.577,18.962z"/>
    </g>
  </g></svg>