<svg id="svg-source" height="0" version="1.1" 
  xmlns="http://www.w3.org/2000/svg" style="position:absolute; margin-left: -100%" 
  xmlns:xlink="http://www.w3.org/1999/xlink"><g xmlns="http://www.w3.org/2000/svg" id="tumblr">
    <g>
      <path fill="#36475D" d="M16,31.999c8.837,0,16-7.164,16-16c0-8.835-7.163-15.999-16-15.999S0,7.164,0,16
		C0,24.835,7.163,31.999,16,31.999"/>
      <path fill="#FFFFFF" d="M16.174,8v4.044h3.796v2.511h-3.796v4.103c0,0.928,0.049,1.523,0.146,1.786
		c0.098,0.265,0.28,0.475,0.55,0.632c0.353,0.212,0.757,0.317,1.213,0.317c0.811,0,1.615-0.264,2.418-0.791v2.525
		c-0.685,0.32-1.303,0.547-1.857,0.676C18.089,23.936,17.49,24,16.846,24c-0.731,0-1.379-0.093-1.939-0.276
		c-0.562-0.187-1.042-0.448-1.438-0.791c-0.396-0.342-0.673-0.707-0.825-1.091c-0.153-0.385-0.229-0.943-0.229-1.675v-5.611h-1.77
		v-2.264c0.63-0.205,1.167-0.498,1.615-0.878c0.448-0.381,0.809-0.839,1.079-1.374C13.608,9.506,13.796,8.825,13.898,8H16.174z"/>
    </g>
  </g></svg>