<svg id="svg-source" height="0" version="1.1" 
  xmlns="http://www.w3.org/2000/svg" style="position:absolute; margin-left: -100%" 
  xmlns:xlink="http://www.w3.org/1999/xlink"><g xmlns="http://www.w3.org/2000/svg" id="vimeo">
    <g>
      <path fill="#24ACE4" d="M16,31.999c8.836,0,16-7.163,16-15.999S24.836,0.001,16,0.001C7.165,0.001,0,7.164,0,16
		S7.165,31.999,16,31.999"/>
      <path fill="#FFFFFF" d="M23.99,12.66c-0.07,1.555-1.159,3.682-3.26,6.381c-2.175,2.822-4.018,4.232-5.524,4.232
		c-0.932,0-1.721-0.858-2.365-2.58c-0.432-1.579-0.861-3.158-1.292-4.734c-0.48-1.721-0.994-2.582-1.542-2.582
		c-0.12,0-0.537,0.251-1.255,0.755L8,13.161c0.788-0.69,1.565-1.385,2.332-2.077c1.05-0.91,1.839-1.386,2.366-1.436
		c1.241-0.121,2.007,0.729,2.296,2.545c0.308,1.961,0.524,3.18,0.644,3.659c0.359,1.625,0.752,2.436,1.183,2.436
		c0.333,0,0.836-0.524,1.505-1.575c0.67-1.053,1.027-1.853,1.076-2.404c0.096-0.908-0.262-1.36-1.076-1.36
		c-0.382,0-0.777,0.081-1.183,0.251c0.79-2.559,2.296-3.802,4.519-3.729C23.31,9.517,24.087,10.582,23.99,12.66z"/>
    </g>
  </g></svg>