<svg id="svg-source" height="0" version="1.1" 
  xmlns="http://www.w3.org/2000/svg" style="position:absolute; margin-left: -100%" 
  xmlns:xlink="http://www.w3.org/1999/xlink"><g xmlns="http://www.w3.org/2000/svg" id="wordpress">
    <g>
      <path fill="#343434" d="M16,32c8.837,0,16-7.164,16-16S24.837,0,16,0C7.162,0,0,7.163,0,16S7.162,32,16,32"/>
      <path fill="#FFFFFF" d="M8,16c0,3.165,1.84,5.903,4.509,7.199L8.693,12.744C8.249,13.739,8,14.84,8,16z M21.402,15.596
		c0-0.989-0.356-1.674-0.66-2.207c-0.405-0.659-0.785-1.216-0.785-1.876c0-0.735,0.556-1.42,1.343-1.42
		c0.034,0,0.068,0.004,0.103,0.007c-1.423-1.304-3.319-2.101-5.402-2.101c-2.796,0-5.254,1.435-6.685,3.607
		c0.188,0.005,0.364,0.01,0.515,0.01c0.837,0,2.132-0.103,2.132-0.103c0.43-0.024,0.481,0.607,0.05,0.66c0,0-0.433,0.05-0.915,0.076
		l2.914,8.665l1.751-5.25l-1.247-3.415c-0.431-0.025-0.839-0.076-0.839-0.076c-0.432-0.026-0.38-0.685,0.051-0.66
		c0,0,1.321,0.103,2.107,0.103c0.836,0,2.133-0.103,2.133-0.103c0.43-0.024,0.481,0.607,0.05,0.66c0,0-0.433,0.05-0.915,0.076
		l2.892,8.599l0.798-2.666C21.198,17.142,21.402,16.282,21.402,15.596z M16.142,16.7l-2.401,6.976
		c0.716,0.211,1.473,0.325,2.26,0.325c0.931,0,1.825-0.161,2.656-0.454c-0.021-0.035-0.042-0.07-0.057-0.109L16.142,16.7z
		 M23.021,12.161c0.036,0.255,0.055,0.528,0.055,0.824c0,0.811-0.152,1.723-0.609,2.865l-2.443,7.064C22.401,21.528,24,18.952,24,16
		C24,14.608,23.646,13.302,23.021,12.161z"/>
    </g>
  </g></svg>