<svg id="svg-source" height="0" version="1.1" 
  xmlns="http://www.w3.org/2000/svg" style="position:absolute; margin-left: -100%" 
  xmlns:xlink="http://www.w3.org/1999/xlink"><g xmlns="http://www.w3.org/2000/svg" id="youtube-2">
    <g>
      <path fill="#CD3434" d="M16.001,32C24.837,32,32,24.836,32,16c0-8.836-7.163-16-15.999-16C7.165,0,0,7.164,0,16
		C0,24.836,7.165,32,16.001,32"/>
      <path fill="#FFFFFF" d="M19.274,10.596v3.049c-0.073,0.088-0.161,0.161-0.25,0.217c-0.097,0.057-0.169,0.088-0.234,0.088
		c-0.072,0-0.129-0.024-0.161-0.064c-0.041-0.049-0.057-0.113-0.057-0.209v-3.082h-0.823v3.355c0,0.243,0.049,0.419,0.146,0.541
		c0.096,0.121,0.243,0.178,0.428,0.178c0.162,0,0.314-0.041,0.483-0.121c0.161-0.088,0.315-0.209,0.468-0.379v0.443h0.823v-4.017
		H19.274z M16.765,10.79c-0.218-0.202-0.5-0.299-0.838-0.299c-0.372,0-0.669,0.097-0.896,0.283c-0.218,0.185-0.33,0.427-0.33,0.742
		v2.081c0,0.347,0.111,0.612,0.321,0.814c0.218,0.201,0.508,0.306,0.863,0.306c0.371,0,0.669-0.096,0.878-0.298
		c0.218-0.193,0.323-0.459,0.323-0.806V11.54C17.088,11.233,16.975,10.983,16.765,10.79z M16.25,13.677
		c0,0.104-0.032,0.185-0.097,0.25c-0.064,0.065-0.153,0.097-0.266,0.097c-0.105,0-0.193-0.032-0.25-0.097
		c-0.056-0.056-0.089-0.145-0.089-0.25v-2.194c0-0.088,0.033-0.161,0.097-0.209c0.057-0.057,0.145-0.081,0.242-0.081
		c0.104,0,0.194,0.024,0.266,0.081c0.065,0.048,0.097,0.121,0.097,0.209V13.677z M13.701,9.168l-0.572,2.178h-0.065l-0.597-2.178
		h-0.935l1.105,3.291v2.153h0.927v-2.258l1.073-3.186H13.701z M20.112,18.758c0.048,0.064,0.072,0.177,0.072,0.322v0.371h-0.637
		V19.08c0-0.146,0.016-0.258,0.073-0.322c0.048-0.064,0.129-0.105,0.25-0.105C19.983,18.653,20.064,18.693,20.112,18.758z
		 M17.58,18.741c-0.048-0.064-0.129-0.097-0.226-0.097c-0.048,0-0.104,0.008-0.153,0.032c-0.049,0.024-0.104,0.064-0.153,0.113
		v2.274c0.056,0.056,0.121,0.105,0.177,0.129c0.057,0.024,0.112,0.041,0.169,0.041c0.097,0,0.161-0.024,0.201-0.082
		c0.041-0.048,0.065-0.129,0.065-0.25v-1.886C17.661,18.895,17.636,18.806,17.58,18.741z M17.58,18.741
		c-0.048-0.064-0.129-0.097-0.226-0.097c-0.048,0-0.104,0.008-0.153,0.032c-0.049,0.024-0.104,0.064-0.153,0.113v2.274
		c0.056,0.056,0.121,0.105,0.177,0.129c0.057,0.024,0.112,0.041,0.169,0.041c0.097,0,0.161-0.024,0.201-0.082
		c0.041-0.048,0.065-0.129,0.065-0.25v-1.886C17.661,18.895,17.636,18.806,17.58,18.741z M21.718,15.927H10.282
		C9.032,15.927,8,16.959,8,18.217v2.331c0,1.257,1.032,2.282,2.282,2.282h11.436c1.25,0,2.282-1.025,2.282-2.282v-2.331
		C24,16.959,22.967,15.927,21.718,15.927z M13.363,17.531h-0.855v4.226h-0.823v-4.226h-0.847v-0.717h2.524V17.531z M15.765,21.757
		h-0.733v-0.403c-0.129,0.152-0.274,0.266-0.419,0.339c-0.145,0.081-0.283,0.121-0.42,0.121c-0.168,0-0.298-0.057-0.387-0.169
		c-0.081-0.105-0.121-0.266-0.121-0.484v-3.056h0.726v2.807c0,0.08,0.016,0.145,0.049,0.185c0.024,0.041,0.08,0.056,0.146,0.056
		c0.056,0,0.121-0.024,0.202-0.08c0.088-0.049,0.161-0.113,0.225-0.194v-2.774h0.733V21.757z M18.411,21
		c0,0.258-0.057,0.459-0.169,0.597c-0.112,0.137-0.282,0.209-0.499,0.209c-0.146,0-0.267-0.024-0.38-0.08
		c-0.112-0.057-0.217-0.137-0.313-0.25v0.282h-0.734v-4.943h0.734v1.588c0.097-0.104,0.201-0.193,0.313-0.25
		c0.113-0.056,0.226-0.088,0.339-0.088c0.226,0,0.403,0.08,0.524,0.233c0.122,0.153,0.186,0.379,0.186,0.678V21z M20.943,20.024
		h-1.396v0.685c0,0.193,0.016,0.323,0.065,0.396c0.048,0.081,0.137,0.113,0.25,0.113c0.121,0,0.201-0.032,0.25-0.097
		c0.048-0.056,0.072-0.201,0.072-0.411V20.54h0.759v0.185c0,0.38-0.097,0.662-0.283,0.847c-0.177,0.193-0.452,0.283-0.814,0.283
		c-0.331,0-0.589-0.097-0.775-0.299c-0.185-0.201-0.282-0.476-0.282-0.831v-1.636c0-0.315,0.104-0.573,0.314-0.774
		c0.201-0.194,0.467-0.299,0.798-0.299c0.332,0,0.59,0.097,0.766,0.282c0.178,0.186,0.275,0.443,0.275,0.791V20.024z M17.354,18.645
		c-0.048,0-0.104,0.008-0.153,0.032c-0.049,0.024-0.104,0.064-0.153,0.113v2.274c0.056,0.056,0.121,0.105,0.177,0.129
		c0.057,0.024,0.112,0.041,0.169,0.041c0.097,0,0.161-0.024,0.201-0.082c0.041-0.048,0.065-0.129,0.065-0.25v-1.886
		c0-0.122-0.025-0.21-0.081-0.275C17.532,18.677,17.451,18.645,17.354,18.645z M17.58,18.741c-0.048-0.064-0.129-0.097-0.226-0.097
		c-0.048,0-0.104,0.008-0.153,0.032c-0.049,0.024-0.104,0.064-0.153,0.113v2.274c0.056,0.056,0.121,0.105,0.177,0.129
		c0.057,0.024,0.112,0.041,0.169,0.041c0.097,0,0.161-0.024,0.201-0.082c0.041-0.048,0.065-0.129,0.065-0.25v-1.886
		C17.661,18.895,17.636,18.806,17.58,18.741z M17.58,18.741c-0.048-0.064-0.129-0.097-0.226-0.097c-0.048,0-0.104,0.008-0.153,0.032
		c-0.049,0.024-0.104,0.064-0.153,0.113v2.274c0.056,0.056,0.121,0.105,0.177,0.129c0.057,0.024,0.112,0.041,0.169,0.041
		c0.097,0,0.161-0.024,0.201-0.082c0.041-0.048,0.065-0.129,0.065-0.25v-1.886C17.661,18.895,17.636,18.806,17.58,18.741z"/>
    </g>
  </g></svg>