<?xml version="1.0" encoding="utf-8"?>
<!DOCTYPE svg PUBLIC "-//W3C//DTD SVG 1.1//EN" "http://www.w3.org/Graphics/SVG/1.1/DTD/svg11.dtd">
<svg version="1.1" xmlns="http://www.w3.org/2000/svg" xmlns:xlink="http://www.w3.org/1999/xlink" width="32" height="32" viewBox="0 0 32 32">

	<path d="M28 14.667v-9.333h-4v-4h-21.333v13.333h-1.333v2.667h1.333v14.667h26.667v-14.667h1.333v-2.667h-2.667zM25.333 8v6.667h-16v-6.667h16zM5.333 4h16v1.333h-14.667v9.333h-1.333v-10.667zM26.667 29.333h-21.333v-12h21.333v12zM24 18.667h-16v9.333h16v-9.333zM22.667 26.667h-13.333v-6.667h13.333v6.667zM21.333 21.333h-10.667v1.333h10.667v-1.333zM17.333 24h-6.667v1.333h6.667v-1.333z"></path>
</svg>
