<?xml version="1.0" encoding="utf-8"?>
<!DOCTYPE svg PUBLIC "-//W3C//DTD SVG 1.1//EN" "http://www.w3.org/Graphics/SVG/1.1/DTD/svg11.dtd">
<svg version="1.1" xmlns="http://www.w3.org/2000/svg" xmlns:xlink="http://www.w3.org/1999/xlink" width="32" height="32" viewBox="0 0 32 32">

	<path d="M16 11.999c-2.208 0-4 1.792-4 4s1.792 4 4 4 4-1.792 4-4-1.792-4-4-4zM28.308 12.487c-0.433-0.14-0.824-0.363-1.159-0.657-0.539 0.992-1.203 2.009-1.919 3.029-1.113-1.431-2.384-2.875-3.801-4.292-1.407-1.407-2.856-2.683-4.301-3.805 3.436-2.421 6.739-3.879 9.089-3.879 0.955 0 1.685 0.247 2.171 0.732 0.528 0.528 0.761 1.357 0.72 2.408 0.076-0.005 0.147-0.024 0.224-0.024 0.384 0 0.749 0.079 1.092 0.197 0.083-1.495-0.272-2.703-1.093-3.525-0.745-0.745-1.792-1.123-3.113-1.123-2.724 0-6.416 1.625-10.216 4.369-3.8-2.744-7.492-4.371-10.216-4.371-0.283 0-0.548 0.027-0.805 0.061 0.364 0.352 0.639 0.787 0.813 1.273 2.351 0.003 5.651 1.46 9.084 3.88-1.448 1.125-2.899 2.401-4.304 3.808-1.4 1.401-2.676 2.853-3.808 4.312-1.14-1.615-2.080-3.216-2.753-4.737-0.461-1.039-0.769-1.992-0.949-2.853-0.132 0.017-0.26 0.041-0.396 0.041-0.344 0-0.669-0.068-0.981-0.164 0.179 1.061 0.54 2.237 1.108 3.517 0.756 1.708 1.82 3.509 3.127 5.317-1.305 1.805-2.367 3.607-3.124 5.313-1.612 3.636-1.655 6.481-0.121 8.015 0.745 0.745 1.792 1.123 3.113 1.123 4.027 0 10.168-3.541 15.647-9.023 1.404-1.405 2.681-2.861 3.812-4.324 3.693 5.219 4.752 9.667 3.14 11.279-0.485 0.485-1.216 0.732-2.171 0.732-1.257 0-2.793-0.424-4.472-1.183-0.177 0.427-0.44 0.805-0.767 1.123 1.944 0.9 3.739 1.393 5.239 1.393 1.321 0 2.368-0.377 3.113-1.123 2.317-2.317 0.855-7.641-3.265-13.348 0.847-1.175 1.62-2.348 2.244-3.493zM5.788 29.12c-0.955 0-1.685-0.247-2.171-0.732-1.1-1.1-0.956-3.48 0.397-6.531 0.673-1.52 1.612-3.119 2.749-4.733 1.132 1.457 2.407 2.909 3.805 4.307 1.415 1.415 2.872 2.668 4.328 3.795-3.444 2.432-6.756 3.895-9.109 3.895zM20.492 20.488c-1.459 1.459-2.976 2.776-4.485 3.923-1.513-1.149-3.032-2.463-4.495-3.923-1.459-1.459-2.772-2.972-3.924-4.485 1.152-1.516 2.469-3.031 3.928-4.491 1.457-1.459 2.976-2.776 4.487-3.925 1.509 1.148 3.027 2.465 4.484 3.923 1.515 1.515 2.819 3.020 3.936 4.48-1.152 1.52-2.468 3.036-3.931 4.499zM29.333 7.999c-0.737 0-1.333 0.596-1.333 1.333s0.596 1.333 1.333 1.333 1.333-0.596 1.333-1.333-0.596-1.333-1.333-1.333zM18.667 25.332c-0.737 0-1.333 0.596-1.333 1.333s0.596 1.333 1.333 1.333 1.333-0.596 1.333-1.333-0.596-1.333-1.333-1.333zM2.667 5.332c0.737 0 1.333-0.596 1.333-1.333s-0.596-1.333-1.333-1.333-1.333 0.596-1.333 1.333 0.596 1.333 1.333 1.333z"></path>
</svg>
