<?xml version="1.0" encoding="utf-8"?>
<!DOCTYPE svg PUBLIC "-//W3C//DTD SVG 1.1//EN" "http://www.w3.org/Graphics/SVG/1.1/DTD/svg11.dtd">
<svg version="1.1" xmlns="http://www.w3.org/2000/svg" xmlns:xlink="http://www.w3.org/1999/xlink" width="32" height="32" viewBox="0 0 32 32">

	<path d="M29.023 12c-0.733 0-1.023 1.2-1.023 2.667v2.667c0 1.467 0.289 2.667 1.023 2.667s1.023-1.2 1.023-2.667h1.955v-2.667h-1.956c0-1.467-0.289-2.667-1.021-2.667zM24 8c-1.333 0-1.333 1.2-1.333 2.667v4h-13.333v-4c0-1.467 0-2.667-1.333-2.667-1.467 0-2.667 1.2-2.667 2.667v10.667c0 1.467 1.2 2.667 2.667 2.667 1.333 0 1.333-1.2 1.333-2.667v-4h13.333v4c0 1.467 0 2.667 1.333 2.667 1.467 0 2.667-1.2 2.667-2.667v-10.667c0-1.467-1.2-2.667-2.667-2.667zM2.977 12c0.733 0 1.023 1.2 1.023 2.667v2.667c0 1.467-0.289 2.667-1.023 2.667s-1.023-1.2-1.023-2.667h-1.955v-2.667h1.956c0-1.467 0.289-2.667 1.021-2.667z"></path>
</svg>
