<?xml version="1.0" encoding="utf-8"?>
<!DOCTYPE svg PUBLIC "-//W3C//DTD SVG 1.1//EN" "http://www.w3.org/Graphics/SVG/1.1/DTD/svg11.dtd">
<svg version="1.1" xmlns="http://www.w3.org/2000/svg" xmlns:xlink="http://www.w3.org/1999/xlink" width="32" height="32" viewBox="0 0 32 32">

	<path d="M30.667 29.333v-1.333h-1.333v1.333h-1.333v-13.333h-6.667v13.333h-1.333v-26.667h-6.667v26.667h-1.333v-16h-1.333v-1.333h-1.333v1.333h-2.667v-1.333h-1.333v17.333h-2.667v-29.333h-2.667v32h32v-2.667h-1.333zM9.333 29.333h-1.333v-13.333h1.333v13.333zM17.333 29.333h-1.333v-24h1.333v24zM25.333 29.333h-1.333v-10.667h1.333v10.667zM5.333 0h1.333v1.333h-1.333zM9.333 0h1.333v1.333h-1.333zM13.333 0h1.333v1.333h-1.333zM17.333 0h1.333v1.333h-1.333zM21.333 0h1.333v1.333h-1.333zM25.333 0h1.333v1.333h-1.333zM29.333 0h1.333v1.333h-1.333zM29.333 4h1.333v1.333h-1.333zM25.333 4h1.333v1.333h-1.333zM21.333 4h1.333v1.333h-1.333zM21.333 8h1.333v1.333h-1.333zM25.333 8h1.333v1.333h-1.333zM29.333 8h1.333v1.333h-1.333zM29.333 12.003h1.333v1.333h-1.333zM25.333 12h1.333v1.333h-1.333zM21.333 12h1.333v1.333h-1.333zM29.333 16h1.333v1.333h-1.333zM29.333 20h1.333v1.333h-1.333zM29.333 24h1.333v1.333h-1.333zM9.333 4h1.333v1.333h-1.333zM9.333 8h1.333v1.333h-1.333zM5.333 8h1.333v1.333h-1.333zM5.333 4h1.333v1.333h-1.333z"></path>
</svg>
