<?xml version="1.0" encoding="utf-8"?>
<!DOCTYPE svg PUBLIC "-//W3C//DTD SVG 1.1//EN" "http://www.w3.org/Graphics/SVG/1.1/DTD/svg11.dtd">
<svg version="1.1" xmlns="http://www.w3.org/2000/svg" xmlns:xlink="http://www.w3.org/1999/xlink" width="32" height="32" viewBox="0 0 32 32">

	<path d="M27.749 10.667c-0.549-1.552-2.031-2.667-3.768-2.667h-19.984c-2.204 0-3.997 1.795-3.997 4v9.333c0 2.205 1.793 4 3.997 4h19.983c1.737 0 3.219-1.115 3.768-2.667h2.892v-12h-2.891zM25.311 21.333c0 0.735-0.596 1.333-1.331 1.333h-19.983c-0.736 0-1.333-0.599-1.333-1.333v-9.333c0-0.735 0.597-1.333 1.333-1.333h19.983c0.735 0 1.331 0.599 1.331 1.333v9.333zM27.976 20h-1.332v-6.667h1.332v6.667zM13.463 20l1.331-2.667h6.661l-7.992-4-1.333 2.667h-6.661l7.995 4z"></path>
</svg>
