<?xml version="1.0" encoding="utf-8"?>
<!DOCTYPE svg PUBLIC "-//W3C//DTD SVG 1.1//EN" "http://www.w3.org/Graphics/SVG/1.1/DTD/svg11.dtd">
<svg version="1.1" xmlns="http://www.w3.org/2000/svg" xmlns:xlink="http://www.w3.org/1999/xlink" width="32" height="32" viewBox="0 0 32 32">

	<path d="M27.76 10.667c-0.549-1.552-2.031-2.667-3.768-2.667h-19.983c-2.204 0-3.996 1.795-3.996 4v9.333c0 2.205 1.792 4 3.996 4h19.983c1.737 0 3.219-1.115 3.768-2.667h2.893v-12h-2.893zM25.325 21.333c0 0.735-0.599 1.333-1.333 1.333h-19.983c-0.736 0-1.332-0.599-1.332-1.333v-9.333c0-0.735 0.596-1.333 1.332-1.333h19.983c0.735 0 1.333 0.599 1.333 1.333v9.333zM27.989 20h-1.333v-6.667h1.333v6.667zM9.337 12h3.997v9.333h-3.997zM14.667 12h3.997v9.333h-3.997zM4.009 14.667v4c0 1.467 0.899 2.667 1.999 2.667h1.997v-9.333h-1.997c-1.1 0-1.999 1.2-1.999 2.667z"></path>
</svg>
