<?xml version="1.0" encoding="utf-8"?>
<!DOCTYPE svg PUBLIC "-//W3C//DTD SVG 1.1//EN" "http://www.w3.org/Graphics/SVG/1.1/DTD/svg11.dtd">
<svg version="1.1" xmlns="http://www.w3.org/2000/svg" xmlns:xlink="http://www.w3.org/1999/xlink" width="32" height="32" viewBox="0 0 32 32">

	<path d="M26.667 10.667v-4h-26.667v16h4v4h26.667v-16h-4zM4 20h-1.333v-10.667h21.333v1.333h-20v9.333zM28 24h-21.333v-10.667h21.333v10.667zM8 14.667v8h18.667v-8h-18.667zM9.333 21.333v-5.333h4.375c-0.231 0.393-0.372 0.847-0.372 1.333v2.667c0 0.487 0.141 0.939 0.373 1.333h-4.376zM20 19.333c0 1.104-0.896 2-2 2h-1.333c-1.104 0-2-0.896-2-2v-1.333c0-1.104 0.896-2 2-2h1.333c1.104 0 2 0.896 2 2v1.333zM25.333 21.333h-4.369c0.231-0.395 0.372-0.847 0.372-1.333v-2.667c0-0.487-0.141-0.94-0.372-1.333h4.369v5.333z"></path>
</svg>
