<?xml version="1.0" encoding="utf-8"?>
<!DOCTYPE svg PUBLIC "-//W3C//DTD SVG 1.1//EN" "http://www.w3.org/Graphics/SVG/1.1/DTD/svg11.dtd">
<svg version="1.1" xmlns="http://www.w3.org/2000/svg" xmlns:xlink="http://www.w3.org/1999/xlink" width="32" height="32" viewBox="0 0 32 32">

	<path d="M29.099 19.713c-0.107-0.063-0.216-0.12-0.329-0.177l-0.248-0.161-5.436-3.817 1.579-1.177c1.492 0.633 3.473-0.62 4.331-1.159 2.177-1.375 2.828-4.263 1.453-6.437-1.253-1.984-3.765-2.703-5.849-1.771l-0.023-0.040c-1.177-1.864-3.653-2.424-5.519-1.248-1.224 0.773-2.12 2.972-1.143 5.453l-1.893 1.419-2.167-1.521c0.899-2.511-0.063-4.68-1.309-5.416-1.901-1.12-4.36-0.484-5.476 1.416l-0.027 0.039c-2.111-0.863-4.6-0.068-5.792 1.953-1.305 2.216-0.567 5.083 1.651 6.391 0.873 0.513 2.896 1.703 4.367 1.024l1.844 1.292-5.544 4.151-0.243 0.168c-0.109 0.060-0.216 0.12-0.32 0.188-2.179 1.372-2.828 4.263-1.456 6.437 1.375 2.175 4.263 2.828 6.437 1.453 1.041-0.656 1.76-1.677 2.039-2.864l6.149-4.591 6.057 4.24c0.316 1.177 1.067 2.175 2.127 2.8 2.216 1.307 5.085 0.565 6.389-1.651 1.309-2.219 0.567-5.085-1.649-6.393zM18.467 12.315l3.024-2.24-0.711-1.128c-1.003-1.585-0.509-2.792-0.297-2.967 0.62-0.393 1.445-0.205 1.839 0.415l1.424 2.255 1.691-1.068c0.931-0.588 2.169-0.309 2.76 0.623 0.588 0.932 0.307 2.172-0.625 2.76-1.021 0.645-1.536 0.857-1.796 0.901l-0.605-0.959-4.751 3.453-2.483-1.651 0.531-0.395zM12.389 20.197l-4.857 3.531-0.056 0.659c-0.052 0.64-0.385 1.197-0.912 1.528-0.932 0.588-2.172 0.309-2.76-0.623s-0.309-2.169 0.623-2.757c0.113-0.073 0.235-0.133 0.36-0.18l1.333-0.891 5.945-4.407 2.419 1.615-2.095 1.525zM28.453 24.749c-0.56 0.951-1.791 1.268-2.741 0.708-0.536-0.317-0.884-0.861-0.957-1.5l-0.079-0.659-18.020-12.272-0.577 0.981c-0.261-0.036-0.781-0.235-1.824-0.847-0.949-0.563-1.265-1.789-0.708-2.74 0.563-0.951 1.789-1.268 2.739-0.708l3.080-1.281c0.372-0.636 1.193-0.844 1.825-0.472 0.213 0.167 0.745 1.36-0.205 2.973l-0.679 1.149 15.713 10.911 1.36 0.849c0.128 0.041 0.251 0.101 0.363 0.167 0.952 0.564 1.268 1.791 0.711 2.74z"></path>
</svg>
