<?xml version="1.0" encoding="utf-8"?>
<!DOCTYPE svg PUBLIC "-//W3C//DTD SVG 1.1//EN" "http://www.w3.org/Graphics/SVG/1.1/DTD/svg11.dtd">
<svg version="1.1" xmlns="http://www.w3.org/2000/svg" xmlns:xlink="http://www.w3.org/1999/xlink" width="32" height="32" viewBox="0 0 32 32">

	<path d="M13.261 12.484c-2.257-1.745-5.007-3.595-9.333-3.945l9.333 3.945zM13.261 16.484c-2.257-1.745-5.007-3.595-9.333-3.945l9.333 3.945zM9.26 17.935c-1.487-0.697-3.221-1.225-5.332-1.396l5.332 1.396zM17.405 12.484l9.333-3.945c-4.327 0.351-7.076 2.201-9.333 3.945zM17.405 16.484l9.333-3.945c-4.327 0.351-7.076 2.201-9.333 3.945zM26.739 16.539c-2.111 0.171-3.845 0.697-5.332 1.396l5.332-1.396zM29.405 0.484c-5.84 0-11.185 2.727-13.887 4.885h-0.369c-2.703-2.159-8.048-4.885-13.888-4.885h-1.261v25.333h1.261c4.315 0 9.097 1.661 11.224 3.265 0.632 0.479 1.209 0.979 1.717 1.488l1.068 0.98h0.125l1.068-0.98c0.508-0.509 1.085-1.009 1.717-1.488 2.127-1.604 6.909-3.265 11.224-3.265h1.261v-25.333h-1.261zM14.667 27.361c0-0.136-0.325-0.273-0.501-0.407-2.231-1.681-7.499-3.461-11.499-3.76v-19.989c5.333 0.408 9.684 2.999 11.575 4.883l0.361 0.396h0.064v18.877zM28 23.195c-4 0.299-9.268 2.079-11.499 3.76-0.176 0.133-0.501 0.272-0.501 0.407v-18.877h0.065l0.361-0.396c1.889-1.884 6.24-4.475 11.573-4.883v19.989z"></path>
</svg>
