<?xml version="1.0" encoding="utf-8"?>
<!DOCTYPE svg PUBLIC "-//W3C//DTD SVG 1.1//EN" "http://www.w3.org/Graphics/SVG/1.1/DTD/svg11.dtd">
<svg version="1.1" xmlns="http://www.w3.org/2000/svg" xmlns:xlink="http://www.w3.org/1999/xlink" width="32" height="32" viewBox="0 0 32 32">

	<path d="M28 9.311v-2.667h-18.765l-1.541-4.372c-0.251-0.692-1.013-1.092-1.707-0.843s-1.055 1.071-0.804 1.764l1.219 3.452h-3.735v2.667h-2.667v12h4v10.667h22.667v-10.667h4v-12h-2.667zM4 19.977h-2.667v-9.333h1.333v4h1.333v5.333zM24 29.311h-17.333v-8h4.128c0.276 1.333 1.011 1.333 1.877 1.333h5.333c0.867 0 1.601 0 1.877-1.333h4.117v8zM12 20.669v-0.003c0-0.367 0.3-0.667 0.667-0.667h5.339c0.367 0 0.667 0.3 0.667 0.667v0.003c0 0.367-0.3 0.667-0.667 0.667h-5.339c-0.367 0-0.667-0.3-0.667-0.667zM24 19.977h-4.117c-0.276-1.333-1.011-1.333-1.877-1.333h-5.333c-0.867 0-1.601 0-1.877 1.333h-4.128v-6.667h17.333v6.667zM25.333 11.977h-20v-2.667h20v2.667zM29.333 19.977h-2.667v-5.333h1.333v-4h1.333v9.333z"></path>
</svg>
