<?xml version="1.0" encoding="utf-8"?>
<!DOCTYPE svg PUBLIC "-//W3C//DTD SVG 1.1//EN" "http://www.w3.org/Graphics/SVG/1.1/DTD/svg11.dtd">
<svg version="1.1" xmlns="http://www.w3.org/2000/svg" xmlns:xlink="http://www.w3.org/1999/xlink" width="32" height="32" viewBox="0 0 32 32">

	<path d="M10.32 22.667l16.347 5.333v-24l-16.347 5.333h-4.987c-2.205 0-4 1.795-4 4v5.333c0 2.205 1.795 4 4 4h0.569c-0.001 0.033-0.004 0.063-0.004 0.096-0.001 0.852 0.087 2.019 0.488 3.213 0.216 0.591 0.485 1.193 0.855 1.724 0.184 0.265 0.361 0.528 0.58 0.745 0.209 0.224 0.401 0.451 0.62 0.612 0.416 0.361 0.803 0.617 1.088 0.763 0.285 0.159 0.447 0.252 0.447 0.252l0.049 0.028c0.251 0.139 0.532 0.232 0.836 0.265 1.227 0.139 2.332-0.745 2.469-1.972s-0.747-2.331-1.972-2.472c0 0-0.077-0.005-0.209-0.021-0.145 0-0.339-0.031-0.569-0.101-0.129-0.019-0.24-0.088-0.377-0.14-0.143-0.047-0.272-0.14-0.419-0.232-0.295-0.18-0.581-0.456-0.865-0.768-0.503-0.591-0.897-1.349-1.157-1.992h2.559zM22.667 7.628l1.333-0.445v17.636l-1.333-0.404v-16.787zM12 11.197l9.333-3.123v15.939l-9.333-3.211v-9.605zM5.333 20c-0.736 0-1.333-0.599-1.333-1.333v-5.333c0-0.735 0.597-1.333 1.333-1.333h5.333v8h-5.333zM28 12h1.333v8h-1.333z"></path>
</svg>
