<?xml version="1.0" encoding="utf-8"?>
<!DOCTYPE svg PUBLIC "-//W3C//DTD SVG 1.1//EN" "http://www.w3.org/Graphics/SVG/1.1/DTD/svg11.dtd">
<svg version="1.1" xmlns="http://www.w3.org/2000/svg" xmlns:xlink="http://www.w3.org/1999/xlink" width="32" height="32" viewBox="0 0 32 32">

	<path d="M5.333 21.333h4v-4h-4v4zM6.667 18.667h1.333v1.333h-1.333v-1.333zM10.667 21.333h4v-4h-4v4zM12 18.667h1.333v1.333h-1.333v-1.333zM10.667 26.667h4v-4h-4v4zM12 24h1.333v1.333h-1.333v-1.333zM5.333 26.667h4v-4h-4v4zM6.667 24h1.333v1.333h-1.333v-1.333zM16 21.333h4v-4h-4v4zM17.333 18.667h1.333v1.333h-1.333v-1.333zM13.333 13.333h1.333v-1.333h-1.333v1.333zM10.667 13.333h1.333v-1.333h-1.333v1.333zM5.333 16h21.333v-12h-21.333v12zM6.667 5.333h18.667v9.333h-18.667v-9.333zM26.667 0h-21.333c-2.209 0-4 1.791-4 4v24c0 2.209 1.791 4 4 4h21.333c2.209 0 4-1.791 4-4v-24c0-2.209-1.791-4-4-4zM28 28c0 0.737-0.596 1.333-1.333 1.333h-21.333c-0.737 0-1.333-0.596-1.333-1.333v-24c0-0.737 0.596-1.333 1.333-1.333h21.333c0.737 0 1.333 0.596 1.333 1.333v24zM16 26.667h4v-4h-4v4zM17.333 24h1.333v1.333h-1.333v-1.333zM21.333 26.667h5.333v-9.333h-5.333v9.333zM22.667 18.667h2.667v6.667h-2.667v-6.667zM8 13.333h1.333v-1.333h-1.333v1.333z"></path>
</svg>
