<?xml version="1.0" encoding="utf-8"?>
<!DOCTYPE svg PUBLIC "-//W3C//DTD SVG 1.1//EN" "http://www.w3.org/Graphics/SVG/1.1/DTD/svg11.dtd">
<svg version="1.1" xmlns="http://www.w3.org/2000/svg" xmlns:xlink="http://www.w3.org/1999/xlink" width="32" height="32" viewBox="0 0 32 32">

	<path d="M26.667 5.333v-5.333h-8v5.333h-5.333v-5.333h-8v5.333h-5.333v25.333h32v-25.333h-5.333zM21.333 2.667h2.667v5.333h-2.667v-5.333zM8 2.667h2.667v5.333h-2.667v-5.333zM29.333 28h-26.667v-14.667h26.667v14.667zM29.333 12h-26.667v-4h2.667v2.667h8v-2.667h5.333v2.667h8v-2.667h2.667v4zM6.668 17.332h2.664v2.667h-2.664zM10.668 17.332h2.664v2.667h-2.664zM14.664 17.332h2.664v2.667h-2.664zM18.664 17.332h2.664v2.667h-2.664zM22.668 17.332h2.664v2.667h-2.664zM6.668 21.331h2.664v2.667h-2.664zM10.668 21.331h2.664v2.667h-2.664zM14.664 21.331h2.664v2.667h-2.664z"></path>
</svg>
