<?xml version="1.0" encoding="utf-8"?>
<!DOCTYPE svg PUBLIC "-//W3C//DTD SVG 1.1//EN" "http://www.w3.org/Graphics/SVG/1.1/DTD/svg11.dtd">
<svg version="1.1" xmlns="http://www.w3.org/2000/svg" xmlns:xlink="http://www.w3.org/1999/xlink" width="32" height="32" viewBox="0 0 32 32">

	<path d="M16.665 12c-3.313 0-5.999 2.687-5.999 6s2.685 6 5.999 6c3.312 0 5.999-2.687 5.999-6s-2.687-6-5.999-6zM14.343 13.977c0.685-0.399 1.473-0.644 2.324-0.644 2.388 0 4.341 1.811 4.612 4.129-2.307-1.776-5.033-2.872-6.936-3.485zM30 6.667h-6.445l-0.888-2.667h-13.333l-0.888 2.667h-5.112c-1.472 0-3.333 1.195-3.333 2.667v16c0 1.472 1.861 2.667 3.333 2.667h26.667c1.472 0 2-1.195 2-2.667v-16c0-1.472-0.528-2.667-2-2.667zM16.667 26.667c-4.787 0-8.667-3.88-8.667-8.667s3.88-8.667 8.667-8.667 8.667 3.88 8.667 8.667-3.88 8.667-8.667 8.667zM29.333 12h-2.667v-2.667h2.667v2.667z"></path>
</svg>
