<?xml version="1.0" encoding="utf-8"?>
<!DOCTYPE svg PUBLIC "-//W3C//DTD SVG 1.1//EN" "http://www.w3.org/Graphics/SVG/1.1/DTD/svg11.dtd">
<svg version="1.1" xmlns="http://www.w3.org/2000/svg" xmlns:xlink="http://www.w3.org/1999/xlink" width="32" height="32" viewBox="0 0 32 32">

	<path d="M5.221 4.863c-3.052 2.195-5.049 5.767-5.049 9.804 0 1.476 0.279 2.884 0.765 4.193l11.315-4.193-7.031-9.804zM2.091 14.331c-0.048-2.501 0.903-4.909 2.628-6.703l5.596 6.212-7.935 2.647c-0.179-0.701-0.276-1.424-0.289-2.156zM17.749 2c-3.371 0-6.627 1.215-9.171 3.421l0.033 0.037-0.532 0.465 8.499 9.748-12.365 3.928 0.181 0.569-0.013 0.004c0.037 0.124 0.087 0.241 0.129 0.361l0.107 0.337 0.012-0.004c2.028 5.489 7.205 9.133 13.12 9.133 7.72 0 14-6.281 14-14s-6.28-14.001-14-14.001zM28.139 11.485l-8.437 3.089 5.508-7.087c1.247 1.096 2.257 2.455 2.929 3.997zM10.823 7.041c1.98-1.529 4.411-2.375 6.927-2.375 2.379 0 4.585 0.74 6.411 1.997l-6.44 8.287-6.897-7.909zM7.197 20.052l9.7-3.083-1.791 10.020c-3.596-0.853-6.557-3.404-7.909-6.937zM17.749 27.333c-0.452 0-0.889-0.055-1.329-0.107l1.917-10.732 10.261-3.757c0.311 1.035 0.483 2.129 0.483 3.263 0.001 6.251-5.084 11.333-11.332 11.333z"></path>
</svg>
