<?xml version="1.0" encoding="utf-8"?>
<!DOCTYPE svg PUBLIC "-//W3C//DTD SVG 1.1//EN" "http://www.w3.org/Graphics/SVG/1.1/DTD/svg11.dtd">
<svg version="1.1" xmlns="http://www.w3.org/2000/svg" xmlns:xlink="http://www.w3.org/1999/xlink" width="32" height="32" viewBox="0 0 32 32">

	<path d="M2.667 0v32h26.667v-32h-26.667zM26.667 29.333h-21.333v-26.667h21.333v26.667zM25.333 5.333h-4v-1.333h-10.667v1.333h-4v22.667h18.667v-22.667zM12 5.333h8v1.333h-8v-1.333zM24 26.667h-16v-20h2.667v1.333h10.667v-1.333h2.667v20zM9.333 12h12v-2.667h-12v2.667zM9.333 14.667h12v-1.333h-12v1.333zM9.333 17.333h12v-1.333h-12v1.333zM9.333 20h12v-1.333h-12v1.333zM9.333 22.667h5.333v-1.333h-5.333v1.333z"></path>
</svg>
