<?xml version="1.0" encoding="utf-8"?>
<!DOCTYPE svg PUBLIC "-//W3C//DTD SVG 1.1//EN" "http://www.w3.org/Graphics/SVG/1.1/DTD/svg11.dtd">
<svg version="1.1" xmlns="http://www.w3.org/2000/svg" xmlns:xlink="http://www.w3.org/1999/xlink" width="32" height="32" viewBox="0 0 32 32">

	<path d="M16 0c-8.836 0-16 7.164-16 16s7.164 16 16 16 16-7.164 16-16-7.164-16-16-16zM16 29.333c-7.352 0-13.333-5.981-13.333-13.333s5.981-13.333 13.333-13.333 13.333 5.981 13.333 13.333-5.981 13.333-13.333 13.333zM21.929 6.807c-0.659-0.328-1.46-0.061-1.789 0.596l-4.505 9.012-2.693-2.692c-0.521-0.521-1.364-0.521-1.885 0s-0.521 1.364 0 1.885l4 4c0.253 0.253 0.592 0.392 0.944 0.392 0.071 0 0.143-0.005 0.213-0.017 0.423-0.069 0.787-0.337 0.979-0.72l5.333-10.667c0.331-0.659 0.063-1.459-0.596-1.789zM14.669 25.331h2.667v1.336h-2.667zM14.669 4h2.667v1.336h-2.667zM4 14.664h2.667v1.336h-2.667zM25.331 14.664h2.667v1.336h-2.667z"></path>
</svg>
