<?xml version="1.0" encoding="utf-8"?>
<!DOCTYPE svg PUBLIC "-//W3C//DTD SVG 1.1//EN" "http://www.w3.org/Graphics/SVG/1.1/DTD/svg11.dtd">
<svg version="1.1" xmlns="http://www.w3.org/2000/svg" xmlns:xlink="http://www.w3.org/1999/xlink" width="32" height="32" viewBox="0 0 32 32">

	<path d="M25.501 28c3.819 0 6.341-4.215 6.341-8.5 0-3.683-3.040-6.948-6.712-7.437l-0.609-1.625c-1.479-3.909-5.083-6.437-9.183-6.437-5.469 0-9.917 4.485-9.917 10 0 0.241 0.012 0.477 0.033 0.707-2.977 0.345-5.297 2.885-5.297 5.96 0 2.855 2.217 6.924 5.344 7.333h20zM18.62 17.035v0c1.184-1.704 3.567-1.877 4.631-2.395l0.009 0.027h0.923c2.613 0 4.992 2 4.992 4.531 0 2.456-1.628 6.136-4.257 6.136h-19.263c-1.465 0-2.831-3.164-2.831-4.969 0.001-2.057 1.821-3.551 3.971-3.115l2.068 0.493-0.508-2.009c-0.133-0.531-0.267-1.139-0.267-1.752 0-4.044 3.252-7.324 7.251-7.324 3.027 0 5.588 1.809 6.688 4.715-2.697 1.595-3.525 5.38-3.525 5.38z"></path>
</svg>
