<?xml version="1.0" encoding="utf-8"?>
<!DOCTYPE svg PUBLIC "-//W3C//DTD SVG 1.1//EN" "http://www.w3.org/Graphics/SVG/1.1/DTD/svg11.dtd">
<svg version="1.1" xmlns="http://www.w3.org/2000/svg" xmlns:xlink="http://www.w3.org/1999/xlink" width="32" height="32" viewBox="0 0 32 32">

	<path d="M24.287 5.333h-4.213l-2.133-2.667h-1.94v-1.333h-1.333v1.333h-1.404l-1.779 2.667h-5.864c-2.205 0-4.287 1.205-4.287 3.412v16c0 2.205 2.667 4.588 4 4.588v2.667h4v-2.667h10.667v2.667h4v-2.667c2.667 0 4-2.383 4-4.588v-16c0-2.207-1.508-3.412-3.713-3.412zM13.976 4h3.323l1.065 1.333h-5.277l0.889-1.333zM25.333 24.745c0 0.735-0.312 1.921-1.047 1.921h-18.667c-0.736 0-1.62-1.187-1.62-1.921v-16c0-0.736 0.884-0.745 1.62-0.745h18.667c0.735 0 1.047 0.009 1.047 0.745v16zM5.333 21.333h18.667v-10.667h-18.667v10.667zM6.667 12h16v8h-16v-8zM13.332 25.333h2.664v-2.667h-2.664v2.667z"></path>
</svg>
