<?xml version="1.0" encoding="utf-8"?>
<!DOCTYPE svg PUBLIC "-//W3C//DTD SVG 1.1//EN" "http://www.w3.org/Graphics/SVG/1.1/DTD/svg11.dtd">
<svg version="1.1" xmlns="http://www.w3.org/2000/svg" xmlns:xlink="http://www.w3.org/1999/xlink" width="32" height="32" viewBox="0 0 32 32">

	<path d="M26.667 1.333h-22.667c-2.205 0-4 1.795-4 4v16c0 2.205 2.667 2.667 4 2.667v8l12-8h10.667c2.205 0 4-1.795 4-4v-14.667c0-2.205-1.795-4-4-4zM28 20c0 0.735-0.599 1.333-1.333 1.333h-12l-8 6.667v-6.667h-2.667c-0.735 0-1.333-0.599-1.333-1.333v-14.667c0-0.735 0.599-1.333 1.333-1.333h22.667c0.735 0 1.333 0.599 1.333 1.333v14.667zM5.333 8h16v2.667h-16zM5.333 12h20v1.333h-20zM5.333 14.667h20v1.333h-20zM5.333 17.333h10.667v1.333h-10.667z"></path>
</svg>
