<?xml version="1.0" encoding="utf-8"?>
<!DOCTYPE svg PUBLIC "-//W3C//DTD SVG 1.1//EN" "http://www.w3.org/Graphics/SVG/1.1/DTD/svg11.dtd">
<svg version="1.1" xmlns="http://www.w3.org/2000/svg" xmlns:xlink="http://www.w3.org/1999/xlink" width="32" height="32" viewBox="0 0 32 32">

	<path d="M29.333 9.333h-2.667v-0.787c0-1.468-1.195-3.213-2.667-3.213h-21.333c-1.472 0-2.667 1.745-2.667 3.213v12c0 1.472 1.195 2.12 2.667 2.12h1.333v3.213c0 1.472 1.195 2.12 2.667 2.12h22.667c1.472 0 2.667-0.648 2.667-2.12v-13.333c0-1.468-1.195-3.213-2.667-3.213zM4 20h-1.333v-5.333h1.333v5.333zM4.371 10.667h-1.704v-2.667h21.333v1.333h-17.333c-0.981 0-1.833 1.333-2.296 1.333zM6.667 25.333v-13.333h22.667l0.003 13.333h-22.669zM21.333 21.333h6.667v-5.333h-6.667v5.333zM22.667 17.333h4v2.667h-4v-2.667zM10.667 24h5.333v-1.333h-5.333v1.333zM8 16h9.333v-2.667h-9.333v2.667zM17.336 24h1.328v-1.333h-1.328v1.333zM8 24h1.328v-1.333h-1.328v1.333z"></path>
</svg>
