<?xml version="1.0" encoding="utf-8"?>
<!DOCTYPE svg PUBLIC "-//W3C//DTD SVG 1.1//EN" "http://www.w3.org/Graphics/SVG/1.1/DTD/svg11.dtd">
<svg version="1.1" xmlns="http://www.w3.org/2000/svg" xmlns:xlink="http://www.w3.org/1999/xlink" width="32" height="32" viewBox="0 0 32 32">

	<path d="M23.211 2.623h-14.421l-8.789 8.711 16 18.044 16-18.044-8.789-8.711zM28.792 12.037l-0.019-0.081h-11.869l5.691-6.145 6.197 6.227zM13.864 23.181l-9.364-9.892h6.167l-0.62 0.297 3.817 9.595zM11.383 13.289h9.232l-4.615 11.539-4.617-11.539zM21.333 13.289h6.164l-9.364 9.892 3.817-9.595-0.617-0.297zM16 10.972l-5.219-5.683h10.435l-5.216 5.683zM9.404 5.861l5.691 6.095h-11.871l-0.016 0.031 6.196-6.125z"></path>
</svg>
