<?xml version="1.0" encoding="utf-8"?>
<!DOCTYPE svg PUBLIC "-//W3C//DTD SVG 1.1//EN" "http://www.w3.org/Graphics/SVG/1.1/DTD/svg11.dtd">
<svg version="1.1" xmlns="http://www.w3.org/2000/svg" xmlns:xlink="http://www.w3.org/1999/xlink" width="32" height="32" viewBox="0 0 32 32">

	<path d="M20 14.667v-14.667h-6.667v14.667h-5.271l8.484 8.485 8.484-8.485zM26.88 9.333h-4.213v2.667h4.213c0.735 0 1.12 0.021 1.12 0.755v10c0 1.104-0.685 2.579-1.787 2.579h-20.424c-1.101 0-1.787-1.475-1.787-2.579v-10c0-0.733 0.385-0.755 1.12-0.755h4.213v-2.667h-4.213c-2.205 0-3.787 1.216-3.787 3.421v14.667c0 2.205 1.581 4.579 3.787 4.579h21.757c2.205 0 3.787-2.372 3.787-4.579v-14.667c0-2.205-1.581-3.421-3.787-3.421zM28 27.421c0 0.735-0.385 1.912-1.12 1.912h-21.757c-0.735 0-1.12-1.177-1.12-1.912v-2.017c0 0.423 1.033 1.261 1.787 1.261h20.424c0.752 0 1.787-0.839 1.787-1.261v2.017z"></path>
</svg>
