<?xml version="1.0" encoding="utf-8"?>
<!DOCTYPE svg PUBLIC "-//W3C//DTD SVG 1.1//EN" "http://www.w3.org/Graphics/SVG/1.1/DTD/svg11.dtd">
<svg version="1.1" xmlns="http://www.w3.org/2000/svg" xmlns:xlink="http://www.w3.org/1999/xlink" width="32" height="32" viewBox="0 0 32 32">

	<path d="M9.333 24c0 0.736 0.597 1.333 1.333 1.333s1.333-0.597 1.333-1.333c0-0.736-0.597-1.333-1.333-1.333s-1.333 0.597-1.333 1.333zM13.333 24c0 0.736 0.597 1.333 1.333 1.333s1.333-0.597 1.333-1.333c0-0.736-0.597-1.333-1.333-1.333s-1.333 0.597-1.333 1.333zM17.333 24c0 0.736 0.597 1.333 1.333 1.333s1.333-0.597 1.333-1.333c0-0.736-0.597-1.333-1.333-1.333s-1.333 0.597-1.333 1.333zM8 20.667c0 0.368 0.298 0.667 0.667 0.667s0.667-0.298 0.667-0.667c0-0.368-0.298-0.667-0.667-0.667s-0.667 0.298-0.667 0.667zM10.667 20.667c0 0.368 0.298 0.667 0.667 0.667s0.667-0.298 0.667-0.667c0-0.368-0.298-0.667-0.667-0.667s-0.667 0.298-0.667 0.667zM13.333 20.667c0 0.368 0.298 0.667 0.667 0.667s0.667-0.298 0.667-0.667c0-0.368-0.298-0.667-0.667-0.667s-0.667 0.298-0.667 0.667zM16 20.667c0 0.368 0.298 0.667 0.667 0.667s0.667-0.298 0.667-0.667c0-0.368-0.298-0.667-0.667-0.667s-0.667 0.298-0.667 0.667zM18.667 20.667c0 0.368 0.298 0.667 0.667 0.667s0.667-0.298 0.667-0.667c0-0.368-0.298-0.667-0.667-0.667s-0.667 0.298-0.667 0.667zM20 18c0 0.368 0.298 0.667 0.667 0.667s0.667-0.298 0.667-0.667c0-0.368-0.298-0.667-0.667-0.667s-0.667 0.298-0.667 0.667zM17.333 18c0 0.368 0.298 0.667 0.667 0.667s0.667-0.298 0.667-0.667c0-0.368-0.298-0.667-0.667-0.667s-0.667 0.298-0.667 0.667zM14.667 18c0 0.368 0.298 0.667 0.667 0.667s0.667-0.298 0.667-0.667c0-0.368-0.298-0.667-0.667-0.667s-0.667 0.298-0.667 0.667zM12 18c0 0.368 0.298 0.667 0.667 0.667s0.667-0.298 0.667-0.667c0-0.368-0.298-0.667-0.667-0.667s-0.667 0.298-0.667 0.667zM9.333 18c0 0.368 0.298 0.667 0.667 0.667s0.667-0.298 0.667-0.667c0-0.368-0.298-0.667-0.667-0.667s-0.667 0.298-0.667 0.667zM6.667 18c0 0.368 0.298 0.667 0.667 0.667s0.667-0.298 0.667-0.667c0-0.368-0.298-0.667-0.667-0.667s-0.667 0.298-0.667 0.667zM26.128 8.491l1.193-2.385-9.373-4.928-3.281 8.155h-10.667v20.001h2.667v2.667h13.333v-2.667h4v-20.001h-6.667l2.171-4.395 6.624 3.553zM18.667 29.333h-9.333v-1.333h9.333v1.333zM21.333 11.999v14.668h-14.667v-1.333c0.737 0 1.333-0.596 1.333-1.333s-0.596-1.333-1.333-1.333v-10.668h14.667z"></path>
</svg>
