<?xml version="1.0" encoding="utf-8"?>
<!DOCTYPE svg PUBLIC "-//W3C//DTD SVG 1.1//EN" "http://www.w3.org/Graphics/SVG/1.1/DTD/svg11.dtd">
<svg version="1.1" xmlns="http://www.w3.org/2000/svg" xmlns:xlink="http://www.w3.org/1999/xlink" width="32" height="32" viewBox="0 0 32 32">

	<path d="M17.333 8h-8v2.667h8v-2.667zM21.333 12h-12v1.333h12v-1.333zM21.333 14.667h-12v1.333h12v-1.333zM26.667 16.001v-14.668h-22.667v14.711l-2.667-1.377v17.333h28v-17.323l-2.667 1.324zM6.667 4h17.333v13.212l-2.667 1.429v-1.308h-12v1.333h11.953l-5.989 3.211-8.631-4.457v-13.42zM4 29.333v-10.488l19.535 10.488h-19.535zM26.667 27.932l-8.504-4.543 8.504-4.544v9.087z"></path>
</svg>
