<?xml version="1.0" encoding="utf-8"?>
<!DOCTYPE svg PUBLIC "-//W3C//DTD SVG 1.1//EN" "http://www.w3.org/Graphics/SVG/1.1/DTD/svg11.dtd">
<svg version="1.1" xmlns="http://www.w3.org/2000/svg" xmlns:xlink="http://www.w3.org/1999/xlink" width="32" height="32" viewBox="0 0 32 32">

	<path d="M20 5.925v-2.667c0-1.472-1.989-3.259-3.464-3.259h-1.069c-1.473 0-3.464 1.787-3.464 3.259v2.667c-1.333 0-2.667 1.2-2.667 2.667v1.333c0 0.979 0 1.831 1.333 2.295v14.447h1.333v5.333h7.997v-5.333h1.333v-14.447c1.333-0.464 1.333-1.315 1.333-2.295v-1.333c0-1.465-1.333-2.667-2.667-2.667zM17.333 29.333h-2.664v-4h2.664v4zM18.667 24h-5.331v-8h5.331v8zM18.667 14.667h-5.331v-2.667h5.331v2.667z"></path>
</svg>
