<?xml version="1.0" encoding="utf-8"?>
<!DOCTYPE svg PUBLIC "-//W3C//DTD SVG 1.1//EN" "http://www.w3.org/Graphics/SVG/1.1/DTD/svg11.dtd">
<svg version="1.1" xmlns="http://www.w3.org/2000/svg" xmlns:xlink="http://www.w3.org/1999/xlink" width="32" height="32" viewBox="0 0 32 32">

	<path d="M28.857 16h-2.191v-13.333h-22.667v13.333h-1.809c-1.467 0-2.191 1.2-2.191 2.667v2.667c0 1.467 0.724 2.667 2.191 2.667h1.809v6.667h8v-6.667h2.667v6.667h10.667v-6.667h3.524c1.467 0 3.143-1.2 3.143-2.667v-2.667c0-1.467-1.677-2.667-3.143-2.667zM9.333 28h-2.667v-4h2.667v4zM18.667 28h-1.333v-4h1.333v4zM22.667 28h-1.333v-4h1.333v4zM24 16h-17.333v-10.667h17.333v10.667zM27.024 22.116c-1.123 0-2.031-0.911-2.031-2.032s0.909-2.032 2.031-2.032 2.033 0.911 2.033 2.032-0.912 2.032-2.033 2.032zM9.333 9.333h8v2.667h-8zM9.333 13.333h12v1.333h-12zM1.333 6.667h1.333v6.667h-1.333zM28 9.333h1.333v4h-1.333z"></path>
</svg>
