<?xml version="1.0" encoding="utf-8"?>
<!DOCTYPE svg PUBLIC "-//W3C//DTD SVG 1.1//EN" "http://www.w3.org/Graphics/SVG/1.1/DTD/svg11.dtd">
<svg version="1.1" xmlns="http://www.w3.org/2000/svg" xmlns:xlink="http://www.w3.org/1999/xlink" width="32" height="32" viewBox="0 0 32 32">

	<path d="M9.333 9.333v2.667h8v-2.667h-8zM9.333 14.667h12v-1.333h-12v1.333zM21.333 16h-4v1.333h4v-1.333zM17.333 20h4v-1.333h-4v1.333zM4 2.667v13.333h2.667v-10.667h17.333v22.667h-6.667v2.667h9.333v-28h-22.667zM12.943 23.333c0-0.32-0.048-0.627-0.117-0.924l1.851-1.241-1.188-2.035-1.872 1.251c-0.345-0.304-0.743-0.536-1.179-0.687v-2.364h-2.239v2.375c-0.425 0.151-0.811 0.381-1.149 0.68l-1.867-1.255-1.187 2.035 1.851 1.24c-0.069 0.297-0.117 0.605-0.117 0.925 0 0.321 0.048 0.629 0.117 0.927l-1.847 1.239 1.188 2.035 1.861-1.255c0.337 0.299 0.724 0.528 1.149 0.68v2.375h2.239v-2.363c0.436-0.149 0.833-0.381 1.179-0.685l1.867 1.249 1.191-2.035-1.848-1.24c0.068-0.299 0.117-0.605 0.117-0.927zM9.336 25.735c-1.235 0-2.239-1.076-2.239-2.401s1.004-2.4 2.239-2.4c1.237 0 2.239 1.075 2.239 2.4s-1.001 2.401-2.239 2.401z"></path>
</svg>
