<?xml version="1.0" encoding="utf-8"?>
<!DOCTYPE svg PUBLIC "-//W3C//DTD SVG 1.1//EN" "http://www.w3.org/Graphics/SVG/1.1/DTD/svg11.dtd">
<svg version="1.1" xmlns="http://www.w3.org/2000/svg" xmlns:xlink="http://www.w3.org/1999/xlink" width="32" height="32" viewBox="0 0 32 32">

	<path d="M25.331 2.664v0.553c-1.332-0.395-2.359-0.615-3.584-0.615-2.391 0-4.773 0.745-7.016 1.465-2.14 0.685-4.196 1.336-6.167 1.336-1.492 0-2.711-0.389-3.957-1.189l-1.94-1.32v20.501l0.484 0.393c1.688 1.085 3.427 1.615 5.445 1.615 2.389 0 4.676-0.745 6.917-1.467 2.14-0.688 4.276-1.336 6.249-1.336 1.251 0 2.237 0.292 3.571 0.852v8.612h2.667v-29.401h-2.669zM25.333 20.524c-1.333-0.396-2.361-0.588-3.585-0.588-2.391 0-4.773 0.745-7.016 1.464-2.141 0.688-4.068 1.339-6.039 1.339-1.251 0-2.027-0.273-3.36-0.833v-14.424c1.333 0.395 2.104 0.588 3.328 0.588 2.388 0 4.643-0.745 6.885-1.465 2.14-0.688 4.26-1.337 6.232-1.337 1.249 0.001 2.221 0.275 3.555 0.833v14.424z"></path>
</svg>
