<?xml version="1.0" encoding="utf-8"?>
<!DOCTYPE svg PUBLIC "-//W3C//DTD SVG 1.1//EN" "http://www.w3.org/Graphics/SVG/1.1/DTD/svg11.dtd">
<svg version="1.1" xmlns="http://www.w3.org/2000/svg" xmlns:xlink="http://www.w3.org/1999/xlink" width="32" height="32" viewBox="0 0 32 32">

	<path d="M18.667 5.333v-1.333c0-1.472-1.195-2.667-2.667-2.667h-5.333c-1.472 0-2.667 1.195-2.667 2.667v1.333h-5.333v4h-1.333v9.333h2.667v-6.667h24v16h-14.667v2.667h17.333v-25.333h-12zM28 9.333h-22.667v-1.333h5.333v-4h5.333v4h12v1.333zM9.931 26.028c0.053-0.224 0.068-0.456 0.068-0.695 0-0.24-0.032-0.471-0.084-0.695l2.057-1.231-1.184-1.808-1.94 1.236c-0.284-0.216-0.825-0.388-0.825-0.507v-2.329h-2.712v2.329c0 0.119-0.541 0.291-0.825 0.507l-1.94-1.236-1.184 1.808 2.057 1.231c-0.051 0.224-0.084 0.455-0.084 0.695 0 0.239 0.015 0.471 0.068 0.695l-2.072 1.231 1.151 1.809 2.003-1.237c0.285 0.216 0.827 0.388 0.827 0.508v2.328h2.711v-2.328c0-0.12 0.541-0.292 0.827-0.508l2.003 1.237 1.151-1.809-2.071-1.231zM6.667 27.465c-1.224-0.008-2.216-0.959-2.216-2.132s0.992-2.124 2.216-2.132c1.224 0.008 2.216 0.959 2.216 2.132s-0.992 2.124-2.216 2.132z"></path>
</svg>
