<?xml version="1.0" encoding="utf-8"?>
<!DOCTYPE svg PUBLIC "-//W3C//DTD SVG 1.1//EN" "http://www.w3.org/Graphics/SVG/1.1/DTD/svg11.dtd">
<svg version="1.1" xmlns="http://www.w3.org/2000/svg" xmlns:xlink="http://www.w3.org/1999/xlink" width="32" height="32" viewBox="0 0 32 32">

	<path d="M15.333 4c-6.984 0-12.667 5.683-12.667 12.667s5.683 12.667 12.667 12.667 12.667-5.683 12.667-12.667-5.683-12.667-12.667-12.667zM5.333 16.667c0-5.515 4.485-10 10-10 2.035 0 3.928 0.615 5.509 1.663l-13.847 13.847c-1.048-1.581-1.663-3.475-1.663-5.509zM15.333 26.667c-2.035 0-3.928-0.615-5.509-1.663l13.847-13.847c1.048 1.581 1.663 3.475 1.663 5.509 0 5.515-4.485 10-10 10z"></path>
</svg>
