<?xml version="1.0" encoding="utf-8"?>
<!DOCTYPE svg PUBLIC "-//W3C//DTD SVG 1.1//EN" "http://www.w3.org/Graphics/SVG/1.1/DTD/svg11.dtd">
<svg version="1.1" xmlns="http://www.w3.org/2000/svg" xmlns:xlink="http://www.w3.org/1999/xlink" width="32" height="32" viewBox="0 0 32 32">

	<path d="M30.664 29.336h-2.664v-1.336h-1.336v1.336h-2.66v-1.336h-1.336v1.336h-2.664v-1.336h-1.336v1.336h-2.664v-1.336h-1.336v1.336h-2.664v-1.336h-1.336v1.336h-5.868l7.027-4.223 3.477-10.163 5.165 9.079 10.009-16.677-2.285-1.373-7.663 12.768-5.835-10.255-5.079 14.837-6.953 4.179v-27.508h-2.664v32h32v-4h-1.336zM30.664 0h1.336v1.336h-1.336zM26.664 0h1.336v1.336h-1.336zM22.668 0h1.336v1.336h-1.336zM18.668 0h1.336v1.336h-1.336zM14.668 0h1.336v1.336h-1.336zM10.668 0h1.336v1.336h-1.336zM6.668 0h1.336v1.336h-1.336zM2.668 0h1.336v1.336h-1.336zM30.664 4h1.336v1.336h-1.336zM26.664 4h1.336v1.336h-1.336zM22.668 4h1.336v1.336h-1.336zM18.668 4h1.336v1.336h-1.336zM14.668 4h1.336v1.336h-1.336zM10.668 4h1.336v1.336h-1.336zM6.668 4h1.336v1.336h-1.336zM2.668 4h1.336v1.336h-1.336zM30.664 7.996h1.336v1.336h-1.336zM22.668 7.996h1.336v1.336h-1.336zM18.668 7.996h1.336v1.336h-1.336zM10.668 7.996h1.336v1.336h-1.336zM6.668 7.996h1.336v1.336h-1.336zM2.668 7.996h1.336v1.336h-1.336zM30.664 11.996h1.336v1.336h-1.336zM18.668 11.996h1.336v1.336h-1.336zM10.668 11.996h1.336v1.336h-1.336zM6.668 11.996h1.336v1.336h-1.336zM2.668 11.996h1.336v1.336h-1.336zM30.664 15.999h1.336v1.336h-1.336zM26.664 15.999h1.336v1.336h-1.336zM6.668 15.999h1.336v1.336h-1.336zM2.668 15.999h1.336v1.336h-1.336zM30.664 19.999h1.336v1.336h-1.336zM26.664 19.999h1.336v1.336h-1.336zM14.668 19.999h1.336v1.336h-1.336zM6.668 19.999h1.336v1.336h-1.336zM2.668 19.999h1.336v1.336h-1.336zM30.664 23.995h1.336v1.336h-1.336zM26.664 23.995h1.336v1.336h-1.336zM22.668 23.995h1.336v1.336h-1.336zM14.668 23.995h1.336v1.336h-1.336zM2.668 23.995h1.336v1.336h-1.336z"></path>
</svg>
