<?xml version="1.0" encoding="utf-8"?>
<!DOCTYPE svg PUBLIC "-//W3C//DTD SVG 1.1//EN" "http://www.w3.org/Graphics/SVG/1.1/DTD/svg11.dtd">
<svg version="1.1" xmlns="http://www.w3.org/2000/svg" xmlns:xlink="http://www.w3.org/1999/xlink" width="32" height="32" viewBox="0 0 32 32">

	<path d="M1.333 2.667v28h27.973v-28h-27.973zM26.643 12h-6.661v-6.667h6.661v6.667zM26.643 20h-6.661v-6.667h6.661v6.667zM26.643 28h-6.661v-6.667h6.661v6.667zM3.997 21.333h6.661v6.667h-6.661v-6.667zM3.997 13.333h6.661v6.667h-6.661v-6.667zM3.997 5.333h6.661v6.667h-6.661v-6.667zM18.651 12h-6.66v-6.667h6.661v6.667zM18.651 20h-6.66v-6.667h6.661v6.667zM11.991 21.333h6.661v6.667h-6.661v-6.667z"></path>
</svg>
