<?xml version="1.0" encoding="utf-8"?>
<!DOCTYPE svg PUBLIC "-//W3C//DTD SVG 1.1//EN" "http://www.w3.org/Graphics/SVG/1.1/DTD/svg11.dtd">
<svg version="1.1" xmlns="http://www.w3.org/2000/svg" xmlns:xlink="http://www.w3.org/1999/xlink" width="32" height="32" viewBox="0 0 32 32">

	<path d="M27.713 4.257c-8.055-1.145-16.095-1.148-24.168 0.003-2.087 0.312-3.545 2.287-3.545 4.404v14.667c0 2.117 1.211 4.093 3.309 4.408 4.028 0.573 7.888 0.863 11.957 0.863s8.541-0.291 12.579-0.864c2.089-0.313 4.155-2.289 4.155-4.407v-14.664c0-2.117-2.185-4.093-4.287-4.409zM2.667 8.667c0-0.807 0.237-1.651 1.019-1.768 3.523-0.5 6.915-0.767 10.439-0.816l-5.225 9.275h-6.232v-6.691zM29.333 23.331c0 0.807-1.211 1.649-1.995 1.767-7.807 1.111-15.612 1.108-23.399 0.001-0.795-0.119-1.273-0.96-1.273-1.768v-5.307h7.815l2.361-3.677 1.132 9.573 6.856-5.896h8.503v5.307zM29.333 15.357h-9.451l-3.811 3.751-1.455-13.035c0.219-0.001 0.431-0.012 0.649-0.012 3.944 0 8.291 0.283 12.184 0.835 0.795 0.12 1.883 0.963 1.883 1.768v6.693zM21.336 9.331h1.328v1.336h-1.328zM24 9.331h1.336v1.336h-1.336z"></path>
</svg>
