<?xml version="1.0" encoding="utf-8"?>
<!DOCTYPE svg PUBLIC "-//W3C//DTD SVG 1.1//EN" "http://www.w3.org/Graphics/SVG/1.1/DTD/svg11.dtd">
<svg version="1.1" xmlns="http://www.w3.org/2000/svg" xmlns:xlink="http://www.w3.org/1999/xlink" width="32" height="32" viewBox="0 0 32 32">

	<path d="M16 26.205l-0.047 0.057-10.62-13.596c-0.484-0.611-1.333-1.348-1.333-3.024 0-2.941 2.393-5.333 5.333-5.333 2.941 0 6.667 2.392 6.667 5.333v-4.417c-1.433-2.157-3.887-3.583-6.667-3.583-4.412 0-8 3.588-8 8 0 2.741 1.333 4 1.677 4.892l12.989 15.763v-4.092zM16 26.205l0.047 0.057 10.62-13.596c0.484-0.611 1.333-1.348 1.333-3.024 0-2.941-2.393-5.333-5.333-5.333s-6.667 2.392-6.667 5.333v-4.417c1.435-2.157 3.888-3.583 6.667-3.583 4.412 0 8 3.588 8 8 0 2.741-1.333 4-1.677 4.892l-12.989 15.763v-4.092z"></path>
</svg>
