<?xml version="1.0" encoding="utf-8"?>
<!DOCTYPE svg PUBLIC "-//W3C//DTD SVG 1.1//EN" "http://www.w3.org/Graphics/SVG/1.1/DTD/svg11.dtd">
<svg version="1.1" xmlns="http://www.w3.org/2000/svg" xmlns:xlink="http://www.w3.org/1999/xlink" width="32" height="32" viewBox="0 0 32 32">

	<path d="M28 10.201v-8.868h-6.667v3.951l-5.357-3.951-15.976 12h4v17.333h24v-17.333l4 0.003-4-3.135zM16 28h-5.333v-10.667h5.333v10.667zM25.333 28h-8v-12h-8v12h-2.667v-16l9.345-6.667 9.321 6.667v16zM25.333 6.843l-1.333-0.889v-1.953h1.333v2.843zM24 18.667h-5.333v5.333h5.333v-5.333zM22.667 22.667h-2.667v-2.667h2.667v2.667zM14.667 22.667h-1.333v1.333h1.333v-1.333z"></path>
</svg>
