<?xml version="1.0" encoding="utf-8"?>
<!DOCTYPE svg PUBLIC "-//W3C//DTD SVG 1.1//EN" "http://www.w3.org/Graphics/SVG/1.1/DTD/svg11.dtd">
<svg version="1.1" xmlns="http://www.w3.org/2000/svg" xmlns:xlink="http://www.w3.org/1999/xlink" width="32" height="32" viewBox="0 0 32 32">

	<path d="M0 4v24h32v-24h-32zM29.333 25.333h-26.667v-18.667h26.667v18.667zM19.333 16.592c1.471 0 2.667-1.195 2.667-2.667s-1.196-2.667-2.667-2.667-2.667 1.195-2.667 2.667 1.196 2.667 2.667 2.667zM18 12.592h2.667v2.667h-2.667v-2.667zM28 8h-24v16h24v-16zM5.333 17.287l8.065 2.304-8.065 1.424v-3.728zM26.667 22.667h-21.333v-0.3l21.333-3.764v4.064zM26.667 17.269l-10.667 1.989-10.667-3.305v-6.62h21.333v7.936z"></path>
</svg>
