<?xml version="1.0" encoding="utf-8"?>
<!DOCTYPE svg PUBLIC "-//W3C//DTD SVG 1.1//EN" "http://www.w3.org/Graphics/SVG/1.1/DTD/svg11.dtd">
<svg version="1.1" xmlns="http://www.w3.org/2000/svg" xmlns:xlink="http://www.w3.org/1999/xlink" width="32" height="32" viewBox="0 0 32 32">

	<path d="M27.996 22.323c0 0-9.315-9.348-9.332-10.323v-1.336h2.672v-8h-12.003v8h2.667l0.005 1.336c-0.017 0.975-9.332 10.323-9.332 10.323-1.756 1.971-1.388 3.581-1.076 4.309s1.505 2.701 2.369 2.701h22.736c0.864 0 2.056-1.972 2.368-2.7s0.681-2.34-1.075-4.311zM26.621 25.583c-0.117 0.272-0.416 0.757-0.667 1.084h-21.24c-0.251-0.327-0.549-0.812-0.665-1.084-0.192-0.445 0.256-1.072 0.571-1.435 10.017-10.056 10.032-10.957 10.052-12.147v-3.999l-2.676-0.003 0.004-2.664h6.664l0.004 2.664h-2.668l-0.001 4.047c0.020 1.143 0.035 2.045 10.052 12.101 0.313 0.363 0.76 0.989 0.571 1.435zM16 16h-1.336l-8 8v1.336h17.336v-1.336l-8-8zM13.336 20l1.328-2.664h1.336l1.336 2.664h-4z"></path>
</svg>
