<?xml version="1.0" encoding="utf-8"?>
<!DOCTYPE svg PUBLIC "-//W3C//DTD SVG 1.1//EN" "http://www.w3.org/Graphics/SVG/1.1/DTD/svg11.dtd">
<svg version="1.1" xmlns="http://www.w3.org/2000/svg" xmlns:xlink="http://www.w3.org/1999/xlink" width="32" height="32" viewBox="0 0 32 32">

	<path d="M12.005 4v25.333h15.985v-10.667h3.995v-14.667h-19.98zM25.325 26.667h-10.656v-4h10.656v4zM25.325 21.333h-10.656v-4h10.656v4zM29.321 16h-14.652v-4h14.652v4zM29.321 10.667h-14.652v-4h14.652v4zM0.015 29.333h9.327v-25.333h-9.327v25.333zM2.679 6.667h3.997v4h-3.997v-4zM2.679 12h3.997v4h-3.997v-4zM2.679 17.333h3.997v4h-3.997v-4zM2.679 22.667h3.997v4h-3.997v-4z"></path>
</svg>
