<?xml version="1.0" encoding="utf-8"?>
<!DOCTYPE svg PUBLIC "-//W3C//DTD SVG 1.1//EN" "http://www.w3.org/Graphics/SVG/1.1/DTD/svg11.dtd">
<svg version="1.1" xmlns="http://www.w3.org/2000/svg" xmlns:xlink="http://www.w3.org/1999/xlink" width="32" height="32" viewBox="0 0 32 32">

	<path d="M4 18.667h1.333v-1.333h-1.333v1.333zM5.333 5.333h-1.333v1.333h1.333v-1.333zM5.333 29.333h-1.333v1.333h-2.667v1.333h6.667v-1.333h-2.667v-1.333zM4 10.667h1.333v-1.333h-1.333v1.333zM4 14.667h1.333v-1.333h-1.333v1.333zM12 0v32h17.333v-32h-17.333zM22.667 29.333h-8v-26.667h8v26.667zM26.667 29.333h-2.667v-2.667h2.667v2.667zM26.667 25.333h-2.667v-2.667h2.667v2.667zM26.667 21.333h-2.667v-2.667h2.667v2.667zM26.667 17.333h-2.667v-2.667h2.667v2.667zM26.667 13.333h-2.667v-2.667h2.667v2.667zM26.667 9.333h-2.667v-2.667h2.667v2.667zM26.667 5.333h-2.667v-2.667h2.667v2.667zM1.333 1.333h2.667v1.333h1.333v-1.333h2.667v-1.333h-6.667v1.333zM4 26.667h1.333v-1.333h-1.333v1.333zM4 22.667h1.333v-1.333h-1.333v1.333z"></path>
</svg>
