<?xml version="1.0" encoding="utf-8"?>
<!DOCTYPE svg PUBLIC "-//W3C//DTD SVG 1.1//EN" "http://www.w3.org/Graphics/SVG/1.1/DTD/svg11.dtd">
<svg version="1.1" xmlns="http://www.w3.org/2000/svg" xmlns:xlink="http://www.w3.org/1999/xlink" width="32" height="32" viewBox="0 0 32 32">

	<path d="M16 0c-8.836 0-16 7.164-16 16s7.164 16 16 16 16-7.164 16-16-7.164-16-16-16zM16 29.333c-7.352 0-13.333-5.981-13.333-13.333s5.981-13.333 13.333-13.333 13.333 5.981 13.333 13.333-5.981 13.333-13.333 13.333zM9.477 7.559c0 0-0.004 0.004-0.005 0.004 0 0.001 0 0.001 0 0.001-0.003 0.001-0.004 0.004-0.005 0.004-0.001 0.001-0.001 0.001-0.003 0.003-0.003 0.001-0.007 0.005-0.009 0.007-0.001 0.001-0.001 0.001-0.001 0.001-0.003 0.003-0.004 0.003-0.005 0.004l-0.003 0.001c-0.001 0.001-0.003 0.001-0.004 0.004-0.001 0-0.004 0.001-0.005 0.003 0 0-0.001 0.001-0.003 0.003-0.003 0.001-0.004 0.003-0.007 0.005 0 0-0.003 0.001-0.003 0.003-0.003 0-0.004 0.003-0.005 0.003 0 0-0.001 0.003-0.003 0.003l-0.004 0.004c-0.001 0.001-0.001 0.001-0.001 0.001-0.004 0.003-0.007 0.005-0.009 0.007v0.001c-0.003 0.001-0.005 0.003-0.007 0.005 0 0-0.001 0-0.003 0-0.001 0.003-0.004 0.004-0.005 0.005 0 0-0.001 0.001-0.003 0.003-0.005 0.003-0.009 0.007-0.015 0.009-0.001 0.001-0.001 0.001-0.001 0.001-0.003 0.001-0.005 0.004-0.007 0.007v0c-0.009 0.007-0.017 0.013-0.025 0.019v0.001c-0.143 0.116-0.284 0.233-0.421 0.356-0.008 0.007-0.016 0.013-0.023 0.020h-0.001c-0.003 0.003-0.004 0.005-0.007 0.008h-0.001c-0.005 0.004-0.009 0.008-0.015 0.013h-0.001c-0.001 0.003-0.004 0.005-0.005 0.007 0 0.001-0.001 0.001-0.001 0.001-0.003 0.003-0.004 0.004-0.007 0.005v0.001c-0.003 0-0.005 0.003-0.008 0.005 0 0-0.001 0-0.001 0.001l-0.005 0.005c-0.001 0.001-0.001 0.001-0.001 0.001-0.003 0.003-0.005 0.004-0.005 0.004-0.003 0.003-0.003 0.003-0.003 0.003-0.003 0.003-0.005 0.004-0.008 0.007 0 0 0 0-0.001 0.001l-0.005 0.005c-0.001 0.001-0.001 0.001-0.001 0.001-0.003 0.003-0.004 0.004-0.007 0.005 0 0.001-0.001 0.001-0.001 0.001l-0.005 0.007c0 0-0.001 0.001-0.003 0.003s-0.003 0.003-0.005 0.004c0 0-0.003 0.003-0.003 0.004 0 0-0.003 0.001-0.004 0.003s-0.003 0.001-0.004 0.001c0 0-0.001 0.003-0.003 0.004-0.003 0.001-0.004 0.004-0.005 0.004-0.001 0.003-0.003 0.003-0.005 0.005 0 0-0.001 0.003-0.003 0.003l-0.003 0.003c-0.003 0.001-0.004 0.003-0.005 0.004 0 0.001-0.001 0.001-0.001 0.001l-0.015 0.016h-0.001c-0.001 0.003-0.003 0.004-0.005 0.005 0 0 0 0-0.001 0.001s-0.003 0.001-0.003 0.001l0.909 0.976c0.283-0.263 0.587-0.513 0.9-0.74l-0.781-1.080c-0.095 0.067-0.188 0.137-0.281 0.209zM7.14 13.055l-1.265-0.42c-0.080 0.241-0.151 0.484-0.213 0.732-0.003 0.012-0.005 0.023-0.008 0.032h-0.001c0 0.003-0.001 0.005-0.001 0.008l-0.008 0.031c-0.001 0.003-0.001 0.005-0.003 0.008 0 0 0 0 0 0.001-0.003 0.011-0.005 0.020-0.008 0.029v0.003c0 0.003-0.001 0.005-0.001 0.005v0.003c-0.003 0.008-0.004 0.016-0.007 0.024 0 0.003-0.001 0.005-0.001 0.008-0.001 0.003-0.001 0.005-0.003 0.008v0.001c-0.001 0.007-0.004 0.015-0.005 0.023 0 0 0 0 0 0.001-0.001 0.003-0.001 0.004-0.001 0.007 0 0.001 0 0.003-0.001 0.003 0 0.003-0.001 0.005-0.001 0.007v0.001c-0.001 0.008-0.004 0.015-0.005 0.023 0 0.001 0 0.001 0 0.001-0.001 0.003-0.001 0.005-0.003 0.008-0.003 0.011-0.004 0.021-0.007 0.031v0.001c-0.001 0.003-0.001 0.004-0.003 0.007v0.003c-0.003 0.011-0.004 0.021-0.007 0.029v0.001c0 0.001 0 0.004-0.001 0.007-0.001 0.008-0.003 0.016-0.005 0.024 0 0.003-0.001 0.005-0.001 0.008 0 0 0 0.001 0 0.003-0.001 0.001-0.001 0.004-0.001 0.007l-0.001 0.001c-0.001 0.011-0.004 0.021-0.007 0.031s-0.004 0.021-0.007 0.032c-0.001 0.003-0.001 0.005-0.001 0.008-0.009 0.043-0.019 0.087-0.028 0.129l1.308 0.259c0.077-0.38 0.177-0.76 0.299-1.127zM16 6.667c0.107 0 0.212 0.003 0.317 0.005l0.044-1.333c-0.089-0.003-0.179-0.004-0.271-0.005h-0.001c-0.003 0-0.007 0-0.007 0h-0.027c0 0 0 0-0.001 0h-0.009c-0.001 0-0.001 0-0.001 0h-0.023c0 0-0.001 0-0.003 0h-0.005c0 0-0.001 0-0.003 0h-0.021c0 0-0.001 0-0.003 0h-0.011c0 0-0.004 0-0.007 0 0 0-0.001 0-0.003 0h-0.007c0 0-0.001 0-0.003 0h-0.009c-0.001 0-0.001 0-0.001 0h-0.072c0 0-0.001 0-0.003 0h-0.009c-0.004 0-0.007 0-0.011 0.001h-0.011c0 0-0.001 0-0.003 0h-0.007c-0.001 0-0.003 0-0.003 0h-0.008c-0.001 0-0.001 0-0.001 0-0.008 0-0.015 0.001-0.021 0.001-0.001 0-0.001 0-0.001 0h-0.009c-0.001 0-0.001 0-0.001 0h-0.041c0 0 0 0-0.001 0h-0.009c-0.011 0-0.021 0.001-0.031 0.001-0.004 0-0.008 0-0.011 0.001h-0.053c-0.296 0.011-0.589 0.032-0.88 0.065-0.009 0.003-0.020 0.003-0.029 0.005h-0.011c-0.003 0-0.005 0.001-0.005 0.001-0.003 0-0.004 0-0.005 0.001h-0.007c-0.001 0-0.001 0-0.001 0-0.004 0-0.008 0.001-0.011 0.001-0.001 0-0.003 0.001-0.004 0.001h-0.011l-0.004 0.001h-0.004l0.165 1.323c0.385-0.048 0.777-0.072 1.167-0.072zM5.82 19.193v0.003c0.001 0.005 0.004 0.012 0.005 0.019 0.001 0.004 0.003 0.007 0.003 0.011h0.001c0.132 0.416 0.288 0.821 0.468 1.213l1.212-0.555c-0.161-0.353-0.301-0.719-0.416-1.088l-1.273 0.397zM26.233 12.979c-0.105-0.36-0.231-0.713-0.373-1.056v-0.001c-0.001-0.003-0.001-0.004-0.001-0.004l-0.001-0.004c-0.003-0.007-0.007-0.013-0.009-0.021v0c-0.001-0.001-0.003-0.004-0.003-0.007l-0.001-0.001c-0.001-0.001-0.001-0.004-0.003-0.007 0 0 0-0.001-0.001-0.003-0.001-0.003-0.003-0.005-0.004-0.009 0-0.001-0.001-0.003-0.001-0.004 0 0-0.001-0.003-0.001-0.004-0.001-0.001-0.001-0.004-0.001-0.004-0.001-0.003-0.003-0.003-0.003-0.005-0.001-0.001-0.001-0.003-0.003-0.005l-0.005-0.011c0-0.001 0-0.003 0-0.003-0.001-0.003-0.003-0.005-0.004-0.007 0 0 0-0.001 0-0.004-0.001-0.001-0.003-0.003-0.003-0.005-0.001 0-0.001-0.003-0.001-0.003l-0.004-0.008v0.001c-0.001-0.003-0.003-0.007-0.004-0.009l-0.001-0.001c0-0.001-0.001-0.004-0.003-0.007 0-0.003 0-0.003 0-0.003-0.003-0.003-0.003-0.005-0.004-0.008l-0.013-0.029c-0.003-0.008-0.005-0.013-0.008-0.020l-1.223 0.535c0.156 0.355 0.291 0.721 0.4 1.093l1.28-0.376zM25.125 17.973c-0.083 0.379-0.189 0.756-0.316 1.121l1.257 0.441c0.028-0.079 0.055-0.159 0.081-0.24l0.035-0.109c0.095-0.305 0.177-0.616 0.247-0.932l-1.304-0.281zM22.279 7.376c0 0 0-0.001 0 0-0.007-0.005-0.012-0.009-0.019-0.015h-0.003c-0.001-0.001-0.003-0.001-0.004-0.003s-0.003-0.001-0.003-0.001c-0.001-0.003-0.004-0.003-0.004-0.003-0.003-0.003-0.005-0.005-0.005-0.005-0.001-0.003-0.003-0.003-0.004-0.003-0.001-0.003-0.003-0.003-0.005-0.004 0-0.001-0.001-0.001-0.003-0.003s-0.004-0.001-0.005-0.004c0 0-0.001 0-0.003-0.001-0.003-0.001-0.005-0.004-0.008-0.005s-0.005-0.004-0.008-0.007h-0.001c-0.003-0.003-0.004-0.004-0.007-0.005l-0.001-0.001c-0.249-0.177-0.504-0.345-0.768-0.5l-0.679 1.147c0.332 0.197 0.657 0.417 0.964 0.656l0.817-1.055c-0.081-0.063-0.163-0.124-0.247-0.185-0.001 0-0.003-0.001-0.005-0.003zM13.539 10.997c0 0-1.979 7.927-1.396 10.057 0.581 2.132 2.781 3.385 4.913 2.803 2.132-0.581 3.387-2.781 2.804-4.913-0.584-2.131-6.321-7.947-6.321-7.947zM16.703 22.572c-1.419 0.389-2.885-0.448-3.273-1.868s0.445-2.887 1.868-3.276c1.42-0.388 2.887 0.448 3.275 1.869 0.389 1.419-0.447 2.885-1.869 3.275z"></path>
</svg>
