<?xml version="1.0" encoding="utf-8"?>
<!DOCTYPE svg PUBLIC "-//W3C//DTD SVG 1.1//EN" "http://www.w3.org/Graphics/SVG/1.1/DTD/svg11.dtd">
<svg version="1.1" xmlns="http://www.w3.org/2000/svg" xmlns:xlink="http://www.w3.org/1999/xlink" width="32" height="32" viewBox="0 0 32 32">

	<path d="M28 4h-24c-2.205 0-4 1.795-4 4v14.667c0 2.205 1.795 4 4 4h1.333l1.333 2.667h1.333l1.333-2.667h13.333l1.333 2.667h1.333l1.333-2.667h1.333c2.205 0 4-1.795 4-4v-14.667c0-2.205-1.795-4-4-4zM29.333 22.667c0 0.736-0.599 1.333-1.333 1.333h-24c-0.735 0-1.333-0.597-1.333-1.333v-14.667c0-0.735 0.599-1.333 1.333-1.333h24c0.735 0 1.333 0.599 1.333 1.333v14.667zM4 22.667h20v-14.667h-20v14.667zM5.333 9.333h17.333v12h-17.333v-12zM25.333 9.333h1.333v1.333h-1.333zM26.667 10.667h1.333v1.333h-1.333zM25.333 12h1.333v1.333h-1.333zM26.667 13.333h1.333v1.333h-1.333zM25.333 17.333h2.667v1.333h-2.667zM25.333 20h2.667v1.333h-2.667z"></path>
</svg>
