<?xml version="1.0" encoding="utf-8"?>
<!DOCTYPE svg PUBLIC "-//W3C//DTD SVG 1.1//EN" "http://www.w3.org/Graphics/SVG/1.1/DTD/svg11.dtd">
<svg version="1.1" xmlns="http://www.w3.org/2000/svg" xmlns:xlink="http://www.w3.org/1999/xlink" width="32" height="32" viewBox="0 0 32 32">

	<path d="M18.667 1.333h-6.667c-2.208 0-4 1.791-4 4v12c0 2.209 1.792 4 4 4h6.667c2.208 0 4-1.791 4-4v-12c0-2.209-1.792-4-4-4zM20 8v1.333h-2.667v1.333h2.667v1.333h-2.667v1.333h2.667v1.333h-2.667v1.333h2.667v1.333c0 0.735 0.096 1.333-0.639 1.333h-8.056c-0.735 0-0.639-0.599-0.639-1.333v-1.333h2.667v-1.333h-2.667v-1.333h2.667v-1.333h-2.667v-1.333h2.667v-1.333h-2.667v-1.333h2.667v-1.333h-2.667v-1.333c0-0.735-0.096-1.333 0.639-1.333h8.055c0.736 0 0.64 0.599 0.64 1.333v1.333h-2.667v1.333h2.667zM25.333 16v-2.667h-1.333v6.667c0 1.495-0.972 2.667-3.1 2.667h-11.133c-2.128 0-3.1-1.172-3.1-2.667v-6.667h-1.333v2.667h-1.333v2.667h1.333v1.333c0 2.991 0.811 4 4.433 4h2.233v4h-2.667v2.667h12v-2.667h-2.667v-4h2.233c3.623 0 4.433-1.009 4.433-4v-1.333h1.333v-2.667h-1.333z"></path>
</svg>
