<?xml version="1.0" encoding="utf-8"?>
<!DOCTYPE svg PUBLIC "-//W3C//DTD SVG 1.1//EN" "http://www.w3.org/Graphics/SVG/1.1/DTD/svg11.dtd">
<svg version="1.1" xmlns="http://www.w3.org/2000/svg" xmlns:xlink="http://www.w3.org/1999/xlink" width="32" height="32" viewBox="0 0 32 32">

	<path d="M5.333 19.677l1.333-1.333v-5.011h-1.333v2.667h-1.333v2.667h1.333v1.011zM25.333 16v-2.667h-1.333v6.667c0 1.495-2.592 2.667-4.72 2.667h-6.549l-2.667 1.333h1.936v4h-2.667v2.667h12v-2.667h-2.667v-4h0.613c3.623 0 6.053-1.009 6.053-4v-1.333h1.333v-2.667h-1.333zM17.333 8v-1.333h-1.333v1.333h1.333zM10.667 13.333h2.667v-1.333h-2.667v-1.333h2.667v-1.333h-2.667v-1.333h2.667v-1.333h-2.667v-1.333c0-0.735-0.328-1.333 0.408-1.333h6.667c0.64 0 1.151 0.463 1.279 1.065l2.005-2.005c-0.723-1.041-1.924-1.727-3.284-1.727h-6.667c-2.207 0-3.075 1.795-3.075 4v11.677l2.667-2.667v-1.011zM17.741 18.667h-2.344l-2.667 2.667h5.011c2.205 0 4.925-1.795 4.925-4v-5.011l-2.667 2.667v2.344c0 0.735-1.524 1.333-2.259 1.333zM23.408 4.528l-18.667 18.667 1.333 2.667 18.667-18.667-1.333-2.667z"></path>
</svg>
