<?xml version="1.0" encoding="utf-8"?>
<!DOCTYPE svg PUBLIC "-//W3C//DTD SVG 1.1//EN" "http://www.w3.org/Graphics/SVG/1.1/DTD/svg11.dtd">
<svg version="1.1" xmlns="http://www.w3.org/2000/svg" xmlns:xlink="http://www.w3.org/1999/xlink" width="32" height="32" viewBox="0 0 32 32">

	<path d="M21.323 10.667v12h1.333v-12h-1.333zM7.989 2.667v5.333h-5.333v18.667h5.333v1.333c0 0.733 0.656 1.333 1.388 1.333h18.612v-26.667h-20zM9.323 21.333h-1.333v-8h1.333v8zM25.323 24h-1.333v1.333h1.333v1.333h-14.667v-1.333h1.333v-1.333h-1.333v-12h-4v10.667h2.667v1.333h-4v-13.333h5.333v-1.333h14.667v14.667zM25.323 8h-14.667v-2.667h14.667v2.667zM22.656 25.333h-1.333v-1.333h1.333v1.333zM19.989 25.333h-1.333v-1.333h1.333v1.333zM17.323 25.333h-1.333v-1.333h1.333v1.333zM14.656 25.333h-1.333v-1.333h1.333v1.333zM18.656 10.667v12h1.333v-12h-1.333z"></path>
</svg>
