<?xml version="1.0" encoding="utf-8"?>
<!DOCTYPE svg PUBLIC "-//W3C//DTD SVG 1.1//EN" "http://www.w3.org/Graphics/SVG/1.1/DTD/svg11.dtd">
<svg version="1.1" xmlns="http://www.w3.org/2000/svg" xmlns:xlink="http://www.w3.org/1999/xlink" width="32" height="32" viewBox="0 0 32 32">

	<path d="M18.667 17.656v9.011l-4.505-4.505-1.839 1.839h0.7l5.333 6.667c1.333 0 2.976 0 2.976 0v-15.677l-2.665 2.667zM6.689 20.207c-0.005-0.069-0.023-0.133-0.023-0.207v-7.667c0-0.735 0.287-1.667 1.024-1.667h4.309v4.229l1.333-1.333v-2.896l5.333-5.333v2.896l2.667-2.667v-4.229c-1.333 0-1.643 0-2.976 0l-5.333 6.667h-5.333c-2.207 0-3.691 2.128-3.691 4.333v7.667c0 0.848 0.223 1.631 0.617 2.279l2.072-2.072zM4.552 28.943l-1.885-1.885 24.667-24.667 1.885 1.885-24.667 24.667z"></path>
</svg>
