<?xml version="1.0" encoding="utf-8"?>
<!DOCTYPE svg PUBLIC "-//W3C//DTD SVG 1.1//EN" "http://www.w3.org/Graphics/SVG/1.1/DTD/svg11.dtd">
<svg version="1.1" xmlns="http://www.w3.org/2000/svg" xmlns:xlink="http://www.w3.org/1999/xlink" width="32" height="32" viewBox="0 0 32 32">

	<path d="M28.225 6.276l-3.771-3.771c-2.6-2.599-6.829-2.599-9.428 0l-13.2 13.199 1.885 1.885 13.2-13.199c1.56-1.56 4.097-1.56 5.656 0l3.772 3.772c1.56 1.559 1.56 4.096 0 5.656l-13.199 13.199c-1.7 1.7-3.591 2.065-4.097 1.56l-0.617-0.616-3.005-3.005c-0.235-0.235-0.043-1.492 0.648-2.183l13.196-13.196c0.155-0.153 1.416 0.472 2.357 1.415v0c-0.412 0.412-0.316 0.317-0.471 0.472l-9.576 9.575 1.885 1.885 9.576-9.575c1.14-1.139 2.557-2.157 0.472-4.243v0c-2.084-2.085-4.183-3.36-6.128-1.415l-13.2 13.196c-1.557 1.56-2.164 4.435-0.645 5.953l2.060 2.063 1.563 1.56c1.768 1.768 5.224 1.083 7.867-1.56l13.199-13.199c2.6-2.6 2.6-6.829 0.001-9.429z"></path>
</svg>
