<?xml version="1.0" encoding="utf-8"?>
<!DOCTYPE svg PUBLIC "-//W3C//DTD SVG 1.1//EN" "http://www.w3.org/Graphics/SVG/1.1/DTD/svg11.dtd">
<svg version="1.1" xmlns="http://www.w3.org/2000/svg" xmlns:xlink="http://www.w3.org/1999/xlink" width="32" height="32" viewBox="0 0 32 32">

	<path d="M2.667 6.667h10.667v2.667h2.667v-2.667c0-1.467-1.2-2.667-2.667-2.667h-10.667c-1.467 0-2.667 1.2-2.667 2.667v18.667c0 1.467 1.015 2.667 2.48 2.667h1.52v-5.333h-1.333v-16zM28 12h-18.667c-1.467 0-2.667 1.2-2.667 2.667v10.667c0 1.467 1.2 2.667 2.667 2.667h18.667c1.467 0 2.667-1.2 2.667-2.667v-10.667c0-1.467-1.2-2.667-2.667-2.667zM10.667 21.333h-2.667v-2.667h2.667v2.667zM28 25.333h-16v-10.667h16v10.667z"></path>
</svg>
