<?xml version="1.0" encoding="utf-8"?>
<!DOCTYPE svg PUBLIC "-//W3C//DTD SVG 1.1//EN" "http://www.w3.org/Graphics/SVG/1.1/DTD/svg11.dtd">
<svg version="1.1" xmlns="http://www.w3.org/2000/svg" xmlns:xlink="http://www.w3.org/1999/xlink" width="32" height="32" viewBox="0 0 32 32">

	<path d="M29.333 12h-2.667v-10.667h-21.333v10.667h-2.667c-1.467 0-2.667 1.2-2.667 2.667v13.333c0 1.467 0.9 2.667 2 2.667h3.333v1.333h21.333v-1.333h3.333c1.1 0 2-1.2 2-2.667v-13.333c0-1.467-1.2-2.667-2.667-2.667zM5.333 29.333h-1.333v-6.667h1.333v6.667zM24 29.333h-16v-6.667h2.667v1.333h10.667v-1.333h2.667v6.667zM24 12h-16v-8h16v8zM28 29.333h-1.333v-6.667h1.333v6.667zM29.333 16h-2.667v-1.333h2.667v1.333zM10.667 26.667h10.667v-1.333h-10.667v1.333z"></path>
</svg>
