<?xml version="1.0" encoding="utf-8"?>
<!DOCTYPE svg PUBLIC "-//W3C//DTD SVG 1.1//EN" "http://www.w3.org/Graphics/SVG/1.1/DTD/svg11.dtd">
<svg version="1.1" xmlns="http://www.w3.org/2000/svg" xmlns:xlink="http://www.w3.org/1999/xlink" width="32" height="32" viewBox="0 0 32 32">

	<path d="M13.331 11.331c2.719 0 4.936 2.041 5.267 4.669h4.688c-0.044-0.629-0.129-1.247-0.283-1.839l3.788-2.187-2.668-4.621-3.783 2.184c-1.193-1.175-2.68-2.043-4.34-2.503v-4.371h-5.336v4.371c-1.66 0.459-3.148 1.328-4.341 2.501l-3.781-2.183-2.668 4.621 3.785 2.185c-0.207 0.803-0.329 1.637-0.329 2.504s0.121 1.703 0.329 2.504l-3.785 2.187 2.668 4.62 3.78-2.183c1.193 1.175 2.683 2.043 4.343 2.501v4.371h5.336v-9.407c-0.788 0.459-1.692 0.741-2.669 0.741-2.945 0-5.333-2.388-5.333-5.333s2.388-5.335 5.333-5.335zM30.664 24c0-0.493-0.088-0.963-0.215-1.416l2.476-1.429-1.332-2.307-2.459 1.419c-0.668-0.68-1.52-1.167-2.471-1.415v-2.852h-2.664v2.852c-0.953 0.245-1.805 0.732-2.475 1.413l-2.455-1.417-1.332 2.307 2.471 1.425c-0.127 0.456-0.216 0.925-0.216 1.42s0.089 0.965 0.216 1.42l-2.471 1.425 1.332 2.307 2.455-1.417c0.669 0.681 1.523 1.168 2.475 1.413v2.852h2.664v-2.853c0.951-0.248 1.803-0.735 2.471-1.415l2.46 1.42 1.332-2.307-2.476-1.429c0.125-0.453 0.213-0.923 0.213-1.416zM25.328 26.664c-1.472 0-2.664-1.193-2.664-2.664s1.193-2.664 2.664-2.664 2.664 1.193 2.664 2.664-1.192 2.664-2.664 2.664z"></path>
</svg>
