<?xml version="1.0" encoding="utf-8"?>
<!DOCTYPE svg PUBLIC "-//W3C//DTD SVG 1.1//EN" "http://www.w3.org/Graphics/SVG/1.1/DTD/svg11.dtd">
<svg version="1.1" xmlns="http://www.w3.org/2000/svg" xmlns:xlink="http://www.w3.org/1999/xlink" width="32" height="32" viewBox="0 0 32 32">

	<path d="M26.667 21.333c-1.6 0-3.021 0.723-4 1.843l-9.765-4.883c0.265-0.717 0.432-1.484 0.432-2.293s-0.167-1.576-0.432-2.293l9.765-4.883c0.979 1.12 2.4 1.843 4 1.843 2.941 0 5.333-2.393 5.333-5.333s-2.392-5.333-5.333-5.333-5.333 2.393-5.333 5.333c0 0.383 0.044 0.755 0.121 1.115l-9.96 4.98c0.004 0.004 0.005 0.009 0.009 0.012-1.216-1.289-2.928-2.107-4.837-2.107-3.676 0-6.667 2.991-6.667 6.667s2.991 6.667 6.667 6.667c1.909 0 3.621-0.817 4.837-2.107-0.004 0.003-0.005 0.008-0.009 0.012l9.96 4.98c-0.077 0.36-0.121 0.732-0.121 1.115 0 2.94 2.392 5.333 5.333 5.333s5.333-2.393 5.333-5.333-2.392-5.333-5.333-5.333zM26.667 2.667c1.471 0 2.667 1.195 2.667 2.667s-1.196 2.667-2.667 2.667-2.667-1.195-2.667-2.667 1.196-2.667 2.667-2.667zM6.667 20c-2.205 0-4-1.795-4-4s1.795-4 4-4 4 1.795 4 4-1.795 4-4 4zM26.667 29.333c-1.471 0-2.667-1.195-2.667-2.667s1.196-2.667 2.667-2.667 2.667 1.195 2.667 2.667-1.196 2.667-2.667 2.667z"></path>
</svg>
