<?xml version="1.0" encoding="utf-8"?>
<!DOCTYPE svg PUBLIC "-//W3C//DTD SVG 1.1//EN" "http://www.w3.org/Graphics/SVG/1.1/DTD/svg11.dtd">
<svg version="1.1" xmlns="http://www.w3.org/2000/svg" xmlns:xlink="http://www.w3.org/1999/xlink" width="32" height="32" viewBox="0 0 32 32">

	<path d="M1.333 4v22.667h12v2.667h17.333v-25.333h-29.333zM14.667 24h-10.667v-1.333h10.667v1.333zM28 26.667h-12v-1.333h12v1.333zM28 8h-1.333v1.333h1.333v14.667h-12v-8h-1.333v5.333h-10.667v-6.731c0.991-0.076 3.631-0.483 3.631-2.649l-3.631 2.42v-7.707h24v1.333zM27.631 14.62l-4-2.667c0 2.667 4 2.667 4 2.667zM25.333 8h-1.333v1.333h1.333v-1.333zM22.667 8h-1.333v1.333h1.333v-1.333zM20 8h-1.333v1.333h1.333v-1.333zM17.333 8h-1.333v1.333h1.333v-1.333zM14.667 8h-1.333v1.333h1.333v-1.333zM12 8h-1.333v1.333h1.333v-1.333zM9.333 8h-1.333v1.333h1.333v-1.333zM6.667 8h-1.333v1.333h1.333v-1.333z"></path>
</svg>
