<?xml version="1.0" encoding="utf-8"?>
<!DOCTYPE svg PUBLIC "-//W3C//DTD SVG 1.1//EN" "http://www.w3.org/Graphics/SVG/1.1/DTD/svg11.dtd">
<svg version="1.1" xmlns="http://www.w3.org/2000/svg" xmlns:xlink="http://www.w3.org/1999/xlink" width="32" height="32" viewBox="0 0 32 32">

	<path d="M24.485 31.364c-0.505 0.003-1.036-0.143-1.579-0.429l-5.168-2.716c-0.864-0.456-2.613-0.456-3.48 0l-5.165 2.716c-1.293 0.68-2.588 0.519-3.325-0.355-0.356-0.421-0.735-1.188-0.52-2.437l0.987-5.755c0.173-1.013-0.34-2.591-1.076-3.309l-4.183-4.075c-0.876-0.857-1.207-1.875-0.908-2.795 0.3-0.919 1.167-1.548 2.38-1.724l5.776-0.84c1.019-0.148 2.361-1.123 2.815-2.044l2.585-5.237c0.543-1.099 1.408-1.728 2.376-1.728s1.833 0.631 2.375 1.729l2.585 5.237c0.455 0.921 1.797 1.896 2.815 2.044l5.776 0.84c1.213 0.176 2.081 0.805 2.38 1.724s-0.032 1.937-0.911 2.795l-4.183 4.075c-0.736 0.719-1.249 2.297-1.076 3.309l0.987 5.755c0.215 1.251-0.164 2.016-0.52 2.435-0.423 0.507-1.044 0.785-1.743 0.785zM16 25.193c1.107 0 2.165 0.237 2.98 0.667l5.137 2.7-0.98-5.721c-0.324-1.891 0.468-4.328 1.841-5.669l4.157-4.049-5.743-0.836c-1.901-0.276-3.975-1.781-4.823-3.503l-2.571-5.204-2.571 5.204c-0.848 1.721-2.921 3.227-4.823 3.503l-5.743 0.836 4.157 4.049c1.373 1.341 2.165 3.779 1.841 5.669l-0.98 5.721 5.136-2.7c0.816-0.431 1.875-0.667 2.981-0.667z"></path>
</svg>
