<?xml version="1.0" encoding="utf-8"?>
<!DOCTYPE svg PUBLIC "-//W3C//DTD SVG 1.1//EN" "http://www.w3.org/Graphics/SVG/1.1/DTD/svg11.dtd">
<svg version="1.1" xmlns="http://www.w3.org/2000/svg" xmlns:xlink="http://www.w3.org/1999/xlink" width="32" height="32" viewBox="0 0 32 32">

	<path d="M17.333 5.4v-1.4h0.667c0.368 0 0.667-0.299 0.667-0.667v-2.667c0-0.368-0.299-0.667-0.667-0.667h-4c-0.368 0-0.667 0.299-0.667 0.667v2.667c0 0.368 0.299 0.667 0.667 0.667h0.667v1.405c-1.201 0.123-2.356 0.405-3.444 0.825l-1.396-1.348-2.436-2.435-4.691 4.691 3.028 3.028c-1.912 2.307-3.061 5.268-3.061 8.5 0 7.364 5.969 13.333 13.333 13.333s13.333-5.969 13.333-13.333c0-6.915-5.261-12.597-12-13.267zM14.667 1.333h2.667v1.333h-2.667v-1.333zM4.585 7.139l2.805-2.805 1.556 1.555-2.805 2.805-1.556-1.555zM16 29.333c-5.881 0-10.667-4.785-10.667-10.667s4.785-10.667 10.667-10.667 10.667 4.785 10.667 10.667-4.785 10.667-10.667 10.667zM14.943 12.612c-0.521-0.521-1.364-0.521-1.885 0s-0.521 1.364 0 1.885l2.619 2.62-3.504 4.896c-0.361 0.641-0.135 1.455 0.508 1.815 0.207 0.117 0.431 0.172 0.652 0.172 0.467 0 0.919-0.245 1.163-0.68l4-5.779c0.295-0.521 0.204-1.173-0.219-1.596l-3.333-3.333z"></path>
</svg>
