<?xml version="1.0" encoding="utf-8"?>
<!DOCTYPE svg PUBLIC "-//W3C//DTD SVG 1.1//EN" "http://www.w3.org/Graphics/SVG/1.1/DTD/svg11.dtd">
<svg version="1.1" xmlns="http://www.w3.org/2000/svg" xmlns:xlink="http://www.w3.org/1999/xlink" width="32" height="32" viewBox="0 0 32 32">

	<path d="M27.315 4.688c-2.896-2.896-6.896-4.688-11.315-4.688-4.416 0-8.416 1.792-11.312 4.688s-4.688 6.896-4.688 11.312c0 4.419 1.792 8.419 4.688 11.315 2.896 2.893 6.896 4.685 11.312 4.685 4.419 0 8.419-1.792 11.315-4.685 2.893-2.896 4.685-6.896 4.685-11.315 0-4.416-1.792-8.416-4.685-11.312zM21.333 16c0 1.472-0.599 2.805-1.563 3.771-0.965 0.964-2.299 1.563-3.771 1.563-1.469 0-2.803-0.599-3.768-1.563-0.967-0.965-1.565-2.299-1.565-3.771 0-1.469 0.599-2.803 1.565-3.768s2.299-1.565 3.768-1.565c1.472 0 2.805 0.599 3.771 1.565 0.964 0.965 1.563 2.299 1.563 3.768zM2.667 16c0-3.675 1.495-7.008 3.909-9.424l3.768 3.768c-1.448 1.448-2.344 3.448-2.344 5.656s0.896 4.208 2.344 5.656l-3.768 3.768c-2.415-2.413-3.909-5.747-3.909-9.424zM25.424 25.424l-3.768-3.768c1.448-1.448 2.344-3.448 2.344-5.656s-0.896-4.208-2.344-5.656l3.768-3.768c2.415 2.416 3.909 5.749 3.909 9.424 0 3.677-1.495 7.011-3.909 9.424z"></path>
</svg>
