<?xml version="1.0" encoding="utf-8"?>
<!DOCTYPE svg PUBLIC "-//W3C//DTD SVG 1.1//EN" "http://www.w3.org/Graphics/SVG/1.1/DTD/svg11.dtd">
<svg version="1.1" xmlns="http://www.w3.org/2000/svg" xmlns:xlink="http://www.w3.org/1999/xlink" width="32" height="32" viewBox="0 0 32 32">

	<path d="M10.667 1.333v5.333h-9.333v20h8.183l2.247 5.333h14.667l2.904-2.667v-28h-18.667zM4 24v-11l4.393 11h-4.393zM10 22.667l-5.333-13.333h5.333v13.333zM26.667 28l-1.572 1.333h-11.761v-25.333h13.333v24zM14.667 6.667h6.667v1.333h-6.667zM14.667 14.667h6.667v1.333h-6.667zM14.667 17.333h6.667v1.333h-6.667zM14.667 20h6.667v1.333h-6.667zM14.667 22.667h6.667v1.333h-6.667zM14.667 25.333h6.667v1.333h-6.667zM22.669 6.665h2.664v1.336h-2.664zM22.669 9.333h1.332v1.336h-1.332zM19.997 9.333h1.332v1.336h-1.332zM18.669 9.333h-4.003v1.336h4.003zM24.001 14.667h1.328v1.336h-1.328zM24.001 17.332h1.328v1.336h-1.328zM24.001 20h1.328v1.336h-1.328zM24.001 22.665h1.328v1.336h-1.328z"></path>
</svg>
