<?xml version="1.0" encoding="utf-8"?>
<!DOCTYPE svg PUBLIC "-//W3C//DTD SVG 1.1//EN" "http://www.w3.org/Graphics/SVG/1.1/DTD/svg11.dtd">
<svg version="1.1" xmlns="http://www.w3.org/2000/svg" xmlns:xlink="http://www.w3.org/1999/xlink" width="32" height="32" viewBox="0 0 32 32">

	<path d="M15.333 18.667c1.1 0 2-1.2 2-2.667v-10.667c0-1.467-0.9-2.667-2-2.667s-2 1.2-2 2.667v10.667c0 1.467 0.9 2.667 2 2.667zM20 6.251v2.925c3.167 1.679 5.333 4.997 5.333 8.824 0 5.515-4.485 10-10 10s-10-4.485-10-10c0-3.827 2.167-7.145 5.333-8.824v-2.925c-4.677 1.861-8 6.416-8 11.749 0 6.984 5.683 12.667 12.667 12.667s12.667-5.683 12.667-12.667c0-5.333-3.323-9.888-8-11.749z"></path>
</svg>
