<?xml version="1.0" encoding="utf-8"?>
<!DOCTYPE svg PUBLIC "-//W3C//DTD SVG 1.1//EN" "http://www.w3.org/Graphics/SVG/1.1/DTD/svg11.dtd">
<svg version="1.1" xmlns="http://www.w3.org/2000/svg" xmlns:xlink="http://www.w3.org/1999/xlink" width="32" height="32" viewBox="0 0 32 32">

	<path d="M26.136 6.807l1.885 1.885 1.885-1.885-4.713-4.713-1.887 1.885 1.885 1.885-2.829 2.829-5.657-5.657-1.885 1.885 1.885 1.885-14.14 14.143 3.232 3.233-3.704 5.724 5.724-3.703 3.232 3.232 14.144-14.143 1.885 1.885 1.885-1.885-5.657-5.656 2.829-2.831zM23.307 13.408l-2.831 2.828-2.828-2.829-0.943 0.943 2.828 2.829-1.885 1.887-2.828-2.829-0.943 0.943 2.828 2.829-1.885 1.885-2.828-2.829-0.943 0.943 2.828 2.829-2.828 2.828-4.713-4.715 12.255-12.256 4.716 4.715z"></path>
</svg>
