<?xml version="1.0" encoding="utf-8"?>
<!DOCTYPE svg PUBLIC "-//W3C//DTD SVG 1.1//EN" "http://www.w3.org/Graphics/SVG/1.1/DTD/svg11.dtd">
<svg version="1.1" xmlns="http://www.w3.org/2000/svg" xmlns:xlink="http://www.w3.org/1999/xlink" width="32" height="32" viewBox="0 0 32 32">

	<path d="M26.667 4v-2.667h-8v2.667h2.667v24h-2.667v2.667h8v-2.667h-2.667v-24zM18.667 7.123c0-0.139-0.26-0.305-0.427-0.424-0.735-0.548-1.547-0.905-2.448-1.071-0.901-0.167-1.953-0.249-3.164-0.249-0.877 0-1.779 0.139-2.7 0.421-0.923 0.281-1.707 0.623-2.355 1.028-0.751 0.475-1.359 1.016-1.827 1.62-0.468 0.605-0.703 1.24-0.703 1.903 0 0.635 0.169 1.207 0.508 1.719s0.868 0.767 1.588 0.767c0.807 0 1.437-0.208 1.892-0.628 0.455-0.416 0.681-0.877 0.681-1.383 0-0.475-0.069-0.993-0.205-1.556-0.139-0.561-0.205-0.987-0.205-1.275 0.231-0.245 0.631-0.479 1.2-0.703 0.568-0.224 1.185-0.335 1.848-0.335 0.965 0 1.711 0.197 2.237 0.593 0.527 0.397 0.933 0.861 1.221 1.395 0.259 0.476 0.191 1.555 0.191 1.555v3.18c0 0.375-1.809 0.893-3.792 1.556s-3.188 1.116-3.837 1.361c-0.517 0.203-1.016 0.473-1.608 0.811-0.591 0.34-1.040 0.724-1.401 1.157-0.461 0.519-0.793 1.101-1.024 1.749s-0.337 1.383-0.337 2.205c0 1.585 0.519 2.868 1.549 3.848 1.029 0.979 2.347 1.471 3.945 1.471 1.513 0 2.807-0.593 3.88-1.14 1.076-0.551 2.081-1.365 3.017-2.699h0.131c0.188 1.333 0.605 2.095 1.275 2.621l0.869 0.045v-19.544zM16.349 22.969c-0.533 0.679-1.189 1.265-1.967 1.765-0.779 0.497-1.68 0.748-2.703 0.748-0.967 0-1.761-0.281-2.388-0.847-0.628-0.563-0.94-1.443-0.94-2.64 0-0.924 0.208-1.724 0.628-2.395 0.416-0.673 0.987-1.253 1.705-1.744 0.795-0.521 1.651-0.953 2.573-1.301 0.921-0.347 1.864-0.664 3.091-1.023v7.436z"></path>
</svg>
