<?xml version="1.0" encoding="utf-8"?>
<!DOCTYPE svg PUBLIC "-//W3C//DTD SVG 1.1//EN" "http://www.w3.org/Graphics/SVG/1.1/DTD/svg11.dtd">
<svg version="1.1" xmlns="http://www.w3.org/2000/svg" xmlns:xlink="http://www.w3.org/1999/xlink" width="32" height="32" viewBox="0 0 32 32">

	<path d="M25.333 0c-5.333 0-6.667 4-6.667 6.667v6.667h-18.667v14.667c0 2.205 1.795 4 4 4h16c2.205 0 4-1.795 4-4v-14.667h-2.667v-8c0 0 0-2.667 4-2.667s4 2.667 4 2.667v5.333h2.667v-4c0-2.667-1.333-6.667-6.667-6.667zM21.333 28c0 0.735-0.597 1.333-1.333 1.333h-16c-0.736 0-1.333-0.599-1.333-1.333v-12h18.667v12zM10.667 23.631v3.036h2.667v-3.036c0.795-0.463 1.333-1.312 1.333-2.297 0-1.472-1.195-2.667-2.667-2.667s-2.667 1.195-2.667 2.667c0 0.984 0.539 1.835 1.333 2.297z"></path>
</svg>
