<?xml version="1.0" encoding="utf-8"?>
<!DOCTYPE svg PUBLIC "-//W3C//DTD SVG 1.1//EN" "http://www.w3.org/Graphics/SVG/1.1/DTD/svg11.dtd">
<svg version="1.1" xmlns="http://www.w3.org/2000/svg" xmlns:xlink="http://www.w3.org/1999/xlink" width="32" height="32" viewBox="0 0 32 32">

	<path d="M31.451 26.613c-1.945-4.479-6.455-7.080-9.728-8.192 2.005-1.639 3.189-4.729 3.189-8.777 0-5.38-4.497-6.803-6.876-6.803-0.383 0-0.823 0.043-1.287 0.127-1.277-1.148-2.967-1.635-4.311-1.635-2.485 0-6.183 1.629-6.183 6.116 0 3.571 1.043 6.305 2.812 7.777-2.784 0.728-6.576 2.525-8.519 6.999l-0.549 1.265 1.284 0.507c0.115 0.045 1.693 0.651 4.083 1.185-0.273 0.464-0.531 0.932-0.748 1.431l-0.551 1.265 1.284 0.507c0.237 0.092 5.868 2.281 12.683 2.281s12.445-2.189 12.683-2.281l1.283-0.507-0.549-1.265zM22.245 9.645c0 4.575-1.613 7.416-4.209 7.416s-4.209-2.841-4.209-7.416c0-3.893 3.513-4.128 4.203-4.136 0.703 0.008 4.216 0.243 4.216 4.136zM12.439 4c0.135 0 0.668 0.023 1.277 0.22-1.427 1.027-2.556 2.728-2.556 5.425 0 1.465 0.159 2.803 0.451 3.995-1.963-0.625-2.688-3.487-2.688-6.191 0-3.241 2.936-3.443 3.516-3.449zM12.439 17.395c0.016 0 0.387 0.008 0.968 0.083 0.581 0.717 1.265 1.272 2.036 1.652-2.099 0.42-5.088 1.423-7.512 3.82-1.747-0.281-3.243-0.659-4.247-0.96 2.863-4.507 8.499-4.593 8.755-4.595zM18.035 28c-4.368 0-8.756-1-10.761-1.619 0.316-0.916 1.315-2.127 1.661-2.543 3.724-3.607 9.045-3.683 9.096-3.683 0.011 0 0.972 0.015 2.34 0.288 2.376 0.6 6.067 2.793 7.965 5.935-2.004 0.619-5.927 1.621-10.301 1.621z"></path>
</svg>
