<?xml version="1.0" encoding="utf-8"?>
<!DOCTYPE svg PUBLIC "-//W3C//DTD SVG 1.1//EN" "http://www.w3.org/Graphics/SVG/1.1/DTD/svg11.dtd">
<svg version="1.1" xmlns="http://www.w3.org/2000/svg" xmlns:xlink="http://www.w3.org/1999/xlink" width="32" height="32" viewBox="0 0 32 32">

	<path d="M20 19.151c0 0-8.243 0-11.333 7.213 0 0 5.161 2.060 11.333 2.060s11.333-2.060 11.333-2.060c-3.091-7.213-11.333-7.213-11.333-7.213zM20 18.123c3.091 0 5.151-3.091 5.151-8.244s-5.151-5.152-5.151-5.152-5.151 0-5.151 5.152 2.060 8.244 5.151 8.244zM10 14.607c1.016 0 1.888-0.421 2.58-1.18-0.256-1.036-0.397-2.22-0.397-3.548 0-1.98 0.761-3.195 1.699-3.944-1.021-2.353-3.881-2.359-3.881-2.359s-4.243 0-4.243 4.243c0 4.243 1.697 6.788 4.243 6.788zM14 17.932l-0.144-1.677c-2.077-0.795-3.856-0.8-3.856-0.8s-6.788 0-9.333 5.94c0 0 3.281 1.308 7.527 1.627 3.697-3.871 5.807-5.089 5.807-5.089z"></path>
</svg>
