<?xml version="1.0" encoding="utf-8"?>
<!DOCTYPE svg PUBLIC "-//W3C//DTD SVG 1.1//EN" "http://www.w3.org/Graphics/SVG/1.1/DTD/svg11.dtd">
<svg version="1.1" xmlns="http://www.w3.org/2000/svg" xmlns:xlink="http://www.w3.org/1999/xlink" width="32" height="32" viewBox="0 0 32 32">

	<path d="M14.667 10.667h-9.333v10.667h9.333v-10.667zM13.333 19.335c0-1.104-1.492-1.999-3.333-1.999s-3.333 0.895-3.333 1.999v-7.335h6.667v7.335zM8 15.336c0 1.105 0.895 2 2 2s2-0.895 2-2c0-1.105-0.895-2-2-2s-2 0.895-2 2zM29.239 5.333h-26.667c-1.473 0-2.572 1.076-2.572 2.547v16c0 1.475 1.099 2.787 2.572 2.787h26.667c1.472 0 2.761-1.312 2.761-2.787v-16c0-1.471-1.289-2.547-2.761-2.547zM29.333 24h-26.667v-16h26.667v16zM17.333 10.667h9.333v2.667h-9.333zM17.333 14.667h9.333v1.333h-9.333zM17.333 17.333h9.333v1.333h-9.333zM17.333 20h4v1.333h-4zM22.664 20h1.336v1.336h-1.336z"></path>
</svg>
