<?xml version="1.0" encoding="utf-8"?>
<!DOCTYPE svg PUBLIC "-//W3C//DTD SVG 1.1//EN" "http://www.w3.org/Graphics/SVG/1.1/DTD/svg11.dtd">
<svg version="1.1" xmlns="http://www.w3.org/2000/svg" xmlns:xlink="http://www.w3.org/1999/xlink" width="32" height="32" viewBox="0 0 32 32">

	<path d="M15.691 1.333l-5.333 6.667h-5.333c-2.207 0-3.691 2.128-3.691 4.333v7.667c0 2.205 1.484 4 3.691 4h5.333l5.333 6.667c1.333 0 2.976 0 2.976 0v-29.333c-1.333 0-1.643 0-2.976 0zM9.333 21.333h-4.309c-0.737 0-1.024-0.599-1.024-1.333v-7.667c0-0.735 0.287-1.667 1.024-1.667h4.309v10.667zM16 26.667l-5.333-5.333v-10.667l5.333-5.333v21.333zM22.667 14.667h8v2.667h-8z"></path>
</svg>
