<?xml version="1.0" encoding="utf-8"?>
<!DOCTYPE svg PUBLIC "-//W3C//DTD SVG 1.1//EN" "http://www.w3.org/Graphics/SVG/1.1/DTD/svg11.dtd">
<svg version="1.1" xmlns="http://www.w3.org/2000/svg" xmlns:xlink="http://www.w3.org/1999/xlink" width="32" height="32" viewBox="0 0 32 32">

	<path d="M9.312 17.224l1.888 1.888c1.229-1.229 2.927-1.992 4.8-1.992s3.571 0.763 4.8 1.992l1.888-1.888c-1.712-1.712-4.076-2.771-6.688-2.771s-4.976 1.059-6.688 2.771zM16 8.369c-4.292 0-8.177 1.74-10.989 4.552l1.891 1.891c2.331-2.332 5.549-3.776 9.099-3.776s6.768 1.444 9.099 3.776l1.891-1.891c-2.812-2.812-6.697-4.552-10.989-4.552zM16 20c-1.104 0-2 0.896-2 2s0.896 2 2 2 2-0.896 2-2-0.896-2-2-2z"></path>
</svg>
