<?xml version="1.0" encoding="utf-8"?>
<!DOCTYPE svg PUBLIC "-//W3C//DTD SVG 1.1//EN" "http://www.w3.org/Graphics/SVG/1.1/DTD/svg11.dtd">
<svg version="1.1" xmlns="http://www.w3.org/2000/svg" xmlns:xlink="http://www.w3.org/1999/xlink" width="32" height="32" viewBox="0 0 32 32">

	<path d="M0 1.333v29.333h32v-29.333h-32zM29.333 28h-26.667v-17.333h26.667v17.333zM29.333 9.333h-26.667v-5.333h26.667v5.333zM14.667 5.333h-2.667v2.667h2.667v-2.667zM10.667 5.333h-2.667v2.667h2.667v-2.667zM6.667 5.333h-2.667v2.667h2.667v-2.667zM12.033 23.852l3.3-3.3 3.3 3.3 1.885-1.885-3.3-3.3 3.3-3.3-1.885-1.885-3.3 3.3-3.3-3.3-1.885 1.885 3.3 3.3-3.3 3.3 1.885 1.885z"></path>
</svg>
