<?xml version="1.0" encoding="utf-8"?>
<!DOCTYPE svg PUBLIC "-//W3C//DTD SVG 1.1//EN" "http://www.w3.org/Graphics/SVG/1.1/DTD/svg11.dtd">
<svg version="1.1" xmlns="http://www.w3.org/2000/svg" xmlns:xlink="http://www.w3.org/1999/xlink" width="32" height="32" viewBox="0 0 32 32">

	<path d="M1.057 28.224l1.885 1.885 5.847-5.847-1.836-1.935-5.896 5.896zM18.833 1.333c-6.535 0-11.833 5.299-11.833 11.833 0 2.559 0.823 4.92 2.203 6.857l2.227 2.347c2.028 1.636 4.595 2.631 7.404 2.631 6.535 0 11.833-5.299 11.833-11.833s-5.299-11.835-11.833-11.835zM18.833 22.333c-5.055 0-9.167-4.112-9.167-9.167s4.112-9.167 9.167-9.167 9.167 4.112 9.167 9.167-4.112 9.167-9.167 9.167zM14.664 12.003h8v2.667h-8z"></path>
</svg>
