<svg id="svg-source" height="0" version="1.1" 
  xmlns="http://www.w3.org/2000/svg" style="position:absolute; margin-left: -100%" 
  xmlns:xlink="http://www.w3.org/1999/xlink"><g xmlns="http://www.w3.org/2000/svg" id="armchair-chair">
    <g id="Expanded">
      <g>
        <g>
          <path d="M25.334,18.667c-0.034,0-0.068-0.003-0.103-0.008c-0.363-0.057-0.613-0.397-0.557-0.761l1.248-8.118
				c0.326-2.117-0.287-4.264-1.682-5.89c-1.395-1.626-3.424-2.558-5.565-2.558h-5.351c-2.142,0-4.17,0.932-5.566,2.559
				C6.365,5.517,5.751,7.664,6.078,9.781l1.249,8.117c0.056,0.364-0.194,0.704-0.558,0.761c-0.363,0.052-0.705-0.193-0.76-0.558
				l-1.25-8.117c-0.385-2.503,0.34-5.04,1.988-6.961C8.395,1.102,10.792,0,13.325,0h5.35c2.532,0,4.93,1.102,6.577,3.023
				c1.649,1.921,2.373,4.458,1.987,6.96l-1.248,8.118C25.941,18.431,25.657,18.667,25.334,18.667z"/>
        </g>
        <g>
          <path d="M8,32c-0.368,0-0.667-0.298-0.667-0.667V30c0-0.368,0.299-0.667,0.667-0.667S8.667,29.632,8.667,30v1.333
				C8.667,31.702,8.368,32,8,32z"/>
        </g>
        <g>
          <path d="M24,32c-0.368,0-0.667-0.298-0.667-0.667V30c0-0.368,0.299-0.667,0.667-0.667s0.667,0.299,0.667,0.667
				v1.333C24.667,31.702,24.368,32,24,32z"/>
        </g>
        <g>
          <path d="M24.667,30.667H7.333c-2.573,0-4.667-2.094-4.667-4.667v-2.667c0-0.403-0.241-0.766-0.614-0.922
				C0.805,21.892,0,20.684,0,19.333C0,17.495,1.496,16,3.333,16c2.94,0,5.333,2.393,5.333,5.333v0.975
				c1.181-0.422,3.465-0.975,7.333-0.975c3.868,0,6.152,0.553,7.333,0.975v-0.975c0-2.94,2.393-5.333,5.334-5.333
				C30.505,16,32,17.495,32,19.333c0,1.351-0.806,2.56-2.053,3.078c-0.373,0.156-0.614,0.519-0.614,0.922V26
				C29.333,28.573,27.239,30.667,24.667,30.667z M3.333,17.333c-1.103,0-2,0.897-2,2c0,0.811,0.483,1.537,1.232,1.848
				C3.437,21.543,4,22.389,4,23.333V26c0,1.838,1.496,3.333,3.333,3.333h17.333C26.505,29.333,28,27.838,28,26v-2.667
				c0-0.943,0.563-1.789,1.435-2.152c0.749-0.311,1.232-1.037,1.232-1.848c0-1.103-0.897-2-2-2c-2.206,0-4,1.795-4,4v3.246
				l-1.037-0.691c-0.013-0.009-1.988-1.221-7.63-1.221c-5.642,0-7.617,1.212-7.637,1.225l-1.024,0.651l-0.006-3.21
				C7.333,19.128,5.54,17.333,3.333,17.333z"/>
        </g>
        <g>
          <path d="M19.333,14c-0.17,0-0.341-0.065-0.471-0.195l-1.334-1.333c-0.26-0.261-0.26-0.682,0-0.942l1.334-1.333
				c0.26-0.261,0.682-0.261,0.942,0s0.261,0.682,0,0.943L18.942,12l0.862,0.862c0.261,0.261,0.261,0.682,0,0.943
				C19.675,13.935,19.504,14,19.333,14z"/>
        </g>
        <g>
          <path d="M12.667,14c-0.17,0-0.341-0.065-0.471-0.195c-0.261-0.261-0.261-0.682,0-0.943L13.057,12l-0.862-0.862
				c-0.261-0.261-0.261-0.682,0-0.943s0.682-0.261,0.943,0l1.333,1.333c0.261,0.261,0.261,0.682,0,0.942l-1.333,1.333
				C13.008,13.935,12.837,14,12.667,14z"/>
        </g>
        <g>
          <path d="M16,14.667c-1.471,0-2.667-1.196-2.667-2.667S14.529,9.333,16,9.333s2.667,1.196,2.667,2.667
				S17.471,14.667,16,14.667z M16,10.667c-0.735,0-1.333,0.598-1.333,1.333s0.598,1.333,1.333,1.333s1.333-0.598,1.333-1.333
				S16.735,10.667,16,10.667z"/>
        </g>
      </g>
    </g>
  </g></svg>