<svg id="svg-source" height="0" version="1.1" 
  xmlns="http://www.w3.org/2000/svg" style="position:absolute; margin-left: -100%" 
  xmlns:xlink="http://www.w3.org/1999/xlink"><g xmlns="http://www.w3.org/2000/svg" id="arrow-target">
    <g id="Expanded">
      <g>
        <g>
          <path d="M12.521,18.087c-0.768,0-1.391,0.624-1.391,1.392s0.624,1.391,1.391,1.391
				c0.768,0,1.392-0.623,1.392-1.391S13.29,18.087,12.521,18.087L12.521,18.087z"/>
        </g>
        <g>
          <g>
            <path d="M12.521,16.695c1.535,0,2.783,1.248,2.783,2.783c0,1.534-1.248,2.782-2.783,2.782
					c-1.534,0-2.782-1.248-2.782-2.782C9.739,17.943,10.987,16.695,12.521,16.695 M12.521,15.304c-2.305,0-4.174,1.87-4.174,4.174
					c0,2.306,1.869,4.174,4.174,4.174c2.305,0,4.174-1.868,4.174-4.174S14.826,15.304,12.521,15.304L12.521,15.304z"/>
          </g>
        </g>
        <g>
          <g>
            <path d="M12.521,12.522c3.836,0,6.957,3.121,6.957,6.957c0,3.835-3.121,6.956-6.957,6.956
					c-3.835,0-6.956-3.121-6.956-6.956C5.565,15.643,8.686,12.522,12.521,12.522 M12.521,11.13c-4.61,0-8.348,3.738-8.348,8.348
					c0,4.609,3.738,8.348,8.348,8.348c4.61,0,8.348-3.738,8.348-8.348C20.869,14.868,17.132,11.13,12.521,11.13L12.521,11.13z"/>
          </g>
        </g>
        <g>
          <g>
            <path d="M12.521,8.348c6.138,0,11.131,4.993,11.131,11.13c0,6.137-4.993,11.13-11.131,11.13
					c-6.137,0-11.13-4.993-11.13-11.13C1.392,13.341,6.385,8.348,12.521,8.348 M12.521,6.957C5.607,6.957,0,12.563,0,19.479
					C0,26.393,5.607,32,12.521,32c6.914,0,12.521-5.607,12.521-12.521C25.043,12.563,19.436,6.957,12.521,6.957L12.521,6.957z"/>
          </g>
        </g>
        <g>
          <rect x="19.478" y="1.004" transform="matrix(-0.7069 -0.7073 0.7073 -0.7069 26.0707 34.4545)" width="1.391" height="21.643"/>
        </g>
        <g>
          <g>
            <path d="M27.13,2.025v1.453V4.87h1.392h1.45C29.06,6.881,27.573,9.21,26.034,9.21
					c-0.625,0-1.33-0.387-2.094-1.15c-1.374-1.374-1.172-2.202-1.104-2.474C23.174,4.207,25.229,2.884,27.13,2.025 M28.521,0
					c0,0-11.13,3.479-5.565,9.043c1.113,1.113,2.143,1.559,3.078,1.559c3.739,0,5.966-7.124,5.966-7.124h-3.479V0L28.521,0z"/>
          </g>
        </g>
        <g>
          <rect x="24.348" y="2.087" width="1.392" height="4.87"/>
        </g>
        <g>
          <path d="M0.696,32c-0.178,0-0.356-0.068-0.492-0.204c-0.272-0.271-0.272-0.712,0-0.983l2.972-2.972
				c0.272-0.272,0.711-0.272,0.983,0c0.272,0.271,0.272,0.711,0,0.983l-2.972,2.972C1.052,31.932,0.874,32,0.696,32z"/>
        </g>
        <g>
          <path d="M24.348,32c-0.178,0-0.356-0.068-0.492-0.204l-2.973-2.973c-0.271-0.271-0.271-0.711,0-0.983
				c0.272-0.272,0.712-0.272,0.984,0l2.973,2.973c0.271,0.271,0.271,0.712,0,0.983C24.704,31.932,24.525,32,24.348,32z"/>
        </g>
      </g>
    </g>
  </g></svg>