<svg id="svg-source" height="0" version="1.1" 
  xmlns="http://www.w3.org/2000/svg" style="position:absolute; margin-left: -100%" 
  xmlns:xlink="http://www.w3.org/1999/xlink"><g xmlns="http://www.w3.org/2000/svg" id="backpack-trekking">
    <g id="Expanded">
      <g>
        <g>
          <path d="M24.667,16H22v-1.333h2.667c0.367,0,0.666-0.299,0.666-0.667V6c0-1.103-0.896-2-2-2H8.667
				c-1.103,0-2,0.897-2,2v8c0,0.368,0.299,0.667,0.667,0.667H10V16H7.334c-1.103,0-2-0.897-2-2V6c0-1.838,1.495-3.333,3.333-3.333
				h14.666c1.838,0,3.334,1.496,3.334,3.333v8C26.667,15.103,25.77,16,24.667,16z"/>
        </g>
        <g>
          <path d="M22.667,4h-4C18.298,4,18,3.702,18,3.333V0.667C18,0.298,18.298,0,18.667,0h4
				c0.368,0,0.666,0.298,0.666,0.667v2.667C23.333,3.702,23.035,4,22.667,4z M19.333,2.667H22V1.333h-2.667V2.667z"/>
        </g>
        <g>
          <path d="M13.334,4h-4C8.965,4,8.667,3.702,8.667,3.333V0.667C8.667,0.298,8.965,0,9.334,0h4
				C13.702,0,14,0.298,14,0.667v2.667C14,3.702,13.702,4,13.334,4z M10,2.667h2.667V1.333H10V2.667z"/>
        </g>
        <g>
          <path d="M7.334,26.667h-4c-0.369,0-0.667-0.299-0.667-0.667v-2c0-1.471,1.196-2.667,2.667-2.667h2
				C7.702,21.333,8,21.632,8,22v4C8,26.368,7.702,26.667,7.334,26.667z M4,25.333h2.667v-2.666H5.334C4.599,22.667,4,23.265,4,24
				V25.333z"/>
        </g>
        <g>
          <path d="M7.334,32H4.667c-1.103,0-2-0.897-2-2v-4c0-0.368,0.298-0.667,0.667-0.667h4C7.702,25.333,8,25.632,8,26
				v5.333C8,31.702,7.702,32,7.334,32z M4,26.667V30c0,0.368,0.299,0.667,0.667,0.667h2v-4H4z"/>
        </g>
        <g>
          <path d="M28.667,26.667h-4C24.298,26.667,24,26.368,24,26v-4c0-0.368,0.298-0.667,0.667-0.667h2
				c1.471,0,2.666,1.196,2.666,2.667v2C29.333,26.368,29.035,26.667,28.667,26.667z M25.333,25.333H28V24
				c0-0.735-0.598-1.333-1.333-1.333h-1.334V25.333z"/>
        </g>
        <g>
          <path d="M27.333,32h-2.666C24.298,32,24,31.702,24,31.333V26c0-0.368,0.298-0.667,0.667-0.667h4
				c0.368,0,0.666,0.299,0.666,0.667v4C29.333,31.103,28.437,32,27.333,32z M25.333,30.667h2C27.701,30.667,28,30.368,28,30v-3.333
				h-2.667V30.667z"/>
        </g>
        <g>
          <path d="M22,26.667H10c-0.368,0-0.666-0.299-0.666-0.667v-2c0-1.471,1.195-2.667,2.666-2.667h8
				c1.471,0,2.667,1.196,2.667,2.667v2C22.667,26.368,22.368,26.667,22,26.667z M10.667,25.333h10.666V24
				c0-0.735-0.598-1.333-1.333-1.333h-8c-0.735,0-1.333,0.598-1.333,1.333V25.333z"/>
        </g>
        <g>
          <path d="M11.334,19.333c-1.103,0-2-0.896-2-2V14c0-1.103,0.897-2,2-2s2,0.897,2,2v3.333
				C13.334,18.437,12.437,19.333,11.334,19.333z M11.334,13.333c-0.368,0-0.667,0.299-0.667,0.667v3.333
				c0,0.368,0.299,0.667,0.667,0.667C11.701,18,12,17.701,12,17.333V14C12,13.632,11.701,13.333,11.334,13.333z"/>
        </g>
        <g>
          <path d="M20.667,19.333c-1.104,0-2-0.896-2-2V14c0-1.103,0.896-2,2-2c1.103,0,2,0.897,2,2v3.333
				C22.667,18.437,21.77,19.333,20.667,19.333z M20.667,13.333C20.299,13.333,20,13.632,20,14v3.333C20,17.701,20.299,18,20.667,18
				c0.367,0,0.666-0.299,0.666-0.667V14C21.333,13.632,21.034,13.333,20.667,13.333z"/>
        </g>
        <g>
          <path d="M23.333,6.667H8.667C8.298,6.667,8,6.369,8,6s0.298-0.667,0.667-0.667h14.666C23.702,5.333,24,5.631,24,6
				S23.702,6.667,23.333,6.667z"/>
        </g>
        <g>
          <path d="M10,8C9.632,8,9.334,7.702,9.334,7.333V6c0-0.369,0.298-0.667,0.666-0.667
				c0.369,0,0.667,0.298,0.667,0.667v1.333C10.667,7.702,10.369,8,10,8z"/>
        </g>
        <g>
          <path d="M12.667,28C12.298,28,12,27.702,12,27.333v-2.666C12,24.298,12.298,24,12.667,24s0.667,0.298,0.667,0.667
				v2.666C13.334,27.702,13.036,28,12.667,28z"/>
        </g>
        <g>
          <path d="M19.333,28c-0.368,0-0.666-0.298-0.666-0.667v-2.666c0-0.369,0.298-0.667,0.666-0.667
				C19.702,24,20,24.298,20,24.667v2.666C20,27.702,19.702,28,19.333,28z"/>
        </g>
        <g>
          <rect x="12.667" y="14.667" width="6.666" height="1.333"/>
        </g>
        <g>
          <path d="M7.334,22.667c-0.369,0-0.667-0.299-0.667-0.667v-6.667c0-0.369,0.298-0.667,0.667-0.667
				C7.702,14.667,8,14.964,8,15.333V22C8,22.368,7.702,22.667,7.334,22.667z"/>
        </g>
        <g>
          <path d="M24.667,22.667C24.298,22.667,24,22.368,24,22v-6.667c0-0.369,0.298-0.667,0.667-0.667
				c0.368,0,0.666,0.298,0.666,0.667V22C25.333,22.368,25.035,22.667,24.667,22.667z"/>
        </g>
        <g>
          <path d="M24.667,32H7.334c-0.369,0-0.667-0.298-0.667-0.667c0-0.368,0.298-0.666,0.667-0.666h17.333
				c0.368,0,0.666,0.298,0.666,0.666C25.333,31.702,25.035,32,24.667,32z"/>
        </g>
        <g>
          <path d="M22,32c-0.368,0-0.667-0.298-0.667-0.667v-4.666H10.667v4.666C10.667,31.702,10.369,32,10,32
				c-0.368,0-0.666-0.298-0.666-0.667V26c0-0.368,0.298-0.667,0.666-0.667h12c0.368,0,0.667,0.299,0.667,0.667v5.333
				C22.667,31.702,22.368,32,22,32z"/>
        </g>
      </g>
    </g>
  </g></svg>