<svg id="svg-source" height="0" version="1.1" 
  xmlns="http://www.w3.org/2000/svg" style="position:absolute; margin-left: -100%" 
  xmlns:xlink="http://www.w3.org/1999/xlink"><g xmlns="http://www.w3.org/2000/svg" id="bag-shopping">
    <g id="Expanded">
      <g>
        <g>
          <path d="M22.667,16C22.299,16,22,15.702,22,15.333v-8c0-3.309-2.692-6-6-6c-3.308,0-6,2.691-6,6v8
				C10,15.702,9.701,16,9.333,16c-0.368,0-0.667-0.298-0.667-0.667v-8C8.667,3.29,11.957,0,16,0c4.043,0,7.333,3.29,7.333,7.333v8
				C23.333,15.702,23.034,16,22.667,16z"/>
        </g>
        <g>
          <path d="M27.333,32H4.667C2.093,32,0,29.906,0,27.333v-8.666C0,14.991,2.991,12,6.667,12h18.667
				C29.009,12,32,14.991,32,18.667v8.666C32,29.906,29.906,32,27.333,32z M6.667,13.333c-2.94,0-5.333,2.393-5.333,5.333v8.666
				c0,1.838,1.495,3.334,3.333,3.334h22.667c1.838,0,3.334-1.496,3.334-3.334v-8.666c0-2.941-2.393-5.333-5.334-5.333H6.667z"/>
        </g>
        <g>
          <path d="M7.333,32c-0.368,0-0.667-0.298-0.667-0.667c0-3.309-2.692-6-6-6C0.299,25.333,0,25.035,0,24.667
				C0,24.298,0.299,24,0.667,24C4.71,24,8,27.29,8,31.333C8,31.702,7.701,32,7.333,32z"/>
        </g>
        <g>
          <path d="M24.667,32C24.299,32,24,31.702,24,31.333C24,27.29,27.29,24,31.333,24C31.701,24,32,24.298,32,24.667
				c0,0.368-0.299,0.666-0.667,0.666c-3.308,0-6,2.691-6,6C25.333,31.702,25.034,32,24.667,32z"/>
        </g>
        <g>
          <path d="M28.667,20H3.333c-0.368,0-0.667-0.298-0.667-0.667c0-0.368,0.299-0.666,0.667-0.666h25.333
				c0.367,0,0.666,0.298,0.666,0.666C29.333,19.702,29.034,20,28.667,20z"/>
        </g>
        <g>
          <path d="M6,22.667c-0.368,0-0.667-0.299-0.667-0.667v-2.667c0-0.368,0.299-0.666,0.667-0.666
				s0.667,0.298,0.667,0.666V22C6.667,22.368,6.368,22.667,6,22.667z"/>
        </g>
      </g>
    </g>
  </g></svg>