<svg id="svg-source" height="0" version="1.1" 
  xmlns="http://www.w3.org/2000/svg" style="position:absolute; margin-left: -100%" 
  xmlns:xlink="http://www.w3.org/1999/xlink"><g xmlns="http://www.w3.org/2000/svg" id="barbeque-eat-food">
    <g id="Expanded">
      <g>
        <g>
          <path d="M20.667,16C20.299,16,20,15.702,20,15.333V2c0-0.369,0.299-0.667,0.667-0.667
				C24.71,1.333,28,4.624,28,8.667C28,12.71,24.71,16,20.667,16z M21.333,2.704V14.63c2.996-0.333,5.334-2.879,5.334-5.962
				C26.667,5.584,24.329,3.037,21.333,2.704z"/>
        </g>
        <g>
          <path d="M20.667,2.667C20.299,2.667,20,2.369,20,2V0.667C20,0.298,20.299,0,20.667,0
				c0.367,0,0.666,0.298,0.666,0.667V2C21.333,2.369,21.034,2.667,20.667,2.667z"/>
        </g>
        <g>
          <path d="M14,18.667h-2.667c-0.368,0-0.667-0.299-0.667-0.667s0.299-0.667,0.667-0.667H14
				c0.368,0,0.667,0.299,0.667,0.667S14.368,18.667,14,18.667z"/>
        </g>
        <g>
          <path d="M18,13.333H6c-0.368,0-0.667-0.298-0.667-0.667C5.333,12.298,5.632,12,6,12h12
				c0.368,0,0.667,0.298,0.667,0.667C18.667,13.036,18.368,13.333,18,13.333z"/>
        </g>
        <g>
          <path d="M8,32c-0.033,0-0.067-0.003-0.101-0.008c-0.364-0.056-0.614-0.396-0.559-0.761l1.333-8.726
				c0.056-0.363,0.397-0.61,0.76-0.558c0.364,0.055,0.614,0.396,0.559,0.76L8.66,31.434C8.609,31.765,8.325,32,8,32z"/>
        </g>
        <g>
          <path d="M16.667,32C15.196,32,14,30.804,14,29.333s1.196-2.666,2.667-2.666c1.471,0,2.666,1.195,2.666,2.666
				S18.138,32,16.667,32z M16.667,28c-0.736,0-1.333,0.598-1.333,1.333c0,0.736,0.598,1.334,1.333,1.334
				c0.735,0,1.333-0.598,1.333-1.334C18,28.598,17.402,28,16.667,28z"/>
        </g>
        <g>
          <path d="M16.199,28.056c-0.355,0-0.651-0.281-0.666-0.639l-0.199-4.781c-0.016-0.369,0.271-0.68,0.639-0.694
				c0.374-0.024,0.677,0.271,0.694,0.638l0.199,4.781c0.015,0.368-0.271,0.68-0.639,0.694
				C16.217,28.056,16.208,28.056,16.199,28.056z"/>
        </g>
        <g>
          <rect x="8.821" y="25.333" width="7.325" height="1.334"/>
        </g>
        <g>
          <path d="M12.667,24C7.888,24,4,20.112,4,15.333c0-0.369,0.299-0.667,0.667-0.667h16
				c0.367,0,0.666,0.298,0.666,0.667C21.333,20.112,17.445,24,12.667,24z M5.363,16c0.338,3.733,3.484,6.667,7.303,6.667
				S19.632,19.733,19.97,16H5.363z"/>
        </g>
      </g>
    </g>
  </g></svg>