<svg id="svg-source" height="0" version="1.1" 
  xmlns="http://www.w3.org/2000/svg" style="position:absolute; margin-left: -100%" 
  xmlns:xlink="http://www.w3.org/1999/xlink"><g xmlns="http://www.w3.org/2000/svg" id="barista-coffee-espresso">
    <g id="Expanded">
      <g>
        <g>
          <path d="M30,32H0.667C0.299,32,0,31.702,0,31.333v-4c0-0.368,0.299-0.666,0.667-0.666h12.667v-12H4.667
				C4.299,14.667,4,14.369,4,14V0.667C4,0.298,4.299,0,4.667,0h24.667C30.804,0,32,1.196,32,2.667v14.667l-1.336,14.064
				C30.632,31.738,30.344,32,30,32z M1.333,30.667h28.06L30.67,17.27L30.667,2.667c0-0.735-0.598-1.333-1.334-1.333h-24v12H14
				c0.368,0,0.667,0.298,0.667,0.667v13.333C14.667,27.702,14.368,28,14,28H1.333V30.667z"/>
        </g>
        <g>
          <path d="M25.333,31.333H24V16.667C24,16.298,24.299,16,24.667,16h6.666v1.333h-6V31.333z"/>
        </g>
        <g>
          <path d="M31.333,8h-8c-0.367,0-0.666-0.298-0.666-0.667c0-0.369,0.299-0.667,0.666-0.667h8
				C31.701,6.667,32,6.964,32,7.333C32,7.702,31.701,8,31.333,8z"/>
        </g>
        <g>
          <path d="M31.333,10.667h-8c-0.367,0-0.666-0.298-0.666-0.667s0.299-0.667,0.666-0.667h8
				C31.701,9.333,32,9.631,32,10S31.701,10.667,31.333,10.667z"/>
        </g>
        <g>
          <path d="M31.333,13.333h-8c-0.367,0-0.666-0.298-0.666-0.667c0-0.369,0.299-0.667,0.666-0.667h8
				C31.701,12,32,12.298,32,12.667C32,13.036,31.701,13.333,31.333,13.333z"/>
        </g>
        <g>
          <path d="M11.333,22H6c-0.368,0-0.667-0.298-0.667-0.667v-2.666C5.333,18.298,5.632,18,6,18h5.333
				C11.701,18,12,18.298,12,18.667v2.666C12,21.702,11.701,22,11.333,22z M6.667,20.667h4v-1.334h-4V20.667z"/>
        </g>
        <g>
          <path d="M6,20.667H0.667C0.299,20.667,0,20.368,0,20s0.299-0.667,0.667-0.667H6c0.368,0,0.667,0.299,0.667,0.667
				S6.368,20.667,6,20.667z"/>
        </g>
        <g>
          <rect x="9.333" y="14" width="1.333" height="4.667"/>
        </g>
        <g>
          <rect x="6.667" y="14" width="1.333" height="4.667"/>
        </g>
        <g>
          <path d="M9.333,8C7.863,8,6.667,6.804,6.667,5.333s1.196-2.667,2.667-2.667S12,3.863,12,5.333S10.804,8,9.333,8z
				 M9.333,4C8.598,4,8,4.598,8,5.333s0.598,1.333,1.333,1.333s1.333-0.598,1.333-1.333S10.069,4,9.333,4z"/>
        </g>
        <g>
          <path d="M8.667,23.333C8.299,23.333,8,23.035,8,22.667v-1.334c0-0.368,0.299-0.666,0.667-0.666
				c0.368,0,0.667,0.298,0.667,0.666v1.334C9.333,23.035,9.035,23.333,8.667,23.333z"/>
        </g>
      </g>
    </g>
  </g></svg>