<svg id="svg-source" height="0" version="1.1" 
  xmlns="http://www.w3.org/2000/svg" style="position:absolute; margin-left: -100%" 
  xmlns:xlink="http://www.w3.org/1999/xlink"><g xmlns="http://www.w3.org/2000/svg" id="bomb-bug">
    <g id="Expanded">
      <g>
        <g>
          <path d="M11.667,32C5.786,32,1,27.215,1,21.333c0-4.604,2.991-8.695,7.333-10.124V9.333
				c0-0.368,0.299-0.667,0.667-0.667h5.333C14.701,8.667,15,8.965,15,9.333v1.876c4.343,1.429,7.333,5.52,7.333,10.124
				C22.333,27.215,17.549,32,11.667,32z M9.667,10v1.704c0,0.3-0.2,0.562-0.488,0.643c-4.03,1.114-6.845,4.81-6.845,8.986
				c0,5.147,4.187,9.334,9.333,9.334c5.147,0,9.333-4.187,9.333-9.334c0-4.177-2.815-7.873-6.845-8.986
				c-0.288-0.081-0.489-0.343-0.489-0.643V10H9.667z"/>
        </g>
        <g>
          <path d="M21,10.667c-1.838,0-3.333-1.495-3.333-3.333c0-1.471-1.196-2.667-2.667-2.667s-2.667,1.196-2.667,2.667
				v2c0,0.368-0.299,0.667-0.667,0.667C11.299,10,11,9.701,11,9.333v-2c0-2.206,1.794-4,4-4s4,1.794,4,4c0,1.103,0.897,2,2,2
				s2-0.897,2-2s0.897-2,2-2c0.368,0,0.667,0.299,0.667,0.667S25.368,6.667,25,6.667c-0.367,0-0.667,0.3-0.667,0.667
				C24.333,9.171,22.838,10.667,21,10.667z"/>
        </g>
        <g>
          <path d="M25,4c-0.368,0-0.667-0.299-0.667-0.667V0.667C24.333,0.299,24.632,0,25,0s0.667,0.299,0.667,0.667v2.667
				C25.667,3.701,25.368,4,25,4z"/>
        </g>
        <g>
          <path d="M26.886,4.781c-0.17,0-0.342-0.065-0.471-0.195c-0.262-0.26-0.262-0.682,0-0.943L28.3,1.757
				c0.26-0.261,0.682-0.261,0.942,0c0.261,0.26,0.261,0.682,0,0.942l-1.885,1.886C27.228,4.716,27.056,4.781,26.886,4.781z"/>
        </g>
        <g>
          <path d="M23.114,4.781c-0.17,0-0.341-0.065-0.471-0.195L20.758,2.7c-0.261-0.26-0.261-0.683,0-0.942
				c0.261-0.261,0.683-0.261,0.942,0l1.886,1.886c0.261,0.261,0.261,0.683,0,0.943C23.456,4.716,23.285,4.781,23.114,4.781z"/>
        </g>
        <g>
          <path d="M30.333,6.667h-2.666C27.299,6.667,27,6.368,27,6s0.299-0.667,0.667-0.667h2.666
				C30.701,5.333,31,5.632,31,6S30.701,6.667,30.333,6.667z"/>
        </g>
        <g>
          <path d="M28.771,10.437c-0.171,0-0.342-0.065-0.472-0.195l-1.887-1.884c-0.261-0.261-0.261-0.682,0-0.943
				c0.262-0.261,0.684-0.26,0.943,0l1.887,1.885c0.261,0.26,0.261,0.682,0,0.943C29.112,10.372,28.942,10.437,28.771,10.437z"/>
        </g>
        <g>
          <path d="M5.652,26.193c-0.21,0-0.418-0.1-0.547-0.286c-1.222-1.752-1.688-3.877-1.312-5.98
				c0.375-2.104,1.548-3.935,3.302-5.156c0.303-0.21,0.717-0.136,0.928,0.166c0.211,0.302,0.137,0.718-0.166,0.928
				c-3.016,2.102-3.759,6.265-1.657,9.281c0.211,0.303,0.137,0.719-0.166,0.929C5.916,26.155,5.783,26.193,5.652,26.193z"/>
        </g>
      </g>
    </g>
  </g></svg>