<svg id="svg-source" height="0" version="1.1" 
  xmlns="http://www.w3.org/2000/svg" style="position:absolute; margin-left: -100%" 
  xmlns:xlink="http://www.w3.org/1999/xlink"><g xmlns="http://www.w3.org/2000/svg" id="book-read">
    <g id="Expanded">
      <g>
        <g>
          <path d="M16,32c-0.102,0-0.205-0.021-0.299-0.067L1.108,24.984c-0.242-0.116-0.396-0.359-0.396-0.628V2.813
				c0-0.238,0.122-0.46,0.324-0.588c0.201-0.127,0.455-0.142,0.67-0.04L16,8.993l14.294-6.807c0.216-0.102,0.468-0.087,0.67,0.04
				c0.202,0.128,0.324,0.35,0.324,0.588v21.543c0,0.269-0.155,0.512-0.396,0.628l-14.593,6.948C16.205,31.979,16.102,32,16,32z
				 M2.102,23.917L16,30.535l13.898-6.618V3.914l-13.6,6.477c-0.188,0.089-0.409,0.089-0.597,0l-13.6-6.477V23.917z"/>
        </g>
        <g>
          <path d="M16,7.091L3.885,1.322c-0.347-0.166-0.493-0.58-0.329-0.926c0.166-0.347,0.58-0.492,0.926-0.329L16,5.552
				l11.518-5.485c0.347-0.163,0.761-0.018,0.926,0.329c0.164,0.346,0.018,0.761-0.329,0.926L16,7.091z"/>
        </g>
        <g>
          <rect x="15.305" y="9.763" width="1.39" height="21.542"/>
        </g>
      </g>
    </g>
  </g></svg>