<svg id="svg-source" height="0" version="1.1" 
  xmlns="http://www.w3.org/2000/svg" style="position:absolute; margin-left: -100%" 
  xmlns:xlink="http://www.w3.org/1999/xlink"><g xmlns="http://www.w3.org/2000/svg" id="book-download">
    <g id="Expanded">
      <g>
        <g>
          <path d="M15.333,32H4.666c-1.838,0-3.333-1.495-3.333-3.333V3.333c0-0.369,0.299-0.667,0.667-0.667
				c0.367,0,0.666,0.298,0.666,0.667v25.333c0,1.103,0.897,2,2,2h10.667c0.368,0,0.667,0.298,0.667,0.666
				C16,31.702,15.701,32,15.333,32z"/>
        </g>
        <g>
          <path d="M27.333,15.333c-0.367,0-0.666-0.298-0.666-0.667v-8H4.666c-1.838,0-3.333-1.495-3.333-3.333
				S2.828,0,4.666,0h22.667C27.701,0,28,0.298,28,0.667c0,0.369-0.299,0.667-0.667,0.667H4.666c-1.103,0-2,0.897-2,2s0.897,2,2,2H28
				v9.333C28,15.035,27.701,15.333,27.333,15.333z"/>
        </g>
        <g>
          <path d="M22.667,32c-4.412,0-8.001-3.589-8.001-8s3.589-8,8.001-8c4.411,0,8,3.589,8,8S27.078,32,22.667,32z
				 M22.667,17.333C18.991,17.333,16,20.324,16,24s2.991,6.667,6.667,6.667s6.666-2.991,6.666-6.667S26.343,17.333,22.667,17.333z"/>
        </g>
        <g>
          <path d="M22.667,28C22.299,28,22,27.702,22,27.333v-6.666C22,20.298,22.299,20,22.667,20
				c0.367,0,0.666,0.298,0.666,0.667v6.666C23.333,27.702,23.034,28,22.667,28z"/>
        </g>
        <g>
          <path d="M22.667,28.276l-3.139-3.139c-0.26-0.26-0.26-0.682,0-0.942c0.261-0.261,0.683-0.261,0.943,0l2.195,2.195
				l2.195-2.195c0.26-0.261,0.682-0.261,0.942,0s0.261,0.683,0,0.942L22.667,28.276z"/>
        </g>
        <g>
          <rect x="4.666" y="2.667" width="22.001" height="1.333"/>
        </g>
      </g>
    </g>
  </g></svg>