<svg id="svg-source" height="0" version="1.1" 
  xmlns="http://www.w3.org/2000/svg" style="position:absolute; margin-left: -100%" 
  xmlns:xlink="http://www.w3.org/1999/xlink"><g xmlns="http://www.w3.org/2000/svg" id="browser-window">
    <g id="Expanded">
      <g>
        <g>
          <path d="M28.667,28.667H3.333C1.496,28.667,0,27.171,0,25.333V6.666c0-1.838,1.496-3.333,3.333-3.333h25.333
				C30.505,3.333,32,4.828,32,6.666v18.667C32,27.171,30.505,28.667,28.667,28.667z M3.333,4.666c-1.103,0-2,0.897-2,2v18.667
				c0,1.104,0.897,2,2,2h25.333c1.103,0,2-0.896,2-2V6.666c0-1.103-0.897-2-2-2H3.333z"/>
        </g>
        <g>
          <path d="M31.333,11.333H0.667C0.298,11.333,0,11.034,0,10.666C0,10.299,0.298,10,0.667,10h30.667
				C31.702,10,32,10.299,32,10.666C32,11.034,31.702,11.333,31.333,11.333z"/>
        </g>
        <g>
          <circle cx="5.333" cy="7.333" r="1.333"/>
        </g>
        <g>
          <circle cx="9.333" cy="7.333" r="1.333"/>
        </g>
        <g>
          <circle cx="13.333" cy="7.333" r="1.333"/>
        </g>
      </g>
    </g>
  </g></svg>