<svg id="svg-source" height="0" version="1.1" 
  xmlns="http://www.w3.org/2000/svg" style="position:absolute; margin-left: -100%" 
  xmlns:xlink="http://www.w3.org/1999/xlink"><g xmlns="http://www.w3.org/2000/svg" id="brush-paint">
    <g id="Expanded">
      <g>
        <g>
          <path d="M29.333,21.333H2.667V16c0-1.471,1.196-2.667,2.667-2.667h6.697c0.222,0,0.428-0.109,0.552-0.293
				c0.124-0.183,0.149-0.416,0.067-0.621C12.219,11.342,12,10.208,12,9.046V4c0-2.206,1.794-4,4-4s4,1.794,4,4v5.046
				c0,1.161-0.219,2.295-0.649,3.373c-0.082,0.206-0.058,0.438,0.066,0.622c0.125,0.183,0.331,0.293,0.553,0.293h6.697
				c1.471,0,2.666,1.196,2.666,2.667V21.333z M4,20h24v-4c0-0.735-0.598-1.333-1.333-1.333H19.97c-0.665,0-1.285-0.329-1.656-0.878
				c-0.372-0.55-0.447-1.248-0.201-1.864c0.368-0.919,0.555-1.887,0.555-2.878V4c0-1.471-1.196-2.667-2.667-2.667
				S13.334,2.529,13.334,4v5.046c0,0.99,0.187,1.958,0.554,2.877c0.247,0.617,0.172,1.314-0.201,1.864
				c-0.372,0.55-0.991,0.879-1.655,0.879H5.334C4.599,14.667,4,15.265,4,16V20z"/>
        </g>
        <g>
          <path d="M27.333,32H10.667c-0.177,0-0.347-0.07-0.472-0.195C10.071,31.68,10,31.511,10,31.333v-2.509
				l-1.403,2.808C8.483,31.857,8.252,32,8,32H4.667C4.299,32,4,31.701,4,31.333V20.667C4,20.299,4.299,20,4.667,20h22.666
				C27.701,20,28,20.299,28,20.667v10.666C28,31.701,27.701,32,27.333,32z M11.334,30.667h15.333v-9.334H5.334v9.334h2.254
				l2.482-4.965c0.139-0.276,0.449-0.421,0.75-0.351S11.334,25.69,11.334,26V30.667z"/>
        </g>
        <g>
          <path d="M24.667,32C24.299,32,24,31.701,24,31.333v-6.666C24,24.299,24.299,24,24.667,24
				c0.367,0,0.666,0.299,0.666,0.667v6.666C25.333,31.701,25.034,32,24.667,32z"/>
        </g>
        <g>
          <path d="M22,32c-0.368,0-0.667-0.299-0.667-0.667V26c0-0.368,0.299-0.667,0.667-0.667s0.667,0.299,0.667,0.667
				v5.333C22.667,31.701,22.368,32,22,32z"/>
        </g>
        <g>
          <path d="M19.333,32c-0.367,0-0.666-0.299-0.666-0.667V28c0-0.368,0.299-0.667,0.666-0.667
				C19.701,27.333,20,27.632,20,28v3.333C20,31.701,19.701,32,19.333,32z"/>
        </g>
        <g>
          <circle cx="16" cy="4" r="1.333"/>
        </g>
      </g>
    </g>
  </g></svg>