<svg id="svg-source" height="0" version="1.1" 
  xmlns="http://www.w3.org/2000/svg" style="position:absolute; margin-left: -100%" 
  xmlns:xlink="http://www.w3.org/1999/xlink"><g xmlns="http://www.w3.org/2000/svg" id="bubble-love-talk">
    <g id="Expanded">
      <g>
        <g>
          <path d="M16,23.166c-0.114,0-0.228-0.03-0.331-0.089c-0.341-0.193-8.336-4.829-8.336-10.602
				c0-3.291,2.36-5.013,4.692-5.013c1.477,0,3.071,0.703,3.975,2.232c0.92-1.557,2.557-2.274,4.073-2.274
				c2.282,0,4.594,1.602,4.594,4.665c0,5.358-7.957,10.741-8.296,10.967C16.259,23.128,16.129,23.166,16,23.166z M12.025,8.797
				c-1.618,0-3.359,1.152-3.359,3.68c0,4.368,5.794,8.28,7.308,9.228c1.498-1.076,7.359-5.545,7.359-9.619
				c0-2.289-1.689-3.331-3.26-3.331c-1.359,0-3.069,0.797-3.414,3.044c-0.051,0.325-0.331,0.565-0.659,0.565l0,0
				c-0.329,0-0.609-0.24-0.659-0.565C15,9.583,13.342,8.797,12.025,8.797z"/>
        </g>
        <g>
          <path d="M1.817,30.833c-0.177,0-0.35-0.07-0.479-0.202c-0.198-0.204-0.245-0.511-0.118-0.765l3.213-6.414
				C1.569,20.991,0,17.775,0,14.344C0,7.079,7.178,1.167,16,1.167c8.821,0,16,5.912,16,13.177c0,7.266-7.179,13.177-16,13.177
				c-1.827,0-3.615-0.251-5.319-0.745l-8.583,3.994C2.008,30.812,1.912,30.833,1.817,30.833z M16,2.5
				C7.913,2.5,1.333,7.813,1.333,14.344c0,3.181,1.544,6.168,4.35,8.413c0.246,0.197,0.32,0.539,0.18,0.819l-2.595,5.179
				l7.079-3.294c0.149-0.069,0.319-0.081,0.476-0.033c1.652,0.504,3.394,0.761,5.177,0.761c8.087,0,14.667-5.313,14.667-11.844
				S24.087,2.5,16,2.5z"/>
        </g>
      </g>
    </g>
  </g></svg>