<svg id="svg-source" height="0" version="1.1" 
  xmlns="http://www.w3.org/2000/svg" style="position:absolute; margin-left: -100%" 
  xmlns:xlink="http://www.w3.org/1999/xlink"><g xmlns="http://www.w3.org/2000/svg" id="caddle-shopping">
    <g id="Expanded">
      <g>
        <g>
          <path d="M6.667,32C5.196,32,4,30.804,4,29.333s1.196-2.666,2.667-2.666s2.667,1.195,2.667,2.666
				S8.137,32,6.667,32z M6.667,28c-0.735,0-1.333,0.598-1.333,1.333c0,0.736,0.598,1.334,1.333,1.334S8,30.069,8,29.333
				C8,28.598,7.402,28,6.667,28z"/>
        </g>
        <g>
          <path d="M21.333,32c-1.471,0-2.666-1.196-2.666-2.667s1.195-2.666,2.666-2.666S24,27.862,24,29.333
				S22.804,32,21.333,32z M21.333,28C20.598,28,20,28.598,20,29.333c0,0.736,0.598,1.334,1.333,1.334
				c0.736,0,1.334-0.598,1.334-1.334C22.667,28.598,22.069,28,21.333,28z"/>
        </g>
        <g>
          <path d="M14,10.667c-0.369,0-0.667-0.298-0.667-0.667V0.667C13.333,0.298,13.631,0,14,0s0.667,0.298,0.667,0.667
				V10C14.667,10.369,14.369,10.667,14,10.667z"/>
        </g>
        <g>
          <path d="M14,10.667c-0.17,0-0.341-0.065-0.471-0.195l-4-4c-0.261-0.261-0.261-0.682,0-0.942s0.682-0.261,0.942,0
				L14,9.057l3.528-3.528c0.261-0.261,0.683-0.261,0.943,0c0.26,0.261,0.26,0.682,0,0.942l-4,4
				C14.341,10.601,14.17,10.667,14,10.667z"/>
        </g>
        <g>
          <path d="M21.333,28H6.667C6.298,28,6,27.702,6,27.333c0-0.368,0.298-0.666,0.667-0.666h14.139l5.211-22.153
				C26.089,4.212,26.357,4,26.667,4h4.666C31.702,4,32,4.298,32,4.667c0,0.369-0.298,0.667-0.667,0.667h-4.139l-5.211,22.152
				C21.911,27.788,21.643,28,21.333,28z"/>
        </g>
        <g>
          <path d="M22,25.333H4.667c-0.287,0-0.541-0.184-0.632-0.455l-4-12C-0.034,12.674,0,12.45,0.126,12.277
				C0.251,12.103,0.453,12,0.667,12h24c0.368,0,0.666,0.298,0.666,0.667c0,0.369-0.298,0.667-0.666,0.667H1.592L5.147,24H22
				c0.368,0,0.667,0.298,0.667,0.667C22.667,25.035,22.368,25.333,22,25.333z"/>
        </g>
      </g>
    </g>
  </g></svg>