<svg id="svg-source" height="0" version="1.1" 
  xmlns="http://www.w3.org/2000/svg" style="position:absolute; margin-left: -100%" 
  xmlns:xlink="http://www.w3.org/1999/xlink"><g xmlns="http://www.w3.org/2000/svg" id="camera-video">
    <g id="Expanded">
      <g>
        <g>
          <path d="M22,27.333H3.333c-1.103,0-2-0.896-2-2V13.334c0-1.103,0.897-2,2-2H22c1.103,0,2,0.897,2,2v11.999
				C24,26.437,23.103,27.333,22,27.333z M3.333,12.667c-0.368,0-0.667,0.3-0.667,0.667v11.999C2.667,25.7,2.965,26,3.333,26H22
				c0.368,0,0.667-0.3,0.667-0.667V13.334c0-0.367-0.299-0.667-0.667-0.667H3.333z"/>
        </g>
        <g>
          <path d="M8,22.667c-1.471,0-2.667-1.196-2.667-2.667S6.529,17.334,8,17.334s2.667,1.195,2.667,2.666
				S9.471,22.667,8,22.667z M8,18.667c-0.735,0-1.333,0.598-1.333,1.333S7.265,21.333,8,21.333S9.333,20.735,9.333,20
				S8.735,18.667,8,18.667z"/>
        </g>
        <g>
          <path d="M17.333,22.667c-1.47,0-2.667-1.196-2.667-2.667s1.196-2.666,2.667-2.666C18.804,17.334,20,18.529,20,20
				S18.804,22.667,17.333,22.667z M17.333,18.667C16.598,18.667,16,19.265,16,20s0.598,1.333,1.333,1.333
				c0.736,0,1.334-0.598,1.334-1.333S18.069,18.667,17.333,18.667z"/>
        </g>
        <g>
          <path d="M17.333,18.667H8c-0.369,0-0.667-0.299-0.667-0.667S7.631,17.334,8,17.334h9.333
				C17.702,17.334,18,17.632,18,18S17.702,18.667,17.333,18.667z"/>
        </g>
        <g>
          <path d="M15.333,12.667c-0.369,0-0.667-0.299-0.667-0.667V9.334c0-0.367-0.299-0.667-0.667-0.667H0.667
				C0.298,8.667,0,8.368,0,8c0-0.367,0.298-0.666,0.667-0.666H14c1.103,0,2,0.897,2,2V12C16,12.368,15.702,12.667,15.333,12.667z"/>
        </g>
        <g>
          <path d="M20.667,12.667C20.298,12.667,20,12.368,20,12V8c0-1.103,0.897-2,2-2h2.667
				c0.368,0,0.666,0.299,0.666,0.667s-0.298,0.667-0.666,0.667H22c-0.368,0-0.667,0.299-0.667,0.666v4
				C21.333,12.368,21.035,12.667,20.667,12.667z"/>
        </g>
        <g>
          <path d="M30,8.667h-4c-1.103,0-2-0.897-2-2s0.897-2,2-2h4c1.103,0,2,0.897,2,2S31.103,8.667,30,8.667z M26,6
				c-0.368,0-0.667,0.3-0.667,0.667S25.632,7.334,26,7.334h4c0.368,0,0.667-0.3,0.667-0.667S30.368,6,30,6H26z"/>
        </g>
        <g>
          <path d="M30.615,25.642c-0.181,0-0.36-0.035-0.532-0.107l-7.006-2.919c-0.34-0.142-0.501-0.532-0.359-0.872
				c0.143-0.34,0.534-0.5,0.872-0.358l7.007,2.919l0.07-0.047v-8.513l-0.328-0.663l0.258,0.615l-7.007,2.919
				c-0.339,0.143-0.729-0.019-0.872-0.358c-0.142-0.34,0.02-0.73,0.359-0.872l7.006-2.919c0.428-0.18,0.914-0.132,1.301,0.126
				C31.77,14.85,32,15.28,32,15.744v8.513c0,0.463-0.23,0.895-0.616,1.152C31.152,25.562,30.885,25.642,30.615,25.642z"/>
        </g>
      </g>
    </g>
  </g></svg>