<svg id="svg-source" height="0" version="1.1" 
  xmlns="http://www.w3.org/2000/svg" style="position:absolute; margin-left: -100%" 
  xmlns:xlink="http://www.w3.org/1999/xlink"><g xmlns="http://www.w3.org/2000/svg" id="camera-photo-polaroid">
    <g id="Expanded">
      <g>
        <g>
          <path d="M29.333,26h-4.268v-1.333h4.268c0.736,0,1.334-0.598,1.334-1.334v-3.156L28,15.511V4.667
				c0-1.838-1.495-3.333-3.333-3.333H7.333C5.496,1.333,4,2.829,4,4.667v10.844l-2.667,4.666v3.156c0,0.736,0.598,1.334,1.333,1.334
				H6.87V26H2.667C1.196,26,0,24.804,0,23.333v-3.51l2.667-4.667V4.667C2.667,2.093,4.76,0,7.333,0h17.333
				c2.572,0,4.666,2.093,4.666,4.667v10.489L32,19.823v3.51C32,24.804,30.804,26,29.333,26z"/>
        </g>
        <g>
          <path d="M30.508,32H1.724l1.138-1.138c3.741-3.742,3.805-8.152,3.805-8.197l0.003-0.663L7.333,22h17.998
				l0.002,0.666c0,0.051,0.059,5.069,3.761,8.155L30.508,32z M4.833,30.667h22.199c-2.346-2.682-2.877-5.947-2.998-7.334H7.958
				C7.823,24.651,7.25,27.7,4.833,30.667z"/>
        </g>
        <g>
          <path d="M16,12.6c-2.537,0-4.6-2.063-4.6-4.6s2.063-4.6,4.6-4.6c2.536,0,4.601,2.063,4.601,4.6
				S18.536,12.6,16,12.6z M16,4.6c-1.875,0-3.4,1.525-3.4,3.4s1.525,3.4,3.4,3.4c1.875,0,3.399-1.525,3.399-3.4S17.875,4.6,16,4.6z"/>
        </g>
        <g>
          <path d="M7.667,13.375c-0.551,0-1-0.448-1-1c0-0.551,0.449-1,1-1c0.552,0,1,0.449,1,1
				C8.667,12.926,8.218,13.375,7.667,13.375z M7.667,12.042c-0.184,0-0.333,0.149-0.333,0.333c0,0.184,0.149,0.333,0.333,0.333
				C7.851,12.708,8,12.559,8,12.375C8,12.191,7.851,12.042,7.667,12.042z"/>
        </g>
        <g>
          <path d="M26.667,7.375H22v-4h4.667V7.375z M23.333,6.042h2V4.708h-2V6.042z"/>
        </g>
        <g>
          <rect x="14" y="0.667" width="1.333" height="3.562"/>
        </g>
        <g>
          <rect x="16.667" y="0.667" width="1.333" height="3.562"/>
        </g>
        <g>
          <rect x="14" y="11.771" width="1.333" height="3.562"/>
        </g>
        <g>
          <rect x="16.667" y="11.771" width="1.333" height="3.562"/>
        </g>
        <g>
          <rect x="3.333" y="14.667" width="25.333" height="1.333"/>
        </g>
        <g>
          <rect x="0.667" y="19.375" width="30.667" height="1.333"/>
        </g>
        <g>
          <rect x="2.667" y="22" width="26.667" height="1.333"/>
        </g>
        <g>
          <rect x="5.427" y="28" width="20.983" height="1.333"/>
        </g>
      </g>
    </g>
  </g></svg>