<svg id="svg-source" height="0" version="1.1" 
  xmlns="http://www.w3.org/2000/svg" style="position:absolute; margin-left: -100%" 
  xmlns:xlink="http://www.w3.org/1999/xlink"><g xmlns="http://www.w3.org/2000/svg" id="camera-photo">
    <g id="Expanded">
      <g>
        <g>
          <path d="M22,13.333H11.333C9.496,13.333,8,11.838,8,10V1.333h17.333V10C25.333,11.838,23.838,13.333,22,13.333z
				 M9.333,2.666V10c0,1.103,0.897,2,2,2H22c1.103,0,2-0.897,2-2V2.666H9.333z"/>
        </g>
        <g>
          <path d="M22.667,30.667h-12V16h12V30.667z M12,29.333h9.333v-12H12V29.333z"/>
        </g>
        <g>
          <path d="M6,26.667c-1.838,0-3.333-1.496-3.333-3.334S4.162,20,6,20s3.333,1.495,3.333,3.333
				S7.838,26.667,6,26.667z M6,21.333c-1.103,0-2,0.897-2,2c0,1.104,0.897,2,2,2s2-0.896,2-2C8,22.23,7.103,21.333,6,21.333z"/>
        </g>
        <g>
          <path d="M19.333,26c-0.279,0-0.539-0.177-0.633-0.456L17.52,22h-1.706l-1.181,3.544
				c-0.117,0.349-0.494,0.54-0.844,0.422c-0.349-0.117-0.538-0.494-0.421-0.844l1.333-4c0.091-0.271,0.345-0.455,0.633-0.455H18
				c0.288,0,0.542,0.184,0.633,0.455l1.333,4c0.117,0.35-0.072,0.727-0.422,0.844C19.474,25.989,19.402,26,19.333,26z"/>
        </g>
        <g>
          <rect x="10.667" y="4" width="1.333" height="6.666"/>
        </g>
        <g>
          <rect x="13.333" y="4" width="1.333" height="6.666"/>
        </g>
        <g>
          <rect x="16" y="4" width="1.333" height="6.666"/>
        </g>
        <g>
          <rect x="18.667" y="4" width="1.333" height="6.666"/>
        </g>
        <g>
          <rect x="21.333" y="4" width="1.334" height="6.666"/>
        </g>
        <g>
          <rect x="12" y="12.666" width="1.333" height="4.001"/>
        </g>
        <g>
          <rect x="20" y="12.666" width="1.333" height="4.001"/>
        </g>
        <g>
          <path d="M29.333,25.333H24v-4h5.333V25.333z M25.333,24H28v-1.333h-2.667V24z"/>
        </g>
        <g>
          <path d="M27.333,29.333H22V28h5.333c1.838,0,3.334-1.495,3.334-3.333V22c0-1.838-1.496-3.333-3.334-3.333H22
				v-1.334h5.333C29.906,17.333,32,19.427,32,22v2.667C32,27.239,29.906,29.333,27.333,29.333z"/>
        </g>
        <g>
          <path d="M11.333,29.333H4.667C2.093,29.333,0,27.239,0,24.667V22c0-2.573,2.093-4.667,4.667-4.667h6.667v1.334
				H4.667c-1.838,0-3.333,1.495-3.333,3.333v2.667C1.333,26.505,2.829,28,4.667,28h6.667V29.333z"/>
        </g>
      </g>
    </g>
  </g></svg>