<svg id="svg-source" height="0" version="1.1" 
  xmlns="http://www.w3.org/2000/svg" style="position:absolute; margin-left: -100%" 
  xmlns:xlink="http://www.w3.org/1999/xlink"><g xmlns="http://www.w3.org/2000/svg" id="chaplin-hat-movie">
    <g id="Expanded">
      <g>
        <g>
          <path d="M25.333,21.333H6.667C2.991,21.333,0,18.343,0,14.667C0,14.298,0.298,14,0.667,14
				c0.369,0,0.667,0.298,0.667,0.667C1.333,17.607,3.726,20,6.667,20h18.667c2.941,0,5.334-2.393,5.334-5.333
				c0-0.369,0.298-0.667,0.666-0.667C31.702,14,32,14.298,32,14.667C32,18.343,29.009,21.333,25.333,21.333z"/>
        </g>
        <g>
          <path d="M26,17.333H6c-0.369,0-0.667-0.298-0.667-0.666C5.333,16.298,5.631,16,6,16h20
				c0.368,0,0.667,0.298,0.667,0.667C26.667,17.035,26.368,17.333,26,17.333z"/>
        </g>
        <g>
          <path d="M26.667,20.63h-1.334v-9.963c0-5.146-4.186-9.333-9.333-9.333c-5.147,0-9.333,4.187-9.333,9.333v9.963
				H5.333v-9.963C5.333,4.786,10.119,0,16,0c5.882,0,10.667,4.786,10.667,10.667V20.63z"/>
        </g>
        <g>
          <polygon points="18,29.333 14,29.333 12.667,32 19.333,32 			"/>
        </g>
      </g>
    </g>
  </g></svg>