<svg id="svg-source" height="0" version="1.1" 
  xmlns="http://www.w3.org/2000/svg" style="position:absolute; margin-left: -100%" 
  xmlns:xlink="http://www.w3.org/1999/xlink"><g xmlns="http://www.w3.org/2000/svg" id="chef-food-restaurant">
    <g id="Expanded">
      <g>
        <g>
          <path d="M24,32H8c-0.349,0-0.639-0.269-0.665-0.615L6.046,14.63c-2.649-0.308-4.713-2.565-4.713-5.297
				c0-2.946,2.452-5.434,5.354-5.434c0.606,0,1.202,0.118,1.758,0.347C9.381,1.672,12.292,0,16,0c3.483,0,5.919,1.408,7.427,4.3
				c0.592-0.264,1.232-0.401,1.885-0.401c2.903,0,5.355,2.488,5.355,5.435c0,2.731-2.064,4.989-4.714,5.297l-1.288,16.754
				C24.638,31.731,24.348,32,24,32z M8.617,30.667h14.765l1.286-16.718c0.027-0.348,0.317-0.615,0.665-0.615c2.206,0,4-1.794,4-4
				c0-2.417-2.119-4.101-4.021-4.101c-0.654,0-1.266,0.183-1.815,0.544c-0.163,0.107-0.367,0.138-0.555,0.082
				c-0.188-0.055-0.343-0.19-0.422-0.37C21.266,2.654,19.194,1.333,16,1.333c-3.438,0-6.04,1.61-6.474,4.006
				c-0.04,0.22-0.188,0.405-0.394,0.493C8.928,5.922,8.691,5.901,8.504,5.777c-0.55-0.362-1.161-0.544-1.815-0.544
				c-1.902,0-4.022,1.684-4.022,4.101c0,2.206,1.794,4,4,4c0.349,0,0.639,0.268,0.665,0.615L8.617,30.667z"/>
        </g>
        <g>
          <path d="M24.417,26.667H7.583c-0.368,0-0.667-0.299-0.667-0.667s0.299-0.667,0.667-0.667h16.834
				c0.367,0,0.666,0.299,0.666,0.667S24.784,26.667,24.417,26.667z"/>
        </g>
        <g>
          <path d="M12.666,26.667C12.299,26.667,12,26.368,12,26v-5.333C12,20.298,12.299,20,12.666,20
				c0.368,0,0.667,0.298,0.667,0.667V26C13.333,26.368,13.034,26.667,12.666,26.667z"/>
        </g>
        <g>
          <path d="M16,26.667c-0.368,0-0.667-0.299-0.667-0.667v-6.667c0-0.368,0.299-0.666,0.667-0.666
				c0.367,0,0.667,0.298,0.667,0.666V26C16.667,26.368,16.367,26.667,16,26.667z"/>
        </g>
        <g>
          <path d="M19.333,26.667c-0.367,0-0.666-0.299-0.666-0.667v-5.333c0-0.369,0.299-0.667,0.666-0.667
				C19.701,20,20,20.298,20,20.667V26C20,26.368,19.701,26.667,19.333,26.667z"/>
        </g>
      </g>
    </g>
  </g></svg>