<svg id="svg-source" height="0" version="1.1" 
  xmlns="http://www.w3.org/2000/svg" style="position:absolute; margin-left: -100%" 
  xmlns:xlink="http://www.w3.org/1999/xlink"><g xmlns="http://www.w3.org/2000/svg" id="cocktail-mojito">
    <g id="Expanded">
      <g>
        <g>
          <path d="M16.667,18.667c-0.171,0-0.342-0.065-0.472-0.195L5.529,7.805C5.338,7.614,5.281,7.328,5.384,7.078
				C5.487,6.829,5.731,6.667,6,6.667h21.333c0.27,0,0.514,0.162,0.616,0.412c0.104,0.25,0.046,0.536-0.145,0.727L17.138,18.472
				C17.008,18.602,16.837,18.667,16.667,18.667z M7.609,8l9.058,9.058L25.724,8H7.609z"/>
        </g>
        <g>
          <path d="M16.667,30.667C16.298,30.667,16,30.368,16,30V18c0-0.368,0.298-0.667,0.667-0.667
				c0.368,0,0.666,0.299,0.666,0.667v12C17.333,30.368,17.035,30.667,16.667,30.667z"/>
        </g>
        <g>
          <path d="M22,30.667H11.333c-0.369,0-0.667-0.299-0.667-0.667s0.298-0.667,0.667-0.667H22
				c0.368,0,0.667,0.299,0.667,0.667S22.368,30.667,22,30.667z"/>
        </g>
        <g>
          <path d="M9.529,7.805L6.034,4.31c-0.63-0.629-1.466-0.977-2.357-0.977H0V2h3.677c1.247,0,2.418,0.486,3.3,1.367
				l3.495,3.495L9.529,7.805z"/>
        </g>
        <g>
          <path d="M27.333,10.667c-0.86,0-1.701-0.236-2.432-0.682l0.695-1.138c0.521,0.318,1.121,0.487,1.736,0.487
				c1.838,0,3.334-1.496,3.334-3.333s-1.496-3.333-3.334-3.333S24,4.162,24,6c0,0.38,0.063,0.754,0.188,1.107l-1.258,0.444
				C22.756,7.055,22.667,6.533,22.667,6c0-2.573,2.094-4.667,4.666-4.667C29.906,1.333,32,3.427,32,6S29.906,10.667,27.333,10.667z"/>
        </g>
      </g>
    </g>
  </g></svg>