<svg id="svg-source" height="0" version="1.1" 
  xmlns="http://www.w3.org/2000/svg" style="position:absolute; margin-left: -100%" 
  xmlns:xlink="http://www.w3.org/1999/xlink"><g xmlns="http://www.w3.org/2000/svg" id="coffee">
    <g id="Expanded">
      <g>
        <g>
          <path d="M24,32H8c-0.352,0-0.643-0.273-0.665-0.625L6.002,10.042C5.99,9.858,6.055,9.677,6.181,9.543
				s0.303-0.21,0.486-0.21h18.666c0.184,0,0.36,0.076,0.486,0.21s0.191,0.314,0.18,0.498l-1.334,21.333
				C24.644,31.727,24.352,32,24,32z M8.626,30.667h14.748l1.25-20H7.376L8.626,30.667z"/>
        </g>
        <g>
          <path d="M26.667,10.667H5.334c-0.368,0-0.667-0.298-0.667-0.667V4.667C4.667,4.298,4.966,4,5.334,4h21.333
				c0.367,0,0.666,0.298,0.666,0.667V10C27.333,10.369,27.034,10.667,26.667,10.667z M6,9.333h20v-4H6V9.333z"/>
        </g>
        <g>
          <path d="M25.347,5.333c-0.004-0.001-0.009,0-0.014,0H6.667c-0.214,0-0.415-0.103-0.541-0.277
				C6.001,4.883,5.967,4.659,6.034,4.456l1.333-4C7.459,0.183,7.713,0,8,0h16c0.288,0,0.542,0.183,0.633,0.456l1.293,3.88
				c0.056,0.098,0.087,0.21,0.087,0.33C26.013,5.036,25.715,5.333,25.347,5.333z M7.592,4h16.817l-0.89-2.667H8.481L7.592,4z"/>
        </g>
        <g>
          <path d="M25,16H7c-0.367,0-0.666-0.298-0.666-0.667c0-0.369,0.299-0.667,0.666-0.667h18
				c0.368,0,0.667,0.298,0.667,0.667C25.667,15.702,25.368,16,25,16z"/>
        </g>
        <g>
          <rect x="7.5" y="22.667" width="17" height="1.333"/>
        </g>
        <g>
          <path d="M18,20h-4c-0.367,0-0.666-0.298-0.666-0.667c0-0.368,0.299-0.666,0.666-0.666h4
				c0.368,0,0.667,0.298,0.667,0.666C18.667,19.702,18.368,20,18,20z"/>
        </g>
      </g>
    </g>
  </g></svg>