<svg id="svg-source" height="0" version="1.1" 
  xmlns="http://www.w3.org/2000/svg" style="position:absolute; margin-left: -100%" 
  xmlns:xlink="http://www.w3.org/1999/xlink"><g xmlns="http://www.w3.org/2000/svg" id="computer-imac">
    <g id="Expanded">
      <g>
        <g>
          <path d="M29.333,26.667H2.667C1.196,26.667,0,25.471,0,24V4c0-1.471,1.196-2.667,2.667-2.667h26.667
				C30.804,1.333,32,2.529,32,4v20C32,25.471,30.804,26.667,29.333,26.667z M2.667,2.667C1.931,2.667,1.333,3.265,1.333,4v20
				c0,0.735,0.598,1.333,1.333,1.333h26.667c0.736,0,1.334-0.598,1.334-1.333V4c0-0.735-0.598-1.333-1.334-1.333H2.667z"/>
        </g>
        <g>
          <path d="M25.333,30.667H6.667C6.299,30.667,6,30.368,6,30s0.299-0.667,0.667-0.667h18.667
				C25.701,29.333,26,29.632,26,30S25.701,30.667,25.333,30.667z"/>
        </g>
        <g>
          <path d="M20.68,30.667c-0.004,0-0.009,0-0.013,0h-9.333c-0.214,0-0.416-0.104-0.541-0.277
				c-0.125-0.174-0.159-0.397-0.092-0.601l1.333-4c0.092-0.272,0.346-0.456,0.633-0.456h6.667c0.288,0,0.542,0.184,0.633,0.456
				l1.293,3.881c0.057,0.097,0.088,0.21,0.088,0.33C21.347,30.368,21.048,30.667,20.68,30.667z M12.258,29.333h7.484l-0.89-2.666
				h-5.705L12.258,29.333z"/>
        </g>
        <g>
          <path d="M29.333,21.333H2.667V4h26.667V21.333z M4,20h24V5.333H4V20z"/>
        </g>
        <g>
          <circle cx="16" cy="23.333" r="1.333"/>
        </g>
      </g>
    </g>
  </g></svg>