<svg id="svg-source" height="0" version="1.1" 
  xmlns="http://www.w3.org/2000/svg" style="position:absolute; margin-left: -100%" 
  xmlns:xlink="http://www.w3.org/1999/xlink"><g xmlns="http://www.w3.org/2000/svg" id="computer-macintosh-vintage">
    <g id="Expanded">
      <g>
        <g>
          <path d="M23.333,22.667h-16c-1.103,0-2-0.897-2-2v-16C5.333,2.093,7.427,0,10,0h10.667
				c2.572,0,4.666,2.093,4.666,4.667v16C25.333,21.77,24.437,22.667,23.333,22.667z M10,1.333c-1.838,0-3.333,1.495-3.333,3.333v16
				c0,0.367,0.3,0.666,0.667,0.666h16c0.367,0,0.667-0.299,0.667-0.666v-16c0-1.838-1.495-3.333-3.333-3.333H10z"/>
        </g>
        <g>
          <path d="M20.667,14.667H10c-1.103,0-2-0.897-2-2v-8c0-1.103,0.897-2,2-2h10.667c1.103,0,2,0.897,2,2v8
				C22.667,13.769,21.77,14.667,20.667,14.667z M10,4C9.633,4,9.333,4.299,9.333,4.667v8c0,0.367,0.299,0.667,0.667,0.667h10.667
				c0.367,0,0.666-0.3,0.666-0.667v-8C21.333,4.299,21.034,4,20.667,4H10z"/>
        </g>
        <g>
          <path d="M20.667,17.333h-4c-0.368,0-0.667-0.299-0.667-0.666C16,16.299,16.299,16,16.667,16h4
				c0.367,0,0.666,0.299,0.666,0.667C21.333,17.034,21.034,17.333,20.667,17.333z"/>
        </g>
        <g>
          <path d="M31.333,32H0.667C0.299,32,0,31.701,0,31.333v-2.666c0-0.178,0.07-0.347,0.195-0.472l4-4
				C4.32,24.07,4.49,24,4.667,24h22.667c0.178,0,0.347,0.07,0.472,0.195l4,4C31.93,28.32,32,28.489,32,28.667v2.666
				C32,31.701,31.701,32,31.333,32z M1.333,30.667h29.333v-1.725l-3.609-3.609H4.943l-3.609,3.609V30.667z"/>
        </g>
        <g>
          <path d="M31.333,29.333H0.667C0.299,29.333,0,29.034,0,28.667C0,28.299,0.299,28,0.667,28h30.667
				C31.701,28,32,28.299,32,28.667C32,29.034,31.701,29.333,31.333,29.333z"/>
        </g>
        <g>
          <path d="M28.667,25.333h-1.334V24h1.334c1.103,0,2-0.897,2-2s-0.897-2-2-2h-4v-1.333h4
				C30.505,18.667,32,20.162,32,22S30.505,25.333,28.667,25.333z"/>
        </g>
        <g>
          <path d="M8,26c-0.368,0-0.667,0.298-0.667,0.667c0,0.368,0.299,0.666,0.667,0.666s0.667-0.298,0.667-0.666
				C8.667,26.298,8.368,26,8,26L8,26z"/>
        </g>
        <g>
          <path d="M12,26c-0.368,0-0.667,0.298-0.667,0.667c0,0.368,0.299,0.666,0.667,0.666s0.667-0.298,0.667-0.666
				C12.667,26.298,12.368,26,12,26L12,26z"/>
        </g>
        <g>
          <path d="M16,26c-0.368,0-0.667,0.298-0.667,0.667c0,0.368,0.299,0.666,0.667,0.666s0.667-0.298,0.667-0.666
				C16.667,26.298,16.368,26,16,26L16,26z"/>
        </g>
        <g>
          <path d="M20,26c-0.368,0-0.667,0.298-0.667,0.667c0,0.368,0.299,0.666,0.667,0.666s0.667-0.298,0.667-0.666
				C20.667,26.298,20.368,26,20,26L20,26z"/>
        </g>
        <g>
          <path d="M24,26c-0.368,0-0.667,0.298-0.667,0.667c0,0.368,0.299,0.666,0.667,0.666s0.667-0.298,0.667-0.666
				C24.667,26.298,24.368,26,24,26L24,26z"/>
        </g>
      </g>
    </g>
  </g></svg>