<svg id="svg-source" height="0" version="1.1" 
  xmlns="http://www.w3.org/2000/svg" style="position:absolute; margin-left: -100%" 
  xmlns:xlink="http://www.w3.org/1999/xlink"><g xmlns="http://www.w3.org/2000/svg" id="computer-imac1">
    <g id="Expanded">
      <g>
        <g>
          <path d="M29.333,27.333H2.667C1.196,27.333,0,26.084,0,24.549V4.785C0,3.25,1.196,2,2.667,2h26.667
				C30.804,2,32,3.25,32,4.785v19.764C32,26.084,30.804,27.333,29.333,27.333z M2.667,3.333c-0.735,0-1.333,0.651-1.333,1.451
				v19.764c0,0.8,0.598,1.451,1.333,1.451h26.667c0.736,0,1.334-0.651,1.334-1.451V4.785c0-0.8-0.598-1.451-1.334-1.451H2.667z"/>
        </g>
        <g>
          <path d="M25.333,30H6.667C6.299,30,6,29.701,6,29.333c0-0.367,0.299-0.666,0.667-0.666h18.667
				c0.368,0,0.667,0.299,0.667,0.666C26,29.701,25.701,30,25.333,30z"/>
        </g>
        <g>
          <path d="M16,30c-0.368,0-0.667-0.299-0.667-0.667v-2.666C15.333,26.299,15.632,26,16,26s0.667,0.299,0.667,0.667
				v2.666C16.667,29.701,16.368,30,16,30z"/>
        </g>
        <g>
          <circle cx="16" cy="24" r="1.333"/>
        </g>
        <g>
          <rect x="0.667" y="20.667" width="30.667" height="1.333"/>
        </g>
      </g>
    </g>
  </g></svg>