<svg id="svg-source" height="0" version="1.1" 
  xmlns="http://www.w3.org/2000/svg" style="position:absolute; margin-left: -100%" 
  xmlns:xlink="http://www.w3.org/1999/xlink"><g xmlns="http://www.w3.org/2000/svg" id="computer">
    <g id="Expanded">
      <g>
        <g>
          <path d="M16.667,31.333H3.333C1.496,31.333,0,29.838,0,28v-4c0-0.368,0.299-0.667,0.667-0.667
				c0.368,0,0.667,0.299,0.667,0.667c0,1.103,0.897,2,2,2h13.333c1.103,0,2-0.897,2-2c0-0.368,0.299-0.667,0.666-0.667
				C19.701,23.333,20,23.632,20,24v4C20,29.838,18.505,31.333,16.667,31.333z M1.333,26.665V28c0,1.103,0.897,2,2,2h13.333
				c1.103,0,2-0.897,2-2v-1.335c-0.558,0.419-1.25,0.668-2,0.668H3.333C2.583,27.333,1.891,27.084,1.333,26.665z"/>
        </g>
        <g>
          <path d="M26.667,31.333c-0.925,0-4.029-0.086-5.139-1.195c-0.125-0.125-0.195-0.294-0.195-0.471V2.334
				c0-0.177,0.07-0.347,0.195-0.472c1.109-1.109,4.214-1.195,5.139-1.195c0.924,0,4.028,0.086,5.138,1.195
				C31.93,1.987,32,2.157,32,2.334v27.333c0,0.177-0.07,0.346-0.195,0.471C30.695,31.247,27.591,31.333,26.667,31.333z
				 M22.667,29.34c0.594,0.348,2.043,0.66,4,0.66s3.406-0.312,4-0.66V2.66c-0.594-0.348-2.043-0.66-4-0.66s-3.406,0.312-4,0.66
				V29.34z"/>
        </g>
        <g>
          <path d="M18.8,24.399l-2.88-3.84c-0.576-0.768-1.493-1.227-2.453-1.227H6.533c-0.96,0-1.876,0.459-2.453,1.227
				l-2.88,3.84l-1.066-0.799l2.88-3.84C3.84,18.657,5.156,18,6.533,18h6.934c1.377,0,2.693,0.657,3.519,1.761l2.881,3.84
				L18.8,24.399z"/>
        </g>
        <g>
          <path d="M26.667,11c-1.838,0-3.334-1.495-3.334-3.333s1.496-3.333,3.334-3.333S30,5.829,30,7.667
				S28.505,11,26.667,11z M26.667,5.667c-1.104,0-2,0.897-2,2s0.896,2,2,2c1.103,0,2-0.897,2-2S27.77,5.667,26.667,5.667z"/>
        </g>
        <g>
          <path d="M24.667,11.667c-0.737,0-1.334,0.597-1.334,1.333c0,0.737,0.597,1.334,1.334,1.334
				C25.403,14.334,26,13.737,26,13C26,12.264,25.403,11.667,24.667,11.667L24.667,11.667z"/>
        </g>
        <g>
          <path d="M28.667,11.667c-0.737,0-1.334,0.597-1.334,1.333c0,0.737,0.597,1.334,1.334,1.334
				C29.403,14.334,30,13.737,30,13C30,12.264,29.403,11.667,28.667,11.667L28.667,11.667z"/>
        </g>
      </g>
    </g>
  </g></svg>