<svg id="svg-source" height="0" version="1.1" 
  xmlns="http://www.w3.org/2000/svg" style="position:absolute; margin-left: -100%" 
  xmlns:xlink="http://www.w3.org/1999/xlink"><g xmlns="http://www.w3.org/2000/svg" id="cook-pan-pot">
    <g id="Expanded">
      <g>
        <g>
          <path d="M19.333,32h-6.666C11.196,32,10,30.804,10,29.333c0-1.217,1.737-4.373,2.086-4.992
				c0.113-0.203,0.324-0.332,0.556-0.34c0.238-0.025,0.452,0.102,0.58,0.296l0.749,1.124l1.458-2.432c0.241-0.4,0.903-0.4,1.143,0
				l1.459,2.432l0.749-1.124c0.128-0.194,0.339-0.323,0.58-0.296c0.231,0.008,0.442,0.137,0.556,0.34
				C20.263,24.96,22,28.116,22,29.333C22,30.804,20.804,32,19.333,32z M12.727,25.958c-0.739,1.421-1.393,2.909-1.393,3.375
				c0,0.736,0.598,1.334,1.333,1.334h6.666c0.736,0,1.334-0.598,1.334-1.334c0-0.466-0.654-1.954-1.394-3.375l-0.719,1.078
				c-0.126,0.189-0.347,0.288-0.57,0.297c-0.229-0.006-0.438-0.127-0.556-0.322L16,24.629l-1.429,2.38
				c-0.117,0.197-0.327,0.318-0.556,0.324c-0.224-0.012-0.444-0.107-0.57-0.297L12.727,25.958z"/>
        </g>
        <g>
          <path d="M23.333,21.333H8.667c-1.838,0-3.333-1.495-3.333-3.333V3.333c0-0.369,0.298-0.667,0.666-0.667h20
				c0.368,0,0.667,0.298,0.667,0.667V18C26.667,19.838,25.171,21.333,23.333,21.333z M6.667,4v14c0,1.103,0.897,2,2,2h14.666
				c1.104,0,2-0.897,2-2V4H6.667z"/>
        </g>
        <g>
          <path d="M6,8H3.334C2.965,8,2.667,7.702,2.667,7.333c0-0.369,0.298-0.667,0.667-0.667H6
				c0.369,0,0.667,0.298,0.667,0.667C6.667,7.702,6.369,8,6,8z"/>
        </g>
        <g>
          <path d="M28.667,7.555H26c-0.368,0-0.667-0.298-0.667-0.667S25.632,6.222,26,6.222h2.667
				c0.368,0,0.666,0.298,0.666,0.667S29.035,7.555,28.667,7.555z"/>
        </g>
        <g>
          <path d="M27.333,4H4.667C4.298,4,4,3.702,4,3.333c0-0.369,0.298-0.667,0.667-0.667h22.666
				C27.702,2.667,28,2.964,28,3.333C28,3.702,27.702,4,27.333,4z"/>
        </g>
        <g>
          <path d="M18.667,4C18.298,4,18,3.702,18,3.333c0-1.103-0.897-2-2-2s-2,0.897-2,2C14,3.702,13.702,4,13.334,4
				c-0.369,0-0.667-0.298-0.667-0.667C12.667,1.496,14.162,0,16,0s3.333,1.496,3.333,3.333C19.333,3.702,19.035,4,18.667,4z"/>
        </g>
      </g>
    </g>
  </g></svg>