<svg id="svg-source" height="0" version="1.1" 
  xmlns="http://www.w3.org/2000/svg" style="position:absolute; margin-left: -100%" 
  xmlns:xlink="http://www.w3.org/1999/xlink"><g xmlns="http://www.w3.org/2000/svg" id="crop">
    <g id="Expanded">
      <g>
        <g>
          <path d="M24,32h-4.363c-0.402,0-0.728-0.326-0.728-0.728v-2.182H3.636c-0.402,0-0.727-0.326-0.727-0.728V13.091
				H0.727C0.324,13.091,0,12.765,0,12.364V8c0-0.401,0.324-0.728,0.727-0.728h2.183V5.091c0-0.401,0.324-0.727,0.727-0.727H8
				c0.402,0,0.727,0.325,0.727,0.727v2.182H24c0.402,0,0.728,0.326,0.728,0.728v15.272h2.182c0.402,0,0.728,0.326,0.728,0.728v4.363
				c0,0.401-0.325,0.728-0.728,0.728h-2.182v2.182C24.728,31.674,24.402,32,24,32z M20.363,30.545h2.909v-2.182
				c0-0.401,0.325-0.727,0.728-0.727h2.182v-2.909H24c-0.402,0-0.728-0.326-0.728-0.728V8.728H8C7.598,8.728,7.272,8.401,7.272,8
				V5.818H4.363V8c0,0.401-0.325,0.728-0.728,0.728H1.454v2.909h2.182c0.402,0,0.728,0.326,0.728,0.728v15.272h15.273
				c0.401,0,0.727,0.325,0.727,0.727V30.545z M19.637,24.728H8c-0.402,0-0.728-0.326-0.728-0.728V12.364
				c0-0.401,0.325-0.728,0.728-0.728h11.637c0.401,0,0.727,0.326,0.727,0.728V24C20.363,24.401,20.038,24.728,19.637,24.728z
				 M8.727,23.272h10.183V13.091H8.727V23.272z"/>
        </g>
        <g>
          <path d="M8,24.728c-0.187,0-0.373-0.071-0.515-0.214c-0.284-0.283-0.284-0.744,0-1.028L19.122,11.85
				c0.284-0.284,0.744-0.284,1.028,0s0.284,0.744,0,1.028L8.514,24.514C8.372,24.656,8.186,24.728,8,24.728z"/>
        </g>
        <g>
          <path d="M24,8.728c-0.187,0-0.372-0.071-0.515-0.213c-0.283-0.285-0.283-0.744,0-1.028l7.273-7.273
				c0.284-0.284,0.744-0.284,1.028,0c0.284,0.285,0.284,0.744,0,1.028l-7.272,7.273C24.372,8.656,24.187,8.728,24,8.728z"/>
        </g>
        <g>
          <path d="M10.182,8.728H2.909C2.507,8.728,2.182,8.401,2.182,8s0.325-0.728,0.728-0.728h7.272
				c0.402,0,0.728,0.326,0.728,0.728S10.584,8.728,10.182,8.728z"/>
        </g>
        <g>
          <path d="M8,13.091H3.636c-0.402,0-0.727-0.326-0.727-0.727c0-0.401,0.324-0.728,0.727-0.728H8
				c0.402,0,0.727,0.326,0.727,0.728C8.727,12.765,8.402,13.091,8,13.091z"/>
        </g>
        <g>
          <path d="M24,24.728h-4.363c-0.402,0-0.728-0.326-0.728-0.728s0.325-0.728,0.728-0.728H24
				c0.402,0,0.728,0.326,0.728,0.728S24.402,24.728,24,24.728z"/>
        </g>
        <g>
          <path d="M24,29.091h-4.363c-0.402,0-0.728-0.326-0.728-0.728s0.325-0.727,0.728-0.727H24
				c0.402,0,0.728,0.325,0.728,0.727S24.402,29.091,24,29.091z"/>
        </g>
      </g>
    </g>
  </g></svg>