<svg id="svg-source" height="0" version="1.1" 
  xmlns="http://www.w3.org/2000/svg" style="position:absolute; margin-left: -100%" 
  xmlns:xlink="http://www.w3.org/1999/xlink"><g xmlns="http://www.w3.org/2000/svg" id="crown-king">
    <g id="Expanded">
      <g>
        <g>
          <path d="M27.953,25.333H4.046l-0.167-0.111C1.45,23.608,0,20.909,0,18c0-4.779,3.888-8.667,8.667-8.667
				c1.379,0,2.752,0.333,3.97,0.961l-0.612,1.185c-1.044-0.539-2.173-0.812-3.357-0.812c-4.043,0-7.333,3.29-7.333,7.333
				c0,2.396,1.163,4.624,3.121,6h23.092c1.958-1.376,3.121-3.604,3.121-6c0-4.043-3.291-7.333-7.334-7.333
				c-1.185,0-2.314,0.274-3.359,0.815l-0.613-1.184c1.219-0.631,2.593-0.964,3.973-0.964C28.112,9.333,32,13.221,32,18
				c0,2.909-1.45,5.608-3.879,7.222L27.953,25.333z"/>
        </g>
        <g>
          <path d="M28,32H4c-1.741,0-2.652-1.343-2.652-2.667c0-1.325,0.911-2.666,2.652-2.666h24
				c1.741,0,2.652,1.342,2.652,2.667S29.741,32,28,32z M4,28c-0.973,0-1.319,0.718-1.319,1.333S3.027,30.667,4,30.667h24
				c0.974,0,1.319-0.719,1.319-1.333C29.319,28.719,28.974,28,28,28H4z"/>
        </g>
        <g>
          <path d="M8.463,21.354c-0.274,0-0.53-0.17-0.628-0.441C7.502,19.98,7.333,19,7.333,18
				c0-4.779,3.888-8.667,8.667-8.667c4.778,0,8.667,3.888,8.667,8.667c0,0.993-0.168,1.968-0.498,2.897
				c-0.123,0.347-0.506,0.525-0.852,0.404c-0.347-0.123-0.527-0.505-0.404-0.852c0.279-0.785,0.42-1.609,0.42-2.45
				c0-4.043-3.29-7.333-7.333-7.333c-4.043,0-7.333,3.29-7.333,7.333c0,0.847,0.143,1.676,0.425,2.464
				c0.124,0.347-0.057,0.729-0.403,0.852C8.613,21.343,8.538,21.354,8.463,21.354z"/>
        </g>
        <g>
          <path d="M16,8c-2.206,0-4-1.794-4-4s1.794-4,4-4s4,1.794,4,4S18.206,8,16,8z M16,1.333
				c-1.471,0-2.667,1.196-2.667,2.667S14.529,6.667,16,6.667S18.667,5.471,18.667,4S17.471,1.333,16,1.333z"/>
        </g>
        <g>
          <path d="M19.333,4.667h-6.667C12.299,4.667,12,4.369,12,4s0.299-0.667,0.667-0.667h6.667
				C19.701,3.333,20,3.631,20,4S19.701,4.667,19.333,4.667z"/>
        </g>
        <g>
          <path d="M16,10.667c-0.368,0-0.667-0.298-0.667-0.667V7.333c0-0.369,0.299-0.667,0.667-0.667
				s0.667,0.298,0.667,0.667V10C16.667,10.369,16.368,10.667,16,10.667z"/>
        </g>
      </g>
    </g>
  </g></svg>