<svg id="svg-source" height="0" version="1.1" 
  xmlns="http://www.w3.org/2000/svg" style="position:absolute; margin-left: -100%" 
  xmlns:xlink="http://www.w3.org/1999/xlink"><g xmlns="http://www.w3.org/2000/svg" id="delete-garbage">
    <g id="Expanded">
      <g>
        <g>
          <path d="M27.333,31.667H4.667V4.333h22.667V31.667z M6,30.333h20V5.666H6V30.333z"/>
        </g>
        <g>
          <path d="M23.333,5.666H8.667V0.333h14.667V5.666z M10,4.333h12V1.666H10V4.333z"/>
        </g>
        <g>
          <path d="M10.667,27C10.298,27,10,26.702,10,26.333V9.666C10,9.298,10.298,9,10.667,9
				c0.369,0,0.667,0.298,0.667,0.666v16.667C11.333,26.702,11.036,27,10.667,27z"/>
        </g>
        <g>
          <path d="M16,27c-0.369,0-0.667-0.298-0.667-0.667V9.666C15.333,9.298,15.631,9,16,9s0.667,0.298,0.667,0.666
				v16.667C16.667,26.702,16.369,27,16,27z"/>
        </g>
        <g>
          <path d="M21.333,27c-0.368,0-0.666-0.298-0.666-0.667V9.666C20.667,9.298,20.965,9,21.333,9
				C21.702,9,22,9.298,22,9.666v16.667C22,26.702,21.702,27,21.333,27z"/>
        </g>
        <g>
          <rect y="4.333" width="32" height="1.333"/>
        </g>
      </g>
    </g>
  </g></svg>