<svg id="svg-source" height="0" version="1.1" 
  xmlns="http://www.w3.org/2000/svg" style="position:absolute; margin-left: -100%" 
  xmlns:xlink="http://www.w3.org/1999/xlink"><g xmlns="http://www.w3.org/2000/svg" id="design-pencil-rule">
    <g id="Expanded">
      <g>
        <g>
          <path d="M28,32h-9.333C18.298,32,18,31.701,18,31.333V0.667C18,0.299,18.298,0,18.667,0H28
				c0.368,0,0.667,0.299,0.667,0.667v30.667C28.667,31.701,28.368,32,28,32z M19.333,30.667h8V1.333h-8V30.667z"/>
        </g>
        <g>
          <rect x="18.667" y="5.333" width="3.333" height="1.333"/>
        </g>
        <g>
          <rect x="18.667" y="9.333" width="3.333" height="1.333"/>
        </g>
        <g>
          <rect x="18.667" y="13.333" width="3.333" height="1.333"/>
        </g>
        <g>
          <rect x="18.667" y="17.333" width="3.333" height="1.334"/>
        </g>
        <g>
          <rect x="18.667" y="21.333" width="3.333" height="1.334"/>
        </g>
        <g>
          <rect x="18.667" y="25.333" width="3.333" height="1.334"/>
        </g>
        <g>
          <path d="M9.333,30.667H6.666c-1.838,0-3.333-1.496-3.333-3.334V8c0-0.131,0.039-0.261,0.112-0.37l4-6
				c0.247-0.371,0.861-0.371,1.109,0l4,6c0.072,0.109,0.111,0.239,0.111,0.37v19.333C12.666,29.171,11.171,30.667,9.333,30.667z
				 M4.666,8.202v19.131c0,1.104,0.897,2,2,2h2.667c1.103,0,2-0.896,2-2V8.202L8,3.202L4.666,8.202z"/>
        </g>
        <g>
          <path d="M12,26.667H4c-0.369,0-0.667-0.299-0.667-0.667S3.631,25.333,4,25.333h8c0.368,0,0.666,0.299,0.666,0.667
				S12.368,26.667,12,26.667z"/>
        </g>
        <g>
          <path d="M12,24H4c-0.369,0-0.667-0.299-0.667-0.667c0-0.367,0.298-0.666,0.667-0.666h8
				c0.368,0,0.666,0.299,0.666,0.666C12.666,23.701,12.368,24,12,24z"/>
        </g>
        <g>
          <path d="M6.666,24C6.298,24,6,23.701,6,23.333V10.667C6,10.299,6.298,10,6.666,10
				c0.369,0,0.667,0.299,0.667,0.667v12.667C7.333,23.701,7.035,24,6.666,24z"/>
        </g>
        <g>
          <path d="M9.333,24c-0.369,0-0.667-0.299-0.667-0.667V10.667C8.666,10.299,8.964,10,9.333,10S10,10.299,10,10.667
				v12.667C10,23.701,9.702,24,9.333,24z"/>
        </g>
        <g>
          <rect x="6" y="4.667" width="4" height="1.333"/>
        </g>
        <g>
          <path d="M6,11.333c-1.471,0-2.667-1.196-2.667-2.667C3.333,8.299,3.631,8,4,8c0.368,0,0.666,0.299,0.666,0.667
				C4.666,9.402,5.265,10,6,10s1.333-0.598,1.333-1.333C7.333,8.299,7.631,8,8,8c0.368,0,0.666,0.299,0.666,0.667
				C8.666,10.137,7.471,11.333,6,11.333z"/>
        </g>
        <g>
          <path d="M10,11.333c-1.471,0-2.667-1.196-2.667-2.667C7.333,8.299,7.631,8,8,8c0.368,0,0.666,0.299,0.666,0.667
				C8.666,9.402,9.265,10,10,10s1.333-0.598,1.333-1.333C11.333,8.299,11.631,8,12,8c0.368,0,0.666,0.299,0.666,0.667
				C12.666,10.137,11.471,11.333,10,11.333z"/>
        </g>
      </g>
    </g>
  </g></svg>