<svg id="svg-source" height="0" version="1.1" 
  xmlns="http://www.w3.org/2000/svg" style="position:absolute; margin-left: -100%" 
  xmlns:xlink="http://www.w3.org/1999/xlink"><g xmlns="http://www.w3.org/2000/svg" id="design-graphic-tablet">
    <g id="Expanded">
      <g>
        <g>
          <path d="M29.333,31.954H2.667C1.196,31.954,0,30.758,0,29.287v-20C0,7.816,1.196,6.62,2.667,6.62H16
				c0.368,0,0.667,0.299,0.667,0.667S16.368,7.954,16,7.954H2.667c-0.735,0-1.333,0.598-1.333,1.333v20
				c0,0.735,0.598,1.333,1.333,1.333h26.667c0.736,0,1.334-0.598,1.334-1.333v-20c0-0.735-0.598-1.333-1.334-1.333
				c-0.367,0-0.666-0.299-0.666-0.667s0.299-0.667,0.666-0.667C30.804,6.62,32,7.816,32,9.287v20
				C32,30.758,30.804,31.954,29.333,31.954z"/>
        </g>
        <g>
          <path d="M29.333,29.287H6.667v-20h6.667C13.701,9.287,14,9.586,14,9.954c0,0.367-0.299,0.666-0.667,0.666H8
				v17.334h20V10.62h-1.333C26.299,10.62,26,10.321,26,9.954c0-0.368,0.299-0.667,0.667-0.667h2.666V29.287z"/>
        </g>
        <g>
          <path d="M5.333,27.954H0V10.62h5.333V27.954z M1.333,26.62H4V11.954H1.333V26.62z"/>
        </g>
        <g>
          <path d="M11.626,18.327l1.76-5.531L25.38,0.802c1.008-1.008,2.765-1.008,3.772,0c1.04,1.04,1.04,2.731,0,3.771
				L17.157,16.567L11.626,18.327z M14.559,13.509l-0.88,2.766l2.765-0.88L28.21,3.631c0.52-0.521,0.52-1.366,0-1.886
				c-0.504-0.504-1.383-0.504-1.887,0L14.559,13.509z"/>
        </g>
        <g>
          <rect x="0.667" y="15.954" width="4" height="1.333"/>
        </g>
        <g>
          <rect x="0.667" y="21.287" width="4" height="1.333"/>
        </g>
        <g>
          <path d="M27.737,5.711c-0.171,0-0.342-0.065-0.472-0.195l-2.828-2.828c-0.261-0.261-0.261-0.683,0-0.943
				s0.683-0.261,0.942,0l2.828,2.829c0.262,0.261,0.262,0.682,0,0.942C28.079,5.646,27.907,5.711,27.737,5.711z"/>
        </g>
        <g>
          <path d="M23.967,9.482c-0.171,0-0.342-0.065-0.472-0.195l-2.828-2.829c-0.261-0.26-0.261-0.682,0-0.942
				c0.26-0.261,0.682-0.261,0.942,0l2.829,2.829c0.26,0.261,0.26,0.682,0,0.942C24.308,9.417,24.138,9.482,23.967,9.482z"/>
        </g>
        <g>
          <path d="M16.802,16.647c-0.172,0-0.342-0.064-0.472-0.195l-2.829-2.828c-0.261-0.261-0.261-0.683,0-0.943
				c0.261-0.26,0.682-0.26,0.942,0l2.829,2.829c0.261,0.261,0.261,0.682,0,0.942C17.142,16.583,16.972,16.647,16.802,16.647z"/>
        </g>
        <g>
          <path d="M11.333,19.287c-0.171,0-0.342-0.065-0.472-0.195c-0.261-0.261-0.261-0.683,0-0.942l1.319-1.319
				c0.261-0.261,0.682-0.261,0.943,0s0.261,0.682,0,0.942l-1.319,1.319C11.675,19.222,11.504,19.287,11.333,19.287z"/>
        </g>
      </g>
    </g>
  </g></svg>