<svg id="svg-source" height="0" version="1.1" 
  xmlns="http://www.w3.org/2000/svg" style="position:absolute; margin-left: -100%" 
  xmlns:xlink="http://www.w3.org/1999/xlink"><g xmlns="http://www.w3.org/2000/svg" id="diving-leisure-sea-sport">
    <g id="Expanded">
      <g>
        <g>
          <path d="M5.333,8h-2C1.863,8,0.667,6.804,0.667,5.333V4c0-2.206,1.794-4,4-4H8c0.369,0,0.667,0.298,0.667,0.667v4
				C8.667,6.504,7.171,8,5.333,8z M4.667,1.333C3.196,1.333,2,2.529,2,4v1.333c0,0.735,0.598,1.333,1.333,1.333h2
				c1.103,0,2-0.897,2-2V1.333H4.667z"/>
        </g>
        <g>
          <path d="M12.667,8h-2C8.829,8,7.333,6.504,7.333,4.667v-4C7.333,0.298,7.631,0,8,0h3.333c2.206,0,4,1.794,4,4
				v1.333C15.333,6.804,14.137,8,12.667,8z M8.667,1.333v3.333c0,1.103,0.897,2,2,2h2C13.402,6.667,14,6.069,14,5.333V4
				c0-1.471-1.196-2.667-2.667-2.667H8.667z"/>
        </g>
        <g>
          <path d="M0.667,5.333C0.298,5.333,0,5.036,0,4.667V3.333c0-0.369,0.298-0.667,0.667-0.667
				c0.369,0,0.667,0.298,0.667,0.667v1.333C1.333,5.036,1.036,5.333,0.667,5.333z"/>
        </g>
        <g>
          <path d="M15.333,5.333c-0.369,0-0.667-0.298-0.667-0.667V3.333c0-0.369,0.298-0.667,0.667-0.667
				S16,2.964,16,3.333v1.333C16,5.036,15.702,5.333,15.333,5.333z"/>
        </g>
        <g>
          <path d="M8,14.667c-1.471,0-2.667-1.196-2.667-2.667S6.529,9.333,8,9.333s2.667,1.196,2.667,2.667
				S9.471,14.667,8,14.667z M8,10.667c-0.735,0-1.333,0.598-1.333,1.333S7.265,13.333,8,13.333S9.333,12.735,9.333,12
				S8.735,10.667,8,10.667z"/>
        </g>
        <g>
          <path d="M29.333,32h-4c-1.471,0-2.666-1.196-2.666-2.667V16.667c0-2.573,2.094-4.667,4.666-4.667
				S32,14.094,32,16.667v12.666C32,30.804,30.804,32,29.333,32z M27.333,13.333c-1.838,0-3.333,1.495-3.333,3.333v12.666
				c0,0.736,0.599,1.334,1.333,1.334h4c0.735,0,1.334-0.598,1.334-1.334V16.667C30.667,14.829,29.171,13.333,27.333,13.333z"/>
        </g>
        <g>
          <path d="M28.667,13.333H26c-0.369,0-0.667-0.298-0.667-0.667V10c0-0.369,0.298-0.667,0.667-0.667h2.667
				c0.369,0,0.666,0.298,0.666,0.667v2.667C29.333,13.036,29.036,13.333,28.667,13.333z M26.667,12H28v-1.333h-1.333V12z"/>
        </g>
        <g>
          <path d="M31.333,29.333h-8c-0.369,0-0.666-0.298-0.666-0.666c0-0.369,0.297-0.667,0.666-0.667h8
				C31.702,28,32,28.298,32,28.667C32,29.035,31.702,29.333,31.333,29.333z"/>
        </g>
        <g>
          <path d="M31.333,17.333h-8c-0.369,0-0.666-0.298-0.666-0.666c0-0.369,0.297-0.667,0.666-0.667h8
				C31.702,16,32,16.298,32,16.667C32,17.035,31.702,17.333,31.333,17.333z"/>
        </g>
        <g>
          <path d="M9.667,32C4.336,32,0,27.663,0,22.333v-5c0-3.308,2.691-6,6-6c0.369,0,0.667,0.298,0.667,0.667
				S6.369,12.667,6,12.667c-2.573,0-4.667,2.094-4.667,4.667v5c0,4.596,3.738,8.334,8.333,8.334c4.596,0,8.333-3.738,8.333-8.334V11
				c0-2.389,1.944-4.333,4.333-4.333h2.334C26.505,6.667,28,8.162,28,10c0,0.369-0.298,0.667-0.667,0.667S26.667,10.369,26.667,10
				c0-1.103-0.898-2-2-2h-2.334c-1.654,0-3,1.346-3,3v11.333C19.333,27.663,14.997,32,9.667,32z"/>
        </g>
      </g>
    </g>
  </g></svg>