<svg id="svg-source" height="0" version="1.1" 
  xmlns="http://www.w3.org/2000/svg" style="position:absolute; margin-left: -100%" 
  xmlns:xlink="http://www.w3.org/1999/xlink"><g xmlns="http://www.w3.org/2000/svg" id="drug-medecine-syringue">
    <g id="Expanded">
      <g>
        <g>
          <path d="M16,32c-0.368,0-0.666-0.298-0.666-0.667V26c0-0.368,0.298-0.667,0.666-0.667s0.667,0.299,0.667,0.667
				v5.333C16.667,31.702,16.368,32,16,32z"/>
        </g>
        <g>
          <path d="M20.667,1.333h-9.333c-0.368,0-0.667-0.298-0.667-0.667C10.667,0.298,10.966,0,11.334,0h9.333
				c0.367,0,0.666,0.298,0.666,0.667C21.333,1.036,21.034,1.333,20.667,1.333z"/>
        </g>
        <g>
          <path d="M14,12h-2.666c-0.368,0-0.667-0.298-0.667-0.667c0-0.369,0.299-0.667,0.667-0.667H14
				c0.368,0,0.667,0.298,0.667,0.667C14.667,11.702,14.368,12,14,12z"/>
        </g>
        <g>
          <path d="M14,14.667h-2.666c-0.368,0-0.667-0.298-0.667-0.667s0.299-0.667,0.667-0.667H14
				c0.368,0,0.667,0.298,0.667,0.667S14.368,14.667,14,14.667z"/>
        </g>
        <g>
          <path d="M14,17.333h-2.666c-0.368,0-0.667-0.298-0.667-0.666c0-0.369,0.299-0.667,0.667-0.667H14
				c0.368,0,0.667,0.298,0.667,0.667C14.667,17.035,14.368,17.333,14,17.333z"/>
        </g>
        <g>
          <path d="M24.667,8H7.334C6.966,8,6.667,7.702,6.667,7.333c0-0.369,0.299-0.667,0.667-0.667h17.333
				c0.367,0,0.666,0.298,0.666,0.667C25.333,7.702,25.034,8,24.667,8z"/>
        </g>
        <g>
          <rect x="13.334" y="0.667" width="1.333" height="6.667"/>
        </g>
        <g>
          <rect x="17.333" y="0.667" width="1.334" height="6.667"/>
        </g>
        <g>
          <path d="M16,26.667c-2.94,0-5.333-2.691-5.333-6V7.333H12v13.333c0,2.572,1.794,4.666,4,4.666s4-2.094,4-4.666
				V7.333h1.333v13.333C21.333,23.976,18.94,26.667,16,26.667z"/>
        </g>
      </g>
    </g>
  </g></svg>