<svg id="svg-source" height="0" version="1.1" 
  xmlns="http://www.w3.org/2000/svg" style="position:absolute; margin-left: -100%" 
  xmlns:xlink="http://www.w3.org/1999/xlink"><g xmlns="http://www.w3.org/2000/svg" id="earth-globe">
    <g id="Expanded">
      <g>
        <g>
          <path d="M14.4,23.198c-6.347,0-11.51-5.163-11.51-11.51S8.053,0.178,14.4,0.178
				c6.347,0,11.511,5.164,11.511,11.51S20.747,23.198,14.4,23.198z M14.4,1.533c-5.6,0-10.156,4.556-10.156,10.156
				c0,5.601,4.556,10.156,10.156,10.156c5.6,0,10.156-4.556,10.156-10.156C24.557,6.088,20,1.533,14.4,1.533z"/>
        </g>
        <g>
          <path d="M14.4,26.577c-3.814,0-7.629-1.452-10.533-4.355l0.958-0.958c5.28,5.279,13.872,5.28,19.151,0
				c5.278-5.279,5.278-13.87,0-19.15l0.957-0.958c5.809,5.808,5.809,15.257,0,21.066C22.029,25.125,18.215,26.577,14.4,26.577z"/>
        </g>
        <g>
          <rect x="13.046" y="25.891" width="1.354" height="2.741"/>
        </g>
        <g>
          <rect x="14.4" y="25.891" width="1.354" height="2.741"/>
        </g>
        <g>
          <path d="M24.533,32H4.267l1.627-1.219c2.483-1.86,5.425-2.844,8.506-2.844c3.082,0,6.022,0.983,8.506,2.844
				L24.533,32z M8.672,30.646h11.457c-1.772-0.891-3.718-1.354-5.729-1.354C12.39,29.292,10.444,29.756,8.672,30.646z"/>
        </g>
        <g>
          <path d="M3.389,23.377c-0.173,0-0.347-0.066-0.479-0.198c-0.265-0.265-0.265-0.692,0-0.957l1.915-1.915
				c0.265-0.265,0.693-0.265,0.957,0c0.265,0.265,0.265,0.692,0,0.957l-1.915,1.915C3.735,23.311,3.562,23.377,3.389,23.377z"/>
        </g>
        <g>
          <path d="M23.497,3.269c-0.174,0-0.347-0.066-0.479-0.198c-0.265-0.265-0.265-0.692,0-0.958l1.915-1.915
				c0.265-0.265,0.692-0.265,0.958,0c0.264,0.265,0.264,0.693,0,0.957l-1.915,1.915C23.843,3.204,23.67,3.269,23.497,3.269z"/>
        </g>
      </g>
    </g>
  </g></svg>