<svg id="svg-source" height="0" version="1.1" 
  xmlns="http://www.w3.org/2000/svg" style="position:absolute; margin-left: -100%" 
  xmlns:xlink="http://www.w3.org/1999/xlink"><g xmlns="http://www.w3.org/2000/svg" id="eat-food-fork-knife">
    <g id="Expanded">
      <g>
        <g>
          <path d="M20.667,32C20.298,32,20,31.702,20,31.333V0.667C20,0.298,20.298,0,20.667,0
				c0.368,0,0.666,0.298,0.666,0.667v30.667C21.333,31.702,21.035,32,20.667,32z"/>
        </g>
        <g>
          <path d="M24.667,20.667h-4C20.298,20.667,20,20.368,20,20s0.298-0.667,0.667-0.667h3.33
				C23.909,8.132,21.607,1.56,20.655,1.332c-0.369,0-0.661-0.297-0.661-0.666C19.994,0.298,20.298,0,20.667,0
				c2.791,0,4.666,10.341,4.666,20C25.333,20.368,25.035,20.667,24.667,20.667z"/>
        </g>
        <g>
          <path d="M11.334,12c-2.573,0-4.667-2.094-4.667-4.667V0.667C6.667,0.298,6.965,0,7.334,0C7.702,0,8,0.298,8,0.667
				v6.667c0,1.838,1.496,3.333,3.334,3.333s3.333-1.495,3.333-3.333V0.667C14.667,0.298,14.965,0,15.334,0
				C15.702,0,16,0.298,16,0.667v6.667C16,9.906,13.906,12,11.334,12z"/>
        </g>
        <g>
          <path d="M11.334,32c-0.369,0-0.667-0.298-0.667-0.667V0.667C10.667,0.298,10.965,0,11.334,0
				C11.702,0,12,0.298,12,0.667v30.667C12,31.702,11.702,32,11.334,32z"/>
        </g>
      </g>
    </g>
  </g></svg>