<svg id="svg-source" height="0" version="1.1" 
  xmlns="http://www.w3.org/2000/svg" style="position:absolute; margin-left: -100%" 
  xmlns:xlink="http://www.w3.org/1999/xlink"><g xmlns="http://www.w3.org/2000/svg" id="eat-food-hotdog">
    <g id="Expanded">
      <g>
        <g>
          <path d="M5.558,27.109c-0.171,0-0.344-0.066-0.475-0.198c-0.783-0.784-0.783-2.061,0-2.845
				c0.787-0.783,2.063-0.783,2.846,0c0.262,0.262,0.687,0.262,0.949,0c0.261-0.262,0.261-0.687,0-0.948
				c-0.38-0.38-0.589-0.886-0.589-1.424c0-0.537,0.209-1.043,0.59-1.423c0.758-0.758,2.084-0.758,2.844,0.002
				c0.253,0.253,0.695,0.254,0.948,0c0.262-0.262,0.262-0.688,0-0.948c-0.783-0.785-0.783-2.062,0-2.846
				c0.759-0.76,2.085-0.76,2.845-0.001c0.128,0.127,0.296,0.196,0.475,0.196l0,0c0.179,0,0.347-0.069,0.474-0.196
				s0.196-0.294,0.196-0.474c0-0.179-0.069-0.347-0.196-0.474c-0.38-0.379-0.59-0.885-0.59-1.424c0-0.537,0.21-1.042,0.59-1.421
				c0.38-0.379,0.886-0.589,1.423-0.589c0,0,0,0,0.001,0c0.537,0,1.042,0.21,1.422,0.591c0.261,0.26,0.687,0.26,0.949-0.001
				c0.261-0.261,0.261-0.687,0-0.949c-0.38-0.378-0.59-0.884-0.59-1.422s0.21-1.043,0.59-1.422c0.759-0.76,2.085-0.761,2.845-0.001
				c0.263,0.263,0.688,0.261,0.949,0.001c0.127-0.127,0.196-0.295,0.196-0.474s-0.069-0.347-0.196-0.473
				c-0.784-0.786-0.784-2.062-0.001-2.847c0.787-0.783,2.062-0.783,2.846,0c0.263,0.263,0.263,0.687,0,0.949
				c-0.263,0.262-0.687,0.261-0.948-0.001c-0.262-0.262-0.687-0.262-0.949,0c-0.261,0.261-0.261,0.687,0.001,0.95
				c0.379,0.378,0.588,0.883,0.59,1.42c0,0.537-0.21,1.043-0.59,1.423c-0.76,0.76-2.085,0.76-2.845,0
				c-0.253-0.252-0.695-0.255-0.948,0c-0.127,0.126-0.196,0.295-0.196,0.474c0,0.18,0.069,0.347,0.195,0.474
				c0.785,0.786,0.785,2.062,0,2.846c-0.783,0.785-2.061,0.785-2.846,0.001c-0.127-0.127-0.294-0.198-0.474-0.198c0,0,0,0-0.001,0
				c-0.179,0-0.348,0.07-0.475,0.197c-0.127,0.126-0.196,0.294-0.196,0.473c0,0.18,0.069,0.348,0.196,0.474
				c0.38,0.38,0.59,0.886,0.59,1.423c0,0.538-0.21,1.044-0.59,1.423s-0.885,0.589-1.422,0.589c0,0,0,0,0,0
				c-0.537,0-1.042-0.21-1.422-0.59c-0.253-0.253-0.696-0.254-0.949,0c-0.261,0.262-0.261,0.688,0,0.949
				c0.38,0.379,0.589,0.885,0.589,1.423c0,0.537-0.209,1.042-0.589,1.422c-0.759,0.76-2.085,0.76-2.845,0
				c-0.252-0.253-0.695-0.255-0.948,0c-0.127,0.127-0.197,0.294-0.197,0.474s0.069,0.348,0.196,0.475
				c0.784,0.784,0.784,2.062,0,2.846c-0.785,0.782-2.062,0.783-2.845,0c-0.263-0.263-0.688-0.263-0.951,0
				c-0.26,0.261-0.26,0.687,0.001,0.949s0.261,0.687-0.001,0.949C5.902,27.043,5.73,27.109,5.558,27.109z"/>
        </g>
        <g>
          <path d="M6.507,30.184c-1.254,0-2.433-0.488-3.32-1.375c-1.83-1.83-1.83-4.809,0-6.639L22.155,3.202
				c0.887-0.887,2.065-1.375,3.32-1.375c1.254,0,2.433,0.488,3.319,1.375c1.83,1.83,1.83,4.809,0,6.639L9.827,28.809
				C8.94,29.695,7.761,30.184,6.507,30.184z M25.476,3.168c-0.896,0-1.737,0.349-2.372,0.982L4.136,23.118
				c-1.307,1.308-1.307,3.435,0,4.741c0.633,0.634,1.476,0.982,2.372,0.982c0.896,0,1.738-0.349,2.371-0.982L27.847,8.892
				c1.308-1.307,1.308-3.435,0-4.742C27.213,3.517,26.372,3.168,25.476,3.168z"/>
        </g>
        <g>
          <path d="M11.79,32c-0.012,0-0.024,0-0.036,0c-1.696-0.011-3.313-0.757-4.679-2.158l0.961-0.937
				c1.109,1.139,2.397,1.745,3.727,1.754c1.211,0.017,2.398-0.493,3.28-1.376L29.27,15.057c1.502-1.502,2.302-4.249-0.388-7.042
				l0.965-0.93c3.148,3.269,2.455,6.835,0.37,8.92L15.991,30.231C14.866,31.356,13.337,32,11.79,32z"/>
        </g>
        <g>
          <path d="M2.62,25.126c-0.175,0-0.348-0.068-0.479-0.202c-3.157-3.229-2.407-6.887-0.375-8.918L15.992,1.779
				c2.487-2.486,5.825-2.36,8.927,0.338c0.28,0.243,0.31,0.667,0.067,0.946c-0.243,0.28-0.667,0.308-0.946,0.066
				c-2.55-2.218-5.138-2.364-7.1-0.403L2.713,16.953c-1.633,1.635-2.148,4.442,0.385,7.032c0.259,0.265,0.254,0.69-0.011,0.948
				C2.958,25.062,2.789,25.126,2.62,25.126z"/>
        </g>
      </g>
    </g>
  </g></svg>