<svg id="svg-source" height="0" version="1.1" 
  xmlns="http://www.w3.org/2000/svg" style="position:absolute; margin-left: -100%" 
  xmlns:xlink="http://www.w3.org/1999/xlink"><g xmlns="http://www.w3.org/2000/svg" id="envelope-mail">
    <g id="Expanded">
      <g>
        <g>
          <path d="M21.872,7.333H10.115c-1.012,0-1.957-0.451-2.593-1.238L3.476,1.086c-0.161-0.2-0.193-0.475-0.083-0.707
				S3.737,0,3.994,0h23.999c0.257,0,0.491,0.148,0.602,0.379c0.111,0.231,0.078,0.507-0.083,0.707l-4.047,5.009
				C23.829,6.882,22.884,7.333,21.872,7.333z M5.389,1.333L8.56,5.256C8.941,5.729,9.508,6,10.115,6h11.757
				c0.607,0,1.175-0.271,1.557-0.744l3.17-3.923H5.389z"/>
        </g>
        <g>
          <path d="M28.007,32c-0.004-0.001-0.01-0.001-0.014,0H3.994c-0.25,0-0.479-0.14-0.593-0.361
				c-0.114-0.223-0.095-0.489,0.05-0.692l3.333-4.667C6.91,26.104,7.111,26,7.327,26H24.66c0.216,0,0.417,0.104,0.543,0.279
				l3.268,4.575c0.126,0.121,0.202,0.291,0.202,0.479C28.673,31.702,28.375,32,28.007,32z M5.289,30.667h21.409l-2.382-3.334H7.671
				L5.289,30.667z"/>
        </g>
        <g>
          <rect x="15.327" y="6" width="1.333" height="21.333"/>
        </g>
        <g>
          <rect x="3.327" width="1.333" height="32"/>
        </g>
        <g>
          <rect x="27.327" width="1.333" height="32"/>
        </g>
      </g>
    </g>
  </g></svg>