<svg id="svg-source" height="0" version="1.1" 
  xmlns="http://www.w3.org/2000/svg" style="position:absolute; margin-left: -100%" 
  xmlns:xlink="http://www.w3.org/1999/xlink"><g xmlns="http://www.w3.org/2000/svg" id="eye-dropper">
    <g id="Expanded">
      <g>
        <g>
          <path d="M23.333,12H8.667C8.298,12,8,11.701,8,11.333c0-0.368,0.298-0.667,0.667-0.667h14.667
				c0.369,0,0.667,0.299,0.667,0.667C24,11.701,23.702,12,23.333,12z"/>
        </g>
        <g>
          <path d="M14,16h-2.667c-0.369,0-0.667-0.299-0.667-0.667c0-0.368,0.298-0.667,0.667-0.667H14
				c0.369,0,0.667,0.299,0.667,0.667C14.667,15.701,14.369,16,14,16z"/>
        </g>
        <g>
          <path d="M14,18.667h-2.667c-0.369,0-0.667-0.299-0.667-0.667s0.298-0.667,0.667-0.667H14
				c0.369,0,0.667,0.299,0.667,0.667S14.369,18.667,14,18.667z"/>
        </g>
        <g>
          <path d="M14,21.333h-2.667c-0.369,0-0.667-0.299-0.667-0.666c0-0.368,0.298-0.667,0.667-0.667H14
				c0.369,0,0.667,0.299,0.667,0.667C14.667,21.034,14.369,21.333,14,21.333z"/>
        </g>
        <g>
          <path d="M17.333,32h-2.667C14.298,32,14,31.701,14,31.333v-2.438c-2.013-0.908-3.333-3.08-3.333-5.562V6
				c0-3.308,2.393-6,5.333-6c2.94,0,5.333,2.692,5.333,6v17.333c0,2.482-1.32,4.654-3.333,5.562v2.438
				C18,31.701,17.702,32,17.333,32z M15.333,30.667h1.333v-2.225c0-0.285,0.181-0.539,0.451-0.631
				C18.815,27.234,20,25.393,20,23.333V6c0-2.573-1.794-4.667-4-4.667S12,3.427,12,6v17.333c0,2.06,1.185,3.901,2.881,4.479
				c0.271,0.092,0.452,0.346,0.452,0.631V30.667z"/>
        </g>
      </g>
    </g>
  </g></svg>