<svg id="svg-source" height="0" version="1.1" 
  xmlns="http://www.w3.org/2000/svg" style="position:absolute; margin-left: -100%" 
  xmlns:xlink="http://www.w3.org/1999/xlink"><g xmlns="http://www.w3.org/2000/svg" id="factory-lift-warehouse">
    <g id="Expanded">
      <g>
        <g>
          <path d="M27.333,28.667c-1.838,0-3.333-1.496-3.333-3.334S25.495,22,27.333,22s3.334,1.495,3.334,3.333
				S29.171,28.667,27.333,28.667z M27.333,23.333c-1.103,0-2,0.897-2,2c0,1.104,0.897,2,2,2c1.104,0,2-0.896,2-2
				C29.333,24.23,28.437,23.333,27.333,23.333z"/>
        </g>
        <g>
          <path d="M8.667,28.667H6c-0.369,0-0.667-0.299-0.667-0.667V5.333c0-1.103,0.897-2,2-2s2,0.897,2,2V28
				C9.333,28.368,9.036,28.667,8.667,28.667z M6.667,27.333H8v-22c0-0.368-0.299-0.667-0.667-0.667
				c-0.368,0-0.667,0.299-0.667,0.667V27.333z"/>
        </g>
        <g>
          <path d="M18,28.667c-2.573,0-4.667-2.094-4.667-4.667s2.094-4.667,4.667-4.667c2.573,0,4.667,2.094,4.667,4.667
				S20.573,28.667,18,28.667z M18,20.667c-1.838,0-3.333,1.495-3.333,3.333s1.496,3.333,3.333,3.333s3.333-1.495,3.333-3.333
				S19.838,20.667,18,20.667z"/>
        </g>
        <g>
          <path d="M24.001,17.333c-0.054,0-0.108-0.006-0.162-0.02c-0.357-0.09-0.574-0.451-0.486-0.809l1.334-5.333
				c0.09-0.358,0.451-0.577,0.809-0.485c0.356,0.089,0.574,0.452,0.485,0.808l-1.333,5.333C24.57,17.132,24.3,17.333,24.001,17.333z
				"/>
        </g>
        <g>
          <path d="M18,16c-0.171,0-0.341-0.065-0.472-0.195l-1.333-1.333c-0.261-0.261-0.261-0.683,0-0.943
				c0.26-0.26,0.683-0.26,0.942,0l1.334,1.334c0.26,0.26,0.26,0.682,0,0.942C18.341,15.935,18.171,16,18,16z"/>
        </g>
        <g>
          <path d="M11.333,21.333c-0.171,0-0.342-0.064-0.472-0.195c-0.261-0.26-0.261-0.682,0-0.942l6-6
				c0.26-0.261,0.682-0.261,0.942,0s0.261,0.683,0,0.942l-6,6C11.675,21.269,11.504,21.333,11.333,21.333z"/>
        </g>
        <g>
          <path d="M18,20.667c-0.171,0-0.341-0.065-0.472-0.195c-0.26-0.261-0.26-0.683,0-0.943l3.334-3.333
				C20.987,16.07,21.156,16,21.333,16h7.334c0.368,0,0.666,0.298,0.666,0.667c0,0.368-0.298,0.666-0.666,0.666h-7.058l-3.138,3.139
				C18.341,20.602,18.171,20.667,18,20.667z"/>
        </g>
        <g>
          <path d="M8.667,28.667h-8C0.298,28.667,0,28.368,0,28s0.298-0.667,0.667-0.667h8c0.369,0,0.667,0.299,0.667,0.667
				S9.036,28.667,8.667,28.667z"/>
        </g>
        <g>
          <path d="M6,22H2c-0.369,0-0.667-0.298-0.667-0.667c0-0.368,0.298-0.666,0.667-0.666h4
				c0.369,0,0.667,0.298,0.667,0.666C6.667,21.702,6.369,22,6,22z"/>
        </g>
        <g>
          <rect x="21.465" y="25.333" width="3.286" height="1.334"/>
        </g>
        <g>
          <path d="M31.333,26.667h-1.418v-1.334h0.752V19l-2.4-1.8C28.099,17.074,28,16.876,28,16.667V9.333
				c0-1.103-0.897-2-2-2h-2.667C17.084,7.333,12,12.417,12,18.667v6.666h2.536v1.334h-3.202c-0.369,0-0.667-0.299-0.667-0.667
				v-7.333C10.667,11.682,16.349,6,23.333,6H26c1.838,0,3.333,1.496,3.333,3.333v7l2.4,1.801C31.901,18.259,32,18.457,32,18.667V26
				C32,26.368,31.702,26.667,31.333,26.667z"/>
        </g>
      </g>
    </g>
  </g></svg>