<svg id="svg-source" height="0" version="1.1" 
  xmlns="http://www.w3.org/2000/svg" style="position:absolute; margin-left: -100%" 
  xmlns:xlink="http://www.w3.org/1999/xlink"><g xmlns="http://www.w3.org/2000/svg" id="first-aid-medecine-shield">
    <g id="Expanded">
      <g>
        <g>
          <path d="M16,32c-0.061,0-0.121-0.009-0.18-0.024C4.147,28.706,2.728,21.529,2.673,21.226
				c-0.008-0.039-0.011-0.078-0.011-0.119V1.351c0-0.269,0.162-0.513,0.411-0.616c0.25-0.103,0.536-0.046,0.728,0.145
				c1.486,1.486,3.456,2.304,5.546,2.304c2.384,0,4.615-1.074,6.123-2.947c0.254-0.315,0.808-0.315,1.062,0
				c1.507,1.873,3.737,2.947,6.121,2.947c2.091,0,4.062-0.819,5.548-2.304c0.19-0.191,0.478-0.249,0.727-0.145
				s0.411,0.347,0.411,0.616v19.756c0,0.041-0.003,0.08-0.01,0.119c-0.055,0.304-1.476,7.48-13.148,10.75
				C16.122,31.991,16.061,32,16,32z M3.996,21.036c0.067,0.287,0.479,1.82,1.97,3.64c1.516,1.849,4.482,4.373,10.034,5.965
				c5.552-1.592,8.519-4.117,10.034-5.965c1.488-1.815,1.902-3.347,1.971-3.64V2.792c-1.553,1.121-3.408,1.725-5.353,1.725
				c-2.532,0-4.916-1.034-6.652-2.862c-1.735,1.828-4.121,2.862-6.653,2.862c-1.943,0-3.799-0.604-5.351-1.725V21.036z"/>
        </g>
        <g>
          <path d="M18.668,23.33h-5.335v-5.335H7.997V12.66h5.336V7.324h5.335v5.335h5.335v5.335h-5.335V23.33z
				 M14.666,21.996h2.668v-5.335h5.335v-2.668h-5.335V8.658h-2.668v5.335H9.331v2.668h5.335V21.996z"/>
        </g>
      </g>
    </g>
  </g></svg>