<svg id="svg-source" height="0" version="1.1" 
  xmlns="http://www.w3.org/2000/svg" style="position:absolute; margin-left: -100%" 
  xmlns:xlink="http://www.w3.org/1999/xlink"><g xmlns="http://www.w3.org/2000/svg" id="food-ice-cream">
    <g id="Expanded">
      <g>
        <g>
          <path d="M22,24H10c-0.369,0-0.667-0.298-0.667-0.667V6.667C9.333,2.991,12.323,0,16,0
				c3.676,0,6.667,2.991,6.667,6.667v16.667C22.667,23.702,22.368,24,22,24z M10.666,22.667h10.667v-16
				c0-2.94-2.393-5.333-5.333-5.333c-2.941,0-5.334,2.393-5.334,5.333V22.667z"/>
        </g>
        <g>
          <path d="M16,32c-0.369,0-0.667-0.298-0.667-0.667v-8c0-0.368,0.298-0.666,0.667-0.666
				c0.368,0,0.667,0.298,0.667,0.666v8C16.667,31.702,16.368,32,16,32z"/>
        </g>
        <g>
          <path d="M19.333,16.667c-1.103,0-2-0.898-2-2V9.333c0-0.369,0.299-0.667,0.667-0.667s0.667,0.298,0.667,0.667
				v5.333c0,0.368,0.299,0.667,0.666,0.667C19.702,15.333,20,15.631,20,16S19.702,16.667,19.333,16.667z"/>
        </g>
        <g>
          <path d="M14,11.333c-1.103,0-2-0.897-2-2V6.667C12,6.298,12.298,6,12.666,6c0.369,0,0.667,0.298,0.667,0.667
				v2.667C13.333,9.701,13.632,10,14,10c0.367,0,0.666-0.299,0.666-0.667c0-0.369,0.298-0.667,0.667-0.667S16,8.964,16,9.333
				C16,10.436,15.103,11.333,14,11.333z"/>
        </g>
        <g>
          <path d="M18,10c-0.368,0-0.667-0.298-0.667-0.667c0-0.368-0.299-0.667-0.666-0.667
				C16.299,8.667,16,8.965,16,9.333C16,9.702,15.702,10,15.333,10s-0.667-0.298-0.667-0.667c0-1.103,0.897-2,2.001-2
				c1.103,0,2,0.897,2,2C18.667,9.702,18.368,10,18,10z"/>
        </g>
      </g>
    </g>
  </g></svg>