<svg id="svg-source" height="0" version="1.1" 
  xmlns="http://www.w3.org/2000/svg" style="position:absolute; margin-left: -100%" 
  xmlns:xlink="http://www.w3.org/1999/xlink"><g xmlns="http://www.w3.org/2000/svg" id="frame-picture">
    <g id="Expanded">
      <g>
        <g>
          <path d="M9.805,8.471L8.862,7.529l7.333-7.333C16.32,0.07,16.49,0,16.667,0c0,0,0.001,0,0.002,0
				c0.178,0,0.347,0.071,0.472,0.198l7.25,7.333l-0.948,0.938l-6.778-6.857L9.805,8.471z"/>
        </g>
        <g>
          <path d="M32,32H0V7.333h32V32z M1.333,30.667h29.333v-22H1.333V30.667z"/>
        </g>
        <g>
          <path d="M29.333,29.333H2.667V10h26.667V29.333z M4,28h24V11.333H4V28z"/>
        </g>
        <g>
          <path d="M18.155,29.094C17.931,28.825,13.672,23.66,12,17.761c-1.672,5.9-5.931,11.064-6.155,11.333l-1.024-0.854
				c0.065-0.077,6.513-7.904,6.513-14.906c0-0.368,0.299-0.667,0.667-0.667s0.667,0.299,0.667,0.667
				c0,7.01,6.447,14.829,6.512,14.906L18.155,29.094z"/>
        </g>
        <g>
          <rect x="8.667" y="23.333" width="6.667" height="1.334"/>
        </g>
        <g>
          <path d="M25.333,28.667H24v-4h-1.333v4h-1.334V24c0-0.368,0.299-0.667,0.667-0.667h2.667
				c0.367,0,0.666,0.299,0.666,0.667V28.667z"/>
        </g>
        <g>
          <path d="M25.333,24H24v-4c0-0.368,0.299-0.667,0.667-0.667h4v1.334h-3.334V24z"/>
        </g>
      </g>
    </g>
  </g></svg>