<svg id="svg-source" height="0" version="1.1" 
  xmlns="http://www.w3.org/2000/svg" style="position:absolute; margin-left: -100%" 
  xmlns:xlink="http://www.w3.org/1999/xlink"><g xmlns="http://www.w3.org/2000/svg" id="grid-lines">
    <g id="Expanded">
      <g>
        <g>
          <path d="M8.667,32C8.298,32,8,31.7,8,31.334V0.667C8,0.299,8.298,0,8.667,0c0.368,0,0.666,0.299,0.666,0.667
				v30.667C9.333,31.7,9.035,32,8.667,32z"/>
        </g>
        <g>
          <path d="M16,32c-0.369,0-0.667-0.3-0.667-0.666V0.667C15.333,0.299,15.631,0,16,0
				c0.369,0,0.666,0.299,0.666,0.667v30.667C16.666,31.7,16.369,32,16,32z"/>
        </g>
        <g>
          <path d="M23.334,32c-0.369,0-0.668-0.3-0.668-0.666V0.667C22.666,0.299,22.965,0,23.334,0
				C23.701,0,24,0.299,24,0.667v30.667C24,31.7,23.701,32,23.334,32z"/>
        </g>
        <g>
          <path d="M31.334,9.333H0.667C0.298,9.333,0,9.034,0,8.667C0,8.299,0.298,8,0.667,8h30.667
				C31.701,8,32,8.299,32,8.667C32,9.034,31.701,9.333,31.334,9.333z"/>
        </g>
        <g>
          <path d="M31.334,16.666H0.667C0.298,16.666,0,16.368,0,16s0.298-0.667,0.667-0.667h30.667
				C31.701,15.333,32,15.632,32,16S31.701,16.666,31.334,16.666z"/>
        </g>
        <g>
          <path d="M31.334,24H0.667C0.298,24,0,23.7,0,23.334c0-0.368,0.298-0.668,0.667-0.668h30.667
				c0.367,0,0.666,0.3,0.666,0.668C32,23.7,31.701,24,31.334,24z"/>
        </g>
      </g>
    </g>
  </g></svg>