<svg id="svg-source" height="0" version="1.1" 
  xmlns="http://www.w3.org/2000/svg" style="position:absolute; margin-left: -100%" 
  xmlns:xlink="http://www.w3.org/1999/xlink"><g xmlns="http://www.w3.org/2000/svg" id="happy-smiley">
    <g id="Expanded">
      <g>
        <g>
          <path d="M16,32C7.178,32,0,24.821,0,16C0,7.178,7.178,0,16,0c8.821,0,16,7.178,16,16C32,24.821,24.821,32,16,32z
				 M16,1.333C7.913,1.333,1.333,7.913,1.333,16c0,8.087,6.579,14.667,14.667,14.667c8.087,0,14.667-6.58,14.667-14.667
				C30.667,7.913,24.087,1.333,16,1.333z"/>
        </g>
        <g>
          <path d="M16,28c-5.881,0-10.667-4.785-10.667-10.667c0-0.368,0.299-0.666,0.667-0.666s0.667,0.298,0.667,0.666
				c0,5.147,4.187,9.334,9.333,9.334c5.147,0,9.333-4.187,9.333-9.334c0-0.368,0.299-0.666,0.667-0.666s0.667,0.298,0.667,0.666
				C26.667,23.215,21.882,28,16,28z"/>
        </g>
        <g>
          <path d="M12.667,14C12.299,14,12,13.702,12,13.333c0-1.103-0.897-2-2-2s-2,0.897-2,2C8,13.702,7.701,14,7.333,14
				c-0.368,0-0.667-0.298-0.667-0.667C6.667,11.496,8.162,10,10,10s3.333,1.496,3.333,3.333C13.333,13.702,13.035,14,12.667,14z"/>
        </g>
        <g>
          <path d="M24.667,14C24.299,14,24,13.702,24,13.333c0-1.103-0.897-2-2-2s-2,0.897-2,2
				C20,13.702,19.701,14,19.333,14c-0.367,0-0.666-0.298-0.666-0.667C18.667,11.496,20.162,10,22,10s3.333,1.496,3.333,3.333
				C25.333,13.702,25.034,14,24.667,14z"/>
        </g>
      </g>
    </g>
  </g></svg>