<svg id="svg-source" height="0" version="1.1" 
  xmlns="http://www.w3.org/2000/svg" style="position:absolute; margin-left: -100%" 
  xmlns:xlink="http://www.w3.org/1999/xlink"><g xmlns="http://www.w3.org/2000/svg" id="headset-sound">
    <g id="Expanded">
      <g>
        <g>
          <path d="M27.333,16.333H26v-2c0-5.514-4.485-10-10-10c-5.514,0-10,4.486-10,10v2H4.667v-2
				C4.667,8.084,9.75,3,16,3c6.249,0,11.333,5.084,11.333,11.333V16.333z"/>
        </g>
        <g>
          <path d="M3.333,25.667C1.496,25.667,0,24.171,0,22.333S1.496,19,3.333,19v1.333c-1.103,0-2,0.897-2,2
				c0,1.104,0.897,2,2,2V25.667z"/>
        </g>
        <g>
          <path d="M6.667,29H5.333c-1.471,0-2.667-1.196-2.667-2.667v-8c0-1.471,1.196-2.666,2.667-2.666h1.333
				c1.471,0,2.667,1.195,2.667,2.666v8C9.333,27.804,8.137,29,6.667,29z M5.333,17C4.598,17,4,17.598,4,18.333v8
				c0,0.736,0.598,1.334,1.333,1.334h1.333C7.402,27.667,8,27.069,8,26.333v-8C8,17.598,7.402,17,6.667,17H5.333z"/>
        </g>
        <g>
          <path d="M28.667,25.667v-1.334c1.103,0,2-0.896,2-2c0-1.103-0.897-2-2-2V19C30.505,19,32,20.495,32,22.333
				S30.505,25.667,28.667,25.667z"/>
        </g>
        <g>
          <path d="M26,29c-1.838,0-3.333-1.495-3.333-3.333V19c0-1.838,1.495-3.333,3.333-3.333s3.333,1.495,3.333,3.333
				v6.667C29.333,27.505,27.838,29,26,29z M26,17c-1.103,0-2,0.897-2,2v6.667c0,1.103,0.897,2,2,2s2-0.897,2-2V19
				C28,17.897,27.103,17,26,17z"/>
        </g>
      </g>
    </g>
  </g></svg>