<svg id="svg-source" height="0" version="1.1" 
  xmlns="http://www.w3.org/2000/svg" style="position:absolute; margin-left: -100%" 
  xmlns:xlink="http://www.w3.org/1999/xlink"><g xmlns="http://www.w3.org/2000/svg" id="home-house">
    <g id="Expanded">
      <g>
        <g>
          <path d="M28,31.129h-9.333v-8.668h-5.333v8.668H4v-14c0-0.369,0.298-0.667,0.667-0.667
				c0.369,0,0.667,0.299,0.667,0.667v12.666H12v-8.666h8v8.666h6.667v-12c0-0.367,0.298-0.666,0.666-0.666
				c0.369,0,0.667,0.299,0.667,0.666V31.129z"/>
        </g>
        <g>
          <path d="M31.333,17.129c-0.166,0-0.331-0.062-0.461-0.186L16,2.717L1.127,16.943
				c-0.266,0.254-0.688,0.247-0.943-0.021c-0.254-0.266-0.245-0.688,0.021-0.943L16,0.872l15.793,15.107
				c0.266,0.255,0.275,0.677,0.021,0.943C31.684,17.059,31.509,17.129,31.333,17.129z"/>
        </g>
        <g>
          <path d="M26,9.128c-0.368,0-0.667-0.299-0.667-0.667v-4h-4c-0.368,0-0.666-0.299-0.666-0.667
				s0.298-0.667,0.666-0.667h5.334v5.333C26.667,8.829,26.368,9.128,26,9.128z"/>
        </g>
      </g>
    </g>
  </g></svg>