<svg id="svg-source" height="0" version="1.1" 
  xmlns="http://www.w3.org/2000/svg" style="position:absolute; margin-left: -100%" 
  xmlns:xlink="http://www.w3.org/1999/xlink"><g xmlns="http://www.w3.org/2000/svg" id="ibook-laptop">
    <g id="Expanded">
      <g>
        <g>
          <path d="M26.667,16.667H5.333V3.333h21.333V16.667z M6.667,15.333h18.667V4.667H6.667V15.333z"/>
        </g>
        <g>
          <path d="M22.188,26H9.812l1-4h10.375L22.188,26z M11.521,24.667h8.958l-0.334-1.334h-8.292L11.521,24.667z"/>
        </g>
        <g>
          <path d="M29.333,31.333H2.667C1.196,31.333,0,30.138,0,28.667l0.025-0.851l2.641-9.243V3.333
				c0-1.471,1.196-2.667,2.667-2.667h21.333c1.471,0,2.666,1.196,2.666,2.667v14.58L32,28v0.667
				C32,30.138,30.804,31.333,29.333,31.333z M1.333,28.094v0.573C1.333,29.402,1.931,30,2.667,30h26.667
				c0.736,0,1.334-0.598,1.334-1.333v-0.58L28,18V3.333C28,2.598,27.402,2,26.667,2H5.333C4.598,2,4,2.598,4,3.333L3.975,18.851
				L1.333,28.094z"/>
        </g>
        <g>
          <rect x="3.333" y="18" width="25.333" height="1.333"/>
        </g>
        <g>
          <rect x="0.667" y="27.333" width="30.667" height="1.334"/>
        </g>
      </g>
    </g>
  </g></svg>