<svg id="svg-source" height="0" version="1.1" 
  xmlns="http://www.w3.org/2000/svg" style="position:absolute; margin-left: -100%" 
  xmlns:xlink="http://www.w3.org/1999/xlink"><g xmlns="http://www.w3.org/2000/svg" id="ink-pen">
    <g id="Expanded">
      <g>
        <g>
          <path d="M20.143,32H1.199l0.055-0.72c0.307-4.063,2.602-6.489,6.824-7.218V23.3H6.74v-4.016h8.031V23.3h-1.339
				v0.763c4.165,0.72,6.345,3.085,6.656,7.218L20.143,32z M2.669,30.661h16.007c-0.462-3.217-2.34-4.88-6.001-5.359l-0.582-0.076
				v-3.265h1.338v-1.338H8.078v1.338h1.338v3.264l-0.582,0.077C5.12,25.788,3.144,27.498,2.669,30.661z"/>
        </g>
        <g>
          <path d="M13.074,17.956c-0.171,0-0.343-0.066-0.474-0.196c-0.262-0.262-0.262-0.685,0-0.946L28.896,0.517
				c0.262-0.262,0.685-0.262,0.946,0s0.262,0.685,0,0.946L13.547,17.76C13.417,17.89,13.245,17.956,13.074,17.956z"/>
        </g>
        <g>
          <path d="M15.172,15.856c-0.171,0-0.342-0.065-0.473-0.196c-2.123-2.123-0.46-7.111,3.786-11.357
				c2.026-2.026,4.302-3.541,6.407-4.267c0.204-0.071,0.431-0.038,0.605,0.087c0.177,0.126,0.281,0.329,0.281,0.545v4.56
				c0,0.37-0.3,0.669-0.669,0.669c-0.37,0-0.67-0.3-0.67-0.669V1.656c-1.656,0.749-3.438,2.021-5.009,3.593
				c-3.905,3.904-5.129,8.122-3.787,9.465c0.262,0.262,0.262,0.685,0,0.946C15.515,15.792,15.344,15.856,15.172,15.856z"/>
        </g>
        <g>
          <path d="M26.76,10.584h-6.324c-0.369,0-0.669-0.3-0.669-0.669s0.3-0.669,0.669-0.669h6.324
				c0.37,0,0.67,0.3,0.67,0.669S27.13,10.584,26.76,10.584z"/>
        </g>
        <g>
          <path d="M17.151,16.567c-0.999,0-1.84-0.295-2.452-0.907c-0.262-0.261-0.262-0.685,0-0.946
				c0.261-0.261,0.685-0.261,0.946,0c1.087,1.087,3.661,0.464,6.456-1.453h-4.343c-0.369,0-0.669-0.3-0.669-0.669
				c0-0.369,0.3-0.669,0.669-0.669h6.324c0.281,0,0.533,0.176,0.63,0.44c0.096,0.265,0.016,0.561-0.199,0.742
				C21.822,15.361,19.168,16.567,17.151,16.567z"/>
        </g>
        <g>
          <path d="M28.768,7.907h-5.655c-0.369,0-0.669-0.3-0.669-0.669c0-0.37,0.3-0.669,0.669-0.669h5.262
				c1.236-2.299,1.436-4.191,0.522-5.105c-0.262-0.262-0.262-0.685,0-0.946c0.262-0.262,0.685-0.262,0.946,0
				c1.432,1.432,1.251,4.002-0.494,7.053C29.23,7.778,29.008,7.907,28.768,7.907z"/>
        </g>
      </g>
    </g>
  </g></svg>