<svg id="svg-source" height="0" version="1.1" 
  xmlns="http://www.w3.org/2000/svg" style="position:absolute; margin-left: -100%" 
  xmlns:xlink="http://www.w3.org/1999/xlink"><g xmlns="http://www.w3.org/2000/svg" id="ipad">
    <g id="Expanded">
      <g>
        <g>
          <path d="M25.062,30.5H6.938c-1.665,0-3.021-1.354-3.021-3.021V4.521c0-1.666,1.355-3.021,3.021-3.021h18.125
				c1.665,0,3.021,1.355,3.021,3.021v22.958C28.083,29.146,26.728,30.5,25.062,30.5z M6.938,2.708c-0.998,0-1.812,0.813-1.812,1.812
				v22.958c0,0.998,0.814,1.812,1.812,1.812h18.125c1,0,1.812-0.814,1.812-1.812V4.521c0-1-0.812-1.812-1.812-1.812H6.938z"/>
        </g>
        <g>
          <path d="M16.102,26.271c-0.668,0-1.209,0.54-1.209,1.209c0,0.667,0.541,1.208,1.209,1.208
				c0.667,0,1.208-0.541,1.208-1.208C17.31,26.811,16.769,26.271,16.102,26.271L16.102,26.271z"/>
        </g>
        <g>
          <path d="M25.062,25.667H6.938c-0.333,0-0.604-0.271-0.604-0.604V5.729c0-0.333,0.271-0.604,0.604-0.604h18.125
				c0.333,0,0.604,0.271,0.604,0.604v19.333C25.667,25.396,25.396,25.667,25.062,25.667z M7.542,24.458h16.916V6.333H7.542V24.458z"/>
        </g>
        <g>
          <path d="M16.102,3.312c-0.335,0-0.604,0.27-0.604,0.604c0,0.334,0.27,0.604,0.604,0.604
				c0.334,0,0.604-0.27,0.604-0.604C16.705,3.583,16.434,3.312,16.102,3.312L16.102,3.312z"/>
        </g>
      </g>
    </g>
  </g></svg>