<svg id="svg-source" height="0" version="1.1" 
  xmlns="http://www.w3.org/2000/svg" style="position:absolute; margin-left: -100%" 
  xmlns:xlink="http://www.w3.org/1999/xlink"><g xmlns="http://www.w3.org/2000/svg" id="iphone">
    <g id="Expanded">
      <g>
        <g>
          <path d="M23.333,32H8.666c-1.838,0-3.333-1.495-3.333-3.333V3.333C5.333,1.495,6.828,0,8.666,0h14.667
				c1.838,0,3.334,1.495,3.334,3.333v25.334C26.667,30.505,25.171,32,23.333,32z M8.666,1.333c-1.103,0-2,0.897-2,2v25.334
				c0,1.103,0.897,2,2,2h14.667c1.104,0,2-0.897,2-2V3.333c0-1.103-0.896-2-2-2H8.666z"/>
        </g>
        <g>
          <path d="M26,6.667H6C5.631,6.667,5.333,6.368,5.333,6S5.631,5.333,6,5.333h20c0.368,0,0.667,0.299,0.667,0.667
				S26.368,6.667,26,6.667z"/>
        </g>
        <g>
          <path d="M26,26.667H6c-0.369,0-0.667-0.299-0.667-0.667S5.631,25.333,6,25.333h20
				c0.368,0,0.667,0.299,0.667,0.667S26.368,26.667,26,26.667z"/>
        </g>
        <g>
          <path d="M16,27.333c-0.736,0-1.334,0.598-1.334,1.334C14.666,29.402,15.264,30,16,30
				c0.735,0,1.333-0.598,1.333-1.333C17.333,27.931,16.735,27.333,16,27.333L16,27.333z"/>
        </g>
        <g>
          <path d="M19.333,4h-6.667C12.298,4,12,3.701,12,3.333c0-0.367,0.298-0.666,0.666-0.666h6.667
				C19.702,2.667,20,2.966,20,3.333C20,3.701,19.702,4,19.333,4z"/>
        </g>
      </g>
    </g>
  </g></svg>