<svg id="svg-source" height="0" version="1.1" 
  xmlns="http://www.w3.org/2000/svg" style="position:absolute; margin-left: -100%" 
  xmlns:xlink="http://www.w3.org/1999/xlink"><g xmlns="http://www.w3.org/2000/svg" id="ipod-mini-music">
    <g id="Expanded">
      <g>
        <g>
          <path d="M16.667,32H4.666c-1.838,0-3.333-1.495-3.333-3.333v-16h1.333v16c0,1.103,0.897,2,2,2h12.001
				c1.103,0,2-0.897,2-2v-16H20v16C20,30.505,18.505,32,16.667,32z"/>
        </g>
        <g>
          <path d="M18,14.667H3.333c-1.103,0-2-0.897-2-2s0.897-2,2-2H18c1.103,0,2,0.897,2,2S19.103,14.667,18,14.667z
				 M3.333,12c-0.367,0-0.667,0.299-0.667,0.667s0.3,0.667,0.667,0.667H18c0.367,0,0.667-0.3,0.667-0.667S18.367,12,18,12H3.333z"/>
        </g>
        <g>
          <path d="M10.666,29.333C6.99,29.333,4,26.343,4,22.667S6.99,16,10.666,16c3.677,0,6.667,2.991,6.667,6.667
				S14.343,29.333,10.666,29.333z M10.666,17.333c-2.94,0-5.333,2.393-5.333,5.334c0,2.94,2.393,5.333,5.333,5.333
				C13.607,28,16,25.607,16,22.667C16,19.726,13.607,17.333,10.666,17.333z"/>
        </g>
        <g>
          <path d="M10.666,26.667c-2.206,0-4-1.795-4-4c0-2.206,1.794-4,4-4s4,1.794,4,4
				C14.666,24.872,12.872,26.667,10.666,26.667z M10.666,20C9.195,20,8,21.196,8,22.667s1.195,2.666,2.666,2.666
				s2.667-1.195,2.667-2.666S12.137,20,10.666,20z"/>
        </g>
        <g>
          <path d="M15.333,5.333H10v-4h5.333V5.333z M11.333,4H14V2.667h-2.667V4z"/>
        </g>
        <g>
          <path d="M8,6.667c-1.838,0-3.334-1.495-3.334-3.333S6.162,0,8,0s3.333,1.496,3.333,3.333S9.838,6.667,8,6.667z
				 M8,1.333c-1.103,0-2,0.897-2,2s0.897,2,2,2s2-0.897,2-2S9.103,1.333,8,1.333z"/>
        </g>
        <g>
          <path d="M26.667,32c-2.206,0-4-1.794-4-4V17.333c0-0.735-0.598-1.333-1.334-1.333h-2v-1.333h2
				c1.471,0,2.667,1.196,2.667,2.667V28c0,1.471,1.196,2.667,2.667,2.667s2.666-1.196,2.666-2.667V7.333C29.333,5.496,27.838,4,26,4
				H14.666V2.667H26c2.573,0,4.667,2.094,4.667,4.667V28C30.667,30.206,28.872,32,26.667,32z"/>
        </g>
        <g>
          <path d="M8,2.667c-0.369,0-0.667,0.298-0.667,0.667C7.333,3.702,7.631,4,8,4c0.368,0,0.666-0.298,0.666-0.667
				C8.666,2.964,8.368,2.667,8,2.667L8,2.667z"/>
        </g>
      </g>
    </g>
  </g></svg>