<svg id="svg-source" height="0" version="1.1" 
  xmlns="http://www.w3.org/2000/svg" style="position:absolute; margin-left: -100%" 
  xmlns:xlink="http://www.w3.org/1999/xlink"><g xmlns="http://www.w3.org/2000/svg" id="ipod">
    <g id="Expanded">
      <g>
        <g>
          <path d="M26.667,32c-2.206,0-4-1.794-4-4V6c0-0.735-0.598-1.333-1.334-1.333h-0.666V3.333h0.666
				C22.804,3.333,24,4.529,24,6v22c0,1.471,1.196,2.667,2.667,2.667s2.666-1.196,2.666-2.667V18h1.334v10
				C30.667,30.206,28.872,32,26.667,32z"/>
        </g>
        <g>
          <path d="M30,18.667c-1.103,0-2-0.897-2-2v-4c0-1.103,0.897-2,2-2s2,0.897,2,2v4C32,17.77,31.103,18.667,30,18.667
				z M30,12c-0.368,0-0.667,0.299-0.667,0.667v4c0,0.367,0.299,0.666,0.667,0.666s0.667-0.299,0.667-0.666v-4
				C30.667,12.299,30.368,12,30,12z"/>
        </g>
        <g>
          <path d="M29.333,17.333H28c-1.471,0-2.667-1.196-2.667-2.667S26.529,12,28,12h1.333V17.333z M28,13.334
				c-0.735,0-1.333,0.598-1.333,1.332C26.667,15.402,27.265,16,28,16V13.334z"/>
        </g>
        <g>
          <path d="M18,32H3.333C1.496,32,0,30.505,0,28.667V3.333C0,1.496,1.496,0,3.333,0H18
				c1.838,0,3.333,1.496,3.333,3.333v25.333C21.333,30.505,19.838,32,18,32z M3.333,1.333c-1.103,0-2,0.897-2,2v25.333
				c0,1.103,0.897,2,2,2H18c1.103,0,2-0.897,2-2V3.333c0-1.103-0.897-2-2-2H3.333z"/>
        </g>
        <g>
          <path d="M20.667,6.667h-20C0.298,6.667,0,6.368,0,6s0.298-0.667,0.667-0.667h20c0.368,0,0.666,0.299,0.666,0.667
				S21.035,6.667,20.667,6.667z"/>
        </g>
        <g>
          <path d="M20.667,26.667h-20C0.298,26.667,0,26.368,0,26s0.298-0.667,0.667-0.667h20
				c0.368,0,0.666,0.299,0.666,0.667S21.035,26.667,20.667,26.667z"/>
        </g>
        <g>
          <path d="M10.667,27.333c-0.736,0-1.333,0.598-1.333,1.334c0,0.735,0.597,1.333,1.333,1.333
				C11.403,30,12,29.402,12,28.667C12,27.931,11.403,27.333,10.667,27.333L10.667,27.333z"/>
        </g>
        <g>
          <path d="M10.667,2.667C10.298,2.667,10,2.964,10,3.333C10,3.702,10.298,4,10.667,4
				c0.369,0,0.667-0.298,0.667-0.667C11.333,2.964,11.036,2.667,10.667,2.667L10.667,2.667z"/>
        </g>
      </g>
    </g>
  </g></svg>