<svg id="svg-source" height="0" version="1.1" 
  xmlns="http://www.w3.org/2000/svg" style="position:absolute; margin-left: -100%" 
  xmlns:xlink="http://www.w3.org/1999/xlink"><g xmlns="http://www.w3.org/2000/svg" id="ipod-music">
    <g id="Expanded">
      <g>
        <g>
          <path d="M23.333,32H8.666c-1.838,0-3.333-1.495-3.333-3.333V3.333C5.333,1.496,6.828,0,8.666,0h14.667
				c1.838,0,3.334,1.496,3.334,3.333v25.333C26.667,30.505,25.171,32,23.333,32z M8.666,1.333c-1.103,0-2,0.897-2,2v25.333
				c0,1.103,0.897,2,2,2h14.667c1.104,0,2-0.897,2-2V3.333c0-1.103-0.896-2-2-2H8.666z"/>
        </g>
        <g>
          <path d="M23.333,14.667H8.666C8.299,14.667,8,14.368,8,14V3.333c0-0.368,0.299-0.667,0.666-0.667h14.667
				C23.701,2.667,24,2.965,24,3.333V14C24,14.368,23.701,14.667,23.333,14.667z M9.333,13.333h13.334V4H9.333V13.333z"/>
        </g>
        <g>
          <path d="M16,29.333c-3.677,0-6.667-2.99-6.667-6.666S12.323,16,16,16c3.676,0,6.667,2.991,6.667,6.667
				S19.676,29.333,16,29.333z M16,17.333c-2.941,0-5.334,2.393-5.334,5.334C10.666,25.607,13.059,28,16,28
				c2.94,0,5.333-2.393,5.333-5.333C21.333,19.726,18.94,17.333,16,17.333z"/>
        </g>
        <g>
          <path d="M16,26.667c-2.206,0-4-1.795-4-4c0-2.206,1.794-4,4-4s4,1.794,4,4C20,24.872,18.206,26.667,16,26.667z
				 M16,20c-1.471,0-2.667,1.196-2.667,2.667s1.196,2.666,2.667,2.666s2.667-1.195,2.667-2.666S17.471,20,16,20z"/>
        </g>
      </g>
    </g>
  </g></svg>