<svg id="svg-source" height="0" version="1.1" 
  xmlns="http://www.w3.org/2000/svg" style="position:absolute; margin-left: -100%" 
  xmlns:xlink="http://www.w3.org/1999/xlink"><g xmlns="http://www.w3.org/2000/svg" id="japan-tea">
    <g id="Expanded">
      <g>
        <g>
          <g>
            <path d="M23.985,24.333H8.014c-0.209,0-0.407-0.098-0.533-0.266c-1.405-1.867-2.148-4.08-2.148-6.4
					C5.333,11.786,10.118,7,16,7s10.667,4.786,10.667,10.667c0,2.32-0.742,4.533-2.148,6.4
					C24.394,24.235,24.196,24.333,23.985,24.333z M8.353,23h15.294c1.104-1.577,1.686-3.413,1.686-5.333
					c0-5.147-4.186-9.333-9.333-9.333s-9.333,4.187-9.333,9.333C6.667,19.587,7.249,21.423,8.353,23z"/>
          </g>
          <g>
            <path d="M6,18.333c-1.494,0-4-0.692-4-5.333c0-1.641-0.962-2-1.333-2C0.298,11,0,10.702,0,10.333
					c0-0.369,0.298-0.667,0.667-0.667c1.031,0,2.667,0.905,2.667,3.333c0,4,2.007,4,2.667,4c0.369,0,0.667,0.298,0.667,0.667
					C6.667,18.035,6.369,18.333,6,18.333z"/>
          </g>
          <g>
            <path d="M27.333,21c-0.65,0-1.284-0.134-1.882-0.398c-0.337-0.148-0.489-0.542-0.341-0.879
					c0.15-0.337,0.542-0.488,0.879-0.341c0.428,0.188,0.881,0.285,1.344,0.285c1.838,0,3.334-1.496,3.334-3.334
					c0-1.837-1.496-3.333-3.334-3.333c-0.731,0-1.428,0.236-2.014,0.683c-0.294,0.224-0.711,0.166-0.935-0.126
					c-0.223-0.292-0.166-0.711,0.126-0.935c0.82-0.625,1.797-0.956,2.822-0.956c2.573,0,4.667,2.094,4.667,4.667
					C32,18.906,29.906,21,27.333,21z"/>
          </g>
          <g>
            <path d="M24,12.333H8c-0.369,0-0.667-0.298-0.667-0.667C7.333,11.298,7.631,11,8,11h16
					c0.368,0,0.667,0.298,0.667,0.667C24.667,12.036,24.368,12.333,24,12.333z"/>
          </g>
          <g>
            <path d="M16,8.333c-1.471,0-2.667-1.196-2.667-2.667S14.529,3,16,3s2.667,1.196,2.667,2.667
					S17.471,8.333,16,8.333z M16,4.333c-0.735,0-1.333,0.598-1.333,1.333S15.265,7,16,7s1.333-0.598,1.333-1.333
					S16.735,4.333,16,4.333z"/>
          </g>
        </g>
        <g>
          <path d="M28.667,27H3.333c-0.369,0-0.667-0.298-0.667-0.667c0-0.368,0.298-0.666,0.667-0.666h25.333
				c0.368,0,0.666,0.298,0.666,0.666C29.333,26.702,29.035,27,28.667,27z"/>
        </g>
        <g>
          <path d="M6.667,29C6.298,29,6,28.702,6,28.333v-2c0-0.368,0.298-0.666,0.667-0.666
				c0.369,0,0.667,0.298,0.667,0.666v2C7.333,28.702,7.036,29,6.667,29z"/>
        </g>
        <g>
          <path d="M26.667,29C26.298,29,26,28.702,26,28.333v-2c0-0.368,0.298-0.666,0.667-0.666
				c0.368,0,0.666,0.298,0.666,0.666v2C27.333,28.702,27.035,29,26.667,29z"/>
        </g>
      </g>
    </g>
  </g></svg>