<svg id="svg-source" height="0" version="1.1" 
  xmlns="http://www.w3.org/2000/svg" style="position:absolute; margin-left: -100%" 
  xmlns:xlink="http://www.w3.org/1999/xlink"><g xmlns="http://www.w3.org/2000/svg" id="laptop-macbook">
    <g id="Expanded">
      <g>
        <g>
          <path d="M30,27.334H2c-1.103,0-2-0.896-2-2V24c0-0.367,0.298-0.666,0.667-0.666h30.667
				C31.702,23.334,32,23.633,32,24v1.334C32,26.438,31.103,27.334,30,27.334z M1.333,24.668v0.666C1.333,25.701,1.632,26,2,26h28
				c0.368,0,0.667-0.299,0.667-0.666v-0.666H1.333z"/>
        </g>
        <g>
          <path d="M27.333,22H4.667c-1.103,0-2-0.896-2-2V6.667c0-1.103,0.897-2,2-2h22.667c1.104,0,2,0.897,2,2V20
				C29.333,21.104,28.437,22,27.333,22z M4.667,6C4.299,6,4,6.299,4,6.667V20c0,0.367,0.299,0.668,0.667,0.668h22.667
				C27.701,20.668,28,20.367,28,20V6.667C28,6.299,27.701,6,27.333,6H4.667z"/>
        </g>
        <g>
          <path d="M26.667,19.334H5.333v-12h21.333V19.334z M6.667,18h18.667V8.666H6.667V18z"/>
        </g>
      </g>
    </g>
  </g></svg>