<svg id="svg-source" height="0" version="1.1" 
  xmlns="http://www.w3.org/2000/svg" style="position:absolute; margin-left: -100%" 
  xmlns:xlink="http://www.w3.org/1999/xlink"><g xmlns="http://www.w3.org/2000/svg" id="like-love">
    <g id="Expanded">
      <g>
        <path d="M16,30.571c-0.116,0-0.231-0.03-0.334-0.09c-0.159-0.093-3.941-2.299-7.785-5.853
			C2.651,19.794,0,15.016,0,10.429c0-6.184,4.186-9,8.075-9c3,0,6.354,1.715,7.925,5.485c1.572-3.771,4.925-5.485,7.924-5.485
			c3.89,0,8.076,2.816,8.076,9c0,4.587-2.65,9.365-7.881,14.2c-3.844,3.554-7.626,5.76-7.785,5.853
			C16.231,30.541,16.116,30.571,16,30.571z M8.075,2.762c-3.247,0-6.742,2.399-6.742,7.667c0,9.241,12.449,17.33,14.667,18.696
			c2.216-1.366,14.667-9.462,14.667-18.696c0-5.268-3.496-7.667-6.743-7.667c-2.98,0-6.386,2.042-7.269,6.603
			c-0.062,0.312-0.336,0.54-0.655,0.54s-0.594-0.228-0.655-0.54C14.462,4.804,11.057,2.762,8.075,2.762z"/>
      </g>
    </g>
  </g></svg>