<svg id="svg-source" height="0" version="1.1" 
  xmlns="http://www.w3.org/2000/svg" style="position:absolute; margin-left: -100%" 
  xmlns:xlink="http://www.w3.org/1999/xlink"><g xmlns="http://www.w3.org/2000/svg" id="link">
    <g id="Expanded">
      <g>
        <g>
          <path d="M7.352,32c-1.634,0-3.17-0.637-4.325-1.792L1.79,28.973c-2.385-2.384-2.385-6.265,0-8.648l8.032-8.032
				c1.155-1.155,2.69-1.792,4.325-1.792c1.634,0,3.17,0.637,4.324,1.792l1.236,1.236c0.341,0.342,0.341,0.894,0,1.235
				c-0.343,0.342-0.895,0.342-1.236,0l-1.235-1.235c-0.825-0.825-1.923-1.28-3.089-1.28c-1.167,0-2.265,0.456-3.09,1.28l-8.031,8.03
				c-1.703,1.703-1.703,4.474,0,6.179l1.235,1.235c0.825,0.824,1.922,1.28,3.09,1.28c1.167,0,2.264-0.456,3.088-1.28L16,23.411
				c0.342-0.341,0.895-0.341,1.236,0c0.342,0.343,0.342,0.895,0,1.235l-5.561,5.562C10.521,31.364,8.985,32,7.352,32z"/>
        </g>
        <g>
          <path d="M17.854,21.497c-1.634,0-3.17-0.637-4.325-1.792c-0.341-0.342-0.341-0.895,0-1.235
				c0.342-0.342,0.894-0.342,1.236,0c0.824,0.824,1.922,1.279,3.089,1.279c1.167,0,2.265-0.455,3.089-1.279l8.032-8.032
				c1.702-1.703,1.702-4.474,0-6.177L27.74,3.023c-1.703-1.703-4.475-1.703-6.178,0L16,8.585c-0.342,0.342-0.894,0.342-1.235,0
				c-0.342-0.342-0.342-0.894,0-1.236l5.561-5.561c2.385-2.384,6.265-2.384,8.649,0l1.235,1.236c2.384,2.384,2.384,6.265,0,8.648
				l-8.032,8.032C21.024,20.86,19.488,21.497,17.854,21.497z"/>
        </g>
      </g>
    </g>
  </g></svg>