<svg id="svg-source" height="0" version="1.1" 
  xmlns="http://www.w3.org/2000/svg" style="position:absolute; margin-left: -100%" 
  xmlns:xlink="http://www.w3.org/1999/xlink"><g xmlns="http://www.w3.org/2000/svg" id="macintosh">
    <g id="Expanded">
      <g>
        <g>
          <path d="M27.333,32H4.667C4.299,32,4,31.701,4,31.334v-4.001c0-0.368,0.299-0.667,0.667-0.667h22.667
				c0.368,0,0.667,0.299,0.667,0.667v4.001C28,31.701,27.701,32,27.333,32z M5.333,30.666h21.333V28H5.333V30.666z"/>
        </g>
        <g>
          <path d="M27.333,28H4.667c-1.102,0-2-0.897-2-2V4c0-2.206,1.794-4,4-4h18.667c2.206,0,4,1.794,4,4v22
				C29.333,27.103,28.437,28,27.333,28z M6.667,1.333C5.196,1.333,4,2.529,4,4v22c0,0.367,0.3,0.666,0.667,0.666h22.667
				C27.701,26.666,28,26.367,28,26V4c0-1.471-1.196-2.667-2.667-2.667H6.667z"/>
        </g>
        <g>
          <path d="M24.461,20H7.539c-1.216,0-2.206-0.843-2.206-1.879V4.545c0-1.036,0.989-1.878,2.206-1.878h16.923
				c1.215,0,2.204,0.842,2.204,1.878v13.576C26.666,19.157,25.677,20,24.461,20z M7.539,4C7.025,4,6.667,4.288,6.667,4.545v13.576
				c0,0.258,0.358,0.546,0.873,0.546h16.923c0.514,0,0.871-0.288,0.871-0.546V4.545C25.333,4.288,24.976,4,24.461,4H7.539z"/>
        </g>
        <g>
          <path d="M9.333,24H6.667C6.299,24,6,23.701,6,23.333s0.299-0.666,0.667-0.666h2.667
				c0.368,0,0.667,0.298,0.667,0.666S9.701,24,9.333,24z"/>
        </g>
        <g>
          <path d="M25.333,24h-6.666C18.299,24,18,23.701,18,23.333s0.299-0.666,0.667-0.666h6.666
				c0.368,0,0.667,0.298,0.667,0.666S25.701,24,25.333,24z"/>
        </g>
        <g>
          <path d="M11.333,10.667c-0.368,0-0.667-0.299-0.667-0.667V7.333c0-0.368,0.298-0.667,0.667-0.667
				C11.701,6.667,12,6.966,12,7.333V10C12,10.368,11.701,10.667,11.333,10.667z"/>
        </g>
        <g>
          <path d="M20.666,10.667C20.299,10.667,20,10.368,20,10V7.333c0-0.368,0.299-0.667,0.666-0.667
				c0.368,0,0.668,0.299,0.668,0.667V10C21.334,10.368,21.034,10.667,20.666,10.667z"/>
        </g>
        <g>
          <path d="M16.666,13.333h-1.333c-0.368,0-0.667-0.298-0.667-0.667c0-0.368,0.299-0.667,0.667-0.667H16V8.667
				C16,8.299,16.299,8,16.666,8c0.368,0,0.667,0.299,0.667,0.667v4C17.333,13.035,17.034,13.333,16.666,13.333z"/>
        </g>
        <g>
          <path d="M18,17.333h-4c-1.103,0-2-0.897-2-2c0-0.368,0.299-0.667,0.667-0.667c0.368,0,0.667,0.299,0.667,0.667
				c0,0.367,0.3,0.667,0.667,0.667h4c0.367,0,0.667-0.299,0.667-0.667c0-0.368,0.299-0.667,0.666-0.667
				c0.368,0,0.667,0.299,0.667,0.667C20,16.436,19.103,17.333,18,17.333z"/>
        </g>
      </g>
    </g>
  </g></svg>