<svg id="svg-source" height="0" version="1.1" 
  xmlns="http://www.w3.org/2000/svg" style="position:absolute; margin-left: -100%" 
  xmlns:xlink="http://www.w3.org/1999/xlink"><g xmlns="http://www.w3.org/2000/svg" id="magic-magic-wand">
    <g id="Expanded">
      <g>
        <g>
          <path d="M0.761,32c-0.195,0-0.39-0.075-0.538-0.224c-0.298-0.297-0.298-0.778,0-1.076l20.453-20.452
				c0.298-0.297,0.779-0.297,1.076,0c0.298,0.298,0.298,0.779,0,1.077L1.299,31.776C1.151,31.925,0.956,32,0.761,32z"/>
        </g>
        <g>
          <path d="M21.018,1.294l3.694,3.693l5.167-2.731l-2.732,5.168l3.558,3.558L26,9.878l-2.583,5.537l-0.743-5.953
				l-5.953-0.744l5.536-2.585L21.018,1.294 M21.018,0c-0.219,0-0.439,0.056-0.641,0.17c-0.505,0.288-0.756,0.88-0.612,1.445
				l0.974,3.798l-4.563,2.131c-0.521,0.244-0.821,0.805-0.731,1.374c0.09,0.569,0.545,1.011,1.118,1.083l4.954,0.619l0.619,4.954
				c0.072,0.572,0.514,1.028,1.083,1.118c0.068,0.011,0.136,0.017,0.203,0.017c0.495,0,0.957-0.287,1.171-0.748l2.139-4.583
				l3.68,0.863c0.1,0.022,0.198,0.034,0.296,0.034c0.463,0,0.898-0.248,1.131-0.664c0.28-0.506,0.193-1.136-0.216-1.545
				l-2.882-2.882l2.287-4.323c0.265-0.501,0.172-1.118-0.23-1.52c-0.249-0.249-0.579-0.379-0.915-0.379
				c-0.206,0-0.414,0.049-0.604,0.149l-4.323,2.285l-3.02-3.019C21.684,0.13,21.353,0,21.018,0L21.018,0z"/>
        </g>
      </g>
    </g>
  </g></svg>