<svg id="svg-source" height="0" version="1.1" 
  xmlns="http://www.w3.org/2000/svg" style="position:absolute; margin-left: -100%" 
  xmlns:xlink="http://www.w3.org/1999/xlink"><g xmlns="http://www.w3.org/2000/svg" id="magnet">
    <g id="Expanded">
      <g>
        <g>
          <rect x="23.83" y="17.227" transform="matrix(-0.7072 -0.707 0.707 -0.7072 32.6449 49.3272)" width="5.413" height="1.354"/>
        </g>
        <g>
          <rect x="11.386" y="4.784" transform="matrix(-0.7071 -0.7071 0.7071 -0.7071 20.1966 19.2871)" width="5.414" height="1.354"/>
        </g>
        <g>
          <path d="M12.179,32.002c-3.254,0-6.313-1.267-8.616-3.567c-4.75-4.751-4.75-12.48,0-17.23L14.572,0.196
				c0.265-0.265,0.692-0.265,0.957,0l3.829,3.829c0.127,0.127,0.198,0.299,0.198,0.479c0,0.179-0.071,0.352-0.198,0.479
				L8.629,15.709c-2.111,2.112-2.111,5.546,0,7.658c1.023,1.022,2.383,1.586,3.829,1.586s2.806-0.563,3.829-1.586l10.728-10.728
				c0.254-0.254,0.703-0.254,0.957,0l3.829,3.829c0.128,0.127,0.199,0.3,0.199,0.479c0,0.178-0.071,0.352-0.198,0.478L20.793,28.435
				C18.492,30.735,15.433,32.002,12.179,32.002z M15.05,1.632L4.52,12.162c-4.222,4.223-4.222,11.092,0,15.316
				c2.045,2.045,4.766,3.171,7.658,3.171s5.613-1.126,7.657-3.171l10.53-10.53l-2.872-2.872L17.245,24.324
				c-1.279,1.278-2.979,1.982-4.786,1.982c-1.809,0-3.508-0.704-4.786-1.982c-2.639-2.639-2.639-6.933,0-9.572L17.922,4.504
				L15.05,1.632z"/>
        </g>
      </g>
    </g>
  </g></svg>