<svg id="svg-source" height="0" version="1.1" 
  xmlns="http://www.w3.org/2000/svg" style="position:absolute; margin-left: -100%" 
  xmlns:xlink="http://www.w3.org/1999/xlink"><g xmlns="http://www.w3.org/2000/svg" id="man-people-user">
    <g id="Expanded">
      <g>
        <g>
          <path d="M16.028,20c-4.764,0-8.639-4.486-8.639-10s3.875-10,8.639-10c4.763,0,8.638,4.486,8.638,10
				S20.791,20,16.028,20z M16.028,1.333C12,1.333,8.722,5.221,8.722,10s3.277,8.667,7.306,8.667c4.029,0,7.306-3.888,7.306-8.667
				S20.057,1.333,16.028,1.333z"/>
        </g>
        <g>
          <path d="M31.988,32H0.012v-4.515c0-1.967,1.245-3.733,3.097-4.395l8.224-2.266v-2.77h1.333v3.785L3.51,24.361
				c-1.275,0.458-2.165,1.72-2.165,3.124v3.182h29.309v-3.182c0-1.404-0.889-2.666-2.213-3.139l-9.107-2.506v-3.758h1.332v2.742
				l8.178,2.251c1.9,0.677,3.145,2.442,3.145,4.409V32z"/>
        </g>
        <g>
          <path d="M21.865,8.812c-0.045,0-0.09-0.001-0.137-0.003c-1.5-0.055-3.25-1.004-4.361-2.287
				C16.59,7.513,15.48,8.15,14.106,8.383c-2.403,0.413-5.152-0.51-5.988-1.321l0.928-0.957c0.403,0.391,2.69,1.329,4.836,0.964
				c1.332-0.226,2.292-0.911,2.854-2.034l0.558-1.114l0.617,1.082c0.738,1.292,2.508,2.425,3.867,2.475
				c0.604,0.016,1.033-0.165,1.307-0.571l1.105,0.745C23.686,8.403,22.863,8.812,21.865,8.812z"/>
        </g>
      </g>
    </g>
  </g></svg>