<svg id="svg-source" height="0" version="1.1" 
  xmlns="http://www.w3.org/2000/svg" style="position:absolute; margin-left: -100%" 
  xmlns:xlink="http://www.w3.org/1999/xlink"><g xmlns="http://www.w3.org/2000/svg" id="map-user">
    <g id="Expanded">
      <g>
        <g>
          <path d="M16,9.333c-2.573,0-4.667-2.094-4.667-4.667C11.333,2.094,13.427,0,16,0s4.667,2.094,4.667,4.667
				C20.667,7.239,18.573,9.333,16,9.333z M16,1.333c-1.838,0-3.333,1.495-3.333,3.333S14.162,8,16,8s3.333-1.496,3.333-3.333
				S17.838,1.333,16,1.333z"/>
        </g>
        <g>
          <path d="M18,25.333h-4c-0.368,0-0.667-0.298-0.667-0.666v-5.312c-2.943-1.544-4-5.589-4-8.689
				C9.333,10.298,9.632,10,10,10h12c0.368,0,0.667,0.298,0.667,0.667c0,3.1-1.058,7.145-4,8.689v5.312
				C18.667,25.035,18.368,25.333,18,25.333z M14.667,24h2.667v-5.066c0-0.269,0.161-0.511,0.408-0.614
				c2.576-1.088,3.438-4.637,3.572-6.987H10.687c0.135,2.35,0.996,5.899,3.573,6.987c0.247,0.104,0.407,0.346,0.407,0.614V24z"/>
        </g>
        <g>
          <path d="M16,28.667c-3.714,0-10-0.633-10-3c0-1.179,1.528-2.043,4.542-2.57c0.368-0.061,0.708,0.18,0.771,0.542
				s-0.179,0.708-0.541,0.771c-2.676,0.468-3.395,1.122-3.441,1.271c0.18,0.558,3.317,1.652,8.668,1.652
				c5.352,0,8.488-1.095,8.668-1.681c-0.046-0.12-0.762-0.771-3.424-1.239c-0.362-0.064-0.604-0.409-0.541-0.771
				c0.062-0.363,0.405-0.603,0.771-0.541C24.478,23.626,26,24.491,26,25.667C26,28.034,19.714,28.667,16,28.667z"/>
        </g>
        <g>
          <path d="M16,32C5.608,32,0,28.909,0,26c0-3.168,5.465-5.003,10.581-5.663c0.361-0.044,0.699,0.21,0.747,0.576
				c0.047,0.365-0.211,0.699-0.576,0.746C4.569,22.458,1.333,24.447,1.333,26c0,2.207,6.023,4.667,14.667,4.667
				c8.644,0,14.667-2.46,14.667-4.667c0-1.553-3.234-3.542-9.415-4.34c-0.365-0.048-0.623-0.382-0.576-0.747
				c0.047-0.366,0.384-0.616,0.747-0.576C26.536,20.998,32,22.833,32,26C32,28.909,26.392,32,16,32z"/>
        </g>
      </g>
    </g>
  </g></svg>