<svg id="svg-source" height="0" version="1.1" 
  xmlns="http://www.w3.org/2000/svg" style="position:absolute; margin-left: -100%" 
  xmlns:xlink="http://www.w3.org/1999/xlink"><g xmlns="http://www.w3.org/2000/svg" id="map-pin">
    <g id="Expanded">
      <g>
        <g>
          <path d="M16,32l-0.552-0.797C15.034,30.602,5.279,16.416,5.279,10.721C5.279,4.81,10.089,0,16,0
				s10.721,4.81,10.721,10.721c0,5.695-9.755,19.881-10.169,20.482L16,32z M16,1.34c-5.173,0-9.38,4.208-9.38,9.381
				c0,4.548,7.293,15.783,9.38,18.904c2.087-3.121,9.381-14.356,9.381-18.904C25.381,5.548,21.173,1.34,16,1.34z"/>
        </g>
        <g>
          <path d="M16,15.411c-2.585,0-4.69-2.104-4.69-4.69S13.415,6.03,16,6.03c2.586,0,4.69,2.104,4.69,4.69
				S18.586,15.411,16,15.411z M16,7.371c-1.847,0-3.35,1.503-3.35,3.35c0,1.848,1.503,3.351,3.35,3.351
				c1.848,0,3.351-1.503,3.351-3.351C19.351,8.874,17.848,7.371,16,7.371z"/>
        </g>
      </g>
    </g>
  </g></svg>