<svg id="svg-source" height="0" version="1.1" 
  xmlns="http://www.w3.org/2000/svg" style="position:absolute; margin-left: -100%" 
  xmlns:xlink="http://www.w3.org/1999/xlink"><g xmlns="http://www.w3.org/2000/svg" id="micro-record">
    <g id="Expanded">
      <g>
        <g>
          <path d="M16,25.333c-4.778,0-8.666-3.888-8.666-8.666v-8C7.334,3.888,11.222,0,16,0s8.667,3.888,8.667,8.667v8
				C24.667,21.445,20.778,25.333,16,25.333z M16,1.333c-4.043,0-7.333,3.29-7.333,7.333v8C8.667,20.71,11.957,24,16,24
				s7.333-3.29,7.333-7.333v-8C23.333,4.624,20.043,1.333,16,1.333z"/>
        </g>
        <g>
          <path d="M16,28C9.646,28,4.667,23.022,4.667,16.667V14c0-0.368,0.298-0.667,0.667-0.667
				C5.702,13.333,6,13.632,6,14v2.667c0,5.607,4.393,10,10,10s10-4.393,10-10V14c0-0.368,0.298-0.667,0.667-0.667
				c0.368,0,0.666,0.299,0.666,0.667v2.667C27.333,23.022,22.354,28,16,28z"/>
        </g>
        <g>
          <rect x="15.334" y="27.333" width="1.333" height="4.667"/>
        </g>
        <g>
          <path d="M16,5.333c-0.368,0-0.666-0.299-0.666-0.667v-4C15.334,0.299,15.632,0,16,0
				c0.369,0,0.667,0.299,0.667,0.667v4C16.667,5.035,16.369,5.333,16,5.333z"/>
        </g>
        <g>
          <path d="M18.667,5.333C18.298,5.333,18,5.035,18,4.667V1.122c0-0.368,0.298-0.667,0.667-0.667
				c0.368,0,0.666,0.298,0.666,0.667v3.544C19.333,5.035,19.035,5.333,18.667,5.333z"/>
        </g>
        <g>
          <path d="M13.334,5.333c-0.369,0-0.667-0.299-0.667-0.667V1.122c0-0.368,0.298-0.667,0.667-0.667
				C13.702,0.456,14,0.754,14,1.122v3.544C14,5.035,13.702,5.333,13.334,5.333z"/>
        </g>
        <g>
          <rect x="5.334" y="16" width="21.333" height="1.333"/>
        </g>
        <g>
          <path d="M13.334,9.333H8c-0.368,0-0.666-0.299-0.666-0.667C7.334,8.299,7.632,8,8,8h5.334
				C13.702,8,14,8.299,14,8.667C14,9.035,13.702,9.333,13.334,9.333z"/>
        </g>
        <g>
          <path d="M13.334,12H8c-0.368,0-0.666-0.299-0.666-0.667c0-0.368,0.298-0.667,0.666-0.667h5.334
				c0.368,0,0.666,0.299,0.666,0.667C14,11.701,13.702,12,13.334,12z"/>
        </g>
        <g>
          <path d="M24,9.333h-5.333C18.298,9.333,18,9.035,18,8.667C18,8.299,18.298,8,18.667,8H24
				c0.368,0,0.667,0.299,0.667,0.667C24.667,9.035,24.368,9.333,24,9.333z"/>
        </g>
        <g>
          <path d="M24,12h-5.333C18.298,12,18,11.701,18,11.333c0-0.368,0.298-0.667,0.667-0.667H24
				c0.368,0,0.667,0.299,0.667,0.667C24.667,11.701,24.368,12,24,12z"/>
        </g>
        <g>
          <path d="M13.334,14.667H8c-0.368,0-0.666-0.299-0.666-0.667S7.632,13.333,8,13.333h5.334
				C13.702,13.333,14,13.632,14,14S13.702,14.667,13.334,14.667z"/>
        </g>
        <g>
          <path d="M24,14.667h-5.333C18.298,14.667,18,14.368,18,14s0.298-0.667,0.667-0.667H24
				c0.368,0,0.667,0.299,0.667,0.667S24.368,14.667,24,14.667z"/>
        </g>
      </g>
    </g>
  </g></svg>