<svg id="svg-source" height="0" version="1.1" 
  xmlns="http://www.w3.org/2000/svg" style="position:absolute; margin-left: -100%" 
  xmlns:xlink="http://www.w3.org/1999/xlink"><g xmlns="http://www.w3.org/2000/svg" id="monocle-mustache">
    <g id="Expanded">
      <g>
        <g>
          <path d="M22,15.207c-4.044,0-7.333-3.29-7.333-7.333c0-4.043,3.29-7.333,7.333-7.333
				c4.043,0,7.333,3.29,7.333,7.333C29.333,11.917,26.043,15.207,22,15.207z M22,1.873c-3.309,0-6,2.691-6,6s2.691,6,6,6
				s6-2.691,6-6S25.309,1.873,22,1.873z"/>
        </g>
        <g>
          <path d="M31.333,6.54c-0.369,0-0.667,0.299-0.667,0.667s0.298,0.667,0.667,0.667S32,7.574,32,7.207
				S31.701,6.54,31.333,6.54L31.333,6.54z"/>
        </g>
        <g>
          <path d="M31.333,31.206c-0.369,0-0.667-0.298-0.667-0.666V9.207c0-0.369,0.298-0.667,0.667-0.667
				S32,8.837,32,9.207V30.54C32,30.908,31.702,31.206,31.333,31.206z"/>
        </g>
        <g>
          <path d="M6.416,31.46c-3.164,0-5.494-1.975-6.394-5.418c-0.082-0.314,0.073-0.642,0.369-0.775
				c0.295-0.134,0.644-0.037,0.827,0.23c0.608,0.893,1.518,1.403,2.499,1.404l0,0c0.619,0,1.187-0.214,1.597-0.601
				C5.763,25.878,6,25.269,6,24.54c0-2.795,2.223-4.305,4.314-4.305c0.887,0,1.702,0.262,2.353,0.745
				c0.651-0.484,1.464-0.745,2.353-0.745c2.092,0,4.314,1.51,4.314,4.305c0,1.631,1.146,2.361,2.283,2.361
				c0.98,0,1.891-0.512,2.499-1.404c0.183-0.267,0.532-0.364,0.827-0.23s0.451,0.461,0.369,0.775
				c-0.9,3.443-3.231,5.418-6.395,5.418c-2.417,0-4.875-1.22-6.251-3.01C11.291,30.24,8.832,31.46,6.416,31.46L6.416,31.46z
				 M12.667,26.54c0.253,0,0.483,0.143,0.597,0.368c0.917,1.835,3.348,3.219,5.654,3.219c1.114,0,2.885-0.327,4.117-2.148
				c-0.453,0.167-0.931,0.256-1.417,0.256c-1.798,0-3.617-1.27-3.617-3.694c0-1.951-1.5-2.971-2.981-2.971
				c-0.751,0-1.412,0.268-1.863,0.756c-0.251,0.274-0.727,0.273-0.979,0c-0.451-0.486-1.112-0.756-1.863-0.756
				c-1.481,0-2.981,1.02-2.981,2.971c0,1.105-0.382,2.05-1.105,2.73c-0.658,0.621-1.551,0.964-2.512,0.964c0,0,0,0-0.001,0
				c-0.485-0.001-0.963-0.089-1.417-0.256c1.233,1.819,3.003,2.148,4.118,2.148c2.306-0.001,4.736-1.384,5.654-3.219
				C12.183,26.683,12.414,26.54,12.667,26.54z"/>
        </g>
        <g>
          <path d="M22,12.54c-0.368,0-0.667-0.298-0.667-0.667s0.299-0.667,0.667-0.667c1.838,0,3.333-1.496,3.333-3.333
				c0-0.369,0.298-0.667,0.667-0.667s0.666,0.298,0.666,0.667C26.666,10.446,24.572,12.54,22,12.54z"/>
        </g>
      </g>
    </g>
  </g></svg>