<svg id="svg-source" height="0" version="1.1" 
  xmlns="http://www.w3.org/2000/svg" style="position:absolute; margin-left: -100%" 
  xmlns:xlink="http://www.w3.org/1999/xlink"><g xmlns="http://www.w3.org/2000/svg" id="music-note">
    <g id="Expanded">
      <g>
        <g>
          <path d="M8.805,32c-2.381,0-4.317-1.937-4.317-4.317c0-2.38,1.936-4.316,4.317-4.316h4.317v4.316
				C13.122,29.981,11.104,32,8.805,32z M8.805,24.805c-1.587,0-2.878,1.291-2.878,2.878c0,1.588,1.291,2.878,2.878,2.878
				c1.647,0,2.878-1.519,2.878-2.878v-2.878H8.805z"/>
        </g>
        <g>
          <path d="M23.194,27.683c-2.38,0-4.316-1.937-4.316-4.316c0-2.381,1.937-4.317,4.316-4.317h4.317v4.317
				C27.512,25.665,25.494,27.683,23.194,27.683z M23.194,20.488c-1.587,0-2.878,1.291-2.878,2.878s1.291,2.878,2.878,2.878
				c1.647,0,2.878-1.52,2.878-2.878v-2.878H23.194z"/>
        </g>
        <g>
          <polygon points="13.122,24.086 11.683,24.086 11.683,6.332 27.512,0 27.512,19.769 26.072,19.769 26.072,2.125 
				13.122,7.306 			"/>
        </g>
        <g>
          <rect x="18.879" y="1.228" transform="matrix(-0.3713 -0.9285 0.9285 -0.3713 18.5387 30.5071)" width="1.439" height="15.498"/>
        </g>
      </g>
    </g>
  </g></svg>