<svg id="svg-source" height="0" version="1.1" 
  xmlns="http://www.w3.org/2000/svg" style="position:absolute; margin-left: -100%" 
  xmlns:xlink="http://www.w3.org/1999/xlink"><g xmlns="http://www.w3.org/2000/svg" id="music-speaker">
    <g id="Expanded">
      <g>
        <g>
          <path d="M28,2.667c-0.737,0-1.333,0.598-1.333,1.333S27.263,5.333,28,5.333S29.333,4.736,29.333,4
				S28.737,2.667,28,2.667L28,2.667z"/>
        </g>
        <g>
          <path d="M4,2.667C3.263,2.667,2.667,3.264,2.667,4S3.263,5.333,4,5.333c0.737,0,1.333-0.598,1.333-1.333
				S4.737,2.667,4,2.667L4,2.667z"/>
        </g>
        <g>
          <path d="M28,26.667c-0.737,0-1.333,0.598-1.333,1.333s0.596,1.333,1.333,1.333s1.333-0.598,1.333-1.333
				S28.737,26.667,28,26.667L28,26.667z"/>
        </g>
        <g>
          <path d="M4,26.667c-0.737,0-1.333,0.598-1.333,1.333S3.263,29.333,4,29.333c0.737,0,1.333-0.598,1.333-1.333
				S4.737,26.667,4,26.667L4,26.667z"/>
        </g>
        <g>
          <path d="M16,19.333c-1.838,0-3.333-1.495-3.333-3.333s1.496-3.333,3.333-3.333s3.333,1.496,3.333,3.333
				S17.838,19.333,16,19.333z M16,14c-1.103,0-2,0.897-2,2s0.897,2,2,2s2-0.897,2-2S17.103,14,16,14z"/>
        </g>
        <g>
          <path d="M16,28C9.383,28,4,22.616,4,16C4,9.383,9.383,4,16,4c6.616,0,12,5.383,12,12C28,22.616,22.616,28,16,28z
				 M16,5.333C10.119,5.333,5.333,10.119,5.333,16c0,5.882,4.785,10.667,10.667,10.667c5.882,0,10.667-4.785,10.667-10.667
				C26.667,10.119,21.882,5.333,16,5.333z"/>
        </g>
        <g>
          <path d="M28,32L28,32c-1.069,0-2.073-0.416-2.828-1.171l-2.032-2.033c-2.189,1.226-4.646,1.871-7.14,1.871
				c-2.494,0-4.951-0.646-7.139-1.871l-2.033,2.033C6.073,31.584,5.069,32,4,32s-2.073-0.416-2.828-1.171
				C0.416,30.073,0,29.069,0,28s0.416-2.073,1.172-2.828l2.032-2.032C1.979,20.95,1.333,18.493,1.333,16
				c0-2.494,0.645-4.951,1.871-7.139L1.172,6.829C0.416,6.073,0,5.069,0,4s0.416-2.073,1.172-2.829C1.927,0.417,2.931,0,4,0
				s2.073,0.417,2.828,1.172l2.033,2.032C11.049,1.979,13.506,1.333,16,1.333c2.493,0,4.95,0.645,7.14,1.871l2.032-2.032
				C25.927,0.417,26.931,0,28,0s2.073,0.417,2.828,1.172C31.584,1.927,32,2.931,32,4s-0.416,2.073-1.172,2.829l-2.032,2.032
				c1.226,2.189,1.871,4.646,1.871,7.139c0,2.493-0.646,4.95-1.871,7.14l2.032,2.031C31.584,25.927,32,26.931,32,28
				s-0.416,2.073-1.172,2.829C30.073,31.584,29.069,32,28,32z M23.349,27.12l2.766,2.766c0.504,0.504,1.174,0.781,1.886,0.781
				s1.382-0.277,1.886-0.781s0.781-1.174,0.781-1.886s-0.277-1.382-0.781-1.886l-2.766-2.766l0.271-0.446
				c1.27-2.093,1.941-4.479,1.941-6.902c0-2.422-0.672-4.809-1.941-6.902L27.12,8.651l2.766-2.766
				C30.39,5.382,30.667,4.712,30.667,4s-0.277-1.382-0.781-1.885C29.382,1.611,28.712,1.333,28,1.333s-1.382,0.278-1.886,0.781
				L23.349,4.88l-0.447-0.272C20.81,3.338,18.423,2.667,16,2.667c-2.423,0-4.81,0.671-6.901,1.942L8.651,4.88L5.885,2.115
				C5.381,1.611,4.712,1.333,4,1.333S2.619,1.611,2.115,2.115C1.611,2.618,1.333,3.288,1.333,4s0.277,1.382,0.781,1.886L4.88,8.651
				L4.608,9.099C3.338,11.19,2.667,13.577,2.667,16c0,2.423,0.671,4.81,1.941,6.902l0.272,0.446l-2.765,2.766
				C1.611,26.618,1.333,27.288,1.333,28s0.277,1.382,0.781,1.886S3.288,30.667,4,30.667s1.382-0.277,1.885-0.781l2.766-2.766
				l0.448,0.271c2.091,1.271,4.478,1.941,6.901,1.941c2.423,0,4.81-0.671,6.901-1.941L23.349,27.12z"/>
        </g>
      </g>
    </g>
  </g></svg>