<svg id="svg-source" height="0" version="1.1" 
  xmlns="http://www.w3.org/2000/svg" style="position:absolute; margin-left: -100%" 
  xmlns:xlink="http://www.w3.org/1999/xlink"><g xmlns="http://www.w3.org/2000/svg" id="paint-bucket">
    <g id="Expanded">
      <g>
        <g>
          <path d="M16,32c-5.779,0-12-1.147-12-3.667v-18h1.333v18c0,0.792,3.765,2.334,10.667,2.334
				s10.667-1.542,10.667-2.334v-18H28v18C28,30.853,21.779,32,16,32z"/>
        </g>
        <g>
          <path d="M16,14c-5.779,0-12-1.147-12-3.667c0-2.52,6.221-3.667,12-3.667s12,1.147,12,3.667
				C28,12.853,21.779,14,16,14z M16,8C9.098,8,5.333,9.542,5.333,10.333S9.098,12.667,16,12.667s10.667-1.541,10.667-2.333
				S22.902,8,16,8z"/>
        </g>
        <g>
          <path d="M5.333,18H4.666c-1.838,0-3.333-1.495-3.333-3.333c0-1.838,1.495-3.333,3.333-3.333h0.667V18z M4,12.781
				c-0.776,0.275-1.334,1.017-1.334,1.886c0,0.87,0.558,1.611,1.334,1.886V12.781z"/>
        </g>
        <g>
          <path d="M27.333,18h-0.666v-6.667h0.666c1.838,0,3.334,1.495,3.334,3.333C30.667,16.505,29.171,18,27.333,18z
				 M28,12.781v3.771c0.776-0.274,1.333-1.016,1.333-1.886S28.776,13.056,28,12.781z"/>
        </g>
        <g>
          <path d="M20.667,25.333c-0.878,0-1.736-0.356-2.355-0.979c-0.629-0.632-0.973-1.47-0.97-2.36
				c0.006-1.279,0-2.701-0.005-3.679L17.335,18H16v1.333C16,20.804,14.803,22,13.332,22c-1.469,0-2.666-1.195-2.666-2.665v-1.729
				c-1.281-0.104-2.494-0.333-3.54-0.668c-0.351-0.112-0.544-0.488-0.432-0.838c0.112-0.35,0.486-0.544,0.838-0.432
				c1.108,0.355,2.434,0.578,3.832,0.646l0.634,0.031l0.001,2.987c0,0.734,0.599,1.333,1.333,1.333
				c0.736,0.001,1.334-0.597,1.334-1.333v-2.666h4.001l0.003,1.642c0.005,0.98,0.011,2.407,0.006,3.69
				c-0.003,0.533,0.203,1.036,0.58,1.415C19.626,23.786,20.142,24,20.667,24c1.103,0,2-0.897,2-2v-5.912l0.521-0.118
				c0.464-0.105,0.896-0.22,1.284-0.342c0.352-0.11,0.725,0.084,0.836,0.437c0.11,0.352-0.085,0.725-0.437,0.835
				c-0.273,0.086-0.565,0.168-0.871,0.246V22C24,23.838,22.505,25.333,20.667,25.333z"/>
        </g>
        <g>
          <path d="M28,12h-1.333v-2c0-4.779-3.889-8.667-8.667-8.667h-4c-4.779,0-8.667,3.888-8.667,8.667v2H4v-2
				C4,4.486,8.485,0,14,0h4c5.515,0,10,4.486,10,10V12z"/>
        </g>
      </g>
    </g>
  </g></svg>