<svg id="svg-source" height="0" version="1.1" 
  xmlns="http://www.w3.org/2000/svg" style="position:absolute; margin-left: -100%" 
  xmlns:xlink="http://www.w3.org/1999/xlink"><g xmlns="http://www.w3.org/2000/svg" id="painting-pallet">
    <g id="Expanded">
      <g>
        <g>
          <path d="M15.562,32L15.562,32c-4.431,0-14.139-3.864-14.139-15.342C1.424,7.473,7.962,0,15.999,0
				c8.446,0,14.577,7.005,14.577,16.658c0,3.298-2.092,9.606-5.37,9.606c-1.071,0-2.074-0.674-2.984-2.003
				c-0.694-1.015-1.438-1.597-2.041-1.597c-0.307,0-0.594,0.159-0.852,0.474c-0.731,0.892-1.263,3.086-0.566,6.57
				c0.099,0.496-0.014,0.96-0.326,1.341C17.794,31.835,16.52,32,15.562,32z M15.999,1.388c-7.271,0-13.187,6.85-13.187,15.27
				c0,10.439,8.755,13.954,12.749,13.954h0.001c1.062,0,1.635-0.237,1.802-0.441c0.033-0.04,0.058-0.082,0.037-0.188
				c-0.673-3.363-0.354-6.251,0.854-7.723c0.527-0.643,1.192-0.981,1.926-0.981c0.766,0,1.941,0.382,3.186,2.199
				c0.437,0.638,1.11,1.399,1.839,1.399c1.886-0.001,3.982-4.898,3.982-8.219C29.188,7.81,23.641,1.388,15.999,1.388z"/>
        </g>
        <g>
          <path d="M11.834,27.764c-1.914,0-3.471-1.557-3.471-3.471c0-1.913,1.557-3.471,3.471-3.471
				c1.913,0,3.471,1.558,3.471,3.471C15.305,26.207,13.747,27.764,11.834,27.764z M11.834,22.211c-1.148,0-2.082,0.934-2.082,2.082
				s0.934,2.082,2.082,2.082c1.147,0,2.082-0.934,2.082-2.082S12.981,22.211,11.834,22.211z"/>
        </g>
        <g>
          <path d="M7.675,18.046c0,0-0.002,0-0.003,0c-1.531,0-2.775-1.245-2.775-2.776
				c-0.001-0.741,0.288-1.438,0.812-1.963c0.524-0.525,1.223-0.813,1.965-0.813c0.743,0,1.439,0.29,1.964,0.815
				c0.522,0.525,0.811,1.222,0.811,1.962c0.002,0.738-0.285,1.436-0.81,1.961C9.114,17.757,8.417,18.046,7.675,18.046z
				 M7.675,13.882c-0.374,0-0.722,0.145-0.984,0.407c-0.262,0.262-0.406,0.61-0.406,0.981c0,0.767,0.622,1.389,1.387,1.389
				l0.004,0.694v-0.694c0.371,0,0.719-0.145,0.98-0.407c0.262-0.262,0.405-0.609,0.404-0.979c0-0.372-0.144-0.721-0.405-0.983
				C8.392,14.026,8.044,13.882,7.675,13.882z"/>
        </g>
        <g>
          <path d="M11.144,11.799c0,0-0.002,0-0.003,0c-1.531,0-2.775-1.245-2.775-2.776
				C8.364,8.283,8.653,7.585,9.177,7.06c0.524-0.524,1.223-0.813,1.965-0.813s1.439,0.29,1.963,0.815
				c0.523,0.525,0.812,1.222,0.811,1.962c0.003,0.738-0.285,1.435-0.809,1.961C12.583,11.51,11.885,11.799,11.144,11.799z
				 M11.144,7.635c-0.374,0-0.723,0.145-0.984,0.407C9.896,8.304,9.753,8.652,9.753,9.022c0,0.766,0.622,1.389,1.386,1.389
				l0.005,0.694v-0.694c0.37,0,0.719-0.144,0.98-0.406c0.261-0.262,0.404-0.609,0.404-0.979c0-0.372-0.145-0.721-0.405-0.983
				C11.86,7.779,11.513,7.635,11.144,7.635z"/>
        </g>
        <g>
          <path d="M17.393,9.023c0,0-0.002,0-0.003,0c-1.531,0-2.776-1.245-2.776-2.776c0-0.74,0.288-1.438,0.812-1.963
				c0.524-0.524,1.223-0.813,1.965-0.813s1.439,0.29,1.963,0.815c0.523,0.525,0.812,1.222,0.811,1.962
				c0.003,0.738-0.285,1.435-0.809,1.961C18.832,8.734,18.135,9.023,17.393,9.023z M17.393,4.858c-0.374,0-0.723,0.145-0.984,0.407
				c-0.263,0.262-0.406,0.61-0.406,0.981c0,0.766,0.622,1.389,1.386,1.389l0.005,0.694V7.635c0.37,0,0.719-0.144,0.98-0.406
				c0.261-0.262,0.404-0.609,0.404-0.979c0-0.372-0.144-0.721-0.405-0.983C18.109,5.003,17.762,4.858,17.393,4.858z"/>
        </g>
        <g>
          <path d="M23.637,13.882h-0.002c-1.531,0-2.776-1.245-2.776-2.776c0-0.741,0.288-1.438,0.812-1.963
				c0.523-0.525,1.223-0.813,1.964-0.813c0.743,0,1.439,0.29,1.964,0.815c0.523,0.525,0.812,1.222,0.811,1.962
				c0.002,0.739-0.285,1.436-0.81,1.961C25.077,13.592,24.379,13.882,23.637,13.882z M23.637,9.717
				c-0.373,0-0.722,0.145-0.984,0.407c-0.262,0.262-0.405,0.611-0.405,0.981c0,0.766,0.622,1.389,1.386,1.389l0.004,0.694v-0.694
				c0.371,0,0.72-0.145,0.981-0.407c0.261-0.262,0.404-0.609,0.403-0.979c0-0.372-0.144-0.721-0.405-0.983
				C24.354,9.862,24.007,9.717,23.637,9.717z"/>
        </g>
      </g>
    </g>
  </g></svg>