<svg id="svg-source" height="0" version="1.1" 
  xmlns="http://www.w3.org/2000/svg" style="position:absolute; margin-left: -100%" 
  xmlns:xlink="http://www.w3.org/1999/xlink"><g xmlns="http://www.w3.org/2000/svg" id="painting-roll">
    <g id="Expanded">
      <g>
        <g>
          <path d="M25.044,9.739H8.348c-1.535,0-2.782-1.248-2.782-2.783V2.783C5.565,1.248,6.812,0,8.348,0h16.696
				c1.534,0,2.782,1.248,2.782,2.783v4.174C27.826,8.491,26.578,9.739,25.044,9.739z M8.348,1.391c-0.768,0-1.392,0.624-1.392,1.392
				v4.174c0,0.767,0.624,1.391,1.392,1.391h16.696c0.768,0,1.391-0.624,1.391-1.391V2.783c0-0.768-0.623-1.392-1.391-1.392H8.348z"/>
        </g>
        <g>
          <rect x="27.131" y="4.174" width="2.087" height="1.392"/>
        </g>
        <g>
          <path d="M18.087,19.479h-1.392v-6.261c0-0.383-0.312-0.695-0.695-0.695H5.565c-1.769,0-2.783-1.015-2.783-2.783
				V6.957c0-1.769,1.015-2.783,2.783-2.783h0.695v1.392H5.565c-1.002,0-1.392,0.39-1.392,1.391v2.783
				c0,1.001,0.39,1.391,1.392,1.391H16c1.15,0,2.087,0.937,2.087,2.087V19.479z"/>
        </g>
        <g>
          <path d="M18.087,32h-1.392c-1.15,0-2.087-0.937-2.087-2.087v-7.652c0-2.178,1.04-3.479,2.782-3.479
				c1.743,0,2.783,1.301,2.783,3.479v7.652C20.174,31.063,19.237,32,18.087,32z M17.391,20.174c-0.344,0-1.391,0-1.391,2.087v7.652
				c0,0.383,0.312,0.695,0.695,0.695h1.392c0.383,0,0.695-0.312,0.695-0.695v-7.652C18.782,20.174,17.735,20.174,17.391,20.174z"/>
        </g>
      </g>
    </g>
  </g></svg>