<svg id="svg-source" height="0" version="1.1" 
  xmlns="http://www.w3.org/2000/svg" style="position:absolute; margin-left: -100%" 
  xmlns:xlink="http://www.w3.org/1999/xlink"><g xmlns="http://www.w3.org/2000/svg" id="pen-big-feather">
    <g id="Expanded">
      <g>
        <g>
          <path d="M20.333,6.667h-8.667L6.666,0h18.667L20.333,6.667z M12.333,5.333h7.334l3-4H9.333L12.333,5.333z"/>
        </g>
        <g>
          <path d="M18.347,32h-4.692l-0.199-0.282c-0.331-0.47-8.122-11.569-8.122-17.051c0-5.661,6.084-9.105,6.344-9.249
				l0.15-0.084h8.346l0.151,0.084c0.259,0.144,6.343,3.588,6.343,9.249c0,5.482-7.791,16.582-8.123,17.051L18.347,32z
				 M14.349,30.667h3.303c1.217-1.771,7.682-11.393,7.682-16c0-4.444-4.636-7.467-5.514-8h-7.638c-0.878,0.535-5.516,3.568-5.516,8
				C6.666,19.274,13.131,28.896,14.349,30.667z"/>
        </g>
        <g>
          <path d="M16,17.333c-1.838,0-3.334-1.495-3.334-3.333s1.496-3.333,3.334-3.333s3.333,1.496,3.333,3.333
				S17.838,17.333,16,17.333z M16,12c-1.103,0-2,0.897-2,2s0.897,2,2,2s2-0.897,2-2S17.103,12,16,12z"/>
        </g>
        <g>
          <rect x="15.333" y="17.333" width="1.334" height="14.667"/>
        </g>
      </g>
    </g>
  </g></svg>