<svg id="svg-source" height="0" version="1.1" 
  xmlns="http://www.w3.org/2000/svg" style="position:absolute; margin-left: -100%" 
  xmlns:xlink="http://www.w3.org/1999/xlink"><g xmlns="http://www.w3.org/2000/svg" id="pen">
    <g id="Expanded">
      <g>
        <g>
          <path d="M8.211,28.229L8.211,28.229c-0.177,0-0.347-0.07-0.471-0.196l-3.772-3.771
				c-0.261-0.261-0.261-0.683,0-0.943L27.09,0.195C27.215,0.07,27.385,0,27.562,0l0,0c0.176,0,0.346,0.07,0.471,0.195l3.771,3.772
				c0.26,0.261,0.26,0.683,0,0.943L8.684,28.032C8.558,28.158,8.389,28.229,8.211,28.229z M5.383,23.789l2.829,2.829L30.391,4.439
				L27.562,1.61L5.383,23.789z"/>
        </g>
        <g>
          <path d="M15.301,9.822c-0.171,0-0.341-0.065-0.472-0.195c-0.26-0.261-0.26-0.683,0-0.943l7.544-7.544
				c1.301-1.301,3.416-1.301,4.715,0c0.262,0.26,0.262,0.682,0,0.942c-0.26,0.261-0.682,0.261-0.941,0
				c-0.781-0.78-2.051-0.78-2.83,0l-7.544,7.545C15.642,9.757,15.472,9.822,15.301,9.822z"/>
        </g>
        <g>
          <path d="M0.667,32c-0.171,0-0.342-0.065-0.472-0.195c-0.261-0.261-0.261-0.683,0-0.943l2.829-2.829
				c0.26-0.26,0.682-0.26,0.943,0c0.261,0.261,0.261,0.683,0,0.943l-2.829,2.829C1.009,31.935,0.838,32,0.667,32z"/>
        </g>
        <g>
          <path d="M23.787,12.651c-0.17,0-0.34-0.064-0.471-0.195l-3.771-3.772c-0.262-0.261-0.262-0.683,0-0.942
				c0.26-0.261,0.682-0.261,0.943,0l3.771,3.772c0.26,0.261,0.26,0.683,0,0.942C24.129,12.587,23.959,12.651,23.787,12.651z"/>
        </g>
        <g>
          <path d="M4.44,30.114c-0.171,0-0.342-0.065-0.472-0.195l-1.886-1.887c-0.125-0.125-0.195-0.294-0.195-0.471
				s0.07-0.347,0.195-0.472l2.83-2.829c0.26-0.261,0.682-0.261,0.942,0c0.261,0.261,0.261,0.682,0,0.943l-2.358,2.357l0.944,0.942
				l2.357-2.357c0.261-0.26,0.682-0.26,0.943,0c0.261,0.262,0.261,0.683,0,0.943l-2.829,2.829C4.781,30.049,4.61,30.114,4.44,30.114
				z"/>
        </g>
      </g>
    </g>
  </g></svg>