<svg id="svg-source" height="0" version="1.1" 
  xmlns="http://www.w3.org/2000/svg" style="position:absolute; margin-left: -100%" 
  xmlns:xlink="http://www.w3.org/1999/xlink"><g xmlns="http://www.w3.org/2000/svg" id="picture">
    <g id="Expanded">
      <g>
        <g>
          <path d="M32,32H0V0h32V32z M1.333,30.667h29.333V1.333H1.333V30.667z"/>
        </g>
        <g>
          <rect x="0.667" y="22.667" width="30.667" height="1.333"/>
        </g>
        <g>
          <path d="M12.667,12h-4C7.196,12,6,10.804,6,9.333c0-1.549,1.348-2.802,2.901-2.656C9.45,5.091,10.938,4,12.667,4
				c2.206,0,4,1.794,4,4S14.873,12,12.667,12z M8.667,8C7.931,8,7.333,8.598,7.333,9.333s0.598,1.333,1.333,1.333h4
				c1.471,0,2.667-1.196,2.667-2.667s-1.196-2.667-2.667-2.667c-1.311,0-2.414,0.944-2.622,2.245l-0.13,0.814L9.145,8.094
				C8.985,8.031,8.824,8,8.667,8z"/>
        </g>
        <g>
          <path d="M28.737,23.632l-4.716-9.431c-0.268-0.535-0.806-0.867-1.403-0.867c-0.557,0-1.075,0.299-1.356,0.778
				l-4.019,6.891c-0.117,0.198-0.326,0.322-0.556,0.33c-0.227,0.019-0.447-0.105-0.575-0.295c-0.025-0.038-2.514-3.705-5.446-3.705
				c-2.364,0-4.686,4.511-5.38,6.248l-1.238-0.495C4.338,22.36,6.988,16,10.667,16c2.677,0,4.891,2.219,5.927,3.47l3.517-6.03
				c0.518-0.889,1.479-1.44,2.507-1.44c1.106,0,2.102,0.615,2.597,1.605l4.716,9.43L28.737,23.632z"/>
        </g>
      </g>
    </g>
  </g></svg>