<svg id="svg-source" height="0" version="1.1" 
  xmlns="http://www.w3.org/2000/svg" style="position:absolute; margin-left: -100%" 
  xmlns:xlink="http://www.w3.org/1999/xlink"><g xmlns="http://www.w3.org/2000/svg" id="picture-stock">
    <g id="Expanded">
      <g>
        <g>
          <polygon points="32,32 7.333,32 7.333,30.667 30.667,30.667 30.667,7.333 32,7.333 			"/>
        </g>
        <g>
          <polygon points="29.333,29.333 3.333,29.333 3.333,28 28,28 28,3.333 29.333,3.333 			"/>
        </g>
        <g>
          <path d="M25.333,1.333v24h-24v-24H25.333 M26.667,0H0v26.667h26.667V0L26.667,0z"/>
        </g>
        <g>
          <path d="M6.571,21.011l-1.143-0.687l4-6.667c0.111-0.185,0.305-0.305,0.52-0.321
				c0.218-0.019,0.426,0.072,0.563,0.238l2.762,3.314l4.838-7.257c0.139-0.208,0.383-0.32,0.631-0.292
				c0.249,0.029,0.46,0.194,0.548,0.429l4,10.667l-1.248,0.468l-3.543-9.448l-4.612,6.917c-0.116,0.176-0.309,0.285-0.52,0.296
				c-0.209,0.009-0.413-0.077-0.547-0.239l-2.733-3.278L6.571,21.011z"/>
        </g>
        <g>
          <path d="M8,9.333c-1.471,0-2.667-1.196-2.667-2.667S6.529,4,8,4s2.667,1.196,2.667,2.667S9.471,9.333,8,9.333z
				 M8,5.333c-0.735,0-1.333,0.598-1.333,1.333S7.265,8,8,8s1.333-0.598,1.333-1.333S8.735,5.333,8,5.333z"/>
        </g>
        <g>
          <rect y="20" width="26.667" height="1.333"/>
        </g>
      </g>
    </g>
  </g></svg>