<svg id="svg-source" height="0" version="1.1" 
  xmlns="http://www.w3.org/2000/svg" style="position:absolute; margin-left: -100%" 
  xmlns:xlink="http://www.w3.org/1999/xlink"><g xmlns="http://www.w3.org/2000/svg" id="receipt-shopping">
    <g id="Expanded">
      <g>
        <g>
          <rect x="10.667" y="22.333" width="9.967" height="1.334"/>
        </g>
        <g>
          <rect x="19.085" y="27.667" width="5.549" height="1.333"/>
        </g>
        <g>
          <path d="M18.667,7.666H16c-0.368,0-0.667-0.298-0.667-0.666c0-0.369,0.299-0.667,0.667-0.667h2.667
				c0.367,0,0.666,0.298,0.666,0.667C19.333,7.368,19.034,7.666,18.667,7.666z"/>
        </g>
        <g>
          <path d="M24.667,10.333h-7.334c-0.367,0-0.666-0.298-0.666-0.667C16.667,9.298,16.966,9,17.333,9h7.334
				c0.367,0,0.666,0.298,0.666,0.666C25.333,10.035,25.034,10.333,24.667,10.333z"/>
        </g>
        <g>
          <path d="M24,13h-8.667c-0.368,0-0.667-0.298-0.667-0.667s0.299-0.667,0.667-0.667H24
				c0.368,0,0.667,0.298,0.667,0.667S24.368,13,24,13z"/>
        </g>
        <g>
          <path d="M24.667,15.666h-9.333c-0.368,0-0.667-0.298-0.667-0.666c0-0.369,0.299-0.667,0.667-0.667h9.333
				c0.367,0,0.666,0.298,0.666,0.667C25.333,15.368,25.034,15.666,24.667,15.666z"/>
        </g>
        <g>
          <path d="M23.333,18.333h-8c-0.368,0-0.667-0.298-0.667-0.666c0-0.369,0.299-0.667,0.667-0.667h8
				C23.701,17,24,17.298,24,17.667C24,18.035,23.701,18.333,23.333,18.333z"/>
        </g>
        <g>
          <path d="M24,21h-9.333C14.299,21,14,20.702,14,20.333c0-0.368,0.299-0.666,0.667-0.666H24
				c0.368,0,0.667,0.298,0.667,0.666C24.667,20.702,24.368,21,24,21z"/>
        </g>
        <g>
          <rect x="13.367" y="0.333" width="16.633" height="1.333"/>
        </g>
        <g>
          <path d="M16.634,31.667H0v-1.334c0.551,0,0.949-0.13,1.217-0.4c0.634-0.639,0.623-2.122,0.614-3.431
				c-0.011-1.463-0.02-2.846,0.755-3.626C2.945,22.516,3.42,22.333,4,22.333h6.116c1.344-7.311,1.219-19.203,1.218-19.325
				c0.015-0.938,0.46-2.675,2.033-2.675v1.333c-0.638,0-0.7,1.331-0.7,1.345c0.006,0.498,0.134,12.735-1.347,20.121l-0.107,0.535H4
				c-0.286,0-0.403,0.085-0.467,0.149c-0.385,0.388-0.376,1.604-0.369,2.677c0.009,1.322,0.02,2.793-0.59,3.84h14.06
				c0.551,0,0.949-0.13,1.217-0.4c0.634-0.639,0.623-2.122,0.613-3.431c-0.011-1.463-0.02-2.846,0.756-3.626
				c0.358-0.36,0.834-0.543,1.414-0.543c0.676,0,1.203,0.188,1.57,0.559c0.617,0.624,0.607,1.551,0.598,2.447
				c-0.008,0.755-0.016,1.536,0.369,1.926c0.266,0.267,0.758,0.402,1.463,0.402c0.072,0,0.292,0,0.592-0.309
				c2.701-2.773,2.895-18.512,2.741-24.342c0.015-0.947,0.46-2.684,2.033-2.684c1.739,0,2,3.342,2,5.333v0.667h-2.657
				c0.01,6.284-0.328,19.047-3.162,21.956C25.722,28.761,25.2,29,24.634,29c-1.09,0-1.879-0.262-2.41-0.799
				c-0.776-0.784-0.764-1.896-0.754-2.876c0.006-0.623,0.014-1.267-0.213-1.495c-0.133-0.136-0.412-0.163-0.623-0.163
				c-0.286,0-0.403,0.085-0.468,0.149c-0.385,0.388-0.376,1.604-0.369,2.677c0.011,1.569,0.023,3.348-1.001,4.379
				C18.273,31.399,17.546,31.667,16.634,31.667z M29.334,5h1.318c-0.069-1.631-0.374-3.139-0.704-3.347
				C29.362,1.666,29.3,2.997,29.3,3.011C29.309,3.332,29.324,4.031,29.334,5z"/>
        </g>
      </g>
    </g>
  </g></svg>