<svg id="svg-source" height="0" version="1.1" 
  xmlns="http://www.w3.org/2000/svg" style="position:absolute; margin-left: -100%" 
  xmlns:xlink="http://www.w3.org/1999/xlink"><g xmlns="http://www.w3.org/2000/svg" id="remote-control">
    <g id="Expanded">
      <g>
        <g>
          <path d="M27.06,32c-0.199,0-0.396-0.089-0.527-0.257l-3.631-4.669l-0.141-0.409v-6.078
				c0-1.62-0.853-2.327-2.723-3.876c-0.323-0.268-0.672-0.557-1.043-0.874c-0.28-0.239-0.313-0.66-0.075-0.94
				c0.239-0.28,0.66-0.314,0.94-0.075c0.366,0.312,0.709,0.597,1.028,0.861c1.931,1.599,3.206,2.656,3.206,4.904v5.85l3.491,4.487
				c0.227,0.291,0.173,0.71-0.117,0.936C27.347,31.954,27.203,32,27.06,32z"/>
        </g>
        <g>
          <path d="M19.523,31.999c-0.208,0-0.413-0.098-0.543-0.279l-0.684-0.956c-0.568-0.797-0.87-1.736-0.87-2.714
				v-1.843l-2.85-4.118c-0.765-0.814-0.75-2.101,0.045-2.896c0.812-0.812,2.132-0.812,2.943,0l3.667,3.667
				c0.261,0.261,0.261,0.683,0,0.942c-0.261,0.261-0.682,0.261-0.943,0l-3.667-3.667c-0.291-0.292-0.765-0.292-1.057,0
				c-0.291,0.292-0.291,0.766,0,1.057l0.076,0.092l3.001,4.334l0.118,0.38v2.052c0,0.699,0.215,1.369,0.622,1.938l0.683,0.956
				c0.214,0.3,0.145,0.717-0.154,0.93C19.792,31.958,19.657,31.999,19.523,31.999z"/>
        </g>
        <g>
          <path d="M18.094,29.332H8.092c-1.471,0-2.667-1.196-2.667-2.667V11.996c0-1.471,1.196-2.667,2.667-2.667h9.334
				c1.471,0,2.667,1.196,2.667,2.667v10.001h-1.333V11.996c0-0.735-0.599-1.333-1.334-1.333H8.092c-0.735,0-1.333,0.598-1.333,1.333
				v14.669c0,0.734,0.598,1.333,1.333,1.333h10.001V29.332z"/>
        </g>
        <g>
          <path d="M16.531,8.224c-1.007-1.007-2.347-1.562-3.771-1.562c-1.425,0-2.765,0.555-3.771,1.562L8.045,7.282
				c1.259-1.259,2.934-1.953,4.714-1.953s3.455,0.694,4.714,1.953L16.531,8.224z"/>
        </g>
        <g>
          <path d="M18.417,6.339c-3.119-3.12-8.196-3.12-11.315,0L6.16,5.396c3.639-3.64,9.562-3.64,13.201,0L18.417,6.339z
				"/>
        </g>
        <g>
          <path d="M20.303,4.453c-4.158-4.159-10.928-4.159-15.086,0L4.273,3.51c4.68-4.68,12.293-4.68,16.973,0
				L20.303,4.453z"/>
        </g>
        <g>
          <path d="M10.093,13.33c-0.368,0-0.667,0.299-0.667,0.667c0,0.368,0.299,0.667,0.667,0.667
				s0.667-0.299,0.667-0.667C10.759,13.628,10.461,13.33,10.093,13.33L10.093,13.33z"/>
        </g>
        <g>
          <path d="M12.76,13.33c-0.368,0-0.667,0.299-0.667,0.667c0,0.368,0.299,0.667,0.667,0.667s0.667-0.299,0.667-0.667
				C13.426,13.628,13.128,13.33,12.76,13.33L12.76,13.33z"/>
        </g>
        <g>
          <path d="M15.427,13.33c-0.368,0-0.667,0.299-0.667,0.667c0,0.368,0.299,0.667,0.667,0.667
				s0.667-0.299,0.667-0.667C16.094,13.628,15.795,13.33,15.427,13.33L15.427,13.33z"/>
        </g>
        <g>
          <path d="M10.093,15.996c-0.368,0-0.667,0.299-0.667,0.667s0.299,0.667,0.667,0.667s0.667-0.299,0.667-0.667
				S10.461,15.996,10.093,15.996L10.093,15.996z"/>
        </g>
        <g>
          <path d="M12.76,15.996c-0.368,0-0.667,0.299-0.667,0.667s0.299,0.667,0.667,0.667s0.667-0.299,0.667-0.667
				S13.128,15.996,12.76,15.996L12.76,15.996z"/>
        </g>
        <g>
          <path d="M10.093,18.664c-0.368,0-0.667,0.299-0.667,0.666c0,0.368,0.299,0.667,0.667,0.667
				s0.667-0.299,0.667-0.667C10.759,18.963,10.461,18.664,10.093,18.664L10.093,18.664z"/>
        </g>
        <g>
          <path d="M12.76,18.664c-0.368,0-0.667,0.299-0.667,0.666c0,0.368,0.299,0.667,0.667,0.667
				s0.667-0.299,0.667-0.667C13.426,18.963,13.128,18.664,12.76,18.664L12.76,18.664z"/>
        </g>
        <g>
          <path d="M10.093,21.331c-0.368,0-0.667,0.299-0.667,0.666c0,0.368,0.299,0.667,0.667,0.667
				s0.667-0.299,0.667-0.667C10.759,21.63,10.461,21.331,10.093,21.331L10.093,21.331z"/>
        </g>
        <g>
          <path d="M12.76,21.331c-0.368,0-0.667,0.299-0.667,0.666c0,0.368,0.299,0.667,0.667,0.667
				s0.667-0.299,0.667-0.667C13.426,21.63,13.128,21.331,12.76,21.331L12.76,21.331z"/>
        </g>
        <g>
          <path d="M10.093,23.998c-0.368,0-0.667,0.299-0.667,0.666c0,0.368,0.299,0.667,0.667,0.667
				s0.667-0.299,0.667-0.667C10.759,24.297,10.461,23.998,10.093,23.998L10.093,23.998z"/>
        </g>
        <g>
          <path d="M12.76,23.998c-0.368,0-0.667,0.299-0.667,0.666c0,0.368,0.299,0.667,0.667,0.667
				s0.667-0.299,0.667-0.667C13.426,24.297,13.128,23.998,12.76,23.998L12.76,23.998z"/>
        </g>
        <g>
          <path d="M15.427,15.996c-0.368,0-0.667,0.299-0.667,0.667s0.299,0.667,0.667,0.667s0.667-0.299,0.667-0.667
				S15.795,15.996,15.427,15.996L15.427,15.996z"/>
        </g>
      </g>
    </g>
  </g></svg>