<svg id="svg-source" height="0" version="1.1" 
  xmlns="http://www.w3.org/2000/svg" style="position:absolute; margin-left: -100%" 
  xmlns:xlink="http://www.w3.org/1999/xlink"><g xmlns="http://www.w3.org/2000/svg" id="settings-gear">
    <g id="Expanded">
      <g>
        <g>
          <path d="M17.333,32h-2.667c-1.103,0-2-0.897-2-2v-2.483c-0.853-0.246-1.675-0.587-2.454-1.018l-1.756,1.757
				c-0.756,0.756-2.072,0.755-2.829,0l-1.886-1.885c-0.378-0.378-0.586-0.88-0.586-1.414s0.208-1.037,0.586-1.414l1.757-1.758
				c-0.43-0.777-0.771-1.599-1.017-2.452H2c-1.103,0-2-0.898-2-2v-2.667c0-0.535,0.208-1.037,0.585-1.414
				c0.378-0.377,0.88-0.586,1.415-0.586h2.483c0.246-0.852,0.586-1.674,1.017-2.453L3.744,8.457c-0.78-0.78-0.78-2.048,0-2.828
				l1.885-1.886c0.755-0.755,2.073-0.756,2.829,0L10.214,5.5c0.779-0.43,1.601-0.771,2.452-1.017V2c0-1.103,0.897-2,2-2h2.667
				c1.104,0,2,0.897,2,2v2.483c0.854,0.246,1.675,0.587,2.452,1.017l1.757-1.757c0.756-0.755,2.072-0.756,2.829,0l1.886,1.885
				c0.378,0.377,0.586,0.88,0.586,1.414c0,0.534-0.208,1.037-0.586,1.414l-1.756,1.756c0.43,0.779,0.771,1.6,1.018,2.454H30
				c1.103,0,2,0.897,2,2v2.667c0,0.534-0.208,1.037-0.585,1.414S30.534,19.333,30,19.333h-2.483
				c-0.246,0.854-0.587,1.675-1.017,2.453l1.756,1.757c0.78,0.78,0.78,2.048,0,2.828l-1.885,1.886c-0.757,0.755-2.073,0.755-2.829,0
				L21.786,26.5c-0.778,0.431-1.6,0.771-2.452,1.017V30C19.333,31.103,18.437,32,17.333,32z M10.105,24.999
				c0.119,0,0.24,0.031,0.347,0.098c0.944,0.576,1.966,1.001,3.038,1.26c0.3,0.073,0.51,0.34,0.51,0.648V30
				c0,0.368,0.299,0.667,0.667,0.667h2.667C17.7,30.667,18,30.368,18,30v-2.995c0-0.309,0.211-0.575,0.511-0.648
				c1.07-0.259,2.092-0.682,3.036-1.26c0.265-0.16,0.602-0.12,0.819,0.098l2.119,2.119c0.25,0.249,0.693,0.25,0.943,0l1.885-1.887
				c0.261-0.26,0.261-0.682,0-0.942l-2.119-2.119c-0.218-0.217-0.258-0.557-0.097-0.819c0.577-0.943,1-1.965,1.259-3.037
				c0.072-0.299,0.34-0.511,0.648-0.511H30c0.179,0,0.347-0.069,0.472-0.195c0.126-0.124,0.195-0.291,0.195-0.47v-2.667
				c0-0.368-0.3-0.667-0.667-0.667h-2.995c-0.309,0-0.576-0.211-0.648-0.511c-0.259-1.071-0.682-2.094-1.259-3.038
				c-0.161-0.262-0.121-0.601,0.097-0.819l2.119-2.12c0.125-0.125,0.195-0.296,0.195-0.471c0-0.176-0.07-0.348-0.195-0.472
				l-1.885-1.885c-0.253-0.251-0.691-0.251-0.944,0l-2.119,2.12c-0.217,0.219-0.556,0.259-0.819,0.097
				c-0.941-0.576-1.963-1-3.035-1.259C18.211,5.571,18,5.303,18,4.996V2c0-0.368-0.3-0.667-0.667-0.667h-2.667
				C14.299,1.333,14,1.632,14,2v2.996c0,0.308-0.21,0.575-0.51,0.647c-1.07,0.259-2.092,0.682-3.037,1.26
				c-0.263,0.161-0.602,0.121-0.818-0.098l-2.12-2.119c-0.252-0.251-0.691-0.251-0.943,0L4.687,6.571c-0.26,0.26-0.26,0.683,0,0.943
				l2.12,2.119c0.218,0.217,0.258,0.557,0.097,0.819c-0.577,0.944-1,1.966-1.259,3.037C5.572,13.789,5.304,14,4.996,14H2
				c-0.178,0-0.346,0.069-0.472,0.195c-0.125,0.125-0.194,0.292-0.194,0.471v2.667c0,0.367,0.299,0.666,0.667,0.666h2.996
				c0.308,0,0.576,0.211,0.647,0.512c0.26,1.071,0.683,2.094,1.26,3.036c0.161,0.263,0.121,0.601-0.098,0.819l-2.119,2.119
				c-0.124,0.125-0.195,0.297-0.195,0.472c0,0.176,0.071,0.348,0.195,0.472l1.886,1.885c0.251,0.252,0.691,0.252,0.943,0
				l2.119-2.119C9.762,25.065,9.932,24.999,10.105,24.999z"/>
        </g>
        <g>
          <path d="M16,22.667c-3.676,0-6.667-2.991-6.667-6.667c0-3.676,2.99-6.667,6.667-6.667
				c3.676,0,6.667,2.99,6.667,6.667C22.667,19.676,19.677,22.667,16,22.667z M16,10.667c-2.941,0-5.333,2.393-5.333,5.333
				c0,2.94,2.393,5.333,5.333,5.333c2.94,0,5.333-2.393,5.333-5.333C21.333,13.059,18.941,10.667,16,10.667z"/>
        </g>
      </g>
    </g>
  </g></svg>