<svg id="svg-source" height="0" version="1.1" 
  xmlns="http://www.w3.org/2000/svg" style="position:absolute; margin-left: -100%" 
  xmlns:xlink="http://www.w3.org/1999/xlink"><g xmlns="http://www.w3.org/2000/svg" id="settings-adjustments">
    <g id="Expanded">
      <g>
        <g>
          <path d="M29.333,32H2.667C1.196,32,0,30.804,0,29.333V2.667C0,1.196,1.196,0,2.667,0h26.667
				C30.804,0,32,1.196,32,2.667v26.667C32,30.804,30.804,32,29.333,32z M2.667,1.333c-0.735,0-1.333,0.598-1.333,1.333v26.667
				c0,0.736,0.598,1.334,1.333,1.334h26.667c0.736,0,1.334-0.598,1.334-1.334V2.667c0-0.735-0.598-1.333-1.334-1.333H2.667z"/>
        </g>
        <g>
          <path d="M16,20c-0.368,0-0.667-0.298-0.667-0.667V10c0-0.369,0.299-0.667,0.667-0.667S16.667,9.631,16.667,10
				v9.333C16.667,19.702,16.368,20,16,20z"/>
        </g>
        <g>
          <path d="M22.667,20C22.299,20,22,19.702,22,19.333v-2.666C22,16.298,22.299,16,22.667,16
				c0.367,0,0.666,0.298,0.666,0.667v2.666C23.333,19.702,23.034,20,22.667,20z"/>
        </g>
        <g>
          <path d="M9.333,12c-0.368,0-0.667-0.298-0.667-0.667V4.667C8.667,4.298,8.965,4,9.333,4
				C9.701,4,10,4.298,10,4.667v6.667C10,11.702,9.701,12,9.333,12z"/>
        </g>
        <g>
          <path d="M9.333,20c-0.368,0-0.667-0.298-0.667-0.667V14c0-0.369,0.299-0.666,0.667-0.666
				C9.701,13.334,10,13.631,10,14v5.333C10,19.702,9.701,20,9.333,20z"/>
        </g>
        <g>
          <path d="M22.667,14.666C22.299,14.666,22,14.369,22,14V4.667C22,4.298,22.299,4,22.667,4
				c0.367,0,0.666,0.298,0.666,0.667V14C23.333,14.369,23.034,14.666,22.667,14.666z"/>
        </g>
        <g>
          <path d="M16,8c-0.368,0-0.667-0.298-0.667-0.667V4.667C15.333,4.298,15.632,4,16,4s0.667,0.298,0.667,0.667v2.667
				C16.667,7.702,16.368,8,16,8z"/>
        </g>
        <g>
          <path d="M24.667,17.333h-4c-0.368,0-0.667-0.298-0.667-0.666V14c0-0.369,0.299-0.666,0.667-0.666h4
				c0.367,0,0.666,0.297,0.666,0.666v2.667C25.333,17.035,25.034,17.333,24.667,17.333z M21.333,16H24v-1.334h-2.667V16z"/>
        </g>
        <g>
          <path d="M18,10.667h-4c-0.368,0-0.667-0.298-0.667-0.667V7.333c0-0.369,0.299-0.667,0.667-0.667h4
				c0.368,0,0.667,0.298,0.667,0.667V10C18.667,10.369,18.368,10.667,18,10.667z M14.667,9.333h2.667V8h-2.667V9.333z"/>
        </g>
        <g>
          <path d="M11.333,14.666h-4c-0.368,0-0.667-0.297-0.667-0.666v-2.667c0-0.369,0.299-0.667,0.667-0.667h4
				c0.368,0,0.667,0.298,0.667,0.667V14C12,14.369,11.701,14.666,11.333,14.666z M8,13.334h2.667V12H8V13.334z"/>
        </g>
        <g>
          <path d="M22.667,28C21.196,28,20,26.804,20,25.333s1.196-2.666,2.667-2.666s2.666,1.195,2.666,2.666
				S24.138,28,22.667,28z M22.667,24c-0.736,0-1.334,0.598-1.334,1.333c0,0.736,0.598,1.334,1.334,1.334
				c0.735,0,1.333-0.598,1.333-1.334C24,24.598,23.402,24,22.667,24z"/>
        </g>
        <g>
          <path d="M16,28c-1.471,0-2.667-1.196-2.667-2.667s1.196-2.666,2.667-2.666s2.667,1.195,2.667,2.666
				S17.471,28,16,28z M16,24c-0.735,0-1.333,0.598-1.333,1.333c0,0.736,0.598,1.334,1.333,1.334s1.333-0.598,1.333-1.334
				C17.333,24.598,16.735,24,16,24z"/>
        </g>
        <g>
          <path d="M9.333,28c-1.471,0-2.667-1.196-2.667-2.667s1.196-2.666,2.667-2.666S12,23.862,12,25.333
				S10.804,28,9.333,28z M9.333,24C8.598,24,8,24.598,8,25.333c0,0.736,0.598,1.334,1.333,1.334s1.333-0.598,1.333-1.334
				C10.667,24.598,10.069,24,9.333,24z"/>
        </g>
      </g>
    </g>
  </g></svg>