<svg id="svg-source" height="0" version="1.1" 
  xmlns="http://www.w3.org/2000/svg" style="position:absolute; margin-left: -100%" 
  xmlns:xlink="http://www.w3.org/1999/xlink"><g xmlns="http://www.w3.org/2000/svg" id="shoes-snickers-keds">
    <g id="Expanded">
      <g>
        <g>
          <path d="M31.333,29.333H0.667C0.298,29.333,0,29.035,0,28.667v-9.334c0-1.103,0.897-2,2-2h1.333
				C3.702,17.333,4,17.632,4,18c0,0.444,1.729,1.333,4,1.333c2.729,0,4-0.795,4-1.333c0-0.217,0.105-0.42,0.283-0.544
				c0.178-0.125,0.404-0.154,0.608-0.084l17.782,6.352C31.467,24.007,32,24.763,32,25.606v3.061
				C32,29.035,31.702,29.333,31.333,29.333z M1.333,28h29.333v-2.394c0-0.281-0.178-0.533-0.442-0.628l-17.116-6.112
				c-0.621,1.117-2.491,1.801-5.109,1.801c-2.199,0-4.546-0.749-5.172-2H2c-0.368,0-0.667,0.299-0.667,0.666V28z"/>
        </g>
        <g>
          <rect x="0.667" y="25.333" width="30.667" height="1.334"/>
        </g>
        <g>
          <path d="M14.667,21.333c-0.17,0-0.34-0.064-0.471-0.193c-0.26-0.261-0.262-0.683-0.002-0.943l1.435-1.44
				c0.261-0.259,0.682-0.262,0.943-0.002c0.261,0.261,0.262,0.683,0.002,0.943l-1.434,1.44
				C15.009,21.267,14.838,21.333,14.667,21.333z"/>
        </g>
        <g>
          <path d="M17.333,22c-0.17,0-0.341-0.065-0.471-0.195c-0.261-0.261-0.261-0.683,0-0.942l1.229-1.229
				c0.26-0.26,0.682-0.26,0.942,0c0.261,0.261,0.261,0.683,0,0.943l-1.229,1.228C17.675,21.935,17.505,22,17.333,22z"/>
        </g>
        <g>
          <path d="M16.667,26h-1.333v-0.667c0-1.471,1.196-2.666,2.667-2.666h4c0.318,0,0.667-0.449,0.667-0.857H24
				c0,1.037-0.821,2.19-2,2.19h-4c-0.735,0-1.333,0.598-1.333,1.333V26z"/>
        </g>
        <g>
          <path d="M4.667,26.667C4.298,26.667,4,26.368,4,26c0-1.838-1.495-3.333-3.333-3.333C0.298,22.667,0,22.368,0,22
				s0.298-0.667,0.667-0.667c2.573,0,4.667,2.094,4.667,4.667C5.333,26.368,5.036,26.667,4.667,26.667z"/>
        </g>
        <g>
          <path d="M19.333,14.666c-0.074,0-0.15-0.013-0.224-0.039L1.328,8.277C0.534,7.994,0,7.237,0,6.395V3.334
				c0-0.369,0.298-0.667,0.667-0.667h30.667C31.702,2.667,32,2.965,32,3.334v9.333c0,1.103-0.897,1.999-2,1.999h-1.333
				C28.298,14.666,28,14.369,28,14c0-0.445-1.729-1.333-4-1.333c-2.729,0-4,0.795-4,1.333c0,0.217-0.104,0.42-0.282,0.545
				C19.604,14.625,19.469,14.666,19.333,14.666z M29.173,13.334H30c0.368,0,0.667-0.299,0.667-0.667V4H1.333v2.395
				c0,0.28,0.178,0.533,0.442,0.627l17.116,6.113c0.621-1.118,2.49-1.801,5.108-1.801C26.198,11.334,28.546,12.082,29.173,13.334z"/>
        </g>
        <g>
          <rect x="0.667" y="5.334" width="30.667" height="1.333"/>
        </g>
        <g>
          <path d="M15.899,13.439c-0.17,0-0.341-0.064-0.471-0.193c-0.261-0.261-0.262-0.682-0.002-0.943l1.434-1.439
				c0.262-0.26,0.682-0.263,0.943-0.002c0.261,0.261,0.262,0.682,0.002,0.943l-1.434,1.439
				C16.241,13.375,16.069,13.439,15.899,13.439z"/>
        </g>
        <g>
          <path d="M13.439,12.562c-0.171,0-0.342-0.065-0.472-0.195c-0.261-0.261-0.261-0.682,0-0.942l1.228-1.229
				c0.261-0.261,0.682-0.261,0.943,0s0.261,0.683,0,0.943l-1.228,1.228C13.78,12.496,13.609,12.562,13.439,12.562z"/>
        </g>
        <g>
          <path d="M9.333,10.19H8C8,9.154,8.822,8,10,8h4c0.735,0,1.333-0.598,1.333-1.333V6h1.333v0.667
				c0,1.471-1.196,2.667-2.667,2.667h-4C9.682,9.334,9.333,9.782,9.333,10.19z"/>
        </g>
        <g>
          <path d="M31.333,10.667c-2.572,0-4.666-2.094-4.666-4.667c0-0.368,0.298-0.666,0.666-0.666
				C27.702,5.334,28,5.632,28,6c0,1.838,1.495,3.334,3.333,3.334C31.702,9.334,32,9.632,32,10
				C32,10.369,31.702,10.667,31.333,10.667z"/>
        </g>
      </g>
    </g>
  </g></svg>