<svg id="svg-source" height="0" version="1.1" 
  xmlns="http://www.w3.org/2000/svg" style="position:absolute; margin-left: -100%" 
  xmlns:xlink="http://www.w3.org/1999/xlink"><g xmlns="http://www.w3.org/2000/svg" id="speech-talk-user">
    <g id="Expanded">
      <g>
        <g>
          <path d="M21.333,18.667c-0.086,0-0.172-0.016-0.255-0.051c-0.249-0.104-0.411-0.347-0.411-0.616v-4.667h-2
				c-0.369,0-0.667-0.298-0.667-0.667C18,12.298,18.298,12,18.667,12h2.666C21.702,12,22,12.298,22,12.667v3.724l4.195-4.195
				C26.32,12.07,26.489,12,26.667,12h4V1.333H12V6c0,0.369-0.298,0.667-0.667,0.667c-0.369,0-0.667-0.298-0.667-0.667V0.667
				C10.667,0.298,10.964,0,11.333,0h20C31.702,0,32,0.298,32,0.667v12c0,0.369-0.298,0.667-0.667,0.667h-4.391l-5.138,5.138
				C21.677,18.599,21.507,18.667,21.333,18.667z"/>
        </g>
        <g>
          <path d="M21.333,32H0v-2.652c0-1.612,1.02-3.059,2.54-3.601l4.829-1.726v-2.394h1.333v3.333l-5.715,2.041
				c-0.989,0.354-1.653,1.296-1.653,2.346v1.319H20v-1.319c0-1.05-0.664-1.992-1.652-2.347l-5.715-2.04v-3.515h1.333v2.575
				l4.831,1.726c1.518,0.542,2.537,1.988,2.537,3.601V32z"/>
        </g>
        <g>
          <path d="M10.536,23.053c-3.27,0-5.93-3.133-5.93-6.983c0-3.849,2.66-6.982,5.93-6.982
				c3.27,0,5.93,3.132,5.93,6.982C16.465,19.92,13.805,23.053,10.536,23.053z M10.536,10.421c-2.535,0-4.597,2.534-4.597,5.649
				c0,3.114,2.062,5.649,4.597,5.649c2.534,0,4.597-2.535,4.597-5.649C15.131,12.956,13.069,10.421,10.536,10.421z"/>
        </g>
        <g>
          <path d="M14.383,16.303c-1.252,0-2.247-0.532-3.092-1.651c-0.943,0.909-2.495,1.558-3.914,1.558
				c-0.863,0-1.609-0.181-2.348-0.567l0.619-1.181c0.547,0.287,1.08,0.414,1.729,0.414c1.308,0,2.915-0.797,3.373-1.673l0.565-1.082
				l0.605,1.059c0.874,1.531,1.75,1.991,3.226,1.708c0.147-0.028,0.282-0.029,0.413-0.029c0.044,0,0.09,0.003,0.139-0.003
				l0.162,1.323c-0.109,0.014-0.209,0.014-0.313,0.014c-0.046-0.002-0.097-0.004-0.15,0.006
				C15.042,16.267,14.704,16.303,14.383,16.303z"/>
        </g>
        <g>
          <path d="M24.667,6.667C24.298,6.667,24,6.965,24,7.333C24,7.701,24.298,8,24.667,8
				c0.368,0,0.666-0.299,0.666-0.667C25.333,6.965,25.035,6.667,24.667,6.667L24.667,6.667z"/>
        </g>
        <g>
          <path d="M21.333,6.667c-0.368,0-0.666,0.299-0.666,0.667C20.667,7.701,20.965,8,21.333,8
				C21.702,8,22,7.701,22,7.333C22,6.965,21.702,6.667,21.333,6.667L21.333,6.667z"/>
        </g>
        <g>
          <path d="M18,6.667c-0.368,0-0.667,0.299-0.667,0.667C17.333,7.701,17.632,8,18,8s0.667-0.299,0.667-0.667
				C18.667,6.965,18.368,6.667,18,6.667L18,6.667z"/>
        </g>
      </g>
    </g>
  </g></svg>