<svg id="svg-source" height="0" version="1.1" 
  xmlns="http://www.w3.org/2000/svg" style="position:absolute; margin-left: -100%" 
  xmlns:xlink="http://www.w3.org/1999/xlink"><g xmlns="http://www.w3.org/2000/svg" id="stamp">
    <g id="Expanded">
      <g>
        <g>
          <path d="M30,31.978H2c-0.368,0-0.667-0.299-0.667-0.666v-2.667c0-0.368,0.299-0.667,0.667-0.667
				s0.667,0.299,0.667,0.667v2h26.667v-2c0-0.368,0.299-0.667,0.667-0.667s0.667,0.299,0.667,0.667v2.667
				C30.667,31.679,30.368,31.978,30,31.978z"/>
        </g>
        <g>
          <path d="M31.333,29.312H0.667C0.299,29.312,0,29.013,0,28.645v-4c0-1.838,1.496-3.333,3.333-3.333h6.461
				c4.389-3.055,2.375-7.487,0.751-11.057c-0.677-1.491-1.212-2.669-1.212-3.61c0-4.347,3.353-6.622,6.665-6.622
				c3.313,0,6.669,2.275,6.669,6.622c0,0.936-0.533,2.112-1.209,3.602c-1.62,3.577-3.633,8.017,0.746,11.065h6.463
				c1.838,0,3.333,1.495,3.333,3.333v4C32,29.013,31.701,29.312,31.333,29.312z M1.333,27.978h29.333v-3.333c0-1.103-0.897-2-2-2H22
				c-0.132,0-0.259-0.039-0.368-0.111c-5.538-3.679-3.039-9.19-1.387-12.838c0.56-1.235,1.088-2.402,1.088-3.051
				c0-3.634-2.766-5.289-5.335-5.289c-2.567,0-5.332,1.655-5.332,5.289c0,0.652,0.531,1.821,1.094,3.058
				c1.655,3.641,4.157,9.144-1.391,12.831c-0.11,0.072-0.238,0.111-0.37,0.111H3.333c-1.103,0-2,0.897-2,2V27.978z"/>
        </g>
      </g>
    </g>
  </g></svg>