<svg id="svg-source" height="0" version="1.1" 
  xmlns="http://www.w3.org/2000/svg" style="position:absolute; margin-left: -100%" 
  xmlns:xlink="http://www.w3.org/1999/xlink"><g xmlns="http://www.w3.org/2000/svg" id="stock">
    <g id="Expanded">
      <g>
        <g>
          <path d="M27.334,24H4.667C4.298,24,4,23.701,4,23.333V8.667C4,8.299,4.298,8,4.667,8h2v1.333H5.333v13.334h21.333
				V20H28v3.333C28,23.701,27.701,24,27.334,24z"/>
        </g>
        <g>
          <path d="M31.334,18.667H8.667C8.298,18.667,8,18.368,8,18V3.334c0-0.368,0.298-0.667,0.667-0.667h22.667
				C31.701,2.667,32,2.966,32,3.334V18C32,18.368,31.701,18.667,31.334,18.667z M9.333,17.333h21.333V4H9.333V17.333z"/>
        </g>
        <g>
          <path d="M23.334,29.333H0.667C0.298,29.333,0,29.034,0,28.667V14c0-0.368,0.298-0.667,0.667-0.667h2v1.334H1.333
				V28h21.333v-2.667H24v3.334C24,29.034,23.701,29.333,23.334,29.333z"/>
        </g>
      </g>
    </g>
  </g></svg>