<svg id="svg-source" height="0" version="1.1" 
  xmlns="http://www.w3.org/2000/svg" style="position:absolute; margin-left: -100%" 
  xmlns:xlink="http://www.w3.org/1999/xlink"><g xmlns="http://www.w3.org/2000/svg" id="suitcase-travel">
    <g id="Expanded">
      <g>
        <g>
          <path d="M29.333,30H2.666C1.195,30,0,28.804,0,27.333V10c0-1.471,1.195-2.667,2.666-2.667h26.667
				C30.804,7.333,32,8.529,32,10v17.333C32,28.804,30.804,30,29.333,30z M2.666,8.667c-0.734,0-1.332,0.598-1.332,1.333v17.333
				c0,0.736,0.598,1.334,1.332,1.334h26.667c0.736,0,1.334-0.598,1.334-1.334V10c0-0.735-0.598-1.333-1.334-1.333H2.666z"/>
        </g>
        <g>
          <path d="M21.333,5.333H20V4c0-0.368-0.3-0.667-0.667-0.667h-6.667C12.299,3.333,12,3.632,12,4v1.333h-1.334V4
				c0-1.103,0.898-2,2-2h6.667c1.104,0,2,0.897,2,2V5.333z"/>
        </g>
        <g>
          <path d="M26.667,14H4.666C4.299,14,4,13.702,4,13.333c0-0.369,0.299-0.667,0.666-0.667h22.001
				c0.367,0,0.666,0.298,0.666,0.667C27.333,13.702,27.034,14,26.667,14z"/>
        </g>
        <g>
          <path d="M26.667,19.333H4.666C4.299,19.333,4,19.035,4,18.667C4,18.298,4.299,18,4.666,18h22.001
				c0.367,0,0.666,0.298,0.666,0.667C27.333,19.035,27.034,19.333,26.667,19.333z"/>
        </g>
        <g>
          <path d="M26.667,24.667H4.666C4.299,24.667,4,24.368,4,24s0.299-0.667,0.666-0.667h22.001
				c0.367,0,0.666,0.299,0.666,0.667S27.034,24.667,26.667,24.667z"/>
        </g>
        <g>
          <rect x="10.666" y="5.333" width="1.334" height="2.667"/>
        </g>
        <g>
          <rect x="20" y="5.333" width="1.333" height="2.667"/>
        </g>
        <g>
          <rect x="11.334" y="4.667" width="9.333" height="1.333"/>
        </g>
      </g>
    </g>
  </g></svg>