<svg id="svg-source" height="0" version="1.1" 
  xmlns="http://www.w3.org/2000/svg" style="position:absolute; margin-left: -100%" 
  xmlns:xlink="http://www.w3.org/1999/xlink"><g xmlns="http://www.w3.org/2000/svg" id="synk-refresh-rotate">
    <g id="Expanded">
      <g>
        <g>
          <path d="M5.08,19.303c-0.194,0-0.38-0.084-0.509-0.232l-4.407-5.084c-0.243-0.281-0.212-0.706,0.068-0.949
				c0.281-0.243,0.706-0.212,0.95,0.068L5,17.512l3.161-4.901c0.202-0.312,0.618-0.401,0.931-0.201
				c0.312,0.202,0.402,0.619,0.202,0.931l-3.649,5.654c-0.115,0.179-0.307,0.292-0.519,0.307C5.11,19.302,5.095,19.303,5.08,19.303z
				"/>
        </g>
        <g>
          <path d="M31.327,20.97c-0.216,0-0.43-0.104-0.558-0.297l-3.25-4.843l-3.739,4.476
				c-0.238,0.286-0.662,0.323-0.948,0.086c-0.285-0.239-0.322-0.663-0.085-0.948l4.314-5.165c0.136-0.163,0.335-0.258,0.552-0.241
				c0.211,0.012,0.405,0.122,0.522,0.297l3.749,5.587c0.208,0.309,0.126,0.727-0.183,0.934C31.587,20.933,31.458,20.97,31.327,20.97
				z"/>
        </g>
        <g>
          <path d="M16.183,28.115c-3.142,0-6.18-1.226-8.485-3.499c-0.265-0.261-0.267-0.687-0.007-0.951
				c0.261-0.265,0.687-0.267,0.952-0.007c2.661,2.623,6.416,3.675,10.045,2.818c5.308-1.255,8.842-6.279,8.223-11.688
				c-0.043-0.37,0.223-0.703,0.591-0.745c0.373-0.046,0.704,0.222,0.745,0.592c0.697,6.086-3.278,11.739-9.248,13.151
				C18.061,28.007,17.117,28.115,16.183,28.115z"/>
        </g>
        <g>
          <path d="M5.079,19.303c-0.305,0-0.581-0.209-0.654-0.519c-0.745-3.148-0.219-6.398,1.48-9.15
				c1.7-2.753,4.37-4.679,7.519-5.424c4.354-1.026,8.896,0.415,11.863,3.765c0.246,0.279,0.22,0.704-0.059,0.95
				c-0.277,0.245-0.703,0.22-0.949-0.058c-2.638-2.979-6.679-4.262-10.545-3.347C10.935,6.181,8.561,7.894,7.05,10.34
				c-1.51,2.447-1.979,5.335-1.316,8.134c0.085,0.363-0.139,0.725-0.5,0.812C5.182,19.297,5.13,19.303,5.079,19.303z"/>
        </g>
      </g>
    </g>
  </g></svg>