<svg id="svg-source" height="0" version="1.1" 
  xmlns="http://www.w3.org/2000/svg" style="position:absolute; margin-left: -100%" 
  xmlns:xlink="http://www.w3.org/1999/xlink"><g xmlns="http://www.w3.org/2000/svg" id="umbrella-weather">
    <g id="Expanded">
      <g>
        <g>
          <path d="M31.317,20.251c-0.304,0-0.573-0.207-0.647-0.507c-0.025-0.102-0.579-2.16-2.669-2.16
				c-2.211,0-3.393,2.276-3.405,2.3c-0.113,0.225-0.344,0.366-0.595,0.366c-0.001,0-0.001,0-0.002,0
				c-0.251-0.001-0.482-0.143-0.595-0.368c-0.011-0.021-1.192-2.298-3.404-2.298c-2.211,0-3.392,2.276-3.405,2.3
				c-0.125,0.247-0.396,0.389-0.669,0.361c-0.276-0.031-0.505-0.23-0.573-0.5c-0.022-0.083-0.607-2.161-3.354-2.161
				c-2.781,0-3.349,2.14-3.354,2.161C8.571,20.042,8.306,20.251,8,20.251s-0.573-0.209-0.647-0.506
				c-0.022-0.083-0.607-2.161-3.354-2.161c-0.929,0-1.627,0.23-2.079,0.682c-0.561,0.565-0.571,1.307-0.571,1.313
				c0.002,0.363-0.287,0.662-0.65,0.672c-0.36,0.002-0.667-0.274-0.683-0.638c-0.194-4.4,1.375-8.575,4.421-11.757
				C7.485,4.67,11.592,2.915,16,2.915c4.408,0,8.515,1.755,11.563,4.941c3.045,3.182,4.614,7.357,4.42,11.757
				c-0.014,0.331-0.271,0.603-0.602,0.634C31.361,20.249,31.339,20.251,31.317,20.251z M20,16.25c1.978,0,3.301,1.229,4.001,2.124
				c0.7-0.895,2.023-2.124,4-2.124c1.101,0,1.944,0.395,2.568,0.931c-0.363-3.144-1.732-6.066-3.969-8.403
				c-2.796-2.92-6.56-4.529-10.6-4.529S8.195,5.857,5.4,8.778c-2.175,2.273-3.528,5.099-3.936,8.145
				c0.662-0.446,1.511-0.673,2.535-0.673c2.035,0,3.302,0.925,4,1.865c0.699-0.94,1.965-1.865,4-1.865
				c2.134,0,3.422,1.016,4.098,2.002C16.821,17.373,18.111,16.25,20,16.25z"/>
        </g>
        <g>
          <path d="M16,4.249c-0.368,0-0.667-0.298-0.667-0.667V0.915c0-0.369,0.299-0.667,0.667-0.667
				c0.368,0,0.667,0.298,0.667,0.667v2.667C16.667,3.951,16.368,4.249,16,4.249z"/>
        </g>
        <g>
          <path d="M17.667,31.752c-1.16,0-2.333-0.744-2.333-2.167V19.584c0-0.369,0.299-0.667,0.667-0.667
				c0.368,0,0.667,0.298,0.667,0.667v10.001c0,0.811,0.898,0.834,1,0.834s1-0.023,1-0.834c0-0.368,0.298-0.667,0.667-0.667
				c0.367,0,0.666,0.299,0.666,0.667C20,31.008,18.826,31.752,17.667,31.752z"/>
        </g>
      </g>
    </g>
  </g></svg>