<svg id="svg-source" height="0" version="1.1" 
  xmlns="http://www.w3.org/2000/svg" style="position:absolute; margin-left: -100%" 
  xmlns:xlink="http://www.w3.org/1999/xlink"><g xmlns="http://www.w3.org/2000/svg" id="list">
    <path d="M6,10h20c1.104,0,2-0.896,2-2s-0.896-2-2-2H6C4.896,6,4,6.896,4,8S4.896,10,6,10
        z M26,14H6c-1.104,0-2,0.896-2,2s0.896,2,2,2h20c1.104,0,2-0.896,2-2S27.104,14,26,14z M26,22H6c-1.104,0-2,0.896-2,2s0.896,2,2,2
        h20c1.104,0,2-0.896,2-2S27.104,22,26,22z"/>
  </g></svg>