<?xml version="1.0" encoding="iso-8859-1"?>
<!-- Generator: Adobe Illustrator 18.0.0, SVG Export Plug-In . SVG Version: 6.00 Build 0)  -->
<!DOCTYPE svg PUBLIC "-//W3C//DTD SVG 1.1//EN" "http://www.w3.org/Graphics/SVG/1.1/DTD/svg11.dtd">
<svg version="1.1" id="Capa_1" xmlns="http://www.w3.org/2000/svg" xmlns:xlink="http://www.w3.org/1999/xlink" x="0px" y="0px"
	 viewBox="0 0 22 15.756" style="enable-background:new 0 0 22 15.756;" xml:space="preserve">
<g>
	<path style="fill-rule:evenodd;clip-rule:evenodd;" d="M19.5,10h-1.356l-1.124,1.508L15.867,10h-0.38v1.01l1.533,1.746l1.488-1.746
		H19.5C22,11.01,22,8.5,22,8.5v-6c0,0,0-2.5-2.5-2.5h-10C7,0,7,2.498,7,2.498L8,2.5C8,2.5,8,1,9.5,1h10C21,1,21,2.5,21,2.5v6
		C21,8.5,21,10,19.5,10z"/>
	<path style="fill-rule:evenodd;clip-rule:evenodd;" d="M0,5.498V11.5c0,0,0,2.51,2.5,2.51h0.515l1.763,1.746l1.726-1.746H12.5
		c2.5,0,2.5-2.51,2.5-2.51v-6c0,0,0-2.5-2.5-2.5h-10C0,3,0,5.498,0,5.498z M14,5.5v6c0,0,0,1.51-1.5,1.51H6.355l-1.592,1.535
		L3.263,13.01H2.5c0,0-1.5,0-1.5-1.51v-6C1,4,2.5,4,2.5,4h10C14,4,14,5.5,14,5.5z"/>
</g>
<g>
</g>
<g>
</g>
<g>
</g>
<g>
</g>
<g>
</g>
<g>
</g>
<g>
</g>
<g>
</g>
<g>
</g>
<g>
</g>
<g>
</g>
<g>
</g>
<g>
</g>
<g>
</g>
<g>
</g>
</svg>
