<?xml version="1.0" encoding="iso-8859-1"?>
<!-- Generator: Adobe Illustrator 18.0.0, SVG Export Plug-In . SVG Version: 6.00 Build 0)  -->
<!DOCTYPE svg PUBLIC "-//W3C//DTD SVG 1.1//EN" "http://www.w3.org/Graphics/SVG/1.1/DTD/svg11.dtd">
<svg version="1.1" id="Capa_1" xmlns="http://www.w3.org/2000/svg" xmlns:xlink="http://www.w3.org/1999/xlink" x="0px" y="0px"
	 viewBox="0 0 22 17" style="enable-background:new 0 0 22 17;" xml:space="preserve">
<g>
	<path style="fill-rule:evenodd;clip-rule:evenodd;" d="M5,11.545v4.909C5,16.455,5,17,5.5,17C6,17,6,16.455,6,16.455v-4.909
		C6,11.545,6,11,5.5,11C5,11,5,11.545,5,11.545z"/>
	<path style="fill-rule:evenodd;clip-rule:evenodd;" d="M16,11.545v4.909c0,0,0,0.545,0.5,0.545c0.5,0,0.5-0.545,0.5-0.545v-4.909
		c0,0,0-0.545-0.5-0.545C16,11,16,11.545,16,11.545z"/>
	<path style="fill-rule:evenodd;clip-rule:evenodd;" d="M11,0C2.971,0,3,7.305,3,7.305v3.833c0,0-0.496-0.173-0.974-0.173
		C0,10.965,0,12.019,0,12.019v3.769C0,15.788,0.277,17,2.026,17c1.749,0,1.978-1.212,1.978-1.212V7.303c0,0-0.337-6.183,6.996-6.183
		c7.333,0,7.016,6.183,7.016,6.183v8.485c0,0,0.158,1.212,1.992,1.212C21.841,17,22,15.788,22,15.788v-3.769
		c0,0,0-1.087-1.992-1.087c-0.558,0-1.008,0.173-1.008,0.173V7.305C19,7.305,19.029,0,11,0z M3,15.571C3,15.571,3,16,2.526,16h-1.04
		C1,16,1,15.571,1,15.571v-3.099C1,12.472,1.089,12,1.487,12h1.04C2.526,12,3,12,3,12.472V15.571z M19.487,12h1.04
		c0,0,0.474,0,0.474,0.472v3.099c0,0,0,0.429-0.474,0.429h-1.04C19,16,19,15.571,19,15.571v-3.099C19,12.472,19.089,12,19.487,12z"
		/>
</g>
<g>
</g>
<g>
</g>
<g>
</g>
<g>
</g>
<g>
</g>
<g>
</g>
<g>
</g>
<g>
</g>
<g>
</g>
<g>
</g>
<g>
</g>
<g>
</g>
<g>
</g>
<g>
</g>
<g>
</g>
</svg>
