<?xml version="1.0" encoding="utf-8"?>
<!DOCTYPE svg PUBLIC "-//W3C//DTD SVG 1.1//EN" "http://www.w3.org/Graphics/SVG/1.1/DTD/svg11.dtd">
<svg version="1.1" xmlns="http://www.w3.org/2000/svg" xmlns:xlink="http://www.w3.org/1999/xlink" width="23" height="32" viewBox="0 0 23 32">

	<path d="M1 27.429l0.554-3.268h1.982q0.893 0 1.036-0.911v-7.179h0.286q-0.107-0.018-0.286-0.018v-5.125q-0.232-1.214-1.589-1.214h-1.982v-2.929l3.786 0.018q1.143 0 1.732-0.018v-4.5h2.75v4.411q1.464-0.036 2.179-0.036v-4.375h2.75v4.5q1.411 0.125 2.5 0.402t2.018 0.804 1.473 1.393 0.652 2.045q0.321 3.25-2.339 4.607 2.089 0.5 3.125 1.839t0.804 3.821q-0.125 1.268-0.58 2.232t-1.152 1.589-1.732 1.045-2.17 0.616-2.598 0.268v4.554h-2.75v-4.482q-1.429 0-2.179-0.018v4.5h-2.75v-4.554q-0.321 0-0.964-0.009t-0.982-0.009h-3.571zM9.321 24.179q0.143 0 0.661 0.009t0.857 0.009 0.946-0.027 1.045-0.071 1.018-0.152 0.991-0.25 0.848-0.375 0.705-0.536 0.438-0.714 0.17-0.911q0-0.643-0.268-1.143t-0.661-0.821-1.027-0.545-1.17-0.33-1.321-0.161-1.232-0.054-1.152 0.018-0.848 0.018v6.036zM9.321 15.393q0.089 0 0.616 0.009t0.83 0 0.893-0.036 0.982-0.098 0.92-0.196 0.866-0.33 0.661-0.482 0.482-0.688 0.161-0.911q0-0.589-0.223-1.045t-0.545-0.75-0.857-0.5-0.982-0.295-1.098-0.143-1.036-0.045-0.964 0.018-0.705 0.009v5.482z"></path>
</svg>
