<?xml version="1.0" encoding="utf-8"?>
<!DOCTYPE svg PUBLIC "-//W3C//DTD SVG 1.1//EN" "http://www.w3.org/Graphics/SVG/1.1/DTD/svg11.dtd">
<svg version="1.1" xmlns="http://www.w3.org/2000/svg" xmlns:xlink="http://www.w3.org/1999/xlink" width="35" height="32" viewBox="0 0 35 32">

	<path d="M0 26.857v-6.857q0-1.661 1.17-2.83t2.83-1.17h0.5l1.875-7.482q0.411-1.679 1.857-2.813t3.196-1.134h2.286v-4q0-0.25 0.161-0.411t0.411-0.161h8q0.25 0 0.411 0.161t0.161 0.411v4h1.143q1.75 0 3.196 1.134t1.857 2.813l1.875 7.482h0.5q1.661 0 2.83 1.17t1.17 2.83v6.857q0 0.25-0.161 0.411t-0.411 0.161h-2.286v1.143q0 1.429-1 2.429t-2.429 1-2.429-1-1-2.429v-1.143h-16.571v1.143q0 1.429-1 2.429t-2.429 1-2.429-1-1-2.429v-1.143h-1.714q-0.25 0-0.411-0.161t-0.161-0.411zM2.857 21.714q0 1.179 0.839 2.018t2.018 0.839 2.018-0.839 0.839-2.018-0.839-2.018-2.018-0.839-2.018 0.839-0.839 2.018zM9.214 16h17l-1.589-6.375q-0.036-0.143-0.25-0.313t-0.375-0.17h-12.571q-0.161 0-0.375 0.17t-0.25 0.313zM26.286 21.714q0 1.179 0.839 2.018t2.018 0.839 2.018-0.839 0.839-2.018-0.839-2.018-2.018-0.839-2.018 0.839-0.839 2.018z"></path>
</svg>
