<?xml version="1.0" encoding="utf-8"?>
<!DOCTYPE svg PUBLIC "-//W3C//DTD SVG 1.1//EN" "http://www.w3.org/Graphics/SVG/1.1/DTD/svg11.dtd">
<svg version="1.1" xmlns="http://www.w3.org/2000/svg" xmlns:xlink="http://www.w3.org/1999/xlink" width="32" height="32" viewBox="0 0 32 32">

	<path d="M0 26.857v-3.429q0-0.232 0.17-0.402t0.402-0.17h30.857q0.232 0 0.402 0.17t0.17 0.402v3.429q0 0.232-0.17 0.402t-0.402 0.17h-30.857q-0.232 0-0.402-0.17t-0.17-0.402zM0 6.286v-3.429q0-0.232 0.17-0.402t0.402-0.17h30.857q0.232 0 0.402 0.17t0.17 0.402v3.429q0 0.232-0.17 0.402t-0.402 0.17h-30.857q-0.232 0-0.402-0.17t-0.17-0.402zM0.571 14.857q0-0.25 0.161-0.411l5.143-5.143q0.161-0.161 0.411-0.161 0.232 0 0.402 0.17t0.17 0.402v10.286q0 0.232-0.17 0.402t-0.402 0.17q-0.25 0-0.411-0.161l-5.143-5.143q-0.161-0.161-0.161-0.411zM11.429 20v-3.429q0-0.232 0.17-0.402t0.402-0.17h19.429q0.232 0 0.402 0.17t0.17 0.402v3.429q0 0.232-0.17 0.402t-0.402 0.17h-19.429q-0.232 0-0.402-0.17t-0.17-0.402zM11.429 13.143v-3.429q0-0.232 0.17-0.402t0.402-0.17h19.429q0.232 0 0.402 0.17t0.17 0.402v3.429q0 0.232-0.17 0.402t-0.402 0.17h-19.429q-0.232 0-0.402-0.17t-0.17-0.402z"></path>
</svg>
