<?xml version="1.0" encoding="utf-8"?>
<!DOCTYPE svg PUBLIC "-//W3C//DTD SVG 1.1//EN" "http://www.w3.org/Graphics/SVG/1.1/DTD/svg11.dtd">
<svg version="1.1" xmlns="http://www.w3.org/2000/svg" xmlns:xlink="http://www.w3.org/1999/xlink" width="18" height="32" viewBox="0 0 18 32">

	<path d="M0 18.25v-2.018q0-0.232 0.17-0.402t0.402-0.17h1.179q-0.036-1.018 0.018-1.875h-1.196q-0.25 0-0.411-0.161t-0.161-0.411v-2.036q0-0.25 0.161-0.411t0.411-0.161h1.75q1.196-3.75 4.348-6.036t7.152-2.286q1.821 0 3.464 0.411 0.196 0.054 0.357 0.268 0.107 0.196 0.054 0.429l-0.768 2.839q-0.054 0.232-0.25 0.348t-0.429 0.045l-0.071-0.018q-0.071-0.018-0.205-0.045l-0.313-0.063t-0.402-0.063-0.464-0.054-0.518-0.045-0.527-0.018q-2.25 0-4.036 1.143t-2.679 3.143h8.357q0.286 0 0.446 0.214 0.179 0.214 0.125 0.464l-0.429 2.036q-0.089 0.464-0.571 0.464h-8.714q-0.054 0.661 0 1.875h8.196q0.268 0 0.446 0.214 0.161 0.214 0.107 0.482l-0.429 2q-0.036 0.196-0.196 0.33t-0.357 0.134h-6.911q0.857 2.089 2.67 3.313t4.080 1.223q0.321 0 0.643-0.027t0.598-0.063 0.527-0.080 0.438-0.089 0.33-0.080l0.214-0.054 0.089-0.036q0.232-0.089 0.464 0.036 0.214 0.125 0.268 0.375l0.625 2.839q0.054 0.214-0.054 0.402t-0.304 0.259l-0.089 0.018q-0.071 0.036-0.188 0.063t-0.286 0.080-0.384 0.098-0.455 0.089-0.536 0.089-0.598 0.080-0.652 0.054-0.688 0.018q-4.179 0-7.304-2.33t-4.25-6.277h-1.696q-0.232 0-0.402-0.17t-0.17-0.402z"></path>
</svg>
