<?xml version="1.0" encoding="utf-8"?>
<!DOCTYPE svg PUBLIC "-//W3C//DTD SVG 1.1//EN" "http://www.w3.org/Graphics/SVG/1.1/DTD/svg11.dtd">
<svg version="1.1" xmlns="http://www.w3.org/2000/svg" xmlns:xlink="http://www.w3.org/1999/xlink" width="32" height="32" viewBox="0 0 32 32">

	<path d="M0 30.286v-28.571q0-0.714 0.5-1.214t1.214-0.5h16q0.714 0 1.571 0.357t1.357 0.857l5.571 5.571q0.5 0.5 0.857 1.357t0.357 1.571v20.571q0 0.714-0.5 1.214t-1.214 0.5h-24q-0.714 0-1.214-0.5t-0.5-1.214zM2.286 29.714h22.857v-18.286h-7.429q-0.714 0-1.214-0.5t-0.5-1.214v-7.429h-13.714v27.429zM4.571 22.857v-6.857q0-0.929 0.679-1.607t1.607-0.679h6.857q0.929 0 1.607 0.679t0.679 1.607v6.857q0 0.929-0.679 1.607t-1.607 0.679h-6.857q-0.929 0-1.607-0.679t-0.679-1.607zM17.143 20.232v-1.607l4.732-4.75q0.161-0.161 0.411-0.161 0.071 0 0.214 0.036 0.357 0.143 0.357 0.536v10.286q0 0.393-0.357 0.536-0.143 0.036-0.214 0.036-0.25 0-0.411-0.161zM18.286 9.143h6.714q-0.179-0.518-0.393-0.732l-5.589-5.589q-0.214-0.214-0.732-0.393v6.714z"></path>
</svg>
