<?xml version="1.0" encoding="utf-8"?>
<!DOCTYPE svg PUBLIC "-//W3C//DTD SVG 1.1//EN" "http://www.w3.org/Graphics/SVG/1.1/DTD/svg11.dtd">
<svg version="1.1" xmlns="http://www.w3.org/2000/svg" xmlns:xlink="http://www.w3.org/1999/xlink" width="32" height="32" viewBox="0 0 32 32">

	<path d="M0 16q0-3.25 1.268-6.214t3.411-5.107 5.107-3.411 6.214-1.268 6.214 1.268 5.107 3.411 3.411 5.107 1.268 6.214-1.268 6.214-3.411 5.107-5.107 3.411-6.214 1.268-6.214-1.268-5.107-3.411-3.411-5.107-1.268-6.214zM0.786 16q0 3.089 1.205 5.911t3.241 4.857 4.857 3.241 5.911 1.205 5.911-1.205 4.857-3.241 3.241-4.857 1.205-5.911-1.205-5.911-3.241-4.857-4.857-3.241-5.911-1.205-5.911 1.205-4.857 3.241-3.241 4.857-1.205 5.911zM1.554 16q0-3.661 1.75-6.875l1.018 0.589q-0.536 1-0.875 2l1.464 0.5q-0.625 1.786-0.625 3.786 0 1.946 0.643 3.786l-1.482 0.5q0.393 1.071 0.875 2l-1.018 0.589q-1.75-3.214-1.75-6.875zM3.679 23.554l1.036-0.607q0.518 0.875 1.304 1.768l1.161-1.018q2.643 3 6.571 3.786l-0.304 1.536q1.161 0.214 2.161 0.232v1.179q-3.714-0.107-6.875-1.955t-5.054-4.92zM3.696 8.446q1.893-3.071 5.036-4.92t6.875-1.955v1.179q-1.161 0.036-2.161 0.232l0.304 1.536q-3.929 0.75-6.571 3.768l-1.161-1q-0.679 0.75-1.304 1.75zM7.411 13.054q0.589-1.661 1.768-3.018l3.304 2.893q1.054-1.214 2.625-1.536l-0.857-4.286q0.786-0.179 1.75-0.179t1.75 0.179l-0.857 4.286q1.571 0.321 2.625 1.536l3.304-2.893q1.179 1.357 1.768 3.018l-4.161 1.429q0.25 0.75 0.25 1.518t-0.25 1.518l4.143 1.429q-0.554 1.643-1.75 3.018l-3.304-2.893q-1.018 1.196-2.625 1.518l0.857 4.304q-0.929 0.179-1.75 0.179t-1.75-0.179l0.857-4.304q-1.607-0.321-2.625-1.518l-3.304 2.893q-1.196-1.375-1.75-3.018l4.143-1.429q-0.25-0.75-0.25-1.518t0.25-1.518zM16.393 29.25q1-0.018 2.161-0.232l-0.304-1.536q3.929-0.786 6.571-3.786l1.161 1.018q0.786-0.893 1.304-1.768l1.036 0.607q-1.893 3.071-5.054 4.92t-6.875 1.955v-1.179zM16.393 2.75v-1.179q3.732 0.107 6.875 1.955t5.036 4.92l-1.018 0.589q-0.625-1-1.304-1.75l-1.161 1q-2.643-3.018-6.571-3.768l0.304-1.536q-1-0.196-2.161-0.232zM27.071 19.786q0.643-1.839 0.643-3.786 0-2-0.625-3.786l1.464-0.5q-0.339-1-0.875-2l1.018-0.589q1.75 3.214 1.75 6.875t-1.75 6.875l-1.018-0.589q0.482-0.929 0.875-2z"></path>
</svg>
