<?xml version="1.0" encoding="utf-8"?>
<!DOCTYPE svg PUBLIC "-//W3C//DTD SVG 1.1//EN" "http://www.w3.org/Graphics/SVG/1.1/DTD/svg11.dtd">
<svg version="1.1" xmlns="http://www.w3.org/2000/svg" xmlns:xlink="http://www.w3.org/1999/xlink" width="32" height="32" viewBox="0 0 32 32">

	<path d="M0 16q0-3.25 1.268-6.214t3.411-5.107 5.107-3.411 6.214-1.268 6.214 1.268 5.107 3.411 3.411 5.107 1.268 6.214-1.268 6.214-3.411 5.107-5.107 3.411-6.214 1.268-6.214-1.268-5.107-3.411-3.411-5.107-1.268-6.214zM2.286 16q0 3.393 1.607 6.446l3.464-3.464q-0.5-1.464-0.5-2.982t0.5-2.982l-3.464-3.464q-1.607 3.054-1.607 6.446zM9.143 16q0 2.839 2.009 4.848t4.848 2.009 4.848-2.009 2.009-4.848-2.009-4.848-4.848-2.009-4.848 2.009-2.009 4.848zM9.554 28.107q3.054 1.607 6.446 1.607t6.446-1.607l-3.464-3.464q-1.464 0.5-2.982 0.5t-2.982-0.5zM9.554 3.893l3.464 3.464q1.464-0.5 2.982-0.5t2.982 0.5l3.464-3.464q-3.054-1.607-6.446-1.607t-6.446 1.607zM24.643 18.982l3.464 3.464q1.607-3.054 1.607-6.446t-1.607-6.446l-3.464 3.464q0.5 1.464 0.5 2.982t-0.5 2.982z"></path>
</svg>
