<?xml version="1.0" encoding="utf-8"?>
<!DOCTYPE svg PUBLIC "-//W3C//DTD SVG 1.1//EN" "http://www.w3.org/Graphics/SVG/1.1/DTD/svg11.dtd">
<svg version="1.1" xmlns="http://www.w3.org/2000/svg" xmlns:xlink="http://www.w3.org/1999/xlink" width="32" height="32" viewBox="0 0 32 32">

	<path d="M0 11.429q0-0.464 0.339-0.804l9.143-9.143q0.518-0.554 1.25-0.25 0.696 0.304 0.696 1.054v1.232l-7.089 7.107q-0.339 0.339-0.339 0.804t0.339 0.804l7.089 7.089v1.25q0 0.75-0.696 1.054-0.232 0.089-0.446 0.089-0.482 0-0.804-0.339l-9.143-9.143q-0.339-0.339-0.339-0.804zM6.857 11.429q0-0.464 0.339-0.804l9.143-9.143q0.518-0.554 1.25-0.25 0.696 0.304 0.696 1.054v4.679q7.339 0.5 10.696 3.946 3.018 3.089 3.018 9.089 0 1.036-0.304 2.384t-0.688 2.464-0.857 2.232-0.723 1.616l-0.357 0.714q-0.143 0.304-0.5 0.304-0.107 0-0.161-0.018-0.446-0.143-0.411-0.607 0.768-7.143-1.893-10.089-1.143-1.268-3.045-1.973t-4.777-0.938v4.482q0 0.75-0.696 1.054-0.232 0.089-0.446 0.089-0.482 0-0.804-0.339l-9.143-9.143q-0.339-0.339-0.339-0.804z"></path>
</svg>
