<?xml version="1.0" encoding="utf-8"?>
<!DOCTYPE svg PUBLIC "-//W3C//DTD SVG 1.1//EN" "http://www.w3.org/Graphics/SVG/1.1/DTD/svg11.dtd">
<svg version="1.1" xmlns="http://www.w3.org/2000/svg" xmlns:xlink="http://www.w3.org/1999/xlink" width="32" height="32" viewBox="0 0 32 32">

	<path d="M0 24.571v-17.143q0-2.125 1.509-3.634t3.634-1.509h17.143q2.125 0 3.634 1.509t1.509 3.634v17.143q0 2.125-1.509 3.634t-3.634 1.509h-17.143q-2.125 0-3.634-1.509t-1.509-3.634zM5.232 20.5l3.768-0.732v-3.679q0.982 0.339 2.071 0.339 2.232 0 3.813-1.696t1.58-4.089-1.58-4.089-3.813-1.696q-1.321 0-2.518 0.643h-3.321v15zM9 13.071v-4.946q0.5-0.304 1.25-0.304 0.946 0 1.625 0.804t0.679 1.946-0.679 1.955-1.625 0.813q-0.768 0-1.25-0.268zM11.357 28.125l3.768-0.732v-3.679q0.911 0.339 2.089 0.339 2.232 0 3.804-1.696t1.571-4.089-1.571-4.089-3.804-1.696q-0.357 0-0.696 0.054-0.411 1.393-1.393 2.429-1.554 1.696-3.768 1.804v11.357zM15.125 20.696v-4.946q0.5-0.304 1.25-0.304 0.946 0 1.625 0.813t0.679 1.955-0.679 1.946-1.625 0.804q-0.768 0-1.25-0.268z"></path>
</svg>
