<?xml version="1.0" encoding="utf-8"?>
<!DOCTYPE svg PUBLIC "-//W3C//DTD SVG 1.1//EN" "http://www.w3.org/Graphics/SVG/1.1/DTD/svg11.dtd">
<svg version="1.1" xmlns="http://www.w3.org/2000/svg" xmlns:xlink="http://www.w3.org/1999/xlink" width="32" height="32" viewBox="0 0 32 32">

	<path d="M0.339 15.607q0.143-3.875 2.071-7.25t5.446-5.679h0.089q0 0.018-0.018 0.054-0.143 0.143-0.5 0.598t-0.929 1.366-1.071 1.973-0.795 2.42-0.25 2.688 0.696 2.813 1.938 2.75q0.893 0.893 1.821 1.241t1.616 0.205 1.241-0.42 0.839-0.58l0.286-0.286q0.696-0.911 0.946-2.080t0.116-2.188-0.375-1.911-0.473-1.429l-0.25-0.518q-0.179-0.446-0.545-0.884t-0.768-0.732-0.777-0.527-0.625-0.339l-0.232-0.107 1.857-2.054q0.696 0.304 1.393 0.929t1.054 1.089l0.339 0.482q0.018-0.857-0.33-1.848t-0.723-1.563l-0.357-0.554 2.875-3.268 2.857 3.232q-0.589 0.821-0.938 1.83t-0.402 1.616l-0.071 0.589q0.393-0.661 1.098-1.295t1.205-0.938l0.5-0.304 1.839 2.054q-0.786 0.25-1.518 0.893t-1.071 1.161l-0.339 0.518q-0.554 1-0.857 2.384t-0.125 3.036 1.018 2.795q0.589 0.804 1.384 1.080t1.518 0.098 1.357-0.473 1.027-0.598l0.375-0.286q1.071-0.946 1.723-2.054t0.866-2.17 0.179-2.17-0.321-2.107-0.661-1.92-0.813-1.661-0.804-1.286-0.616-0.848l-0.232-0.304q-0.25-0.232-0.125-0.232l0.179 0.054q0.714 0.518 1.116 0.821t1.107 0.893 1.143 1.036 1.045 1.161 0.991 1.375 0.813 1.571 0.679 1.839 0.42 2.089 0.188 2.429q0.054 4.625-1.929 8.304t-5.571 5.732-8.143 2.054q-3.304 0-6.268-1.321t-5.063-3.536-3.286-5.232-1.080-6.304z"></path>
</svg>
