<?xml version="1.0" encoding="utf-8"?>
<!DOCTYPE svg PUBLIC "-//W3C//DTD SVG 1.1//EN" "http://www.w3.org/Graphics/SVG/1.1/DTD/svg11.dtd">
<svg version="1.1" xmlns="http://www.w3.org/2000/svg" xmlns:xlink="http://www.w3.org/1999/xlink" width="23" height="32" viewBox="0 0 23 32">

	<path d="M0 22.857v-2.286q0-0.25 0.161-0.411t0.411-0.161h4v-2.107h-4q-0.25 0-0.411-0.161t-0.161-0.411v-2.661q0-0.232 0.161-0.402t0.411-0.17h4v-11.232q0-0.25 0.161-0.411t0.411-0.161h9.625q3.571 0 5.83 2.179t2.259 5.625-2.259 5.625-5.83 2.179h-6.071v2.107h9.018q0.25 0 0.411 0.161t0.161 0.411v2.286q0 0.25-0.161 0.411t-0.411 0.161h-9.018v3.429q0 0.25-0.17 0.411t-0.402 0.161h-2.982q-0.25 0-0.411-0.161t-0.161-0.411v-3.429h-4q-0.25 0-0.411-0.161t-0.161-0.411zM8.696 14.089h5.714q1.893 0 3.054-1.107t1.161-2.893-1.161-2.893-3.054-1.107h-5.714v8z"></path>
</svg>
