<?xml version="1.0" encoding="utf-8"?>
<!DOCTYPE svg PUBLIC "-//W3C//DTD SVG 1.1//EN" "http://www.w3.org/Graphics/SVG/1.1/DTD/svg11.dtd">
<svg version="1.1" xmlns="http://www.w3.org/2000/svg" xmlns:xlink="http://www.w3.org/1999/xlink" width="16" height="32" viewBox="0 0 16 32">

	<path d="M0 16.625v-2.268q0-0.232 0.17-0.402t0.402-0.17h2q2.357 0 3.795-0.768t1.83-2.232h-7.625q-0.25 0-0.411-0.161t-0.161-0.411v-1.821q0-0.25 0.161-0.411t0.411-0.161h7.375q-1.018-2.018-4.786-2.018h-2.589q-0.232 0-0.402-0.17t-0.17-0.402v-2.375q0-0.25 0.161-0.411t0.411-0.161h14.857q0.25 0 0.411 0.161t0.161 0.411v1.821q0 0.25-0.161 0.411t-0.411 0.161h-4.161q0.839 1.089 1.143 2.571h3.054q0.25 0 0.411 0.161t0.161 0.411v1.821q0 0.25-0.161 0.411t-0.411 0.161h-3q-0.411 2.571-2.304 4.179t-4.929 1.964q2.982 3.179 8.196 9.571 0.25 0.286 0.071 0.607-0.143 0.321-0.518 0.321h-3.482q-0.286 0-0.446-0.214-5.464-6.554-8.893-10.196-0.161-0.161-0.161-0.393z"></path>
</svg>
