<?xml version="1.0" encoding="utf-8"?>
<!DOCTYPE svg PUBLIC "-//W3C//DTD SVG 1.1//EN" "http://www.w3.org/Graphics/SVG/1.1/DTD/svg11.dtd">
<svg version="1.1" xmlns="http://www.w3.org/2000/svg" xmlns:xlink="http://www.w3.org/1999/xlink" width="32" height="32" viewBox="0 0 32 32">

	<path d="M0 18.357q-0.054-0.696 0.571-1.054l29.714-17.143q0.625-0.375 1.214 0.036 0.589 0.429 0.482 1.143l-4.571 27.429q-0.089 0.518-0.571 0.804-0.25 0.143-0.554 0.143-0.196 0-0.429-0.089l-9.411-3.839-5.321 5.839q-0.321 0.375-0.839 0.375-0.25 0-0.411-0.071-0.339-0.125-0.536-0.42t-0.196-0.652v-8.071l-8.429-3.446q-0.661-0.25-0.714-0.982zM3.732 18.107l6 2.446 15.411-11.411-8.536 14.232 8.786 3.589 3.946-23.625z"></path>
</svg>
