<?xml version="1.0" encoding="utf-8"?>
<!DOCTYPE svg PUBLIC "-//W3C//DTD SVG 1.1//EN" "http://www.w3.org/Graphics/SVG/1.1/DTD/svg11.dtd">
<svg version="1.1" xmlns="http://www.w3.org/2000/svg" xmlns:xlink="http://www.w3.org/1999/xlink" width="32" height="32" viewBox="0 0 32 32">

	<path d="M0 24.571v-17.143q0-2.125 1.509-3.634t3.634-1.509h17.143q2.125 0 3.634 1.509t1.509 3.634v17.143q0 2.125-1.509 3.634t-3.634 1.509h-17.143q-2.125 0-3.634-1.509t-1.509-3.634zM4.571 24.571q0 0.232 0.17 0.402t0.402 0.17h17.143q0.232 0 0.402-0.17t0.17-0.402v-17.143q0-0.232-0.17-0.402t-0.402-0.17h-17.143q-0.232 0-0.402 0.17t-0.17 0.402v17.143zM8 16q0-0.589 0.482-0.929l8-5.714q0.304-0.214 0.661-0.214 0.464 0 0.804 0.339t0.339 0.804v11.429q0 0.464-0.339 0.804t-0.804 0.339q-0.357 0-0.661-0.214l-8-5.714q-0.482-0.339-0.482-0.929z"></path>
</svg>
