<?xml version="1.0" encoding="utf-8"?>
<!DOCTYPE svg PUBLIC "-//W3C//DTD SVG 1.1//EN" "http://www.w3.org/Graphics/SVG/1.1/DTD/svg11.dtd">
<svg version="1.1" xmlns="http://www.w3.org/2000/svg" xmlns:xlink="http://www.w3.org/1999/xlink" width="21" height="32" viewBox="0 0 21 32">

	<path d="M0 16.571v-2.286q0-0.411 0.411-0.554l4.161-1.268v-1.661l-3.839 1.179q-0.054 0.018-0.161 0.018-0.179 0-0.339-0.107-0.232-0.179-0.232-0.464v-2.286q0-0.411 0.411-0.554l4.161-1.268v-4.464q0-0.25 0.161-0.411t0.411-0.161h2.857q0.25 0 0.411 0.161t0.161 0.411v3.232l6.696-2.071q0.268-0.089 0.5 0.089t0.232 0.464v2.286q0 0.411-0.411 0.554l-7.018 2.161v1.661l6.696-2.071q0.268-0.089 0.5 0.089t0.232 0.464v2.286q0 0.411-0.411 0.554l-7.018 2.161v8.696q3.357-0.232 5.679-2.696t2.321-5.857q0-0.25 0.161-0.411t0.411-0.161h2.857q0.25 0 0.411 0.161t0.161 0.411q0 3.411-1.688 6.304t-4.58 4.58-6.304 1.688h-2.857q-0.25 0-0.411-0.161t-0.161-0.411v-10.911l-3.839 1.179q-0.054 0.018-0.161 0.018-0.179 0-0.339-0.107-0.232-0.179-0.232-0.464z"></path>
</svg>
