<?xml version="1.0" encoding="utf-8"?>
<!DOCTYPE svg PUBLIC "-//W3C//DTD SVG 1.1//EN" "http://www.w3.org/Graphics/SVG/1.1/DTD/svg11.dtd">
<svg version="1.1" xmlns="http://www.w3.org/2000/svg" xmlns:xlink="http://www.w3.org/1999/xlink" width="32" height="32" viewBox="0 0 32 32">

	<path d="M0 15.429v-1.143q0-0.25 0.161-0.411t0.411-0.161h3.125l-0.589-2.286h-2.536q-0.25 0-0.411-0.161t-0.161-0.411v-1.143q0-0.25 0.161-0.411t0.411-0.161h1.946l-1.589-6.143q-0.089-0.268 0.089-0.5 0.179-0.214 0.464-0.214h2.446q0.464 0 0.554 0.429l1.607 6.429h6.411l1.732-6.429q0.125-0.429 0.554-0.429h2.25q0.429 0 0.554 0.429l1.75 6.429h6.518l1.661-6.429q0.089-0.429 0.554-0.429h2.446q0.286 0 0.464 0.214 0.179 0.232 0.089 0.5l-1.625 6.143h1.982q0.25 0 0.411 0.161t0.161 0.411v1.143q0 0.25-0.161 0.411t-0.411 0.161h-2.589l-0.607 2.286h3.196q0.25 0 0.411 0.161t0.161 0.411v1.143q0 0.25-0.161 0.411t-0.411 0.161h-3.804l-2.929 11q-0.125 0.429-0.554 0.429h-2.839q-0.429 0-0.554-0.429l-2.964-11h-3.732l-2.982 11q-0.125 0.429-0.554 0.429h-2.839q-0.196 0-0.348-0.125t-0.188-0.304l-2.857-11h-3.714q-0.25 0-0.411-0.161t-0.161-0.411zM6.661 11.429l0.571 2.286h4.018l0.625-2.286h-5.214zM7.786 16l1.339 5.357q0.018 0.018 0.018 0.054t0.018 0.054q0-0.018 0.009-0.063t0.009-0.063l1.446-5.339h-2.839zM14.679 13.714h2.482l-0.625-2.286h-1.25zM19.964 11.429l0.607 2.286h4.107l0.589-2.286h-5.304zM21.196 16l1.446 5.339q0 0.018 0.009 0.063t0.027 0.063q0-0.018 0.009-0.054t0.009-0.054l1.393-5.357h-2.893z"></path>
</svg>
