<?xml version="1.0" encoding="utf-8"?>
<!DOCTYPE svg PUBLIC "-//W3C//DTD SVG 1.1//EN" "http://www.w3.org/Graphics/SVG/1.1/DTD/svg11.dtd">
<svg version="1.1" xmlns="http://www.w3.org/2000/svg" xmlns:xlink="http://www.w3.org/1999/xlink" width="32" height="32" viewBox="0 0 32 32">

	<path d="M16 9.245l1.333-3.912c0.096-0.284 0.104-0.603 0-0.909-0.251-0.737-1.052-1.131-1.788-0.879-0.737 0.252-1.129 1.051-0.879 1.788l1.333 3.912z"></path>
	<path d="M5.333 14.667c-0.284-0.096-0.603-0.104-0.909 0-0.737 0.251-1.131 1.052-0.879 1.788 0.252 0.737 1.051 1.129 1.788 0.879l3.912-1.333-3.912-1.333z"></path>
	<path d="M16 22.755l-1.333 3.912c-0.096 0.284-0.104 0.603 0 0.909 0.251 0.737 1.052 1.131 1.788 0.879 0.737-0.252 1.129-1.051 0.879-1.788l-1.333-3.912z"></path>
	<path d="M28.455 15.543c-0.251-0.737-1.051-1.131-1.788-0.879l-3.912 1.333 3.912 1.333c0.284 0.096 0.603 0.104 0.909 0 0.736-0.251 1.129-1.052 0.879-1.788z"></path>
	<path d="M7.515 9.4l3.708 1.823-1.823-3.708c-0.133-0.269-0.353-0.5-0.643-0.643-0.699-0.344-1.543-0.056-1.887 0.643-0.343 0.697-0.055 1.543 0.644 1.885z"></path>
	<path d="M6.871 23.243c-0.343 0.697-0.055 1.541 0.643 1.885 0.697 0.343 1.543 0.055 1.885-0.643l1.823-3.708-3.708 1.823c-0.268 0.132-0.499 0.351-0.643 0.643z"></path>
	<path d="M24.484 22.599l-3.708-1.823 1.823 3.708c0.133 0.269 0.352 0.5 0.643 0.643 0.697 0.343 1.541 0.055 1.885-0.643s0.056-1.543-0.643-1.885z"></path>
	<path d="M25.125 8.755c0.344-0.699 0.056-1.543-0.641-1.887-0.697-0.343-1.543-0.055-1.885 0.643l-1.825 3.711 3.709-1.824c0.269-0.133 0.5-0.352 0.643-0.643z"></path>
	<path d="M16 10c-3.308 0-6 2.692-6 6s2.692 6 6 6 6-2.692 6-6-2.692-6-6-6z"></path>
</svg>
