<?xml version="1.0" encoding="utf-8"?>
<!DOCTYPE svg PUBLIC "-//W3C//DTD SVG 1.1//EN" "http://www.w3.org/Graphics/SVG/1.1/DTD/svg11.dtd">
<svg version="1.1" xmlns="http://www.w3.org/2000/svg" xmlns:xlink="http://www.w3.org/1999/xlink" width="32" height="32" viewBox="0 0 32 32">

	<path d="M17.333 8c0 0.736-0.597 1.333-1.333 1.333s-1.333-0.597-1.333-1.333c0-0.736 0.597-1.333 1.333-1.333s1.333 0.597 1.333 1.333z"></path>
	<path d="M26.391 16.128c0.179-0.453 0.276-0.945 0.276-1.461 0-2.205-1.795-4-4-4h-0.563c0.364-0.825 0.563-1.729 0.563-2.667 0-3.676-2.991-6.667-6.667-6.667s-6.667 2.991-6.667 6.667c0 0.937 0.199 1.841 0.563 2.667h-0.563c-2.205 0-4 1.795-4 4 0 0.516 0.097 1.008 0.276 1.461-0.976 0.731-1.609 1.896-1.609 3.205 0 6.617 5.383 12 12 12s12-5.383 12-12c0-1.309-0.633-2.475-1.609-3.205zM16 28.667c-5.145 0-9.333-4.188-9.333-9.333 0-0.737 0.596-1.333 1.333-1.333s1.333 0.596 1.333 1.333c0 3.219 2.295 5.912 5.333 6.531v-9.864h-5.333c-0.737 0-1.333-0.596-1.333-1.333s0.596-1.333 1.333-1.333h5.333v-1.579c-1.549-0.551-2.667-2.015-2.667-3.755 0-2.209 1.791-4 4-4s4 1.791 4 4c0 1.74-1.117 3.204-2.667 3.755v1.579h5.333c0.737 0 1.333 0.596 1.333 1.333s-0.596 1.333-1.333 1.333h-5.333v9.864c3.039-0.62 5.333-3.312 5.333-6.531 0-0.737 0.596-1.333 1.333-1.333s1.333 0.596 1.333 1.333c0 5.145-4.188 9.333-9.333 9.333zM9.761 17.333h3.572v6.616c-1.609-0.935-2.667-2.679-2.667-4.616 0-0.796-0.351-1.511-0.905-2zM22.239 17.333c-0.555 0.489-0.905 1.204-0.905 2 0 1.937-1.057 3.681-2.667 4.616v-6.616h3.572z"></path>
</svg>
