<?xml version="1.0" encoding="utf-8"?>
<!DOCTYPE svg PUBLIC "-//W3C//DTD SVG 1.1//EN" "http://www.w3.org/Graphics/SVG/1.1/DTD/svg11.dtd">
<svg version="1.1" xmlns="http://www.w3.org/2000/svg" xmlns:xlink="http://www.w3.org/1999/xlink" width="32" height="32" viewBox="0 0 32 32">

	<path d="M17.333 16h-4c-0.368 0-0.667 0.299-0.667 0.667s0.299 0.667 0.667 0.667h4c0.368 0 0.667-0.299 0.667-0.667s-0.299-0.667-0.667-0.667z"></path>
	<path d="M26.667 6.667h-22.667c-0.737 0-1.333 0.597-1.333 1.333s0.596 1.333 1.333 1.333h22.667c0.737 0 1.333-0.597 1.333-1.333s-0.596-1.333-1.333-1.333z"></path>
	<path d="M24 10.667h-17.333c-0.737 0-1.333 0.597-1.333 1.333v10.667c0 2.205 1.795 4 4 4h12c2.205 0 4-1.795 4-4v-10.667c0-0.736-0.596-1.333-1.333-1.333zM21.333 24h-12c-0.736 0-1.333-0.599-1.333-1.333v-9.333h14.667v9.333c0 0.735-0.597 1.333-1.333 1.333z"></path>
</svg>
