<?xml version="1.0" encoding="utf-8"?>
<!DOCTYPE svg PUBLIC "-//W3C//DTD SVG 1.1//EN" "http://www.w3.org/Graphics/SVG/1.1/DTD/svg11.dtd">
<svg version="1.1" xmlns="http://www.w3.org/2000/svg" xmlns:xlink="http://www.w3.org/1999/xlink" width="32" height="32" viewBox="0 0 32 32">

	<path d="M29.333 8c0-1.068-0.416-2.073-1.172-2.828-0.755-0.756-1.76-1.172-2.828-1.172s-2.073 0.416-2.828 1.172l-1.177 1.177c-0.708-0.632-1.64-1.016-2.661-1.016-1.225 0-2.309 0.565-3.044 1.436-0.283-0.063-0.575-0.103-0.875-0.103h-8.081v8.080c0 0.34 0.056 0.665 0.136 0.981-0.797 0.732-1.307 1.773-1.307 2.939 0 0.98 0.355 1.879 0.94 2.575l-1.263 1.264c-0.757 0.755-1.173 1.76-1.173 2.828s0.416 2.073 1.172 2.828c0.755 0.756 1.76 1.172 2.828 1.172 0.719 0 1.779-0.203 2.748-1.172l1.204-1.225c0.713 0.66 1.668 1.064 2.715 1.064 1.245 0 2.344-0.583 3.079-1.476 0.321 0.084 0.653 0.143 1.003 0.143h7.919v-8.081c0-0.301-0.039-0.592-0.103-0.875 0.871-0.733 1.436-1.819 1.436-3.044 0-1.021-0.384-1.953-1.016-2.661l1.177-1.177c0.756-0.755 1.172-1.76 1.172-2.828zM9.333 9.333h5.333c0.737 0 1.333 0.597 1.333 1.333s-0.596 1.333-1.333 1.333h-2.667v2.667c0 0.736-0.597 1.333-1.333 1.333-0.737 0-1.333-0.597-1.333-1.333v-5.333zM26.276 8.943l-4.391 4.391h2.115c0.737 0 1.333 0.597 1.333 1.333s-0.597 1.333-1.333 1.333h-6.667v-6.667c0-0.736 0.596-1.333 1.333-1.333s1.333 0.597 1.333 1.333v2.115l4.391-4.391c0.26-0.26 0.601-0.391 0.943-0.391s0.683 0.131 0.943 0.391c0.521 0.521 0.521 1.364 0 1.885zM16 24c0 0.736-0.596 1.333-1.333 1.333s-1.333-0.597-1.333-1.333v-2.276l-4.472 4.552c-0.26 0.26-0.52 0.391-0.861 0.391s-0.683-0.131-0.943-0.391c-0.521-0.521-0.521-1.364 0-1.885l4.391-4.391h-1.953c-0.737 0-1.333-0.597-1.333-1.333s0.596-1.333 1.333-1.333h6.505v6.667zM16 16h-3.037c0.231-0.393 0.371-0.845 0.371-1.333v-1.333h1.415c0.456 0 0.877-0.125 1.252-0.327v2.993zM17.333 17.333h3.617c-0.577 0.125-0.951 0.44-0.951 1.252v1.415h-1.252c-0.521 0-1.003 0.156-1.415 0.415v-3.081zM17.415 22.667c0-0.736 0.596-1.333 1.333-1.333h2.585v-2.667c0-0.736 0.596-1.333 1.333-1.333s1.333 0.597 1.333 1.333v5.333h-5.252c-0.737 0-1.333-0.597-1.333-1.333z"></path>
</svg>
