<?xml version="1.0" encoding="utf-8"?>
<!DOCTYPE svg PUBLIC "-//W3C//DTD SVG 1.1//EN" "http://www.w3.org/Graphics/SVG/1.1/DTD/svg11.dtd">
<svg version="1.1" xmlns="http://www.w3.org/2000/svg" xmlns:xlink="http://www.w3.org/1999/xlink" width="32" height="32" viewBox="0 0 32 32">

	<path d="M14.571 28c-1.068 0-2.073-0.416-2.828-1.172l-9.495-9.495 9.495-9.495c1.511-1.512 4.145-1.512 5.656 0 0.755 0.752 1.172 1.756 1.172 2.825 0 0.995-0.36 1.935-1.019 2.669h6.448c2.205 0 4 1.795 4 4s-1.795 4-4 4h-6.448c0.657 0.732 1.019 1.669 1.019 2.664 0.003 1.069-0.416 2.076-1.172 2.832-0.756 0.755-1.76 1.171-2.828 1.171zM6.019 17.333l7.609 7.609c0.505 0.504 1.38 0.504 1.885 0 0.252-0.252 0.391-0.588 0.391-0.944s-0.139-0.689-0.388-0.94l-4.393-4.392h12.877c0.736 0 1.333-0.599 1.333-1.333s-0.597-1.333-1.333-1.333h-12.877l4.391-4.391c0.252-0.252 0.391-0.588 0.391-0.944s-0.139-0.689-0.389-0.94c-0.508-0.507-1.381-0.505-1.887-0.001l-7.609 7.609z"></path>
</svg>
