<?xml version="1.0" encoding="utf-8"?>
<!DOCTYPE svg PUBLIC "-//W3C//DTD SVG 1.1//EN" "http://www.w3.org/Graphics/SVG/1.1/DTD/svg11.dtd">
<svg version="1.1" xmlns="http://www.w3.org/2000/svg" xmlns:xlink="http://www.w3.org/1999/xlink" width="32" height="32" viewBox="0 0 32 32">

	<path d="M8.161 17.333c-0.737 0-1.333 0.597-1.333 1.333s0.596 1.333 1.333 1.333h1.953l-4.391 4.391c-0.521 0.521-0.521 1.364 0 1.885 0.26 0.26 0.601 0.391 0.943 0.391s0.683-0.131 0.943-0.391l4.552-4.552v2.276c0 0.736 0.596 1.333 1.333 1.333s1.172-0.597 1.172-1.333v-6.667h-6.505z"></path>
	<path d="M9.333 14.667c0.736 0 1.333-0.597 1.333-1.333v-2.667h2.667c0.737 0 1.333-0.597 1.333-1.333s-0.596-1.333-1.333-1.333h-5.332l-0.001 5.333c0 0.736 0.596 1.333 1.333 1.333z"></path>
	<path d="M22.667 17.333c-0.737 0-1.333 0.597-1.333 1.333v2.667h-2.667c-0.737 0-1.333 0.597-1.333 1.333s0.596 1.333 1.333 1.333h5.333v-5.333c0-0.736-0.596-1.333-1.333-1.333z"></path>
	<path d="M24.391 5.724l-4.391 4.391v-2.115c0-0.736-0.596-1.333-1.333-1.333s-1.333 0.597-1.333 1.333v6.667h6.667c0.736 0 1.333-0.597 1.333-1.333s-0.596-1.333-1.333-1.333h-2.115l4.391-4.389c0.521-0.521 0.521-1.364 0-1.885s-1.364-0.523-1.885-0.001z"></path>
</svg>
