<?xml version="1.0" encoding="utf-8"?>
<!DOCTYPE svg PUBLIC "-//W3C//DTD SVG 1.1//EN" "http://www.w3.org/Graphics/SVG/1.1/DTD/svg11.dtd">
<svg version="1.1" xmlns="http://www.w3.org/2000/svg" xmlns:xlink="http://www.w3.org/1999/xlink" width="32" height="32" viewBox="0 0 32 32">

	<path d="M5.333 12h4.667c0.981 0 1.857 0.521 2.468 1.335 0.433-0.805 0.972-1.551 1.588-2.216-1.071-1.097-2.488-1.785-4.056-1.785h-4.667c-0.737 0-1.333 0.597-1.333 1.333s0.596 1.333 1.333 1.333z"></path>
	<path d="M15.58 16.148c0.735-2.209 3.008-4.148 4.865-4.148h2.451l-1.724 1.724c-0.521 0.521-0.521 1.364 0 1.885 0.26 0.26 0.601 0.391 0.943 0.391s0.683-0.131 0.943-0.391l4.943-4.943-4.943-4.943c-0.521-0.521-1.364-0.521-1.885 0s-0.521 1.364 0 1.885l1.724 1.724h-2.451c-3.032 0-6.281 2.623-7.396 5.972l-0.629 1.881c-0.855 2.568-2.763 4.147-3.753 4.147h-3.333c-0.737 0-1.333 0.597-1.333 1.333s0.596 1.333 1.333 1.333h3.333c2.449 0 5.151-2.567 6.284-5.972l0.629-1.88z"></path>
	<path d="M21.172 17.724c-0.521 0.521-0.521 1.364 0 1.885l1.724 1.724h-3.117c-1.691 0-3.107-1.188-3.588-2.811-0.341 1-0.836 1.999-1.453 2.913 1.181 1.549 2.991 2.564 5.041 2.564h3.117l-1.724 1.724c-0.521 0.521-0.521 1.364 0 1.885 0.26 0.26 0.601 0.391 0.943 0.391s0.683-0.131 0.943-0.391l4.943-4.943-4.943-4.943c-0.521-0.521-1.364-0.521-1.885 0z"></path>
</svg>
