<?xml version="1.0" encoding="utf-8"?>
<!DOCTYPE svg PUBLIC "-//W3C//DTD SVG 1.1//EN" "http://www.w3.org/Graphics/SVG/1.1/DTD/svg11.dtd">
<svg version="1.1" xmlns="http://www.w3.org/2000/svg" xmlns:xlink="http://www.w3.org/1999/xlink" width="32" height="32" viewBox="0 0 32 32">

	<path d="M28.667 16.631c0-3.327-1.091-5.901-3.537-8.345-0.412-0.412-0.901-0.711-1.431-0.909l-6.204-6.204c-0.755-0.756-1.76-1.172-2.828-1.172s-2.073 0.416-2.828 1.172c-0.756 0.755-1.172 1.76-1.172 2.828 0 0.369 0.049 0.732 0.147 1.079-1.372 0.615-2.632 1.493-3.769 2.632-2.393 2.391-3.711 5.571-3.711 8.956 0 3.327 1.091 5.901 3.537 8.345 0.399 0.397 0.869 0.695 1.379 0.892l6.256 6.257c0.755 0.756 1.76 1.172 2.828 1.172s2.073-0.416 2.828-1.172c0.756-0.755 1.172-1.76 1.172-2.828 0-0.381-0.053-0.755-0.156-1.112 1.375-0.615 2.637-1.495 3.777-2.633 2.395-2.392 3.712-5.573 3.712-8.957zM16.493 26.609l1.783 1.781c0.521 0.521 0.521 1.364 0 1.885-0.26 0.26-0.601 0.391-0.943 0.391s-0.683-0.131-0.943-0.391l-4.943-4.943 4.943-4.943c0.26-0.26 0.601-0.391 0.943-0.391s0.683 0.131 0.943 0.391c0.521 0.521 0.521 1.364 0 1.885l-1.663 1.663c1.801-0.121 3.233-0.787 4.571-2.124 1.385-1.384 2.148-3.225 2.148-5.184 0-1.896-0.535-3.135-1.973-4.572-0.521-0.521-0.521-1.364 0-1.887 0.26-0.26 0.601-0.391 0.944-0.391 0.341 0 0.683 0.131 0.943 0.389 1.931 1.929 2.755 3.861 2.755 6.459 0 2.672-1.040 5.183-2.929 7.071-1.853 1.853-4.013 2.8-6.577 2.909zM15.472 6.691l-1.748-1.748c-0.521-0.521-0.521-1.364 0-1.885 0.26-0.26 0.601-0.391 0.943-0.391s0.683 0.131 0.943 0.391l4.943 4.943-4.943 4.943c-0.26 0.26-0.601 0.391-0.943 0.391s-0.683-0.131-0.943-0.391c-0.521-0.521-0.521-1.364 0-1.885l1.7-1.7c-1.82 0.115-3.264 0.779-4.608 2.124-1.387 1.385-2.149 3.227-2.149 5.185 0 1.896 0.535 3.135 1.973 4.572 0.521 0.521 0.521 1.364 0 1.887-0.26 0.26-0.603 0.391-0.944 0.391s-0.683-0.131-0.943-0.389c-1.929-1.931-2.753-3.863-2.753-6.46 0-2.672 1.040-5.183 2.929-7.071 1.843-1.844 3.991-2.791 6.543-2.905zM11.584 20.296c-1.184-1.183-1.584-2.099-1.584-3.629 0-1.603 0.624-3.109 1.757-4.241 0.084-0.083 0.165-0.163 0.249-0.239 0.044 0.641 0.315 1.24 0.775 1.699 0.504 0.504 1.173 0.781 1.885 0.781s1.381-0.277 1.885-0.781l3.119-3.119c-0.104 0.795 0.139 1.625 0.747 2.233 1.184 1.183 1.584 2.099 1.584 3.629 0 1.603-0.624 3.109-1.757 4.241-0.083 0.083-0.167 0.164-0.251 0.241-0.052-0.629-0.321-1.213-0.772-1.664-0.507-0.504-1.176-0.781-1.888-0.781s-1.381 0.277-1.885 0.781l-3.123 3.123c0.119-0.807-0.124-1.656-0.741-2.275z"></path>
</svg>
