<?xml version="1.0" encoding="utf-8"?>
<!DOCTYPE svg PUBLIC "-//W3C//DTD SVG 1.1//EN" "http://www.w3.org/Graphics/SVG/1.1/DTD/svg11.dtd">
<svg version="1.1" xmlns="http://www.w3.org/2000/svg" xmlns:xlink="http://www.w3.org/1999/xlink" width="32" height="32" viewBox="0 0 32 32">

	<path d="M25.325 9.583c0.005-0.083 0.008-0.167 0.008-0.249 0-1.068-0.416-2.073-1.172-2.828-0.755-0.756-1.76-1.172-2.828-1.172s-2.073 0.416-2.828 1.172l-3.844 3.844c-0.708-0.632-1.64-1.016-2.661-1.016h-1.333c-5.145 0-9.333 4.187-9.333 9.333s4.188 9.333 9.333 9.333h12c5.145 0 9.333-4.187 9.333-9.333 0-4.408-2.853-8.112-6.675-9.084zM22.667 25.333h-12c-3.676 0-6.667-2.991-6.667-6.667s2.991-6.667 6.667-6.667h1.333c0.737 0 1.333 0.597 1.333 1.333s-0.596 1.333-1.333 1.333h-1.333c-2.205 0-4 1.795-4 4s1.795 4 4 4h12c2.205 0 4-1.795 4-4s-1.495-4-3.333-4h-2.781l1.724 1.724c0.521 0.521 0.521 1.364 0 1.885-0.26 0.26-0.601 0.391-0.943 0.391s-0.683-0.131-0.943-0.391l-4.943-4.943 4.943-4.943c0.26-0.26 0.601-0.391 0.943-0.391s0.683 0.131 0.943 0.391c0.521 0.521 0.521 1.364 0 1.885l-1.724 1.724h2.781c3.308 0 6 2.991 6 6.667s-2.991 6.667-6.667 6.667zM23.665 16.039c0.933 0.219 1.668 1.333 1.668 2.628 0 1.471-1.196 2.667-2.667 2.667h-12c-1.471 0-2.667-1.196-2.667-2.667s1.196-2.667 2.667-2.667h1.333c1.141 0 2.117-0.721 2.497-1.732 0.008 0.008 4.951 4.951 4.951 4.951 0.504 0.504 1.173 0.781 1.885 0.781s1.381-0.277 1.885-0.781 0.781-1.173 0.781-1.885c0-0.46-0.116-0.903-0.335-1.295z"></path>
</svg>
