<?xml version="1.0" encoding="utf-8"?>
<!DOCTYPE svg PUBLIC "-//W3C//DTD SVG 1.1//EN" "http://www.w3.org/Graphics/SVG/1.1/DTD/svg11.dtd">
<svg version="1.1" xmlns="http://www.w3.org/2000/svg" xmlns:xlink="http://www.w3.org/1999/xlink" width="32" height="32" viewBox="0 0 32 32">

	<path d="M16 28c-1.068 0-2.073-0.416-2.828-1.172s-1.173-1.761-1.172-2.831c0-0.995 0.361-1.331 1.019-2.664h-6.448c-2.205 0-4-1.796-4-4 0-2.205 1.795-4 4-4h6.448c-0.659-1.333-1.019-1.673-1.019-2.668 0.001-1.069 0.416-2.072 1.173-2.828 1.509-1.509 4.144-1.511 5.655 0.001l9.495 9.495-9.495 9.495c-0.755 0.756-1.76 1.172-2.828 1.172zM6.571 16c-0.736 0-1.333 0.599-1.333 1.333s0.597 1.333 1.333 1.333h12.877l-4.391 4.391c-0.252 0.252-0.391 0.585-0.391 0.941 0 0.359 0.139 0.692 0.391 0.944 0.505 0.504 1.38 0.504 1.885 0l7.609-7.609-7.609-7.609c-0.505-0.504-1.38-0.504-1.885 0-0.252 0.252-0.391 0.585-0.391 0.941 0 0.357 0.139 0.692 0.391 0.944l4.391 4.391h-12.877z"></path>
</svg>
