<?xml version="1.0" encoding="utf-8"?>
<!DOCTYPE svg PUBLIC "-//W3C//DTD SVG 1.1//EN" "http://www.w3.org/Graphics/SVG/1.1/DTD/svg11.dtd">
<svg version="1.1" xmlns="http://www.w3.org/2000/svg" xmlns:xlink="http://www.w3.org/1999/xlink" width="32" height="32" viewBox="0 0 32 32">

	<path d="M16 28.416l-9.495-9.495c-1.56-1.56-1.56-4.097 0-5.656 1.459-1.459 3.971-1.517 5.495-0.153v-6.445c0-2.205 1.795-4 4-4s4 1.795 4 4v6.445c1.524-1.364 4.036-1.305 5.495 0.153 1.56 1.559 1.56 4.096 0 5.656l-9.495 9.495zM9.333 14.76c-0.357 0-0.691 0.139-0.943 0.391-0.521 0.52-0.521 1.364 0 1.885l7.609 7.609 7.609-7.609c0.521-0.521 0.521-1.365 0-1.885-0.505-0.505-1.38-0.505-1.885 0l-4.391 4.391v-12.875c0-0.735-0.597-1.333-1.333-1.333s-1.333 0.599-1.333 1.333v12.875l-4.391-4.391c-0.252-0.252-0.585-0.391-0.943-0.391z"></path>
</svg>
