<?xml version="1.0" encoding="utf-8"?>
<!DOCTYPE svg PUBLIC "-//W3C//DTD SVG 1.1//EN" "http://www.w3.org/Graphics/SVG/1.1/DTD/svg11.dtd">
<svg version="1.1" xmlns="http://www.w3.org/2000/svg" xmlns:xlink="http://www.w3.org/1999/xlink" width="32" height="32" viewBox="0 0 32 32">

	<path d="M16 28c-2.205 0-4-1.795-4-4v-6.352c-1.524 1.365-4.033 1.305-5.495-0.153-1.56-1.559-1.56-4.097 0-5.656l9.495-9.495 9.495 9.495c1.56 1.559 1.56 4.097 0 5.656-1.459 1.46-3.972 1.52-5.495 0.153v6.352c0 2.205-1.795 4-4 4zM14.667 11.219v12.781c0 0.735 0.597 1.333 1.333 1.333s1.333-0.599 1.333-1.333v-12.781l4.391 4.391c0.505 0.504 1.38 0.504 1.885 0 0.521-0.521 0.521-1.364 0-1.885l-7.609-7.609-7.609 7.609c-0.521 0.521-0.521 1.364 0 1.885 0.505 0.504 1.38 0.504 1.885 0l4.391-4.391z"></path>
</svg>
