<?xml version="1.0" encoding="utf-8"?>
<!DOCTYPE svg PUBLIC "-//W3C//DTD SVG 1.1//EN" "http://www.w3.org/Graphics/SVG/1.1/DTD/svg11.dtd">
<svg version="1.1" xmlns="http://www.w3.org/2000/svg" xmlns:xlink="http://www.w3.org/1999/xlink" width="32" height="32" viewBox="0 0 32 32">

	<path d="M5.333 26.665c-0.128 0-0.255-0.020-0.381-0.056-0.565-0.168-0.952-0.688-0.952-1.277v-1.333c0-6.4 4.508-11.819 10.667-13.061v-2.272c0-0.712 0.277-1.381 0.78-1.885 1.008-1.009 2.767-1.008 3.772-0.001l8.384 8.271c0.255 0.251 0.397 0.591 0.397 0.949s-0.143 0.699-0.397 0.949l-8.391 8.276c-0.995 0.995-2.756 1.001-3.764-0.007-0.504-0.504-0.781-1.173-0.781-1.885v-1.916c-3.327 0.268-6.031 1.313-8.219 4.645-0.253 0.384-0.673 0.604-1.115 0.604zM16 18.68c0.349 0 1.333-0.013 1.333-0.013v4.665l7.435-7.333-7.435-7.328v4.663c0 0-0.512-0.005-1.188 0.069-4.555 0.504-8.167 3.819-9.189 8.107 2.828-2.304 6.068-2.755 9.044-2.829z"></path>
</svg>
