<?xml version="1.0" encoding="utf-8"?>
<!DOCTYPE svg PUBLIC "-//W3C//DTD SVG 1.1//EN" "http://www.w3.org/Graphics/SVG/1.1/DTD/svg11.dtd">
<svg version="1.1" xmlns="http://www.w3.org/2000/svg" xmlns:xlink="http://www.w3.org/1999/xlink" width="32" height="32" viewBox="0 0 32 32">

	<path d="M25.333 4h-6.991c-1.736 0-3.201 1.117-3.753 2.667h-9.256v9.415c0 0.055 0.015 0.105 0.016 0.16-1.556 0.547-2.683 2.016-2.683 3.759v9.333h9.333c1.748 0 3.457-1.101 4-2.667h9.333v-9.415c0-0.055-0.015-0.105-0.016-0.16 1.556-0.547 2.683-2.016 2.683-3.759v-9.333h-2.667zM22.667 24h-6.667c-0.737 0-1.333-0.597-1.333-1.333s0.596-1.333 1.333-1.333h4v-4.081c0-0.736 0.596-1.333 1.333-1.333s1.333 0.597 1.333 1.333v6.748zM8 9.333h6.748c0.737 0 1.333 0.597 1.333 1.333s-0.596 1.333-1.333 1.333h-4.081v4.081c0 0.736-0.597 1.333-1.333 1.333-0.737 0-1.333-0.597-1.333-1.333v-6.748zM25.333 13.333c0 0.736-0.596 1.333-1.333 1.333s-1.333-0.597-1.333-1.333v-2.115l-4.391 4.391c-0.26 0.26-0.601 0.391-0.943 0.391s-0.683-0.131-0.943-0.391c-0.521-0.521-0.521-1.364 0-1.885l4.391-4.391h-2.115c-0.737 0-1.333-0.597-1.333-1.333s0.596-1.333 1.333-1.333h6.667v6.667zM12 26.667h-5.328c-0.011 0-1.339 0-1.339 0v-6.667c0-0.736 0.596-1.333 1.333-1.333s1.333 0.597 1.333 1.333v2.115l4.391-4.391c0.26-0.26 0.601-0.391 0.943-0.391s0.683 0.131 0.943 0.391c0.521 0.521 0.521 1.364 0 1.885l-4.391 4.391h2.115c0.737 0 1.333 0.597 1.333 1.333s-0.597 1.333-1.333 1.333zM15.219 16.781c-0.504-0.504-1.173-0.781-1.885-0.781-0.489 0-0.955 0.14-1.364 0.385 0.011-0.101 0.031-0.2 0.031-0.304v-2.748h2.748c0.104 0 0.203-0.019 0.305-0.031-0.248 0.409-0.387 0.875-0.387 1.364 0 0.712 0.277 1.381 0.781 1.885s1.173 0.781 1.885 0.781c0.489 0 0.955-0.14 1.364-0.385-0.011 0.101-0.031 0.2-0.031 0.304v2.748h-2.585c-0.163 0-0.32 0.020-0.475 0.048 0.252-0.413 0.393-0.885 0.393-1.381 0-0.712-0.277-1.381-0.781-1.885z"></path>
</svg>
