<?xml version="1.0" encoding="utf-8"?>
<!DOCTYPE svg PUBLIC "-//W3C//DTD SVG 1.1//EN" "http://www.w3.org/Graphics/SVG/1.1/DTD/svg11.dtd">
<svg version="1.1" xmlns="http://www.w3.org/2000/svg" xmlns:xlink="http://www.w3.org/1999/xlink" width="32" height="32" viewBox="0 0 32 32">

	<path d="M23.609 11.057c-0.521-0.521-1.364-0.521-1.885 0s-0.521 1.364 0 1.885l1.724 1.724h-6.115v-6.115l1.724 1.724c0.26 0.26 0.601 0.391 0.943 0.391s0.683-0.131 0.943-0.391c0.521-0.521 0.521-1.364 0-1.885l-4.943-4.943-4.943 4.943c-0.521 0.521-0.521 1.364 0 1.885s1.364 0.521 1.885 0l1.724-1.724v6.115h-6.115l1.724-1.724c0.521-0.521 0.521-1.364 0-1.885s-1.364-0.521-1.885 0l-4.943 4.943 4.943 4.943c0.26 0.26 0.601 0.391 0.943 0.391s0.683-0.131 0.943-0.391c0.521-0.521 0.521-1.364 0-1.885l-1.724-1.724h6.115v6.115l-1.724-1.724c-0.521-0.521-1.364-0.521-1.885 0s-0.521 1.364 0 1.885l4.943 4.943 4.943-4.943c0.521-0.521 0.521-1.364 0-1.885s-1.364-0.521-1.885 0l-1.724 1.724v-6.115h6.115l-1.724 1.724c-0.521 0.521-0.521 1.364 0 1.885 0.26 0.26 0.601 0.391 0.943 0.391s0.683-0.131 0.943-0.391l4.943-4.943-4.943-4.943z"></path>
</svg>
