<?xml version="1.0" encoding="utf-8"?>
<!DOCTYPE svg PUBLIC "-//W3C//DTD SVG 1.1//EN" "http://www.w3.org/Graphics/SVG/1.1/DTD/svg11.dtd">
<svg version="1.1" xmlns="http://www.w3.org/2000/svg" xmlns:xlink="http://www.w3.org/1999/xlink" width="32" height="32" viewBox="0 0 32 32">

	<path d="M26 16.631c0-2.597-0.824-4.529-2.755-6.459-0.521-0.52-1.364-0.52-1.885 0-0.521 0.521-0.521 1.365 0 1.887 1.439 1.437 1.973 2.676 1.973 4.572 0 1.959-0.763 3.8-2.148 5.184-1.339 1.337-2.771 2.003-4.571 2.124l1.661-1.663c0.521-0.521 0.521-1.364 0-1.885s-1.364-0.521-1.885 0l-4.943 4.943 4.943 4.943c0.26 0.26 0.601 0.391 0.943 0.391s0.683-0.131 0.943-0.391c0.521-0.521 0.521-1.364 0-1.885l-1.783-1.781c2.564-0.109 4.723-1.056 6.577-2.908 1.889-1.888 2.929-4.399 2.929-7.071z"></path>
	<path d="M8.667 16.667c0-1.959 0.763-3.8 2.148-5.185 1.345-1.345 2.789-2.011 4.609-2.125l-1.7 1.7c-0.521 0.521-0.521 1.364 0 1.885 0.26 0.261 0.601 0.392 0.943 0.392s0.683-0.131 0.943-0.391l4.943-4.943-4.943-4.943c-0.521-0.521-1.364-0.521-1.885 0s-0.521 1.364 0 1.885l1.748 1.748c-2.552 0.115-4.7 1.061-6.543 2.905-1.889 1.888-2.929 4.399-2.929 7.071 0 2.597 0.824 4.529 2.755 6.459 0.26 0.26 0.601 0.389 0.943 0.389s0.683-0.131 0.943-0.391c0.521-0.521 0.521-1.365 0-1.887-1.439-1.436-1.973-2.675-1.973-4.571z"></path>
</svg>
