<?xml version="1.0" encoding="utf-8"?>
<!DOCTYPE svg PUBLIC "-//W3C//DTD SVG 1.1//EN" "http://www.w3.org/Graphics/SVG/1.1/DTD/svg11.dtd">
<svg version="1.1" xmlns="http://www.w3.org/2000/svg" xmlns:xlink="http://www.w3.org/1999/xlink" width="32" height="32" viewBox="0 0 32 32">

	<path d="M22 9.333h-2.781l1.724-1.724c0.521-0.521 0.521-1.364 0-1.885s-1.364-0.521-1.885 0l-4.943 4.943 4.943 4.943c0.26 0.26 0.601 0.391 0.943 0.391s0.683-0.131 0.943-0.391c0.521-0.521 0.521-1.364 0-1.885l-1.724-1.724h2.781c1.839 0 3.333 1.795 3.333 4s-1.795 4-4 4v0c-0.737 0-1.333 0.597-1.333 1.333s0.596 1.333 1.333 1.333v0c3.676 0 6.667-2.991 6.667-6.667s-2.692-6.667-6-6.667z"></path>
	<path d="M11.057 16.391c-0.521 0.521-0.521 1.364 0 1.885l1.724 1.724h-2.781c-1.839 0-3.333-1.795-3.333-4s1.795-4 4-4v0c0.737 0 1.333-0.597 1.333-1.333s-0.596-1.333-1.333-1.333v0c-3.676 0-6.667 2.991-6.667 6.667s2.692 6.667 6 6.667h2.781l-1.724 1.724c-0.521 0.521-0.521 1.364 0 1.885 0.26 0.26 0.601 0.391 0.943 0.391s0.683-0.131 0.943-0.391l4.943-4.943-4.943-4.943c-0.521-0.521-1.364-0.521-1.885 0z"></path>
</svg>
