<?xml version="1.0" encoding="utf-8"?>
<!DOCTYPE svg PUBLIC "-//W3C//DTD SVG 1.1//EN" "http://www.w3.org/Graphics/SVG/1.1/DTD/svg11.dtd">
<svg version="1.1" xmlns="http://www.w3.org/2000/svg" xmlns:xlink="http://www.w3.org/1999/xlink" width="32" height="32" viewBox="0 0 32 32">

	<path d="M20 5.333c-0.737 0-1.333 0.597-1.333 1.333s0.596 1.333 1.333 1.333h2.115l-4.391 4.391c-0.521 0.521-0.521 1.364 0 1.885 0.26 0.26 0.601 0.391 0.943 0.391s0.683-0.131 0.943-0.391l4.391-4.391v2.115c0 0.736 0.596 1.333 1.333 1.333s1.333-0.597 1.333-1.333v-6.667h-6.667z"></path>
	<path d="M12.391 17.724l-4.391 4.391v-2.115c0-0.736-0.596-1.333-1.333-1.333s-1.333 0.597-1.333 1.333v6.665h1.328c0.011 0 5.339 0.001 5.339 0.001 0.736 0 1.333-0.597 1.333-1.333s-0.596-1.333-1.333-1.333h-2.115l4.391-4.389c0.521-0.521 0.521-1.364 0-1.885s-1.364-0.523-1.885-0.001z"></path>
	<path d="M9.333 16c0.736 0 1.333-0.597 1.333-1.333v-4h4c0.737 0 1.333-0.597 1.333-1.333s-0.596-1.333-1.333-1.333h-6.665l-0.001 6.667c0 0.736 0.596 1.333 1.333 1.333z"></path>
	<path d="M22.667 16c-0.737 0-1.333 0.597-1.333 1.333v4h-4c-0.737 0-1.333 0.597-1.333 1.333s0.596 1.333 1.333 1.333h6.667v-6.667c0-0.736-0.596-1.333-1.333-1.333z"></path>
</svg>
