<?xml version="1.0" encoding="utf-8"?>
<!DOCTYPE svg PUBLIC "-//W3C//DTD SVG 1.1//EN" "http://www.w3.org/Graphics/SVG/1.1/DTD/svg11.dtd">
<svg version="1.1" xmlns="http://www.w3.org/2000/svg" xmlns:xlink="http://www.w3.org/1999/xlink" width="32" height="32" viewBox="0 0 32 32">

	<path d="M25.552 26.063c-2.188-3.333-4.892-4.38-8.219-4.645v1.916c0 0.712-0.277 1.381-0.781 1.885-1.008 1.008-2.769 1.001-3.764 0.007l-8.391-8.276c-0.255-0.252-0.397-0.592-0.397-0.951s0.143-0.699 0.397-0.949l8.384-8.271c1.005-1.007 2.764-1.008 3.772 0.001 0.503 0.504 0.78 1.173 0.78 1.885v2.272c6.159 1.244 10.667 6.663 10.667 13.061v1.333c0 0.589-0.387 1.109-0.952 1.277-0.127 0.036-0.253 0.056-0.381 0.056-0.441 0-0.861-0.22-1.115-0.603zM16.031 18.681c2.943 0.075 6.184 0.525 9.011 2.828-1.024-4.288-4.636-7.603-9.191-8.107-0.672-0.075-1.184-0.069-1.184-0.069v-4.663l-7.435 7.328 7.435 7.333v-4.665c0 0 0.984 0.013 1.364 0.015z"></path>
</svg>
