<?xml version="1.0" encoding="utf-8"?>
<!DOCTYPE svg PUBLIC "-//W3C//DTD SVG 1.1//EN" "http://www.w3.org/Graphics/SVG/1.1/DTD/svg11.dtd">
<svg version="1.1" xmlns="http://www.w3.org/2000/svg" xmlns:xlink="http://www.w3.org/1999/xlink" width="32" height="32" viewBox="0 0 32 32">

	<path d="M25.325 9.583c0.005-0.083 0.008-0.167 0.008-0.249 0-1.068-0.416-2.073-1.172-2.828-0.755-0.756-1.76-1.172-2.828-1.172s-2.073 0.416-2.828 1.172l-3.856 3.855c-0.707-0.631-1.628-1.027-2.649-1.027h-1.333c-5.145 0-9.333 4.187-9.333 9.333 0 4.408 2.853 8.112 6.675 9.084-0.005 0.083-0.008 0.167-0.008 0.249 0 1.068 0.416 2.073 1.172 2.828 0.755 0.756 1.76 1.172 2.828 1.172s2.073-0.416 2.828-1.172l3.856-3.855c0.707 0.631 1.628 1.027 2.649 1.027h1.333c5.145 0 9.333-4.187 9.333-9.333 0-4.408-2.853-8.112-6.675-9.084zM22.667 25.333h-1.333c-0.737 0-1.333-0.597-1.333-1.333s0.596-1.333 1.333-1.333h1.333c2.205 0 4-1.795 4-4s-1.495-4-3.333-4h-2.781l1.724 1.724c0.521 0.521 0.521 1.364 0 1.885-0.26 0.26-0.601 0.391-0.943 0.391s-0.683-0.131-0.943-0.391l-4.943-4.943 4.943-4.943c0.26-0.26 0.601-0.391 0.943-0.391s0.683 0.131 0.943 0.391c0.521 0.521 0.521 1.364 0 1.885l-1.724 1.724h2.781c3.308 0 6 2.991 6 6.667s-2.991 6.667-6.667 6.667zM23.665 16.039c0.933 0.219 1.668 1.333 1.668 2.628 0 1.471-1.196 2.667-2.667 2.667h-1.333c-1.143 0-2.112 0.725-2.491 1.739-0.015-0.015-4.957-4.957-4.957-4.957-0.504-0.504-1.173-0.781-1.885-0.781s-1.381 0.277-1.885 0.781-0.781 1.173-0.781 1.885c0 0.46 0.116 0.903 0.335 1.295-0.933-0.219-1.668-1.333-1.668-2.628 0-1.471 1.196-2.667 2.667-2.667h1.333c1.143 0 2.112-0.725 2.491-1.739 0.015 0.015 4.957 4.957 4.957 4.957 0.504 0.504 1.173 0.781 1.885 0.781s1.381-0.277 1.885-0.781 0.781-1.173 0.781-1.885c0-0.46-0.116-0.903-0.335-1.295zM13.333 13.333c0 0.736-0.596 1.333-1.333 1.333h-1.333c-2.205 0-4 1.795-4 4s1.495 4 3.333 4h2.781l-1.724-1.724c-0.521-0.521-0.521-1.364 0-1.885 0.26-0.26 0.601-0.391 0.943-0.391s0.683 0.131 0.943 0.391l4.943 4.943-4.943 4.943c-0.26 0.26-0.601 0.391-0.943 0.391s-0.683-0.131-0.943-0.391c-0.521-0.521-0.521-1.364 0-1.885l1.724-1.724h-2.781c-3.308 0-6-2.991-6-6.667s2.991-6.667 6.667-6.667h1.333c0.737 0 1.333 0.597 1.333 1.333z"></path>
</svg>
