<?xml version="1.0" encoding="utf-8"?>
<!DOCTYPE svg PUBLIC "-//W3C//DTD SVG 1.1//EN" "http://www.w3.org/Graphics/SVG/1.1/DTD/svg11.dtd">
<svg version="1.1" xmlns="http://www.w3.org/2000/svg" xmlns:xlink="http://www.w3.org/1999/xlink" width="32" height="32" viewBox="0 0 32 32">

	<path d="M30.437 14.115l-12.552-12.552c-0.521-0.521-1.203-0.781-1.885-0.781s-1.364 0.26-1.885 0.781l-12.552 12.552c-1.041 1.039-1.041 2.729 0 3.771l12.552 12.552c0.521 0.521 1.203 0.781 1.885 0.781s1.364-0.26 1.885-0.781l12.552-12.552c1.041-1.041 1.041-2.732 0-3.771zM22.667 21.333c-0.341 0-0.683-0.131-0.943-0.391-0.521-0.521-0.521-1.364 0-1.885l1.724-1.724h-6.115v6.115l1.724-1.724c0.26-0.26 0.601-0.391 0.943-0.391s0.683 0.131 0.943 0.391c0.521 0.521 0.521 1.364 0 1.885l-4.943 4.943-4.943-4.943c-0.521-0.521-0.521-1.364 0-1.885 0.26-0.26 0.601-0.391 0.943-0.391s0.683 0.131 0.943 0.391l1.724 1.724v-6.115h-6.115l1.724 1.724c0.521 0.521 0.521 1.364 0 1.885-0.26 0.26-0.601 0.391-0.943 0.391s-0.683-0.131-0.943-0.391l-4.943-4.943 4.943-4.943c0.26-0.26 0.601-0.391 0.943-0.391s0.683 0.131 0.943 0.391c0.521 0.521 0.521 1.364 0 1.885l-1.724 1.724h6.115v-6.115l-1.724 1.724c-0.26 0.26-0.601 0.391-0.943 0.391s-0.683-0.131-0.943-0.391c-0.521-0.521-0.521-1.364 0-1.885l4.943-4.943 4.943 4.943c0.521 0.521 0.521 1.364 0 1.885-0.26 0.26-0.601 0.391-0.943 0.391s-0.683-0.131-0.943-0.391l-1.724-1.724v6.115h6.115l-1.724-1.724c-0.521-0.521-0.521-1.364 0-1.885 0.26-0.26 0.601-0.391 0.943-0.391s0.683 0.131 0.943 0.391l4.943 4.943-4.943 4.943c-0.26 0.26-0.601 0.391-0.943 0.391zM20.357 18.667c-0.233 0.401-0.357 0.857-0.357 1.333-0.476 0-0.932 0.124-1.333 0.357v-1.691h1.691zM11.643 18.667h1.691v1.691c-0.401-0.233-0.857-0.357-1.333-0.357 0-0.476-0.124-0.932-0.357-1.333zM11.643 13.333c0.233-0.401 0.357-0.857 0.357-1.333 0.476 0 0.932-0.124 1.333-0.357v1.691h-1.691zM20.357 13.333h-1.691v-1.691c0.401 0.233 0.857 0.357 1.333 0.357 0 0.476 0.124 0.932 0.357 1.333z"></path>
</svg>
