<?xml version="1.0" encoding="utf-8"?>
<!DOCTYPE svg PUBLIC "-//W3C//DTD SVG 1.1//EN" "http://www.w3.org/Graphics/SVG/1.1/DTD/svg11.dtd">
<svg version="1.1" xmlns="http://www.w3.org/2000/svg" xmlns:xlink="http://www.w3.org/1999/xlink" width="32" height="32" viewBox="0 0 32 32">

	<path d="M16 5.333c-5.881 0-10.667 4.785-10.667 10.667s4.785 10.667 10.667 10.667c2.155 0 4.229-0.639 5.999-1.845 0.608-0.416 0.765-1.245 0.351-1.853-0.415-0.609-1.243-0.763-1.853-0.351-1.325 0.905-2.88 1.383-4.496 1.383-4.412 0-8-3.588-8-8s3.588-8 8-8 8 3.588 8 8v0.667c0 0.736-0.597 1.333-1.333 1.333s-1.333-0.597-1.333-1.333v-4c0-0.737-0.596-1.333-1.333-1.333-0.588 0-1.073 0.387-1.251 0.917-0.773-0.569-1.719-0.917-2.749-0.917-2.573 0-4.667 2.093-4.667 4.667s2.093 4.667 4.667 4.667c1.393 0 2.633-0.627 3.488-1.599 0.731 0.964 1.877 1.599 3.179 1.599 2.205 0 4-1.795 4-4v-0.667c0-5.881-4.785-10.667-10.667-10.667zM16 18c-1.103 0-2-0.897-2-2s0.897-2 2-2 2 0.897 2 2-0.897 2-2 2z"></path>
</svg>
