<?xml version="1.0" encoding="utf-8"?>
<!DOCTYPE svg PUBLIC "-//W3C//DTD SVG 1.1//EN" "http://www.w3.org/Graphics/SVG/1.1/DTD/svg11.dtd">
<svg version="1.1" xmlns="http://www.w3.org/2000/svg" xmlns:xlink="http://www.w3.org/1999/xlink" width="32" height="32" viewBox="0 0 32 32">

	<path d="M24.485 8.847c-2.081-2.079-5.467-2.079-7.544 0l-6.045 6.047c-0.631 0.631-0.977 1.467-0.977 2.36 0 0.891 0.348 1.727 0.976 2.357 0.649 0.648 1.504 0.973 2.359 0.973 0.853 0 1.705-0.323 2.356-0.973l2.829-2.828c0.521-0.527 0.781-1.205 0.781-1.885 0-0.683-0.26-1.364-0.781-1.885l-4.715 4.713c-0.257 0.26-0.681 0.26-0.944-0.003-0.169-0.169-0.195-0.367-0.195-0.469 0-0.104 0.025-0.303 0.195-0.472l6.047-6.049c1.037-1.039 2.731-1.039 3.773 0 1.039 1.039 1.039 2.732 0 3.771l-9.429 9.429c-1.039 1.039-2.732 1.039-3.771 0-1.040-1.039-1.040-2.732 0-3.771l0.127-0.128c-0.601-0.8-0.936-1.812-0.936-2.833l-1.076 1.076c-2.080 2.079-2.080 5.464 0 7.541 1.039 1.039 2.405 1.56 3.771 1.56s2.732-0.521 3.771-1.56l9.429-9.429c2.080-2.079 2.080-5.461 0-7.541z"></path>
</svg>
