<?xml version="1.0" encoding="utf-8"?>
<!DOCTYPE svg PUBLIC "-//W3C//DTD SVG 1.1//EN" "http://www.w3.org/Graphics/SVG/1.1/DTD/svg11.dtd">
<svg version="1.1" xmlns="http://www.w3.org/2000/svg" xmlns:xlink="http://www.w3.org/1999/xlink" width="32" height="32" viewBox="0 0 32 32">

	<path d="M20.712 5.955c1.365 0 2.733 0.52 3.772 1.559 2.081 2.081 2.081 5.464 0 7.541l-9.428 9.429c-1.037 1.039-2.405 1.56-3.771 1.56s-2.732-0.521-3.771-1.56c-2.080-2.079-2.080-5.464 0-7.541l1.076-1.076c-0.005 1.073 0.333 2.032 0.935 2.833l-0.125 0.128c-1.040 1.039-1.040 2.732 0 3.771 0.52 0.52 1.201 0.779 1.885 0.779s1.365-0.26 1.885-0.779l9.429-9.429c1.037-1.039 1.037-2.732 0-3.771-0.523-0.52-1.205-0.779-1.889-0.779-0.683 0-1.364 0.26-1.884 0.779l-6.047 6.049c-0.171 0.169-0.195 0.367-0.195 0.472 0 0.101 0.025 0.301 0.195 0.471 0.132 0.132 0.304 0.196 0.475 0.196 0.169 0 0.339-0.065 0.469-0.195l4.715-4.713c0.523 0.523 0.781 1.203 0.781 1.885 0 0.681-0.259 1.361-0.779 1.88-0.003 0.005-2.832 2.833-2.832 2.833-0.648 0.649-1.503 0.972-2.357 0.972s-1.707-0.325-2.359-0.972c-0.629-0.632-0.975-1.468-0.975-2.359 0-0.893 0.348-1.729 0.976-2.36l6.045-6.047c1.039-1.039 2.407-1.557 3.772-1.557zM20.712 3.288c-2.139 0-4.147 0.831-5.656 2.34l-9.425 9.431c-1.511 1.508-2.343 3.517-2.343 5.656s0.832 4.147 2.343 5.657c1.508 1.509 3.519 2.34 5.655 2.34s4.147-0.832 5.656-2.343l9.428-9.428c1.511-1.508 2.343-3.517 2.343-5.656 0-2.137-0.831-4.147-2.34-5.655-1.511-1.512-3.52-2.343-5.66-2.343z"></path>
</svg>
