<?xml version="1.0" encoding="utf-8"?>
<!DOCTYPE svg PUBLIC "-//W3C//DTD SVG 1.1//EN" "http://www.w3.org/Graphics/SVG/1.1/DTD/svg11.dtd">
<svg version="1.1" xmlns="http://www.w3.org/2000/svg" xmlns:xlink="http://www.w3.org/1999/xlink" width="32" height="32" viewBox="0 0 32 32">

	<path d="M25.333 28h-13.333c-1.915 0-4.193-1.173-5.303-2.728l-3.492-4.889c-0.839-1.175-1.543-2.161-1.584-2.215-0.328-0.459-0.332-1.192-0.011-1.655 0.024-0.033 0.748-1.044 1.605-2.248l3.477-4.871c1.113-1.556 3.395-2.728 5.307-2.728h13.333c2.205 0 4 1.795 4 4v13.333c0 2.205-1.795 4-4 4zM4.305 17.332c0.287 0.399 0.664 0.928 1.075 1.5l3.491 4.889c0.601 0.844 2.093 1.612 3.131 1.612h13.333c0.736 0 1.333-0.6 1.333-1.335v-13.332c0-0.735-0.597-1.333-1.333-1.333h-13.333c-1.035 0-2.529 0.768-3.135 1.612l-3.477 4.869c-0.416 0.581-0.799 1.117-1.084 1.517z"></path>
	<path d="M18.276 17.333l3.528-3.528c0.259-0.259 0.259-0.683 0-0.943-0.26-0.259-0.684-0.259-0.943 0l-3.528 3.528-3.528-3.528c-0.26-0.259-0.684-0.259-0.943 0-0.26 0.26-0.26 0.684 0 0.943l3.528 3.528-3.528 3.528c-0.26 0.26-0.26 0.684 0 0.943 0.129 0.131 0.3 0.196 0.471 0.196s0.341-0.065 0.472-0.195l3.528-3.529 3.528 3.528c0.131 0.131 0.301 0.196 0.472 0.196s0.341-0.065 0.472-0.195c0.259-0.259 0.259-0.683 0-0.943l-3.529-3.529z"></path>
</svg>
