<?xml version="1.0" encoding="utf-8"?>
<!DOCTYPE svg PUBLIC "-//W3C//DTD SVG 1.1//EN" "http://www.w3.org/Graphics/SVG/1.1/DTD/svg11.dtd">
<svg version="1.1" xmlns="http://www.w3.org/2000/svg" xmlns:xlink="http://www.w3.org/1999/xlink" width="32" height="32" viewBox="0 0 32 32">

	<path d="M26 6.667h-13.333c-1.688 0-3.779 1.076-4.76 2.449l-3.48 4.871c-0.856 1.197-1.576 2.205-1.599 2.239-0.161 0.233-0.163 0.656 0.004 0.885 0.031 0.044 0.74 1.036 1.584 2.219l3.492 4.889c0.98 1.372 3.069 2.448 4.759 2.448h13.333c1.839 0 3.333-1.496 3.333-3.333v-13.333c0-1.837-1.495-3.333-3.333-3.333zM22.943 19.724c0.521 0.521 0.521 1.364 0 1.885-0.26 0.26-0.601 0.391-0.943 0.391s-0.683-0.131-0.943-0.391l-3.057-3.057-3.057 3.057c-0.26 0.26-0.601 0.391-0.943 0.391s-0.683-0.131-0.943-0.391c-0.521-0.521-0.521-1.364 0-1.885l3.057-3.057-3.057-3.057c-0.521-0.521-0.521-1.364 0-1.885s1.364-0.521 1.885 0l3.057 3.057 3.057-3.057c0.521-0.521 1.364-0.521 1.885 0s0.521 1.364 0 1.885l-3.057 3.057 3.057 3.057z"></path>
</svg>
