<?xml version="1.0" encoding="utf-8"?>
<!DOCTYPE svg PUBLIC "-//W3C//DTD SVG 1.1//EN" "http://www.w3.org/Graphics/SVG/1.1/DTD/svg11.dtd">
<svg version="1.1" xmlns="http://www.w3.org/2000/svg" xmlns:xlink="http://www.w3.org/1999/xlink" width="32" height="32" viewBox="0 0 32 32">

	<path d="M6.667 13.333v8h14.667v-8h-14.667zM14.44 19.877l-1.613-2.544-3.493 0.571 4.297-3.099 1.567 2.528 3.469-0.573-4.227 3.117z"></path>
	<path d="M25.333 13.333c0-2.205-1.795-4-4-4h-14.667c-2.205 0-4 1.795-4 4v8c0 2.205 1.795 4 4 4h14.667c2.205 0 4-1.795 4-4 1.472 0 2.667-1.195 2.667-2.667v-2.667c0-1.472-1.195-2.667-2.667-2.667zM22.667 21.333c0 0.736-0.599 1.333-1.333 1.333h-14.667c-0.735 0-1.333-0.597-1.333-1.333v-8c0-0.736 0.599-1.333 1.333-1.333h14.667c0.735 0 1.333 0.597 1.333 1.333v8z"></path>
</svg>
