<?xml version="1.0" encoding="utf-8"?>
<!DOCTYPE svg PUBLIC "-//W3C//DTD SVG 1.1//EN" "http://www.w3.org/Graphics/SVG/1.1/DTD/svg11.dtd">
<svg version="1.1" xmlns="http://www.w3.org/2000/svg" xmlns:xlink="http://www.w3.org/1999/xlink" width="32" height="32" viewBox="0 0 32 32">

	<path d="M25.927 22.412l-3.52-13.079h1.593c0.736 0 1.333-0.597 1.333-1.333s-0.597-1.333-1.333-1.333h-16c-0.736 0-1.333 0.597-1.333 1.333s0.597 1.333 1.333 1.333h1.513c-0.017 0.235-0.064 0.536-0.161 0.895l-3.279 12.184c-0.291 1.079-0.099 2.164 0.524 2.975 0.621 0.813 1.619 1.28 2.736 1.28h13.333c1.117 0 2.115-0.467 2.74-1.279 0.621-0.812 0.812-1.897 0.52-2.976zM19.643 9.333l1.803 6.691c-0.036-0.008-0.073-0.024-0.112-0.024h-10.667c-0.039 0-0.076 0.016-0.112 0.024l1.372-5.101c0.112-0.416 0.231-0.992 0.256-1.589h7.46zM23.288 23.765c-0.116 0.152-0.336 0.235-0.621 0.235h-13.333c-0.285 0-0.505-0.083-0.621-0.235-0.115-0.151-0.139-0.385-0.064-0.661l1.596-5.933c0.117 0.097 0.26 0.163 0.423 0.163h10.667c0.163 0 0.305-0.065 0.421-0.161l1.596 5.933c0.076 0.275 0.053 0.509-0.063 0.66z"></path>
</svg>
