<?xml version="1.0" encoding="utf-8"?>
<!DOCTYPE svg PUBLIC "-//W3C//DTD SVG 1.1//EN" "http://www.w3.org/Graphics/SVG/1.1/DTD/svg11.dtd">
<svg version="1.1" xmlns="http://www.w3.org/2000/svg" xmlns:xlink="http://www.w3.org/1999/xlink" width="32" height="32" viewBox="0 0 32 32">

	<path d="M13.333 22c0 0.367-0.3 0.667-0.667 0.667s-0.667-0.3-0.667-0.667v-8c0-0.367 0.3-0.667 0.667-0.667s0.667 0.3 0.667 0.667v8z"></path>
	<path d="M16 22c0 0.367-0.3 0.667-0.667 0.667s-0.667-0.3-0.667-0.667v-8c0-0.367 0.3-0.667 0.667-0.667s0.667 0.3 0.667 0.667v8z"></path>
	<path d="M18.667 22c0 0.367-0.3 0.667-0.667 0.667s-0.667-0.3-0.667-0.667v-8c0-0.367 0.3-0.667 0.667-0.667s0.667 0.3 0.667 0.667v8z"></path>
	<path d="M24.667 8h-0.667v-1.333c0-1.472-1.195-2.667-2.667-2.667h-12c-1.472 0-2.667 1.195-2.667 2.667v17.333c0 2.208 1.792 4 4 4h9.333c2.208 0 4-1.792 4-4h0.667c2.573 0 4.667-2.093 4.667-4.667v-6.667c0-2.573-2.093-4.667-4.667-4.667zM9.333 6.667h12v1.333h-5.925l-0.157 0.443c-0.219 0.611-0.884 0.973-1.489 0.864l-0.464-0.077-0.231 0.409c-0.356 0.633-1.020 1.028-1.733 1.028-1.103 0-2-0.897-2-2v-2zM21.333 24c0 0.736-0.597 1.333-1.333 1.333h-9.333c-0.736 0-1.333-0.597-1.333-1.333v-12.68c0.559 0.423 1.248 0.68 2 0.68 1.045 0 2.028-0.501 2.652-1.333 0.971 0 1.844-0.521 2.315-1.333h5.033v14.667zM26.667 19.333c0 1.103-0.897 2-2 2h-2v-10.667h2c1.103 0 2 0.897 2 2v6.667z"></path>
</svg>
