<?xml version="1.0" encoding="utf-8"?>
<!DOCTYPE svg PUBLIC "-//W3C//DTD SVG 1.1//EN" "http://www.w3.org/Graphics/SVG/1.1/DTD/svg11.dtd">
<svg version="1.1" xmlns="http://www.w3.org/2000/svg" xmlns:xlink="http://www.w3.org/1999/xlink" width="32" height="32" viewBox="0 0 32 32">

	<path d="M26.287 23.068c-0.023-0.024-2.289-2.472-2.307-8.427-0.012-3.476-2.253-6.432-5.359-7.521 0.024-0.148 0.045-0.297 0.045-0.453 0-1.471-1.195-2.667-2.667-2.667s-2.667 1.196-2.667 2.667c0 0.155 0.021 0.304 0.045 0.451-3.115 1.088-5.359 4.048-5.359 7.528 0 5.949-2.281 8.395-2.295 8.408-0.383 0.381-0.499 0.955-0.293 1.455s0.695 0.825 1.235 0.825h4.191c0.596 2.293 2.665 4 5.143 4s4.547-1.707 5.143-4h4.191c0.533 0 1.011-0.324 1.22-0.813s0.101-1.065-0.267-1.452zM16 9.333c2.919 0 5.304 2.385 5.312 5.316 0.003 0.971 0.061 1.861 0.157 2.684h-10.933c0.095-0.823 0.151-1.715 0.151-2.688 0.001-2.928 2.384-5.312 5.313-5.312zM16 26.667c-0.983 0-1.833-0.54-2.296-1.333h4.591c-0.461 0.793-1.312 1.333-2.295 1.333zM9.085 22.667c0.469-0.981 0.94-2.308 1.251-4h11.336c0.312 1.692 0.784 3.019 1.251 4h-13.837z"></path>
</svg>
