<?xml version="1.0" encoding="utf-8"?>
<!DOCTYPE svg PUBLIC "-//W3C//DTD SVG 1.1//EN" "http://www.w3.org/Graphics/SVG/1.1/DTD/svg11.dtd">
<svg version="1.1" xmlns="http://www.w3.org/2000/svg" xmlns:xlink="http://www.w3.org/1999/xlink" width="32" height="32" viewBox="0 0 32 32">

	<path d="M22.667 2.667h-10.667c-2.205 0-4 1.795-4 4v18.667c0 0.685 0.139 1.261 0.411 1.713 0.752 1.247 2.42 1.344 3.751 0.011l4.229-4.229c0.5-0.499 1.385-0.499 1.885 0l4.229 4.229c0.655 0.655 1.336 0.987 2.027 0.987 1.063 0 2.135-0.839 2.135-2.711v-18.667c0-2.205-1.795-4-4-4zM12 5.333h10.667c0.735 0 1.333 0.599 1.333 1.333v13.207l-3.268-2.996c-1.875-1.719-4.924-1.717-6.799 0l-3.267 2.996v-13.207c0-0.735 0.599-1.333 1.333-1.333zM20.161 20.943c-0.753-0.753-1.757-1.168-2.828-1.168s-2.075 0.416-2.828 1.168l-3.839 3.839v-3.099l4.168-3.821c1.377-1.263 3.619-1.263 4.996 0l4.169 3.821v3.099l-3.839-3.839z"></path>
</svg>
