<?xml version="1.0" encoding="utf-8"?>
<!DOCTYPE svg PUBLIC "-//W3C//DTD SVG 1.1//EN" "http://www.w3.org/Graphics/SVG/1.1/DTD/svg11.dtd">
<svg version="1.1" xmlns="http://www.w3.org/2000/svg" xmlns:xlink="http://www.w3.org/1999/xlink" width="32" height="32" viewBox="0 0 32 32">

	<path d="M24 4h-14.667c-0.353 0-0.693 0.14-0.943 0.391l-4 4c-0.027 0.027-0.052 0.053-0.076 0.083-0.185 0.22-0.3 0.497-0.313 0.8-0.001 0.024-0.001 0.047-0.001 0.071v14.656c0 2.205 1.795 4 4 4h12c1.739 0 3.221-1.115 3.772-2.667h0.895c1.869 0 3.333-1.756 3.333-4v-13.333c0-2.205-1.795-4-4-4zM8 25.333c-0.735 0-1.333-0.597-1.333-1.333v-13.333h2.667v14.667h-1.333zM21.333 24c0 0.736-0.599 1.333-1.333 1.333h-9.333v-14.667h9.333c0.735 0 1.333 0.597 1.333 1.333v12zM25.333 21.333c0 0.827-0.432 1.333-0.667 1.333h-0.667v-10.667c0-2.205-1.795-4-4-4h-11.448l1.333-1.333h14.115c0.735 0 1.333 0.597 1.333 1.333v13.333z"></path>
</svg>
