<?xml version="1.0" encoding="utf-8"?>
<!DOCTYPE svg PUBLIC "-//W3C//DTD SVG 1.1//EN" "http://www.w3.org/Graphics/SVG/1.1/DTD/svg11.dtd">
<svg version="1.1" xmlns="http://www.w3.org/2000/svg" xmlns:xlink="http://www.w3.org/1999/xlink" width="32" height="32" viewBox="0 0 32 32">

	<path d="M24 9.333c0-2.205-1.795-4-4-4h-8c-2.205 0-4 1.795-4 4-2.205 0-4 1.795-4 4v9.333c0 2.205 1.795 4 4 4h16c2.205 0 4-1.795 4-4v-9.333c0-2.205-1.795-4-4-4zM12 8h8c0.735 0 1.333 0.599 1.333 1.333h-10.667c0-0.735 0.599-1.333 1.333-1.333zM25.333 22.667c0 0.735-0.599 1.333-1.333 1.333h-16c-0.735 0-1.333-0.599-1.333-1.333v-1.333h18.667v1.333zM6.667 20v-6.667c0-0.735 0.599-1.333 1.333-1.333h16c0.735 0 1.333 0.599 1.333 1.333v6.667h-18.667z"></path>
	<path d="M17.333 16h-2.667c-0.733 0-1.333 0.6-1.333 1.333s0.6 1.333 1.333 1.333h2.667c0.733 0 1.333-0.6 1.333-1.333s-0.6-1.333-1.333-1.333z"></path>
</svg>
