<?xml version="1.0" encoding="utf-8"?>
<!DOCTYPE svg PUBLIC "-//W3C//DTD SVG 1.1//EN" "http://www.w3.org/Graphics/SVG/1.1/DTD/svg11.dtd">
<svg version="1.1" xmlns="http://www.w3.org/2000/svg" xmlns:xlink="http://www.w3.org/1999/xlink" width="32" height="32" viewBox="0 0 32 32">

	<path d="M26.903 5.097c-0.509-0.511-1.192-0.781-1.887-0.781-0.333 0-0.671 0.063-0.992 0.192-5.932 2.383-10.389 6.347-14.023 12.476-0.136 0.229-0.217 0.473-0.279 0.723-1.84 0.287-3.467 1.204-4.589 2.657-1.221 1.58-1.727 3.593-1.421 5.672l0.288 1.964 1.964 0.289c0.391 0.057 0.785 0.085 1.173 0.085 3.657 0 6.599-2.545 7.156-6.085 0.251-0.063 0.495-0.153 0.725-0.291 6.131-3.637 10.095-8.092 12.473-14.023 0.397-0.991 0.164-2.124-0.589-2.879zM7.137 25.708c-0.256 0-0.519-0.021-0.787-0.059-0.412-2.805 1.407-5.080 4-5.361l1.361 1.361c-0.256 2.347-2.14 4.059-4.575 4.059zM13.657 19.705l-1.361-1.361c0.507-0.855 1.032-1.644 1.571-2.405 0.036 0.055 2.185 2.204 2.185 2.204-0.757 0.535-1.544 1.059-2.395 1.563zM17.135 17.341c0 0-2.428-2.401-2.505-2.432 2.863-3.712 6.201-6.247 10.388-7.924-1.673 4.169-4.192 7.497-7.883 10.356z"></path>
</svg>
