<?xml version="1.0" encoding="utf-8"?>
<!DOCTYPE svg PUBLIC "-//W3C//DTD SVG 1.1//EN" "http://www.w3.org/Graphics/SVG/1.1/DTD/svg11.dtd">
<svg version="1.1" xmlns="http://www.w3.org/2000/svg" xmlns:xlink="http://www.w3.org/1999/xlink" width="32" height="32" viewBox="0 0 32 32">

	<path d="M25.333 8.245v-0.245c0-2.209-1.791-4-4-4s-4 1.791-4 4h-2.667c0-2.209-1.791-4-4-4s-4 1.791-4 4v0.245c-1.548 0.553-2.667 2.019-2.667 3.755v12c0 2.205 1.795 4 4 4h16c2.205 0 4-1.795 4-4v-12c0-1.736-1.119-3.201-2.667-3.755zM20 8c0-0.736 0.596-1.333 1.333-1.333s1.333 0.597 1.333 1.333v2.667c0 0.736-0.596 1.333-1.333 1.333s-1.333-0.597-1.333-1.333v-2.667zM9.333 8c0-0.736 0.596-1.333 1.333-1.333s1.333 0.597 1.333 1.333v2.667c0 0.736-0.596 1.333-1.333 1.333s-1.333-0.597-1.333-1.333v-2.667zM25.333 24c0 0.735-0.597 1.333-1.333 1.333h-16c-0.736 0-1.333-0.599-1.333-1.333v-8h18.667v8zM25.333 14.667h-18.667v-2.667c0-0.735 0.597-1.333 1.333-1.333 0 1.472 1.195 2.667 2.667 2.667s2.667-1.195 2.667-2.667h5.333c0 1.472 1.195 2.667 2.667 2.667s2.667-1.195 2.667-2.667c0.736 0 1.333 0.599 1.333 1.333v2.667z"></path>
</svg>
