<?xml version="1.0" encoding="utf-8"?>
<!DOCTYPE svg PUBLIC "-//W3C//DTD SVG 1.1//EN" "http://www.w3.org/Graphics/SVG/1.1/DTD/svg11.dtd">
<svg version="1.1" xmlns="http://www.w3.org/2000/svg" xmlns:xlink="http://www.w3.org/1999/xlink" width="32" height="32" viewBox="0 0 32 32">

	<path d="M16 27.333c-6.251 0-11.333-5.083-11.333-11.333s5.083-11.333 11.329-11.333c6.253 0 11.337 5.083 11.337 11.333s-5.083 11.333-11.333 11.333zM16 7.333c-4.781 0-8.667 3.888-8.667 8.667s3.888 8.667 8.667 8.667 8.667-3.888 8.667-8.667-3.888-8.667-8.667-8.667z"></path>
	<path d="M16.004 11.333c2.572 0 4.663 2.093 4.663 4.667 0 0.275-0.027 0.549-0.076 0.82l-5.409-5.412c0.271-0.048 0.544-0.075 0.819-0.075zM16.004 10c-1.176 0-2.261 0.349-3.187 0.929l8.251 8.251c0.584-0.923 0.932-2.011 0.932-3.183 0-3.307-2.685-5.997-5.996-5.997z"></path>
	<path d="M11.409 15.179l5.412 5.413c-0.272 0.048-0.545 0.075-0.821 0.075-2.573 0-4.667-2.093-4.667-4.669 0-0.275 0.027-0.549 0.076-0.819zM10.932 12.815c-0.58 0.925-0.932 2.011-0.932 3.183 0 3.315 2.688 6.003 6 6.003 1.172 0 2.257-0.352 3.183-0.932l-8.251-8.253z"></path>
</svg>
