<?xml version="1.0" encoding="utf-8"?>
<!DOCTYPE svg PUBLIC "-//W3C//DTD SVG 1.1//EN" "http://www.w3.org/Graphics/SVG/1.1/DTD/svg11.dtd">
<svg version="1.1" xmlns="http://www.w3.org/2000/svg" xmlns:xlink="http://www.w3.org/1999/xlink" width="32" height="32" viewBox="0 0 32 32">

	<path d="M16 5.333c-5.881 0-10.667 4.785-10.667 10.667s4.785 10.667 10.667 10.667 10.667-4.785 10.667-10.667-4.785-10.667-10.667-10.667zM9.333 16c0-1.109 0.299-2.139 0.779-3.060l8.948 8.948c-0.921 0.48-1.951 0.779-3.060 0.779-3.676 0-6.667-2.991-6.667-6.667zM21.888 19.060l-8.948-8.948c0.921-0.48 1.951-0.779 3.060-0.779 3.676 0 6.667 2.991 6.667 6.667 0 1.109-0.299 2.139-0.779 3.060z"></path>
</svg>
