<?xml version="1.0" encoding="utf-8"?>
<!DOCTYPE svg PUBLIC "-//W3C//DTD SVG 1.1//EN" "http://www.w3.org/Graphics/SVG/1.1/DTD/svg11.dtd">
<svg version="1.1" xmlns="http://www.w3.org/2000/svg" xmlns:xlink="http://www.w3.org/1999/xlink" width="32" height="32" viewBox="0 0 32 32">

	<path d="M24.303 10.145l0.743-0.745c0.528-0.528 0.809-1.257 0.776-2.005-0.035-0.748-0.381-1.445-0.956-1.924-2.839-2.367-6.281-3.797-9.959-4.129-0.080-0.004-0.159-0.008-0.24-0.008-0.663 0-1.305 0.248-1.8 0.697-0.552 0.505-0.867 1.22-0.867 1.969v2.972c-4.876 1.153-8.444 5.584-8.444 10.675 0 6.063 4.917 10.992 10.965 10.992 2.125 0 4.147-0.639 5.921-1.793 0.369 0.189 0.777 0.301 1.2 0.301 0.049 0 0.096-0.003 0.145-0.005 0.759-0.040 1.464-0.407 1.937-1 1.895-2.375 2.939-5.359 2.939-8.396 0.003-2.709-0.833-5.369-2.361-7.6zM14.521 25.972c-4.584 0-8.299-3.724-8.299-8.325 0-4.183 3.089-7.639 7.111-8.219v8.544l6.145 6.339c-1.383 1.039-3.096 1.661-4.957 1.661zM14.667 16.033v-12.033c3.215 0.291 6.143 1.564 8.488 3.521l-8.488 8.512zM14.952 17.725l6.692-6.704c1.472 1.847 2.359 4.188 2.359 6.724 0 2.552-0.885 4.888-2.359 6.735l-6.692-6.755z"></path>
</svg>
