<?xml version="1.0" encoding="utf-8"?>
<!DOCTYPE svg PUBLIC "-//W3C//DTD SVG 1.1//EN" "http://www.w3.org/Graphics/SVG/1.1/DTD/svg11.dtd">
<svg version="1.1" xmlns="http://www.w3.org/2000/svg" xmlns:xlink="http://www.w3.org/1999/xlink" width="32" height="32" viewBox="0 0 32 32">

	<path d="M15.485 18.64l6.544 6.563c0.52 0.521 1.32 0.48 1.715-0.141 1.173-1.859 1.857-4.059 1.857-6.42 0-2.841-0.988-5.448-2.629-7.508l-7.487 7.507z"></path>
	<path d="M12 19.195v-9.807c-4.521 0.649-8 4.54-8 9.252 0 5.168 4.179 9.36 9.333 9.36 2.096 0 4.024-0.701 5.581-1.871l-6.915-6.935z"></path>
	<path d="M21.775 8.284c0.52-0.521 0.487-1.332-0.119-1.751-1.671-1.157-3.593-1.972-5.668-2.353-0.725-0.133-1.321 0.416-1.321 1.153v10.080l7.108-7.129z"></path>
</svg>
