<?xml version="1.0" encoding="utf-8"?>
<!DOCTYPE svg PUBLIC "-//W3C//DTD SVG 1.1//EN" "http://www.w3.org/Graphics/SVG/1.1/DTD/svg11.dtd">
<svg version="1.1" xmlns="http://www.w3.org/2000/svg" xmlns:xlink="http://www.w3.org/1999/xlink" width="32" height="32" viewBox="0 0 32 32">

	<path d="M26.667 8c0-0.783-0.343-1.556-1-2.083-1.151-0.92-2.828-0.735-3.749 0.416l-3.719 4.648-3.265-2.448c-1.152-0.864-2.783-0.657-3.683 0.468l-5.333 6.667c-0.392 0.491-0.584 1.081-0.584 1.665v4h21.333v-13.333z"></path>
	<path d="M26.667 25.333h-21.333c-0.736 0-1.333 0.596-1.333 1.333s0.597 1.333 1.333 1.333h21.333c0.736 0 1.333-0.596 1.333-1.333s-0.597-1.333-1.333-1.333z"></path>
</svg>
