<?xml version="1.0" encoding="utf-8"?>
<!DOCTYPE svg PUBLIC "-//W3C//DTD SVG 1.1//EN" "http://www.w3.org/Graphics/SVG/1.1/DTD/svg11.dtd">
<svg version="1.1" xmlns="http://www.w3.org/2000/svg" xmlns:xlink="http://www.w3.org/1999/xlink" width="32" height="32" viewBox="0 0 32 32">

	<path d="M6.333 20.748c0.492 0.392 1.081 0.585 1.664 0.585 0.784 0 1.557-0.344 2.084-1.003l3.719-4.648 3.267 2.451c1.152 0.864 2.784 0.656 3.683-0.469l5.333-6.667c0.92-1.148 0.733-2.828-0.416-3.748-1.151-0.919-2.828-0.735-3.749 0.416l-3.719 4.648-3.265-2.447c-1.152-0.864-2.783-0.659-3.683 0.467l-5.333 6.667c-0.92 1.151-0.732 2.828 0.416 3.748z"></path>
	<path d="M6.667 28h18.667c0.737 0 1.333-0.596 1.333-1.333s-0.596-1.333-1.333-1.333h-18.667c-0.737 0-1.333 0.596-1.333 1.333s0.596 1.333 1.333 1.333z"></path>
</svg>
