<?xml version="1.0" encoding="utf-8"?>
<!DOCTYPE svg PUBLIC "-//W3C//DTD SVG 1.1//EN" "http://www.w3.org/Graphics/SVG/1.1/DTD/svg11.dtd">
<svg version="1.1" xmlns="http://www.w3.org/2000/svg" xmlns:xlink="http://www.w3.org/1999/xlink" width="32" height="32" viewBox="0 0 32 32">

	<path d="M7.999 22.667c-0.903 0-1.789-0.312-2.497-0.877-0.835-0.668-1.359-1.62-1.476-2.681-0.119-1.061 0.184-2.107 0.852-2.941l5.333-6.667c1.304-1.633 3.844-1.961 5.524-0.697l2.232 1.672 2.912-3.639c0.761-0.955 1.9-1.503 3.123-1.503 0.905 0 1.791 0.309 2.497 0.876 0.835 0.668 1.361 1.621 1.477 2.684s-0.187 2.107-0.855 2.939l-5.333 6.667c-1.303 1.635-3.843 1.961-5.524 0.701l-2.232-1.675-2.912 3.639c-0.76 0.955-1.899 1.503-3.121 1.503zM13.333 10.667c-0.408 0-0.788 0.183-1.041 0.499l-5.333 6.668c-0.223 0.277-0.324 0.628-0.284 0.979 0.040 0.355 0.215 0.672 0.492 0.893 0.304 0.244 0.62 0.295 0.832 0.295 0.408 0 0.788-0.183 1.043-0.501l4.527-5.659 4.299 3.227c0.56 0.421 1.408 0.308 1.841-0.235l5.333-6.668c0.223-0.277 0.323-0.625 0.284-0.979-0.040-0.355-0.215-0.672-0.492-0.893-0.303-0.243-0.619-0.293-0.832-0.293-0.408 0-0.788 0.183-1.043 0.501l-4.527 5.656-4.299-3.223c-0.233-0.176-0.509-0.267-0.8-0.267z"></path>
	<path d="M25.333 28h-18.667c-0.736 0-1.333-0.596-1.333-1.333s0.597-1.333 1.333-1.333h18.667c0.736 0 1.333 0.596 1.333 1.333s-0.597 1.333-1.333 1.333z"></path>
</svg>
