<?xml version="1.0" encoding="utf-8"?>
<!DOCTYPE svg PUBLIC "-//W3C//DTD SVG 1.1//EN" "http://www.w3.org/Graphics/SVG/1.1/DTD/svg11.dtd">
<svg version="1.1" xmlns="http://www.w3.org/2000/svg" xmlns:xlink="http://www.w3.org/1999/xlink" width="32" height="32" viewBox="0 0 32 32">

	<path d="M22.667 6.667c-1.028 0-1.957 0.401-2.667 1.039v-2.372c0-2.205-1.795-4-4-4s-4 1.795-4 4v6.372c-0.709-0.637-1.639-1.039-2.667-1.039-2.205 0-4 1.795-4 4v8h21.333v-12c0-2.205-1.795-4-4-4zM16 4c0.735 0 1.333 0.597 1.333 1.333v14.667h-2.667v-14.667c0-0.736 0.599-1.333 1.333-1.333zM10.667 20h-2.667v-5.333c0-0.736 0.599-1.333 1.333-1.333s1.333 0.597 1.333 1.333v5.333zM24 20h-2.667v-9.333c0-0.736 0.599-1.333 1.333-1.333s1.333 0.597 1.333 1.333v9.333z"></path>
	<path d="M25.333 28h-18.667c-0.736 0-1.333-0.596-1.333-1.333s0.597-1.333 1.333-1.333h18.667c0.736 0 1.333 0.596 1.333 1.333s-0.597 1.333-1.333 1.333z"></path>
</svg>
