<?xml version="1.0" encoding="utf-8"?>
<!DOCTYPE svg PUBLIC "-//W3C//DTD SVG 1.1//EN" "http://www.w3.org/Graphics/SVG/1.1/DTD/svg11.dtd">
<svg version="1.1" xmlns="http://www.w3.org/2000/svg" xmlns:xlink="http://www.w3.org/1999/xlink" width="32" height="32" viewBox="0 0 32 32">

	<path d="M18.667 5.333c0-1.473-1.195-2.667-2.667-2.667s-2.667 1.193-2.667 2.667v16h5.333v-16z"></path>
	<path d="M25.333 10.667c0-1.473-1.195-2.667-2.667-2.667s-2.667 1.193-2.667 2.667v10.667h5.333v-10.667z"></path>
	<path d="M12 14.667c0-1.473-1.195-2.667-2.667-2.667s-2.667 1.193-2.667 2.667v6.667h5.333v-6.667z"></path>
	<path d="M25.333 25.333h-18.667c-0.737 0-1.333 0.596-1.333 1.333s0.596 1.333 1.333 1.333h18.667c0.737 0 1.333-0.596 1.333-1.333s-0.596-1.333-1.333-1.333z"></path>
</svg>
