<?xml version="1.0" encoding="utf-8"?>
<!DOCTYPE svg PUBLIC "-//W3C//DTD SVG 1.1//EN" "http://www.w3.org/Graphics/SVG/1.1/DTD/svg11.dtd">
<svg version="1.1" xmlns="http://www.w3.org/2000/svg" xmlns:xlink="http://www.w3.org/1999/xlink" width="32" height="32" viewBox="0 0 32 32">

	<path d="M26.667 22.667h-21.333c-0.736 0-1.333-0.596-1.333-1.333v-4c0-0.907 0.312-1.795 0.877-2.499l5.333-6.667c1.307-1.635 3.847-1.959 5.524-0.699l2.232 1.672 2.913-3.639c0.76-0.956 1.899-1.503 3.121-1.503 0.905 0 1.791 0.309 2.497 0.876 0.955 0.763 1.501 1.901 1.501 3.124v13.333c0 0.737-0.597 1.333-1.333 1.333zM6.667 20h18.667v-12c0-0.409-0.183-0.787-0.5-1.039-0.303-0.244-0.62-0.295-0.832-0.295-0.408 0-0.788 0.183-1.043 0.501l-3.719 4.647c-0.449 0.564-1.265 0.667-1.841 0.235l-3.265-2.449c-0.563-0.421-1.407-0.311-1.841 0.235l-5.333 6.667c-0.241 0.304-0.292 0.619-0.292 0.832v2.667z"></path>
	<path d="M26.667 28h-21.333c-0.736 0-1.333-0.596-1.333-1.333s0.597-1.333 1.333-1.333h21.333c0.736 0 1.333 0.596 1.333 1.333s-0.597 1.333-1.333 1.333z"></path>
</svg>
