<?xml version="1.0" encoding="utf-8"?>
<!DOCTYPE svg PUBLIC "-//W3C//DTD SVG 1.1//EN" "http://www.w3.org/Graphics/SVG/1.1/DTD/svg11.dtd">
<svg version="1.1" xmlns="http://www.w3.org/2000/svg" xmlns:xlink="http://www.w3.org/1999/xlink" width="32" height="32" viewBox="0 0 32 32">

	<path d="M13.333 26.667c-1.069 0-2.073-0.416-2.829-1.172-0.755-0.755-1.171-1.76-1.171-2.828s0.416-2.073 1.172-2.829l3.837-3.837-3.837-3.839c-0.756-0.755-1.172-1.76-1.172-2.828s0.416-2.073 1.172-2.829c1.511-1.509 4.145-1.511 5.657 0.001l9.495 9.495-9.496 9.495c-0.755 0.756-1.759 1.172-2.828 1.172zM13.333 8c-0.357 0-0.691 0.139-0.943 0.389-0.252 0.253-0.391 0.588-0.391 0.944s0.139 0.691 0.391 0.943l5.723 5.724-5.723 5.724c-0.252 0.252-0.391 0.585-0.391 0.943s0.139 0.691 0.391 0.943c0.504 0.505 1.383 0.504 1.885 0.001l7.611-7.611-7.611-7.609c-0.252-0.252-0.585-0.391-0.943-0.391z"></path>
</svg>
