<?xml version="1.0" encoding="utf-8"?>
<!DOCTYPE svg PUBLIC "-//W3C//DTD SVG 1.1//EN" "http://www.w3.org/Graphics/SVG/1.1/DTD/svg11.dtd">
<svg version="1.1" xmlns="http://www.w3.org/2000/svg" xmlns:xlink="http://www.w3.org/1999/xlink" width="32" height="32" viewBox="0 0 32 32">

	<path d="M22.667 4h-13.333c-2.205 0-4 1.795-4 4v16c0 2.205 1.795 4 4 4h13.333c2.205 0 4-1.795 4-4v-16c0-2.205-1.795-4-4-4zM12 6.667h8v1.333c0 0.735-0.599 1.333-1.333 1.333h-5.333c-0.735 0-1.333-0.599-1.333-1.333v-1.333zM24 24c0 0.735-0.599 1.333-1.333 1.333h-13.333c-0.735 0-1.333-0.599-1.333-1.333v-16c0-0.735 0.599-1.333 1.333-1.333h1.333c0 0.349 0 0.801 0 1.333 0 1.467 1.2 2.667 2.667 2.667h5.333c1.467 0 2.667-1.2 2.667-2.667 0-0.532 0-0.984 0-1.333h1.333c0.735 0 1.333 0.599 1.333 1.333v16z"></path>
	<path d="M21.333 22.667h-10.667c-0.368 0-0.667-0.299-0.667-0.667s0.299-0.667 0.667-0.667h10.667c0.368 0 0.667 0.299 0.667 0.667s-0.299 0.667-0.667 0.667z"></path>
	<path d="M21.333 18.667h-10.667c-0.368 0-0.667-0.299-0.667-0.667s0.299-0.667 0.667-0.667h10.667c0.368 0 0.667 0.299 0.667 0.667s-0.299 0.667-0.667 0.667z"></path>
	<path d="M21.333 14.667h-10.667c-0.368 0-0.667-0.299-0.667-0.667s0.299-0.667 0.667-0.667h10.667c0.368 0 0.667 0.299 0.667 0.667s-0.299 0.667-0.667 0.667z"></path>
</svg>
