<?xml version="1.0" encoding="utf-8"?>
<!DOCTYPE svg PUBLIC "-//W3C//DTD SVG 1.1//EN" "http://www.w3.org/Graphics/SVG/1.1/DTD/svg11.dtd">
<svg version="1.1" xmlns="http://www.w3.org/2000/svg" xmlns:xlink="http://www.w3.org/1999/xlink" width="32" height="32" viewBox="0 0 32 32">

	<path d="M22.667 12c-0.153 0-0.308 0.007-0.468 0.020-1.1-3.169-4.083-5.353-7.532-5.353-4.412 0-8 3.588-8 8 0 0.056 0 0.112 0.001 0.168-2.299 0.593-4.001 2.684-4.001 5.165 0 2.941 2.392 5.333 5.333 5.333h6.667v-6.115l-1.724 1.724c-0.26 0.26-0.601 0.391-0.943 0.391s-0.683-0.131-0.943-0.391c-0.521-0.521-0.521-1.364 0-1.885l3.999-3.999c0.124-0.124 0.271-0.221 0.435-0.289 0.325-0.135 0.693-0.135 1.019 0 0.164 0.068 0.311 0.165 0.435 0.289l3.999 3.999c0.521 0.521 0.521 1.364 0 1.885-0.26 0.26-0.601 0.391-0.943 0.391s-0.683-0.131-0.943-0.391l-1.724-1.724v6.115h5.333c3.676 0 6.667-2.991 6.667-6.667s-2.991-6.667-6.667-6.667z"></path>
</svg>
