<?xml version="1.0" encoding="utf-8"?>
<!DOCTYPE svg PUBLIC "-//W3C//DTD SVG 1.1//EN" "http://www.w3.org/Graphics/SVG/1.1/DTD/svg11.dtd">
<svg version="1.1" xmlns="http://www.w3.org/2000/svg" xmlns:xlink="http://www.w3.org/1999/xlink" width="32" height="32" viewBox="0 0 32 32">

	<path d="M10.895 24c-0.683 0-1.364-0.26-1.885-0.781l-5.885-5.885 5.885-5.885c1.041-1.041 2.732-1.041 3.771 0 1.041 1.041 1.041 2.729 0 3.771l-2.113 2.115 2.113 2.115c1.041 1.041 1.041 2.729 0 3.771-0.52 0.521-1.203 0.781-1.885 0.781z"></path>
	<path d="M21.105 24c-0.683 0-1.365-0.26-1.885-0.781-1.041-1.041-1.041-2.729 0-3.771l2.113-2.115-2.113-2.115c-1.041-1.041-1.041-2.729 0-3.771 1.039-1.041 2.729-1.041 3.771 0l5.885 5.885-5.885 5.885c-0.52 0.521-1.203 0.781-1.885 0.781z"></path>
</svg>
