<?xml version="1.0" encoding="utf-8"?>
<!DOCTYPE svg PUBLIC "-//W3C//DTD SVG 1.1//EN" "http://www.w3.org/Graphics/SVG/1.1/DTD/svg11.dtd">
<svg version="1.1" xmlns="http://www.w3.org/2000/svg" xmlns:xlink="http://www.w3.org/1999/xlink" width="32" height="32" viewBox="0 0 32 32">

	<path d="M10.437 25.333c-1.068 0-2.073-0.416-2.828-1.172l-6.828-6.828 6.828-6.828c1.511-1.512 4.149-1.512 5.657 0.001 1.559 1.557 1.559 4.096-0.001 5.655l-1.171 1.172 1.171 1.172c1.56 1.559 1.56 4.097 0 5.656-0.752 0.756-1.757 1.172-2.828 1.172zM4.552 17.333l4.943 4.943c0.507 0.505 1.385 0.503 1.884 0.001 0.521-0.521 0.521-1.367 0.001-1.887l-3.056-3.057 3.056-3.057c0.52-0.52 0.52-1.365 0-1.885-0.504-0.505-1.381-0.503-1.885 0l-4.943 4.943z"></path>
	<path d="M21.563 25.333c-1.071 0-2.076-0.416-2.829-1.173-1.559-1.557-1.559-4.096 0.001-5.655l1.171-1.172-1.171-1.172c-1.56-1.559-1.56-4.097 0-5.656 1.505-1.511 4.145-1.512 5.656 0l6.828 6.828-6.828 6.828c-0.755 0.756-1.76 1.172-2.828 1.172zM21.561 12c-0.356 0-0.691 0.139-0.94 0.389-0.521 0.521-0.521 1.367-0.001 1.887l3.056 3.057-3.056 3.057c-0.52 0.52-0.52 1.365 0 1.885 0.503 0.504 1.38 0.505 1.885 0l4.943-4.943-4.943-4.943c-0.253-0.252-0.588-0.391-0.944-0.391z"></path>
</svg>
