<?xml version="1.0" encoding="utf-8"?>
<!DOCTYPE svg PUBLIC "-//W3C//DTD SVG 1.1//EN" "http://www.w3.org/Graphics/SVG/1.1/DTD/svg11.dtd">
<svg version="1.1" xmlns="http://www.w3.org/2000/svg" xmlns:xlink="http://www.w3.org/1999/xlink" width="32" height="32" viewBox="0 0 32 32">

	<path d="M22.667 25.333h-16c-0.737 0-1.333-0.596-1.333-1.333s0.596-1.333 1.333-1.333h16c0.737 0 1.333 0.596 1.333 1.333s-0.596 1.333-1.333 1.333z"></path>
	<path d="M23.333 6.667h-16.667v12c0 1.467 1.2 2.667 2.667 2.667h10.667c1.467 0 2.667-1.2 2.667-2.667v-2.667h0.667c2.573 0 4.667-2.093 4.667-4.667s-2.093-4.667-4.667-4.667zM20 18.667h-10.667v-9.333h10.667v9.333zM23.333 13.333h-2v-4h2c1.103 0 2 0.897 2 2s-0.897 2-2 2z"></path>
</svg>
