<?xml version="1.0" encoding="utf-8"?>
<!DOCTYPE svg PUBLIC "-//W3C//DTD SVG 1.1//EN" "http://www.w3.org/Graphics/SVG/1.1/DTD/svg11.dtd">
<svg version="1.1" xmlns="http://www.w3.org/2000/svg" xmlns:xlink="http://www.w3.org/1999/xlink" width="32" height="32" viewBox="0 0 32 32">

	<path d="M17.333 6.667l1.14 4.56 4.519-1.295 2.001 3.467-3.38 3.265 3.38 3.268-2 3.467-4.52-1.295-1.14 4.563h-4l-1.14-4.563-4.52 1.295-2.001-3.467 3.38-3.268-3.379-3.265 2-3.467 4.52 1.295 1.14-4.56h4zM17.333 4h-4c-1.224 0-2.291 0.833-2.585 2.021l-0.472 1.883-1.867-0.533c-0.245-0.071-0.492-0.104-0.736-0.104-0.933 0-1.824 0.493-2.308 1.333l-2 3.467c-0.612 1.061-0.423 2.403 0.456 3.251l1.396 1.348-1.397 1.353c-0.88 0.849-1.069 2.191-0.457 3.251l2.003 3.467c0.484 0.841 1.375 1.333 2.308 1.333 0.244 0 0.491-0.033 0.736-0.101l1.865-0.535 0.472 1.887c0.296 1.18 1.363 2.013 2.587 2.013h4c1.224 0 2.291-0.833 2.585-2.021l0.472-1.885 1.865 0.533c0.245 0.071 0.492 0.103 0.736 0.103 0.933 0 1.824-0.493 2.308-1.333l2-3.467c0.612-1.061 0.423-2.4-0.456-3.251l-1.396-1.351 1.396-1.351c0.88-0.849 1.068-2.192 0.456-3.251l-2-3.467c-0.487-0.841-1.375-1.333-2.309-1.333-0.245 0-0.491 0.033-0.735 0.101l-1.867 0.535-0.472-1.884c-0.293-1.179-1.36-2.012-2.584-2.012z"></path>
	<path d="M15.333 14c1.472 0 2.667 1.193 2.667 2.667 0 1.472-1.195 2.667-2.667 2.667s-2.667-1.195-2.667-2.667c0-1.473 1.195-2.667 2.667-2.667zM15.333 12.667c-2.205 0-4 1.795-4 4s1.795 4 4 4 4-1.795 4-4-1.795-4-4-4z"></path>
</svg>
