<?xml version="1.0" encoding="utf-8"?>
<!DOCTYPE svg PUBLIC "-//W3C//DTD SVG 1.1//EN" "http://www.w3.org/Graphics/SVG/1.1/DTD/svg11.dtd">
<svg version="1.1" xmlns="http://www.w3.org/2000/svg" xmlns:xlink="http://www.w3.org/1999/xlink" width="32" height="32" viewBox="0 0 32 32">

	<path d="M12.516 23.397l0.495 1.976c0.177 0.711 0.923 1.293 1.656 1.293h1.333c0.733 0 1.479-0.583 1.656-1.293l0.495-1.976c0.177-0.711 0.9-1.128 1.604-0.925l1.956 0.56c0.705 0.201 1.584-0.152 1.949-0.788l0.667-1.156c0.365-0.636 0.236-1.572-0.292-2.083l-1.464-1.415c-0.528-0.511-0.528-1.344 0.001-1.853l1.461-1.415c0.528-0.509 0.659-1.445 0.293-2.081l-0.668-1.156c-0.367-0.636-1.244-0.989-1.948-0.788l-1.956 0.56c-0.705 0.201-1.427-0.215-1.605-0.925l-0.493-1.973c-0.177-0.709-0.923-1.292-1.656-1.292h-1.333c-0.733 0-1.479 0.583-1.656 1.293l-0.493 1.973c-0.179 0.711-0.9 1.128-1.605 0.927l-1.956-0.56c-0.705-0.203-1.584 0.152-1.949 0.787l-0.667 1.156c-0.365 0.636-0.236 1.572 0.293 2.083l1.461 1.412c0.527 0.511 0.527 1.344 0 1.855l-1.464 1.415c-0.527 0.511-0.659 1.447-0.292 2.083l0.668 1.156c0.365 0.636 1.244 0.989 1.949 0.788l1.956-0.56c0.704-0.204 1.427 0.213 1.604 0.924zM15.333 14c1.472 0 2.667 1.193 2.667 2.667 0 1.472-1.195 2.667-2.667 2.667s-2.667-1.195-2.667-2.667c0-1.473 1.195-2.667 2.667-2.667z"></path>
</svg>
