<?xml version="1.0" encoding="utf-8"?>
<!DOCTYPE svg PUBLIC "-//W3C//DTD SVG 1.1//EN" "http://www.w3.org/Graphics/SVG/1.1/DTD/svg11.dtd">
<svg version="1.1" xmlns="http://www.w3.org/2000/svg" xmlns:xlink="http://www.w3.org/1999/xlink" width="32" height="32" viewBox="0 0 32 32">

	<path d="M16 6.667c5.145 0.001 9.333 4.189 9.333 9.335 0 5.144-4.188 9.331-9.333 9.332-5.145 0-9.333-4.187-9.333-9.332s4.188-9.333 9.333-9.335zM16 4c-6.628 0.001-12 5.373-12 12.001 0 6.627 5.372 11.999 12 11.999 6.627-0.001 12-5.373 12-11.999 0-6.628-5.372-12-12-12.001z"></path>
	<path d="M21.576 10.425c-0.172-0.171-0.42-0.237-0.655-0.169l-7.935 2.275c-0.221 0.064-0.393 0.236-0.456 0.457l-2.276 7.935c-0.068 0.233-0.003 0.484 0.169 0.655 0.127 0.127 0.297 0.195 0.472 0.195 0.060 0 0.123-0.008 0.184-0.027l7.933-2.277c0.22-0.063 0.393-0.236 0.456-0.457l2.276-7.932c0.067-0.231 0.003-0.481-0.169-0.653zM11.867 20.135l1.844-6.423 4.579 4.58-6.423 1.843z"></path>
</svg>
