<?xml version="1.0" encoding="utf-8"?>
<!DOCTYPE svg PUBLIC "-//W3C//DTD SVG 1.1//EN" "http://www.w3.org/Graphics/SVG/1.1/DTD/svg11.dtd">
<svg version="1.1" xmlns="http://www.w3.org/2000/svg" xmlns:xlink="http://www.w3.org/1999/xlink" width="32" height="32" viewBox="0 0 32 32">

	<path d="M25.333 4h-14.667c-2.205 0-4 1.795-4 4v1.333h-1.333c-0.737 0-1.333 0.597-1.333 1.333s0.596 1.333 1.333 1.333h1.333v2.667h-1.333c-0.737 0-1.333 0.597-1.333 1.333s0.596 1.333 1.333 1.333h1.333v2.667h-1.333c-0.737 0-1.333 0.597-1.333 1.333s0.596 1.333 1.333 1.333h1.333v1.333c0 2.205 1.795 4 4 4h14.667c2.205 0 4-1.795 4-4v-16c0-2.205-1.795-4-4-4zM9.333 8c0-0.735 0.599-1.333 1.333-1.333v2.667h-1.333v-1.333zM9.333 12h1.333v2.667h-1.333v-2.667zM9.333 17.333h1.333v2.667h-1.333v-2.667zM9.333 24v-1.333h1.333v2.667c-0.735 0-1.333-0.599-1.333-1.333zM26.667 24c0 0.735-0.599 1.333-1.333 1.333h-13.333v-18.667h13.333c0.735 0 1.333 0.599 1.333 1.333v16z"></path>
	<path d="M21.333 14c0 1.473-1.194 2.667-2.667 2.667s-2.667-1.194-2.667-2.667c0-1.473 1.194-2.667 2.667-2.667s2.667 1.194 2.667 2.667z"></path>
	<path d="M18.667 17.808c-2.083 0-3.333 0.953-3.333 1.905 0 0.476 1.251 0.953 3.333 0.953 1.955 0 3.333-0.476 3.333-0.953 0-0.952-1.307-1.905-3.333-1.905z"></path>
</svg>
