<?xml version="1.0" encoding="utf-8"?>
<!DOCTYPE svg PUBLIC "-//W3C//DTD SVG 1.1//EN" "http://www.w3.org/Graphics/SVG/1.1/DTD/svg11.dtd">
<svg version="1.1" xmlns="http://www.w3.org/2000/svg" xmlns:xlink="http://www.w3.org/1999/xlink" width="32" height="32" viewBox="0 0 32 32">

	<path d="M22.667 9.333h-14.667c-2.205 0-4 1.795-4 4v9.333c0 2.205 1.795 4 4 4h14.667c2.205 0 4-1.795 4-4v-9.333c0-2.205-1.795-4-4-4zM24 22.667c0 0.736-0.597 1.333-1.333 1.333h-14.667c-0.736 0-1.333-0.597-1.333-1.333v-5.333h17.333v5.333zM24 14.667h-17.333v-1.333c0-0.736 0.597-1.333 1.333-1.333h14.667c0.736 0 1.333 0.597 1.333 1.333v1.333z"></path>
	<path d="M18.667 21.333h2.667c0.368 0 0.667-0.299 0.667-0.667s-0.299-0.667-0.667-0.667h-2.667c-0.368 0-0.667 0.299-0.667 0.667s0.299 0.667 0.667 0.667z"></path>
</svg>
