<?xml version="1.0" encoding="utf-8"?>
<!DOCTYPE svg PUBLIC "-//W3C//DTD SVG 1.1//EN" "http://www.w3.org/Graphics/SVG/1.1/DTD/svg11.dtd">
<svg version="1.1" xmlns="http://www.w3.org/2000/svg" xmlns:xlink="http://www.w3.org/1999/xlink" width="32" height="32" viewBox="0 0 32 32">

	<path d="M22 11.999c-0.153 0-0.307 0.007-0.469 0.020-1.099-3.167-4.416-5.353-7.864-5.353-4.412 0-8.333 3.587-8.333 8 0 0.056 0 0.112 0 0.168-1.333 0.593-3.667 2.685-3.667 5.167 0 2.941 2.725 5.333 5.667 5.333h14.667c3.676 0 6.667-2.992 6.667-6.667s-2.991-6.668-6.667-6.668zM22 22.667h-6v-5.059l2.861 2.861c0.131 0.132 0.301 0.195 0.472 0.195s0.341-0.065 0.472-0.195c0.26-0.259 0.26-0.683 0-0.943l-3.997-4c-0.063-0.060-0.139-0.109-0.219-0.143-0.164-0.068-0.347-0.068-0.511 0-0.081 0.033-0.153 0.083-0.216 0.143l-4 4c-0.259 0.26-0.259 0.684 0 0.943 0.132 0.132 0.303 0.195 0.472 0.195s0.341-0.065 0.472-0.195l2.86-2.861v5.059h-7.333c-1.472 0-2.667-1.195-2.667-2.667s1.195-2.667 2.544-2.673l1.896 0.020-0.331-1.601c-0.073-0.352-0.109-0.715-0.109-1.079 0-2.941 2.392-5.333 5.333-5.333 2.601 0 4.805 1.869 5.24 4.445l0.249 1.469 1.431-0.408c0.416-0.119 0.759-0.173 1.083-0.173 2.204 0 4 1.795 4 4s-1.797 4-4.003 4z"></path>
</svg>
