<?xml version="1.0" encoding="utf-8"?>
<!DOCTYPE svg PUBLIC "-//W3C//DTD SVG 1.1//EN" "http://www.w3.org/Graphics/SVG/1.1/DTD/svg11.dtd">
<svg version="1.1" xmlns="http://www.w3.org/2000/svg" xmlns:xlink="http://www.w3.org/1999/xlink" width="32" height="32" viewBox="0 0 32 32">

	<path d="M16 4c-6.617 0-12 5.384-12 12s5.383 12 12 12 12-5.384 12-12-5.383-12-12-12zM16 25.333c-5.145 0-9.333-4.187-9.333-9.333s4.188-9.333 9.333-9.333 9.333 4.187 9.333 9.333-4.188 9.333-9.333 9.333z"></path>
	<path d="M16.943 16l3.528-3.528c0.259-0.259 0.259-0.683 0-0.943-0.26-0.259-0.684-0.259-0.943 0l-3.528 3.528-3.528-3.529c-0.26-0.259-0.684-0.259-0.943 0-0.26 0.26-0.26 0.684 0 0.943l3.528 3.529-3.528 3.528c-0.26 0.26-0.26 0.684 0 0.943 0.129 0.131 0.3 0.196 0.471 0.196s0.341-0.065 0.472-0.195l3.528-3.529 3.528 3.528c0.131 0.131 0.301 0.196 0.472 0.196s0.341-0.065 0.472-0.195c0.259-0.259 0.259-0.683 0-0.943l-3.529-3.529z"></path>
</svg>
