<?xml version="1.0" encoding="utf-8"?>
<!DOCTYPE svg PUBLIC "-//W3C//DTD SVG 1.1//EN" "http://www.w3.org/Graphics/SVG/1.1/DTD/svg11.dtd">
<svg version="1.1" xmlns="http://www.w3.org/2000/svg" xmlns:xlink="http://www.w3.org/1999/xlink" width="32" height="32" viewBox="0 0 32 32">

	<path d="M28 1.333h-24c-2.205 0-4 1.795-4 4v14.667c0 2.205 1.795 4 4 4h8v2.667h-4c-0.736 0-1.333 0.597-1.333 1.333s0.597 1.333 1.333 1.333h16c0.736 0 1.333-0.597 1.333-1.333s-0.597-1.333-1.333-1.333h-4v-2.667h8c2.205 0 4-1.795 4-4v-14.667c0-2.205-1.795-4-4-4zM18.667 26.667h-5.333v-2.667h5.333v2.667zM29.333 20c0 0.735-0.599 1.333-1.333 1.333h-24c-0.735 0-1.333-0.599-1.333-1.333v-14.667c0-0.735 0.599-1.333 1.333-1.333h24c0.735 0 1.333 0.599 1.333 1.333v14.667z"></path>
	<path d="M26.667 5.333h-21.333c-0.733 0-1.333 0.6-1.333 1.333v10.667c0 0.733 0.6 1.333 1.333 1.333h21.333c0.733 0 1.333-0.6 1.333-1.333v-10.667c0-0.733-0.6-1.333-1.333-1.333zM26.667 17.333h-21.333v-10.667h21.333v10.667z"></path>
</svg>
