<?xml version="1.0" encoding="utf-8"?>
<!DOCTYPE svg PUBLIC "-//W3C//DTD SVG 1.1//EN" "http://www.w3.org/Graphics/SVG/1.1/DTD/svg11.dtd">
<svg version="1.1" xmlns="http://www.w3.org/2000/svg" xmlns:xlink="http://www.w3.org/1999/xlink" width="32" height="32" viewBox="0 0 32 32">

	<path d="M29.319 21.399c0.012-0.42 0.015-0.876 0.015-1.399v-12c0-2.205-1.795-4-4-4h-18.667c-2.205 0-4 1.795-4 4v12c0 0.513 0.003 0.973 0.016 1.399-1.527 0.304-2.683 1.653-2.683 3.268 0 1.837 1.496 3.333 3.333 3.333h25.333c1.837 0 3.333-1.496 3.333-3.333 0-1.615-1.155-2.963-2.681-3.268zM5.333 8c0-0.735 0.599-1.333 1.333-1.333h18.667c0.735 0 1.333 0.599 1.333 1.333v12c0 0.517-0.007 0.968-0.019 1.333h-1.315v-12c0-0.733-0.6-1.333-1.333-1.333h-16c-0.733 0-1.333 0.6-1.333 1.333v12h-1.307c-0.016-0.352-0.027-0.799-0.027-1.333v-12zM24 21.333h-16v-12h16v12zM28.667 25.333h-25.333c-0.361 0-0.667-0.305-0.667-0.667s0.305-0.667 0.667-0.667h25.333c0.361 0 0.667 0.305 0.667 0.667s-0.305 0.667-0.667 0.667z"></path>
</svg>
