<?xml version="1.0" encoding="utf-8"?>
<!DOCTYPE svg PUBLIC "-//W3C//DTD SVG 1.1//EN" "http://www.w3.org/Graphics/SVG/1.1/DTD/svg11.dtd">
<svg version="1.1" xmlns="http://www.w3.org/2000/svg" xmlns:xlink="http://www.w3.org/1999/xlink" width="32" height="32" viewBox="0 0 32 32">

	<path d="M20 4h-9.333c-2.205 0-4 1.795-4 4v16c0 2.205 1.795 4 4 4h9.333c2.205 0 4-1.795 4-4v-16c0-2.205-1.795-4-4-4zM21.333 24c0 0.735-0.599 1.333-1.333 1.333h-9.333c-0.735 0-1.333-0.599-1.333-1.333v-16c0-0.735 0.599-1.333 1.333-1.333h9.333c0.735 0 1.333 0.599 1.333 1.333v16z"></path>
	<path d="M18.667 8h-6.667c-0.733 0-1.333 0.6-1.333 1.333v12c0 0.733 0.6 1.333 1.333 1.333h2c0 0.737 0.597 1.333 1.333 1.333s1.333-0.596 1.333-1.333h2c0.733 0 1.333-0.6 1.333-1.333v-12c0-0.733-0.6-1.333-1.333-1.333zM18.667 21.333h-6.667v-12h6.667v12z"></path>
</svg>
