<?xml version="1.0" encoding="utf-8"?>
<!DOCTYPE svg PUBLIC "-//W3C//DTD SVG 1.1//EN" "http://www.w3.org/Graphics/SVG/1.1/DTD/svg11.dtd">
<svg version="1.1" xmlns="http://www.w3.org/2000/svg" xmlns:xlink="http://www.w3.org/1999/xlink" width="32" height="32" viewBox="0 0 32 32">

	<path d="M22.667 5.333h-12c-0.733 0-1.333 0.6-1.333 1.333v16c0 0.733 0.6 1.333 1.333 1.333h4.667c0 0.737 0.597 1.333 1.333 1.333s1.333-0.596 1.333-1.333h4.667c0.733 0 1.333-0.6 1.333-1.333v-16c0-0.733-0.6-1.333-1.333-1.333zM22.667 22.667h-12v-16h12v16z"></path>
	<path d="M24 1.333h-14.667c-2.205 0-4 1.795-4 4v20c0 2.205 1.795 4 4 4h14.667c2.205 0 4-1.795 4-4v-20c0-2.205-1.795-4-4-4zM25.333 25.333c0 0.735-0.599 1.333-1.333 1.333h-14.667c-0.735 0-1.333-0.599-1.333-1.333v-20c0-0.735 0.599-1.333 1.333-1.333h14.667c0.735 0 1.333 0.599 1.333 1.333v20z"></path>
</svg>
