<?xml version="1.0" encoding="utf-8"?>
<!DOCTYPE svg PUBLIC "-//W3C//DTD SVG 1.1//EN" "http://www.w3.org/Graphics/SVG/1.1/DTD/svg11.dtd">
<svg version="1.1" xmlns="http://www.w3.org/2000/svg" xmlns:xlink="http://www.w3.org/1999/xlink" width="32" height="32" viewBox="0 0 32 32">

	<path d="M27.877 12.667l-3.672-3.476c-0.757-0.721-1.929-1.191-2.983-1.191h-3.889v-0.667c0-1.104-0.896-2-2-2s-2 0.896-2 2v0.667h-4.667c-2.573 0-4.667 2.093-4.667 4.667 0 1.861 1.104 3.461 2.688 4.209l-2.459 2.457 3.415 3.415c0.76 0.76 1.947 1.252 3.024 1.252h2.933l1.067 5.333h1.333l1.067-5.333h3.6c2.575 0 4.667-2.093 4.667-4.667 0-1.203-0.471-2.291-1.22-3.119 0.028-0.028 0.068-0.047 0.096-0.075l3.667-3.473zM20.667 21.333h-10c-0.367 0-0.877-0.211-1.139-0.472l-1.528-1.528 1.528-1.528c0.26-0.26 0.769-0.472 1.139-0.472h10c1.104 0 2 0.896 2 2s-0.896 2-2 2zM22.372 14.208c-0.265 0.253-0.781 0.459-1.149 0.459h-12.556c-1.104 0-2-0.896-2-2s0.896-2 2-2h12.556c0.368 0 0.884 0.205 1.149 0.459l1.628 1.541-1.628 1.541z"></path>
</svg>
