<?xml version="1.0" encoding="utf-8"?>
<!DOCTYPE svg PUBLIC "-//W3C//DTD SVG 1.1//EN" "http://www.w3.org/Graphics/SVG/1.1/DTD/svg11.dtd">
<svg version="1.1" xmlns="http://www.w3.org/2000/svg" xmlns:xlink="http://www.w3.org/1999/xlink" width="32" height="32" viewBox="0 0 32 32">

	<path d="M16 11.333c-2.205 0-4-1.795-4-4s1.795-4 4-4 4 1.795 4 4-1.795 4-4 4zM16 6c-0.736 0-1.333 0.599-1.333 1.333s0.597 1.333 1.333 1.333 1.333-0.599 1.333-1.333-0.597-1.333-1.333-1.333z"></path>
	<path d="M16 28.667c-2.205 0-4-1.795-4-4s1.795-4 4-4 4 1.795 4 4-1.795 4-4 4zM16 23.333c-0.736 0-1.333 0.599-1.333 1.333s0.597 1.333 1.333 1.333 1.333-0.599 1.333-1.333-0.597-1.333-1.333-1.333z"></path>
	<path d="M24 20h-16c-2.205 0-4-1.795-4-4s1.795-4 4-4h16c2.205 0 4 1.795 4 4s-1.795 4-4 4zM8 14.667c-0.736 0-1.333 0.599-1.333 1.333s0.597 1.333 1.333 1.333h16c0.736 0 1.333-0.599 1.333-1.333s-0.597-1.333-1.333-1.333h-16z"></path>
</svg>
