<?xml version="1.0" encoding="utf-8"?>
<!DOCTYPE svg PUBLIC "-//W3C//DTD SVG 1.1//EN" "http://www.w3.org/Graphics/SVG/1.1/DTD/svg11.dtd">
<svg version="1.1" xmlns="http://www.w3.org/2000/svg" xmlns:xlink="http://www.w3.org/1999/xlink" width="32" height="32" viewBox="0 0 32 32">

	<path d="M26.276 9.724l-5.333-5.333c-0.249-0.251-0.588-0.391-0.943-0.391h-10.667c-2.205 0-4 1.795-4 4v16c0 2.205 1.795 4 4 4h13.333c2.205 0 4-1.795 4-4v-13.333c0-0.355-0.14-0.693-0.391-0.943zM23.448 10.667h-1.448c-1.103 0-2-0.897-2-2v-1.448l3.448 3.448zM22.667 25.333h-13.333c-0.736 0-1.333-0.597-1.333-1.333v-16c0-0.736 0.597-1.333 1.333-1.333h9.333v2c0 1.839 1.495 3.333 3.333 3.333h2v12c0 0.736-0.597 1.333-1.333 1.333z"></path>
</svg>
