<?xml version="1.0" encoding="utf-8"?>
<!DOCTYPE svg PUBLIC "-//W3C//DTD SVG 1.1//EN" "http://www.w3.org/Graphics/SVG/1.1/DTD/svg11.dtd">
<svg version="1.1" xmlns="http://www.w3.org/2000/svg" xmlns:xlink="http://www.w3.org/1999/xlink" width="32" height="32" viewBox="0 0 32 32">

	<path d="M22.276 9.872c-0.252-0.251-0.597-0.377-0.943-0.377s-0.691 0.127-0.943 0.377l-3.057 3.057v-8.929c0-0.736-0.597-1.333-1.333-1.333s-1.333 0.597-1.333 1.333v8.929l-3.057-3.057c-0.252-0.251-0.587-0.391-0.943-0.391s-0.691 0.14-0.943 0.391c-0.52 0.52-0.52 1.365 0 1.885l6.276 6.243 6.279-6.245c0.517-0.516 0.517-1.363-0.003-1.883z"></path>
	<path d="M27.983 21.333c0-0.14-0.005-0.281-0.052-0.421l-2.667-8c-0.181-0.545-0.689-0.912-1.264-0.912h-0.292c-0.125 0.251-0.28 0.491-0.489 0.7l-1.976 1.967h1.797l2.223 6.667h-18.524l2.223-6.667h1.797l-1.977-1.967c-0.209-0.209-0.365-0.449-0.489-0.7h-0.292c-0.575 0-1.083 0.367-1.264 0.912l-2.667 8c-0.047 0.14-0.052 0.281-0.052 0.421-0.017 0-0.017 6.667-0.017 6.667 0 0.737 0.596 1.333 1.333 1.333h21.333c0.737 0 1.333-0.596 1.333-1.333 0 0 0-6.667-0.017-6.667z"></path>
</svg>
