<?xml version="1.0" encoding="utf-8"?>
<!DOCTYPE svg PUBLIC "-//W3C//DTD SVG 1.1//EN" "http://www.w3.org/Graphics/SVG/1.1/DTD/svg11.dtd">
<svg version="1.1" xmlns="http://www.w3.org/2000/svg" xmlns:xlink="http://www.w3.org/1999/xlink" width="32" height="32" viewBox="0 0 32 32">

	<path d="M27.981 22.667c0-0.14-0.005-0.281-0.051-0.421l-2.667-8c-0.181-0.545-0.688-0.912-1.264-0.912h-0.748l0.909-0.904c1.56-1.56 1.56-4.096 0-5.656-1.080-1.083-2.757-1.437-4.161-0.945v-1.828c0-2.205-1.795-4-4-4s-4 1.795-4 4v1.828c-1.403-0.492-3.081-0.137-4.161 0.945-1.56 1.56-1.56 4.096 0.003 5.659l0.907 0.901h-0.748c-0.576 0-1.083 0.367-1.264 0.912l-2.667 8c-0.045 0.14-0.051 0.281-0.051 0.421-0.019 0-0.019 6.667-0.019 6.667 0 0.737 0.596 1.333 1.333 1.333h21.333c0.737 0 1.333-0.596 1.333-1.333 0 0 0-6.667-0.019-6.667zM9.724 8.659c0.252-0.249 0.585-0.391 0.943-0.391s0.691 0.139 0.943 0.391l3.057 3.057v-7.716c0-0.736 0.597-1.333 1.333-1.333s1.333 0.597 1.333 1.333v7.716l3.057-3.057c0.505-0.503 1.38-0.503 1.885 0 0.521 0.52 0.521 1.364 0.003 1.883l-6.279 6.245-6.276-6.243c-0.521-0.517-0.521-1.365 0-1.885zM8.961 16h2.469l4.572 4.547 4.571-4.547h2.469l2.223 6.667h-18.525l2.221-6.667zM25.333 28h-18.667v-4h18.667v4z"></path>
</svg>
