<?xml version="1.0" encoding="utf-8"?>
<!DOCTYPE svg PUBLIC "-//W3C//DTD SVG 1.1//EN" "http://www.w3.org/Graphics/SVG/1.1/DTD/svg11.dtd">
<svg version="1.1" xmlns="http://www.w3.org/2000/svg" xmlns:xlink="http://www.w3.org/1999/xlink" width="32" height="32" viewBox="0 0 32 32">

	<path d="M28.748 7.091l-3.839-3.839c-0.391-0.391-0.903-0.585-1.415-0.585-0.513 0-1.024 0.195-1.415 0.585l-4.747 4.748h-12c-0.736 0-1.333 0.596-1.333 1.333v17.333c0 0.737 0.597 1.333 1.333 1.333h17.333c0.736 0 1.333-0.596 1.333-1.333v-12l4.748-4.748c0.391-0.391 0.585-0.903 0.585-1.415s-0.195-1.023-0.585-1.413zM15.333 19.563l-2.896-2.896 8.391-8.391 2.896 2.896-8.391 8.391zM11.919 17.777l2.341 2.304-2.26-0.081-0.081-2.223zM21.333 25.333h-14.667v-14.667h8l-4.24 4.24c-0.391 0.391-0.637 1.083-0.839 1.719-0.213 0.667-0.255 1.408-0.255 1.96v4.081h4.081c0.552 0 1.477-0.133 2.095-0.387 0.619-0.253 1.195-0.463 1.584-0.853l4.24-4.093v8zM24.667 10.229l-2.896-2.896 1.724-1.724 2.895 2.896-1.723 1.724z"></path>
</svg>
