<?xml version="1.0" encoding="utf-8"?>
<!DOCTYPE svg PUBLIC "-//W3C//DTD SVG 1.1//EN" "http://www.w3.org/Graphics/SVG/1.1/DTD/svg11.dtd">
<svg version="1.1" xmlns="http://www.w3.org/2000/svg" xmlns:xlink="http://www.w3.org/1999/xlink" width="32" height="32" viewBox="0 0 32 32">

	<path d="M17.333 23.333c-3.308 0-6-2.692-6-6 0-0.737-0.596-1.333-1.333-1.333s-1.333 0.596-1.333 1.333c0 4.779 3.888 8.667 8.667 8.667s8.667-3.888 8.667-8.667-3.888-8.667-8.667-8.667c-0.737 0-1.333 0.596-1.333 1.333s0.596 1.333 1.333 1.333c3.308 0 6 2.692 6 6s-2.692 6-6 6z"></path>
	<path d="M14.208 5.333c0.736 0 1.333 0.597 1.333 1.333s-0.597 1.333-1.333 1.333h-4.324l7.735 7.732c0.521 0.521 0.521 1.367 0.001 1.887-0.252 0.251-0.587 0.389-0.944 0.389s-0.692-0.139-0.943-0.388l-7.733-7.736v4.324c0 0.736-0.597 1.333-1.333 1.333s-1.333-0.597-1.333-1.333v-8.875h8.875z"></path>
</svg>
