<?xml version="1.0" encoding="utf-8"?>
<!DOCTYPE svg PUBLIC "-//W3C//DTD SVG 1.1//EN" "http://www.w3.org/Graphics/SVG/1.1/DTD/svg11.dtd">
<svg version="1.1" xmlns="http://www.w3.org/2000/svg" xmlns:xlink="http://www.w3.org/1999/xlink" width="32" height="32" viewBox="0 0 32 32">

	<path d="M21.333 11.401v-2.068c0-1.473-1.195-2.667-2.667-2.667h-13.333v13.333c0 1.472 1.195 2.667 2.667 2.667h1.421c1.191 3.849 4.861 6.667 9.079 6.667 5.145 0 9.416-4.021 9.416-9.167 0.001-4.215-2.757-7.653-6.583-8.765zM10.667 13.884v4.324c0 0.736-0.597 1.333-1.333 1.333s-1.333-0.597-1.333-1.333v-8.875h8.875c0.736 0 1.333 0.597 1.333 1.333s-0.597 1.333-1.333 1.333h-4.324l6.401 6.399c0.523 0.521 0.523 1.367 0.001 1.887-0.252 0.251-0.585 0.389-0.944 0.389-0.357 0-0.692-0.139-0.943-0.388l-6.4-6.403zM18.667 26.708c-3.676 0-6.667-3.013-6.667-6.688 0-0.94-0.005-1.828 0.28-2.639l3.844 3.845c0.52 0.52 1.201 0.779 1.885 0.779s1.363-0.259 1.885-0.779c1.041-1.040 1.041-2.732 0-3.773l-3.423-3.423c0.689-0.301 1.42-0.531 2.195-0.531 3.676 0 6.667 2.909 6.667 6.584 0 3.676-2.991 6.624-6.667 6.624z"></path>
</svg>
