<?xml version="1.0" encoding="utf-8"?>
<!DOCTYPE svg PUBLIC "-//W3C//DTD SVG 1.1//EN" "http://www.w3.org/Graphics/SVG/1.1/DTD/svg11.dtd">
<svg version="1.1" xmlns="http://www.w3.org/2000/svg" xmlns:xlink="http://www.w3.org/1999/xlink" width="32" height="32" viewBox="0 0 32 32">

	<path d="M30.281 13.061c-0.055-0.055-5.407-5.461-7.976-8.195-0.56-0.552-1.332-0.867-2.115-0.867-1.576 0-2.857 1.195-2.857 2.667h-10.667c-0.737 0-1.333 0.597-1.333 1.333v18.667c0 0.736 0.596 1.333 1.333 1.333h18.667c0.737 0 1.333-0.597 1.333-1.333v-8.060c1.912-1.948 3.584-3.639 3.615-3.668 0.516-0.52 0.516-1.357 0-1.877zM20.372 21.255c-0.029 0.036-0.087 0.079-0.181 0.079-0.099 0-0.161-0.031-0.192-0.053v-5.28h-1.333c-2.361 0.045-4.448 0.907-6.337 2.611 0.573-2.953 2.133-6.611 6.337-6.611h1.333v-5.277c0.037-0.028 0.095-0.056 0.192-0.056 0.12 0 0.203 0.067 0.205 0.067 1.915 2.033 5.401 5.583 7.063 7.267-0.337 0.343-5.789 5.896-7.087 7.255zM8 25.333v-16h10.667c0 0.464 0 0.927 0 1.333-6.213 0-8 6.495-8 11.333v0.667c2.255-3.437 4.8-5.271 8-5.333 0 1.393 0 3.784 0 4 0 0.735 0.683 1.333 1.524 1.333 0.485 0 0.901-0.211 1.177-0.521 0.719-0.753 1.656-1.721 2.635-2.724v5.912h-16.003z"></path>
</svg>
