<?xml version="1.0" encoding="utf-8"?>
<!DOCTYPE svg PUBLIC "-//W3C//DTD SVG 1.1//EN" "http://www.w3.org/Graphics/SVG/1.1/DTD/svg11.dtd">
<svg version="1.1" xmlns="http://www.w3.org/2000/svg" xmlns:xlink="http://www.w3.org/1999/xlink" width="32" height="32" viewBox="0 0 32 32">

	<path d="M10.667 22v0.667c2.255-3.437 4.8-5.271 8-5.333 0 1.393 0 3.784 0 4 0 0.735 0.681 1.333 1.524 1.333 0.485 0 0.9-0.211 1.177-0.521 2.577-2.705 7.965-8.145 7.965-8.145s-5.388-5.443-7.967-8.183c-0.277-0.273-0.691-0.484-1.176-0.484-0.843 0-1.524 0.596-1.524 1.333 0 0.224 0 2.503 0 4-6.213 0-8 6.495-8 11.333z"></path>
	<path d="M6.667 28h18.667c0.737 0 1.333-0.597 1.333-1.333v-8.061c-0.885 0.901-1.819 1.857-2.667 2.729v3.999h-16v-16h9.333v-2.667h-10.667c-0.737 0-1.333 0.597-1.333 1.333v18.667c0 0.736 0.596 1.333 1.333 1.333z"></path>
</svg>
