<?xml version="1.0" encoding="utf-8"?>
<!DOCTYPE svg PUBLIC "-//W3C//DTD SVG 1.1//EN" "http://www.w3.org/Graphics/SVG/1.1/DTD/svg11.dtd">
<svg version="1.1" xmlns="http://www.w3.org/2000/svg" xmlns:xlink="http://www.w3.org/1999/xlink" width="32" height="32" viewBox="0 0 32 32">

	<path d="M16 12c1.615 0 3.175 0.473 4.396 1.339 1.735 1.227 3.24 2.832 4.22 3.995-0.98 1.163-2.485 2.769-4.221 3.995-1.22 0.865-2.78 1.339-4.395 1.339s-3.176-0.473-4.399-1.339c-1.735-1.227-3.24-2.832-4.219-3.995 0.979-1.163 2.484-2.768 4.219-3.993 1.223-0.867 2.784-1.34 4.399-1.34zM16 9.333c-2.255 0-4.323 0.688-5.937 1.828-3.492 2.469-6.063 6.172-6.063 6.172s2.571 3.703 6.063 6.172c1.615 1.14 3.683 1.828 5.937 1.828s4.323-0.688 5.935-1.828c3.492-2.469 6.065-6.172 6.065-6.172s-2.573-3.703-6.065-6.172c-1.612-1.14-3.68-1.828-5.935-1.828z"></path>
	<path d="M16 16c-0.737 0-1.333 0.596-1.333 1.333 0 0.735 0.596 1.333 1.333 1.333 0.735 0 1.333-0.599 1.333-1.333 0-0.737-0.599-1.333-1.333-1.333z"></path>
	<path d="M16 21.333c-2.205 0-4-1.795-4-4s1.795-4 4-4 4 1.795 4 4-1.795 4-4 4zM16 14.667c-1.472 0-2.667 1.195-2.667 2.667s1.195 2.667 2.667 2.667 2.667-1.195 2.667-2.667-1.195-2.667-2.667-2.667z"></path>
</svg>
