<?xml version="1.0" encoding="utf-8"?>
<!DOCTYPE svg PUBLIC "-//W3C//DTD SVG 1.1//EN" "http://www.w3.org/Graphics/SVG/1.1/DTD/svg11.dtd">
<svg version="1.1" xmlns="http://www.w3.org/2000/svg" xmlns:xlink="http://www.w3.org/1999/xlink" width="32" height="32" viewBox="0 0 32 32">

	<path d="M29.095 16.573c-0.111-0.159-2.749-3.925-6.391-6.5-1.888-1.337-4.269-2.073-6.704-2.073-2.433 0-4.815 0.736-6.707 2.073-3.641 2.575-6.277 6.341-6.388 6.5-0.317 0.457-0.317 1.064 0 1.521 0.111 0.159 2.747 3.925 6.388 6.5 1.892 1.336 4.273 2.072 6.707 2.072 2.435 0 4.816-0.736 6.704-2.073 3.641-2.575 6.28-6.341 6.391-6.5 0.319-0.456 0.319-1.064 0-1.52zM16 22c-2.579 0-4.667-2.093-4.667-4.667 0-2.579 2.088-4.667 4.667-4.667 2.573 0 4.667 2.088 4.667 4.667 0 2.573-2.093 4.667-4.667 4.667z"></path>
	<path d="M18.667 17.333c0 1.469-1.197 2.667-2.667 2.667-1.473 0-2.667-1.197-2.667-2.667 0-1.473 1.193-2.667 2.667-2.667 1.469 0 2.667 1.193 2.667 2.667z"></path>
</svg>
