<?xml version="1.0" encoding="utf-8"?>
<!DOCTYPE svg PUBLIC "-//W3C//DTD SVG 1.1//EN" "http://www.w3.org/Graphics/SVG/1.1/DTD/svg11.dtd">
<svg version="1.1" xmlns="http://www.w3.org/2000/svg" xmlns:xlink="http://www.w3.org/1999/xlink" width="32" height="32" viewBox="0 0 32 32">

	<path d="M15.573 1.356l-0.24-0.045-0.24 0.044c-6.428 1.179-11.093 6.779-11.093 13.312 0 6.156 4.144 11.48 10 13.060v1.607c0 0.737 0.597 1.333 1.333 1.333s1.333-0.596 1.333-1.333v-1.607c5.856-1.58 10-6.904 10-13.060 0-6.533-4.665-12.133-11.093-13.311zM16.667 24.933v-15.6c0-0.737-0.597-1.333-1.333-1.333s-1.333 0.596-1.333 1.333v15.6c-4.24-1.457-7.2-5.405-7.32-9.977l4.183 4.183c0.129 0.129 0.3 0.195 0.471 0.195s0.341-0.065 0.472-0.195c0.26-0.26 0.26-0.683 0-0.943l-5.025-5.025c0.177-1.285 0.579-2.503 1.169-3.612l2.912 2.913c0.131 0.129 0.301 0.195 0.472 0.195s0.341-0.065 0.472-0.195c0.26-0.26 0.26-0.683 0-0.943l-3.137-3.137c1.549-2.188 3.892-3.795 6.665-4.367 2.773 0.573 5.116 2.18 6.665 4.367l-3.137 3.137c-0.26 0.26-0.26 0.683 0 0.943 0.131 0.129 0.301 0.195 0.472 0.195s0.341-0.065 0.472-0.195l2.912-2.913c0.592 1.109 0.992 2.327 1.169 3.612l-5.025 5.025c-0.26 0.26-0.26 0.683 0 0.943 0.131 0.131 0.301 0.195 0.472 0.195s0.341-0.065 0.472-0.195l4.183-4.183c-0.121 4.572-3.081 8.52-7.321 9.977z"></path>
</svg>
