<?xml version="1.0" encoding="utf-8"?>
<!DOCTYPE svg PUBLIC "-//W3C//DTD SVG 1.1//EN" "http://www.w3.org/Graphics/SVG/1.1/DTD/svg11.dtd">
<svg version="1.1" xmlns="http://www.w3.org/2000/svg" xmlns:xlink="http://www.w3.org/1999/xlink" width="32" height="32" viewBox="0 0 32 32">

	<path d="M10.667 10.667v9.333h10.667v-9.333h-10.667zM20 18.667h-8v-6.667h8v6.667z"></path>
	<path d="M22.667 2.667h-4v2.667h-5.333v-2.667h-4c-2.205 0-4 1.795-4 4v17.333c0 2.205 1.795 4 4 4h4v-2.667h5.333v2.667h4c2.205 0 4-1.795 4-4v-17.333c0-2.205-1.795-4-4-4zM24 8c-0.737 0-1.333 0.596-1.333 1.333s0.596 1.333 1.333 1.333v1.333c-0.737 0-1.333 0.596-1.333 1.333s0.596 1.333 1.333 1.333v1.333c-0.737 0-1.333 0.596-1.333 1.333s0.596 1.333 1.333 1.333v1.333c-0.737 0-1.333 0.596-1.333 1.333s0.596 1.333 1.333 1.333v1.333c0 0.735-0.597 1.333-1.333 1.333h-1.333v-2.667h-10.667v2.667h-1.333c-0.736 0-1.333-0.599-1.333-1.333v-1.333c0.737 0 1.333-0.596 1.333-1.333s-0.596-1.333-1.333-1.333v-1.333c0.737 0 1.333-0.596 1.333-1.333s-0.596-1.333-1.333-1.333v-1.333c0.737 0 1.333-0.596 1.333-1.333s-0.596-1.333-1.333-1.333v-1.333c0.737 0 1.333-0.596 1.333-1.333s-0.596-1.333-1.333-1.333v-1.333c0-0.735 0.597-1.333 1.333-1.333h1.333v2.667h10.667v-2.667h1.333c0.736 0 1.333 0.599 1.333 1.333v1.333z"></path>
</svg>
