<?xml version="1.0" encoding="utf-8"?>
<!DOCTYPE svg PUBLIC "-//W3C//DTD SVG 1.1//EN" "http://www.w3.org/Graphics/SVG/1.1/DTD/svg11.dtd">
<svg version="1.1" xmlns="http://www.w3.org/2000/svg" xmlns:xlink="http://www.w3.org/1999/xlink" width="32" height="32" viewBox="0 0 32 32">

	<path d="M24.511 5.757c-0.499-0.207-1.072-0.092-1.453 0.289-1.685 1.684-4.428 1.685-6.115 0-2.727-2.724-7.16-2.724-9.885 0-0.251 0.249-0.391 0.589-0.391 0.943v17.333c0 0.736 0.597 1.333 1.333 1.333s1.333-0.597 1.333-1.333v-6.071c1.695-1.329 4.161-1.215 5.724 0.347 2.727 2.724 7.161 2.724 9.885 0 0.251-0.251 0.391-0.589 0.391-0.943v-10.667c0-0.54-0.325-1.025-0.823-1.232zM15.057 7.932c2.053 2.052 5.077 2.557 7.609 1.517v3.081c-1.928 1.221-4.516 0.999-6.195-0.68-1.931-1.929-4.797-2.324-7.139-1.236v-3.029c1.695-1.329 4.161-1.216 5.724 0.347zM16.943 16.712c-1.363-1.361-3.153-2.043-4.943-2.043-0.908 0-1.815 0.175-2.667 0.525v-3.081c1.928-1.221 4.516-0.999 6.195 0.68 1.233 1.232 2.852 1.848 4.472 1.848 0.916 0 1.821-0.219 2.667-0.612v3.029c-1.696 1.329-4.163 1.215-5.724-0.347z"></path>
</svg>
