<?xml version="1.0" encoding="utf-8"?>
<!DOCTYPE svg PUBLIC "-//W3C//DTD SVG 1.1//EN" "http://www.w3.org/Graphics/SVG/1.1/DTD/svg11.dtd">
<svg version="1.1" xmlns="http://www.w3.org/2000/svg" xmlns:xlink="http://www.w3.org/1999/xlink" width="32" height="32" viewBox="0 0 32 32">

	<path d="M24.511 5.757c-0.499-0.207-1.072-0.092-1.453 0.289-1.685 1.684-4.428 1.685-6.115 0-2.727-2.724-7.16-2.724-9.885 0-0.251 0.249-0.391 0.589-0.391 0.943v17.333c0 0.736 0.596 1.333 1.333 1.333s1.333-0.597 1.333-1.333v-6.071c1.695-1.329 4.161-1.215 5.724 0.347 2.727 2.724 7.161 2.724 9.885 0 0.251-0.251 0.391-0.589 0.391-0.943v-10.667c0-0.54-0.325-1.025-0.823-1.232z"></path>
</svg>
