<?xml version="1.0" encoding="utf-8"?>
<!DOCTYPE svg PUBLIC "-//W3C//DTD SVG 1.1//EN" "http://www.w3.org/Graphics/SVG/1.1/DTD/svg11.dtd">
<svg version="1.1" xmlns="http://www.w3.org/2000/svg" xmlns:xlink="http://www.w3.org/1999/xlink" width="32" height="32" viewBox="0 0 32 32">

	<path d="M23.336 16.044l-5.655-3.277 2.851-6.841c0.088-0.179 0.137-0.38 0.137-0.592 0-0.736-0.593-1.333-1.329-1.333-0.332 0.005-0.609 0.111-0.829 0.285-0.044 0.035-0.071 0.056-0.093 0.080l-10 9.467c-0.305 0.289-0.456 0.705-0.408 1.123s0.292 0.788 0.655 1l5.656 3.28-2.884 6.92c-0.244 0.581-0.045 1.253 0.472 1.611 0.231 0.157 0.496 0.235 0.759 0.235 0.331 0 0.661-0.124 0.917-0.365l10-9.469c0.305-0.289 0.456-0.705 0.408-1.123-0.049-0.417-0.293-0.788-0.656-0.999z"></path>
</svg>
