<?xml version="1.0" encoding="utf-8"?>
<!DOCTYPE svg PUBLIC "-//W3C//DTD SVG 1.1//EN" "http://www.w3.org/Graphics/SVG/1.1/DTD/svg11.dtd">
<svg version="1.1" xmlns="http://www.w3.org/2000/svg" xmlns:xlink="http://www.w3.org/1999/xlink" width="32" height="32" viewBox="0 0 32 32">

	<path d="M19.333 5.333h0.007zM19.333 5.333l-3.333 8 6.667 3.864-10 9.469 3.333-8-6.667-3.867 10-9.467zM19.333 2.667c-0.749 0.016-1.372 0.292-1.839 0.735l-9.996 9.46c-0.611 0.58-0.913 1.412-0.813 2.248 0.096 0.835 0.583 1.576 1.309 1.997l4.643 2.695-2.435 5.841c-0.483 1.161-0.088 2.505 0.949 3.221 0.459 0.315 0.985 0.472 1.513 0.472 0.664 0 1.324-0.248 1.833-0.731l10-9.471c0.611-0.579 0.913-1.411 0.813-2.247-0.097-0.836-0.584-1.577-1.309-1.997l-4.643-2.691 2.385-5.724c0.164-0.347 0.256-0.735 0.256-1.143 0-1.469-1.187-2.661-2.668-2.667z"></path>
</svg>
