<?xml version="1.0" encoding="utf-8"?>
<!DOCTYPE svg PUBLIC "-//W3C//DTD SVG 1.1//EN" "http://www.w3.org/Graphics/SVG/1.1/DTD/svg11.dtd">
<svg version="1.1" xmlns="http://www.w3.org/2000/svg" xmlns:xlink="http://www.w3.org/1999/xlink" width="32" height="32" viewBox="0 0 32 32">

	<path d="M24 21.579v-2.468c0-2.573-2.093-4.667-4.667-4.667-1.103 0-2-0.897-2-2v-2.023c1.548-0.553 2.667-2.019 2.667-3.755 0-2.205-1.795-4-4-4s-4 1.795-4 4c0 1.736 1.119 3.201 2.667 3.753v2.024c0 1.103-0.897 2-2 2-2.573 0-4.667 2.093-4.667 4.667v2.468c-1.548 0.553-2.667 2.019-2.667 3.755 0 2.205 1.795 4 4 4s4-1.795 4-4c0-1.736-1.119-3.201-2.667-3.755v-2.468c0-1.103 0.897-2 2-2 1.305 0 2.485-0.543 3.333-1.411 0.848 0.868 2.028 1.411 3.333 1.411 1.103 0 2 0.897 2 2v2.468c-1.548 0.553-2.667 2.019-2.667 3.755 0 2.205 1.795 4 4 4s4-1.795 4-4c0-1.736-1.119-3.201-2.667-3.755zM9.333 26.667c-0.736 0-1.333-0.599-1.333-1.333s0.597-1.333 1.333-1.333 1.333 0.599 1.333 1.333-0.597 1.333-1.333 1.333zM16 5.333c0.736 0 1.333 0.599 1.333 1.333s-0.597 1.333-1.333 1.333-1.333-0.599-1.333-1.333 0.597-1.333 1.333-1.333zM22.667 26.667c-0.736 0-1.333-0.599-1.333-1.333s0.597-1.333 1.333-1.333 1.333 0.599 1.333 1.333-0.597 1.333-1.333 1.333z"></path>
</svg>
