<?xml version="1.0" encoding="utf-8"?>
<!DOCTYPE svg PUBLIC "-//W3C//DTD SVG 1.1//EN" "http://www.w3.org/Graphics/SVG/1.1/DTD/svg11.dtd">
<svg version="1.1" xmlns="http://www.w3.org/2000/svg" xmlns:xlink="http://www.w3.org/1999/xlink" width="32" height="32" viewBox="0 0 32 32">

	<path d="M24 21.579v-11.157c1.548-0.553 2.667-2.019 2.667-3.755 0-2.205-1.795-4-4-4s-4 1.795-4 4c0 1.736 1.119 3.201 2.667 3.753v11.159c-1.548 0.553-2.667 2.019-2.667 3.755 0 2.205 1.795 4 4 4s4-1.795 4-4c0-1.736-1.119-3.201-2.667-3.755zM22.667 5.333c0.736 0 1.333 0.599 1.333 1.333s-0.597 1.333-1.333 1.333-1.333-0.599-1.333-1.333 0.597-1.333 1.333-1.333zM22.667 26.667c-0.736 0-1.333-0.599-1.333-1.333s0.597-1.333 1.333-1.333 1.333 0.599 1.333 1.333-0.597 1.333-1.333 1.333z"></path>
	<path d="M13.333 6.667c0-2.205-1.795-4-4-4s-4 1.795-4 4c0 1.736 1.119 3.201 2.667 3.753v11.159c-1.548 0.553-2.667 2.019-2.667 3.755 0 2.205 1.795 4 4 4s4-1.795 4-4c0-1.736-1.119-3.201-2.667-3.755v-11.157c1.548-0.553 2.667-2.019 2.667-3.755zM9.333 5.333c0.736 0 1.333 0.599 1.333 1.333s-0.597 1.333-1.333 1.333-1.333-0.599-1.333-1.333 0.597-1.333 1.333-1.333zM9.333 26.667c-0.736 0-1.333-0.599-1.333-1.333s0.597-1.333 1.333-1.333 1.333 0.599 1.333 1.333-0.597 1.333-1.333 1.333z"></path>
</svg>
