<?xml version="1.0" encoding="utf-8"?>
<!DOCTYPE svg PUBLIC "-//W3C//DTD SVG 1.1//EN" "http://www.w3.org/Graphics/SVG/1.1/DTD/svg11.dtd">
<svg version="1.1" xmlns="http://www.w3.org/2000/svg" xmlns:xlink="http://www.w3.org/1999/xlink" width="32" height="32" viewBox="0 0 32 32">

	<path d="M10.667 21.579v-0.912c0-1.131 0.683-2.127 1.716-2.729-0.889-0.376-1.705-0.889-2.429-1.508-1.205 1.085-1.953 2.584-1.953 4.237v0.912c-1.548 0.553-2.667 2.019-2.667 3.755 0 2.205 1.795 4 4 4s4-1.795 4-4c0-1.736-1.119-3.201-2.667-3.755zM9.333 26.667c-0.736 0-1.333-0.599-1.333-1.333s0.597-1.333 1.333-1.333 1.333 0.599 1.333 1.333-0.597 1.333-1.333 1.333z"></path>
	<path d="M21.333 10.42v0.468c0 1.313-0.713 2.469-1.793 3.147 0.887 0.365 1.705 0.861 2.431 1.467 1.248-1.171 2.029-2.803 2.029-4.612v-0.468c1.548-0.553 2.667-2.019 2.667-3.755 0-2.205-1.795-4-4-4s-4 1.795-4 4c0 1.736 1.119 3.201 2.667 3.753zM22.667 5.333c0.736 0 1.333 0.599 1.333 1.333s-0.597 1.333-1.333 1.333-1.333-0.599-1.333-1.333 0.597-1.333 1.333-1.333z"></path>
	<path d="M23.913 21.552c-0.547-3.884-3.881-6.885-7.913-6.885-2.581 0-4.736-1.841-5.227-4.279 1.493-0.581 2.56-2.025 2.56-3.721 0-2.205-1.795-4-4-4s-4 1.795-4 4c0 1.768 1.16 3.253 2.753 3.781 0.547 3.884 3.881 6.885 7.913 6.885 2.581 0 4.736 1.841 5.227 4.279-1.493 0.581-2.56 2.025-2.56 3.721 0 2.205 1.795 4 4 4s4-1.795 4-4c0-1.768-1.16-3.253-2.753-3.781zM9.333 5.333c0.736 0 1.333 0.599 1.333 1.333s-0.597 1.333-1.333 1.333-1.333-0.599-1.333-1.333 0.597-1.333 1.333-1.333zM22.667 26.667c-0.736 0-1.333-0.599-1.333-1.333s0.597-1.333 1.333-1.333 1.333 0.599 1.333 1.333-0.597 1.333-1.333 1.333z"></path>
</svg>
