<?xml version="1.0" encoding="utf-8"?>
<!DOCTYPE svg PUBLIC "-//W3C//DTD SVG 1.1//EN" "http://www.w3.org/Graphics/SVG/1.1/DTD/svg11.dtd">
<svg version="1.1" xmlns="http://www.w3.org/2000/svg" xmlns:xlink="http://www.w3.org/1999/xlink" width="32" height="32" viewBox="0 0 32 32">

	<path d="M22.667 21.333c-1.74 0-3.204 1.116-3.755 2.667h-4.245c-2.205 0-4-1.795-4-4v-4.033c1.117 0.845 2.493 1.367 4 1.367h4.245c0.551 1.551 2.016 2.667 3.755 2.667 2.209 0 4-1.791 4-4s-1.791-4-4-4c-1.74 0-3.204 1.116-3.755 2.667h-4.245c-2.205 0-4-1.795-4-4v-0.245c1.551-0.551 2.667-2.016 2.667-3.755 0-2.209-1.791-4-4-4s-4 1.791-4 4c0 1.739 1.116 3.204 2.667 3.755v9.579c0 3.676 2.991 6.667 6.667 6.667h4.245c0.551 1.551 2.016 2.667 3.755 2.667 2.209 0 4-1.791 4-4s-1.791-4-4-4zM22.667 14.667c0.736 0 1.333 0.599 1.333 1.333s-0.597 1.333-1.333 1.333-1.333-0.599-1.333-1.333 0.597-1.333 1.333-1.333zM9.333 5.333c0.736 0 1.333 0.599 1.333 1.333s-0.597 1.333-1.333 1.333-1.333-0.599-1.333-1.333 0.597-1.333 1.333-1.333zM22.667 26.667c-0.736 0-1.333-0.599-1.333-1.333s0.597-1.333 1.333-1.333 1.333 0.599 1.333 1.333-0.597 1.333-1.333 1.333z"></path>
</svg>
