<?xml version="1.0" encoding="utf-8"?>
<!DOCTYPE svg PUBLIC "-//W3C//DTD SVG 1.1//EN" "http://www.w3.org/Graphics/SVG/1.1/DTD/svg11.dtd">
<svg version="1.1" xmlns="http://www.w3.org/2000/svg" xmlns:xlink="http://www.w3.org/1999/xlink" width="32" height="32" viewBox="0 0 32 32">

	<path d="M24 8h-8c0-1.472-1.195-2.667-2.667-2.667h-5.333c-2.205 0-4 1.795-4 4v13.333c0 2.205 1.795 4 4 4h16c2.205 0 4-1.795 4-4v-10.667c0-2.205-1.795-4-4-4zM24 24h-16c-0.736 0-1.333-0.597-1.333-1.333v-9.333h5.333c0.367 0 0.667-0.3 0.667-0.667s-0.3-0.667-0.667-0.667h-5.333v-2.667c0-0.736 0.597-1.333 1.333-1.333h5.333c0 1.472 1.195 2.667 2.667 2.667h8c0.736 0 1.333 0.597 1.333 1.333h-5.333c-0.367 0-0.667 0.3-0.667 0.667s0.3 0.667 0.667 0.667h5.333v9.333c0 0.736-0.597 1.333-1.333 1.333z"></path>
	<path d="M20 16h-2.667v-2.667c0-0.737-0.596-1.333-1.333-1.333s-1.333 0.596-1.333 1.333v2.667h-2.667c-0.737 0-1.333 0.596-1.333 1.333s0.596 1.333 1.333 1.333h2.667v2.667c0 0.737 0.596 1.333 1.333 1.333s1.333-0.596 1.333-1.333v-2.667h2.667c0.737 0 1.333-0.596 1.333-1.333s-0.596-1.333-1.333-1.333z"></path>
</svg>
