<?xml version="1.0" encoding="utf-8"?>
<!DOCTYPE svg PUBLIC "-//W3C//DTD SVG 1.1//EN" "http://www.w3.org/Graphics/SVG/1.1/DTD/svg11.dtd">
<svg version="1.1" xmlns="http://www.w3.org/2000/svg" xmlns:xlink="http://www.w3.org/1999/xlink" width="32" height="32" viewBox="0 0 32 32">

	<path d="M25.333 10.667h-3.136c0.292-0.609 0.469-1.281 0.469-2 0-2.573-2.093-4.667-4.667-4.667-1.305 0-2.485 0.543-3.333 1.411-0.848-0.868-2.028-1.411-3.333-1.411-2.573 0-4.667 2.093-4.667 4.667 0 0.719 0.177 1.391 0.469 2h-3.136c-0.737 0-1.333 0.597-1.333 1.333v5.333c0 0.736 0.596 1.333 1.333 1.333v6.667c0 2.205 1.795 4 4 4h13.333c2.205 0 4-1.795 4-4v-6.667c0.737 0 1.333-0.597 1.333-1.333v-5.333c0-0.736-0.596-1.333-1.333-1.333zM24 16h-6.667v-2.667h6.667v2.667zM13.333 9.333h2.667v1.333h-2.667v-1.333zM16 13.333v2.667h-2.667v-2.667h2.667zM18 6.667c1.103 0 2 0.897 2 2s-0.897 2-2 2c-0.236 0-0.459-0.052-0.667-0.129v-1.204c0-0.695-0.539-1.249-1.217-1.309 0.269-0.787 1.008-1.357 1.884-1.357zM9.333 8.667c0-1.103 0.897-2 2-2 0.876 0 1.615 0.571 1.884 1.357-0.679 0.060-1.217 0.615-1.217 1.309v1.204c-0.208 0.077-0.431 0.129-0.667 0.129-1.103 0-2-0.897-2-2zM12 13.333v2.667h-6.667v-2.667h6.667zM8 26.667c-0.735 0-1.333-0.599-1.333-1.333v-8h5.333v9.333h-4zM13.333 26.667v-9.333h2.667v9.333h-2.667zM21.333 26.667h-4v-9.333h5.333v8c0 0.735-0.599 1.333-1.333 1.333z"></path>
</svg>
