<?xml version="1.0" encoding="utf-8"?>
<!DOCTYPE svg PUBLIC "-//W3C//DTD SVG 1.1//EN" "http://www.w3.org/Graphics/SVG/1.1/DTD/svg11.dtd">
<svg version="1.1" xmlns="http://www.w3.org/2000/svg" xmlns:xlink="http://www.w3.org/1999/xlink" width="32" height="32" viewBox="0 0 32 32">

	<path d="M14.667 26.667h-5.333c-0.737 0-1.333 0.596-1.333 1.333s0.596 1.333 1.333 1.333h13.333c0.737 0 1.333-0.596 1.333-1.333s-0.596-1.333-1.333-1.333h-5.333v-1.64c2.187-0.495 4.195-1.584 5.817-3.208 2.267-2.267 3.516-5.28 3.516-8.485 0-2.756-0.923-5.372-2.624-7.492l0.9-0.897c0.521-0.521 0.521-1.364 0.001-1.887-0.521-0.521-1.365-0.52-1.887-0.001l-2.736 2.732 0.944 0.944c1.763 1.763 2.735 4.108 2.735 6.601s-0.972 4.836-2.735 6.599-4.105 2.735-6.599 2.735-4.836-0.972-6.599-2.735c-0.521-0.521-1.364-0.521-1.885 0-0.521 0.52-0.521 1.364 0 1.885 2.265 2.267 5.279 3.516 8.484 3.516v1.333z"></path>
	<path d="M14.667 5.333c2.209 0 4.209 0.896 5.657 2.343 1.447 1.448 2.343 3.448 2.343 5.657 0 2.208-0.896 4.208-2.343 5.656-1.448 1.448-3.448 2.344-5.657 2.344-2.211 0-4.209-0.896-5.656-2.343-1.447-1.448-2.341-3.448-2.341-5.657s0.895-4.209 2.341-5.657c1.447-1.447 3.445-2.343 5.656-2.343z"></path>
</svg>
