<?xml version="1.0" encoding="utf-8"?>
<!DOCTYPE svg PUBLIC "-//W3C//DTD SVG 1.1//EN" "http://www.w3.org/Graphics/SVG/1.1/DTD/svg11.dtd">
<svg version="1.1" xmlns="http://www.w3.org/2000/svg" xmlns:xlink="http://www.w3.org/1999/xlink" width="32" height="32" viewBox="0 0 32 32">

	<path d="M14.667 8c2.941 0 5.333 2.392 5.333 5.333s-2.392 5.333-5.333 5.333c-2.939 0-5.331-2.392-5.331-5.333s2.392-5.333 5.331-5.333zM14.667 5.333c-4.419 0-7.997 3.581-7.997 8s3.579 8 7.997 8c4.416 0 8-3.584 8-8 0-4.419-3.584-8-8-8z"></path>
	<path d="M22.667 26.667h-5.333v-1.64c2.188-0.495 4.195-1.584 5.817-3.208 2.265-2.265 3.516-5.28 3.516-8.484 0-2.756-0.921-5.371-2.624-7.492l0.9-0.897c0.521-0.521 0.521-1.364 0.001-1.887-0.523-0.523-1.365-0.52-1.887-0.001l-2.736 2.732 0.944 0.944c1.763 1.761 2.735 4.107 2.735 6.6s-0.972 4.836-2.735 6.599-4.105 2.735-6.599 2.735-4.836-0.972-6.599-2.735c-0.521-0.521-1.364-0.521-1.885 0-0.521 0.52-0.521 1.364 0 1.885 2.265 2.265 5.279 3.516 8.484 3.516v1.333h-5.333c-0.737 0-1.333 0.596-1.333 1.333s0.596 1.333 1.333 1.333h13.333c0.737 0 1.333-0.596 1.333-1.333s-0.596-1.333-1.333-1.333z"></path>
</svg>
