<?xml version="1.0" encoding="utf-8"?>
<!DOCTYPE svg PUBLIC "-//W3C//DTD SVG 1.1//EN" "http://www.w3.org/Graphics/SVG/1.1/DTD/svg11.dtd">
<svg version="1.1" xmlns="http://www.w3.org/2000/svg" xmlns:xlink="http://www.w3.org/1999/xlink" width="32" height="32" viewBox="0 0 32 32">

	<path d="M16 18.667c3.685 0 6.667-2.984 6.667-6.667s-2.981-6.667-6.667-6.667-6.667 2.984-6.667 6.667 2.981 6.667 6.667 6.667zM16 8c2.205 0 4 1.795 4 4s-1.795 4-4 4-4-1.795-4-4 1.795-4 4-4z"></path>
	<path d="M26.667 20c1.841 0 3.333-1.489 3.333-3.333 0-1.841-1.492-3.333-3.333-3.333-1.843 0-3.333 1.492-3.333 3.333 0 1.844 1.491 3.333 3.333 3.333zM26.667 14.667c1.103 0 2 0.897 2 2s-0.897 2-2 2-2-0.897-2-2 0.897-2 2-2z"></path>
	<path d="M26.667 20.787c-1.775 0-3.109 0.541-3.889 1.292-1.487-1.224-3.837-2.079-6.777-2.079-3.021 0-5.327 0.864-6.789 2.085-0.795-0.753-2.144-1.3-3.877-1.3-2.917 0-4.667 1.455-4.667 2.911 0 0.727 1.749 1.456 4.667 1.456 0.805 0 1.528-0.068 2.164-0.177-0.013 0.12-0.053 0.24-0.053 0.36 0 1.333 3.207 2.667 8.556 2.667 5.016 0 8.556-1.333 8.556-2.667 0-0.113-0.015-0.227-0.028-0.34 0.617 0.097 1.328 0.157 2.139 0.157 2.735 0 4.667-0.729 4.667-1.456 0-1.456-1.831-2.909-4.667-2.909zM5.333 23.817c-1.745 0-2.757-0.276-3.223-0.472 0.319-0.54 1.337-1.227 3.223-1.227 1.476 0 2.449 0.468 2.944 0.941-0.112 0.152-0.225 0.303-0.313 0.459-0.603 0.159-1.477 0.299-2.631 0.299zM16 25.333c-2.884 0-4.668-0.416-5.579-0.748 0.695-0.904 2.557-1.919 5.579-1.919 2.892 0 4.787 1.015 5.531 1.9-1.007 0.36-2.883 0.767-5.531 0.767zM26.667 23.817c-1.219 0-2.061-0.137-2.631-0.284-0.096-0.169-0.207-0.336-0.331-0.5 0.475-0.46 1.428-0.913 2.961-0.913 1.765 0 2.855 0.668 3.205 1.215-0.52 0.217-1.607 0.483-3.205 0.483z"></path>
	<path d="M5.333 20c1.841 0 3.333-1.492 3.333-3.333 0-1.839-1.492-3.333-3.333-3.333-1.843 0-3.333 1.495-3.333 3.333 0 1.841 1.491 3.333 3.333 3.333zM5.333 14.667c1.103 0 2 0.897 2 2s-0.897 2-2 2-2-0.897-2-2 0.897-2 2-2z"></path>
</svg>
