<?xml version="1.0" encoding="utf-8"?>
<!DOCTYPE svg PUBLIC "-//W3C//DTD SVG 1.1//EN" "http://www.w3.org/Graphics/SVG/1.1/DTD/svg11.dtd">
<svg version="1.1" xmlns="http://www.w3.org/2000/svg" xmlns:xlink="http://www.w3.org/1999/xlink" width="32" height="32" viewBox="0 0 32 32">

	<path d="M16 18.667c1.841 0 3.508-0.747 4.715-1.953 1.205-1.205 1.952-2.872 1.952-4.713s-0.747-3.508-1.952-4.713c-1.207-1.207-2.873-1.953-4.715-1.953s-3.508 0.747-4.715 1.953c-1.205 1.205-1.952 2.872-1.952 4.713s0.747 3.508 1.952 4.713c1.207 1.207 2.873 1.953 4.715 1.953z"></path>
	<path d="M26.667 20c0.92 0 1.753-0.372 2.357-0.975s0.976-1.436 0.976-2.359c0-0.92-0.372-1.753-0.976-2.357s-1.437-0.976-2.357-0.976c-0.921 0-1.755 0.372-2.359 0.976-0.603 0.604-0.975 1.437-0.975 2.357 0 0.921 0.372 1.755 0.975 2.359s1.437 0.975 2.359 0.975z"></path>
	<path d="M26.667 20.787c-1.775 0-3.109 0.541-3.889 1.291-1.487-1.223-3.837-2.077-6.777-2.077-3.021 0-5.327 0.864-6.789 2.085-0.795-0.753-2.144-1.299-3.877-1.299-2.917 0-4.667 1.453-4.667 2.909 0 0.727 1.749 1.456 4.667 1.456 0.805 0 1.528-0.068 2.164-0.177-0.013 0.121-0.053 0.24-0.053 0.36 0 1.333 3.208 2.667 8.556 2.667 5.016 0 8.556-1.333 8.556-2.667 0-0.113-0.015-0.227-0.027-0.34 0.617 0.097 1.327 0.157 2.137 0.157 2.735 0 4.667-0.729 4.667-1.456 0-1.456-1.831-2.909-4.667-2.909z"></path>
	<path d="M5.333 20c0.92 0 1.753-0.372 2.357-0.976s0.976-1.437 0.976-2.357c0-0.919-0.372-1.752-0.976-2.357-0.604-0.603-1.437-0.976-2.357-0.976-0.921 0-1.755 0.373-2.359 0.976-0.603 0.605-0.975 1.439-0.975 2.357 0 0.92 0.372 1.753 0.975 2.357 0.604 0.604 1.437 0.976 2.359 0.976z"></path>
</svg>
