<?xml version="1.0" encoding="utf-8"?>
<!DOCTYPE svg PUBLIC "-//W3C//DTD SVG 1.1//EN" "http://www.w3.org/Graphics/SVG/1.1/DTD/svg11.dtd">
<svg version="1.1" xmlns="http://www.w3.org/2000/svg" xmlns:xlink="http://www.w3.org/1999/xlink" width="32" height="32" viewBox="0 0 32 32">

	<path d="M28 17.333c0-6.617-5.383-12-12-12s-12 5.383-12 12v3.467c0 0.053 0.025 0.099 0.031 0.151-0.017 0.324-0.031 0.667-0.031 1.049v2.667c0 2.573 2.093 4.667 4.667 4.667s4.667-2.093 4.667-4.667v-2.667c0-2.015-1.107-3.72-2.643-4.371 0.127-2.829 2.449-5.097 5.309-5.097s5.183 2.267 5.309 5.096c-1.536 0.653-2.643 2.357-2.643 4.372v2.667c0 2.573 2.093 4.667 4.667 4.667s4.667-2.093 4.667-4.667v-2.667c0-0.383-0.013-0.725-0.031-1.049 0.005-0.052 0.031-0.097 0.031-0.151v-3.467zM6.667 17.333c0-2.115 0.717-4.061 1.909-5.628l1.187 1.185c-0.989 1.237-1.624 2.767-1.736 4.443-0.027 0-0.027 1.333-0.027 1.333h-1.333v-1.333zM10.667 24.667c0 1.103-0.897 2-2 2s-2-0.897-2-2v-2.667c0-0.888 0.076-1.568 0.152-2h2.515c0.631 0 1.333 0.821 1.333 2v2.667zM21.027 12.216l-0.472 0.472c-1.216-1.217-2.833-1.888-4.555-1.888s-3.339 0.671-4.556 1.888l-2.829-2.828c1.972-1.973 4.596-3.060 7.385-3.060 2.791 0 5.413 1.087 7.385 3.060l-2.359 2.356zM25.333 24.667c0 1.103-0.897 2-2 2s-2-0.897-2-2v-2.667c0-1.179 0.703-2 1.333-2h2.515c0.076 0.432 0.152 1.112 0.152 2v2.667zM25.333 18.667h-1.333v-1.333c-0.139-1.676-0.773-3.205-1.763-4.443l1.188-1.185c1.191 1.567 1.908 3.512 1.908 5.628v1.333z"></path>
</svg>
