<?xml version="1.0" encoding="utf-8"?>
<!DOCTYPE svg PUBLIC "-//W3C//DTD SVG 1.1//EN" "http://www.w3.org/Graphics/SVG/1.1/DTD/svg11.dtd">
<svg version="1.1" xmlns="http://www.w3.org/2000/svg" xmlns:xlink="http://www.w3.org/1999/xlink" width="32" height="32" viewBox="0 0 32 32">

	<path d="M16 26.667c-0.26 0-0.521-0.076-0.748-0.229-0.3-0.201-7.344-4.973-9.528-7.161-2.441-2.441-2.724-5.036-2.724-6.776 0-3.952 3.215-7.167 7.167-7.167 2.403 0 4.531 1.188 5.833 3.008 1.303-1.82 3.431-3.008 5.833-3.008 3.952 0 7.167 3.215 7.167 7.167 0 1.74-0.283 4.335-2.724 6.776-2.188 2.188-9.231 6.96-9.528 7.161-0.227 0.153-0.488 0.229-0.748 0.229zM10.167 8c-2.481 0-4.5 2.019-4.5 4.5 0 1.457 0.231 3.179 1.943 4.891 1.616 1.616 6.511 5.033 8.391 6.328 1.88-1.295 6.775-4.712 8.391-6.328 1.712-1.712 1.943-3.433 1.943-4.891 0-2.481-2.019-4.5-4.5-4.5s-4.5 2.019-4.5 4.5c0 0.736-0.596 1.333-1.333 1.333s-1.333-0.597-1.333-1.333c0-2.481-2.019-4.5-4.5-4.5z"></path>
</svg>
