<?xml version="1.0" encoding="utf-8"?>
<!DOCTYPE svg PUBLIC "-//W3C//DTD SVG 1.1//EN" "http://www.w3.org/Graphics/SVG/1.1/DTD/svg11.dtd">
<svg version="1.1" xmlns="http://www.w3.org/2000/svg" xmlns:xlink="http://www.w3.org/1999/xlink" width="32" height="32" viewBox="0 0 32 32">

	<path d="M16 4c0 0-8.248 7.12-12.857 10.976-0.271 0.245-0.476 0.603-0.476 1.024 0 0.737 0.596 1.333 1.333 1.333h2.667v9.333c0 0.737 0.596 1.333 1.333 1.333h4c0.737 0 1.333-0.597 1.333-1.333v-5.333h5.333v5.333c0 0.736 0.596 1.333 1.333 1.333h4c0.737 0 1.333-0.596 1.333-1.333v-9.333h2.667c0.737 0 1.333-0.596 1.333-1.333 0-0.421-0.205-0.779-0.511-1.024-4.577-3.856-12.823-10.976-12.823-10.976z"></path>
</svg>
