<?xml version="1.0" encoding="utf-8"?>
<!DOCTYPE svg PUBLIC "-//W3C//DTD SVG 1.1//EN" "http://www.w3.org/Graphics/SVG/1.1/DTD/svg11.dtd">
<svg version="1.1" xmlns="http://www.w3.org/2000/svg" xmlns:xlink="http://www.w3.org/1999/xlink" width="32" height="32" viewBox="0 0 32 32">

	<path d="M29.683 13.957c-4.52-3.805-12.728-10.895-12.809-10.967l-0.873-0.751-0.869 0.751c-0.083 0.071-8.295 7.157-12.88 10.997-0.584 0.525-0.917 1.26-0.917 2.012 0 1.472 1.195 2.667 2.667 2.667h1.333v8c0 1.472 1.195 2.667 2.667 2.667h16c1.472 0 2.667-1.195 2.667-2.667v-8h1.333c1.472 0 2.667-1.195 2.667-2.667 0-0.797-0.367-1.548-0.984-2.043zM18.667 26.667h-5.333v-6.667h5.333v6.667zM24 16l0.003 10.667c-0.003 0-4.003 0-4.003 0v-8h-8v8h-4v-10.667h-4.001c3.687-3.083 9.753-8.303 12.001-10.24 2.248 1.937 8.312 7.156 12 10.241 0 0-4 0-4-0.001z"></path>
</svg>
