<?xml version="1.0" encoding="utf-8"?>
<!DOCTYPE svg PUBLIC "-//W3C//DTD SVG 1.1//EN" "http://www.w3.org/Graphics/SVG/1.1/DTD/svg11.dtd">
<svg version="1.1" xmlns="http://www.w3.org/2000/svg" xmlns:xlink="http://www.w3.org/1999/xlink" width="32" height="32" viewBox="0 0 32 32">

	<path d="M11.333 10.665c1.103 0 2 0.897 2 2s-0.897 2-2 2-2-0.897-2-2 0.897-2 2-2zM11.333 9.332c-1.841 0-3.333 1.492-3.333 3.333s1.492 3.333 3.333 3.333 3.333-1.492 3.333-3.333-1.492-3.333-3.333-3.333z"></path>
	<path d="M21.333 15.999c0.6 0.068 1.693 2.405 2.372 5.335h-15.189c0.579-1.379 1.407-2.668 2.149-2.668 1.075 0 1.5 0.247 2.040 0.56 0.596 0.344 1.341 0.773 2.627 0.773 1.517 0 2.589-1.18 3.537-2.221 0.836-0.916 1.624-1.779 2.464-1.779zM21.333 14.665c-2.667 0-4 4-6 4s-1.999-1.333-4.667-1.333c-2.667 0-4.001 5.333-4.001 5.333h18.668c0 0-1.333-8-4-8z"></path>
	<path d="M29.333 8c0-1.472-1.195-2.667-2.667-2.667h-21.333c-1.472 0-2.667 1.195-2.667 2.667v16c0 1.472 1.195 2.667 2.667 2.667h21.333c1.472 0 2.667-1.195 2.667-2.667v-16zM26.667 24h-21.333v-16h21.337l-0.004 16z"></path>
</svg>
