<?xml version="1.0" encoding="utf-8"?>
<!DOCTYPE svg PUBLIC "-//W3C//DTD SVG 1.1//EN" "http://www.w3.org/Graphics/SVG/1.1/DTD/svg11.dtd">
<svg version="1.1" xmlns="http://www.w3.org/2000/svg" xmlns:xlink="http://www.w3.org/1999/xlink" width="32" height="32" viewBox="0 0 32 32">

	<path d="M21.912 11.461c1.536 0 2.983 0.599 4.071 1.685 1.087 1.088 1.688 2.533 1.688 4.075s-0.6 2.985-1.691 4.075c-1.084 1.087-2.531 1.688-4.071 1.688s-2.984-0.599-4.073-1.688l-1.835-1.76-1.86 1.784c-1.063 1.065-2.509 1.664-4.048 1.664s-2.985-0.599-4.072-1.689c-1.087-1.084-1.687-2.532-1.687-4.071s0.6-2.983 1.689-4.075c1.085-1.084 2.531-1.688 4.071-1.688 1.539 0 2.985 0.599 4.073 1.688l1.833 1.76 1.861-1.787c1.064-1.063 2.509-1.661 4.049-1.661zM21.912 8.795c-2.239 0-4.333 0.86-5.911 2.417-1.551-1.545-3.661-2.417-5.907-2.417-2.251 0-4.365 0.876-5.956 2.471-1.592 1.589-2.469 3.707-2.469 5.959s0.877 4.365 2.469 5.957c1.588 1.589 3.705 2.469 5.957 2.469 2.239 0 4.335-0.86 5.908-2.419 1.551 1.547 3.661 2.419 5.908 2.419 2.252 0 4.368-0.877 5.959-2.472 1.591-1.584 2.469-3.701 2.469-5.956 0-2.251-0.877-4.365-2.469-5.96-1.596-1.593-3.711-2.468-5.959-2.468z"></path>
	<path d="M10.095 16.128c0.3 0 0.568 0.117 0.816 0.361l0.76 0.731-0.804 0.772c-0.188 0.189-0.469 0.297-0.771 0.297-0.303 0-0.584-0.107-0.773-0.297-0.207-0.207-0.32-0.48-0.32-0.771 0-0.295 0.112-0.563 0.324-0.775 0.208-0.207 0.473-0.319 0.768-0.319zM10.095 14.795c-0.648 0-1.256 0.252-1.713 0.711-0.46 0.461-0.713 1.068-0.713 1.716 0 0.645 0.252 1.255 0.711 1.713s1.087 0.688 1.716 0.688c0.628 0 1.256-0.229 1.713-0.688l1.785-1.713-1.761-1.693c-0.48-0.481-1.089-0.733-1.737-0.733z"></path>
	<path d="M21.912 16.151c0.304 0 0.584 0.107 0.768 0.292 0.211 0.212 0.323 0.479 0.323 0.776s-0.111 0.563-0.324 0.775c-0.192 0.195-0.469 0.304-0.761 0.304-0.307 0-0.592-0.117-0.823-0.348l-0.761-0.731 0.804-0.771c0.188-0.191 0.471-0.297 0.775-0.297zM21.912 14.817c-0.629 0-1.257 0.229-1.716 0.688l-1.787 1.713 1.763 1.693c0.483 0.481 1.117 0.719 1.748 0.719 0.629 0 1.249-0.236 1.705-0.695 0.461-0.459 0.712-1.068 0.712-1.716s-0.251-1.255-0.709-1.716c-0.461-0.459-1.089-0.687-1.716-0.687z"></path>
</svg>
