<?xml version="1.0" encoding="utf-8"?>
<!DOCTYPE svg PUBLIC "-//W3C//DTD SVG 1.1//EN" "http://www.w3.org/Graphics/SVG/1.1/DTD/svg11.dtd">
<svg version="1.1" xmlns="http://www.w3.org/2000/svg" xmlns:xlink="http://www.w3.org/1999/xlink" width="32" height="32" viewBox="0 0 32 32">

	<path d="M21.911 11.461c-1.537 0-2.983 0.599-4.048 1.661l-1.861 1.787-1.833-1.76c-1.087-1.089-2.535-1.688-4.073-1.688s-2.985 0.601-4.071 1.688c-1.089 1.088-1.689 2.533-1.689 4.073 0 1.536 0.599 2.984 1.688 4.071 1.085 1.088 2.532 1.688 4.072 1.688 1.537 0 2.985-0.599 4.048-1.664l1.86-1.784 1.835 1.76c1.087 1.088 2.535 1.688 4.073 1.688s2.984-0.599 4.071-1.688c1.089-1.085 1.689-2.533 1.689-4.073s-0.599-2.984-1.688-4.073c-1.089-1.087-2.535-1.685-4.072-1.685zM11.809 18.935c-0.916 0.917-2.512 0.917-3.429 0-0.459-0.459-0.711-1.068-0.711-1.713 0-0.648 0.252-1.255 0.713-1.716 0.456-0.459 1.065-0.711 1.712-0.711s1.256 0.252 1.74 0.735l1.761 1.693-1.787 1.712zM23.624 18.935c-0.916 0.919-2.488 0.94-3.453-0.024l-1.761-1.693 1.785-1.713c0.917-0.917 2.515-0.917 3.431-0.003 0.459 0.461 0.711 1.068 0.711 1.716s-0.253 1.259-0.712 1.717z"></path>
</svg>
