<?xml version="1.0" encoding="utf-8"?>
<!DOCTYPE svg PUBLIC "-//W3C//DTD SVG 1.1//EN" "http://www.w3.org/Graphics/SVG/1.1/DTD/svg11.dtd">
<svg version="1.1" xmlns="http://www.w3.org/2000/svg" xmlns:xlink="http://www.w3.org/1999/xlink" width="32" height="32" viewBox="0 0 32 32">

	<path d="M18.979 21.352l0.739-1.472c1.077-2.147 1.196-4.304 0.337-6.069-0.163-0.336-0.369-0.639-0.591-0.924 1.881-0.825 3.203-2.701 3.203-4.885 0-2.941-2.392-5.333-5.333-5.333s-5.333 2.392-5.333 5.333c0 1.044 0.312 2.011 0.832 2.835-2.261 0.44-3.741 1.664-3.929 1.833-0.955 0.841-1.18 2.24-0.54 3.339 0.432 0.745 1.181 1.212 1.992 1.307l-0.739 1.472c-1.077 2.147-1.196 4.304-0.339 6.069 0.753 1.552 2.161 2.607 3.963 2.972 0.551 0.112 1.115 0.169 1.672 0.169 3.157 0 5.287-1.796 5.52-2.001 0.955-0.84 1.183-2.237 0.543-3.337-0.433-0.741-1.183-1.212-1.996-1.307zM17.333 5.335c1.472 0 2.667 1.195 2.667 2.667s-1.195 2.667-2.667 2.667c-1.473 0-2.667-1.195-2.667-2.667s1.193-2.667 2.667-2.667zM14.912 25.333c-0.361 0-0.745-0.033-1.139-0.116-2.189-0.445-3.104-2.577-1.771-5.236l1.333-2.66c0.667-1.328 0.627-2.173-0.144-2.713-0.241-0.167-0.575-0.225-0.919-0.225-0.769 0-1.601 0.285-1.601 0.285s1.511-1.335 3.749-1.335c0.361 0 0.747 0.033 1.141 0.116 2.187 0.445 3.104 2.577 1.771 5.236l-1.333 2.657c-0.667 1.331-0.629 2.176 0.141 2.713 0.241 0.168 0.577 0.225 0.923 0.225 0.769 0 1.6-0.283 1.6-0.283s-1.511 1.335-3.752 1.335z"></path>
</svg>
