<?xml version="1.0" encoding="utf-8"?>
<!DOCTYPE svg PUBLIC "-//W3C//DTD SVG 1.1//EN" "http://www.w3.org/Graphics/SVG/1.1/DTD/svg11.dtd">
<svg version="1.1" xmlns="http://www.w3.org/2000/svg" xmlns:xlink="http://www.w3.org/1999/xlink" width="32" height="32" viewBox="0 0 32 32">

	<path d="M16 7.348c0.748 0 1.492 0.472 2.059 1.416l7.883 13.139c1.135 1.887 0.259 3.431-1.941 3.431h-16c-2.2 0-3.076-1.545-1.941-3.431l7.883-13.139c0.567-0.944 1.311-1.416 2.059-1.416zM16 4.681c-1.728 0-3.309 0.987-4.345 2.708l-7.883 13.141c-1.048 1.745-1.163 3.607-0.313 5.107s2.505 2.363 4.541 2.363h16c2.036 0 3.693-0.861 4.541-2.361s0.735-3.361-0.313-5.107l-7.883-13.139c-1.036-1.725-2.617-2.712-4.345-2.712z"></path>
	<path d="M18 22.331c0 0-0.948 0.481-1.433 0.243-0.483-0.245-0.579-0.721-0.305-1.536l0.541-1.628c0.537-1.628-0.161-2.768-1.443-2.841-1.677-0.093-2.693 1.101-2.693 1.101s0.947-0.487 1.433-0.243c0.483 0.245 0.576 0.721 0.305 1.536l-0.541 1.628c-0.54 1.628 0.159 2.765 1.443 2.841 1.677 0.095 2.693-1.101 2.693-1.101z"></path>
	<path d="M17.735 13.333c0 0.958-0.777 1.735-1.735 1.735s-1.735-0.777-1.735-1.735c0-0.958 0.777-1.735 1.735-1.735s1.735 0.777 1.735 1.735z"></path>
</svg>
