<?xml version="1.0" encoding="utf-8"?>
<!DOCTYPE svg PUBLIC "-//W3C//DTD SVG 1.1//EN" "http://www.w3.org/Graphics/SVG/1.1/DTD/svg11.dtd">
<svg version="1.1" xmlns="http://www.w3.org/2000/svg" xmlns:xlink="http://www.w3.org/1999/xlink" width="32" height="32" viewBox="0 0 32 32">

	<path d="M18.452 23.367c-0.008 0.003-0.745 0.248-1.385 0.248-0.353 0-0.496-0.073-0.541-0.105-0.224-0.156-0.64-0.448 0.072-1.867l1.333-2.659c0.791-1.579 0.908-3.105 0.327-4.3-0.475-0.977-1.385-1.648-2.56-1.888-0.423-0.087-0.852-0.129-1.277-0.129-2.465 0-4.125 1.44-4.195 1.501-0.239 0.211-0.295 0.56-0.136 0.835 0.16 0.275 0.489 0.4 0.793 0.296 0.007-0.003 0.745-0.249 1.385-0.249 0.351 0 0.492 0.073 0.536 0.104 0.225 0.157 0.643 0.453-0.068 1.869l-1.333 2.66c-0.792 1.58-0.908 3.107-0.327 4.3 0.475 0.977 1.384 1.648 2.561 1.888 0.419 0.084 0.848 0.129 1.272 0.129 2.467 0 4.128-1.44 4.197-1.501 0.239-0.209 0.295-0.56 0.136-0.835-0.16-0.273-0.492-0.396-0.791-0.297z"></path>
	<path d="M20.667 8.001c0 1.841-1.492 3.333-3.333 3.333s-3.333-1.492-3.333-3.333c0-1.841 1.492-3.333 3.333-3.333s3.333 1.492 3.333 3.333z"></path>
</svg>
