<?xml version="1.0" encoding="utf-8"?>
<!DOCTYPE svg PUBLIC "-//W3C//DTD SVG 1.1//EN" "http://www.w3.org/Graphics/SVG/1.1/DTD/svg11.dtd">
<svg version="1.1" xmlns="http://www.w3.org/2000/svg" xmlns:xlink="http://www.w3.org/1999/xlink" width="32" height="32" viewBox="0 0 32 32">

	<path d="M21.333 25.333h-10.667c-2.205 0-4-1.795-4-4v-10.667c0-2.205 1.795-4 4-4h6.667c0.737 0 1.333 0.597 1.333 1.333s-0.596 1.333-1.333 1.333h-6.667c-0.736 0-1.333 0.599-1.333 1.333v10.667c0 0.735 0.597 1.333 1.333 1.333h10.667c0.736 0 1.333-0.599 1.333-1.333v-4c0-0.736 0.596-1.333 1.333-1.333s1.333 0.597 1.333 1.333v4c0 2.205-1.795 4-4 4z"></path>
	<path d="M17.555 19.777c-0.467 0-0.919-0.185-1.255-0.521l-3.557-3.556c-0.693-0.695-0.693-1.82 0-2.513 0.695-0.695 1.82-0.695 2.516 0l1.888 1.889 4.633-7.273c0.476-0.859 1.56-1.169 2.419-0.692 0.857 0.477 1.167 1.56 0.691 2.417l-5.779 9.333c-0.271 0.488-0.755 0.82-1.307 0.897-0.085 0.013-0.165 0.019-0.249 0.019z"></path>
</svg>
