<?xml version="1.0" encoding="utf-8"?>
<!DOCTYPE svg PUBLIC "-//W3C//DTD SVG 1.1//EN" "http://www.w3.org/Graphics/SVG/1.1/DTD/svg11.dtd">
<svg version="1.1" xmlns="http://www.w3.org/2000/svg" xmlns:xlink="http://www.w3.org/1999/xlink" width="32" height="32" viewBox="0 0 32 32">

	<path d="M26.513 8.236c-0.295-1.028-0.971-1.879-1.903-2.397-0.593-0.331-1.265-0.505-1.943-0.505-1.149 0-2.215 0.508-2.959 1.333h-9.043c-2.205 0-4 1.795-4 4v10.667c0 2.205 1.795 4 4 4h10.667c2.205 0 4-1.795 4-4v-8.605l0.829-1.451c0.52-0.933 0.643-2.013 0.351-3.041zM21.503 8.687c0.139-0.252 0.36-0.437 0.612-0.555 0.401-0.151 0.831-0.169 1.2 0.036 0.309 0.173 0.536 0.457 0.635 0.8 0.044 0.156 0.052 0.315 0.040 0.471-0.016 0.153-0.057 0.303-0.123 0.443-0.013 0.028-0.013 0.060-0.028 0.087l-5.341 9.348c-0.201 0.364-0.569 0.615-0.989 0.675-0.059 0.008-0.117 0.012-0.176 0.012-0.356 0-0.691-0.139-0.943-0.391l-4-4c-0.52-0.52-0.52-1.365 0-1.885 0.252-0.252 0.587-0.391 0.943-0.391s0.691 0.139 0.943 0.391l2.727 2.727 4.501-7.767zM21.333 22.667h-10.667c-0.736 0-1.333-0.599-1.333-1.333v-10.667c0-0.735 0.597-1.333 1.333-1.333h8.919l-2.867 4.949-1.5-1.5c-0.521-0.521-1.203-0.781-1.885-0.781s-1.364 0.26-1.885 0.781c-1.041 1.041-1.041 2.729 0 3.771l4 4c0.504 0.504 1.184 0.781 1.885 0.781 0.123 0 0.247-0.008 0.369-0.027 0.828-0.116 1.555-0.615 1.961-1.347l3.003-5.253v6.625c0 0.735-0.597 1.333-1.333 1.333z"></path>
</svg>
