<?xml version="1.0" encoding="utf-8"?>
<!DOCTYPE svg PUBLIC "-//W3C//DTD SVG 1.1//EN" "http://www.w3.org/Graphics/SVG/1.1/DTD/svg11.dtd">
<svg version="1.1" xmlns="http://www.w3.org/2000/svg" xmlns:xlink="http://www.w3.org/1999/xlink" width="32" height="32" viewBox="0 0 32 32">

	<path d="M13.333 28h-8v-5.885l5.044-5.044c-0.249-0.783-0.377-1.589-0.377-2.404 0-4.412 3.588-8 8-8s8 3.588 8 8-3.588 8-8 8h-2v2.667h-2.667v2.667zM8 25.333h2.667v-2.667h2.667v-2.667h4.667c2.941 0 5.333-2.392 5.333-5.333s-2.392-5.333-5.333-5.333-5.333 2.392-5.333 5.333c0 0.745 0.161 1.479 0.479 2.185l0.38 0.841-5.525 5.525v2.115z"></path>
	<path d="M18 13.331c0.735 0 1.333 0.599 1.333 1.336 0 0.736-0.599 1.333-1.333 1.333s-1.333-0.597-1.333-1.333c0-0.737 0.599-1.336 1.333-1.336zM18 11.997c-1.472 0-2.667 1.195-2.667 2.669 0 1.472 1.195 2.667 2.667 2.667 1.473 0 2.667-1.195 2.667-2.667 0-1.473-1.193-2.669-2.667-2.669z"></path>
</svg>
