<?xml version="1.0" encoding="utf-8"?>
<!DOCTYPE svg PUBLIC "-//W3C//DTD SVG 1.1//EN" "http://www.w3.org/Graphics/SVG/1.1/DTD/svg11.dtd">
<svg version="1.1" xmlns="http://www.w3.org/2000/svg" xmlns:xlink="http://www.w3.org/1999/xlink" width="32" height="32" viewBox="0 0 32 32">

	<path d="M11.333 14.667c0 0.976 0.221 1.899 0.599 2.735l-5.265 5.265c0 0 0 0.896 0 2s1.195 2 2.667 2h2.667v-2.667h2.667v-2.667c0 0 3.105 0 3.333 0 3.683 0 6.667-2.984 6.667-6.667s-2.984-6.667-6.667-6.667-6.667 2.984-6.667 6.667zM18 17.333c-1.472 0-2.667-1.195-2.667-2.667 0-1.473 1.195-2.669 2.667-2.669 1.473 0 2.667 1.195 2.667 2.669 0 1.472-1.193 2.667-2.667 2.667z"></path>
</svg>
