<?xml version="1.0" encoding="utf-8"?>
<!DOCTYPE svg PUBLIC "-//W3C//DTD SVG 1.1//EN" "http://www.w3.org/Graphics/SVG/1.1/DTD/svg11.dtd">
<svg version="1.1" xmlns="http://www.w3.org/2000/svg" xmlns:xlink="http://www.w3.org/1999/xlink" width="32" height="32" viewBox="0 0 32 32">

	<path d="M26.667 14.667c0-6.533-4.665-12.133-11.093-13.311l-0.24-0.045-0.24 0.044c-6.428 1.179-11.093 6.779-11.093 13.312 0 6.156 4.144 11.48 10 13.060v1.607c0 0.737 0.597 1.333 1.333 1.333s1.333-0.596 1.333-1.333v-1.607c5.856-1.58 10-6.904 10-13.060zM16.667 24.933v-3.991l5.805-5.805c0.26-0.26 0.26-0.683 0-0.943s-0.683-0.26-0.943 0l-4.863 4.863v-4.781l3.139-3.139c0.26-0.26 0.26-0.683 0-0.943s-0.683-0.26-0.943 0l-2.196 2.196v-4.391c0-0.737-0.597-1.333-1.333-1.333s-1.333 0.596-1.333 1.333v4.391l-2.195-2.196c-0.26-0.26-0.683-0.26-0.943 0s-0.26 0.683 0 0.943l3.139 3.139v4.781l-4.861-4.861c-0.26-0.26-0.683-0.26-0.943 0s-0.26 0.683 0 0.943l5.805 5.805v3.989c-4.332-1.488-7.336-5.572-7.336-10.267 0-5.165 3.631-9.601 8.667-10.641 5.036 1.040 8.667 5.476 8.667 10.641 0 4.695-3.004 8.779-7.333 10.267z"></path>
</svg>
