<?xml version="1.0" encoding="utf-8"?>
<!DOCTYPE svg PUBLIC "-//W3C//DTD SVG 1.1//EN" "http://www.w3.org/Graphics/SVG/1.1/DTD/svg11.dtd">
<svg version="1.1" xmlns="http://www.w3.org/2000/svg" xmlns:xlink="http://www.w3.org/1999/xlink" width="32" height="32" viewBox="0 0 32 32">

	<path d="M16.667 7.333c-0.368 0-0.667 0.299-0.667 0.667s0.299 0.667 0.667 0.667c1.444 0 2.619 1.175 2.619 2.619 0 0.368 0.299 0.667 0.667 0.667s0.667-0.299 0.667-0.667c0-2.179-1.773-3.952-3.952-3.952z"></path>
	<path d="M16.667 1.333c-5.515 0-10 4.485-10 10 0 1.981 0.587 3.896 1.699 5.553 0.031 0.063 0.065 0.123 0.107 0.18 2.433 3.475 2.861 4.573 2.861 5.6v4c0 0.736 0.597 1.333 1.333 1.333h2.667c0 0.347 0.147 0.693 0.387 0.947 0.253 0.24 0.6 0.387 0.947 0.387s0.693-0.147 0.947-0.387c0.24-0.253 0.387-0.6 0.387-0.947h2.667c0.736 0 1.333-0.597 1.333-1.333v-4c0-1.043 0.425-2.147 2.843-5.599 1.193-1.7 1.824-3.683 1.824-5.735 0-5.515-4.485-10-10-10zM19.333 25.333h-5.333v-1.333h5.333v1.333zM22.66 15.537c-1.955 2.791-2.857 4.385-3.18 5.796h-1.48v-2.667c0-0.736-0.597-1.333-1.333-1.333s-1.333 0.597-1.333 1.333v2.667h-1.484c-0.32-1.373-1.197-2.933-3.075-5.627-0.029-0.059-0.064-0.116-0.103-0.172-0.876-1.245-1.339-2.699-1.339-4.201 0-4.044 3.289-7.333 7.333-7.333s7.333 3.289 7.333 7.333c0 1.501-0.463 2.955-1.34 4.204z"></path>
</svg>
