<?xml version="1.0" encoding="utf-8"?>
<!DOCTYPE svg PUBLIC "-//W3C//DTD SVG 1.1//EN" "http://www.w3.org/Graphics/SVG/1.1/DTD/svg11.dtd">
<svg version="1.1" xmlns="http://www.w3.org/2000/svg" xmlns:xlink="http://www.w3.org/1999/xlink" width="32" height="32" viewBox="0 0 32 32">

	<path d="M24.369 8.428c-0.573-0.573-1.501-0.573-2.075 0l-2.295 2.296-0.411-0.411c-1.557-1.557-4.288-1.557-5.845 0l-5.563 5.563c-0.779 0.779-1.208 1.817-1.208 2.923s0.429 2.144 1.208 2.923l0.411 0.411-2.296 2.296c-0.573 0.573-0.573 1.501 0 2.075 0.287 0.287 0.661 0.429 1.037 0.429s0.751-0.143 1.037-0.429l2.296-2.296 0.411 0.411c0.779 0.779 1.816 1.208 2.923 1.208s2.144-0.429 2.923-1.208l5.563-5.563c0.779-0.779 1.208-1.816 1.208-2.923s-0.429-2.144-1.208-2.923l-0.411-0.411 2.296-2.296c0.572-0.573 0.572-1.501-0.001-2.075zM20.411 16.98l-5.563 5.563c-0.224 0.224-0.536 0.337-0.848 0.337s-0.624-0.112-0.848-0.337l-0.411-0.411 0.963-0.963c0.573-0.573 0.573-1.501 0-2.075-0.287-0.287-0.661-0.429-1.037-0.429s-0.751 0.143-1.037 0.429l-0.963 0.963-0.411-0.411c-0.224-0.224-0.348-0.527-0.348-0.848s0.124-0.624 0.348-0.848l5.563-5.563c0.224-0.224 0.525-0.348 0.848-0.348s0.624 0.124 0.848 0.348l0.411 0.411-0.963 0.963c-0.573 0.573-0.573 1.501 0 2.075 0.287 0.287 0.661 0.429 1.037 0.429s0.751-0.143 1.037-0.429l0.963-0.963 0.411 0.411c0.224 0.224 0.348 0.527 0.348 0.848s-0.124 0.624-0.348 0.848z"></path>
</svg>
