<?xml version="1.0" encoding="utf-8"?>
<!DOCTYPE svg PUBLIC "-//W3C//DTD SVG 1.1//EN" "http://www.w3.org/Graphics/SVG/1.1/DTD/svg11.dtd">
<svg version="1.1" xmlns="http://www.w3.org/2000/svg" xmlns:xlink="http://www.w3.org/1999/xlink" width="32" height="32" viewBox="0 0 32 32">

	<path d="M23.333 7.999c0.376 0 0.749 0.141 1.036 0.428 0.575 0.575 0.575 1.503 0 2.076l-2.293 2.297 0.409 0.411c0.78 0.779 1.208 1.816 1.208 2.923s-0.428 2.143-1.208 2.921l-5.563 5.563c-0.779 0.779-1.815 1.208-2.921 1.208s-2.143-0.429-2.921-1.208l-0.413-0.412-2.297 2.297c-0.287 0.287-0.66 0.429-1.036 0.429s-0.749-0.143-1.036-0.429c-0.575-0.573-0.575-1.501 0-2.076l2.293-2.293-0.411-0.412c-0.777-0.779-1.207-1.815-1.207-2.921s0.428-2.144 1.207-2.923l5.564-5.564c0.779-0.779 1.849-1.167 2.921-1.167s2.143 0.388 2.921 1.167l0.413 0.411 2.297-2.297c0.287-0.287 0.66-0.428 1.036-0.428zM23.333 5.332c-1.104 0-2.14 0.428-2.921 1.211l-0.656 0.655c-0.943-0.468-2.005-0.719-3.088-0.719-1.817 0-3.569 0.711-4.807 1.948l-5.563 5.564c-1.285 1.283-1.992 2.988-1.992 4.809 0 1.096 0.256 2.155 0.744 3.103l-0.639 0.64c-0.781 0.78-1.212 1.819-1.212 2.924 0 1.103 0.429 2.14 1.211 2.921 0.779 0.781 1.817 1.211 2.921 1.211s2.14-0.429 2.921-1.211l0.64-0.64c0.948 0.487 2.005 0.745 3.104 0.745 1.817 0 3.527-0.707 4.807-1.989l5.563-5.563c1.284-1.283 1.989-2.989 1.989-4.807 0-1.099-0.256-2.156-0.744-3.104l0.639-0.64c0.785-0.783 1.216-1.821 1.216-2.924 0-1.104-0.429-2.141-1.211-2.923-0.783-0.784-1.819-1.212-2.923-1.212z"></path>
	<path d="M15.2 14.891c0.023 0.713 0.311 1.381 0.817 1.888 0.508 0.507 1.175 0.797 1.888 0.819l-2.443 2.441c-0.023-0.712-0.312-1.38-0.817-1.887-0.508-0.507-1.175-0.796-1.888-0.819l2.443-2.443zM16.667 12.039c-0.323 0-0.624 0.125-0.849 0.349l-5.563 5.563c-0.224 0.224-0.347 0.527-0.347 0.849 0 0.32 0.123 0.623 0.347 0.847l0.412 0.411 0.964-0.964c0.287-0.287 0.66-0.428 1.036-0.428s0.749 0.141 1.036 0.428c0.575 0.575 0.575 1.503 0 2.076l-0.96 0.964 0.411 0.411c0.224 0.224 0.535 0.337 0.848 0.337s0.624-0.112 0.849-0.337l5.563-5.564c0.224-0.224 0.347-0.527 0.347-0.847 0-0.323-0.123-0.625-0.347-0.849l-0.413-0.412-0.964 0.964c-0.287 0.287-0.66 0.429-1.036 0.429s-0.749-0.143-1.036-0.429c-0.575-0.573-0.575-1.501 0-2.076l0.96-0.96-0.409-0.412c-0.225-0.224-0.527-0.349-0.848-0.349z"></path>
</svg>
