<?xml version="1.0" encoding="utf-8"?>
<!DOCTYPE svg PUBLIC "-//W3C//DTD SVG 1.1//EN" "http://www.w3.org/Graphics/SVG/1.1/DTD/svg11.dtd">
<svg version="1.1" xmlns="http://www.w3.org/2000/svg" xmlns:xlink="http://www.w3.org/1999/xlink" width="32" height="32" viewBox="0 0 32 32">

	<path d="M23.543 7.072c-4.165-4.097-10.919-4.097-15.084 0-4.165 4.099-4.165 10.743 0 14.84l7.541 7.42 7.543-7.42c4.165-4.097 4.165-10.741 0-14.84zM16 17.999c-0.891 0-1.727-0.347-2.357-0.976-1.3-1.3-1.3-3.415 0-4.715 0.629-0.629 1.467-0.976 2.357-0.976s1.728 0.347 2.357 0.976c1.3 1.3 1.3 3.416 0 4.715-0.629 0.629-1.467 0.976-2.357 0.976z"></path>
</svg>
