<?xml version="1.0" encoding="utf-8"?>
<!DOCTYPE svg PUBLIC "-//W3C//DTD SVG 1.1//EN" "http://www.w3.org/Graphics/SVG/1.1/DTD/svg11.dtd">
<svg version="1.1" xmlns="http://www.w3.org/2000/svg" xmlns:xlink="http://www.w3.org/1999/xlink" width="32" height="32" viewBox="0 0 32 32">

	<path d="M16 6.667c2.145 0 4.16 0.819 5.672 2.307 1.501 1.476 2.328 3.439 2.328 5.52s-0.827 4.040-2.327 5.519l-5.673 5.579-5.672-5.581c-1.5-1.476-2.327-3.435-2.327-5.519s0.827-4.043 2.327-5.521c1.513-1.484 3.529-2.303 5.672-2.303zM16 4c-2.729 0-5.461 1.024-7.543 3.073-4.165 4.099-4.165 10.743 0 14.841l7.543 7.417 7.543-7.42c4.165-4.096 4.165-10.741 0-14.839-2.081-2.049-4.812-3.073-7.543-3.073z"></path>
	<path d="M16 11.332c0.891 0 1.728 0.347 2.357 0.975 1.301 1.301 1.301 3.416 0 4.716-0.631 0.629-1.467 0.975-2.357 0.975s-1.727-0.347-2.357-0.975c-1.301-1.301-1.301-3.416 0-4.716 0.631-0.628 1.468-0.975 2.357-0.975zM16 9.999c-1.195 0-2.389 0.456-3.3 1.365-1.823 1.823-1.823 4.779 0 6.601 0.912 0.912 2.104 1.365 3.3 1.365s2.389-0.456 3.3-1.365c1.821-1.823 1.821-4.779 0-6.601-0.911-0.911-2.105-1.365-3.3-1.365z"></path>
</svg>
