<?xml version="1.0" encoding="utf-8"?>
<!DOCTYPE svg PUBLIC "-//W3C//DTD SVG 1.1//EN" "http://www.w3.org/Graphics/SVG/1.1/DTD/svg11.dtd">
<svg version="1.1" xmlns="http://www.w3.org/2000/svg" xmlns:xlink="http://www.w3.org/1999/xlink" width="32" height="32" viewBox="0 0 32 32">

	<path d="M24 5.333c-2.941 0-5.333 2.393-5.333 5.333v4h-5.333v-1.333h-4c-1.471 0-2.667 1.195-2.667 2.667v9.333c0 1.472 1.196 2.667 2.667 2.667h13.333c1.471 0 2.667-1.195 2.667-2.667v-9.333c0-1.472-1.196-2.667-2.667-2.667h-1.333v-2.667c0-1.472 1.196-2.667 2.667-2.667s2.667 1.195 2.667 2.667v4c0 0.737 0.597 1.333 1.333 1.333s1.333-0.596 1.333-1.333v-4c0-2.94-2.392-5.333-5.333-5.333zM16 24.399c-0.959 0-1.733-0.773-1.733-1.732s0.775-1.735 1.733-1.735 1.733 0.776 1.733 1.735-0.775 1.732-1.733 1.732z"></path>
</svg>
