<?xml version="1.0" encoding="utf-8"?>
<!DOCTYPE svg PUBLIC "-//W3C//DTD SVG 1.1//EN" "http://www.w3.org/Graphics/SVG/1.1/DTD/svg11.dtd">
<svg version="1.1" xmlns="http://www.w3.org/2000/svg" xmlns:xlink="http://www.w3.org/1999/xlink" width="32" height="32" viewBox="0 0 32 32">

	<path d="M27.177 4.101c-0.497-0.207-1.072-0.092-1.453 0.289l-5.156 5.156-5.735-4.588c-0.528-0.421-1.297-0.383-1.776 0.099l-6 6c-0.251 0.249-0.391 0.588-0.391 0.943v13.333c0 0.539 0.324 1.027 0.823 1.232 0.165 0.071 0.339 0.101 0.511 0.101 0.347 0 0.688-0.136 0.943-0.391l5.156-5.156 5.735 4.588c0.528 0.421 1.295 0.38 1.776-0.099l6-6c0.251-0.249 0.391-0.588 0.391-0.943v-13.333c0-0.539-0.324-1.027-0.823-1.232zM9.333 22.115v-9.563l4-4v9.653c-0.093 0.057-4 3.909-4 3.909zM14.833 18.292c-0.051-0.039-0.112-0.060-0.167-0.091v-9.959c0 0 5.279 4.191 5.333 4.221v9.964l-5.167-4.136zM25.333 18.115l-4 4v-9.648c0.093-0.057 4-3.915 4-3.915v9.563z"></path>
</svg>
