<?xml version="1.0" encoding="utf-8"?>
<!DOCTYPE svg PUBLIC "-//W3C//DTD SVG 1.1//EN" "http://www.w3.org/Graphics/SVG/1.1/DTD/svg11.dtd">
<svg version="1.1" xmlns="http://www.w3.org/2000/svg" xmlns:xlink="http://www.w3.org/1999/xlink" width="32" height="32" viewBox="0 0 32 32">

	<path d="M21.333 28h-10.667c-2.205 0-4-1.795-4-4s1.795-4 4-4h10.667c2.205 0 4 1.795 4 4s-1.795 4-4 4zM10.667 22.667c-0.735 0-1.333 0.597-1.333 1.333s0.599 1.333 1.333 1.333h10.667c0.735 0 1.333-0.597 1.333-1.333s-0.599-1.333-1.333-1.333h-10.667z"></path>
	<path d="M16 9.155l6.619 6.795c0.016 0.017 0.032 0.033 0.048 0.051l-13.333 0.005c0.036-0.037 0.072-0.077 0.107-0.116l6.56-6.735zM16 5.333c0 0-5.145 5.284-8.577 8.805-0.465 0.484-0.756 1.137-0.756 1.861 0 1.472 1.195 2.667 2.667 2.667h13.333c1.472 0 2.667-1.195 2.667-2.667 0-0.724-0.291-1.377-0.757-1.857-3.431-3.525-8.576-8.809-8.576-8.809z"></path>
</svg>
