<?xml version="1.0" encoding="utf-8"?>
<!DOCTYPE svg PUBLIC "-//W3C//DTD SVG 1.1//EN" "http://www.w3.org/Graphics/SVG/1.1/DTD/svg11.dtd">
<svg version="1.1" xmlns="http://www.w3.org/2000/svg" xmlns:xlink="http://www.w3.org/1999/xlink" width="32" height="32" viewBox="0 0 32 32">

	<path d="M20.071 9.216c-0.432-0.419-1.020-0.683-1.671-0.683-1.325 0-2.4 1.076-2.4 2.401v12c0 1.325 1.075 2.399 2.4 2.399 0.651 0 1.24-0.26 1.671-0.683 3.175-3.085 7.929-7.716 7.929-7.716s-4.755-4.632-7.929-7.719z"></path>
	<path d="M8.071 9.216c-0.432-0.419-1.020-0.683-1.671-0.683-1.325 0-2.4 1.076-2.4 2.401v12c0 1.325 1.075 2.399 2.4 2.399 0.651 0 1.24-0.26 1.671-0.683 3.175-3.085 7.929-7.716 7.929-7.716s-4.755-4.632-7.929-7.719z"></path>
</svg>
