<?xml version="1.0" encoding="utf-8"?>
<!DOCTYPE svg PUBLIC "-//W3C//DTD SVG 1.1//EN" "http://www.w3.org/Graphics/SVG/1.1/DTD/svg11.dtd">
<svg version="1.1" xmlns="http://www.w3.org/2000/svg" xmlns:xlink="http://www.w3.org/1999/xlink" width="32" height="32" viewBox="0 0 32 32">

	<path d="M22.667 21.333h-13.333c-1.472 0-2.667 1.193-2.667 2.667 0 1.472 1.195 2.667 2.667 2.667h13.333c1.472 0 2.667-1.195 2.667-2.667 0-1.473-1.195-2.667-2.667-2.667z"></path>
	<path d="M24.577 14.139c-3.432-3.521-8.577-8.805-8.577-8.805s-5.145 5.284-8.577 8.805c-0.465 0.484-0.756 1.137-0.756 1.861 0 1.472 1.195 2.667 2.667 2.667h13.333c1.472 0 2.667-1.195 2.667-2.667 0-0.724-0.291-1.377-0.756-1.861z"></path>
</svg>
