<?xml version="1.0" encoding="utf-8"?>
<!DOCTYPE svg PUBLIC "-//W3C//DTD SVG 1.1//EN" "http://www.w3.org/Graphics/SVG/1.1/DTD/svg11.dtd">
<svg version="1.1" xmlns="http://www.w3.org/2000/svg" xmlns:xlink="http://www.w3.org/1999/xlink" width="32" height="32" viewBox="0 0 32 32">

	<path d="M13.6 8.533c-0.651 0-1.241 0.263-1.671 0.683-3.175 3.087-7.929 7.719-7.929 7.719s4.755 4.631 7.925 7.719c0.435 0.42 1.024 0.68 1.675 0.68 1.325 0 2.4-1.073 2.4-2.399v-12c0-1.325-1.075-2.401-2.4-2.401z"></path>
	<path d="M25.6 8.533c-0.651 0-1.241 0.263-1.671 0.683-3.175 3.087-7.929 7.719-7.929 7.719s4.755 4.631 7.925 7.719c0.435 0.42 1.024 0.68 1.675 0.68 1.325 0 2.4-1.073 2.4-2.399v-12c0-1.325-1.075-2.401-2.4-2.401z"></path>
</svg>
