<?xml version="1.0" encoding="utf-8"?>
<!DOCTYPE svg PUBLIC "-//W3C//DTD SVG 1.1//EN" "http://www.w3.org/Graphics/SVG/1.1/DTD/svg11.dtd">
<svg version="1.1" xmlns="http://www.w3.org/2000/svg" xmlns:xlink="http://www.w3.org/1999/xlink" width="32" height="32" viewBox="0 0 32 32">

	<path d="M10.667 26.667c-2.205 0-4-1.795-4-4v-12c0-2.205 1.795-4 4-4s4 1.795 4 4v12c0 2.205-1.795 4-4 4zM10.667 9.333c-0.736 0-1.333 0.599-1.333 1.333v12c0 0.735 0.597 1.333 1.333 1.333s1.333-0.599 1.333-1.333v-12c0-0.735-0.597-1.333-1.333-1.333z"></path>
	<path d="M20 26.667c-2.205 0-4-1.795-4-4v-12c0-2.205 1.795-4 4-4s4 1.795 4 4v12c0 2.205-1.795 4-4 4zM20 9.333c-0.736 0-1.333 0.599-1.333 1.333v12c0 0.735 0.597 1.333 1.333 1.333s1.333-0.599 1.333-1.333v-12c0-0.735-0.597-1.333-1.333-1.333z"></path>
</svg>
