<?xml version="1.0" encoding="utf-8"?>
<!DOCTYPE svg PUBLIC "-//W3C//DTD SVG 1.1//EN" "http://www.w3.org/Graphics/SVG/1.1/DTD/svg11.dtd">
<svg version="1.1" xmlns="http://www.w3.org/2000/svg" xmlns:xlink="http://www.w3.org/1999/xlink" width="32" height="32" viewBox="0 0 32 32">

	<path d="M28 9.333h-4c0-2.2-1.8-4-4-4h-16c-2.2 0-4 1.8-4 4v9.333c0 2.2 1.8 4 4 4v4l4-4c0 2.2 1.8 4 4 4h10.667l4 4v-4h1.333c2.2 0 4-1.8 4-4v-9.333c0-2.2-1.8-4-4-4zM4 20c-0.723 0-1.333-0.611-1.333-1.333v-9.333c0-0.723 0.611-1.333 1.333-1.333h16c0.723 0 1.333 0.611 1.333 1.333v1.333h-8.667c-1.839 0-3.333 1.495-3.333 3.333v6h-5.333zM29.333 22.667c0 0.723-0.611 1.333-1.333 1.333h-16c-0.723 0-1.333-0.611-1.333-1.333v-8.667c0-1.103 0.897-2 2-2h15.333c0.723 0 1.333 0.611 1.333 1.333v9.333z"></path>
</svg>
