<?xml version="1.0" encoding="utf-8"?>
<!DOCTYPE svg PUBLIC "-//W3C//DTD SVG 1.1//EN" "http://www.w3.org/Graphics/SVG/1.1/DTD/svg11.dtd">
<svg version="1.1" xmlns="http://www.w3.org/2000/svg" xmlns:xlink="http://www.w3.org/1999/xlink" width="32" height="32" viewBox="0 0 32 32">

	<path d="M24 9.333c0.723 0 1.333 0.611 1.333 1.333v9.333c0 0.723-0.611 1.333-1.333 1.333h-11.772l-0.228 0.228v-0.228h-4c-0.723 0-1.333-0.611-1.333-1.333v-9.333c0-0.723 0.611-1.333 1.333-1.333h16zM24 6.667h-16c-2.2 0-4 1.8-4 4v9.333c0 2.2 1.8 4 4 4h1.333v4l4-4h10.667c2.2 0 4-1.8 4-4v-9.333c0-2.2-1.8-4-4-4z"></path>
</svg>
