<?xml version="1.0" encoding="utf-8"?>
<!DOCTYPE svg PUBLIC "-//W3C//DTD SVG 1.1//EN" "http://www.w3.org/Graphics/SVG/1.1/DTD/svg11.dtd">
<svg version="1.1" xmlns="http://www.w3.org/2000/svg" xmlns:xlink="http://www.w3.org/1999/xlink" width="32" height="32" viewBox="0 0 32 32">

	<path d="M28 5.333h-24c-1.472 0-2.667 1.195-2.667 2.667v16c0 1.472 1.195 2.667 2.667 2.667h24c1.472 0 2.667-1.195 2.667-2.667v-16c0-1.472-1.195-2.667-2.667-2.667zM4 8h10.667v16h-10.667v-16zM28 24h-12v-16h12.004l-0.004 16z"></path>
	<path d="M26.667 18c0-0.367-0.3-0.667-0.667-0.667h-1.333c-0.367 0-0.667 0.3-0.667 0.667v4c0 0.367 0.3 0.667 0.667 0.667h1.333c0.367 0 0.667-0.3 0.667-0.667v-4z"></path>
	<path d="M22.667 10c0-0.367-0.3-0.667-0.667-0.667h-4c-0.367 0-0.667 0.3-0.667 0.667v6.667c0 0.367 0.3 0.667 0.667 0.667h4c0.367 0 0.667-0.3 0.667-0.667v-6.667z"></path>
	<path d="M24.667 13.333h1.333c0.367 0 0.667-0.3 0.667-0.667s-0.3-0.667-0.667-0.667h-1.333c-0.367 0-0.667 0.3-0.667 0.667s0.3 0.667 0.667 0.667z"></path>
	<path d="M24.667 16h1.333c0.367 0 0.667-0.3 0.667-0.667s-0.3-0.667-0.667-0.667h-1.333c-0.367 0-0.667 0.3-0.667 0.667s0.3 0.667 0.667 0.667z"></path>
	<path d="M18 20h4c0.367 0 0.667-0.3 0.667-0.667s-0.3-0.667-0.667-0.667h-4c-0.367 0-0.667 0.3-0.667 0.667s0.3 0.667 0.667 0.667z"></path>
	<path d="M22 21.333h-4c-0.367 0-0.667 0.3-0.667 0.667s0.3 0.667 0.667 0.667h4c0.367 0 0.667-0.3 0.667-0.667s-0.3-0.667-0.667-0.667z"></path>
	<path d="M24.667 10.667h1.333c0.367 0 0.667-0.3 0.667-0.667s-0.3-0.667-0.667-0.667h-1.333c-0.367 0-0.667 0.3-0.667 0.667s0.3 0.667 0.667 0.667z"></path>
	<path d="M13.333 10c0-0.367-0.3-0.667-0.667-0.667h-6.667c-0.367 0-0.667 0.3-0.667 0.667v4c0 0.367 0.3 0.667 0.667 0.667h6.667c0.367 0 0.667-0.3 0.667-0.667v-4z"></path>
	<path d="M12.668 18.667h-6.667c-0.365 0-0.667 0.3-0.667 0.667s0.301 0.667 0.667 0.667h6.667c0.365 0 0.665-0.3 0.665-0.667s-0.3-0.667-0.665-0.667z"></path>
	<path d="M12.668 16h-6.667c-0.365 0-0.667 0.3-0.667 0.667s0.301 0.667 0.667 0.667h6.667c0.365 0 0.665-0.3 0.665-0.667s-0.3-0.667-0.665-0.667z"></path>
	<path d="M12.668 21.333h-6.667c-0.365 0-0.667 0.3-0.667 0.667s0.301 0.667 0.667 0.667h6.667c0.365 0 0.665-0.3 0.665-0.667s-0.3-0.667-0.665-0.667z"></path>
</svg>
