<?xml version="1.0" encoding="utf-8"?>
<!DOCTYPE svg PUBLIC "-//W3C//DTD SVG 1.1//EN" "http://www.w3.org/Graphics/SVG/1.1/DTD/svg11.dtd">
<svg version="1.1" xmlns="http://www.w3.org/2000/svg" xmlns:xlink="http://www.w3.org/1999/xlink" width="32" height="32" viewBox="0 0 32 32">

	<path d="M24.432 5.823c-0.491-0.432-1.12-0.667-1.765-0.667-0.109 0-0.22 0.007-0.331 0.021l-12 1.667c-1.335 0.167-2.336 1.3-2.336 2.645v8.148c-2.328 0.735-4 2.712-4 5.029 0 2.94 2.692 5.333 6 5.333 2.26 0 4.225-1.123 5.249-2.771 1.071 0.889 2.505 1.437 4.084 1.437 3.308 0 6-2.393 6-5.333v-13.511c0-0.765-0.328-1.492-0.901-2zM14.667 21.333v-5.675l4-0.6v2.316c-2.257 0.277-4 1.947-4 3.959zM22.667 21.333c0 1.472-1.492 2.667-3.333 2.667s-3.333-1.195-3.333-2.667 1.492-2.667 3.333-2.667c0.229 0 0.451 0.019 0.667 0.055v-5.211l-6.667 1v8.156c0 1.472-1.492 2.667-3.333 2.667s-3.333-1.195-3.333-2.667 1.492-2.667 3.333-2.667c0.229 0 0.451 0.019 0.667 0.055v-10.565l12-1.667v13.511z"></path>
</svg>
