<?xml version="1.0" encoding="utf-8"?>
<!DOCTYPE svg PUBLIC "-//W3C//DTD SVG 1.1//EN" "http://www.w3.org/Graphics/SVG/1.1/DTD/svg11.dtd">
<svg version="1.1" xmlns="http://www.w3.org/2000/svg" xmlns:xlink="http://www.w3.org/1999/xlink" width="32" height="32" viewBox="0 0 32 32">

	<path d="M28.439 9.609c0-1.616-0.629-3.136-1.772-4.276s-2.661-1.772-4.276-1.772c-1.599 0-3.103 0.617-4.24 1.739-0.036 0.033-10.623 10.619-10.623 10.619-0.497 0.497-0.956 1.213-1.289 2.019-0.26 0.631-2.639 7.817-3.115 9.252-0.159 0.477-0.033 1.005 0.323 1.361 0.252 0.252 0.593 0.391 0.943 0.391 0.14 0 0.281-0.024 0.419-0.068 1.435-0.473 8.62-2.855 9.251-3.115 0.804-0.331 1.52-0.789 2.020-1.289l2.876-2.875c0.033 0.001 0.067 0.013 0.101 0.013 0.853 0 1.707-0.325 2.359-0.976l6-6c0.928-0.927 1.183-2.265 0.784-3.429 0.143-0.515 0.24-1.044 0.24-1.593zM12.62 23.448c-0.541 0.191-1.527 0.524-2.717 0.921l-2.272-2.272c0.401-1.192 0.735-2.179 0.921-2.717l4.068 4.068zM7.157 23.511l1.332 1.332c-0.657 0.219-1.333 0.444-1.997 0.665 0.221-0.664 0.447-1.341 0.665-1.997zM17.421 19.36l-3.227 3.227c-0.081 0.081-0.201 0.159-0.313 0.24l-4.707-4.705c0.081-0.112 0.16-0.235 0.24-0.312l9.508-9.508 3.641 3.641-4.92 4.92c-0.684 0.683-0.732 1.719-0.223 2.497zM25.528 12.748l-6 6c-0.131 0.132-0.301 0.195-0.472 0.195s-0.341-0.065-0.472-0.195c-0.26-0.259-0.26-0.683 0-0.943l6-6c0.259-0.259 0.683-0.259 0.943 0 0.261 0.26 0.263 0.681 0.001 0.943zM25.671 10.396c-0.692-0.224-1.477-0.083-2.028 0.467l-0.136 0.136-3.641-3.641 0.104-0.104c1.312-1.307 3.536-1.308 4.811-0.031 0.639 0.639 0.991 1.488 0.991 2.391 0.001 0.265-0.040 0.525-0.1 0.783z"></path>
</svg>
