<?xml version="1.0" encoding="utf-8"?>
<!DOCTYPE svg PUBLIC "-//W3C//DTD SVG 1.1//EN" "http://www.w3.org/Graphics/SVG/1.1/DTD/svg11.dtd">
<svg version="1.1" xmlns="http://www.w3.org/2000/svg" xmlns:xlink="http://www.w3.org/1999/xlink" width="32" height="32" viewBox="0 0 32 32">

	<path d="M28 9.172l-5.172-5.172c-0.391-0.391-0.904-0.585-1.415-0.585-0.512 0-1.023 0.195-1.413 0.585l-14.585 14.585c-0.391 0.391-0.744 0.969-1 1.584-0.256 0.617-0.415 1.279-0.415 1.831v6h6c0.552 0 1.211-0.159 1.828-0.415s1.195-0.609 1.585-1l14.587-14.585c0.391-0.391 0.585-0.904 0.585-1.415 0-0.512-0.195-1.023-0.585-1.413zM7.691 20.081l11.057-11.057 1.643 1.643-11.057 11.057-1.643-1.643zM10 25.333h-2l-1.333-1.333v-2c0-0.103 0.044-0.407 0.211-0.807 0.013-0.027 3.956 3.917 3.956 3.917-0.429 0.179-0.731 0.223-0.833 0.223zM11.919 24.309l-1.643-1.643 11.057-11.057 1.643 1.643-11.057 11.057zM23.919 12.309l-4.229-4.229 1.724-1.724 4.227 4.229-1.721 1.724z"></path>
</svg>
