<?xml version="1.0" encoding="utf-8"?>
<!DOCTYPE svg PUBLIC "-//W3C//DTD SVG 1.1//EN" "http://www.w3.org/Graphics/SVG/1.1/DTD/svg11.dtd">
<svg version="1.1" xmlns="http://www.w3.org/2000/svg" xmlns:xlink="http://www.w3.org/1999/xlink" width="32" height="32" viewBox="0 0 32 32">

	<path d="M26.003 4.896l-2.393-2.391c-0.755-0.756-1.76-1.172-2.828-1.172s-2.073 0.416-2.828 1.172l-2.115 2.115c-1.56 1.56-1.56 4.096 0 5.656l1.839 1.839-5.563 5.563-1.839-1.839c-0.755-0.756-1.76-1.172-2.828-1.172s-2.073 0.416-2.828 1.172l-2.115 2.115c-1.56 1.56-1.56 4.096 0 5.656l2.392 2.391c0.62 0.62 2.395 2.060 5.488 2.060 3.685 0 7.592-2.039 11.615-6.060 8.327-8.328 6.433-14.669 4.003-17.104zM17.724 6.505l2.115-2.115c0.26-0.26 0.601-0.391 0.943-0.391s0.683 0.131 0.943 0.391l1.444 1.443-4.001 4-1.443-1.443c-0.521-0.521-0.521-1.364 0-1.885zM4.391 21.724c-0.521-0.521-0.521-1.364 0-1.885l2.115-2.115c0.26-0.26 0.601-0.391 0.943-0.391s0.683 0.131 0.943 0.391l1.443 1.443-3.999 4-1.444-1.443zM20.115 20.115c-4.111 4.109-7.401 5.279-9.729 5.279-1.799 0-3.023-0.697-3.603-1.279-0.005-0.005 3.993-4.005 3.993-4.005l0.396 0.396c0.26 0.26 0.601 0.391 0.943 0.391s0.683-0.131 0.943-0.391l7.448-7.448c0.521-0.521 0.521-1.364 0-1.885l-0.396-0.396 4.001-4c1.337 1.339 3.289 6.052-3.996 13.339z"></path>
</svg>
