<?xml version="1.0" encoding="utf-8"?>
<!DOCTYPE svg PUBLIC "-//W3C//DTD SVG 1.1//EN" "http://www.w3.org/Graphics/SVG/1.1/DTD/svg11.dtd">
<svg version="1.1" xmlns="http://www.w3.org/2000/svg" xmlns:xlink="http://www.w3.org/1999/xlink" width="32" height="32" viewBox="0 0 32 32">

	<path d="M17.832 9.444l4.948-4.947-0.584-0.579c-0.755-0.755-2.073-0.755-2.828 0l-2.115 2.115c-0.379 0.379-0.587 0.881-0.587 1.415s0.208 1.036 0.584 1.413l0.581 0.583z"></path>
	<path d="M8.861 17.252c-0.755-0.755-2.073-0.755-2.828 0l-2.115 2.115c-0.377 0.379-0.585 0.881-0.585 1.415s0.208 1.036 0.588 1.416l0.583 0.576 4.937-4.937-0.58-0.584z"></path>
	<path d="M24.583 6.305l-0.472-0.472-4.944 4.944 0.867 0.865c0.127 0.127 0.195 0.293 0.195 0.472s-0.069 0.345-0.195 0.472l-7.448 7.448c-0.252 0.251-0.691 0.252-0.943 0l-0.867-0.867-4.936 4.947 0.472 0.472c0.347 0.347 1.661 1.473 4.075 1.473 2.155 0 5.675-0.949 10.2-5.473 9.031-9.033 4.211-14.067 3.996-14.281z"></path>
</svg>
