<?xml version="1.0" encoding="utf-8"?>
<!DOCTYPE svg PUBLIC "-//W3C//DTD SVG 1.1//EN" "http://www.w3.org/Graphics/SVG/1.1/DTD/svg11.dtd">
<svg version="1.1" xmlns="http://www.w3.org/2000/svg" xmlns:xlink="http://www.w3.org/1999/xlink" width="32" height="32" viewBox="0 0 32 32">

	<path d="M26.828 9.495c-0.755-0.756-1.76-1.172-2.828-1.172s-2.073 0.416-2.828 1.172c-0.311 0.311-0.728 0.483-1.172 0.483s-0.861-0.172-1.172-0.483c-1.821-1.821-4.247-2.824-6.828-2.824s-5.007 1.003-6.828 2.824c-0.756 0.756-1.172 1.76-1.172 2.828s0.416 2.073 1.172 2.828c0.755 0.756 1.76 1.172 2.828 1.172v6.344c0 2.205 1.795 4 4 4s4-1.795 4-4c0 2.205 1.795 4 4 4s4-1.795 4-4v-5.555c1.045-0.475 2.001-1.135 2.827-1.96 0.757-0.756 1.173-1.761 1.173-2.829s-0.416-2.072-1.172-2.828zM24.943 13.265c-1.024 1.023-2.287 1.66-3.609 1.916v7.485c0 0.737-0.596 1.333-1.333 1.333s-1.333-0.596-1.333-1.333v-7.485c-1.323-0.255-2.585-0.893-3.609-1.916-0.499-0.499-1.095-0.831-1.724-1.033v10.435c0 0.737-0.596 1.333-1.333 1.333s-1.333-0.596-1.333-1.333v-10.436c-0.631 0.203-1.225 0.536-1.724 1.035-0.26 0.261-0.601 0.391-0.943 0.391s-0.683-0.131-0.943-0.391c-0.521-0.521-0.521-1.364 0-1.885 1.361-1.361 3.152-2.043 4.943-2.043s3.58 0.681 4.943 2.043c0.844 0.843 1.951 1.264 3.057 1.264 1.108 0 2.215-0.421 3.057-1.264 0.26-0.26 0.601-0.391 0.943-0.391s0.683 0.131 0.943 0.391c0.521 0.521 0.521 1.365 0 1.885z"></path>
</svg>
