<?xml version="1.0" encoding="utf-8"?>
<!DOCTYPE svg PUBLIC "-//W3C//DTD SVG 1.1//EN" "http://www.w3.org/Graphics/SVG/1.1/DTD/svg11.dtd">
<svg version="1.1" xmlns="http://www.w3.org/2000/svg" xmlns:xlink="http://www.w3.org/1999/xlink" width="32" height="32" viewBox="0 0 32 32">

	<path d="M24.943 11.38c-0.521-0.521-1.364-0.521-1.885 0-1.685 1.685-4.428 1.685-6.115 0-2.727-2.725-7.161-2.723-9.885 0-0.521 0.521-0.521 1.364 0 1.885s1.364 0.521 1.885 0c0.499-0.499 1.093-0.832 1.724-1.035v10.436c0 0.737 0.596 1.333 1.333 1.333s1.333-0.596 1.333-1.333v-10.435c0.629 0.203 1.225 0.535 1.724 1.033 1.024 1.023 2.287 1.66 3.609 1.916v7.485c0 0.737 0.596 1.333 1.333 1.333s1.333-0.596 1.333-1.333v-7.485c1.323-0.255 2.585-0.893 3.609-1.916 0.521-0.52 0.521-1.364 0-1.885z"></path>
</svg>
