<?xml version="1.0" encoding="utf-8"?>
<!DOCTYPE svg PUBLIC "-//W3C//DTD SVG 1.1//EN" "http://www.w3.org/Graphics/SVG/1.1/DTD/svg11.dtd">
<svg version="1.1" xmlns="http://www.w3.org/2000/svg" xmlns:xlink="http://www.w3.org/1999/xlink" width="32" height="32" viewBox="0 0 32 32">

	<path d="M22.305 5.695c-0.519-0.521-1.361-0.524-1.885-0.005-0.139 0.139-0.235 0.303-0.3 0.473-1.109 2.315-2.331 3.62-3.872 4.391-1.729 0.853-3.715 1.447-6.915 1.447-0.173 0-0.347 0.033-0.509 0.101-0.327 0.136-0.585 0.396-0.721 0.721-0.135 0.325-0.135 0.693 0 1.019 0.068 0.164 0.165 0.312 0.289 0.435l4.324 4.324-6.049 8.067 8.067-6.049 4.323 4.323c0.123 0.125 0.271 0.221 0.435 0.289 0.163 0.068 0.336 0.104 0.509 0.104s0.347-0.036 0.509-0.104c0.327-0.136 0.587-0.393 0.721-0.721 0.068-0.161 0.103-0.336 0.103-0.508 0-3.2 0.592-5.185 1.444-6.888 0.769-1.541 2.075-2.763 4.391-3.872 0.172-0.065 0.335-0.161 0.472-0.3 0.519-0.524 0.516-1.367-0.005-1.885l-5.329-5.36z"></path>
</svg>
