<?xml version="1.0" encoding="utf-8"?>
<!DOCTYPE svg PUBLIC "-//W3C//DTD SVG 1.1//EN" "http://www.w3.org/Graphics/SVG/1.1/DTD/svg11.dtd">
<svg version="1.1" xmlns="http://www.w3.org/2000/svg" xmlns:xlink="http://www.w3.org/1999/xlink" width="32" height="32" viewBox="0 0 32 32">

	<path d="M28.512 9.775c0.097-1.599-0.472-3.184-1.528-4.239-0.976-0.975-2.391-1.536-3.883-1.536-1.568 0-2.941 0.604-3.767 1.657-0.923 1.177-1.856 3.5-2.359 4.863l-2.155-2.156c-0.523-0.521-1.364-0.521-1.885 0-0.523 0.523-0.523 1.364 0 1.885l0.391 0.391-6.975 6.976c-0.5 0.5-0.959 1.216-1.291 2.021-0.025 0.057-2.301 5.771-0.124 7.945 0.703 0.701 1.773 0.943 2.904 0.943 2.371-0.003 5.004-1.049 5.044-1.068 0.803-0.331 1.521-0.789 2.019-1.289l6.976-6.976 0.391 0.391c0.26 0.26 0.601 0.391 0.943 0.391s0.683-0.131 0.943-0.391c0.521-0.521 0.521-1.363 0-1.885l-2.156-2.155c1.364-0.501 3.688-1.433 4.864-2.359 0.961-0.749 1.56-1.991 1.648-3.409zM6.825 25.7c-0.329-0.393-0.14-2.011 0.205-3.44l3.229 3.231c-1.428 0.348-3.044 0.537-3.435 0.209zM13.019 24.285c-0.251 0.251-0.681 0.517-1.153 0.711-0.045 0.020-0.107 0.037-0.155 0.056l-4.241-4.24c0.021-0.049 0.037-0.109 0.057-0.156 0.195-0.472 0.461-0.904 0.711-1.152l6.976-6.975 4.781 4.781-6.976 6.975z"></path>
</svg>
