<?xml version="1.0" encoding="utf-8"?>
<!DOCTYPE svg PUBLIC "-//W3C//DTD SVG 1.1//EN" "http://www.w3.org/Graphics/SVG/1.1/DTD/svg11.dtd">
<svg version="1.1" xmlns="http://www.w3.org/2000/svg" xmlns:xlink="http://www.w3.org/1999/xlink" width="32" height="32" viewBox="0 0 32 32">

	<path d="M26.661 18.009l-7.995-4.568v-7.941c0-1.103-0.897-2-2-2s-2 0.897-2 2v7.941l-7.995 4.568c-0.585 0.335-0.829 1.053-0.568 1.675 0.263 0.621 0.948 0.951 1.595 0.764l6.968-1.989v5.935l-2.167 1.733c-0.516 0.413-0.651 1.141-0.319 1.712s1.035 0.811 1.647 0.567l2.839-1.136 2.839 1.136c0.161 0.064 0.329 0.095 0.495 0.095 0.463 0 0.908-0.241 1.152-0.663 0.332-0.571 0.196-1.3-0.319-1.712l-2.167-1.733v-5.935l6.968 1.991c0.121 0.035 0.245 0.052 0.365 0.052 0.525 0 1.016-0.311 1.229-0.816 0.261-0.621 0.019-1.34-0.568-1.675zM16.667 5.833c-0.368 0-0.667-0.299-0.667-0.667s0.299-0.667 0.667-0.667 0.667 0.299 0.667 0.667-0.299 0.667-0.667 0.667z"></path>
</svg>
