<?xml version="1.0" encoding="utf-8"?>
<!DOCTYPE svg PUBLIC "-//W3C//DTD SVG 1.1//EN" "http://www.w3.org/Graphics/SVG/1.1/DTD/svg11.dtd">
<svg version="1.1" xmlns="http://www.w3.org/2000/svg" xmlns:xlink="http://www.w3.org/1999/xlink" width="32" height="32" viewBox="0 0 32 32">

	<path d="M27.984 16.528l-6.651-3.801v-6.393c0-2.573-2.093-4.667-4.667-4.667s-4.667 2.093-4.667 4.667v6.393l-6.651 3.801c-1.756 1.003-2.487 3.161-1.701 5.025 0.785 1.865 2.843 2.847 4.785 2.293l3.567-1.020v1.117l-1.165 0.932c-1.597 1.279-1.973 3.556-0.871 5.279 1.103 1.724 3.325 2.337 5.159 1.421 0.005-0.001 0.667-0.244 1.544-0.244s1.539 0.243 1.544 0.244c1.833 0.916 4.056 0.303 5.159-1.421 1.103-1.723 0.727-4-0.871-5.279l-1.165-0.932v-1.117l3.568 1.020c1.943 0.553 4-0.428 4.785-2.293s0.055-4.023-1.703-5.025zM27.229 20.517c-0.263 0.621-0.948 0.951-1.595 0.764l-6.968-1.989v5.935l2.167 1.733c0.532 0.425 0.657 1.185 0.291 1.76-0.367 0.573-1.104 0.777-1.72 0.473-0.011-0.005-1.099-0.527-2.737-0.527s-2.727 0.521-2.737 0.527c-0.616 0.303-1.353 0.099-1.72-0.473-0.367-0.575-0.243-1.333 0.291-1.76l2.167-1.733v-5.935l-6.968 1.991c-0.647 0.187-1.332-0.143-1.595-0.764-0.261-0.621-0.019-1.34 0.568-1.675l7.995-4.569v-7.941c0-1.103 0.897-2 2-2s2 0.897 2 2v7.941l7.995 4.568c0.587 0.335 0.829 1.053 0.568 1.675z"></path>
	<path d="M17.333 6c0 0.368-0.298 0.667-0.667 0.667s-0.667-0.298-0.667-0.667c0-0.368 0.298-0.667 0.667-0.667s0.667 0.298 0.667 0.667z"></path>
</svg>
