<?xml version="1.0" encoding="utf-8"?>
<!DOCTYPE svg PUBLIC "-//W3C//DTD SVG 1.1//EN" "http://www.w3.org/Graphics/SVG/1.1/DTD/svg11.dtd">
<svg version="1.1" xmlns="http://www.w3.org/2000/svg" xmlns:xlink="http://www.w3.org/1999/xlink" width="32" height="32" viewBox="0 0 32 32">

	<path d="M16 23.333c-5.145 0-9.333-4.188-9.333-9.333h2.667c0 3.676 2.991 6.667 6.667 6.667s6.667-2.991 6.667-6.667h2.667c0 5.145-4.188 9.333-9.333 9.333z"></path>
	<path d="M24 16c-0.737 0-1.333-0.596-1.333-1.333v-4h-13.333v4c0 0.737-0.596 1.333-1.333 1.333s-1.333-0.596-1.333-1.333v-5.333c0-0.737 0.596-1.333 1.333-1.333h16c0.737 0 1.333 0.596 1.333 1.333v5.333c0 0.737-0.596 1.333-1.333 1.333z"></path>
	<path d="M13.333 4v4h-2.667v-4h2.667zM13.333 2.667h-2.667c-0.737 0-1.333 0.596-1.333 1.333v4c0 0.737 0.596 1.333 1.333 1.333h2.667c0.737 0 1.333-0.596 1.333-1.333v-4c0-0.737-0.596-1.333-1.333-1.333z"></path>
	<path d="M17.333 23.333v3.333h-2.667v-3.333h2.667zM17.333 20.667h-2.667c-1.472 0-2.667 1.195-2.667 2.667v3.333c0 1.472 1.195 2.667 2.667 2.667h2.667c1.472 0 2.667-1.195 2.667-2.667v-3.333c0-1.472-1.195-2.667-2.667-2.667z"></path>
	<path d="M21.333 4v4h-2.667v-4h2.667zM21.333 2.667h-2.667c-0.737 0-1.333 0.596-1.333 1.333v4c0 0.737 0.596 1.333 1.333 1.333h2.667c0.737 0 1.333-0.596 1.333-1.333v-4c0-0.737-0.596-1.333-1.333-1.333z"></path>
	<path d="M24 16h-16c-0.368 0-0.667-0.299-0.667-0.667s0.299-0.667 0.667-0.667h16c0.368 0 0.667 0.299 0.667 0.667s-0.299 0.667-0.667 0.667z"></path>
	<path d="M16 22c-0.457 0-0.903-0.047-1.333-0.135v2.135h2.667v-2.135c-0.431 0.088-0.876 0.135-1.333 0.135z"></path>
	<path d="M12 21.333h1.333v2.667h-1.333v-2.667z"></path>
	<path d="M18.667 21.333h1.333v2.667h-1.333v-2.667z"></path>
</svg>
