<?xml version="1.0" encoding="utf-8"?>
<!DOCTYPE svg PUBLIC "-//W3C//DTD SVG 1.1//EN" "http://www.w3.org/Graphics/SVG/1.1/DTD/svg11.dtd">
<svg version="1.1" xmlns="http://www.w3.org/2000/svg" xmlns:xlink="http://www.w3.org/1999/xlink" width="32" height="32" viewBox="0 0 32 32">

	<path d="M16 28c-2.205 0-4-1.795-4-4l0.071-4.071-4.047 0.071c-2.229 0-4.024-1.795-4.024-4s1.795-4 4-4l4.071-0.072-0.071-3.904c0-2.229 1.795-4.024 4-4.024s4 1.795 4 4l0.073 3.928 3.951 0.072c2.181 0 3.976 1.795 3.976 4s-1.795 4-4 4l-3.927-0.071-0.073 4.095c0 2.181-1.795 3.976-4 3.976zM14.667 17.333v6.691c0 0.711 0.599 1.309 1.333 1.309s1.333-0.599 1.333-1.333v-6.667h6.691c0.711 0 1.309-0.599 1.309-1.333s-0.599-1.333-1.333-1.333h-6.667v-6.667c0-0.759-0.599-1.333-1.333-1.333s-1.333 0.599-1.333 1.333v6.667h-6.667c-0.759 0-1.333 0.599-1.333 1.333s0.599 1.333 1.333 1.333h6.667z"></path>
</svg>
