<?xml version="1.0" encoding="utf-8"?>
<!DOCTYPE svg PUBLIC "-//W3C//DTD SVG 1.1//EN" "http://www.w3.org/Graphics/SVG/1.1/DTD/svg11.dtd">
<svg version="1.1" xmlns="http://www.w3.org/2000/svg" xmlns:xlink="http://www.w3.org/1999/xlink" width="32" height="32" viewBox="0 0 32 32">

	<path d="M22 14.667c2.573 0 4.667-2.093 4.667-4.667s-2.093-4.667-4.667-4.667-4.667 2.093-4.667 4.667v2h-2.667v-2c0-2.573-2.093-4.667-4.667-4.667s-4.667 2.093-4.667 4.667 2.093 4.667 4.667 4.667h2v2.667h-2c-2.573 0-4.667 2.093-4.667 4.667s2.093 4.667 4.667 4.667 4.667-2.093 4.667-4.667v-2h2.667v2c0 2.573 2.093 4.667 4.667 4.667s4.667-2.093 4.667-4.667-2.093-4.667-4.667-4.667h-2v-2.667h2zM20 10c0-1.104 0.897-2 2-2s2 0.896 2 2c0 1.101-0.897 2-2 2h-2v-2zM12 22c0 1.101-0.897 2-2 2s-2-0.899-2-2c0-1.104 0.897-2 2-2h2v2zM12 12h-2c-1.103 0-2-0.899-2-2 0-1.104 0.897-2 2-2s2 0.896 2 2v2zM17.333 17.333h-2.667v-2.667h2.667v2.667zM22 20c1.103 0 2 0.896 2 2 0 1.101-0.897 2-2 2s-2-0.899-2-2v-2h2z"></path>
</svg>
