<?xml version="1.0" encoding="utf-8"?>
<!DOCTYPE svg PUBLIC "-//W3C//DTD SVG 1.1//EN" "http://www.w3.org/Graphics/SVG/1.1/DTD/svg11.dtd">
<svg version="1.1" xmlns="http://www.w3.org/2000/svg" xmlns:xlink="http://www.w3.org/1999/xlink" width="32" height="32" viewBox="0 0 32 32">

	<path d="M22 5.333c2.573 0 4.667 2.093 4.667 4.667s-2.093 4.667-4.667 4.667h-2v2.667h2c2.573 0 4.667 2.093 4.667 4.667s-2.093 4.667-4.667 4.667-4.667-2.093-4.667-4.667v-2h-2.667v2c0 2.573-2.093 4.667-4.667 4.667s-4.667-2.093-4.667-4.667 2.093-4.667 4.667-4.667h2v-2.667h-2c-2.573 0-4.667-2.093-4.667-4.667s2.093-4.667 4.667-4.667 4.667 2.093 4.667 4.667v2h2.667v-2c0-2.573 2.093-4.667 4.667-4.667zM20 12h2c1.103 0 2-0.899 2-2 0-1.104-0.897-2-2-2s-2 0.896-2 2v2zM10 12h2v-2c0-1.104-0.897-2-2-2s-2 0.896-2 2c0 1.101 0.897 2 2 2zM22 24c1.103 0 2-0.899 2-2 0-1.104-0.897-2-2-2h-2v2c0 1.101 0.897 2 2 2zM10 24c1.103 0 2-0.899 2-2v-2h-2c-1.103 0-2 0.896-2 2 0 1.101 0.897 2 2 2zM22 2.667c-2.476 0-4.672 1.235-6 3.121-1.328-1.887-3.524-3.121-6-3.121-4.044 0-7.333 3.291-7.333 7.333 0 2.476 1.235 4.672 3.121 6-1.887 1.328-3.121 3.524-3.121 6 0 4.043 3.289 7.333 7.333 7.333 2.476 0 4.672-1.235 6-3.121 1.328 1.887 3.524 3.121 6 3.121 4.044 0 7.333-3.291 7.333-7.333 0-2.476-1.235-4.672-3.121-6 1.887-1.328 3.121-3.524 3.121-6 0-4.043-3.289-7.333-7.333-7.333z"></path>
	<path d="M17.333 14.667h-2.667v2.667h2.667z"></path>
</svg>
