<?xml version="1.0" encoding="utf-8"?>
<!DOCTYPE svg PUBLIC "-//W3C//DTD SVG 1.1//EN" "http://www.w3.org/Graphics/SVG/1.1/DTD/svg11.dtd">
<svg version="1.1" xmlns="http://www.w3.org/2000/svg" xmlns:xlink="http://www.w3.org/1999/xlink" width="32" height="32" viewBox="0 0 32 32">

	<path d="M23.347 8.083c-1.085-1.087-2.64-1.4-4.013-0.972v-0.444c0-2.208-1.792-4-4-4s-4 1.792-4 4v0.443c-1.372-0.425-2.927-0.113-4.013 0.973-2.14 2.141-3.32 4.988-3.32 8.015s1.18 5.873 3.32 8.015c2.139 2.14 4.985 3.319 8.013 3.319s5.873-1.179 8.013-3.319c2.14-2.14 3.32-4.987 3.32-8.015s-1.18-5.873-3.32-8.015zM14 6.667c0-0.736 0.596-1.333 1.333-1.333s1.333 0.597 1.333 1.333v6.667c0 0.736-0.596 1.333-1.333 1.333s-1.333-0.597-1.333-1.333v-6.667zM12.667 11.737v1.596c0 1.472 1.195 2.667 2.667 2.667s2.667-1.195 2.667-2.667v-1.576c0.127 0.379 0.331 0.739 0.633 1.040 0.881 0.881 1.367 2.053 1.367 3.3s-0.485 2.419-1.367 3.301c-1.763 1.761-4.836 1.761-6.599 0-0.883-0.883-1.368-2.055-1.368-3.301s0.485-2.419 1.367-3.301c0.308-0.307 0.511-0.672 0.633-1.059zM21.461 22.227c-1.637 1.637-3.812 2.537-6.128 2.537s-4.491-0.901-6.128-2.537c-1.636-1.637-2.539-3.813-2.539-6.129s0.903-4.492 2.539-6.129c0.521-0.521 1.364-0.521 1.885 0s0.521 1.364 0 1.885c-1.133 1.135-1.757 2.641-1.757 4.244s0.624 3.111 1.757 4.244c1.133 1.133 2.639 1.756 4.243 1.756s3.109-0.624 4.243-1.756c1.135-1.133 1.757-2.64 1.757-4.244s-0.624-3.111-1.757-4.244c-0.521-0.521-0.521-1.364 0-1.885s1.364-0.521 1.885 0c1.636 1.639 2.539 3.815 2.539 6.129s-0.903 4.492-2.539 6.129z"></path>
</svg>
