<?xml version="1.0" encoding="utf-8"?>
<!DOCTYPE svg PUBLIC "-//W3C//DTD SVG 1.1//EN" "http://www.w3.org/Graphics/SVG/1.1/DTD/svg11.dtd">
<svg version="1.1" xmlns="http://www.w3.org/2000/svg" xmlns:xlink="http://www.w3.org/1999/xlink" width="32" height="32" viewBox="0 0 32 32">

	<path d="M15.333 24.764c-2.315 0-4.491-0.901-6.128-2.537-1.636-1.637-2.539-3.813-2.539-6.129s0.903-4.492 2.539-6.129c0.521-0.521 1.364-0.521 1.885 0s0.521 1.364 0 1.885c-1.133 1.135-1.757 2.641-1.757 4.244s0.624 3.111 1.757 4.244c1.133 1.133 2.639 1.756 4.243 1.756s3.109-0.624 4.243-1.756c1.135-1.133 1.757-2.64 1.757-4.244s-0.624-3.111-1.757-4.244c-0.521-0.521-0.521-1.364 0-1.885s1.364-0.521 1.885 0c1.636 1.639 2.539 3.815 2.539 6.129s-0.903 4.492-2.539 6.129c-1.637 1.636-3.813 2.537-6.128 2.537z"></path>
	<path d="M15.333 14.667c-0.737 0-1.333-0.597-1.333-1.333v-6.667c0-0.736 0.596-1.333 1.333-1.333s1.333 0.597 1.333 1.333v6.667c0 0.736-0.596 1.333-1.333 1.333z"></path>
</svg>
