<?xml version="1.0" encoding="utf-8"?>
<!DOCTYPE svg PUBLIC "-//W3C//DTD SVG 1.1//EN" "http://www.w3.org/Graphics/SVG/1.1/DTD/svg11.dtd">
<svg version="1.1" xmlns="http://www.w3.org/2000/svg" xmlns:xlink="http://www.w3.org/1999/xlink" width="32" height="32" viewBox="0 0 32 32">

	<path d="M22.667 6.667v-2.667c0-0.736-0.597-1.333-1.333-1.333h-12c-0.736 0-1.333 0.597-1.333 1.333v2.667c-2.205 0-4 1.795-4 4v13.333c0 2.205 1.795 4 4 4h14.667c2.205 0 4-1.795 4-4v-13.333c0-2.205-1.795-4-4-4zM10.667 5.333h9.333v6.667h-9.333v-6.667zM8 9.333v4c0 0.736 0.597 1.333 1.333 1.333h12c0.736 0 1.333-0.597 1.333-1.333v-4c0.735 0 1.333 0.599 1.333 1.333v3.333c0 1.103-0.897 2-2 2h-13.333c-1.103 0-2-0.897-2-2v-3.333c0-0.735 0.599-1.333 1.333-1.333zM22.667 25.333h-14.667c-0.735 0-1.333-0.599-1.333-1.333v-7.351c0.559 0.424 1.247 0.684 2 0.684h13.333c0.753 0 1.441-0.26 2-0.684v7.351c0 0.735-0.599 1.333-1.333 1.333z"></path>
	<path d="M18 9.333h-5.333c-0.368 0-0.667 0.299-0.667 0.667s0.299 0.667 0.667 0.667h5.333c0.368 0 0.667-0.299 0.667-0.667s-0.299-0.667-0.667-0.667z"></path>
	<path d="M20 21.333h-9.333c-0.368 0-0.667 0.299-0.667 0.667s0.299 0.667 0.667 0.667h9.333c0.368 0 0.667-0.299 0.667-0.667s-0.299-0.667-0.667-0.667z"></path>
	<path d="M18 6.667h-5.333c-0.368 0-0.667 0.299-0.667 0.667s0.299 0.667 0.667 0.667h5.333c0.368 0 0.667-0.299 0.667-0.667s-0.299-0.667-0.667-0.667z"></path>
</svg>
