<?xml version="1.0" encoding="utf-8"?>
<!DOCTYPE svg PUBLIC "-//W3C//DTD SVG 1.1//EN" "http://www.w3.org/Graphics/SVG/1.1/DTD/svg11.dtd">
<svg version="1.1" xmlns="http://www.w3.org/2000/svg" xmlns:xlink="http://www.w3.org/1999/xlink" width="32" height="32" viewBox="0 0 32 32">

	<path d="M21.667 15c0.485 0 0.939 0.193 1.312 0.521 0.732 0.443 1.021-0.045 1.021-0.521v-2.333c0-1.1-0.9-2-2-2h-3.667c-0.475 0-0.965-0.288-0.521-1.021 0.328-0.373 0.521-0.825 0.521-1.312 0-1.289-1.343-2.333-3-2.333s-3 1.044-3 2.333c0 0.4 0.127 0.768 0.34 1.097 0.676 0.897 0.181 1.236-0.34 1.236h-3.667c-1.1 0-2 0.9-2 2v2.333c0 0.521 0.339 1.016 1.237 0.325 0.328-0.199 0.696-0.325 1.096-0.325 1.288 0 2.333 1.344 2.333 3s-1.045 3-2.333 3c-0.485 0-0.939-0.193-1.312-0.521-0.732-0.443-1.021 0.045-1.021 0.521v3.667c0 1.1 0.9 2 2 2h3.667c0.521 0 1.016-0.339 0.324-1.236-0.197-0.329-0.324-0.697-0.324-1.097 0-1.289 1.343-2.333 3-2.333s3 1.044 3 2.333c0 0.487-0.193 0.939-0.521 1.312-0.444 0.733 0.047 1.021 0.521 1.021h3.667c1.1 0 2-0.9 2-2v-3.667c0-0.521-0.339-1.016-1.237-0.325-0.328 0.199-0.696 0.325-1.096 0.325-1.288 0-2.333-1.344-2.333-3s1.045-3 2.333-3z"></path>
</svg>
