<?xml version="1.0" encoding="utf-8"?>
<!DOCTYPE svg PUBLIC "-//W3C//DTD SVG 1.1//EN" "http://www.w3.org/Graphics/SVG/1.1/DTD/svg11.dtd">
<svg version="1.1" xmlns="http://www.w3.org/2000/svg" xmlns:xlink="http://www.w3.org/1999/xlink" width="32" height="32" viewBox="0 0 32 32">

	<path d="M26.667 15v-2.333c0-2.573-2.093-4.667-4.667-4.667h-1.012c-0.188-2.643-2.604-4.667-5.655-4.667s-5.467 2.024-5.655 4.667h-1.012c-2.573 0-4.667 2.093-4.667 4.667v2.333c0 1.349 0.685 2.463 1.727 2.995-0.477 0.251-0.891 0.625-1.192 1.1-0.349 0.552-0.535 1.211-0.535 1.905v3.667c0 2.573 2.093 4.667 4.667 4.667h3.667c1.301 0 2.441-0.663 2.989-1.732 0.017 0.032 0.032 0.061 0.048 0.088 0.58 1.029 1.688 1.644 2.963 1.644h3.667c2.573 0 4.667-2.093 4.667-4.667v-3.667c0-1.351-0.687-2.465-1.729-2.996 1.035-0.548 1.729-1.675 1.729-3.004zM24 24.667c0 1.1-0.9 2-2 2h-3.667c-0.475 0-0.965-0.288-0.521-1.021 0.328-0.373 0.521-0.825 0.521-1.312 0-1.289-1.343-2.333-3-2.333s-3 1.044-3 2.333c0 0.4 0.127 0.768 0.34 1.097 0.676 0.897 0.181 1.236-0.34 1.236h-3.667c-1.1 0-2-0.9-2-2v-3.667c0-0.344 0.151-0.695 0.512-0.695 0.139 0 0.305 0.052 0.509 0.173 0.373 0.328 0.827 0.521 1.312 0.521 1.288 0 2.333-1.344 2.333-3s-1.045-3-2.333-3c-0.4 0-0.768 0.127-1.096 0.34-0.316 0.228-0.563 0.324-0.749 0.324-0.347 0-0.488-0.327-0.488-0.664v-2.333c0-1.1 0.9-2 2-2h3.667c0.521 0 1.016-0.339 0.324-1.236-0.197-0.329-0.324-0.697-0.324-1.097 0-1.289 1.343-2.333 3-2.333s3 1.044 3 2.333c0 0.487-0.193 0.939-0.521 1.312-0.444 0.733 0.047 1.021 0.521 1.021h3.667c1.1 0 2 0.9 2 2v2.333c0 0.344-0.151 0.695-0.512 0.695-0.139 0-0.305-0.052-0.509-0.173-0.373-0.328-0.827-0.521-1.312-0.521-1.288 0-2.333 1.344-2.333 3s1.045 3 2.333 3c0.4 0 0.768-0.127 1.096-0.34 0.316-0.228 0.563-0.325 0.749-0.324 0.345 0 0.487 0.327 0.487 0.664v3.667zM6.667 16.925c0.155 0.043 0.315 0.072 0.487 0.072 0.456 0 0.911-0.159 1.384-0.485 0.031-0.017 0.063-0.035 0.092-0.055 0.129-0.084 0.251-0.124 0.371-0.124 0.472 0 1 0.713 1 1.667s-0.528 1.667-1 1.667c-0.144 0-0.289-0.064-0.432-0.189-0.060-0.052-0.123-0.099-0.191-0.139-0.401-0.244-0.805-0.367-1.199-0.367-0.179 0-0.348 0.031-0.512 0.079v-2.125zM23.513 19.003c-0.456 0-0.911 0.159-1.384 0.485-0.031 0.017-0.063 0.035-0.092 0.055-0.129 0.084-0.251 0.124-0.369 0.124-0.472 0-1-0.713-1-1.667s0.528-1.667 1-1.667c0.144 0 0.289 0.064 0.432 0.189 0.060 0.052 0.123 0.099 0.191 0.139 0.403 0.244 0.805 0.367 1.199 0.367 0.181 0 0.349-0.033 0.512-0.083v2.129c-0.156-0.043-0.316-0.072-0.488-0.072zM14.256 26.667c0.135-0.461 0.124-1.088-0.407-1.861-0.019-0.033-0.037-0.067-0.059-0.099-0.083-0.131-0.125-0.252-0.125-0.372 0-0.472 0.712-1 1.667-1s1.667 0.528 1.667 1c0 0.144-0.064 0.289-0.191 0.433-0.051 0.059-0.097 0.121-0.139 0.189-0.433 0.716-0.415 1.305-0.293 1.712h-2.12z"></path>
</svg>
