<?xml version="1.0" encoding="utf-8"?>
<!DOCTYPE svg PUBLIC "-//W3C//DTD SVG 1.1//EN" "http://www.w3.org/Graphics/SVG/1.1/DTD/svg11.dtd">
<svg version="1.1" xmlns="http://www.w3.org/2000/svg" xmlns:xlink="http://www.w3.org/1999/xlink" width="32" height="32" viewBox="0 0 32 32">

	<path d="M15.996 6c-6.247 0-11.329 5.083-11.329 11.333s5.084 11.333 11.333 11.333c6.251 0 11.333-5.083 11.333-11.333s-5.083-11.333-11.337-11.333zM16 26c-4.779 0-8.667-3.888-8.667-8.667s3.885-8.667 8.667-8.667c4.779 0 8.667 3.888 8.667 8.667s-3.888 8.667-8.667 8.667z"></path>
	<path d="M20.464 16.041c0.067-0.013 0.129-0.041 0.203-0.041h1.172c-0.511-2.236-2.265-3.993-4.505-4.504v1.171c0 0.735-0.599 1.333-1.333 1.333-0.663 0-1.189-0.495-1.292-1.128-0.012-0.069-0.041-0.132-0.041-0.205v-1.173c-2.237 0.509-3.996 2.269-4.507 4.507h1.173c0.072 0 0.135 0.028 0.204 0.041 0.635 0.101 1.129 0.629 1.129 1.292s-0.495 1.191-1.128 1.292c-0.069 0.013-0.132 0.041-0.205 0.041h-1.171c0.512 2.236 2.269 3.993 4.504 4.505v-1.172c0-0.073 0.029-0.136 0.041-0.205 0.103-0.635 0.629-1.128 1.292-1.128s1.191 0.495 1.292 1.131c0.013 0.067 0.041 0.129 0.041 0.203v1.172c2.236-0.511 3.995-2.269 4.505-4.505h-1.172c-0.073 0-0.136-0.028-0.203-0.041-0.636-0.101-1.131-0.629-1.131-1.292s0.495-1.191 1.131-1.292zM19.869 19.864c-0.352 0.532-0.805 0.987-1.339 1.336-0.341-1.080-1.339-1.868-2.529-1.868s-2.189 0.789-2.531 1.868c-0.533-0.349-0.987-0.804-1.337-1.336 1.080-0.341 1.868-1.341 1.868-2.531 0-1.193-0.789-2.191-1.869-2.531 0.351-0.532 0.804-0.987 1.339-1.336 0.341 1.080 1.34 1.868 2.531 1.868 1.192 0 2.192-0.791 2.532-1.871 0.532 0.352 0.987 0.805 1.336 1.339-1.080 0.341-1.868 1.341-1.868 2.531-0.001 1.191 0.788 2.191 1.868 2.531z"></path>
</svg>
