<?xml version="1.0" encoding="utf-8"?>
<!DOCTYPE svg PUBLIC "-//W3C//DTD SVG 1.1//EN" "http://www.w3.org/Graphics/SVG/1.1/DTD/svg11.dtd">
<svg version="1.1" xmlns="http://www.w3.org/2000/svg" xmlns:xlink="http://www.w3.org/1999/xlink" width="32" height="32" viewBox="0 0 32 32">

	<path d="M16 26.667c5.147 0 9.333-4.188 9.333-9.333s-4.187-9.333-9.337-9.333c-5.144 0-9.329 4.188-9.329 9.333s4.187 9.333 9.333 9.333zM14.667 10.803v2.531c0 0.737 0.597 1.333 1.333 1.333s1.333-0.596 1.333-1.333v-2.531c2.608 0.531 4.667 2.589 5.199 5.197h-2.532c-0.736 0-1.333 0.596-1.333 1.333s0.597 1.333 1.333 1.333h2.532c-0.532 2.608-2.591 4.667-5.199 5.197v-2.531c0-0.737-0.597-1.333-1.333-1.333s-1.333 0.596-1.333 1.333v2.531c-2.608-0.531-4.667-2.589-5.199-5.197h2.532c0.736 0 1.333-0.596 1.333-1.333s-0.597-1.333-1.333-1.333h-2.532c0.532-2.608 2.589-4.667 5.199-5.197z"></path>
</svg>
