<?xml version="1.0" encoding="utf-8"?>
<!DOCTYPE svg PUBLIC "-//W3C//DTD SVG 1.1//EN" "http://www.w3.org/Graphics/SVG/1.1/DTD/svg11.dtd">
<svg version="1.1" xmlns="http://www.w3.org/2000/svg" xmlns:xlink="http://www.w3.org/1999/xlink" width="32" height="32" viewBox="0 0 32 32">

	<path d="M23.157 6.664c-0.651 0-1.6 0.193-2.608 1.031-1.381-0.652-2.919-1.028-4.549-1.028-5.891 0-10.667 4.776-10.667 10.667s4.776 10.667 10.667 10.667c5.749 0 10.667-4.421 10.667-10.667 0-0.057 0-6.581 0-6.581-0.021-2.815-1.833-4.088-3.509-4.088zM24 17.333h-6.837c-1.512 0-1.876-0.748-0.805-1.817l1.931-1.869c-0.749-0.495-1.627-0.732-2.545-0.732-1.24 0-2.407 0.5-3.285 1.377-0.876 0.875-1.36 2.049-1.36 3.289 0 1.244 0.483 2.415 1.36 3.292 0.879 0.877 2.045 1.361 3.285 1.361s2.407-0.48 3.287-1.359c0.236-0.24 0.445-0.496 0.624-0.772 0.296-0.46 0.795-0.711 1.305-0.711 0.288 0 0.577 0.080 0.833 0.247 0.72 0.461 0.929 1.417 0.468 2.139-0.297 0.459-0.645 0.891-1.040 1.287-1.463 1.465-3.408 2.271-5.475 2.271s-4.012-0.805-5.472-2.268c-1.463-1.461-2.268-3.407-2.268-5.475s0.805-4.016 2.269-5.472c1.461-1.464 3.405-2.267 5.472-2.267 1.748 0 3.401 0.581 4.755 1.639l1.539-1.544c0.415-0.416 0.803-0.615 1.121-0.615 0.503 0 0.836 0.496 0.843 1.42v6.579zM14.56 17.4c0.216 0.523 0.84 1.267 2.603 1.267h1.732c0 0-0.28 0.672-0.819 1.209s-1.448 0.993-2.333 0.993-1.719-0.328-2.344-0.953c-0.624-0.627-0.969-1.451-0.969-2.336s0.344-1.519 0.968-2.139c0.629-0.629 1.463-0.775 2.345-0.775 0.031 0-0.328 0.164-0.328 0.164-1.247 1.245-1.071 2.048-0.855 2.569z"></path>
</svg>
