<?xml version="1.0" encoding="utf-8"?>
<!DOCTYPE svg PUBLIC "-//W3C//DTD SVG 1.1//EN" "http://www.w3.org/Graphics/SVG/1.1/DTD/svg11.dtd">
<svg version="1.1" xmlns="http://www.w3.org/2000/svg" xmlns:xlink="http://www.w3.org/1999/xlink" width="32" height="32" viewBox="0 0 32 32">

	<path d="M17.163 17.588h6.837v-6.836c-0.011-1.513-0.895-1.877-1.964-0.807l-1.539 1.544c-1.353-1.060-3.009-1.64-4.755-1.64-2.067 0-4.012 0.805-5.472 2.268-1.465 1.456-2.271 3.404-2.271 5.471 0 2.071 0.805 4.016 2.268 5.476 1.463 1.463 3.407 2.269 5.475 2.269 2.067 0 4.012-0.807 5.475-2.271 0.395-0.396 0.744-0.828 1.040-1.287 0.463-0.721 0.253-1.68-0.467-2.14-0.719-0.461-1.677-0.252-2.139 0.467-0.177 0.276-0.389 0.533-0.624 0.773-0.879 0.877-2.045 1.36-3.285 1.36s-2.407-0.481-3.285-1.36c-0.876-0.877-1.36-2.044-1.36-3.287 0-1.24 0.483-2.407 1.36-3.281 0.879-0.877 2.045-1.361 3.285-1.361 0.917 0 1.795 0.268 2.545 0.763l-1.931 1.935c-1.071 1.069-0.707 1.944 0.805 1.944z"></path>
</svg>
