<?xml version="1.0" encoding="utf-8"?>
<!DOCTYPE svg PUBLIC "-//W3C//DTD SVG 1.1//EN" "http://www.w3.org/Graphics/SVG/1.1/DTD/svg11.dtd">
<svg version="1.1" xmlns="http://www.w3.org/2000/svg" xmlns:xlink="http://www.w3.org/1999/xlink" width="32" height="32" viewBox="0 0 32 32">

	<path d="M10.667 6.665c-2.209 0-4.015 1.792-4.015 4 0 0.097 0.007 11.727 0.007 12 0 2.945 2.391 5.333 5.336 5.333 0.245 0 11.877 0.001 12.004 0.001 2.207 0 4-1.795 4-4.001 0.001-9.572-7.759-17.333-17.332-17.333zM12.001 25.332c-1.473 0.003-2.668-1.192-2.668-2.665-0.003-1.473 1.192-2.668 2.668-2.668 1.473-0.003 2.668 1.192 2.665 2.668 0.003 1.473-1.192 2.668-2.665 2.665zM18 25.332c-1.105 0-2-0.895-2-2 0-2.575-2.093-4.667-4.667-4.667-1.105 0-2-0.895-2-2s0.895-2 2-2c4.779 0 8.667 3.888 8.667 8.667 0 1.105-0.895 2-2 2zM23.333 25.332c-1.105 0-2-0.895-2-2 0-5.515-4.485-10-10-10-1.105 0-2-0.895-2-2s0.895-2 2-2c7.72 0 14 6.28 14 14 0 1.105-0.895 2-2 2z"></path>
</svg>
