<?xml version="1.0" encoding="utf-8"?>
<!DOCTYPE svg PUBLIC "-//W3C//DTD SVG 1.1//EN" "http://www.w3.org/Graphics/SVG/1.1/DTD/svg11.dtd">
<svg version="1.1" xmlns="http://www.w3.org/2000/svg" xmlns:xlink="http://www.w3.org/1999/xlink" width="32" height="32" viewBox="0 0 32 32">

	<path d="M8.003 21.332c-1.476 0-2.672 1.196-2.669 2.668 0 1.472 1.195 2.668 2.669 2.665 1.471 0.003 2.667-1.192 2.664-2.665 0.003-1.476-1.193-2.671-2.664-2.668z"></path>
	<path d="M8 5.333c-1.472 0-2.667 1.195-2.667 2.667s1.195 2.667 2.667 2.667c7.352 0 13.333 5.981 13.333 13.333 0 1.472 1.195 2.667 2.667 2.667s2.667-1.195 2.667-2.667c0-10.293-8.373-18.667-18.667-18.667z"></path>
	<path d="M8 13.333c-1.472 0-2.667 1.195-2.667 2.667s1.195 2.667 2.667 2.667c2.94 0 5.333 2.392 5.333 5.333 0 1.472 1.195 2.667 2.667 2.667s2.667-1.195 2.667-2.667c0-5.881-4.785-10.667-10.667-10.667z"></path>
</svg>
