<?xml version="1.0" encoding="utf-8"?>
<!DOCTYPE svg PUBLIC "-//W3C//DTD SVG 1.1//EN" "http://www.w3.org/Graphics/SVG/1.1/DTD/svg11.dtd">
<svg version="1.1" xmlns="http://www.w3.org/2000/svg" xmlns:xlink="http://www.w3.org/1999/xlink" width="32" height="32" viewBox="0 0 32 32">

	<path d="M27.5 7.353c-1.333-2.029-3.887-2.227-5.863-1.099l-0.248 0.143c-0.033-0.003-0.067-0.004-0.101-0.004-1.389 0-2.68 0.681-3.472 1.825-0.016 0.020-0.031 0.039-0.045 0.060-0.573 0.86-0.964 1.648-1.34 2.412-0.34 0.688-0.667 1.347-1.099 1.977-0.433-0.633-0.76-1.293-1.101-1.981-0.377-0.761-0.767-1.549-1.339-2.408-0.013-0.021-0.028-0.040-0.044-0.059-0.791-1.145-2.083-1.827-3.471-1.827-2.329 0-4.223 1.893-4.223 4.221 0 2.329 1.895 4.224 4.223 4.224 1.033 0 2.020-0.383 2.783-1.055l0.869 1.597c-2.161 2.501-3.972 5.405-4.025 5.495-1.648 2.269 0.94 5.893 1.052 6.045 0.125 0.175 0.327 0.276 0.54 0.276 0.272-0.016 0.476-0.147 0.585-0.348l4.149-7.623 4.151 7.623c0.109 0.2 0.313 0.332 0.543 0.347 0.232 0.025 0.448-0.088 0.583-0.275 0.111-0.152 2.699-3.776 1.079-6.005l-0.431-0.695c-1.435-2.315-1.583-2.555-3.62-4.845l0.868-1.593c0.763 0.672 1.751 1.055 2.784 1.055 2.328 0 4.223-1.895 4.223-4.224 0-0.845-0.255-1.661-0.729-2.357 0.629-0.36 1.329-0.164 1.941 0.127 0.621 0.255 1.196-0.503 0.779-1.029zM9.333 12c-0.736 0-1.333-0.596-1.333-1.333s0.597-1.333 1.333-1.333 1.333 0.596 1.333 1.333-0.597 1.333-1.333 1.333zM15.333 16.527c-0.369 0-0.667-0.3-0.667-0.667 0-0.369 0.297-0.667 0.667-0.667s0.667 0.297 0.667 0.667c0 0.367-0.297 0.667-0.667 0.667zM21.333 12c-0.736 0-1.333-0.596-1.333-1.333s0.597-1.333 1.333-1.333 1.333 0.596 1.333 1.333-0.597 1.333-1.333 1.333z"></path>
</svg>
