<?xml version="1.0" encoding="utf-8"?>
<!DOCTYPE svg PUBLIC "-//W3C//DTD SVG 1.1//EN" "http://www.w3.org/Graphics/SVG/1.1/DTD/svg11.dtd">
<svg version="1.1" xmlns="http://www.w3.org/2000/svg" xmlns:xlink="http://www.w3.org/1999/xlink" width="32" height="32" viewBox="0 0 32 32">

	<path d="M24.165 7.027c0.112 0 0.224 0.005 0.333 0.017 0.217 0.029 0.425 0.027 0.624 0.103 0.195 0.067 0.389 0.112 0.56 0.195 0.339 0.175 0.628 0.349 0.841 0.563 0.232 0.183 0.331 0.372 0.428 0.495 0.092 0.128 0.144 0.195 0.144 0.195s-0.081-0.033-0.221-0.099c-0.14-0.057-0.344-0.185-0.589-0.213-0.172-0.049-0.376-0.063-0.589-0.063-0.065 0-0.135 0.001-0.2 0.003-0.14 0.011-0.289 0.055-0.424 0.081-0.137 0.013-0.268 0.104-0.393 0.151-0.248 0.117-0.467 0.271-0.615 0.453-0.031 0.033-0.049 0.065-0.076 0.101 0.601 0.636 0.976 1.487 0.976 2.432 0 1.961-1.593 3.557-3.555 3.557-1.211 0-2.276-0.609-2.919-1.533l-2.209 3.5c2.283 2.56 4.293 5.797 4.293 5.797 1.383 1.905-1.052 5.263-1.052 5.263l-4.736-8.696-4.735 8.696c0 0-2.435-3.36-1.052-5.263 0 0 2.009-3.237 4.293-5.797l-2.208-3.5c-0.643 0.924-1.711 1.533-2.917 1.533-1.963 0-3.556-1.596-3.556-3.557 0-1.959 1.593-3.555 3.556-3.555 1.233 0 2.319 0.633 2.957 1.591 1.273 1.904 2.319 4.208 3.664 5.779 1.344-1.571 2.389-3.875 3.661-5.781 0.64-0.956 1.727-1.588 2.961-1.588 0.084 0 0.164 0.019 0.248 0.024 0.123-0.071 0.263-0.153 0.435-0.251 0.156-0.087 0.331-0.187 0.511-0.281 0.176-0.096 0.396-0.143 0.599-0.211 0.299-0.093 0.633-0.14 0.961-0.14zM21.407 12.861c0.364 0 0.729-0.139 1.008-0.416 0.555-0.555 0.555-1.456 0-2.011-0.279-0.277-0.641-0.416-1.005-0.416s-0.727 0.139-1.005 0.416l-0.32 0.503c-0.192 0.508-0.088 1.101 0.32 1.508 0.276 0.279 0.639 0.416 1.003 0.416zM8.165 12.861c0.363 0 0.727-0.139 1.003-0.416 0.411-0.407 0.509-1 0.316-1.508l-0.316-0.503c-0.276-0.277-0.64-0.416-1.004-0.416s-0.729 0.139-1.007 0.416c-0.556 0.555-0.556 1.456 0 2.011 0.277 0.277 0.643 0.416 1.008 0.416zM14.785 17.877c0.291 0 0.528-0.237 0.528-0.527 0-0.293-0.235-0.528-0.528-0.528-0.292 0-0.525 0.235-0.525 0.528 0 0.289 0.235 0.527 0.525 0.527zM24.165 4.36c-0.597 0-1.201 0.088-1.749 0.255l-0.156 0.048c-0.224 0.068-0.568 0.168-0.943 0.373-0.115 0.063-0.24 0.131-0.361 0.197-1.851 0.136-3.541 1.087-4.623 2.615-0.036 0.045-0.073 0.093-0.105 0.144-0.52 0.779-0.988 1.589-1.443 2.379-0.452-0.789-0.92-1.599-1.441-2.379-0.035-0.048-0.069-0.097-0.104-0.143-1.169-1.652-3.052-2.632-5.076-2.632-3.432 0-6.223 2.791-6.223 6.221s2.792 6.224 6.223 6.224c0.412 0 0.815-0.040 1.211-0.12-1.355 1.784-2.369 3.373-2.597 3.737-2.285 3.289 0.523 7.492 1.113 8.305 0.503 0.695 1.307 1.101 2.159 1.101 0.057 0 0.115 0 0.172-0.005 0.915-0.059 1.733-0.583 2.171-1.385l2.393-4.397 2.393 4.397c0.437 0.805 1.257 1.327 2.171 1.385 0.057 0.005 0.115 0.005 0.172 0.005 0.852 0 1.655-0.408 2.159-1.101 0.591-0.813 3.399-5.019 1.112-8.305-0.227-0.361-1.243-1.953-2.596-3.737 0.393 0.080 0.801 0.12 1.211 0.12 3.431 0 6.224-2.793 6.224-6.224 0-0.080-0.003-0.159-0.005-0.239 0.623-0.128 1.197-0.475 1.6-1.011 0.729-0.972 0.715-2.311-0.043-3.26l-0.065-0.089c-0.017-0.025-0.033-0.045-0.052-0.071-0.136-0.195-0.372-0.525-0.763-0.859-0.467-0.435-0.984-0.729-1.393-0.94-0.367-0.181-0.651-0.268-0.837-0.325l-0.083-0.027c-0.444-0.156-0.829-0.195-1.045-0.213l-0.072-0.008c-0.021-0.003-0.091-0.012-0.115-0.013-0.195-0.017-0.393-0.024-0.592-0.024z"></path>
</svg>
