<?xml version="1.0" encoding="utf-8"?>
<!DOCTYPE svg PUBLIC "-//W3C//DTD SVG 1.1//EN" "http://www.w3.org/Graphics/SVG/1.1/DTD/svg11.dtd">
<svg version="1.1" xmlns="http://www.w3.org/2000/svg" xmlns:xlink="http://www.w3.org/1999/xlink" width="32" height="32" viewBox="0 0 32 32">

	<path d="M22.667 5.333h-13.333c-2.205 0-4 1.795-4 4v14.667c0 2.205 1.795 4 4 4h13.333c2.205 0 4-1.795 4-4v-14.667c0-2.205-1.795-4-4-4zM24 24c0 0.735-0.597 1.333-1.333 1.333h-13.333c-0.736 0-1.333-0.599-1.333-1.333v-9.707c0.395 0.232 0.847 0.373 1.333 0.373h2c0 2.573 2.093 4.667 4.667 4.667s4.667-2.093 4.667-4.667h2c0.487 0 0.939-0.141 1.333-0.372v9.705zM12.667 14.667h6.667c0 1.837-1.495 3.333-3.333 3.333s-3.333-1.496-3.333-3.333zM24 12c0 0.735-0.597 1.333-1.333 1.333h-13.333c-0.736 0-1.333-0.599-1.333-1.333v-2.667c0-0.735 0.597-1.333 1.333-1.333h13.333c0.736 0 1.333 0.599 1.333 1.333v2.667z"></path>
</svg>
