<?xml version="1.0" encoding="utf-8"?>
<!DOCTYPE svg PUBLIC "-//W3C//DTD SVG 1.1//EN" "http://www.w3.org/Graphics/SVG/1.1/DTD/svg11.dtd">
<svg version="1.1" xmlns="http://www.w3.org/2000/svg" xmlns:xlink="http://www.w3.org/1999/xlink" width="32" height="32" viewBox="0 0 32 32">

	<path d="M27.675 7.127c-0.255-0.292-0.621-0.46-1.008-0.46h-18.425l-0.26-1.552c-0.107-0.643-0.663-1.115-1.315-1.115h-3c-0.737 0-1.333 0.596-1.333 1.333s0.596 1.333 1.333 1.333h1.871l2.48 14.885c0.011 0.060 0.041 0.109 0.060 0.165 0.021 0.071 0.039 0.137 0.072 0.201 0.043 0.088 0.1 0.163 0.16 0.239 0.041 0.052 0.079 0.104 0.127 0.149 0.077 0.072 0.167 0.123 0.257 0.173 0.051 0.028 0.095 0.065 0.149 0.087 0.155 0.063 0.317 0.1 0.489 0.1 0.001 0 14.668 0 14.668 0 0.737 0 1.333-0.596 1.333-1.333s-0.596-1.333-1.333-1.333h-13.537l-0.221-1.333h15.092c0.664 0 1.227-0.488 1.32-1.144l1.333-9.333c0.055-0.384-0.060-0.772-0.312-1.063zM25.129 9.333l-0.38 2.667h-4.749v-2.667h5.129zM18.667 9.333v2.667h-4v-2.667h4zM18.667 13.333v2.667h-4v-2.667h4zM13.333 9.333v2.667h-4c-0.071 0-0.135 0.020-0.197 0.040l-0.451-2.707h4.648zM9.352 13.333h3.981v2.667h-3.537l-0.444-2.667zM20 16v-2.667h4.557l-0.38 2.667h-4.177z"></path>
	<path d="M13.333 26c0 1.105-0.895 2-2 2s-2-0.895-2-2c0-1.105 0.895-2 2-2s2 0.895 2 2z"></path>
	<path d="M25.333 26c0 1.105-0.895 2-2 2s-2-0.895-2-2c0-1.105 0.895-2 2-2s2 0.895 2 2z"></path>
</svg>
