<?xml version="1.0" encoding="utf-8"?>
<!DOCTYPE svg PUBLIC "-//W3C//DTD SVG 1.1//EN" "http://www.w3.org/Graphics/SVG/1.1/DTD/svg11.dtd">
<svg version="1.1" xmlns="http://www.w3.org/2000/svg" xmlns:xlink="http://www.w3.org/1999/xlink" width="32" height="32" viewBox="0 0 32 32">

	<path d="M16 28c-3.319 0-6.18-1.187-8.501-3.528-2.321-2.335-3.499-5.185-3.499-8.472 0-3.317 1.179-6.179 3.503-8.5 2.32-2.321 5.18-3.5 8.497-3.5 3.288 0 6.139 1.177 8.472 3.499 2.34 2.323 3.528 5.184 3.528 8.501 0 3.287-1.187 6.139-3.525 8.476-2.335 2.337-5.185 3.524-8.475 3.524zM16 6.667c-2.621 0-4.784 0.889-6.611 2.72-1.832 1.829-2.723 3.992-2.723 6.613 0 2.592 0.891 4.749 2.724 6.593 1.829 1.844 3.991 2.74 6.609 2.74 2.591 0 4.747-0.897 6.588-2.743 1.848-1.845 2.745-4.003 2.745-6.591 0-2.617-0.896-4.78-2.74-6.609-1.844-1.833-4-2.724-6.593-2.724z"></path>
	<path d="M12 19.333c-1.839 0-3.333-1.495-3.333-3.333s1.495-3.333 3.333-3.333 3.333 1.495 3.333 3.333-1.495 3.333-3.333 3.333zM12 14c-1.103 0-2 0.897-2 2s0.897 2 2 2 2-0.897 2-2-0.897-2-2-2z"></path>
	<path d="M20 19.333c-1.839 0-3.333-1.495-3.333-3.333s1.495-3.333 3.333-3.333 3.333 1.495 3.333 3.333-1.495 3.333-3.333 3.333z"></path>
</svg>
