<?xml version="1.0" encoding="utf-8"?>
<!DOCTYPE svg PUBLIC "-//W3C//DTD SVG 1.1//EN" "http://www.w3.org/Graphics/SVG/1.1/DTD/svg11.dtd">
<svg version="1.1" xmlns="http://www.w3.org/2000/svg" xmlns:xlink="http://www.w3.org/1999/xlink" width="32" height="32" viewBox="0 0 32 32">

	<path d="M11.82 6.667c1.001 0 1.92 0.269 2.759 0.812 0.432-0.107 0.948-0.161 1.543-0.161 2.461 0 4.557 0.893 6.289 2.677 1.732 1.785 2.597 3.949 2.597 6.493 0 0.621-0.068 1.271-0.203 1.948 0.352 0.785 0.528 1.583 0.528 2.392 0 1.463-0.507 2.715-1.523 3.753-1.015 1.041-2.224 1.564-3.633 1.564-0.839 0-1.649-0.216-2.433-0.651-0.703 0.108-1.244 0.163-1.623 0.163-2.463 0-4.567-0.893-6.311-2.679s-2.617-3.949-2.617-6.491c0-0.596 0.068-1.203 0.203-1.827-0.485-0.812-0.729-1.717-0.729-2.719 0-1.461 0.501-2.705 1.501-3.732 1-1.029 2.219-1.544 3.652-1.544zM16 20.707c-0.541 0-0.972-0.081-1.3-0.244-0.351-0.189-0.593-0.379-0.729-0.567-0.324-0.596-0.501-0.908-0.528-0.933-0.108-0.324-0.269-0.596-0.485-0.812-0.271-0.187-0.541-0.284-0.813-0.284-0.379 0-0.689 0.121-0.933 0.365-0.244 0.243-0.365 0.528-0.365 0.852 0 0.515 0.192 1.068 0.571 1.664 0.351 0.54 0.839 0.988 1.461 1.337 0.864 0.461 1.933 0.692 3.205 0.692 1.053 0 1.987-0.163 2.8-0.487 0.812-0.379 1.407-0.852 1.785-1.42 0.405-0.623 0.608-1.3 0.608-2.029 0-0.593-0.107-1.136-0.323-1.623-0.217-0.405-0.555-0.771-1.016-1.093-0.487-0.3-1-0.543-1.541-0.731-0.919-0.272-1.571-0.448-1.948-0.528-0.191-0.028-0.427-0.073-0.711-0.143-0.284-0.067-0.467-0.113-0.547-0.141-0.324-0.107-0.555-0.203-0.691-0.283-0.217-0.108-0.392-0.257-0.528-0.448-0.137-0.133-0.203-0.311-0.203-0.528 0-0.324 0.189-0.607 0.568-0.852 0.353-0.271 0.865-0.407 1.541-0.407 0.677 0 1.179 0.123 1.503 0.364 0.351 0.3 0.608 0.637 0.769 1.016 0.217 0.352 0.393 0.595 0.528 0.729 0.216 0.164 0.473 0.245 0.771 0.245 0.352 0 0.664-0.136 0.932-0.408 0.245-0.241 0.367-0.539 0.367-0.892 0-0.269-0.096-0.623-0.285-1.055-0.216-0.324-0.501-0.648-0.852-0.972-0.379-0.299-0.879-0.556-1.503-0.772-0.647-0.191-1.339-0.284-2.069-0.284-0.973 0-1.84 0.147-2.597 0.447-0.755 0.267-1.337 0.673-1.743 1.215-0.407 0.541-0.609 1.163-0.609 1.867 0 0.703 0.191 1.312 0.568 1.827 0.461 0.54 0.973 0.917 1.541 1.135 0.651 0.299 1.435 0.543 2.355 0.731 0.161 0.028 0.36 0.075 0.588 0.141 0.229 0.069 0.432 0.123 0.609 0.164 0.175 0.037 0.317 0.073 0.425 0.1 0.379 0.137 0.689 0.324 0.932 0.569 0.244 0.188 0.365 0.472 0.365 0.852 0 0.461-0.216 0.839-0.648 1.137-0.485 0.324-1.095 0.485-1.825 0.485zM11.82 4c-2.145 0-4.071 0.813-5.565 2.353-1.473 1.512-2.255 3.447-2.255 5.589 0 1.109 0.208 2.159 0.621 3.131-0.063 0.476-0.093 0.951-0.093 1.416 0 3.251 1.137 6.063 3.376 8.356 2.257 2.309 5.024 3.48 8.219 3.48 0.339 0 0.729-0.027 1.195-0.080 0.92 0.377 1.879 0.568 2.861 0.568 2.117 0 4.033-0.819 5.543-2.369 1.489-1.524 2.279-3.467 2.279-5.615 0-0.903-0.148-1.799-0.443-2.672 0.079-0.569 0.119-1.128 0.119-1.668 0-3.249-1.128-6.059-3.351-8.351-2.247-2.313-5.007-3.487-8.203-3.487-0.372 0-0.728 0.017-1.068 0.051-1.008-0.467-2.091-0.703-3.235-0.703z"></path>
</svg>
