<?xml version="1.0" encoding="utf-8"?>
<!DOCTYPE svg PUBLIC "-//W3C//DTD SVG 1.1//EN" "http://www.w3.org/Graphics/SVG/1.1/DTD/svg11.dtd">
<svg version="1.1" xmlns="http://www.w3.org/2000/svg" xmlns:xlink="http://www.w3.org/1999/xlink" width="32" height="32" viewBox="0 0 32 32">

	<path d="M13.377 20.4h-2.133v-6.932h2.133v6.932zM12.311 12.579c-0.769 0-1.155-0.356-1.155-1.067 0-0.297 0.109-0.549 0.333-0.756 0.221-0.207 0.495-0.311 0.821-0.311 0.769 0 1.155 0.357 1.155 1.068s-0.384 1.065-1.155 1.065zM21.289 20.4h-2.177v-3.867c0-1.007-0.357-1.511-1.068-1.511-0.563 0-0.932 0.281-1.112 0.844-0.057 0.089-0.088 0.268-0.088 0.533v4h-2.177v-4.711c0-1.067-0.016-1.807-0.044-2.221h1.867l0.133 0.932c0.489-0.741 1.2-1.111 2.177-1.111 0.743 0 1.341 0.259 1.8 0.777 0.461 0.519 0.691 1.267 0.691 2.245v4.088z"></path>
	<path d="M16 28c-6.617 0-12-5.383-12-12s5.383-12 12-12 12 5.383 12 12-5.383 12-12 12zM16 6.667c-5.145 0-9.333 4.188-9.333 9.333s4.188 9.333 9.333 9.333 9.333-4.188 9.333-9.333-4.188-9.333-9.333-9.333z"></path>
</svg>
