<?xml version="1.0" encoding="utf-8"?>
<!DOCTYPE svg PUBLIC "-//W3C//DTD SVG 1.1//EN" "http://www.w3.org/Graphics/SVG/1.1/DTD/svg11.dtd">
<svg version="1.1" xmlns="http://www.w3.org/2000/svg" xmlns:xlink="http://www.w3.org/1999/xlink" width="32" height="32" viewBox="0 0 32 32">

	<path d="M19.284 12.188c-0.683 0-1.317 0.317-1.907 0.953-0.415 0.416-0.667 0.904-0.755 1.468 0.276-0.175 0.516-0.261 0.721-0.261 0.212 0 0.387 0.093 0.524 0.283 0.265 0.371 0.251 0.839-0.044 1.401-0.652 1.245-1.128 1.867-1.421 1.867-0.208 0-0.475-0.696-0.803-2.089-0.057-0.207-0.117-0.504-0.177-0.889-0.060-0.384-0.117-0.717-0.177-1-0.060-0.281-0.148-0.571-0.267-0.865s-0.267-0.512-0.444-0.644c-0.125-0.092-0.269-0.139-0.436-0.139-0.073 0-0.149 0.009-0.231 0.028-0.385 0.089-0.831 0.327-1.333 0.712-0.505 0.384-0.919 0.755-1.245 1.111l-0.445 0.533 0.401 0.532c0.060-0.059 0.133-0.119 0.221-0.177 0.088-0.060 0.252-0.135 0.489-0.223 0.101-0.037 0.188-0.057 0.255-0.057 0.092 0 0.155 0.033 0.191 0.101 0.088 0.119 0.361 0.956 0.82 2.512 0.461 1.556 0.749 2.452 0.867 2.689 0.208 0.415 0.489 0.733 0.844 0.956 0.173 0.107 0.361 0.161 0.569 0.161 0.22 0 0.461-0.063 0.72-0.185 0.801-0.532 1.719-1.421 2.756-2.667 1.037-1.244 1.673-2.563 1.911-3.955 0.208-1.215-0.147-1.912-1.065-2.089-0.184-0.047-0.363-0.067-0.539-0.067z"></path>
	<path d="M16 28c-6.617 0-12-5.383-12-12s5.383-12 12-12 12 5.383 12 12-5.383 12-12 12zM16 6.667c-5.145 0-9.333 4.188-9.333 9.333s4.188 9.333 9.333 9.333 9.333-4.188 9.333-9.333-4.188-9.333-9.333-9.333z"></path>
</svg>
