<?xml version="1.0" encoding="utf-8"?>
<!DOCTYPE svg PUBLIC "-//W3C//DTD SVG 1.1//EN" "http://www.w3.org/Graphics/SVG/1.1/DTD/svg11.dtd">
<svg version="1.1" xmlns="http://www.w3.org/2000/svg" xmlns:xlink="http://www.w3.org/1999/xlink" width="32" height="32" viewBox="0 0 32 32">

	<path d="M20.703 23.895v-2.755c-0.892 0.597-1.76 0.893-2.603 0.893-0.397 0-0.841-0.125-1.339-0.369-0.297-0.201-0.472-0.423-0.524-0.671-0.147-0.299-0.237-0.944-0.237-1.939v-4.388h4v-2.667h-4v-4.475h-2.363c-0.199 1.043-0.397 1.784-0.597 2.231-0.245 0.547-0.643 1.043-1.188 1.488-0.548 0.449-1.116 0.769-1.713 0.967v2.456h1.861v6.028c0 0.693 0.097 1.285 0.297 1.783 0.148 0.397 0.445 0.793 0.895 1.191 0.345 0.349 0.841 0.645 1.487 0.893 0.793 0.2 1.485 0.297 2.083 0.297 0.693 0 1.339-0.075 1.933-0.223 0.695-0.149 1.364-0.397 2.008-0.741z"></path>
</svg>
