<?xml version="1.0" encoding="utf-8"?>
<!DOCTYPE svg PUBLIC "-//W3C//DTD SVG 1.1//EN" "http://www.w3.org/Graphics/SVG/1.1/DTD/svg11.dtd">
<svg version="1.1" xmlns="http://www.w3.org/2000/svg" xmlns:xlink="http://www.w3.org/1999/xlink" width="32" height="32" viewBox="0 0 32 32">

	<path d="M19.169 20.787v-1.645c-0.532 0.357-1.051 0.533-1.555 0.533-0.237 0-0.503-0.076-0.8-0.221-0.179-0.12-0.281-0.252-0.312-0.401-0.088-0.177-0.133-0.563-0.133-1.156v-2.621h2.445v-1.644h-2.445v-2.623h-1.421c-0.119 0.623-0.237 1.067-0.356 1.333-0.147 0.325-0.384 0.623-0.711 0.888-0.327 0.268-0.667 0.46-1.023 0.579v1.468h1.111v3.6c0 0.415 0.059 0.768 0.179 1.065 0.088 0.237 0.265 0.473 0.533 0.711 0.205 0.208 0.503 0.385 0.888 0.533 0.473 0.12 0.888 0.177 1.245 0.177 0.415 0 0.8-0.044 1.155-0.133 0.416-0.089 0.816-0.237 1.2-0.443z"></path>
	<path d="M16 28c-6.617 0-12-5.383-12-12s5.383-12 12-12 12 5.383 12 12-5.383 12-12 12zM16 6.667c-5.145 0-9.333 4.188-9.333 9.333s4.188 9.333 9.333 9.333 9.333-4.188 9.333-9.333-4.188-9.333-9.333-9.333z"></path>
</svg>
