<?xml version="1.0" encoding="utf-8"?>
<!DOCTYPE svg PUBLIC "-//W3C//DTD SVG 1.1//EN" "http://www.w3.org/Graphics/SVG/1.1/DTD/svg11.dtd">
<svg version="1.1" xmlns="http://www.w3.org/2000/svg" xmlns:xlink="http://www.w3.org/1999/xlink" width="32" height="32" viewBox="0 0 32 32">

	<path d="M16 28c-6.617 0-12-5.383-12-12s5.383-12 12-12 12 5.383 12 12-5.383 12-12 12zM16 6.667c-5.145 0-9.333 4.188-9.333 9.333s4.188 9.333 9.333 9.333 9.333-4.188 9.333-9.333-4.188-9.333-9.333-9.333z"></path>
	<path d="M16.447 10.667c-3.291 0-4.949 2.36-4.949 4.325 0 1.193 0.451 2.251 1.417 2.645 0.159 0.065 0.301 0.003 0.348-0.172 0.031-0.123 0.107-0.429 0.14-0.557 0.047-0.172 0.028-0.233-0.099-0.385-0.279-0.328-0.459-0.755-0.459-1.359 0-1.749 1.309-3.316 3.411-3.316 1.861 0 2.881 1.137 2.881 2.653 0 1.997-0.883 3.683-2.195 3.683-0.724 0-1.267-0.599-1.093-1.335 0.208-0.877 0.612-1.824 0.612-2.457 0-0.568-0.305-1.039-0.933-1.039-0.741 0-1.336 0.765-1.336 1.792 0 0.653 0.221 1.096 0.221 1.096s-0.759 3.211-0.892 3.773c-0.264 1.12-0.039 2.493-0.020 2.632 0.011 0.083 0.116 0.103 0.164 0.040 0.069-0.089 0.951-1.18 1.251-2.267 0.085-0.307 0.488-1.903 0.488-1.903 0.24 0.459 0.943 0.861 1.691 0.861 2.227 0 3.737-2.028 3.737-4.747-0.001-2.051-1.741-3.965-4.385-3.965z"></path>
</svg>
