<?xml version="1.0" encoding="utf-8"?>
<!DOCTYPE svg PUBLIC "-//W3C//DTD SVG 1.1//EN" "http://www.w3.org/Graphics/SVG/1.1/DTD/svg11.dtd">
<svg version="1.1" xmlns="http://www.w3.org/2000/svg" xmlns:xlink="http://www.w3.org/1999/xlink" width="32" height="32" viewBox="0 0 32 32">

	<path d="M24.472 7.499c-2.333-2.321-5.184-3.499-8.472-3.499-3.319 0-6.177 1.179-8.497 3.5-2.324 2.321-3.503 5.183-3.503 8.5 0 3.287 1.177 6.137 3.499 8.472 2.321 2.341 5.181 3.528 8.501 3.528 3.289 0 6.14-1.187 8.475-3.524 2.34-2.337 3.525-5.189 3.525-8.476 0-3.317-1.187-6.179-3.528-8.501zM22.589 22.591c-1.516 1.519-3.248 2.384-5.256 2.647v-6.571h2.667v-2.667h-2.667v-1.867c0-0.441 0.359-0.8 0.801-0.8h1.865v-2.667h-1.863c-0.989 0-1.815 0.364-2.476 1.096-0.661 0.729-0.995 1.62-0.995 2.677v1.56h-2.667v2.667h2.667v6.573c-2.029-0.26-3.768-1.127-5.276-2.645-1.833-1.845-2.724-4.003-2.724-6.595 0-2.621 0.889-4.784 2.723-6.613 1.827-1.831 3.989-2.72 6.611-2.72 2.593 0 4.749 0.891 6.593 2.724 1.844 1.829 2.74 3.992 2.74 6.609 0 2.588-0.897 4.745-2.744 6.591z"></path>
</svg>
