<?xml version="1.0" encoding="utf-8"?>
<!DOCTYPE svg PUBLIC "-//W3C//DTD SVG 1.1//EN" "http://www.w3.org/Graphics/SVG/1.1/DTD/svg11.dtd">
<svg version="1.1" xmlns="http://www.w3.org/2000/svg" xmlns:xlink="http://www.w3.org/1999/xlink" width="32" height="32" viewBox="0 0 32 32">

	<path d="M16 28c-6.617 0-12-5.384-12-12s5.383-12 12-12 12 5.384 12 12-5.383 12-12 12zM16 6.667c-5.145 0-9.333 4.187-9.333 9.333s4.188 9.333 9.333 9.333 9.333-4.187 9.333-9.333-4.188-9.333-9.333-9.333z"></path>
	<path d="M18.087 16.835c0.228 0 0.421 0.112 0.588 0.34 0.165 0.225 0.249 0.504 0.249 0.833 0 0.331-0.083 0.609-0.249 0.835s-0.361 0.339-0.588 0.339c-0.241 0-0.449-0.112-0.615-0.339-0.165-0.225-0.249-0.504-0.249-0.835s0.083-0.608 0.249-0.833c0.167-0.228 0.375-0.34 0.615-0.34zM21.033 13.783c0.643 0.696 0.967 1.54 0.967 2.531 0 0.643-0.076 1.22-0.221 1.735-0.148 0.512-0.336 0.931-0.56 1.252-0.228 0.323-0.504 0.605-0.836 0.847-0.332 0.245-0.637 0.421-0.913 0.535-0.277 0.113-0.595 0.2-0.955 0.261-0.355 0.063-0.623 0.096-0.808 0.105-0.18 0.008-0.376 0.012-0.587 0.012-0.047 0-0.207 0.005-0.469 0.013-0.257 0.011-0.479 0.015-0.651 0.015s-0.393-0.004-0.651-0.015c-0.261-0.008-0.421-0.013-0.469-0.013-0.211 0-0.408-0.003-0.587-0.012-0.187-0.009-0.455-0.043-0.808-0.105-0.361-0.060-0.677-0.147-0.955-0.261-0.276-0.112-0.581-0.289-0.912-0.535-0.333-0.243-0.609-0.525-0.837-0.847-0.224-0.321-0.412-0.74-0.56-1.252-0.145-0.515-0.221-1.092-0.221-1.735 0-0.991 0.323-1.835 0.967-2.531-0.071-0.035-0.075-0.381-0.011-1.043 0.057-0.661 0.197-1.271 0.425-1.827 0.803 0.085 1.791 0.539 2.973 1.356 0.4-0.104 0.947-0.157 1.644-0.157 0.732 0 1.279 0.053 1.645 0.157 0.539-0.364 1.055-0.661 1.547-0.888 0.499-0.224 0.859-0.356 1.085-0.391l0.339-0.077c0.229 0.556 0.369 1.167 0.427 1.827 0.067 0.661 0.063 1.008-0.008 1.043zM16.028 20.485c1.444 0 2.532-0.172 3.272-0.52 0.737-0.347 1.111-1.061 1.111-2.14 0-0.625-0.235-1.148-0.705-1.565-0.241-0.227-0.525-0.364-0.851-0.417-0.317-0.052-0.809-0.052-1.472 0-0.66 0.053-1.112 0.077-1.355 0.077-0.331 0-0.689-0.017-1.135-0.052-0.445-0.033-0.795-0.055-1.044-0.065-0.255-0.008-0.527 0.024-0.821 0.092-0.297 0.071-0.539 0.191-0.733 0.364-0.448 0.4-0.676 0.921-0.676 1.565 0 1.079 0.365 1.793 1.095 2.14 0.729 0.348 1.815 0.52 3.259 0.52zM13.94 16.835c0.227 0 0.421 0.112 0.587 0.34 0.165 0.225 0.249 0.504 0.249 0.833 0 0.331-0.083 0.609-0.249 0.835-0.165 0.225-0.361 0.339-0.587 0.339-0.243 0-0.449-0.112-0.616-0.339-0.165-0.225-0.249-0.504-0.249-0.835s0.083-0.608 0.249-0.833c0.167-0.228 0.373-0.34 0.616-0.34z"></path>
</svg>
