<?xml version="1.0" encoding="utf-8"?>
<!DOCTYPE svg PUBLIC "-//W3C//DTD SVG 1.1//EN" "http://www.w3.org/Graphics/SVG/1.1/DTD/svg11.dtd">
<svg version="1.1" xmlns="http://www.w3.org/2000/svg" xmlns:xlink="http://www.w3.org/1999/xlink" width="32" height="32" viewBox="0 0 32 32">

	<path d="M25.227 11.701c-0.439 2.572-1.615 5.011-3.532 7.307-1.915 2.3-3.613 3.943-5.092 4.927-0.932 0.441-1.724 0.453-2.381 0.045-0.657-0.413-1.177-1.001-1.559-1.767-0.22-0.437-0.753-2.092-1.603-4.971-0.848-2.873-1.356-4.42-1.519-4.639-0.111-0.217-0.384-0.245-0.821-0.081-0.44 0.163-0.74 0.301-0.904 0.412-0.164 0.108-0.301 0.22-0.411 0.327l-0.739-0.983 0.821-0.987c0.603-0.656 1.368-1.343 2.299-2.053 0.933-0.712 1.752-1.149 2.464-1.316 0.495-0.107 0.905-0.037 1.232 0.208 0.329 0.245 0.603 0.645 0.821 1.192 0.22 0.545 0.385 1.081 0.492 1.599 0.111 0.523 0.22 1.139 0.331 1.849 0.108 0.712 0.219 1.26 0.328 1.643 0.601 2.573 1.095 3.861 1.479 3.861 0.547 0 1.423-1.151 2.628-3.453 0.547-1.039 0.576-1.901 0.083-2.588-0.492-0.683-1.257-0.696-2.299-0.039 0.164-1.040 0.629-1.941 1.395-2.708 1.368-1.479 2.876-2.028 4.517-1.645 1.697 0.329 2.353 1.617 1.969 3.86z"></path>
</svg>
