<?xml version="1.0" encoding="utf-8"?>
<!DOCTYPE svg PUBLIC "-//W3C//DTD SVG 1.1//EN" "http://www.w3.org/Graphics/SVG/1.1/DTD/svg11.dtd">
<svg version="1.1" xmlns="http://www.w3.org/2000/svg" xmlns:xlink="http://www.w3.org/1999/xlink" width="32" height="32" viewBox="0 0 32 32">

	<path d="M20.372 13.711c0.477-0.295 0.796-0.695 0.951-1.205-0.465 0.248-0.929 0.416-1.393 0.511-0.416-0.448-0.944-0.676-1.576-0.676-0.619 0-1.14 0.217-1.567 0.639-0.423 0.424-0.637 0.941-0.637 1.544 0 0.183 0.023 0.347 0.069 0.485-1.824-0.064-3.332-0.819-4.521-2.275-0.201 0.356-0.303 0.719-0.303 1.093 0 0.771 0.325 1.381 0.973 1.831-0.369-0.031-0.695-0.125-0.973-0.279 0 0.551 0.161 1.011 0.487 1.416 0.324 0.4 0.743 0.656 1.252 0.764-0.185 0.048-0.38 0.071-0.58 0.071-0.187 0-0.316-0.016-0.395-0.049 0.139 0.449 0.395 0.812 0.765 1.091 0.369 0.28 0.796 0.427 1.276 0.44-0.788 0.62-1.692 0.925-2.713 0.925-0.251 0-0.427-0.003-0.533-0.023 1.005 0.652 2.125 0.977 3.361 0.977 1.268 0 2.389-0.321 3.363-0.964 0.973-0.639 1.695-1.427 2.156-2.356 0.464-0.927 0.695-1.892 0.695-2.899v-0.279c0.448-0.337 0.812-0.717 1.091-1.139-0.397 0.177-0.815 0.296-1.247 0.356z"></path>
	<path d="M16 28c-3.32 0-6.18-1.187-8.501-3.528-2.321-2.335-3.499-5.185-3.499-8.472 0-3.317 1.179-6.179 3.503-8.5 2.32-2.321 5.179-3.5 8.497-3.5 3.288 0 6.139 1.177 8.472 3.499 2.341 2.323 3.528 5.184 3.528 8.501 0 3.287-1.185 6.139-3.525 8.476-2.335 2.337-5.185 3.524-8.475 3.524zM16 6.667c-2.621 0-4.784 0.889-6.611 2.72-1.833 1.829-2.723 3.992-2.723 6.613 0 2.592 0.891 4.749 2.724 6.593 1.829 1.844 3.991 2.74 6.609 2.74 2.591 0 4.747-0.897 6.589-2.743 1.847-1.845 2.744-4.003 2.744-6.591 0-2.617-0.896-4.78-2.74-6.609-1.844-1.833-4-2.724-6.593-2.724z"></path>
</svg>
