<?xml version="1.0" encoding="utf-8"?>
<!DOCTYPE svg PUBLIC "-//W3C//DTD SVG 1.1//EN" "http://www.w3.org/Graphics/SVG/1.1/DTD/svg11.dtd">
<svg version="1.1" xmlns="http://www.w3.org/2000/svg" xmlns:xlink="http://www.w3.org/1999/xlink" width="32" height="32" viewBox="0 0 32 32">

	<path d="M16 28c-6.616 0-12-5.383-12-12s5.384-12 12-12 12 5.383 12 12-5.384 12-12 12zM16 6.667c-5.147 0-9.333 4.188-9.333 9.333s4.187 9.333 9.333 9.333 9.333-4.188 9.333-9.333-4.187-9.333-9.333-9.333z"></path>
	<path d="M16 8.667c-4.044 0-7.333 3.291-7.333 7.333s3.289 7.333 7.333 7.333 7.333-3.291 7.333-7.333-3.289-7.333-7.333-7.333zM21.987 15.869c-1.397-0.248-2.8-0.24-4.137 0.056-0.169-0.435-0.356-0.863-0.556-1.287 1.167-0.699 2.203-1.628 3.045-2.76 0.995 1.047 1.615 2.445 1.648 3.991zM19.32 11.008c-0.728 0.997-1.62 1.823-2.633 2.443-0.639-1.141-1.395-2.217-2.256-3.216 0.504-0.137 1.023-0.235 1.569-0.235 1.228 0 2.368 0.373 3.32 1.008zM13.132 10.763c0.916 1.011 1.704 2.12 2.368 3.297-1.651 0.708-3.496 0.921-5.331 0.583 0.391-1.679 1.491-3.069 2.963-3.88zM10 16c0.624 0.085 1.248 0.161 1.865 0.161 1.475 0 2.916-0.325 4.247-0.911 0.164 0.348 0.317 0.699 0.459 1.057-1.959 0.701-3.692 1.985-4.971 3.74-0.984-1.069-1.6-2.483-1.6-4.048zM12.597 20.932c1.123-1.585 2.672-2.743 4.424-3.369 0.419 1.335 0.691 2.719 0.795 4.127-0.577 0.184-1.179 0.311-1.816 0.311-1.264 0-2.435-0.397-3.403-1.068zM19.093 21.115c-0.132-1.333-0.395-2.644-0.791-3.916 1.16-0.235 2.371-0.229 3.577 0.001-0.341 1.663-1.38 3.061-2.787 3.915z"></path>
</svg>
