<?xml version="1.0" encoding="utf-8"?>
<!DOCTYPE svg PUBLIC "-//W3C//DTD SVG 1.1//EN" "http://www.w3.org/Graphics/SVG/1.1/DTD/svg11.dtd">
<svg version="1.1" xmlns="http://www.w3.org/2000/svg" xmlns:xlink="http://www.w3.org/1999/xlink" width="32" height="32" viewBox="0 0 32 32">

	<path d="M27.557 17.749c0.079-0.569 0.119-1.128 0.119-1.668 0-3.249-1.128-6.059-3.351-8.351-2.247-2.313-5.007-3.487-8.203-3.487-0.372 0-0.728 0.017-1.068 0.051-1.008-0.467-2.091-0.701-3.235-0.701-2.145 0-4.071 0.813-5.565 2.353-1.473 1.513-2.255 3.447-2.255 5.589 0 1.109 0.208 2.159 0.621 3.131-0.063 0.476-0.093 0.951-0.093 1.416 0 3.251 1.137 6.063 3.376 8.356 2.257 2.309 5.024 3.48 8.219 3.48 0.339 0 0.729-0.027 1.195-0.080 0.92 0.377 1.879 0.568 2.861 0.568 2.117 0 4.033-0.819 5.543-2.369 1.489-1.524 2.279-3.467 2.279-5.615 0-0.903-0.148-1.799-0.443-2.673zM20.667 20.464c-0.379 0.569-0.972 1.041-1.785 1.42-0.812 0.324-1.747 0.487-2.8 0.487-1.272 0-2.341-0.231-3.205-0.692-0.623-0.349-1.111-0.797-1.461-1.337-0.379-0.596-0.571-1.149-0.571-1.664 0-0.324 0.123-0.609 0.365-0.852 0.245-0.245 0.555-0.365 0.933-0.365 0.271 0 0.541 0.096 0.812 0.284 0.216 0.216 0.377 0.488 0.485 0.812 0.028 0.027 0.204 0.337 0.528 0.933 0.136 0.188 0.379 0.377 0.729 0.567 0.327 0.163 0.757 0.244 1.3 0.244 0.731 0 1.34-0.161 1.827-0.485 0.432-0.299 0.648-0.676 0.648-1.137 0-0.379-0.123-0.664-0.365-0.852-0.244-0.245-0.553-0.432-0.932-0.569-0.108-0.028-0.251-0.063-0.425-0.1-0.177-0.041-0.38-0.095-0.609-0.164-0.229-0.068-0.427-0.115-0.588-0.141-0.919-0.188-1.703-0.432-2.355-0.731-0.568-0.216-1.081-0.593-1.541-1.135-0.377-0.515-0.568-1.124-0.568-1.827 0-0.704 0.203-1.325 0.609-1.867 0.405-0.541 0.987-0.948 1.744-1.217 0.759-0.299 1.625-0.445 2.599-0.445 0.731 0 1.421 0.093 2.069 0.284 0.624 0.216 1.124 0.473 1.503 0.772 0.351 0.324 0.636 0.648 0.852 0.972 0.189 0.432 0.285 0.785 0.285 1.055 0 0.353-0.123 0.651-0.367 0.892-0.268 0.272-0.581 0.408-0.932 0.408-0.297 0-0.555-0.081-0.771-0.245-0.136-0.135-0.311-0.377-0.528-0.729-0.161-0.379-0.419-0.716-0.769-1.016-0.324-0.243-0.825-0.364-1.503-0.364-0.676 0-1.189 0.136-1.541 0.407-0.379 0.245-0.568 0.528-0.568 0.852 0 0.216 0.067 0.395 0.203 0.528 0.136 0.191 0.309 0.34 0.528 0.448 0.136 0.080 0.365 0.176 0.691 0.283 0.081 0.028 0.263 0.076 0.547 0.141 0.284 0.071 0.521 0.116 0.711 0.143 0.377 0.081 1.028 0.256 1.948 0.528 0.541 0.188 1.055 0.431 1.541 0.731 0.461 0.323 0.799 0.689 1.016 1.093 0.216 0.487 0.323 1.028 0.323 1.623-0.003 0.731-0.205 1.408-0.611 2.031z"></path>
</svg>
