<?xml version="1.0" encoding="utf-8"?>
<!DOCTYPE svg PUBLIC "-//W3C//DTD SVG 1.1//EN" "http://www.w3.org/Graphics/SVG/1.1/DTD/svg11.dtd">
<svg version="1.1" xmlns="http://www.w3.org/2000/svg" xmlns:xlink="http://www.w3.org/1999/xlink" width="32" height="32" viewBox="0 0 32 32">

	<path d="M16 28c-3.319 0-6.18-1.187-8.501-3.528-2.321-2.335-3.499-5.187-3.499-8.472 0-3.319 1.179-6.177 3.503-8.5 2.32-2.321 5.18-3.5 8.497-3.5 3.288 0 6.139 1.177 8.472 3.499 2.34 2.323 3.528 5.183 3.528 8.501 0 3.285-1.187 6.139-3.525 8.476-2.335 2.339-5.185 3.524-8.475 3.524zM16 6.667c-2.621 0-4.784 0.889-6.611 2.72-1.832 1.829-2.723 3.992-2.723 6.613 0 2.592 0.891 4.749 2.724 6.593 1.829 1.844 3.991 2.74 6.609 2.74 2.591 0 4.747-0.897 6.588-2.741 1.848-1.847 2.745-4.003 2.745-6.592 0-2.617-0.896-4.78-2.74-6.609-1.844-1.833-4-2.724-6.593-2.724z"></path>
	<path d="M18.932 19.111c1.78 0 2.667-0.592 2.667-1.777 0-0.977-0.563-1.599-1.689-1.867l-0.843-0.177c-0.472-0.119-0.712-0.369-0.712-0.755 0-0.445 0.299-0.667 0.888-0.667 0.653 0 0.995 0.251 1.023 0.753l1.289-0.133c-0.084-1.096-0.829-1.644-2.221-1.644-1.512 0-2.265 0.623-2.265 1.868 0 0.887 0.487 1.451 1.465 1.689l0.891 0.177c0.591 0.147 0.888 0.416 0.888 0.801 0 0.472-0.46 0.709-1.379 0.709-1.125 0-1.864-0.548-2.221-1.644l-0.445-1.289c-0.265-0.859-0.599-1.46-1-1.8-0.4-0.34-1.028-0.512-1.888-0.512-0.801 0-1.504 0.297-2.112 0.889-0.608 0.593-0.911 1.377-0.911 2.356 0 0.917 0.288 1.652 0.865 2.199 0.58 0.551 1.267 0.823 2.067 0.823 0.803 0 1.437-0.192 1.912-0.577l-0.399-1.112c-0.415 0.416-0.905 0.624-1.468 0.624-0.472 0-0.883-0.187-1.221-0.556-0.343-0.369-0.513-0.853-0.513-1.445 0-0.741 0.185-1.281 0.556-1.623s0.792-0.511 1.268-0.511c0.505 0 0.864 0.133 1.088 0.399 0.223 0.268 0.42 0.683 0.6 1.247l0.4 1.289c0.475 1.511 1.616 2.265 3.421 2.265z"></path>
</svg>
