<?xml version="1.0" encoding="utf-8"?>
<!DOCTYPE svg PUBLIC "-//W3C//DTD SVG 1.1//EN" "http://www.w3.org/Graphics/SVG/1.1/DTD/svg11.dtd">
<svg version="1.1" xmlns="http://www.w3.org/2000/svg" xmlns:xlink="http://www.w3.org/1999/xlink" width="32" height="32" viewBox="0 0 32 32">

	<path d="M15.792 10c-3.308 0-5.917 2.692-5.917 6s2.733 6 6.041 6c1.211 0 2.399-0.36 3.396-1.037 0.304-0.207 0.393-0.621 0.185-0.925-0.207-0.305-0.616-0.383-0.921-0.176-0.773 0.528-1.677 0.805-2.62 0.805-2.573 0-4.665-2.093-4.665-4.667s1.928-4.667 4.501-4.667 4.5 2.093 4.5 4.667v0.333c0 0.552-0.448 1-1 1s-1-0.448-1-1v-2.333c0-0.368-0.132-0.667-0.5-0.667-0.273 0-0.424 0.165-0.528 0.401-0.404-0.251-0.837-0.401-1.347-0.401-1.472 0-2.645 1.195-2.645 2.667s1.205 2.667 2.677 2.667c0.749 0 1.431-0.313 1.917-0.812 0.425 0.492 0.885 0.812 1.589 0.812 1.287 0 2.169-1.047 2.169-2.333v-0.333c0-3.308-2.525-6-5.833-6zM15.959 17.333c-0.735 0-1.333-0.599-1.333-1.333s0.599-1.333 1.333-1.333 1.333 0.599 1.333 1.333-0.599 1.333-1.333 1.333z"></path>
	<path d="M16 28c-6.617 0-12-5.383-12-12s5.383-12 12-12 12 5.383 12 12-5.383 12-12 12zM16 6.667c-5.145 0-9.333 4.188-9.333 9.333s4.188 9.333 9.333 9.333 9.333-4.188 9.333-9.333-4.188-9.333-9.333-9.333z"></path>
</svg>
