<?xml version="1.0" encoding="utf-8"?>
<!DOCTYPE svg PUBLIC "-//W3C//DTD SVG 1.1//EN" "http://www.w3.org/Graphics/SVG/1.1/DTD/svg11.dtd">
<svg version="1.1" xmlns="http://www.w3.org/2000/svg" xmlns:xlink="http://www.w3.org/1999/xlink" width="32" height="32" viewBox="0 0 32 32">

	<path d="M21.256 21.576c3.165 0 4.744-1.055 4.744-3.164 0-1.739-0.999-2.843-3.005-3.32l-1.492-0.313c-0.849-0.212-1.268-0.66-1.268-1.345 0-0.792 0.528-1.185 1.581-1.185 1.159 0 1.764 0.445 1.817 1.341l2.289-0.237c-0.152-1.951-1.479-2.927-3.949-2.927-2.692 0-4.035 1.109-4.035 3.327 0 1.576 0.872 2.58 2.611 3.001l1.584 0.315c1.053 0.261 1.581 0.74 1.581 1.424 0 0.841-0.819 1.265-2.456 1.265-1.997 0-3.319-0.976-3.949-2.927l-0.796-2.295c-0.472-1.527-1.061-2.596-1.779-3.201-0.707-0.6-1.823-0.911-3.359-0.911-1.425 0-2.676 0.528-3.753 1.584-1.081 1.055-1.623 2.451-1.623 4.189 0 1.631 0.511 2.937 1.541 3.913 1.032 0.977 2.251 1.465 3.675 1.465 1.425 0 2.557-0.341 3.4-1.027l-0.707-1.98c-0.739 0.741-1.615 1.111-2.613 1.111-0.84 0-1.567-0.331-2.171-0.992-0.607-0.656-0.915-1.516-0.915-2.569 0-1.319 0.329-2.277 0.991-2.884 0.663-0.607 1.408-0.908 2.252-0.908 0.899 0 1.54 0.236 1.943 0.707 0.395 0.476 0.747 1.216 1.063 2.216l0.716 2.295c0.843 2.685 2.872 4.032 6.081 4.032z"></path>
</svg>
