<?xml version="1.0" encoding="utf-8"?>
<!DOCTYPE svg PUBLIC "-//W3C//DTD SVG 1.1//EN" "http://www.w3.org/Graphics/SVG/1.1/DTD/svg11.dtd">
<svg version="1.1" xmlns="http://www.w3.org/2000/svg" xmlns:xlink="http://www.w3.org/1999/xlink" width="32" height="32" viewBox="0 0 32 32">

	<path d="M7.491 18.667h3.685l-1.843-3.685z"></path>
	<path d="M28 18.667l3.2-4.267c0.915-1.22 1.060-2.825 0.379-4.189-0.683-1.364-2.053-2.211-3.579-2.211h-8c-2.205 0-4 1.795-4 4 0 1.027 0.393 1.959 1.032 2.667h-0.365c-0.491 0-0.944 0.143-1.34 0.375l-2.415-4.831c-0.664-1.327-2.036-2.152-3.579-2.152s-2.915 0.825-3.579 2.152l-5.333 10.667c-0.477 0.956-0.555 2.040-0.217 3.055s1.051 1.835 2.005 2.313c0.552 0.276 1.172 0.421 1.789 0.421 1.524 0 2.895-0.847 3.579-2.209l0.228-0.457h3.055l0.228 0.456c0.683 1.364 2.053 2.211 3.579 2.211 0.619 0 1.237-0.145 1.789-0.421 0.324-0.163 0.607-0.376 0.869-0.611 0.72 0.651 1.661 1.032 2.675 1.032h8c2.205 0 4-1.795 4-4s-1.795-4-4-4zM15.263 23.86c-0.191 0.095-0.395 0.14-0.595 0.14-0.491 0-0.961-0.271-1.195-0.737l-0.964-1.929h-6.352l-0.965 1.929c-0.233 0.467-0.704 0.737-1.193 0.737-0.2 0-0.404-0.045-0.595-0.141-0.659-0.329-0.925-1.131-0.596-1.789l5.333-10.667c0.225-0.451 0.709-0.677 1.192-0.677s0.967 0.225 1.193 0.677l5.333 10.667c0.329 0.66 0.061 1.46-0.597 1.791zM16.667 18.667c-0.736 0-1.333-0.597-1.333-1.333s0.597-1.333 1.333-1.333h1.333c0.736 0 1.333 0.597 1.333 1.333s-0.597 1.333-1.333 1.333h-1.333zM28 24h-8c-0.505 0-0.967-0.285-1.193-0.737s-0.176-0.992 0.127-1.396l6.4-8.533h-5.333c-0.736 0-1.333-0.597-1.333-1.333s0.597-1.333 1.333-1.333h8c0.505 0 0.967 0.285 1.193 0.737s0.176 0.992-0.127 1.396l-6.4 8.533h5.333c0.736 0 1.333 0.597 1.333 1.333s-0.597 1.333-1.333 1.333z"></path>
</svg>
