<?xml version="1.0" encoding="utf-8"?>
<!DOCTYPE svg PUBLIC "-//W3C//DTD SVG 1.1//EN" "http://www.w3.org/Graphics/SVG/1.1/DTD/svg11.dtd">
<svg version="1.1" xmlns="http://www.w3.org/2000/svg" xmlns:xlink="http://www.w3.org/1999/xlink" width="32" height="32" viewBox="0 0 32 32">

	<path d="M31.056 16.179c0.184-0.593 0.277-1.213 0.277-1.845 0-3.492-2.841-6.333-6.333-6.333-1.861 0-3.58 0.813-4.764 2.176-0.028-0.028-0.047-0.061-0.075-0.089-1.297-1.299-3.132-2.044-5.035-2.044-1.896 0-3.725 0.741-5.027 2.033-0.352-0.575-0.859-1.084-1.496-1.477-0.632-0.392-1.376-0.599-2.151-0.599-0.643 0-1.273 0.145-1.825 0.421l-1.875 0.996c-1.923 0.961-2.735 3.368-1.751 5.336 0.363 0.724 0.952 1.309 1.664 1.696v6.217c0 2.205 1.795 4 4 4 1.021 0 1.944-0.396 2.652-1.028 0.72 0.649 1.667 1.028 2.681 1.028h6.667c1.037 0 1.972-0.407 2.68-1.060 1.061 0.667 2.308 1.060 3.653 1.060 3.86 0 7-3.14 7-7 0-1.229-0.333-2.433-0.944-3.488zM8 22.667c0 0.736-0.597 1.333-1.333 1.333s-1.333-0.597-1.333-1.333v-8.509c-0.192 0.096-0.408 0.141-0.628 0.141-0.535 0-1.084-0.271-1.317-0.737-0.329-0.659-0.041-1.46 0.617-1.789l1.815-0.965c0.188-0.093 0.409-0.14 0.633-0.14 0.265 0 0.533 0.067 0.748 0.199 0.392 0.244 0.799 0.672 0.799 1.135v10.667zM18.667 24h-6.667c-0.539 0-1.025-0.325-1.232-0.823-0.207-0.499-0.092-1.072 0.289-1.453l5.333-5.333c0.339-0.339 0.525-0.788 0.525-1.267 0-0.477-0.187-0.927-0.525-1.265s-0.801-0.508-1.265-0.508-0.928 0.169-1.269 0.509c-0.336 0.336-0.523 0.785-0.523 1.264 0 0.736-0.597 1.333-1.333 1.333s-1.333-0.597-1.333-1.333c0-1.192 0.464-2.311 1.307-3.152s1.997-1.263 3.152-1.263 2.308 0.421 3.151 1.264c0.843 0.841 1.305 1.961 1.305 3.151 0 1.191-0.464 2.311-1.305 3.152l-3.057 3.057h3.448c0.736 0 1.333 0.597 1.333 1.333s-0.597 1.333-1.333 1.333zM25 24c-2.389 0-4.333-1.944-4.333-4.333 0-0.736 0.597-1.333 1.333-1.333s1.333 0.597 1.333 1.333c0 0.919 0.748 1.667 1.667 1.667s1.667-0.748 1.667-1.667-0.748-1.667-1.667-1.667c-0.736 0-1.333-0.597-1.333-1.333s0.597-1.333 1.333-1.333c0.552 0 1-0.448 1-1s-0.448-1-1-1c-0.375 0-0.715 0.207-0.887 0.539-0.237 0.457-0.703 0.72-1.185 0.72-0.207 0-0.416-0.048-0.612-0.149-0.655-0.339-0.909-1.143-0.571-1.797 0.633-1.22 1.88-1.979 3.255-1.979 2.021 0 3.667 1.644 3.667 3.667 0 0.815-0.276 1.56-0.727 2.169 0.852 0.792 1.393 1.912 1.393 3.164 0 2.389-1.944 4.333-4.333 4.333z"></path>
</svg>
