<?xml version="1.0" encoding="utf-8"?>
<!DOCTYPE svg PUBLIC "-//W3C//DTD SVG 1.1//EN" "http://www.w3.org/Graphics/SVG/1.1/DTD/svg11.dtd">
<svg version="1.1" xmlns="http://www.w3.org/2000/svg" xmlns:xlink="http://www.w3.org/1999/xlink" width="32" height="32" viewBox="0 0 32 32">

	<path d="M14.527 22.071l-5.333-10.667c-0.452-0.904-1.933-0.904-2.385 0l-5.333 10.667c-0.329 0.659-0.063 1.46 0.596 1.789 0.66 0.331 1.46 0.061 1.789-0.596l0.964-1.931h6.352l0.965 1.929c0.233 0.468 0.704 0.737 1.193 0.737 0.2 0 0.404-0.045 0.595-0.14 0.659-0.331 0.927-1.131 0.597-1.789zM6.157 18.667l1.843-3.685 1.843 3.685h-3.685z"></path>
	<path d="M29.333 24h-8c-0.505 0-0.967-0.285-1.193-0.737s-0.176-0.992 0.127-1.396l6.4-8.533h-5.333c-0.736 0-1.333-0.597-1.333-1.333s0.597-1.333 1.333-1.333h8c0.505 0 0.967 0.285 1.193 0.737s0.176 0.992-0.127 1.396l-6.4 8.533h5.333c0.736 0 1.333 0.597 1.333 1.333s-0.597 1.333-1.333 1.333z"></path>
	<path d="M18.667 18.667h-2.667c-0.736 0-1.333-0.597-1.333-1.333s0.597-1.333 1.333-1.333h2.667c0.736 0 1.333 0.597 1.333 1.333s-0.597 1.333-1.333 1.333z"></path>
</svg>
