<?xml version="1.0" encoding="utf-8"?>
<!DOCTYPE svg PUBLIC "-//W3C//DTD SVG 1.1//EN" "http://www.w3.org/Graphics/SVG/1.1/DTD/svg11.dtd">
<svg version="1.1" xmlns="http://www.w3.org/2000/svg" xmlns:xlink="http://www.w3.org/1999/xlink" width="32" height="32" viewBox="0 0 32 32">

	<path d="M5.333 24c-0.736 0-1.333-0.597-1.333-1.333v-8.509l-0.737 0.368c-0.66 0.331-1.46 0.061-1.789-0.596-0.329-0.659-0.061-1.459 0.597-1.789l2.667-1.333c0.413-0.207 0.904-0.185 1.297 0.059 0.392 0.244 0.632 0.672 0.632 1.135v10.667c0 0.736-0.597 1.333-1.333 1.333z"></path>
	<path d="M17.333 24h-6.667c-0.539 0-1.025-0.325-1.232-0.823-0.207-0.499-0.092-1.072 0.289-1.453l5.333-5.333c0.339-0.339 0.525-0.788 0.525-1.267 0-0.477-0.187-0.927-0.525-1.265-0.677-0.677-1.853-0.677-2.533 0.001-0.337 0.336-0.524 0.785-0.524 1.264 0 0.736-0.597 1.333-1.333 1.333s-1.333-0.597-1.333-1.333c0-1.192 0.464-2.311 1.307-3.152 1.687-1.684 4.619-1.684 6.303 0.001 0.843 0.841 1.305 1.961 1.305 3.151 0 1.191-0.464 2.311-1.305 3.152l-3.057 3.057h3.448c0.736 0 1.333 0.597 1.333 1.333s-0.597 1.333-1.333 1.333z"></path>
	<path d="M27.94 16.503c0.451-0.609 0.727-1.355 0.727-2.169 0-2.023-1.645-3.667-3.667-3.667-1.375 0-2.621 0.759-3.253 1.979-0.339 0.653-0.084 1.459 0.571 1.797 0.653 0.339 1.459 0.083 1.797-0.571 0.171-0.332 0.511-0.539 0.885-0.539 0.552 0 1 0.448 1 1s-0.448 1-1 1c-0.736 0-1.333 0.597-1.333 1.333s0.597 1.333 1.333 1.333c0.919 0 1.667 0.748 1.667 1.667s-0.748 1.667-1.667 1.667-1.667-0.748-1.667-1.667c0-0.736-0.597-1.333-1.333-1.333s-1.333 0.597-1.333 1.333c0 2.389 1.944 4.333 4.333 4.333s4.333-1.944 4.333-4.333c0-1.252-0.541-2.372-1.393-3.164z"></path>
</svg>
