<?xml version="1.0" encoding="utf-8"?>
<!DOCTYPE svg PUBLIC "-//W3C//DTD SVG 1.1//EN" "http://www.w3.org/Graphics/SVG/1.1/DTD/svg11.dtd">
<svg version="1.1" xmlns="http://www.w3.org/2000/svg" xmlns:xlink="http://www.w3.org/1999/xlink" width="32" height="32" viewBox="0 0 32 32">

	<path d="M12 21.333c0 0.736-0.597 1.333-1.333 1.333s-1.333-0.597-1.333-1.333c0-0.736 0.597-1.333 1.333-1.333s1.333 0.597 1.333 1.333z"></path>
	<path d="M27.644 6.209c-0.523-0.504-1.351-0.503-1.865 0.012 0.516-0.515 0.517-1.344 0.013-1.867-1.437-1.056-3.207-1.688-5.125-1.688-4.787 0-8.667 3.88-8.667 8.667 0 0.172 0.031 0.336 0.041 0.505-0.449 0.319-3.857 2.863-5.677 4.401-1.513 1.32-2.364 3.167-2.364 5.093 0 3.676 2.991 6.667 6.667 6.667 1.953 0 3.805-0.867 5.081-2.379 1.564-1.833 4.107-5.231 4.423-5.639 0.16-0.013 0.324 0.017 0.496 0.017 4.787 0 8.667-3.88 8.667-8.667 0-1.92-0.632-3.688-1.689-5.124zM10.667 25.333c-2.208 0-4-1.791-4-4 0-1.227 0.564-2.309 1.419-3.056 3.157-2.669 4.823-3.664 6.82-5.353-0.14-0.509-0.239-1.036-0.239-1.591 0-3.313 2.687-6 6-6 0.627 0 1.219 0.123 1.785 0.301l-3.785 3.699 0.667 3.333 3.333 0.667 3.74-3.655c0.153 0.528 0.26 1.076 0.26 1.655 0 3.313-2.687 6-6 6-0.555 0-1.081-0.099-1.591-0.24-1.689 1.997-2.684 3.664-5.365 6.807-0.735 0.869-1.817 1.433-3.044 1.433zM25.845 8.361l-3.607 3.527-1.772-0.355-0.351-1.752 3.635-3.551c0.868 0.524 1.587 1.252 2.095 2.131z"></path>
</svg>
