<?xml version="1.0" encoding="utf-8"?>
<!DOCTYPE svg PUBLIC "-//W3C//DTD SVG 1.1//EN" "http://www.w3.org/Graphics/SVG/1.1/DTD/svg11.dtd">
<svg version="1.1" xmlns="http://www.w3.org/2000/svg" xmlns:xlink="http://www.w3.org/1999/xlink" width="32" height="32" viewBox="0 0 32 32">

	<path d="M25.419 13.479l1.572-3.183c0.099-0.199 0.091-0.436-0.020-0.628-0.111-0.193-0.312-0.317-0.535-0.332l-3.541-0.229-0.229-3.541c-0.015-0.223-0.139-0.423-0.332-0.535s-0.429-0.12-0.629-0.020l-3.18 1.573-1.969-2.953c-0.248-0.371-0.861-0.371-1.109 0l-1.969 2.953-3.18-1.573c-0.201-0.1-0.436-0.092-0.629 0.020-0.193 0.111-0.317 0.312-0.332 0.535l-0.228 3.541-3.543 0.228c-0.223 0.015-0.424 0.139-0.535 0.332-0.112 0.193-0.119 0.429-0.020 0.629l1.572 3.181-2.952 1.969c-0.185 0.124-0.297 0.332-0.297 0.555s0.111 0.431 0.297 0.555l2.953 1.969-1.573 3.181c-0.099 0.2-0.091 0.436 0.020 0.629 0.111 0.192 0.312 0.317 0.535 0.331l3.541 0.228 0.228 3.543c0.015 0.223 0.139 0.423 0.332 0.535 0.192 0.111 0.427 0.117 0.629 0.020l3.181-1.572 1.969 2.952c0.124 0.185 0.332 0.297 0.555 0.297s0.431-0.111 0.555-0.297l1.969-2.952 3.181 1.572c0.2 0.097 0.436 0.091 0.629-0.020s0.317-0.312 0.332-0.535l0.228-3.541 3.541-0.229c0.223-0.015 0.423-0.139 0.535-0.332 0.111-0.193 0.119-0.429 0.020-0.629l-1.572-3.18 2.952-1.971c0.185-0.124 0.297-0.332 0.297-0.555s-0.111-0.431-0.297-0.555l-2.952-1.967z"></path>
</svg>
