<?xml version="1.0" encoding="utf-8"?>
<!DOCTYPE svg PUBLIC "-//W3C//DTD SVG 1.1//EN" "http://www.w3.org/Graphics/SVG/1.1/DTD/svg11.dtd">
<svg version="1.1" xmlns="http://www.w3.org/2000/svg" xmlns:xlink="http://www.w3.org/1999/xlink" width="32" height="32" viewBox="0 0 32 32">

	<path d="M28.741 14.892l-2.465-1.643 1.312-2.657c0.197-0.4 0.183-0.872-0.040-1.257-0.224-0.387-0.624-0.636-1.069-0.664l-2.957-0.191-0.192-2.957c-0.027-0.445-0.277-0.847-0.663-1.069-0.387-0.223-0.86-0.24-1.257-0.040l-2.655 1.313-1.644-2.465c-0.495-0.743-1.724-0.743-2.219 0l-1.645 2.464-2.656-1.312c-0.399-0.2-0.872-0.183-1.257 0.040-0.387 0.223-0.636 0.624-0.664 1.069l-0.191 2.956-2.957 0.191c-0.445 0.029-0.847 0.279-1.069 0.664s-0.239 0.859-0.040 1.257l1.312 2.657-2.465 1.644c-0.371 0.248-0.593 0.664-0.593 1.109s0.223 0.861 0.593 1.109l2.467 1.644-1.313 2.656c-0.197 0.4-0.183 0.872 0.040 1.257s0.624 0.636 1.069 0.664l2.957 0.191 0.191 2.957c0.028 0.444 0.277 0.845 0.664 1.068s0.856 0.239 1.257 0.041l2.656-1.313 1.644 2.465c0.248 0.371 0.664 0.593 1.109 0.593s0.861-0.223 1.109-0.593l1.644-2.465 2.655 1.313c0.399 0.197 0.871 0.181 1.257-0.040 0.387-0.223 0.636-0.624 0.664-1.069l0.191-2.956 2.959-0.192c0.445-0.028 0.847-0.277 1.069-0.664s0.239-0.859 0.040-1.257l-1.312-2.656 2.465-1.644c0.371-0.248 0.593-0.664 0.593-1.109s-0.223-0.863-0.593-1.109zM23.365 18.888l0.947 1.913-2.133 0.139c-0.669 0.044-1.201 0.576-1.245 1.245l-0.137 2.131-1.913-0.945c-0.6-0.299-1.328-0.103-1.7 0.456l-1.183 1.773-1.185-1.777c-0.255-0.383-0.677-0.593-1.111-0.593-0.199 0-0.4 0.044-0.589 0.139l-1.915 0.945-0.137-2.131c-0.043-0.668-0.576-1.201-1.245-1.245l-2.128-0.137 0.947-1.913c0.297-0.601 0.101-1.329-0.456-1.7l-1.777-1.185 1.776-1.184c0.557-0.372 0.752-1.1 0.456-1.7l-0.947-1.915 2.133-0.137c0.669-0.044 1.201-0.576 1.245-1.245l0.137-2.131 1.913 0.945c0.597 0.295 1.328 0.101 1.7-0.456l1.183-1.775 1.185 1.777c0.372 0.557 1.101 0.751 1.7 0.456l1.915-0.947 0.139 2.132c0.044 0.668 0.577 1.2 1.245 1.244l2.131 0.137-0.945 1.916c-0.297 0.601-0.101 1.328 0.456 1.7l1.776 1.184-1.777 1.185c-0.56 0.369-0.755 1.097-0.459 1.699z"></path>
</svg>
