<?xml version="1.0" encoding="utf-8"?>
<!DOCTYPE svg PUBLIC "-//W3C//DTD SVG 1.1//EN" "http://www.w3.org/Graphics/SVG/1.1/DTD/svg11.dtd">
<svg version="1.1" xmlns="http://www.w3.org/2000/svg" xmlns:xlink="http://www.w3.org/1999/xlink" width="32" height="32" viewBox="0 0 32 32">

	<path d="M22.473 27.955c-0.299 0-0.591-0.067-0.861-0.195-0.047-0.019-0.092-0.041-0.139-0.068l-5.476-3.124-5.476 3.125c-0.047 0.027-0.093 0.049-0.141 0.071-0.651 0.304-1.447 0.232-2.028-0.191-0.625-0.453-0.935-1.244-0.781-2.012l1.276-6.189c-0.499-0.453-1.283-1.167-2.136-1.943l-2.527-2.3c-0.036-0.033-0.073-0.071-0.104-0.109-0.5-0.528-0.679-1.293-0.453-1.989 0.231-0.699 0.827-1.216 1.547-1.345 0.045-0.011 0.089-0.019 0.136-0.024l6.268-0.695 2.595-5.747c0.023-0.051 0.048-0.1 0.080-0.147 0.349-0.631 1.019-1.028 1.745-1.028 0.724 0 1.392 0.397 1.745 1.027 0.028 0.048 0.055 0.097 0.080 0.149l2.597 5.749 6.268 0.695c0.045 0.004 0.091 0.012 0.139 0.023 0.719 0.133 1.315 0.648 1.544 1.349 0.227 0.695 0.047 1.464-0.453 1.992-0.032 0.035-0.068 0.072-0.104 0.104l-4.664 4.245 1.276 6.176c0.151 0.783-0.157 1.571-0.787 2.025-0.336 0.243-0.741 0.375-1.165 0.375zM11.608 19.203c-0.052 0.243-0.621 2.995-1.127 5.443l4.857-2.769c0.409-0.233 0.912-0.233 1.32 0l4.857 2.767-1.132-5.472c-0.095-0.461 0.060-0.94 0.411-1.256l4.133-3.763-5.557-0.615c-0.468-0.052-0.872-0.347-1.068-0.779l-2.304-5.095-2.301 5.095c-0.195 0.429-0.6 0.724-1.068 0.779l-5.557 0.615 4.133 3.763c0.363 0.328 0.512 0.823 0.403 1.288z"></path>
</svg>
