<?xml version="1.0" encoding="utf-8"?>
<!DOCTYPE svg PUBLIC "-//W3C//DTD SVG 1.1//EN" "http://www.w3.org/Graphics/SVG/1.1/DTD/svg11.dtd">
<svg version="1.1" xmlns="http://www.w3.org/2000/svg" xmlns:xlink="http://www.w3.org/1999/xlink" width="32" height="32" viewBox="0 0 32 32">

	<path d="M12.483 12.211c0 0-4.213 0.467-7.024 0.779-0.253 0.031-0.477 0.2-0.561 0.457s0 0.525 0.187 0.695c2.088 1.905 5.225 4.759 5.225 4.759-0.003 0-0.861 4.151-1.432 6.92-0.048 0.251 0.043 0.516 0.261 0.675 0.217 0.159 0.497 0.161 0.717 0.037 2.459-1.397 6.141-3.499 6.141-3.499s3.684 2.101 6.139 3.5c0.224 0.123 0.504 0.12 0.721-0.039 0.219-0.159 0.309-0.424 0.26-0.673-0.571-2.771-1.428-6.921-1.428-6.921s3.137-2.853 5.225-4.755c0.187-0.175 0.269-0.443 0.187-0.699s-0.307-0.425-0.56-0.455c-2.811-0.315-7.025-0.781-7.025-0.781s-1.747-3.864-2.911-6.44c-0.109-0.231-0.339-0.392-0.608-0.392s-0.5 0.163-0.604 0.392c-1.165 2.576-2.911 6.44-2.911 6.44z"></path>
</svg>
