<?xml version="1.0" encoding="utf-8"?>
<!DOCTYPE svg PUBLIC "-//W3C//DTD SVG 1.1//EN" "http://www.w3.org/Graphics/SVG/1.1/DTD/svg11.dtd">
<svg version="1.1" xmlns="http://www.w3.org/2000/svg" xmlns:xlink="http://www.w3.org/1999/xlink" width="32" height="32" viewBox="0 0 32 32">

	<path d="M25.885 11.869c0.139-0.064 0.275-0.144 0.391-0.26l0.667-0.667c0.521-0.521 0.521-1.364 0-1.885s-1.364-0.521-1.885 0l-0.667 0.667c-0.068 0.068-0.103 0.153-0.153 0.231-1.849-1.749-4.251-2.92-6.919-3.213 0.001-0.025 0.015-0.048 0.015-0.075v-1.333h1.333c0.733 0 1.333-0.6 1.333-1.333s-0.6-1.333-1.333-1.333h-5.333c-0.733 0-1.333 0.6-1.333 1.333s0.6 1.333 1.333 1.333h1.333v1.333c0 0.027 0.013 0.049 0.016 0.076-6.008 0.656-10.683 5.743-10.683 11.924 0 6.628 5.372 12 12 12s12-5.372 12-12c0-2.525-0.784-4.864-2.115-6.797zM16 28c-5.145 0-9.333-4.187-9.333-9.333s4.188-9.333 9.333-9.333 9.333 4.187 9.333 9.333-4.188 9.333-9.333 9.333z"></path>
	<path d="M17.333 17.333v-2.667c0-0.733-0.6-1.333-1.333-1.333s-1.333 0.6-1.333 1.333v4c0 0.733 0.6 1.333 1.333 1.333h4c0.733 0 1.333-0.6 1.333-1.333s-0.6-1.333-1.333-1.333h-2.667z"></path>
	<path d="M16 10.667c-4.416 0-8 3.584-8 8s3.584 8 8 8 8-3.584 8-8-3.584-8-8-8zM16 25.333c-3.676 0-6.667-2.991-6.667-6.667s2.991-6.667 6.667-6.667 6.667 2.991 6.667 6.667-2.991 6.667-6.667 6.667z"></path>
</svg>
