<?xml version="1.0" encoding="utf-8"?>
<!DOCTYPE svg PUBLIC "-//W3C//DTD SVG 1.1//EN" "http://www.w3.org/Graphics/SVG/1.1/DTD/svg11.dtd">
<svg version="1.1" xmlns="http://www.w3.org/2000/svg" xmlns:xlink="http://www.w3.org/1999/xlink" width="32" height="32" viewBox="0 0 32 32">

	<path d="M16 4.667c-6.251 0-11.333 5.083-11.333 11.333s5.083 11.333 11.333 11.333 11.333-5.083 11.333-11.333-5.083-11.333-11.333-11.333zM24.667 16c0 1.419-0.352 2.755-0.957 3.941l-2.575-2.575c0.117-0.443 0.196-0.899 0.196-1.367 0-0.473-0.083-0.924-0.196-1.361l2.576-2.576c0.607 1.185 0.956 2.521 0.956 3.937zM7.333 16c0-1.419 0.352-2.755 0.957-3.941l2.577 2.577c-0.115 0.44-0.196 0.891-0.196 1.363 0 0.471 0.083 0.92 0.196 1.361l-2.579 2.579c-0.607-1.187-0.956-2.523-0.956-3.939zM11.424 13.307l-2.367-2.367 1.885-1.885 2.367 2.367c-0.779 0.46-1.424 1.107-1.885 1.885zM9.055 21.057l2.364-2.364c0.227 0.385 0.483 0.752 0.807 1.079s0.693 0.584 1.076 0.809l-2.361 2.361-1.885-1.885zM14.115 17.885c-0.503-0.504-0.78-1.173-0.779-1.885 0-1.472 1.195-2.667 2.664-2.667 1.472 0 2.667 1.195 2.667 2.668 0.001 0.711-0.276 1.38-0.779 1.883-1.007 1.009-2.764 1.009-3.773 0.001zM22.945 10.943l-2.367 2.367c-0.46-0.781-1.104-1.425-1.883-1.888l2.364-2.364 1.885 1.885zM19.775 19.768c0.321-0.323 0.58-0.691 0.805-1.071l2.361 2.361-1.885 1.885-2.363-2.363c0.388-0.227 0.756-0.488 1.081-0.813zM19.941 8.291l-2.577 2.576c-0.437-0.117-0.891-0.2-1.364-0.2s-0.924 0.083-1.361 0.197l-2.576-2.576c1.185-0.607 2.521-0.956 3.937-0.956 1.419 0.001 2.755 0.353 3.941 0.959zM12.059 23.709l2.577-2.577c0.443 0.117 0.896 0.199 1.364 0.199s0.921-0.083 1.361-0.196l2.576 2.576c-1.185 0.607-2.521 0.956-3.937 0.956-1.419 0-2.755-0.352-3.941-0.957z"></path>
</svg>
