<?xml version="1.0" encoding="utf-8"?>
<!DOCTYPE svg PUBLIC "-//W3C//DTD SVG 1.1//EN" "http://www.w3.org/Graphics/SVG/1.1/DTD/svg11.dtd">
<svg version="1.1" xmlns="http://www.w3.org/2000/svg" xmlns:xlink="http://www.w3.org/1999/xlink" width="32" height="32" viewBox="0 0 32 32">

	<path d="M24 5.333h-13.333c-1.472 0-2.667 1.195-2.667 2.667v2.667h-1.333c-1.472 0-2.667 1.195-2.667 2.667v12c0 1.472 1.195 2.667 2.667 2.667h12c1.472 0 2.667-1.195 2.667-2.667v-1.333h2.667c1.472 0 2.667-1.195 2.667-2.667v-13.333c0-1.472-1.195-2.667-2.667-2.667zM6.667 25.333v-12h11.333c0.367 0 0.667 0.3 0.667 0.667v11.333h-12zM24 21.333h-4v-7.333c0-1.103-0.897-2-2-2h-7.333v-4h13.333v13.333z"></path>
</svg>
