<?xml version="1.0" encoding="utf-8"?>
<!DOCTYPE svg PUBLIC "-//W3C//DTD SVG 1.1//EN" "http://www.w3.org/Graphics/SVG/1.1/DTD/svg11.dtd">
<svg version="1.1" xmlns="http://www.w3.org/2000/svg" xmlns:xlink="http://www.w3.org/1999/xlink" width="32" height="32" viewBox="0 0 32 32">

	<path d="M12 5.333c1.705 0 3.412 0.651 4.713 1.953l4.62 4.713 6.667 6.667-9.333 9.333-7.331-7.331c-0.049 0.044-4.049-3.956-4.049-3.956-2.604-2.604-2.604-6.825 0-9.427 1.301-1.303 3.008-1.953 4.713-1.953zM12 2.667c-2.493 0-4.837 0.972-6.599 2.735-1.763 1.76-2.735 4.104-2.735 6.597s0.972 4.837 2.735 6.6l4 4c0.143 0.143 0.303 0.268 0.467 0.372l6.916 6.915c0.521 0.521 1.2 0.781 1.884 0.781s1.363-0.26 1.885-0.781l9.333-9.333c1.040-1.041 1.040-2.729 0-3.771l-6.667-6.667-4.6-4.695c-1.783-1.781-4.127-2.753-6.62-2.753z"></path>
	<path d="M12 9.997c1.105 0 2 0.896 2 2.003s-0.895 1.997-2 1.997-2-0.891-2-1.997 0.895-2.003 2-2.003zM12 8.664c-1.839 0-3.333 1.496-3.333 3.336 0 1.836 1.495 3.331 3.333 3.331s3.333-1.495 3.333-3.331c0-1.84-1.495-3.336-3.333-3.336z"></path>
</svg>
