<?xml version="1.0" encoding="utf-8"?>
<!DOCTYPE svg PUBLIC "-//W3C//DTD SVG 1.1//EN" "http://www.w3.org/Graphics/SVG/1.1/DTD/svg11.dtd">
<svg version="1.1" xmlns="http://www.w3.org/2000/svg" xmlns:xlink="http://www.w3.org/1999/xlink" width="32" height="32" viewBox="0 0 32 32">

	<path d="M28.563 12.792l-8.62-8.713c-1.772-1.773-4.116-2.745-6.609-2.745s-4.837 0.972-6.6 2.735c-1.888 1.885-2.836 4.475-2.703 7.085-0.883 1.447-1.364 3.107-1.364 4.845 0 2.493 0.972 4.837 2.735 6.6l4.071 3.979 4.643 4.64c0.521 0.523 1.203 0.783 1.885 0.783s1.364-0.26 1.885-0.781l9.333-9.333c1.037-1.037 1.043-2.717 0.011-3.76l-0.124-0.125 1.447-1.448c1.037-1.037 1.043-2.717 0.011-3.76zM16 29.333l-4.664-4.663-4.049-3.957c-2.604-2.604-2.604-6.825 0-9.427 1.301-1.303 3.008-1.953 4.713-1.953s3.412 0.651 4.713 1.953l8.62 8.713-9.333 9.333zM18.609 9.412c-1.772-1.773-4.116-2.745-6.609-2.745-1.701 0-3.329 0.463-4.753 1.309 0.321-0.733 0.772-1.423 1.373-2.024 1.301-1.301 3.008-1.952 4.713-1.952s3.412 0.651 4.713 1.953l8.62 8.713-1.437 1.437-6.62-6.692z"></path>
	<path d="M12 13.999c1.107 0 2 0.896 2 2.001 0 1.107-0.893 1.999-2 1.999s-2-0.892-2-1.999c0-1.105 0.893-2.001 2-2.001zM12 12.665c-1.837 0-3.333 1.496-3.333 3.335 0 1.837 1.496 3.332 3.333 3.332s3.333-1.495 3.333-3.332c0-1.839-1.496-3.335-3.333-3.335z"></path>
</svg>
