<?xml version="1.0" encoding="utf-8"?>
<!DOCTYPE svg PUBLIC "-//W3C//DTD SVG 1.1//EN" "http://www.w3.org/Graphics/SVG/1.1/DTD/svg11.dtd">
<svg version="1.1" xmlns="http://www.w3.org/2000/svg" xmlns:xlink="http://www.w3.org/1999/xlink" width="32" height="32" viewBox="0 0 32 32">

	<path d="M12 2.667h-6.667c-1.471 0-2.667 1.195-2.667 2.667v6.667c0 1.472 1.196 2.667 2.667 2.667h6.667c1.471 0 2.667-1.195 2.667-2.667v-6.667c0-1.472-1.196-2.667-2.667-2.667zM12 12h-6.667v-6.667h6.667v6.667z"></path>
	<path d="M26.667 2.667h-6.667c-1.472 0-2.667 1.195-2.667 2.667v6.667c0 1.472 1.195 2.667 2.667 2.667h6.667c1.472 0 2.667-1.195 2.667-2.667v-6.667c0-1.472-1.195-2.667-2.667-2.667zM26.667 12h-6.667v-6.667h6.667v6.667z"></path>
	<path d="M12 17.333h-6.667c-1.471 0-2.667 1.195-2.667 2.667v6.667c0 1.472 1.196 2.667 2.667 2.667h6.667c1.471 0 2.667-1.195 2.667-2.667v-6.667c0-1.472-1.196-2.667-2.667-2.667zM12 26.667h-6.667v-6.667h6.667v6.667z"></path>
	<path d="M26.667 17.333h-6.667c-1.472 0-2.667 1.195-2.667 2.667v6.667c0 1.472 1.195 2.667 2.667 2.667h6.667c1.472 0 2.667-1.195 2.667-2.667v-6.667c0-1.472-1.195-2.667-2.667-2.667zM26.667 26.667h-6.667v-6.667h6.667v6.667z"></path>
</svg>
