<?xml version="1.0" encoding="utf-8"?>
<!DOCTYPE svg PUBLIC "-//W3C//DTD SVG 1.1//EN" "http://www.w3.org/Graphics/SVG/1.1/DTD/svg11.dtd">
<svg version="1.1" xmlns="http://www.w3.org/2000/svg" xmlns:xlink="http://www.w3.org/1999/xlink" width="32" height="32" viewBox="0 0 32 32">

	<path d="M10.667 4h-2.667c-1.1 0-2.1 0.449-2.825 1.175s-1.175 1.725-1.175 2.825v2.667c0 1.1 0.449 2.1 1.175 2.825s1.725 1.175 2.825 1.175h2.667c1.1 0 2.1-0.449 2.825-1.175s1.175-1.725 1.175-2.825v-2.667c0-1.1-0.449-2.1-1.175-2.825s-1.725-1.175-2.825-1.175z"></path>
	<path d="M24 4h-2.667c-1.1 0-2.1 0.449-2.825 1.175s-1.175 1.725-1.175 2.825v2.667c0 1.1 0.449 2.1 1.175 2.825s1.725 1.175 2.825 1.175h2.667c1.1 0 2.1-0.449 2.825-1.175s1.175-1.725 1.175-2.825v-2.667c0-1.1-0.449-2.1-1.175-2.825s-1.725-1.175-2.825-1.175z"></path>
	<path d="M10.667 17.333h-2.667c-1.1 0-2.1 0.449-2.825 1.175s-1.175 1.725-1.175 2.825v2.667c0 1.1 0.449 2.1 1.175 2.825s1.725 1.175 2.825 1.175h2.667c1.1 0 2.1-0.449 2.825-1.175s1.175-1.725 1.175-2.825v-2.667c0-1.1-0.449-2.1-1.175-2.825s-1.725-1.175-2.825-1.175z"></path>
	<path d="M24 17.333h-2.667c-1.1 0-2.1 0.449-2.825 1.175s-1.175 1.725-1.175 2.825v2.667c0 1.1 0.449 2.1 1.175 2.825s1.725 1.175 2.825 1.175h2.667c1.1 0 2.1-0.449 2.825-1.175s1.175-1.725 1.175-2.825v-2.667c0-1.1-0.449-2.1-1.175-2.825s-1.725-1.175-2.825-1.175z"></path>
</svg>
