<?xml version="1.0" encoding="utf-8"?>
<!DOCTYPE svg PUBLIC "-//W3C//DTD SVG 1.1//EN" "http://www.w3.org/Graphics/SVG/1.1/DTD/svg11.dtd">
<svg version="1.1" xmlns="http://www.w3.org/2000/svg" xmlns:xlink="http://www.w3.org/1999/xlink" width="32" height="32" viewBox="0 0 32 32">

	<path d="M25.333 24c0.733 0 1.333 0.6 1.333 1.333s-0.6 1.333-1.333 1.333h-9.333c-0.733 0-1.333-0.6-1.333-1.333s0.6-1.333 1.333-1.333h9.333zM25.333 21.333h-9.333c-2.205 0-4 1.795-4 4s1.795 4 4 4h9.333c2.205 0 4-1.795 4-4s-1.795-4-4-4z"></path>
	<path d="M25.333 14.667c0.733 0 1.333 0.6 1.333 1.333s-0.6 1.333-1.333 1.333h-9.333c-0.733 0-1.333-0.6-1.333-1.333s0.6-1.333 1.333-1.333h9.333zM25.333 12h-9.333c-2.205 0-4 1.795-4 4s1.795 4 4 4h9.333c2.205 0 4-1.795 4-4s-1.795-4-4-4z"></path>
	<path d="M25.333 5.333c0.733 0 1.333 0.6 1.333 1.333s-0.6 1.333-1.333 1.333h-9.333c-0.733 0-1.333-0.6-1.333-1.333s0.6-1.333 1.333-1.333h9.333zM25.333 2.667h-9.333c-2.205 0-4 1.795-4 4s1.795 4 4 4h9.333c2.205 0 4-1.795 4-4s-1.795-4-4-4z"></path>
	<path d="M8 21.333h-2.667c-1.472 0-2.667 1.195-2.667 2.667v2.667c0 1.472 1.195 2.667 2.667 2.667h2.667c1.472 0 2.667-1.195 2.667-2.667v-2.667c0-1.472-1.195-2.667-2.667-2.667zM8 26.667h-2.667v-2.667h2.667v2.667z"></path>
	<path d="M8 12h-2.667c-1.472 0-2.667 1.195-2.667 2.667v2.667c0 1.472 1.195 2.667 2.667 2.667h2.667c1.472 0 2.667-1.195 2.667-2.667v-2.667c0-1.472-1.195-2.667-2.667-2.667zM8 17.333h-2.667v-2.667h2.667v2.667z"></path>
	<path d="M8 2.667h-2.667c-1.472 0-2.667 1.195-2.667 2.667v2.667c0 1.472 1.195 2.667 2.667 2.667h2.667c1.472 0 2.667-1.195 2.667-2.667v-2.667c0-1.472-1.195-2.667-2.667-2.667zM8 8h-2.667v-2.667h2.667v2.667z"></path>
</svg>
