<?xml version="1.0" encoding="utf-8"?>
<!DOCTYPE svg PUBLIC "-//W3C//DTD SVG 1.1//EN" "http://www.w3.org/Graphics/SVG/1.1/DTD/svg11.dtd">
<svg version="1.1" xmlns="http://www.w3.org/2000/svg" xmlns:xlink="http://www.w3.org/1999/xlink" width="32" height="32" viewBox="0 0 32 32">

	<path d="M25.333 24c0.733 0 1.333 0.6 1.333 1.333s-0.6 1.333-1.333 1.333h-18.667c-0.733 0-1.333-0.6-1.333-1.333s0.6-1.333 1.333-1.333h18.667zM25.333 21.333h-18.667c-2.205 0-4 1.795-4 4s1.795 4 4 4h18.667c2.205 0 4-1.795 4-4s-1.795-4-4-4z"></path>
	<path d="M25.333 14.667c0.733 0 1.333 0.6 1.333 1.333s-0.6 1.333-1.333 1.333h-18.667c-0.733 0-1.333-0.6-1.333-1.333s0.6-1.333 1.333-1.333h18.667zM25.333 12h-18.667c-2.205 0-4 1.795-4 4s1.795 4 4 4h18.667c2.205 0 4-1.795 4-4s-1.795-4-4-4z"></path>
	<path d="M25.333 5.333c0.733 0 1.333 0.6 1.333 1.333s-0.6 1.333-1.333 1.333h-18.667c-0.733 0-1.333-0.6-1.333-1.333s0.6-1.333 1.333-1.333h18.667zM25.333 2.667h-18.667c-2.205 0-4 1.795-4 4s1.795 4 4 4h18.667c2.205 0 4-1.795 4-4s-1.795-4-4-4z"></path>
</svg>
