<?xml version="1.0" encoding="utf-8"?>
<!DOCTYPE svg PUBLIC "-//W3C//DTD SVG 1.1//EN" "http://www.w3.org/Graphics/SVG/1.1/DTD/svg11.dtd">
<svg version="1.1" xmlns="http://www.w3.org/2000/svg" xmlns:xlink="http://www.w3.org/1999/xlink" width="32" height="32" viewBox="0 0 32 32">

	<path d="M25.333 22.667h-18.667c-1.471 0-2.667 1.196-2.667 2.667s1.196 2.667 2.667 2.667h18.667c1.471 0 2.667-1.196 2.667-2.667s-1.196-2.667-2.667-2.667z"></path>
	<path d="M25.333 13.333h-18.667c-1.471 0-2.667 1.196-2.667 2.667s1.196 2.667 2.667 2.667h18.667c1.471 0 2.667-1.196 2.667-2.667s-1.196-2.667-2.667-2.667z"></path>
	<path d="M25.333 4h-18.667c-1.471 0-2.667 1.196-2.667 2.667s1.196 2.667 2.667 2.667h18.667c1.471 0 2.667-1.196 2.667-2.667s-1.196-2.667-2.667-2.667z"></path>
</svg>
