<?xml version="1.0" encoding="utf-8"?>
<!DOCTYPE svg PUBLIC "-//W3C//DTD SVG 1.1//EN" "http://www.w3.org/Graphics/SVG/1.1/DTD/svg11.dtd">
<svg version="1.1" xmlns="http://www.w3.org/2000/svg" xmlns:xlink="http://www.w3.org/1999/xlink" width="32" height="32" viewBox="0 0 32 32">

	<path d="M17.333 20.095v-7.428c0-0.367-0.3-0.667-0.667-0.667s-0.667 0.3-0.667 0.667v7.428c-1.147 0.299-2 1.333-2 2.572 0 1.471 1.195 2.667 2.667 2.667s2.667-1.196 2.667-2.667c0-1.239-0.853-2.273-2-2.572z"></path>
	<path d="M21.333 17.945v-10.612c0-2.573-2.093-4.667-4.667-4.667s-4.667 2.093-4.667 4.667v10.612c-1.229 1.203-2 2.868-2 4.721 0 3.676 2.991 6.667 6.667 6.667s6.667-2.991 6.667-6.667c0-1.853-0.771-3.519-2-4.721zM16.667 26.667c-2.205 0-4-1.795-4-4 0-1.473 0.809-2.749 2-3.444v-11.889c0-1.103 0.897-2 2-2s2 0.897 2 2v11.889c1.191 0.695 2 1.971 2 3.444 0 2.205-1.795 4-4 4z"></path>
</svg>
