<?xml version="1.0" encoding="utf-8"?>
<!DOCTYPE svg PUBLIC "-//W3C//DTD SVG 1.1//EN" "http://www.w3.org/Graphics/SVG/1.1/DTD/svg11.dtd">
<svg version="1.1" xmlns="http://www.w3.org/2000/svg" xmlns:xlink="http://www.w3.org/1999/xlink" width="32" height="32" viewBox="0 0 32 32">

	<path d="M22.667 6.667c-1.007 0-1.917 0.385-2.62 1.001-0.085-0.083-0.155-0.187-0.251-0.256-1.28-0.983-4.887-2.079-7.796-2.079-2.505 0-3.476 0.391-4.336 0.736-0.137 0.056-0.276 0.113-0.421 0.165-1.112 0.407-2.104 1.639-2.317 2.933l-0.885 7.963c-0.232 1.385 0.588 2.836 1.867 3.304 0.525 0.192 3.349 0.54 5.177 0.747-0.287 1.675-0.416 3.207-0.416 4.821 0 1.839 1.495 3.333 3.333 3.333s3.333-1.495 3.333-3.333c0-2.5 0.889-3.649 2.155-4.932 0.731 0.965 1.877 1.599 3.179 1.599 2.204 0 3.999-1.796 3.999-4v-8c-0.001-2.208-1.795-4.003-4-4.003zM14.667 26c0 0.367-0.3 0.667-0.667 0.667s-0.667-0.3-0.667-0.667c0-2.407 0.341-4.321 0.639-5.724l0.396-1.864-1.761 0.251c-0.807-0.067-5.245-0.596-5.78-0.736-0.077-0.037-0.176-0.24-0.144-0.428l0.884-7.968c0.049-0.297 0.388-0.719 0.591-0.792 0.175-0.065 0.339-0.132 0.503-0.195 0.725-0.292 1.353-0.544 3.341-0.544 2.552 0 5.491 1.004 6.177 1.528 0.208 0.16 0.488 0.752 0.488 1.139v6.636c-0.001 0.035-0.053 0.865-0.943 1.755-1.217 1.217-3.057 3.057-3.057 6.943zM24 18.667c0 0.736-0.597 1.333-1.333 1.333s-1.333-0.597-1.333-1.333v-8c0-0.736 0.597-1.333 1.333-1.333s1.333 0.597 1.333 1.333v8z"></path>
</svg>
