<?xml version="1.0" encoding="utf-8"?>
<!DOCTYPE svg PUBLIC "-//W3C//DTD SVG 1.1//EN" "http://www.w3.org/Graphics/SVG/1.1/DTD/svg11.dtd">
<svg version="1.1" xmlns="http://www.w3.org/2000/svg" xmlns:xlink="http://www.w3.org/1999/xlink" width="32" height="32" viewBox="0 0 32 32">

	<path d="M26.093 11.568c-0.521-0.192-3.349-0.541-5.177-0.747 0.287-1.673 0.417-3.207 0.417-4.821 0-1.839-1.496-3.333-3.333-3.333s-3.333 1.495-3.333 3.333c0 2.5-0.888 3.651-2.155 4.932-0.731-0.963-1.876-1.599-3.179-1.599-2.205 0-4 1.795-4 4v8c0 2.205 1.795 4 4 4 1.007 0 1.917-0.387 2.62-1.003 0.085 0.083 0.156 0.188 0.251 0.257 1.28 0.981 4.889 2.079 7.797 2.079 2.505 0 3.477-0.391 4.337-0.737 0.139-0.055 0.276-0.112 0.421-0.164 1.112-0.407 2.101-1.636 2.315-2.933l0.888-7.965c0.231-1.383-0.591-2.833-1.869-3.299zM9.333 22.667c-0.735 0-1.333-0.597-1.333-1.333v-8c0-0.736 0.599-1.333 1.333-1.333s1.333 0.597 1.333 1.333v8c0 0.736-0.599 1.333-1.333 1.333zM24.436 22.467c-0.049 0.299-0.389 0.721-0.591 0.795-0.175 0.065-0.339 0.132-0.501 0.195-0.727 0.292-1.355 0.544-3.344 0.544-2.552 0-5.491-1.004-6.176-1.528-0.211-0.16-0.491-0.752-0.491-1.139v-6.64c0.004-0.063 0.068-0.875 0.943-1.749 1.217-1.219 3.057-3.059 3.057-6.944 0-0.367 0.3-0.667 0.667-0.667s0.667 0.3 0.667 0.667c0 1.876-0.195 3.64-0.639 5.724l-0.396 1.861 1.761-0.251c0.804 0.067 5.244 0.596 5.779 0.733 0.077 0.040 0.176 0.244 0.148 0.431l-0.884 7.968z"></path>
</svg>
