<?xml version="1.0" encoding="utf-8"?>
<!DOCTYPE svg PUBLIC "-//W3C//DTD SVG 1.1//EN" "http://www.w3.org/Graphics/SVG/1.1/DTD/svg11.dtd">
<svg version="1.1" xmlns="http://www.w3.org/2000/svg" xmlns:xlink="http://www.w3.org/1999/xlink" width="32" height="32" viewBox="0 0 32 32">

	<path d="M14.667 26.667c-1.068 0-2.073-0.416-2.828-1.172l-5.333-5.333c-0.756-0.755-1.172-1.76-1.172-2.828s0.416-2.073 1.172-2.829c1.511-1.511 4.145-1.511 5.656 0l1.584 1.584 4.092-7.364c0.701-1.269 2.044-2.059 3.499-2.059 0.676 0 1.349 0.175 1.941 0.504 0.933 0.52 1.608 1.371 1.903 2.397 0.295 1.028 0.169 2.108-0.351 3.043l-6.667 12c-0.605 1.091-1.705 1.845-2.941 2.019-0.185 0.025-0.369 0.039-0.555 0.039zM9.333 16c-0.357 0-0.691 0.139-0.943 0.391s-0.391 0.585-0.391 0.943 0.139 0.691 0.391 0.943l5.333 5.333c0.297 0.295 0.697 0.44 1.125 0.377 0.416-0.057 0.781-0.309 0.983-0.672l6.667-12c0.173-0.311 0.215-0.671 0.117-1.013s-0.324-0.627-0.637-0.8c-0.631-0.352-1.468-0.104-1.809 0.517l-5.809 10.455-4.083-4.083c-0.253-0.252-0.587-0.391-0.944-0.391z"></path>
</svg>
