<?xml version="1.0" encoding="utf-8"?>
<!DOCTYPE svg PUBLIC "-//W3C//DTD SVG 1.1//EN" "http://www.w3.org/Graphics/SVG/1.1/DTD/svg11.dtd">
<svg version="1.1" xmlns="http://www.w3.org/2000/svg" xmlns:xlink="http://www.w3.org/1999/xlink" width="32" height="32" viewBox="0 0 32 32">

	<path d="M28.647 10.761l-7.152-7.152c-1.504-1.504-4.148-1.515-5.664-0.024l-12.197 12.003c-0.761 0.749-1.183 1.751-1.188 2.82-0.004 1.071 0.409 2.075 1.164 2.828l7.153 7.153c0.756 0.756 1.767 1.173 2.844 1.173 1.065 0 2.068-0.409 2.82-1.149l12.196-12.004c0.761-0.749 1.184-1.751 1.188-2.82s-0.409-2.073-1.164-2.828zM26.752 14.509l-12.195 12.004c-0.508 0.497-1.408 0.493-1.909-0.008l-1.7-1.7c0.947-1.047 0.924-2.659-0.083-3.669-1.011-1.009-2.624-1.031-3.669-0.084l-1.7-1.699c-0.248-0.249-0.384-0.58-0.383-0.932s0.14-0.684 0.391-0.929l12.197-12.003c0.252-0.248 0.588-0.384 0.951-0.384 0.364 0 0.705 0.139 0.959 0.392l1.7 1.7c-0.948 1.047-0.925 2.659 0.083 3.668 1.011 1.009 2.623 1.031 3.669 0.084l1.699 1.699c0.249 0.249 0.384 0.58 0.383 0.932s-0.14 0.683-0.392 0.929z"></path>
	<path d="M15.468 22.723l-6.209-6.208 7.532-7.239 6.209 6.208-7.532 7.239zM11.161 16.532l4.324 4.323 5.608-5.388-4.321-4.323-5.611 5.388z"></path>
</svg>
