<?xml version="1.0" encoding="utf-8"?>
<!DOCTYPE svg PUBLIC "-//W3C//DTD SVG 1.1//EN" "http://www.w3.org/Graphics/SVG/1.1/DTD/svg11.dtd">
<svg version="1.1" xmlns="http://www.w3.org/2000/svg" xmlns:xlink="http://www.w3.org/1999/xlink" width="32" height="32" viewBox="0 0 32 32">

	<path d="M21.333 17.333c0-0.733-0.6-1.333-1.333-1.333h-4c-0.733 0-1.333 0.6-1.333 1.333s0.6 1.333 1.333 1.333h4c0.733 0 1.333-0.6 1.333-1.333z"></path>
	<path d="M16 8c5.145 0 9.333 4.188 9.333 9.333s-4.188 9.333-9.333 9.333-9.333-4.188-9.333-9.333 4.188-9.333 9.333-9.333zM16 5.333c-6.628 0-12 5.372-12 12s5.372 12 12 12 12-5.372 12-12-5.372-12-12-12z"></path>
	<path d="M17.333 13.333c0-0.733-0.6-1.333-1.333-1.333s-1.333 0.6-1.333 1.333v4c0 0.733 0.6 1.333 1.333 1.333s1.333-0.6 1.333-1.333v-4z"></path>
	<path d="M16 10.667c3.676 0 6.667 2.991 6.667 6.667s-2.991 6.667-6.667 6.667-6.667-2.991-6.667-6.667 2.991-6.667 6.667-6.667zM16 9.333c-4.416 0-8 3.581-8 8 0 4.416 3.584 8 8 8s8-3.584 8-8c0-4.419-3.584-8-8-8z"></path>
</svg>
