<?xml version="1.0" encoding="utf-8"?>
<!DOCTYPE svg PUBLIC "-//W3C//DTD SVG 1.1//EN" "http://www.w3.org/Graphics/SVG/1.1/DTD/svg11.dtd">
<svg version="1.1" xmlns="http://www.w3.org/2000/svg" xmlns:xlink="http://www.w3.org/1999/xlink" width="32" height="32" viewBox="0 0 32 32">

	<path d="M27.708 23.167l-3.6-4.5h1.225c0.497 0 0.953-0.276 1.183-0.717s0.195-0.972-0.091-1.38l-9.333-13.333c-0.423-0.603-1.253-0.749-1.857-0.328-0.121 0.084-0.211 0.195-0.295 0.308-0.033 0.020-9.367 13.353-9.367 13.353-0.285 0.408-0.32 0.939-0.091 1.38 0.231 0.441 0.687 0.717 1.184 0.717h1.225l-3.6 4.5c-0.32 0.401-0.383 0.949-0.161 1.412 0.223 0.46 0.691 0.755 1.203 0.755h9.333v4c0 0.737 0.597 1.333 1.333 1.333s1.333-0.596 1.333-1.333v-4h9.333c0.512 0 0.98-0.295 1.201-0.755 0.223-0.463 0.16-1.011-0.16-1.412zM17.333 22.667v-6.667c0-0.737-0.597-1.333-1.333-1.333s-1.333 0.596-1.333 1.333v6.667h-6.559l3.6-4.5c0.32-0.401 0.383-0.949 0.161-1.412-0.223-0.46-0.691-0.755-1.203-0.755h-1.44l6.773-9.675 6.773 9.675h-1.44c-0.512 0-0.98 0.295-1.201 0.755-0.223 0.463-0.16 1.011 0.161 1.412l3.6 4.5h-6.56z"></path>
</svg>
