<?xml version="1.0" encoding="utf-8"?>
<!DOCTYPE svg PUBLIC "-//W3C//DTD SVG 1.1//EN" "http://www.w3.org/Graphics/SVG/1.1/DTD/svg11.dtd">
<svg version="1.1" xmlns="http://www.w3.org/2000/svg" xmlns:xlink="http://www.w3.org/1999/xlink" width="32" height="32" viewBox="0 0 32 32">

	<path d="M27.981 22.667c0-0.14-0.005-0.281-0.051-0.421l-2.667-8c-0.124-0.368-0.403-0.644-0.747-0.792 1.175-1.567 1.065-3.796-0.359-5.219l-8.159-8.161-8.161 8.161c-1.423 1.423-1.532 3.652-0.36 5.219-0.341 0.145-0.623 0.421-0.745 0.792l-2.667 8c-0.045 0.14-0.051 0.281-0.051 0.421-0.016 0-0.016 6.667-0.016 6.667 0 0.737 0.596 1.333 1.333 1.333h21.333c0.737 0 1.333-0.596 1.333-1.333 0 0 0-6.667-0.019-6.667zM9.724 10.12l6.276-6.276 6.276 6.276c0.521 0.521 0.521 1.364 0 1.885-0.505 0.503-1.38 0.503-1.885 0l-3.057-3.057v7.719c0 0.736-0.597 1.333-1.333 1.333s-1.333-0.597-1.333-1.333v-7.719l-3.057 3.057c-0.505 0.503-1.38 0.503-1.885 0-0.521-0.521-0.521-1.367 0-1.885zM8.961 16h3.039v0.667c0 2.205 1.795 4 4 4s4-1.795 4-4v-0.667h3.039l2.221 6.667h-18.523l2.224-6.667zM6.667 28v-4h18.667v4h-18.667z"></path>
</svg>
