<?xml version="1.0" encoding="utf-8"?>
<!DOCTYPE svg PUBLIC "-//W3C//DTD SVG 1.1//EN" "http://www.w3.org/Graphics/SVG/1.1/DTD/svg11.dtd">
<svg version="1.1" xmlns="http://www.w3.org/2000/svg" xmlns:xlink="http://www.w3.org/1999/xlink" width="32" height="32" viewBox="0 0 32 32">

	<path d="M27.983 21.333c0-0.14-0.005-0.281-0.052-0.421l-2.667-8c-0.181-0.545-0.689-0.912-1.264-0.912h-5.333v2.667h4.372l2.223 6.667h-18.523l2.223-6.667h4.372v-2.667h-5.333c-0.575 0-1.083 0.367-1.264 0.912l-2.667 8c-0.047 0.14-0.052 0.281-0.052 0.421-0.017 0-0.017 6.667-0.017 6.667 0 0.737 0.596 1.333 1.333 1.333h21.333c0.737 0 1.333-0.596 1.333-1.333 0 0 0-6.667-0.017-6.667z"></path>
	<path d="M21.333 10.539c0.345 0 0.691-0.127 0.943-0.377 0.52-0.52 0.52-1.365 0-1.885l-6.276-6.276-6.276 6.276c-0.52 0.52-0.52 1.365 0 1.885 0.252 0.252 0.597 0.377 0.943 0.377s0.691-0.125 0.943-0.377l3.057-3.057v8.896c0 0.736 0.597 1.333 1.333 1.333s1.333-0.597 1.333-1.333v-8.896l3.057 3.057c0.252 0.252 0.597 0.377 0.943 0.377z"></path>
</svg>
