<?xml version="1.0" encoding="utf-8"?>
<!DOCTYPE svg PUBLIC "-//W3C//DTD SVG 1.1//EN" "http://www.w3.org/Graphics/SVG/1.1/DTD/svg11.dtd">
<svg version="1.1" xmlns="http://www.w3.org/2000/svg" xmlns:xlink="http://www.w3.org/1999/xlink" width="32" height="32" viewBox="0 0 32 32">

	<path d="M12 18.667c1.841 0 3.508-0.747 4.715-1.953 1.205-1.205 1.952-2.872 1.952-4.713s-0.747-3.508-1.952-4.713c-1.207-1.207-2.873-1.953-4.715-1.953s-3.508 0.747-4.715 1.953c-1.205 1.205-1.952 2.872-1.952 4.713s0.747 3.508 1.952 4.713c1.207 1.207 2.873 1.953 4.715 1.953z"></path>
	<path d="M12 28c4.691 0 8-1.333 8-2.667 0-2.667-3.139-5.333-8-5.333-5 0-8 2.667-8 5.333 0 1.333 3 2.667 8 2.667z"></path>
	<path d="M28 16h-2.667v-2.667c0-0.737-0.596-1.333-1.333-1.333s-1.333 0.596-1.333 1.333v2.667h-2.667c-0.737 0-1.333 0.596-1.333 1.333s0.596 1.333 1.333 1.333h2.667v2.667c0 0.737 0.596 1.333 1.333 1.333s1.333-0.596 1.333-1.333v-2.667h2.667c0.737 0 1.333-0.596 1.333-1.333s-0.596-1.333-1.333-1.333z"></path>
</svg>
