<?xml version="1.0" encoding="utf-8"?>
<!DOCTYPE svg PUBLIC "-//W3C//DTD SVG 1.1//EN" "http://www.w3.org/Graphics/SVG/1.1/DTD/svg11.dtd">
<svg version="1.1" xmlns="http://www.w3.org/2000/svg" xmlns:xlink="http://www.w3.org/1999/xlink" width="32" height="32" viewBox="0 0 32 32">

	<path d="M16 8c2.205 0 4 1.795 4 4s-1.795 4-4 4-4-1.795-4-4 1.795-4 4-4zM16 5.333c-3.685 0-6.667 2.984-6.667 6.667s2.981 6.667 6.667 6.667 6.667-2.984 6.667-6.667-2.981-6.667-6.667-6.667z"></path>
	<path d="M16 22.667c2.695 0 4.401 1.028 5.044 1.927-0.911 0.347-2.625 0.74-5.044 0.74-2.645 0-4.275-0.407-5.091-0.723 0.612-0.953 2.369-1.944 5.091-1.944zM16 20c-5 0-8 2.667-8 5.333 0 1.333 3 2.667 8 2.667 4.691 0 8-1.333 8-2.667s-3.139-5.333-8-5.333z"></path>
</svg>
