<?xml version="1.0" encoding="utf-8"?>
<!DOCTYPE svg PUBLIC "-//W3C//DTD SVG 1.1//EN" "http://www.w3.org/Graphics/SVG/1.1/DTD/svg11.dtd">
<svg version="1.1" xmlns="http://www.w3.org/2000/svg" xmlns:xlink="http://www.w3.org/1999/xlink" width="32" height="32" viewBox="0 0 32 32">

	<path d="M28 18.667h-8c-0.737 0-1.333-0.596-1.333-1.333s0.596-1.333 1.333-1.333h8c0.737 0 1.333 0.596 1.333 1.333s-0.596 1.333-1.333 1.333z"></path>
	<path d="M18.667 12c0 1.841-0.747 3.508-1.952 4.713-1.207 1.207-2.873 1.953-4.715 1.953s-3.508-0.747-4.715-1.953c-1.205-1.205-1.952-2.872-1.952-4.713s0.747-3.508 1.952-4.713c1.207-1.207 2.873-1.953 4.715-1.953s3.508 0.747 4.715 1.953c1.205 1.205 1.952 2.872 1.952 4.713z"></path>
	<path d="M12 20c-5 0-8 2.667-8 5.333 0 1.333 3 2.667 8 2.667 4.691 0 8-1.333 8-2.667s-3.139-5.333-8-5.333z"></path>
</svg>
