<?xml version="1.0" encoding="utf-8"?>
<!DOCTYPE svg PUBLIC "-//W3C//DTD SVG 1.1//EN" "http://www.w3.org/Graphics/SVG/1.1/DTD/svg11.dtd">
<svg version="1.1" xmlns="http://www.w3.org/2000/svg" xmlns:xlink="http://www.w3.org/1999/xlink" width="32" height="32" viewBox="0 0 32 32">

	<path d="M10.667 14.667c0 0.736-0.597 1.333-1.333 1.333s-1.333-0.597-1.333-1.333c0-0.736 0.597-1.333 1.333-1.333s1.333 0.597 1.333 1.333z"></path>
	<path d="M28.78 9.584c-0.349-0.251-0.799-0.321-1.201-0.183l-2.276 0.757c-0.251-1.969-1.935-3.493-3.969-3.493h-14.667c-2.205 0-4 1.796-4 4v8c0 2.204 1.795 4 4 4h4v1.481l0.011 0.12c0.088 0.984 0.508 1.897 1.183 2.571 0.749 0.749 1.748 1.163 2.805 1.163s2.056-0.413 2.805-1.16c0.765-0.769 1.197-1.795 1.195-2.817v-1.356h2.667c2.032 0 3.719-1.527 3.971-3.493l2.276 0.757c0.404 0.139 0.853 0.068 1.2-0.184 0.349-0.251 0.553-0.653 0.553-1.083v-8c0.001-0.424-0.204-0.828-0.552-1.080zM16 24.031c0.001 0.331-0.159 0.667-0.412 0.919-0.255 0.252-0.588 0.381-0.923 0.381-0.333 0-0.668-0.129-0.92-0.381-0.253-0.252-0.38-0.588-0.412-0.921v-2.695h2.667v2.697zM22.667 18.667c0 0.736-0.597 1.333-1.333 1.333h-14.667c-0.736 0-1.333-0.597-1.333-1.333v-8c0-0.736 0.597-1.333 1.333-1.333h14.667c0.736 0 1.333 0.597 1.333 1.333v8zM26.667 16.815c0 0-2.527-0.807-2.667-0.807v-2.683c0.14 0 2.667-0.807 2.667-0.807v4.296z"></path>
</svg>
