<?xml version="1.0" encoding="utf-8"?>
<!DOCTYPE svg PUBLIC "-//W3C//DTD SVG 1.1//EN" "http://www.w3.org/Graphics/SVG/1.1/DTD/svg11.dtd">
<svg version="1.1" xmlns="http://www.w3.org/2000/svg" xmlns:xlink="http://www.w3.org/1999/xlink" width="32" height="32" viewBox="0 0 32 32">

	<path d="M30.033 9.532c-0.213-0.132-0.456-0.199-0.7-0.199-0.204 0-0.408 0.047-0.596 0.14l-3.404 1.703v-0.509c0-2.205-1.795-4-4-4h-14.667c-2.205 0-4 1.795-4 4v10.667c0 2.205 1.795 4 4 4h14.667c2.205 0 4-1.795 4-4v-0.509l3.404 1.701c0.188 0.095 0.392 0.141 0.596 0.141 0.244 0 0.487-0.067 0.7-0.199 0.393-0.244 0.633-0.672 0.633-1.135v-10.667c0-0.463-0.24-0.891-0.633-1.135zM9.333 18c-1.105 0-2-0.895-2-2s0.895-2 2-2 2 0.895 2 2-0.895 2-2 2z"></path>
</svg>
