<?xml version="1.0" encoding="utf-8"?>
<!DOCTYPE svg PUBLIC "-//W3C//DTD SVG 1.1//EN" "http://www.w3.org/Graphics/SVG/1.1/DTD/svg11.dtd">
<svg version="1.1" xmlns="http://www.w3.org/2000/svg" xmlns:xlink="http://www.w3.org/1999/xlink" width="32" height="32" viewBox="0 0 32 32">

	<path d="M20.184 7.765c-0.599 0-1.207 0.203-1.808 0.604l-3.563 2.375c-1.004 0.671-2.941 1.256-4.147 1.256-2.205 0-4 1.795-4 4v2.667c0 2.205 1.795 4 4 4 1.205 0 3.143 0.585 4.145 1.255l3.563 2.375c0.601 0.401 1.209 0.604 1.808 0.604 1.197 0.001 2.484-0.907 2.484-2.9v-13.333c0-1.993-1.287-2.901-2.483-2.901zM10.667 20c-0.736 0-1.333-0.597-1.333-1.333v-2.667c0-0.736 0.597-1.333 1.333-1.333 1.615 0 3.876-0.66 5.333-1.528v8.391c-1.457-0.869-3.719-1.529-5.333-1.529zM20 24c0 0.061-0.003 0.115-0.008 0.16-0.040-0.021-0.087-0.048-0.139-0.083l-2.52-1.68v-10.128l2.521-1.681c0.051-0.033 0.097-0.061 0.139-0.083 0.004 0.047 0.007 0.1 0.007 0.161v13.333z"></path>
	<path d="M24.389 13.725c-0.52 0.521-0.52 1.364 0.003 1.885 0.46 0.46 0.713 1.071 0.713 1.721 0 0.652-0.253 1.264-0.715 1.725-0.521 0.52-0.521 1.364 0 1.885 0.26 0.26 0.601 0.391 0.943 0.391s0.683-0.131 0.943-0.391c0.965-0.964 1.496-2.247 1.496-3.611s-0.531-2.645-1.497-3.609c-0.519-0.519-1.364-0.521-1.885 0.003z"></path>
</svg>
