<?xml version="1.0" encoding="utf-8"?>
<!DOCTYPE svg PUBLIC "-//W3C//DTD SVG 1.1//EN" "http://www.w3.org/Graphics/SVG/1.1/DTD/svg11.dtd">
<svg version="1.1" xmlns="http://www.w3.org/2000/svg" xmlns:xlink="http://www.w3.org/1999/xlink" width="32" height="32" viewBox="0 0 32 32">

	<path d="M26.276 7.057c-0.521-0.521-1.364-0.521-1.885 0l-2.068 2.068c-0.46-0.917-1.316-1.36-2.139-1.36-0.599 0-1.207 0.203-1.808 0.604l-3.563 2.375c-1.004 0.671-2.941 1.256-4.147 1.256-2.205 0-4 1.795-4 4v2.667c0 1.649 1.005 3.069 2.435 3.68l-2.044 2.044c-0.521 0.521-0.521 1.364 0 1.885 0.26 0.26 0.601 0.391 0.943 0.391s0.683-0.131 0.943-0.391l3.369-3.369c0.929 0.232 1.888 0.607 2.5 1.016l3.563 2.375c0.601 0.401 1.209 0.604 1.808 0.604 1.197 0 2.484-0.908 2.484-2.901v-11.448l3.609-3.609c0.521-0.521 0.521-1.364 0-1.885zM19.855 10.588c0.051-0.033 0.097-0.061 0.139-0.083 0.004 0.047 0.007 0.1 0.007 0.161v1.724l-2.667 2.667v-2.788l2.521-1.681zM9.333 16c0-0.736 0.597-1.333 1.333-1.333 1.615 0 3.876-0.66 5.333-1.528v3.252l-3.773 3.773c-0.551-0.103-1.085-0.164-1.56-0.164-0.736 0-1.333-0.597-1.333-1.333v-2.667zM13.735 20.541l2.265-2.265v3.252c-0.641-0.383-1.433-0.723-2.265-0.987zM19.992 24.16c-0.040-0.021-0.087-0.048-0.139-0.083l-2.52-1.68v-5.455l2.667-2.667v9.724c0 0.061-0.003 0.115-0.008 0.16z"></path>
</svg>
