<?xml version="1.0" encoding="utf-8"?>
<!DOCTYPE svg PUBLIC "-//W3C//DTD SVG 1.1//EN" "http://www.w3.org/Graphics/SVG/1.1/DTD/svg11.dtd">
<svg version="1.1" xmlns="http://www.w3.org/2000/svg" xmlns:xlink="http://www.w3.org/1999/xlink" width="32" height="32" viewBox="0 0 32 32">

	<path d="M16 7.348c0.748 0 1.492 0.472 2.059 1.416l7.883 13.139c1.135 1.887 0.259 3.431-1.941 3.431h-16c-2.2 0-3.076-1.545-1.941-3.431l7.883-13.139c0.567-0.944 1.311-1.416 2.059-1.416zM16 4.681c-1.728 0-3.309 0.987-4.345 2.708l-7.883 13.141c-1.048 1.745-1.163 3.607-0.313 5.107s2.505 2.363 4.541 2.363h16c2.036 0 3.693-0.861 4.541-2.361s0.735-3.361-0.313-5.107l-7.883-13.139c-1.036-1.725-2.617-2.712-4.345-2.712z"></path>
	<path d="M17.733 21.333c0 0.957-0.776 1.733-1.733 1.733s-1.733-0.776-1.733-1.733c0-0.957 0.776-1.733 1.733-1.733s1.733 0.776 1.733 1.733z"></path>
	<path d="M18 13.333c0-1.107-0.895-2-2-2s-2 0.893-2 2c0 0.265 0.055 0.519 0.148 0.749 0.739 1.835 1.852 4.584 1.852 4.584s1.113-2.749 1.855-4.584c0.091-0.231 0.145-0.484 0.145-0.749z"></path>
</svg>
