<?xml version="1.0" encoding="utf-8"?>
<!DOCTYPE svg PUBLIC "-//W3C//DTD SVG 1.1//EN" "http://www.w3.org/Graphics/SVG/1.1/DTD/svg11.dtd">
<svg version="1.1" xmlns="http://www.w3.org/2000/svg" xmlns:xlink="http://www.w3.org/1999/xlink" width="32" height="32" viewBox="0 0 32 32">

	<path d="M28.228 20.531l-7.883-13.139c-1.035-1.724-2.617-2.711-4.345-2.711s-3.311 0.987-4.345 2.708l-7.883 13.141c-1.048 1.745-1.163 3.607-0.313 5.107 0.848 1.501 2.504 2.363 4.541 2.363h16c2.037 0 3.693-0.861 4.541-2.361 0.849-1.5 0.735-3.361-0.313-5.108zM16 23.399c-1.139 0-2.067-0.927-2.067-2.065 0-1.14 0.927-2.068 2.067-2.068s2.067 0.928 2.067 2.068c0 1.139-0.928 2.065-2.067 2.065zM18.177 13.5c-0.015 0.041-1.868 4.624-1.868 4.624-0.051 0.125-0.173 0.208-0.308 0.208s-0.257-0.083-0.308-0.208l-1.855-4.584c-0.12-0.311-0.172-0.591-0.172-0.873 0-1.287 1.047-2.333 2.333-2.333s2.333 1.047 2.333 2.333c0 0.283-0.052 0.563-0.156 0.833z"></path>
</svg>
