<?xml version="1.0" encoding="utf-8"?>
<!DOCTYPE svg PUBLIC "-//W3C//DTD SVG 1.1//EN" "http://www.w3.org/Graphics/SVG/1.1/DTD/svg11.dtd">
<svg version="1.1" xmlns="http://www.w3.org/2000/svg" xmlns:xlink="http://www.w3.org/1999/xlink" width="32" height="32" viewBox="0 0 32 32">

	<path d="M16 17.333h2.667c0.733 0 1.333-0.6 1.333-1.333s-0.6-1.333-1.333-1.333h-1.333v-1.333c0-0.733-0.6-1.333-1.333-1.333s-1.333 0.6-1.333 1.333v2.667c0 0.733 0.6 1.333 1.333 1.333z"></path>
	<path d="M22.667 9.473v-2.807c0-2.205-1.795-4-4-4h-5.333c-2.205 0-4 1.795-4 4v2.807c-1.648 1.684-2.667 3.985-2.667 6.527s1.019 4.843 2.667 6.527v2.807c0 2.205 1.795 4 4 4h5.333c2.205 0 4-1.795 4-4v-2.807c1.648-1.683 2.667-3.984 2.667-6.527s-1.019-4.843-2.667-6.527zM12 6.667c0-0.735 0.599-1.333 1.333-1.333h5.333c0.735 0 1.333 0.599 1.333 1.333v2.412c-1.177-0.683-2.541-1.079-4-1.079s-2.823 0.396-4 1.079v-2.412zM20 25.333c0 0.735-0.599 1.333-1.333 1.333h-5.333c-0.735 0-1.333-0.599-1.333-1.333v-2.415c1.177 0.684 2.541 1.081 4 1.081s2.823-0.397 4-1.081v2.415zM16 22.667c-3.676 0-6.667-2.991-6.667-6.667s2.991-6.667 6.667-6.667 6.667 2.991 6.667 6.667-2.991 6.667-6.667 6.667z"></path>
</svg>
