<?xml version="1.0" encoding="utf-8"?>
<!DOCTYPE svg PUBLIC "-//W3C//DTD SVG 1.1//EN" "http://www.w3.org/Graphics/SVG/1.1/DTD/svg11.dtd">
<svg version="1.1" xmlns="http://www.w3.org/2000/svg" xmlns:xlink="http://www.w3.org/1999/xlink" width="32" height="32" viewBox="0 0 32 32">

	<path d="M26.961 14.348c0.664-0.736 1.039-1.669 1.039-2.667 0-1.068-0.416-2.073-1.172-2.828-0.755-0.756-1.76-1.172-2.828-1.172s-2.073 0.416-2.828 1.172c-0.311 0.309-0.728 0.481-1.172 0.481s-0.861-0.172-1.172-0.483c-1.821-1.821-4.247-2.824-6.828-2.824s-5.007 1.003-6.828 2.824c-0.756 0.756-1.172 1.761-1.172 2.829 0 0.997 0.375 1.931 1.039 2.667-0.664 0.735-1.039 1.669-1.039 2.667s0.375 1.931 1.039 2.667c-0.664 0.735-1.039 1.669-1.039 2.667 0 1.068 0.416 2.073 1.172 2.828 0.755 0.755 1.76 1.172 2.828 1.172s2.073-0.416 2.828-1.172c0.312-0.311 0.727-0.483 1.171-0.483s0.861 0.172 1.173 0.484c1.823 1.82 4.247 2.823 6.828 2.823 2.583 0 5.007-1.003 6.828-2.824 0.756-0.756 1.172-1.76 1.172-2.828 0-0.997-0.375-1.931-1.039-2.667 0.664-0.736 1.039-1.669 1.039-2.667s-0.375-1.932-1.039-2.667zM24.943 23.291c-1.361 1.361-3.152 2.043-4.943 2.043-1.789 0-3.58-0.681-4.943-2.043-0.844-0.843-1.951-1.264-3.057-1.264-1.108 0-2.215 0.421-3.056 1.264-0.261 0.26-0.603 0.391-0.944 0.391s-0.683-0.131-0.943-0.391c-0.521-0.521-0.521-1.364 0-1.885 1.361-1.361 3.152-2.043 4.941-2.043 1.791 0 3.581 0.681 4.944 2.043 0.843 0.843 1.951 1.263 3.057 1.263 1.108 0 2.215-0.42 3.057-1.263 0.26-0.26 0.601-0.391 0.943-0.391s0.683 0.131 0.943 0.391c0.521 0.52 0.521 1.364 0 1.885zM7.057 10.739c1.361-1.363 3.153-2.044 4.943-2.044 1.791 0 3.58 0.681 4.943 2.043 0.843 0.844 1.951 1.264 3.057 1.264 1.108 0 2.215-0.42 3.057-1.263 0.26-0.261 0.601-0.391 0.943-0.391s0.683 0.131 0.943 0.391c0.521 0.521 0.521 1.364 0 1.885-1.361 1.361-3.152 2.043-4.943 2.043-1.789 0-3.58-0.681-4.943-2.043-0.844-0.843-1.951-1.264-3.057-1.264-1.108 0-2.215 0.421-3.056 1.264-0.261 0.26-0.603 0.391-0.944 0.391s-0.683-0.131-0.943-0.391c-0.521-0.521-0.521-1.365 0-1.885zM24.943 17.957c-1.361 1.361-3.152 2.043-4.943 2.043-1.789 0-3.58-0.681-4.943-2.043-0.844-0.843-1.951-1.264-3.057-1.264-1.108 0-2.215 0.421-3.056 1.264-0.261 0.26-0.603 0.391-0.944 0.391s-0.683-0.131-0.943-0.391c-0.521-0.521-0.521-1.364 0-1.885 1.361-1.361 3.152-2.043 4.941-2.043 1.791 0 3.581 0.681 4.944 2.043 0.843 0.843 1.951 1.263 3.057 1.263 1.108 0 2.215-0.42 3.057-1.263 0.26-0.26 0.601-0.391 0.943-0.391s0.683 0.131 0.943 0.391c0.521 0.52 0.521 1.364 0 1.885z"></path>
</svg>
