<?xml version="1.0" encoding="utf-8"?>
<!DOCTYPE svg PUBLIC "-//W3C//DTD SVG 1.1//EN" "http://www.w3.org/Graphics/SVG/1.1/DTD/svg11.dtd">
<svg version="1.1" xmlns="http://www.w3.org/2000/svg" xmlns:xlink="http://www.w3.org/1999/xlink" width="32" height="32" viewBox="0 0 32 32">

	<path d="M20 29.333c-0.736 0-1.333-0.596-1.333-1.333v-8c0-0.737 0.597-1.333 1.333-1.333s1.333 0.596 1.333 1.333v8c0 0.737-0.597 1.333-1.333 1.333z"></path>
	<path d="M12 29.333c-0.736 0-1.333-0.596-1.333-1.333v-8c0-0.737 0.597-1.333 1.333-1.333s1.333 0.596 1.333 1.333v8c0 0.737-0.597 1.333-1.333 1.333z"></path>
	<path d="M16 32c-0.736 0-1.333-0.596-1.333-1.333v-8c0-0.737 0.597-1.333 1.333-1.333s1.333 0.596 1.333 1.333v8c0 0.737-0.597 1.333-1.333 1.333z"></path>
	<path d="M8 24c-2.941 0-5.333-2.392-5.333-5.333 0-2.481 1.703-4.572 4.001-5.165-0.001-0.056-0.001-0.112-0.001-0.168 0-4.412 3.588-8 8-8 3.449 0 6.432 2.185 7.533 5.353 3.915-0.325 7.133 2.817 7.133 6.647 0 2.988-2.009 5.631-4.888 6.425-0.713 0.195-1.444-0.221-1.64-0.929-0.196-0.709 0.22-1.444 0.931-1.64 1.725-0.477 2.931-2.063 2.931-3.856 0-2.205-1.795-4-4-4-0.323 0-0.665 0.055-1.081 0.173l-1.432 0.408-0.247-1.469c-0.435-2.576-2.637-4.445-5.24-4.445-2.941 0-5.333 2.392-5.333 5.333 0 0.363 0.036 0.727 0.109 1.077l0.331 1.603-1.896-0.021c-1.348 0.008-2.544 1.204-2.544 2.675s1.196 2.667 2.667 2.667c0.736 0 1.333 0.596 1.333 1.333s-0.597 1.333-1.333 1.333z"></path>
</svg>
