<?xml version="1.0" encoding="utf-8"?>
<!DOCTYPE svg PUBLIC "-//W3C//DTD SVG 1.1//EN" "http://www.w3.org/Graphics/SVG/1.1/DTD/svg11.dtd">
<svg version="1.1" xmlns="http://www.w3.org/2000/svg" xmlns:xlink="http://www.w3.org/1999/xlink" width="32" height="32" viewBox="0 0 32 32">

	<path d="M22.667 25.333h-14.667c-2.941 0-5.333-2.392-5.333-5.333 0-2.481 1.703-4.572 4.001-5.165-0.001-0.056-0.001-0.112-0.001-0.168 0-4.412 3.588-8 8-8 3.449 0 6.432 2.184 7.533 5.353 3.923-0.328 7.133 2.817 7.133 6.647 0 3.676-2.991 6.667-6.667 6.667zM7.873 17.325c-1.344 0.008-2.54 1.204-2.54 2.675s1.196 2.667 2.667 2.667h14.667c2.205 0 4-1.795 4-4s-1.795-4-4-4c-0.324 0-0.667 0.055-1.080 0.173l-1.433 0.409-0.248-1.471c-0.433-2.576-2.636-4.445-5.239-4.445-2.941 0-5.333 2.392-5.333 5.333 0 0.363 0.036 0.727 0.109 1.081l0.325 1.599-1.895-0.021z"></path>
</svg>
