<?xml version="1.0" encoding="utf-8"?>
<!DOCTYPE svg PUBLIC "-//W3C//DTD SVG 1.1//EN" "http://www.w3.org/Graphics/SVG/1.1/DTD/svg11.dtd">
<svg version="1.1" xmlns="http://www.w3.org/2000/svg" xmlns:xlink="http://www.w3.org/1999/xlink" width="32" height="32" viewBox="0 0 32 32">

	<path d="M17.333 5.333l-1.333 3.912-1.333-3.912c-0.251-0.737 0.141-1.536 0.879-1.788 0.736-0.251 1.537 0.143 1.788 0.879 0.104 0.307 0.096 0.625 0 0.909z"></path>
	<path d="M5.333 14.667l3.912 1.333-3.912 1.333c-0.737 0.251-1.536-0.141-1.788-0.879-0.251-0.736 0.143-1.537 0.879-1.788 0.307-0.104 0.625-0.096 0.909 0z"></path>
	<path d="M14.667 26.667l1.333-3.912 1.333 3.912c0.251 0.737-0.141 1.536-0.879 1.788-0.736 0.251-1.536-0.141-1.788-0.879-0.104-0.307-0.096-0.625 0-0.909z"></path>
	<path d="M26.667 17.331l-3.912-1.333 3.912-1.333c0.737-0.251 1.536 0.141 1.788 0.879 0.251 0.736-0.141 1.536-0.879 1.788-0.307 0.104-0.625 0.096-0.909 0z"></path>
	<path d="M9.4 7.515l1.823 3.708-3.708-1.823c-0.699-0.343-0.987-1.188-0.644-1.885 0.344-0.697 1.188-0.985 1.885-0.643 0.291 0.143 0.511 0.373 0.644 0.643z"></path>
	<path d="M7.515 22.599l3.708-1.823-1.823 3.708c-0.343 0.697-1.188 0.985-1.885 0.643-0.697-0.344-0.985-1.188-0.643-1.885 0.143-0.291 0.373-0.509 0.643-0.643z"></path>
	<path d="M22.599 24.484l-1.823-3.708 3.708 1.823c0.697 0.343 0.985 1.188 0.643 1.885-0.344 0.697-1.188 0.985-1.885 0.643-0.291-0.143-0.509-0.373-0.643-0.643z"></path>
	<path d="M24.483 9.397l-3.709 1.824 1.824-3.709c0.343-0.697 1.188-0.985 1.885-0.643 0.697 0.344 0.985 1.188 0.641 1.887-0.141 0.289-0.372 0.508-0.641 0.641z"></path>
	<path d="M16 22c-3.308 0-6-2.692-6-6s2.692-6 6-6 6 2.692 6 6-2.692 6-6 6zM16 12.667c-1.839 0-3.333 1.495-3.333 3.333s1.495 3.333 3.333 3.333 3.333-1.495 3.333-3.333-1.495-3.333-3.333-3.333z"></path>
</svg>
