<?xml version="1.0" encoding="utf-8"?>
<!DOCTYPE svg PUBLIC "-//W3C//DTD SVG 1.1//EN" "http://www.w3.org/Graphics/SVG/1.1/DTD/svg11.dtd">
<svg version="1.1" xmlns="http://www.w3.org/2000/svg" xmlns:xlink="http://www.w3.org/1999/xlink" width="32" height="32" viewBox="0 0 32 32">

	<path d="M22.667 24c-0.737 0-1.333-0.596-1.333-1.333s0.596-1.333 1.333-1.333c2.205 0 4-1.795 4-4s-1.795-4-4-4c-0.317 0-0.661 0.056-1.084 0.175l-1.428 0.401-0.248-1.464c-0.435-2.576-2.639-4.445-5.24-4.445-2.94 0-5.333 2.392-5.333 5.333 0 0.365 0.036 0.727 0.109 1.075l0.347 1.653-1.915-0.069c-1.347 0.008-2.541 1.204-2.541 2.675s1.195 2.667 2.667 2.667c0.737 0 1.333 0.596 1.333 1.333s-0.596 1.333-1.333 1.333c-2.94 0-5.333-2.392-5.333-5.333 0-2.481 1.703-4.572 4.003-5.165-0.003-0.056-0.003-0.112-0.003-0.168 0-4.412 3.588-8 8-8 3.449 0 6.432 2.184 7.532 5.353 3.9-0.321 7.135 2.816 7.135 6.647 0 3.676-2.991 6.667-6.667 6.667z"></path>
	<path d="M16.852 18.667l-6 5.401 4 1.932-2 4.667 6-5.4-4-1.933z"></path>
</svg>
