<?xml version="1.0" encoding="utf-8"?>
<!DOCTYPE svg PUBLIC "-//W3C//DTD SVG 1.1//EN" "http://www.w3.org/Graphics/SVG/1.1/DTD/svg11.dtd">
<svg version="1.1" xmlns="http://www.w3.org/2000/svg" xmlns:xlink="http://www.w3.org/1999/xlink" width="32" height="32" viewBox="0 0 32 32">

	<path d="M19.333 4l-1.333 4-1.333-4c-0.245-0.737 0.152-1.532 0.888-1.777 0.737-0.247 1.533 0.152 1.779 0.888 0.1 0.301 0.093 0.611 0 0.889z"></path>
	<path d="M26.485 8.067l-3.772 1.887 1.887-3.772c0.348-0.695 1.192-0.975 1.885-0.629 0.695 0.348 0.975 1.192 0.629 1.887-0.143 0.283-0.365 0.496-0.629 0.628z"></path>
	<path d="M28.667 16l-4-1.333 4-1.333c0.737-0.247 1.532 0.152 1.779 0.889 0.245 0.736-0.153 1.531-0.891 1.777-0.3 0.1-0.609 0.092-0.888 0z"></path>
	<path d="M11.4 6.181l1.887 3.772-3.772-1.887c-0.695-0.348-0.976-1.192-0.629-1.885 0.348-0.695 1.193-0.975 1.885-0.629 0.284 0.143 0.497 0.365 0.629 0.629z"></path>
	<path d="M23.701 16.456c0.185-0.565 0.299-1.161 0.299-1.789 0-3.308-2.692-6-6-6-1.787 0-3.383 0.792-4.476 2.037-0.065-0.009-0.123-0.037-0.191-0.037-2.368 0-4.492 1.040-5.959 2.681-0.32-0.107-0.629-0.115-0.929-0.015-0.737 0.247-1.136 1.041-0.891 1.777 0.076 0.223 0.211 0.399 0.369 0.548-0.377 0.929-0.591 1.944-0.591 3.008 0 0.056 0 0.112 0.003 0.168-2.3 0.593-4.003 2.684-4.003 5.165 0 2.941 2.393 5.333 5.333 5.333h14.667c3.676 0 6.667-2.991 6.667-6.667 0-2.839-1.792-5.252-4.299-6.211zM18 11.333c1.839 0 3.333 1.495 3.333 3.333 0 0.488-0.128 0.941-0.317 1.359-0.472 0.028-0.96 0.099-1.491 0.251-0.695-1.804-2.139-3.22-3.956-3.873 0.608-0.653 1.469-1.069 2.431-1.069zM21.333 26.667h-14.667c-1.472 0-2.667-1.196-2.667-2.667s1.195-2.667 2.544-2.675l1.896 0.021-0.331-1.603c-0.073-0.351-0.109-0.715-0.109-1.077 0-2.941 2.393-5.333 5.333-5.333 0.032 0 0.060-0.017 0.092-0.019 2.539 0.073 4.66 1.875 5.129 4.36 0.041 0.104 0.029 0.175 0.051 0.248 0.164 0.581 0.689 0.941 1.261 0.949 0.141-0.001 0.263 0.004 0.385-0.031 0.416-0.12 0.759-0.175 1.081-0.175 2.205 0 4 1.795 4 4s-1.795 4-4 4z"></path>
</svg>
