<?xml version="1.0" encoding="utf-8"?>
<!DOCTYPE svg PUBLIC "-//W3C//DTD SVG 1.1//EN" "http://www.w3.org/Graphics/SVG/1.1/DTD/svg11.dtd">
<svg version="1.1" xmlns="http://www.w3.org/2000/svg" xmlns:xlink="http://www.w3.org/1999/xlink" width="32" height="32" viewBox="0 0 32 32">

	<path d="M22.667 24c-0.736 0-1.333-0.596-1.333-1.333s0.597-1.333 1.333-1.333c2.205 0 4-1.795 4-4s-1.795-4-4-4c-0.324 0-0.667 0.055-1.080 0.173l-1.433 0.409-0.247-1.471c-0.435-2.576-2.637-4.445-5.24-4.445-2.941 0-5.333 2.392-5.333 5.333 0 0.363 0.036 0.727 0.109 1.081l0.325 1.599-1.893-0.021c-1.345 0.008-2.541 1.204-2.541 2.675s1.196 2.667 2.667 2.667c0.736 0 1.333 0.596 1.333 1.333s-0.597 1.333-1.333 1.333c-2.941 0-5.333-2.392-5.333-5.333 0-2.481 1.703-4.572 4.001-5.165-0.001-0.056-0.001-0.112-0.001-0.168 0-4.412 3.588-8 8-8 3.449 0 6.432 2.184 7.533 5.353 3.919-0.325 7.133 2.817 7.133 6.647 0 3.676-2.991 6.667-6.667 6.667z"></path>
	<path d="M14 24l1.333-4 1.333 4c0.245 0.737-0.152 1.532-0.889 1.777-0.736 0.247-1.532-0.152-1.777-0.888-0.1-0.301-0.093-0.611 0-0.889z"></path>
	<path d="M18 26.667l1.333-4 1.333 4c0.245 0.737-0.152 1.532-0.889 1.777-0.736 0.247-1.532-0.152-1.777-0.888-0.1-0.301-0.093-0.611 0-0.889z"></path>
	<path d="M10 26.667l1.333-4 1.333 4c0.245 0.737-0.152 1.532-0.889 1.777-0.736 0.247-1.532-0.152-1.777-0.888-0.1-0.301-0.093-0.611 0-0.889z"></path>
</svg>
