<?xml version="1.0" encoding="utf-8"?>
<!DOCTYPE svg PUBLIC "-//W3C//DTD SVG 1.1//EN" "http://www.w3.org/Graphics/SVG/1.1/DTD/svg11.dtd">
<svg version="1.1" xmlns="http://www.w3.org/2000/svg" xmlns:xlink="http://www.w3.org/1999/xlink" width="32" height="32" viewBox="0 0 32 32">

	<path d="M14 26.667c-1.148 0-2.28-0.201-3.364-0.601l-1.756-0.647 1.187-1.449c1.7-2.080 2.6-4.605 2.6-7.303s-0.9-5.223-2.601-7.303l-1.187-1.449 1.756-0.647c1.085-0.4 2.217-0.601 3.365-0.601 5.515 0 10 4.485 10 10s-4.485 10-10 10zM13.321 23.968c0.225 0.021 0.452 0.032 0.679 0.032 4.043 0 7.333-3.291 7.333-7.333s-3.291-7.333-7.333-7.333c-0.227 0-0.453 0.011-0.679 0.032 1.321 2.193 2.012 4.681 2.012 7.301s-0.691 5.108-2.012 7.301z"></path>
</svg>
