<?xml version="1.0" encoding="utf-8"?>
<!DOCTYPE svg PUBLIC "-//W3C//DTD SVG 1.1//EN" "http://www.w3.org/Graphics/SVG/1.1/DTD/svg11.dtd">
<svg version="1.1" xmlns="http://www.w3.org/2000/svg" xmlns:xlink="http://www.w3.org/1999/xlink" width="32" height="32" viewBox="0 0 32 32">

	<path d="M27.333 20.179l-3.276-0.671 1.977-0.528c0.711-0.191 1.133-0.92 0.943-1.633-0.189-0.711-0.919-1.133-1.633-0.943l-2.011 0.537c0.049-0.308 0.095-0.619 0.095-0.941s-0.045-0.635-0.095-0.943l2.013 0.539c0.116 0.031 0.232 0.045 0.347 0.045 0.588 0 1.128-0.393 1.287-0.988 0.191-0.711-0.232-1.443-0.943-1.633l-1.977-0.529 3.273-0.669c0.288-0.059 0.56-0.208 0.769-0.444 0.515-0.581 0.463-1.469-0.119-1.984s-1.469-0.463-1.984 0.119l-2.217 2.499 0.531-1.972c0.192-0.711-0.231-1.443-0.941-1.635-0.708-0.189-1.443 0.231-1.635 0.941l-0.543 2.023c-0.488-0.399-1.028-0.725-1.625-0.956l1.469-1.469c0.521-0.521 0.521-1.364 0-1.885s-1.364-0.521-1.885 0l-1.448 1.448 1.057-3.172c0.092-0.279 0.1-0.588 0-0.889-0.245-0.736-1.041-1.135-1.777-0.888-0.736 0.245-1.133 1.040-0.889 1.777l1.057 3.172-1.448-1.448c-0.521-0.521-1.364-0.521-1.885 0s-0.521 1.364 0 1.885l1.469 1.469c-0.596 0.231-1.137 0.559-1.625 0.956l-0.54-2.020c-0.191-0.712-0.929-1.136-1.632-0.944-0.712 0.191-1.135 0.92-0.944 1.632l0.528 1.98-2.216-2.503c-0.195-0.219-0.46-0.38-0.771-0.444-0.76-0.156-1.503 0.333-1.659 1.093s0.335 1.504 1.096 1.66l3.272 0.671-1.973 0.528c-0.711 0.191-1.133 0.921-0.943 1.633 0.159 0.596 0.697 0.988 1.287 0.988 0.115 0 0.231-0.015 0.347-0.045l2.011-0.539c-0.052 0.308-0.097 0.62-0.097 0.941 0 0.323 0.045 0.633 0.095 0.943l-2.011-0.539c-0.709-0.189-1.441 0.231-1.633 0.943-0.192 0.711 0.232 1.443 0.943 1.633l1.977 0.529-3.273 0.669c-0.288 0.059-0.56 0.208-0.769 0.445-0.516 0.581-0.463 1.469 0.119 1.983 0.581 0.516 1.471 0.463 1.984-0.119l2.22-2.504-0.531 1.979c-0.192 0.711 0.231 1.443 0.943 1.633 0.116 0.031 0.232 0.045 0.347 0.045 0.588 0 1.127-0.392 1.287-0.988l0.541-2.020c0.488 0.397 1.028 0.725 1.627 0.955l-1.472 1.469c-0.521 0.52-0.521 1.364 0 1.885s1.364 0.521 1.885 0l0.941-0.943h0.336l-0.888 2.665c-0.092 0.279-0.1 0.588 0 0.889 0.245 0.736 1.041 1.135 1.777 0.888 0.737-0.245 1.135-1.040 0.889-1.777l-0.888-2.665h0.336l0.943 0.943c0.261 0.26 0.601 0.391 0.943 0.391s0.683-0.131 0.943-0.391c0.521-0.52 0.521-1.364 0-1.885l-1.469-1.471c0.597-0.229 1.139-0.557 1.627-0.956l0.541 2.023c0.16 0.596 0.697 0.988 1.287 0.988 0.115 0 0.231-0.015 0.347-0.045 0.711-0.191 1.135-0.921 0.943-1.633l-0.529-1.973 2.216 2.499c0.195 0.22 0.46 0.38 0.769 0.444 0.76 0.156 1.504-0.335 1.659-1.095 0.156-0.76-0.335-1.503-1.095-1.659zM17.429 19.333c-1.839 0-3.333-1.495-3.333-3.333s1.495-3.333 3.333-3.333 3.333 1.495 3.333 3.333-1.495 3.333-3.333 3.333z"></path>
</svg>
