<?xml version="1.0" encoding="utf-8"?>
<!DOCTYPE svg PUBLIC "-//W3C//DTD SVG 1.1//EN" "http://www.w3.org/Graphics/SVG/1.1/DTD/svg11.dtd">
<svg version="1.1" xmlns="http://www.w3.org/2000/svg" xmlns:xlink="http://www.w3.org/1999/xlink" width="32" height="32" viewBox="0 0 32 32">

	<path d="M6.397 21c-0.179 0-0.36-0.035-0.533-0.112-1.943-0.852-3.197-2.769-3.197-4.888 0-2.481 1.703-4.572 4.001-5.165-0.001-0.056-0.001-0.112-0.001-0.168 0-4.412 3.588-8 8-8 3.909 0 7.217 2.805 7.869 6.668 0.123 0.725-0.367 1.415-1.093 1.536-0.725 0.111-1.413-0.368-1.536-1.093-0.435-2.575-2.639-4.444-5.24-4.444-2.941 0-5.333 2.392-5.333 5.333 0 0.363 0.036 0.728 0.108 1.083l0.345 1.693-1.908-0.117c-1.349 0.008-2.545 1.204-2.545 2.675 0 1.060 0.628 2.020 1.6 2.445 0.675 0.296 0.981 1.083 0.687 1.756-0.219 0.5-0.708 0.799-1.223 0.799z"></path>
	<path d="M25.333 9.333c-0.737 0-1.333 0.596-1.333 1.333s0.596 1.333 1.333 1.333c0.736 0 1.333 0.597 1.333 1.333s-0.597 1.333-1.333 1.333h-12.8c-0.737 0-1.333 0.596-1.333 1.333s0.596 1.333 1.333 1.333h6.133c0.736 0 1.333 0.597 1.333 1.333s-0.597 1.333-1.333 1.333h-6.667c-2.205 0-4 1.795-4 4s1.795 4 4 4c0.737 0 1.333-0.596 1.333-1.333s-0.596-1.333-1.333-1.333c-0.736 0-1.333-0.597-1.333-1.333s0.597-1.333 1.333-1.333h6.667c2.205 0 4-1.795 4-4 0-0.471-0.096-0.915-0.247-1.333h2.913c2.205 0 4-1.795 4-4s-1.795-4-4-4z"></path>
</svg>
