<?xml version="1.0" encoding="utf-8"?>
<!DOCTYPE svg PUBLIC "-//W3C//DTD SVG 1.1//EN" "http://www.w3.org/Graphics/SVG/1.1/DTD/svg11.dtd">
<svg version="1.1" xmlns="http://www.w3.org/2000/svg" xmlns:xlink="http://www.w3.org/1999/xlink" width="32" height="32" viewBox="0 0 32 32">

	<path d="M25.333 6.667c-0.737 0-1.333 0.596-1.333 1.333s0.596 1.333 1.333 1.333c0.736 0 1.333 0.597 1.333 1.333s-0.597 1.333-1.333 1.333h-14.667c-0.737 0-1.333 0.596-1.333 1.333s0.596 1.333 1.333 1.333h8c0.736 0 1.333 0.597 1.333 1.333s-0.597 1.333-1.333 1.333h-8.533c-2.205 0-4 1.795-4 4s1.795 4 4 4c0.737 0 1.333-0.596 1.333-1.333s-0.596-1.333-1.333-1.333c-0.736 0-1.333-0.597-1.333-1.333s0.597-1.333 1.333-1.333h8.533c2.205 0 4-1.795 4-4 0-0.471-0.096-0.915-0.247-1.333h2.913c2.205 0 4-1.795 4-4s-1.795-4-4-4z"></path>
</svg>
