<?xml version="1.0" encoding="utf-8"?>
<!DOCTYPE svg PUBLIC "-//W3C//DTD SVG 1.1//EN" "http://www.w3.org/Graphics/SVG/1.1/DTD/svg11.dtd">
<svg version="1.1" xmlns="http://www.w3.org/2000/svg" xmlns:xlink="http://www.w3.org/1999/xlink" width="32" height="32" viewBox="0 0 32 32">

	<path d="M28.209 14.352c0-1.047-0.359-1.952-0.941-2.731-0.060-0.125-0.175-0.199-0.28-0.301-0.217-0.24-0.455-0.451-0.715-0.64-5.933-4.985-14.62-4.98-20.552 0.008-0.257 0.189-0.989 0.984-0.989 0.984-0.583 0.779-0.941 1.74-0.941 2.787 0 1.088 0.483 2.344 1.012 2.873s7.7 7.728 7.7 7.728c0.856 0.976 2.096 1.605 3.496 1.605 1.328 0 2.279-0.223 3.368-1.333 0.005 0 7.42-7.528 7.42-7.528 0.941-0.937 1.423-2.265 1.423-3.452zM16.001 23.997c-1.105 0.003-2.001-0.891-2.001-1.997-0.003-1.104 0.893-2.003 2.001-2.003 1.105-0.003 2.001 0.893 1.999 2.003 0.003 1.104-0.893 2-1.999 1.997zM21.185 19.64c-0.391 0.391-0.903 0.584-1.415 0.584-0.513 0-1.024-0.195-1.415-0.584-1.301-1.301-3.416-1.301-4.715 0-0.781 0.781-2.048 0.779-2.829 0-0.781-0.781-0.781-2.049 0-2.831 2.859-2.859 7.509-2.859 10.372 0 0.783 0.781 0.783 2.051 0.001 2.831zM24.957 15.869c-0.391 0.391-0.903 0.584-1.415 0.584s-1.025-0.195-1.416-0.584c-3.377-3.379-8.877-3.379-12.256 0-0.781 0.779-2.048 0.779-2.829 0-0.78-0.781-0.78-2.048 0-2.831 4.939-4.935 12.972-4.935 17.913 0 0.783 0.784 0.783 2.049 0.003 2.831z"></path>
</svg>
