<?xml version="1.0" encoding="utf-8"?>
<!DOCTYPE svg PUBLIC "-//W3C//DTD SVG 1.1//EN" "http://www.w3.org/Graphics/SVG/1.1/DTD/svg11.dtd">
<svg version="1.1" xmlns="http://www.w3.org/2000/svg" xmlns:xlink="http://www.w3.org/1999/xlink" width="32" height="32" viewBox="0 0 32 32">

	<path d="M17.885 25.883c1.044-1.039 1.044-2.729 0-3.768-1.041-1.047-2.732-1.047-3.771-0.003-1.044 1.044-1.044 2.735 0 3.775 1.041 1.040 2.732 1.041 3.771-0.004z"></path>
	<path d="M27.313 15.353c-0.683 0-1.365-0.26-1.885-0.781-5.199-5.199-13.657-5.197-18.857 0-1.043 1.041-2.731 1.040-3.772 0-1.041-1.041-1.041-2.729 0-3.772 7.279-7.277 19.121-7.277 26.399 0 1.041 1.041 1.041 2.729 0 3.771-0.519 0.521-1.201 0.783-1.884 0.783z"></path>
	<path d="M10.343 21.009c-0.683 0-1.365-0.26-1.885-0.781-1.041-1.041-1.041-2.729 0-3.771 4.157-4.159 10.925-4.159 15.084 0 1.041 1.041 1.041 2.729 0 3.772-1.041 1.041-2.729 1.041-3.772 0-2.079-2.080-5.463-2.079-7.543 0-0.519 0.52-1.201 0.78-1.884 0.78z"></path>
</svg>
