<?xml version="1.0" encoding="utf-8"?>
<!DOCTYPE svg PUBLIC "-//W3C//DTD SVG 1.1//EN" "http://www.w3.org/Graphics/SVG/1.1/DTD/svg11.dtd">
<svg version="1.1" xmlns="http://www.w3.org/2000/svg" xmlns:xlink="http://www.w3.org/1999/xlink" width="32" height="32" viewBox="0 0 32 32">

	<path d="M23.424 12.576c0-3.4-1.208-7.456-1.259-7.627-0.171-0.564-0.689-0.949-1.277-0.949h-9.776c-0.588 0-1.107 0.385-1.277 0.949-0.051 0.171-1.259 4.227-1.259 7.627 0 3.647 2.645 6.681 6.116 7.303-0.004 0.040-0.025 0.079-0.025 0.121v5.333h-1.333c-0.737 0-1.333 0.596-1.333 1.333s0.596 1.333 1.333 1.333h5.333c0.737 0 1.333-0.596 1.333-1.333s-0.596-1.333-1.333-1.333h-1.333v-5.333c0-0.043-0.021-0.081-0.025-0.123 3.471-0.621 6.116-3.655 6.116-7.301zM16 17.333c-2.364 0-4.315-1.737-4.681-4h9.361c-0.365 2.263-2.316 4-4.68 4zM11.26 12c0.083-1.957 0.563-4.124 0.871-5.333h7.737c0.308 1.209 0.788 3.376 0.871 5.333h-9.479z"></path>
</svg>
