<?xml version="1.0" encoding="utf-8"?>
<!DOCTYPE svg PUBLIC "-//W3C//DTD SVG 1.1//EN" "http://www.w3.org/Graphics/SVG/1.1/DTD/svg11.dtd">
<svg version="1.1" xmlns="http://www.w3.org/2000/svg" xmlns:xlink="http://www.w3.org/1999/xlink" width="32" height="32" viewBox="0 0 32 32">

	<path d="M16 2.667c-6.628 0-12 5.372-12 12s5.372 12 12 12 12-5.372 12-12-5.372-12-12-12zM16 10.667c0-0.737 0.596-1.333 1.333-1.333s1.333 0.596 1.333 1.333v4c-0.736 0-1.333 0.597-1.333 1.333s0.597 1.333 1.333 1.333c0.737 0 1.333-0.597 1.333-1.333h1.333v-2.667l1.333 1.333-1.333 1.333c0 4 0 4-2.667 5.333 0-1.333-1.333-1.333-4-1.333v-2.667l-2.667-2.667v-2.667c-1.333 0-1.333 1.333-1.333 1.333l-2.951-2.949c1.556-2.996 4.683-5.051 8.284-5.051 0.917 0 1.804 0.139 2.641 0.387-0.115 1.193-0.772 2.28-1.975 2.28-1.333 0-2 1.333-2 2.667s0 4 0 4 1.333 0 1.333-4zM16 24c-5.145 0-9.333-4.187-9.333-9.333 0-1.035 0.177-2.028 0.489-2.959l6.177 6.177v2.115c0 0.736 0.596 1.333 1.333 1.333 1.039 0 2.201 0 2.675 0.121 0.051 0.401 0.279 0.776 0.624 0.989 0.224 0.139 0.48 0.213 0.736 0.213 0.193 0 0.385-0.043 0.563-0.131 3.131-1.565 3.385-2.192 3.403-5.972l0.944-0.944c0.521-0.521 0.521-1.364 0-1.885l-1.333-1.333c-0.256-0.256-0.597-0.392-0.944-0.392-0.172 0-0.345 0.033-0.511 0.101-0.497 0.207-0.823 0.693-0.823 1.232v-2.667c0-0.919-0.468-1.731-1.177-2.211 0.561-0.548 0.949-1.327 1.101-2.247 3.189 1.487 5.409 4.713 5.409 8.457 0 5.147-4.188 9.333-9.333 9.333z"></path>
</svg>
