<?xml version="1.0" encoding="utf-8"?>
<!DOCTYPE svg PUBLIC "-//W3C//DTD SVG 1.1//EN" "http://www.w3.org/Graphics/SVG/1.1/DTD/svg11.dtd">
<svg version="1.1" xmlns="http://www.w3.org/2000/svg" xmlns:xlink="http://www.w3.org/1999/xlink" width="32" height="32" viewBox="0 0 32 32">

	<path d="M16 2.667c-6.628 0-12 5.372-12 12s5.372 12 12 12 12-5.372 12-12-5.372-12-12-12zM18.667 5.333c0 1.333-0.667 2.667-2 2.667s-2 1.333-2 2.667 0 4 0 4 1.333 0 1.333-4c0-0.737 0.596-1.333 1.333-1.333s1.333 0.596 1.333 1.333v4c-0.736 0-1.333 0.597-1.333 1.333s0.597 1.333 1.333 1.333c0.737 0 1.333-0.597 1.333-1.333h1.333v-2.667l1.333 1.333-1.333 1.333c0 4 0 4-2.667 5.333 0-1.333-1.333-1.333-4-1.333v-2.667l-2.667-2.667v-2.667c-1.333 0-1.333 1.333-1.333 1.333l-3.935-3.935c0.147-0.256 0.3-0.509 0.467-0.752l0.697-0.904c1.957-2.288 4.859-3.743 8.104-3.743 0.921 0 1.812 0.131 2.667 0.349v0.984z"></path>
</svg>
