<?xml version="1.0" encoding="utf-8"?>
<!DOCTYPE svg PUBLIC "-//W3C//DTD SVG 1.1//EN" "http://www.w3.org/Graphics/SVG/1.1/DTD/svg11.dtd">
<svg version="1.1" xmlns="http://www.w3.org/2000/svg" xmlns:xlink="http://www.w3.org/1999/xlink" width="32" height="32" viewBox="0 0 32 32">

	<path d="M17.333 5.333c-5.145 0-9.333 4.188-9.333 9.333 0 1.017 0.169 1.993 0.472 2.911l-1.68 1.683-1.344 1.393c-0.749 0.743-1.188 1.793-1.188 2.913 0 2.303 1.872 4.175 4.173 4.175 1.009 0 2.005-0.371 2.805-1.045l0.085-0.073 0.081-0.081 3.016-3.012c0.917 0.301 1.895 0.471 2.912 0.471 5.145 0 9.333-4.188 9.333-9.333s-4.188-9.333-9.333-9.333zM17.333 21.333c-3.676 0-6.667-2.991-6.667-6.667s2.991-6.667 6.667-6.667 6.667 2.991 6.667 6.667-2.991 6.667-6.667 6.667z"></path>
	<path d="M17.333 9.333c-2.94 0-5.333 2.392-5.333 5.333s2.393 5.333 5.333 5.333 5.333-2.392 5.333-5.333-2.393-5.333-5.333-5.333zM17.333 18.667c-2.208 0-4-1.792-4-4s1.792-4 4-4 4 1.792 4 4-1.792 4-4 4z"></path>
</svg>
