<?xml version="1.0" encoding="utf-8"?>
<!DOCTYPE svg PUBLIC "-//W3C//DTD SVG 1.1//EN" "http://www.w3.org/Graphics/SVG/1.1/DTD/svg11.dtd">
<svg version="1.1" xmlns="http://www.w3.org/2000/svg" xmlns:xlink="http://www.w3.org/1999/xlink" width="32" height="32" viewBox="0 0 32 32">

	<path d="M17.333 14.667h-2.667v-2.667c0-0.367-0.3-0.667-0.667-0.667s-0.667 0.3-0.667 0.667v2.667h-2.667c-0.367 0-0.667 0.3-0.667 0.667s0.3 0.667 0.667 0.667h2.667v2.667c0 0.367 0.3 0.667 0.667 0.667s0.667-0.3 0.667-0.667v-2.667h2.667c0.367 0 0.667-0.3 0.667-0.667s-0.3-0.667-0.667-0.667z"></path>
	<path d="M25.841 21.275l-2.992-3.044c0.303-0.916 0.484-1.883 0.484-2.897 0-5.145-4.188-9.333-9.333-9.333s-9.333 4.188-9.333 9.333 4.188 9.333 9.333 9.333c1.016 0 1.984-0.183 2.897-0.485l3.196 3.181c0.801 0.675 1.797 1.044 2.805 1.044 2.303 0 4.175-1.872 4.175-4.175 0-1.12-0.437-2.171-1.232-2.957zM20.64 19.795l3.323 3.375c0.273 0.271 0.443 0.648 0.443 1.063 0 0.833-0.676 1.508-1.508 1.508-0.416 0-0.792-0.169-1.088-0.417l-3.349-3.348c0.861-0.581 1.601-1.321 2.18-2.18zM7.333 15.333c0-3.676 2.991-6.667 6.667-6.667s6.667 2.991 6.667 6.667-2.991 6.667-6.667 6.667-6.667-2.991-6.667-6.667z"></path>
</svg>
