<?xml version="1.0" encoding="utf-8"?>
<!DOCTYPE svg PUBLIC "-//W3C//DTD SVG 1.1//EN" "http://www.w3.org/Graphics/SVG/1.1/DTD/svg11.dtd">
<svg version="1.1" xmlns="http://www.w3.org/2000/svg" xmlns:xlink="http://www.w3.org/1999/xlink" width="32" height="32" viewBox="0 0 32 32">

	<path d="M18.667 10.667c2.208 0 4 1.792 4 4s-1.792 4-4 4-4-1.792-4-4 1.792-4 4-4zM18.667 9.333c-2.941 0-5.333 2.392-5.333 5.333s2.392 5.333 5.333 5.333 5.333-2.392 5.333-5.333-2.392-5.333-5.333-5.333z"></path>
	<path d="M5.593 23.565c0 2.303 1.872 4.175 4.175 4.175 1.008 0 2.004-0.369 2.805-1.044l3.196-3.181c0.913 0.303 1.883 0.485 2.897 0.485 5.147 0 9.333-4.188 9.333-9.333s-4.187-9.333-9.333-9.333c-5.145 0-9.333 4.188-9.333 9.333 0 1.015 0.181 1.981 0.485 2.897l-2.993 3.044c-0.795 0.787-1.232 1.837-1.232 2.957zM14.205 21.307l-3.349 3.348c-0.297 0.249-0.672 0.417-1.088 0.417-0.832 0-1.508-0.675-1.508-1.508 0-0.415 0.169-0.792 0.443-1.063l3.323-3.375c0.58 0.86 1.32 1.6 2.18 2.18zM18.667 21.333c-3.676 0-6.667-2.991-6.667-6.667s2.991-6.667 6.667-6.667 6.667 2.991 6.667 6.667-2.991 6.667-6.667 6.667z"></path>
</svg>
