<svg id="svg-source" height="0" version="1.1" 
  xmlns="http://www.w3.org/2000/svg" style="position:absolute; margin-left: -100%" 
  xmlns:xlink="http://www.w3.org/1999/xlink"><g xmlns="http://www.w3.org/2000/svg" id="android">
    <g>
      <circle cx="18.115" cy="10.789" r="0.464"/>
      <circle cx="14.399" cy="10.789" r="0.464"/>
      <path d="M16,0C7.162,0,0,7.164,0,16s7.162,16,16,16c8.837,0,16-7.164,16-16S24.837,0,16,0z M11.303,18.014
		c0,0.513-0.416,0.93-0.929,0.93c-0.514,0-0.93-0.417-0.93-0.93v-3.975c0-0.512,0.416-0.928,0.93-0.928
		c0.513,0,0.929,0.416,0.929,0.928V18.014z M20.593,13.883v0.631v5.41c0,0.541-0.439,0.98-0.98,0.98h-0.708
		c0.023,0.082,0.037,0.169,0.037,0.259v0.052v0.309v1.6c0,0.514-0.416,0.93-0.93,0.93c-0.513,0-0.929-0.416-0.929-0.93v-1.6v-0.309
		v-0.052c0-0.09,0.013-0.177,0.037-0.259h-1.726c0.023,0.082,0.038,0.169,0.038,0.259v0.052v0.309v1.6
		c0,0.514-0.417,0.93-0.931,0.93c-0.512,0-0.928-0.416-0.928-0.93v-1.6v-0.309v-0.052c0-0.09,0.013-0.177,0.036-0.259h-0.707
		c-0.541,0-0.981-0.439-0.981-0.98v-5.41v-0.631v-0.771h0.067h8.536h0.067V13.883z M11.922,12.492c0-1.328,0.89-2.487,2.204-3.1
		l-0.175-0.262l-0.173-0.258l-0.386-0.579c-0.047-0.071-0.027-0.167,0.043-0.215c0.072-0.048,0.168-0.027,0.215,0.043l0.415,0.621
		l0.174,0.261l0.176,0.265c0.56-0.217,1.185-0.339,1.843-0.339S17.54,9.052,18.1,9.269l0.176-0.265l0.175-0.261l0.414-0.621
		c0.047-0.071,0.144-0.091,0.214-0.043c0.072,0.048,0.092,0.144,0.044,0.215l-0.386,0.579l-0.173,0.258L18.39,9.393
		c1.313,0.612,2.203,1.771,2.203,3.1H11.922z M23.07,18.014c0,0.513-0.416,0.93-0.929,0.93c-0.514,0-0.93-0.417-0.93-0.93v-3.975
		c0-0.512,0.416-0.928,0.93-0.928c0.513,0,0.929,0.416,0.929,0.928V18.014z"/>
    </g>
  </g></svg>