<svg id="svg-source" height="0" version="1.1" 
  xmlns="http://www.w3.org/2000/svg" style="position:absolute; margin-left: -100%" 
  xmlns:xlink="http://www.w3.org/1999/xlink"><g xmlns="http://www.w3.org/2000/svg" id="b">
    <path d="M16,0C7.162,0,0,7.164,0,16s7.162,16,16,16s16-7.164,16-16S24.838,0,16,0z M17.757,23.972h-3.531
	C10.842,23.972,8,21.135,8,17.75V9.444C8,8.655,8.654,8,9.444,8c0.787,0,1.443,0.657,1.443,1.444c0,2.768,0.004,5.537,0.004,8.306
	c0,1.822,1.512,3.334,3.334,3.334h3.531c1.815,0,3.335-1.52,3.335-3.334c0-1.823-1.513-3.335-3.335-3.335h-3.809
	c-0.79,0-1.444-0.654-1.444-1.444c0-0.787,0.657-1.444,1.444-1.444h3.809c3.402,0,6.223,2.821,6.223,6.223
	C23.98,21.138,21.146,23.972,17.757,23.972z"/>
  </g></svg>