<svg id="svg-source" height="0" version="1.1" 
  xmlns="http://www.w3.org/2000/svg" style="position:absolute; margin-left: -100%" 
  xmlns:xlink="http://www.w3.org/1999/xlink"><g xmlns="http://www.w3.org/2000/svg" id="devianart">
    <g>
      <path d="M10.458,17.99l2.447-0.659L11.81,15.09C9.75,16.428,10.458,17.99,10.458,17.99z"/>
      <path d="M16,0C7.162,0,0,7.164,0,16s7.162,16,16,16c8.837,0,16-7.164,16-16S24.837,0,16,0z M16.667,18.058
		l-1.698-3.448c0.819-0.139,1.588-0.1,2.264,0.025l0.718,1.334l2.493-0.674c0,0-3.024-2.128-6.647-1.086l2.019,4.096l-7.344,2.114
		c0,0-2.133-4.688,2.681-6.675L10.22,11.84l2.283-0.259l0.771,1.563c0.046-0.007,0.087-0.019,0.133-0.026
		C21.34,11.769,24,15.945,24,15.945L16.667,18.058z"/>
    </g>
  </g></svg>