<svg id="svg-source" height="0" version="1.1" 
  xmlns="http://www.w3.org/2000/svg" style="position:absolute; margin-left: -100%" 
  xmlns:xlink="http://www.w3.org/1999/xlink"><g xmlns="http://www.w3.org/2000/svg" id="dribbble">
    <g>
      <path d="M16.473,16.053c0.09-0.029,0.178-0.056,0.269-0.082c-0.171-0.389-0.358-0.778-0.554-1.161
		c-3.518,1.052-6.895,0.976-7.015,0.974C9.17,15.855,9.168,15.927,9.168,16c0,1.755,0.662,3.355,1.75,4.566
		c0-0.001-0.002-0.003-0.002-0.003S12.785,17.245,16.473,16.053z"/>
      <path d="M15.621,13.757c-1.182-2.102-2.445-3.815-2.537-3.937c-1.905,0.9-3.326,2.655-3.771,4.771
		C9.494,14.595,12.342,14.629,15.621,13.757z"/>
      <path d="M14.363,9.366c-0.008,0.003-0.016,0.003-0.022,0.006c0.013-0.003,0.021-0.004,0.021-0.004
		S14.363,9.367,14.363,9.366z"/>
      <path d="M20.513,10.873C19.309,9.812,17.729,9.167,16,9.167c-0.555,0-1.094,0.068-1.61,0.193
		c0.103,0.136,1.386,1.84,2.553,3.986C19.522,12.38,20.495,10.899,20.513,10.873z"/>
      <path d="M11.801,21.386l0.001-0.002c-0.051-0.04-0.104-0.076-0.154-0.117
		C11.737,21.339,11.801,21.386,11.801,21.386z"/>
      <path d="M16,0C7.162,0,0,7.164,0,16c0,8.836,7.162,16,16,16c8.837,0,16-7.164,16-16C32,7.164,24.837,0,16,0z
		 M23.836,17.611c-0.104,0.514-0.262,1.021-0.466,1.503c-0.2,0.474-0.448,0.933-0.737,1.36c-0.286,0.423-0.615,0.821-0.977,1.183
		c-0.361,0.361-0.76,0.689-1.184,0.976c-0.427,0.289-0.885,0.538-1.358,0.738c-0.483,0.205-0.99,0.361-1.504,0.466
		C17.084,23.946,16.542,24,16,24s-1.084-0.055-1.611-0.164c-0.515-0.105-1.02-0.261-1.503-0.466c-0.474-0.2-0.932-0.449-1.36-0.738
		c-0.423-0.286-0.82-0.614-1.183-0.976c-0.362-0.362-0.69-0.76-0.976-1.183c-0.289-0.427-0.539-0.886-0.738-1.36
		c-0.204-0.482-0.361-0.989-0.467-1.503C8.055,17.085,8,16.542,8,16c0-0.542,0.055-1.084,0.162-1.61
		c0.105-0.514,0.263-1.021,0.467-1.504c0.199-0.475,0.449-0.932,0.738-1.359c0.285-0.423,0.613-0.822,0.976-1.183
		c0.362-0.362,0.76-0.691,1.183-0.977c0.429-0.29,0.887-0.538,1.36-0.738c0.483-0.204,0.988-0.362,1.503-0.466
		C14.916,8.055,15.458,8,16,8s1.084,0.055,1.61,0.164c0.514,0.104,1.021,0.262,1.504,0.466c0.474,0.201,0.932,0.448,1.358,0.738
		c0.424,0.286,0.822,0.614,1.184,0.977c0.361,0.361,0.69,0.76,0.977,1.183c0.289,0.427,0.537,0.884,0.737,1.359
		c0.204,0.483,0.361,0.99,0.466,1.504C23.945,14.915,24,15.458,24,16C24,16.542,23.945,17.085,23.836,17.611z"/>
      <path d="M17.162,17.118c-4.035,1.405-5.35,4.241-5.36,4.266c1.159,0.905,2.614,1.449,4.198,1.449
		c0.946,0,1.848-0.193,2.667-0.542c-0.101-0.597-0.498-2.689-1.46-5.188C17.192,17.108,17.178,17.112,17.162,17.118z"/>
      <path d="M17.47,14.364c0.158,0.326,0.312,0.657,0.454,0.991c0.051,0.118,0.1,0.236,0.146,0.353
		c2.349-0.295,4.66,0.202,4.76,0.224c-0.018-1.621-0.596-3.107-1.555-4.271C21.262,11.679,20.167,13.263,17.47,14.364z"/>
      <path d="M18.488,16.786c0.896,2.463,1.26,4.468,1.329,4.88c1.534-1.036,2.624-2.678,2.928-4.582
		C22.604,17.039,20.692,16.434,18.488,16.786z"/>
    </g>
  </g></svg>