<svg id="svg-source" height="0" version="1.1" 
  xmlns="http://www.w3.org/2000/svg" style="position:absolute; margin-left: -100%" 
  xmlns:xlink="http://www.w3.org/1999/xlink"><g xmlns="http://www.w3.org/2000/svg" id="dropbox">
    <g>
      <polygon points="11.254,14.239 16,17.169 20.746,14.239 16,11.31 	"/>
      <path d="M16,0C7.162,0,0,7.164,0,16c0,8.836,7.162,16,16,16c8.837,0,16-7.164,16-16C32,7.164,24.837,0,16,0z
		 M20.727,20.61l-4.716,2.826l-4.717-2.826v-1.035l1.414,0.922l3.303-2.739l3.303,2.739l1.413-0.922V20.61z M24,16.843l-4.707,3.071
		L16,17.169l-3.293,2.746L8,16.843l3.254-2.604L8,11.633l4.707-3.069L16,11.31l3.293-2.746L24,11.633l-3.254,2.606L24,16.843z"/>
    </g>
  </g></svg>