<svg id="svg-source" height="0" version="1.1" 
  xmlns="http://www.w3.org/2000/svg" style="position:absolute; margin-left: -100%" 
  xmlns:xlink="http://www.w3.org/1999/xlink"><g xmlns="http://www.w3.org/2000/svg" id="ebay">
    <g>
      <path d="M13.604,14.422c-1.639,0.042-1.58,1.704-1.58,1.704s-0.026,1.728,1.583,1.706
		c1.608-0.02,1.582-1.67,1.582-1.67S15.242,14.379,13.604,14.422z"/>
      <path d="M8.484,14.405c-1.458,0.001-1.53,1.292-1.53,1.292h2.981C9.936,15.697,9.936,14.405,8.484,14.405z"/>
      <path d="M18.809,16.232c0,0-1.64-0.052-1.575,0.82c0.06,0.818,1.083,0.817,1.083,0.817
		c1.837,0.023,1.649-1.639,1.649-1.639L18.809,16.232z"/>
      <path d="M16,0C7.162,0,0,7.164,0,16s7.162,16,16,16c8.837,0,16-7.164,16-16S24.837,0,16,0z M13.818,18.521
		c-1.352,0-1.814-0.762-1.814-0.762l-0.043,0.604h-0.992c0.039-0.414,0.045-1.042,0.045-1.042l-0.003-1.019
		c-0.003,0.057-0.007,0.093-0.007,0.093H6.92c0,0,0.057,1.428,1.531,1.455c1.146,0.021,1.354-0.775,1.354-0.775l1.06-0.002
		c0,0-0.113,1.447-2.417,1.447c-2.682,0-2.558-2.307-2.558-2.307c-0.013-0.512,0.085-2.484,2.619-2.483
		c2.136,0,2.465,1.543,2.501,2.28l-0.014-4.074h1.021v2.548c0,0,0.549-0.762,1.822-0.754c1.274,0.007,2.456,0.868,2.428,2.413
		C16.238,17.688,15.171,18.521,13.818,18.521z M20.068,18.355l-0.043-0.63c-0.4,0.507-0.939,0.79-1.885,0.796
		c-0.944,0.005-2.152-0.417-1.945-1.77c0.175-1.139,2.043-1.197,2.577-1.2c0.296-0.001,1.184-0.004,1.184-0.004
		c0.005-0.625-0.184-1.133-1.219-1.152c-1.095-0.021-1.179,0.698-1.179,0.698H16.48c0.219-1.569,2.328-1.377,2.328-1.377
		c2.199,0.091,2.15,1.318,2.178,1.827c0.022,0.438,0.002,1.061,0,1.758c-0.003,0.696,0.021,1.049,0.021,1.049L20.068,18.355z
		 M23.018,20.062h-1.146l0.907-1.712l-2.352-4.449h1.185l1.733,3.456l1.736-3.456h1.071L23.018,20.062z"/>
    </g>
  </g></svg>