<svg id="svg-source" height="0" version="1.1" 
  xmlns="http://www.w3.org/2000/svg" style="position:absolute; margin-left: -100%" 
  xmlns:xlink="http://www.w3.org/1999/xlink"><g xmlns="http://www.w3.org/2000/svg" id="flickr">
    <path d="M16.001,0.001C7.164,0.001,0,7.164,0,16s7.164,15.999,16.001,15.999C24.836,31.999,32,24.836,32,16
	S24.836,0.001,16.001,0.001z M11.523,19.523C9.577,19.523,8,17.945,8,16c0-1.945,1.577-3.523,3.522-3.523
	c1.95,0,3.526,1.578,3.526,3.523C15.048,17.945,13.472,19.523,11.523,19.523z M20.477,19.523c-1.947,0-3.524-1.577-3.524-3.523
	s1.577-3.524,3.524-3.524C22.422,12.476,24,14.054,24,16S22.422,19.523,20.477,19.523z"/>
  </g></svg>