<svg id="svg-source" height="0" version="1.1" 
  xmlns="http://www.w3.org/2000/svg" style="position:absolute; margin-left: -100%" 
  xmlns:xlink="http://www.w3.org/1999/xlink"><g xmlns="http://www.w3.org/2000/svg" id="google-plus">
    <g>
      <path d="M15.765,11.719c-0.22-1.677-1.434-3.021-2.71-3.06s-2.133,1.244-1.912,2.922
		c0.22,1.676,1.434,3.065,2.71,3.104C15.129,14.723,15.985,13.395,15.765,11.719z"/>
      <path d="M16,0C7.164,0,0,7.164,0,16s7.164,16,16,16s16-7.164,16-16S24.837,0,16,0z M13.363,23.958
		c-2.751,0-5.073-1.119-5.073-2.909c0-1.817,2.118-3.57,4.87-3.57c0.299,0,0.574-0.008,0.859-0.008
		c-0.376-0.366-0.675-0.815-0.675-1.369c0-0.327,0.105-0.646,0.252-0.925c-0.149,0.01-0.302,0.013-0.459,0.013
		c-2.26,0-3.774-1.607-3.774-3.6c0-1.949,2.091-3.632,4.312-3.632h4.956l-1.109,0.801h-1.571c1.042,0.401,1.598,1.616,1.598,2.862
		c0,1.047-0.581,1.947-1.4,2.588c-0.799,0.624-0.951,0.885-0.951,1.418c0,0.453,0.855,1.224,1.304,1.541
		c1.31,0.925,1.733,1.785,1.733,3.22C18.233,22.178,16.5,23.958,13.363,23.958z M23.709,16.384H21.78v1.93h-1.552v-1.93h-1.929
		v-1.553h1.929v-1.929h1.552v1.929h1.929V16.384z"/>
      <path d="M14.917,18.137c-0.375-0.121-0.79-0.193-1.233-0.197c-1.902-0.021-3.606,1.159-3.606,2.577
		c0,1.445,1.374,2.648,3.276,2.648c2.674,0,3.605-1.129,3.605-2.575c0-0.175-0.021-0.345-0.061-0.511
		C16.689,19.261,15.948,18.855,14.917,18.137z"/>
    </g>
  </g></svg>