<svg id="svg-source" height="0" version="1.1" 
  xmlns="http://www.w3.org/2000/svg" style="position:absolute; margin-left: -100%" 
  xmlns:xlink="http://www.w3.org/1999/xlink"><g xmlns="http://www.w3.org/2000/svg" id="google-drive">
    <path d="M16,0C7.162,0,0,7.164,0,16s7.162,16,16,16c8.837,0,16-7.164,16-16S24.837,0,16,0z M10.376,22.584l-0.133-0.229
	l-2.198-3.771L8,18.508l0.045-0.076L13.1,9.677l0.131-0.228l0.132,0.227l2.199,3.771l0.045,0.077l-0.045,0.077l-5.054,8.754
	L10.376,22.584z M23.869,19.162l-2.168,3.789l-0.044,0.076h-0.089H11.46h-0.264l0.131-0.229l2.167-3.789l0.044-0.076h0.089h10.109
	H24L23.869,19.162z M23.736,18.033l-4.365,0.019h-0.088l-0.045-0.077L14.184,9.22l-0.131-0.228l0.263-0.001l4.366-0.018h0.088
	l0.045,0.077l5.055,8.755L24,18.032L23.736,18.033z"/>
  </g></svg>