<svg id="svg-source" height="0" version="1.1" 
  xmlns="http://www.w3.org/2000/svg" style="position:absolute; margin-left: -100%" 
  xmlns:xlink="http://www.w3.org/1999/xlink"><g xmlns="http://www.w3.org/2000/svg" id="linkedin">
    <path d="M16,0C7.163,0,0,7.164,0,16s7.163,16,16,16c8.838,0,16-7.164,16-16S24.838,0,16,0z M11.522,22.691H8.403
	v-9.98h3.119V22.691z M9.883,11.463H9.86c-1.129,0-1.86-0.764-1.86-1.73C8,8.748,8.754,8,9.905,8c1.15,0,1.857,0.746,1.88,1.73
	C11.785,10.697,11.056,11.463,9.883,11.463z M24,22.691h-3.537v-5.164c0-1.353-0.552-2.275-1.77-2.275
	c-0.93,0-1.446,0.623-1.688,1.224c-0.09,0.216-0.075,0.515-0.075,0.816v5.399h-3.504c0,0,0.046-9.148,0-9.98h3.504v1.566
	c0.207-0.685,1.326-1.662,3.112-1.662c2.216,0,3.958,1.436,3.958,4.527V22.691z"/>
  </g></svg>