<svg id="svg-source" height="0" version="1.1" 
  xmlns="http://www.w3.org/2000/svg" style="position:absolute; margin-left: -100%" 
  xmlns:xlink="http://www.w3.org/1999/xlink"><g xmlns="http://www.w3.org/2000/svg" id="paypal">
    <g>
      <path d="M18.877,11.635c-0.28-0.198-0.628-0.317-1.026-0.317h-2.305l-0.077,0.317l-0.935,4.008h2.208
		c0.491,0,0.98-0.164,1.407-0.431c0.166-0.104,0.325-0.225,0.467-0.357c0.394-0.376,0.692-0.852,0.82-1.374
		C19.656,12.692,19.399,12.014,18.877,11.635z"/>
      <path d="M16,0C7.162,0,0,7.164,0,16s7.162,16,16,16c8.837,0,16-7.164,16-16S24.837,0,16,0z M23.857,13.48
		c-0.285,1.277-0.871,2.342-1.664,3.175c-1.218,1.269-2.936,1.979-4.847,2.011c-0.041,0-0.082,0.006-0.118,0.006H13.86l-1.15,5.23
		H8.001l3.555-15.805h8.022c1.489,0,3.125,0.672,3.926,2.098c0.275,0.49,0.454,1.068,0.491,1.74
		C24.018,12.403,23.976,12.92,23.857,13.48z"/>
    </g>
  </g></svg>