<svg id="svg-source" height="0" version="1.1" 
  xmlns="http://www.w3.org/2000/svg" style="position:absolute; margin-left: -100%" 
  xmlns:xlink="http://www.w3.org/1999/xlink"><g xmlns="http://www.w3.org/2000/svg" id="pinterest">
    <path d="M16,0C7.164,0,0,7.164,0,16c0,8.837,7.164,16,16,16c8.837,0,16-7.163,16-16C32,7.164,24.837,0,16,0z
	 M16,23.957c-0.788,0-1.548-0.115-2.267-0.328c0.303-0.479,0.636-1.098,0.805-1.713c0.098-0.356,0.563-2.199,0.563-2.199
	c0.278,0.53,1.09,0.997,1.954,0.997c2.572,0,4.317-2.344,4.317-5.482c0-2.372-2.01-4.584-5.065-4.584
	c-3.801,0-5.717,2.727-5.717,4.999c0,1.375,0.521,2.599,1.639,3.057c0.183,0.074,0.347,0.002,0.4-0.201
	c0.037-0.141,0.125-0.496,0.163-0.642c0.053-0.201,0.033-0.271-0.115-0.446c-0.322-0.381-0.527-0.872-0.527-1.569
	c0-2.021,1.512-3.83,3.938-3.83c2.147,0,3.328,1.312,3.328,3.065c0,2.307-1.021,4.253-2.537,4.253c-0.837,0-1.463-0.692-1.262-1.542
	c0.24-1.012,0.707-2.106,0.707-2.838c0-0.654-0.352-1.201-1.079-1.201c-0.855,0-1.543,0.885-1.543,2.071
	c0,0.755,0.255,1.266,0.255,1.266s-0.875,3.71-1.029,4.358c-0.143,0.608-0.162,1.279-0.139,1.838C9.97,22.048,8,19.233,8,15.958
	c0-4.419,3.583-8,8-8s8,3.581,8,8C24,20.376,20.418,23.957,16,23.957z"/>
  </g></svg>