<svg id="svg-source" height="0" version="1.1" 
  xmlns="http://www.w3.org/2000/svg" style="position:absolute; margin-left: -100%" 
  xmlns:xlink="http://www.w3.org/1999/xlink"><g xmlns="http://www.w3.org/2000/svg" id="skype">
    <g>
      <path d="M19.363,15.777c-0.359-0.234-0.797-0.434-1.306-0.597c-0.501-0.16-1.069-0.309-1.688-0.441
		c-0.487-0.113-0.845-0.2-1.056-0.259c-0.207-0.057-0.413-0.138-0.614-0.238c-0.193-0.098-0.347-0.212-0.455-0.346
		c-0.103-0.125-0.152-0.271-0.152-0.444c0-0.283,0.154-0.522,0.474-0.731c0.329-0.217,0.775-0.325,1.321-0.325
		c0.59,0,1.019,0.097,1.275,0.294c0.264,0.2,0.494,0.484,0.685,0.847c0.164,0.283,0.313,0.479,0.455,0.606
		c0.154,0.135,0.374,0.205,0.657,0.205c0.311,0,0.575-0.11,0.784-0.328c0.208-0.216,0.312-0.463,0.312-0.737
		c0-0.282-0.08-0.575-0.238-0.87c-0.156-0.291-0.406-0.571-0.742-0.833c-0.333-0.261-0.758-0.472-1.261-0.628
		c-0.5-0.155-1.099-0.235-1.78-0.235c-0.853,0-1.606,0.119-2.239,0.354c-0.642,0.236-1.14,0.583-1.481,1.028
		c-0.344,0.447-0.519,0.968-0.519,1.543c0,0.606,0.167,1.119,0.494,1.531c0.323,0.402,0.764,0.726,1.312,0.959
		c0.535,0.228,1.208,0.428,2,0.597c0.582,0.123,1.053,0.241,1.4,0.348c0.332,0.104,0.605,0.255,0.813,0.45
		c0.198,0.186,0.295,0.422,0.295,0.724c0,0.38-0.185,0.692-0.565,0.952c-0.389,0.266-0.905,0.4-1.537,0.4
		c-0.458,0-0.831-0.066-1.108-0.197c-0.273-0.13-0.489-0.297-0.64-0.496c-0.156-0.205-0.303-0.467-0.438-0.777
		c-0.123-0.283-0.272-0.504-0.448-0.653c-0.184-0.154-0.409-0.233-0.672-0.233c-0.32,0-0.588,0.099-0.797,0.297
		c-0.21,0.198-0.317,0.44-0.317,0.719c0,0.449,0.164,0.914,0.487,1.38c0.321,0.464,0.744,0.838,1.257,1.115
		c0.718,0.381,1.637,0.573,2.732,0.573c0.913,0,1.716-0.141,2.385-0.42c0.676-0.281,1.198-0.677,1.551-1.177
		c0.354-0.499,0.533-1.073,0.533-1.701c0-0.526-0.104-0.979-0.31-1.345C20.019,16.319,19.729,16.015,19.363,15.777z"/>
      <path d="M16,0C7.162,0,0,7.164,0,16s7.162,16,16,16c8.837,0,16-7.164,16-16S24.837,0,16,0z M19.575,24.114
		c-0.757,0-1.469-0.19-2.093-0.526c-0.453,0.085-0.919,0.129-1.396,0.129c-4.216,0-7.632-3.416-7.632-7.633
		c0-0.523,0.053-1.037,0.154-1.533C8.223,13.894,8,13.129,8,12.312c0-2.444,1.981-4.427,4.426-4.427c0.866,0,1.673,0.25,2.354,0.681
		c0.425-0.074,0.86-0.112,1.306-0.112c4.215,0,7.631,3.417,7.631,7.63c0,0.563-0.061,1.11-0.176,1.64
		C23.835,18.315,24,18.982,24,19.688C24,22.133,22.02,24.114,19.575,24.114z"/>
    </g>
  </g></svg>