<svg id="svg-source" height="0" version="1.1" 
  xmlns="http://www.w3.org/2000/svg" style="position:absolute; margin-left: -100%" 
  xmlns:xlink="http://www.w3.org/1999/xlink"><g xmlns="http://www.w3.org/2000/svg" id="soundcloud">
    <path d="M16,0C7.162,0,0,7.164,0,16s7.162,16,16,16c8.837,0,16-7.164,16-16S24.837,0,16,0z M8.244,17.997
	C8.24,18.034,8.213,18.06,8.181,18.06c-0.034,0-0.06-0.026-0.063-0.062L8,17.123l0.117-0.888c0.004-0.037,0.029-0.063,0.063-0.063
	c0.032,0,0.06,0.025,0.063,0.062l0.14,0.889L8.244,17.997z M8.839,18.528c-0.005,0.038-0.032,0.064-0.067,0.064
	c-0.033,0-0.061-0.026-0.066-0.064l-0.156-1.405l0.156-1.438c0.006-0.036,0.033-0.064,0.066-0.064c0.035,0,0.062,0.027,0.068,0.064
	l0.178,1.438L8.839,18.528z M9.48,18.768c-0.004,0.044-0.038,0.077-0.079,0.077c-0.043,0-0.077-0.033-0.08-0.078l-0.149-1.644
	c0,0,0.149-1.703,0.149-1.705c0.003-0.045,0.037-0.078,0.08-0.078c0.041,0,0.075,0.033,0.079,0.078l0.17,1.705L9.48,18.768z
	 M10.129,18.818c-0.005,0.053-0.045,0.092-0.094,0.092c-0.05,0-0.09-0.039-0.095-0.092L9.8,17.123l0.141-1.752
	c0.005-0.053,0.045-0.092,0.095-0.092c0.049,0,0.089,0.039,0.094,0.092l0.159,1.752L10.129,18.818z M10.781,18.832
	c-0.005,0.061-0.051,0.105-0.107,0.105c-0.058,0-0.104-0.045-0.107-0.105l-0.134-1.709l0.134-1.625
	c0.003-0.06,0.05-0.105,0.107-0.105c0.057,0,0.103,0.045,0.107,0.105l0.151,1.625L10.781,18.832z M11.438,18.833L11.438,18.833
	c-0.003,0.066-0.057,0.12-0.121,0.12s-0.117-0.054-0.12-0.12l-0.125-1.708l0.125-2.645c0.003-0.067,0.056-0.119,0.12-0.119
	s0.118,0.052,0.121,0.119l0.143,2.645L11.438,18.833z M12.102,18.823L12.102,18.823c-0.004,0.073-0.062,0.132-0.135,0.132
	s-0.132-0.059-0.135-0.133l-0.117-1.697l0.117-3.249c0.003-0.074,0.062-0.132,0.135-0.132s0.131,0.058,0.135,0.132l0.132,3.249
	L12.102,18.823z M12.77,18.806L12.77,18.806c-0.004,0.082-0.068,0.146-0.148,0.146c-0.081,0-0.146-0.063-0.148-0.146l-0.109-1.681
	l0.109-3.52c0.003-0.082,0.067-0.146,0.148-0.146c0.08,0,0.145,0.064,0.148,0.146l0.123,3.52L12.77,18.806z M13.442,18.796
	L13.442,18.796c-0.003,0.089-0.073,0.159-0.162,0.159c-0.088,0-0.159-0.07-0.161-0.159l-0.102-1.671l0.102-3.638
	c0.002-0.091,0.073-0.161,0.161-0.161c0.089,0,0.159,0.07,0.162,0.161l0.114,3.638L13.442,18.796z M14.12,18.78L14.12,18.78
	c-0.002,0.097-0.079,0.175-0.175,0.175c-0.097,0-0.174-0.078-0.176-0.175l-0.093-1.655l0.093-3.545
	c0.002-0.098,0.079-0.175,0.176-0.175c0.096,0,0.173,0.077,0.175,0.175l0.104,3.545L14.12,18.78z M14.805,18.77v-0.002
	c-0.003,0.106-0.085,0.188-0.19,0.188c-0.104,0-0.187-0.082-0.188-0.187l-0.085-1.643l0.085-3.417
	c0.002-0.106,0.085-0.188,0.188-0.188c0.105,0,0.188,0.082,0.19,0.188l0.095,3.418L14.805,18.77z M15.493,18.759L15.493,18.759
	c-0.002,0.11-0.094,0.201-0.203,0.201c-0.11,0-0.201-0.091-0.203-0.201c0,0-0.077-1.631-0.077-1.634l0.077-4.064
	c0.002-0.11,0.093-0.201,0.203-0.201c0.109,0,0.201,0.091,0.203,0.201l0.085,4.066L15.493,18.759z M16.178,18.736v-0.002
	c-0.001,0.118-0.099,0.216-0.217,0.216c-0.117,0-0.215-0.098-0.217-0.214l-0.088-1.609l0.088-4.434
	c0.002-0.119,0.1-0.216,0.217-0.216c0.118,0,0.216,0.097,0.217,0.215l0.098,4.435L16.178,18.736z M22.032,18.964
	c-0.035,0-5.45-0.002-5.455-0.002c-0.118-0.013-0.212-0.113-0.214-0.233v-6.245c0.002-0.116,0.042-0.175,0.189-0.231
	c0.383-0.148,0.816-0.235,1.26-0.235c1.814,0,3.301,1.391,3.458,3.164c0.234-0.098,0.491-0.152,0.762-0.152
	c1.087,0,1.968,0.881,1.968,1.968C24,18.084,23.119,18.964,22.032,18.964z"/>
  </g></svg>