<svg id="svg-source" height="0" version="1.1" 
  xmlns="http://www.w3.org/2000/svg" style="position:absolute; margin-left: -100%" 
  xmlns:xlink="http://www.w3.org/1999/xlink"><g xmlns="http://www.w3.org/2000/svg" id="windows">
    <path d="M16,0C7.162,0,0,7.164,0,16s7.162,16,16,16c8.837,0,16-7.164,16-16S24.837,0,16,0z M15.373,10.123
	l8.022-1.171v7.04l-8.022,0.064V10.123z M8.597,21.748l0-5.049l6.043,0.04l0.005,5.841L8.597,21.748z M8.598,16.102l-0.006-5.047
	l6.05-0.824l0.003,5.836L8.598,16.102z M23.395,23.803l-8.022-1.133l-0.011-5.889l8.036,0.013L23.395,23.803z"/>
  </g></svg>