<svg id="svg-source" height="0" version="1.1" 
  xmlns="http://www.w3.org/2000/svg" style="position:absolute; margin-left: -100%" 
  xmlns:xlink="http://www.w3.org/1999/xlink"><g xmlns="http://www.w3.org/2000/svg" id="youtube">
    <g>
      <path d="M15.032,20.878c-0.064,0.081-0.137,0.145-0.225,0.194c-0.081,0.056-0.146,0.08-0.202,0.08
		c-0.065,0-0.121-0.016-0.146-0.056c-0.033-0.04-0.049-0.105-0.049-0.185v-2.807h-0.726v3.056c0,0.218,0.04,0.379,0.121,0.484
		c0.089,0.113,0.218,0.169,0.387,0.169c0.138,0,0.275-0.04,0.42-0.121c0.145-0.073,0.29-0.187,0.419-0.339v0.403h0.733v-3.653
		h-0.733V20.878z"/>
      <path d="M17.701,18.064c-0.113,0-0.226,0.032-0.339,0.088c-0.112,0.057-0.217,0.146-0.313,0.25v-1.588h-0.734v4.943
		h0.734v-0.282c0.097,0.113,0.201,0.193,0.313,0.25c0.113,0.056,0.234,0.08,0.38,0.08c0.217,0,0.387-0.072,0.499-0.209
		c0.113-0.137,0.169-0.338,0.169-0.597v-2.024c0-0.299-0.064-0.524-0.186-0.678C18.104,18.145,17.927,18.064,17.701,18.064z
		 M17.661,20.902c0,0.121-0.025,0.202-0.065,0.25c-0.04,0.057-0.104,0.082-0.201,0.082c-0.057,0-0.113-0.017-0.169-0.041
		c-0.057-0.024-0.121-0.073-0.177-0.129V18.79c0.048-0.049,0.104-0.089,0.153-0.113c0.048-0.024,0.104-0.032,0.153-0.032
		c0.097,0,0.178,0.032,0.226,0.097c0.056,0.065,0.081,0.153,0.081,0.275V20.902z"/>
      <path d="M15.887,14.023c0.113,0,0.202-0.032,0.266-0.097c0.065-0.064,0.097-0.145,0.097-0.25v-2.194
		c0-0.088-0.032-0.161-0.097-0.209c-0.072-0.057-0.161-0.081-0.266-0.081c-0.097,0-0.186,0.024-0.242,0.081
		c-0.064,0.048-0.097,0.121-0.097,0.209v2.194c0,0.104,0.033,0.193,0.089,0.25C15.693,13.992,15.782,14.023,15.887,14.023z"/>
      <polygon points="10.838,17.531 11.685,17.531 11.685,21.757 12.508,21.757 12.508,17.531 13.363,17.531 
		13.363,16.814 10.838,16.814 	"/>
      <path d="M16.001,0C7.165,0,0,7.164,0,16c0,8.836,7.165,16,16.001,16C24.837,32,32,24.836,32,16
		C32,7.164,24.837,0,16.001,0z M17.749,10.596h0.823v3.082c0,0.097,0.016,0.161,0.057,0.209c0.032,0.04,0.089,0.064,0.161,0.064
		c0.065,0,0.137-0.032,0.234-0.088c0.089-0.057,0.177-0.129,0.25-0.217v-3.049h0.823v4.017h-0.823v-0.443
		c-0.153,0.169-0.307,0.291-0.468,0.379c-0.169,0.081-0.322,0.121-0.483,0.121c-0.185,0-0.332-0.057-0.428-0.178
		c-0.097-0.121-0.146-0.298-0.146-0.541V10.596z M14.702,11.516c0-0.315,0.111-0.557,0.33-0.742
		c0.226-0.186,0.524-0.283,0.896-0.283c0.338,0,0.62,0.097,0.838,0.299c0.21,0.193,0.323,0.443,0.323,0.75v2.072
		c0,0.347-0.105,0.613-0.323,0.806c-0.209,0.202-0.508,0.298-0.878,0.298c-0.355,0-0.646-0.104-0.863-0.306
		c-0.21-0.202-0.321-0.468-0.321-0.814V11.516z M12.467,9.168l0.597,2.178h0.065l0.572-2.178h0.936l-1.073,3.186v2.258h-0.927
		v-2.153l-1.105-3.291H12.467z M24,20.548c0,1.257-1.033,2.282-2.282,2.282H10.282C9.032,22.831,8,21.806,8,20.548v-2.331
		c0-1.258,1.032-2.291,2.282-2.291h11.436c1.25,0,2.282,1.033,2.282,2.291V20.548z"/>
      <path d="M19.902,18.016c-0.331,0-0.597,0.104-0.798,0.299c-0.21,0.201-0.314,0.459-0.314,0.774v1.636
		c0,0.355,0.097,0.63,0.282,0.831c0.186,0.202,0.444,0.299,0.775,0.299c0.362,0,0.637-0.089,0.814-0.283
		c0.186-0.186,0.283-0.467,0.283-0.847V20.54h-0.759v0.169c0,0.21-0.024,0.355-0.072,0.411c-0.048,0.065-0.129,0.097-0.25,0.097
		c-0.113,0-0.202-0.032-0.25-0.113c-0.049-0.072-0.065-0.202-0.065-0.396v-0.685h1.396v-0.936c0-0.347-0.097-0.605-0.275-0.791
		C20.492,18.112,20.234,18.016,19.902,18.016z M20.185,19.451h-0.637V19.08c0-0.146,0.016-0.258,0.073-0.322
		c0.048-0.064,0.129-0.105,0.25-0.105c0.112,0,0.193,0.041,0.241,0.105s0.072,0.177,0.072,0.322V19.451z"/>
    </g>
  </g></svg>