<svg id="svg-source" height="0" version="1.1" 
  xmlns="http://www.w3.org/2000/svg" style="position:absolute; margin-left: -100%" 
  xmlns:xlink="http://www.w3.org/1999/xlink"><g xmlns="http://www.w3.org/2000/svg" id="youtube1">
    <g>
      <polygon points="13.868,19.084 19.106,16.008 13.868,12.931 	"/>
      <path d="M16,0C7.163,0,0,7.164,0,16c0,8.836,7.163,16,16,16c8.836,0,16-7.164,16-16C32,7.164,24.836,0,16,0z
		 M24,18.86c0,2.757-2.758,2.757-2.758,2.757H10.756C8,21.617,8,18.86,8,18.86V13.14c0-2.757,2.756-2.757,2.756-2.757h10.486
		C24,10.382,24,13.14,24,13.14V18.86z"/>
    </g>
  </g></svg>