<?xml version="1.0" encoding="utf-8"?>
<!DOCTYPE svg PUBLIC "-//W3C//DTD SVG 1.1//EN" "http://www.w3.org/Graphics/SVG/1.1/DTD/svg11.dtd">
<svg version="1.1" xmlns="http://www.w3.org/2000/svg" xmlns:xlink="http://www.w3.org/1999/xlink" width="32" height="32" viewBox="0 0 32 32">

	<path d="M5.333 2.667h21.333q1.656 0 2.828 1.172t1.172 2.828v13.333q0 1.656-1.172 2.828t-2.828 1.172h-3.333l-2-2.667h5.333q0.552 0 0.943-0.391t0.391-0.943v-13.333q0-0.552-0.391-0.943t-0.943-0.391h-21.333q-0.552 0-0.943 0.391t-0.391 0.943v13.333q0 0.552 0.391 0.943t0.943 0.391h5.333l-2 2.667h-3.333q-1.656 0-2.828-1.172t-1.172-2.828v-13.333q0-1.656 1.172-2.828t2.828-1.172zM18.667 26.667l-2.667-3.552-2.667 3.552h5.333zM8 29.333l8-10.667 8 10.667h-16z"></path>
</svg>
