<?xml version="1.0" encoding="utf-8"?>
<!DOCTYPE svg PUBLIC "-//W3C//DTD SVG 1.1//EN" "http://www.w3.org/Graphics/SVG/1.1/DTD/svg11.dtd">
<svg version="1.1" xmlns="http://www.w3.org/2000/svg" xmlns:xlink="http://www.w3.org/1999/xlink" width="32" height="32" viewBox="0 0 32 32">

	<path d="M4 5.333h6.667q0.76 0 1.156 0.667l10.281 18h5.896q0.552 0 0.943 0.391t0.391 0.943-0.391 0.943-0.943 0.391h-6.667q-0.76 0-1.156-0.667l-10.281-18h-5.896q-0.552 0-0.943-0.391t-0.391-0.943 0.391-0.943 0.943-0.391zM18.667 5.333h6.667q0.552 0 0.943 0.391t0.391 0.943-0.391 0.943-0.943 0.391h-6.667q-0.552 0-0.943-0.391t-0.391-0.943 0.391-0.943 0.943-0.391z"></path>
</svg>
