<?xml version="1.0" encoding="utf-8"?>
<!DOCTYPE svg PUBLIC "-//W3C//DTD SVG 1.1//EN" "http://www.w3.org/Graphics/SVG/1.1/DTD/svg11.dtd">
<svg version="1.1" xmlns="http://www.w3.org/2000/svg" xmlns:xlink="http://www.w3.org/1999/xlink" width="32" height="32" viewBox="0 0 32 32">

	<path d="M16 1.333q2.208 0 3.771 1.563t1.563 3.771q0 1.844-1.125 3.276t-2.875 1.88v16.104q2.219-0.25 4.193-1.286t3.396-2.609 2.25-3.667 0.828-4.365q0-0.552 0.391-0.943t0.943-0.391 0.943 0.391 0.391 0.943q0 2.99-1.161 5.703t-3.125 4.677-4.677 3.125-5.703 1.161-5.703-1.161-4.677-3.125-3.125-4.677-1.161-5.703q0-0.552 0.391-0.943t0.943-0.391 0.943 0.391 0.391 0.943q0 2.271 0.828 4.365t2.25 3.667 3.396 2.609 4.193 1.286v-16.104q-1.75-0.448-2.875-1.88t-1.125-3.276q0-2.208 1.563-3.771t3.771-1.563zM16 4q-1.104 0-1.885 0.781t-0.781 1.885 0.781 1.885 1.885 0.781 1.885-0.781 0.781-1.885-0.781-1.885-1.885-0.781z"></path>
</svg>
