<?xml version="1.0" encoding="utf-8"?>
<!DOCTYPE svg PUBLIC "-//W3C//DTD SVG 1.1//EN" "http://www.w3.org/Graphics/SVG/1.1/DTD/svg11.dtd">
<svg version="1.1" xmlns="http://www.w3.org/2000/svg" xmlns:xlink="http://www.w3.org/1999/xlink" width="32" height="32" viewBox="0 0 32 32">

	<path d="M16 2.667q0.552 0 0.943 0.391t0.391 0.943v20.781l7.052-7.063q0.385-0.385 0.948-0.385 0.573 0 0.953 0.38t0.38 0.953q0 0.563-0.385 0.948l-9.333 9.333q-0.385 0.385-0.948 0.385t-0.948-0.385l-9.333-9.333q-0.385-0.385-0.385-0.948 0-0.573 0.38-0.953t0.953-0.38q0.563 0 0.948 0.385l7.052 7.063v-20.781q0-0.552 0.391-0.943t0.943-0.391z"></path>
</svg>
