<?xml version="1.0" encoding="utf-8"?>
<!DOCTYPE svg PUBLIC "-//W3C//DTD SVG 1.1//EN" "http://www.w3.org/Graphics/SVG/1.1/DTD/svg11.dtd">
<svg version="1.1" xmlns="http://www.w3.org/2000/svg" xmlns:xlink="http://www.w3.org/1999/xlink" width="32" height="32" viewBox="0 0 32 32">

	<path d="M16 0q1.354 0 2.589 0.531t2.125 1.422 1.422 2.125 0.531 2.589v1.333h5.333v20q0 1.656-1.172 2.828t-2.828 1.172h-16q-1.656 0-2.828-1.172t-1.172-2.828v-20h5.333v-1.333q0-1.354 0.531-2.589t1.422-2.125 2.125-1.422 2.589-0.531zM25.333 28v-17.333h-18.667v17.333q0 0.552 0.391 0.943t0.943 0.391h16q0.552 0 0.943-0.391t0.391-0.943zM16 2.667q-1.656 0-2.828 1.172t-1.172 2.828v1.333h8v-1.333q0-1.656-1.172-2.828t-2.828-1.172z"></path>
</svg>
