<?xml version="1.0" encoding="utf-8"?>
<!DOCTYPE svg PUBLIC "-//W3C//DTD SVG 1.1//EN" "http://www.w3.org/Graphics/SVG/1.1/DTD/svg11.dtd">
<svg version="1.1" xmlns="http://www.w3.org/2000/svg" xmlns:xlink="http://www.w3.org/1999/xlink" width="32" height="32" viewBox="0 0 32 32">

	<path d="M13.333 2.667h5.333q1.656 0 2.828 1.172t1.172 2.828v1.333h4q1.656 0 2.828 1.172t1.172 2.828v13.333q0 1.656-1.172 2.828t-2.828 1.172h-21.333q-1.656 0-2.828-1.172t-1.172-2.828v-13.333q0-1.656 1.172-2.828t2.828-1.172h4v-1.333q0-1.656 1.172-2.828t2.828-1.172zM6.667 26.667v-16h-1.333q-0.552 0-0.943 0.391t-0.391 0.943v13.333q0 0.552 0.391 0.943t0.943 0.391h1.333zM22.667 26.667v-16h-13.333v16h13.333zM26.667 10.667h-1.333v16h1.333q0.552 0 0.943-0.391t0.391-0.943v-13.333q0-0.552-0.391-0.943t-0.943-0.391zM18.667 5.333h-5.333q-0.552 0-0.943 0.391t-0.391 0.943v1.333h8v-1.333q0-0.552-0.391-0.943t-0.943-0.391z"></path>
</svg>
