<?xml version="1.0" encoding="utf-8"?>
<!DOCTYPE svg PUBLIC "-//W3C//DTD SVG 1.1//EN" "http://www.w3.org/Graphics/SVG/1.1/DTD/svg11.dtd">
<svg version="1.1" xmlns="http://www.w3.org/2000/svg" xmlns:xlink="http://www.w3.org/1999/xlink" width="32" height="32" viewBox="0 0 32 32">

	<path d="M20 4q2.438 0 4.661 0.953t3.828 2.557 2.557 3.828 0.953 4.661-0.953 4.661-2.557 3.828-3.828 2.557-4.661 0.953h-12q-2.177 0-4.016-1.073t-2.911-2.911-1.073-4.016 1.073-4.016 2.911-2.911 4.016-1.073h0.688q0.823-2.323 2.479-4.13t3.964-2.839 4.87-1.031zM20 6.667q-1.729 0-3.328 0.62t-2.813 1.682-2.031 2.542-1.057 3.156h-2.771q-2.208 0-3.771 1.563t-1.563 3.771 1.563 3.771 3.771 1.563h12q1.896 0 3.625-0.74t2.979-1.99 1.99-2.979 0.74-3.625-0.74-3.625-1.99-2.979-2.979-1.99-3.625-0.74z"></path>
</svg>
