<?xml version="1.0" encoding="utf-8"?>
<!DOCTYPE svg PUBLIC "-//W3C//DTD SVG 1.1//EN" "http://www.w3.org/Graphics/SVG/1.1/DTD/svg11.dtd">
<svg version="1.1" xmlns="http://www.w3.org/2000/svg" xmlns:xlink="http://www.w3.org/1999/xlink" width="32" height="32" viewBox="0 0 32 32">

	<path d="M24 2.667q2.208 0 3.771 1.563t1.563 3.771-1.563 3.771-3.771 1.563h-2.667v5.333h2.667q2.208 0 3.771 1.563t1.563 3.771-1.563 3.771-3.771 1.563-3.771-1.563-1.563-3.771v-2.667h-5.333v2.667q0 2.208-1.563 3.771t-3.771 1.563-3.771-1.563-1.563-3.771 1.563-3.771 3.771-1.563h2.667v-5.333h-2.667q-2.208 0-3.771-1.563t-1.563-3.771 1.563-3.771 3.771-1.563 3.771 1.563 1.563 3.771v2.667h5.333v-2.667q0-2.208 1.563-3.771t3.771-1.563zM10.667 24v-2.667h-2.667q-1.104 0-1.885 0.781t-0.781 1.885 0.781 1.885 1.885 0.781 1.885-0.781 0.781-1.885zM8 5.333q-1.104 0-1.885 0.781t-0.781 1.885 0.781 1.885 1.885 0.781h2.667v-2.667q0-1.104-0.781-1.885t-1.885-0.781zM18.667 18.667v-5.333h-5.333v5.333h5.333zM24 21.333h-2.667v2.667q0 1.104 0.781 1.885t1.885 0.781 1.885-0.781 0.781-1.885-0.781-1.885-1.885-0.781zM24 5.333q-1.104 0-1.885 0.781t-0.781 1.885v2.667h2.667q1.104 0 1.885-0.781t0.781-1.885-0.781-1.885-1.885-0.781z"></path>
</svg>
