<?xml version="1.0" encoding="utf-8"?>
<!DOCTYPE svg PUBLIC "-//W3C//DTD SVG 1.1//EN" "http://www.w3.org/Graphics/SVG/1.1/DTD/svg11.dtd">
<svg version="1.1" xmlns="http://www.w3.org/2000/svg" xmlns:xlink="http://www.w3.org/1999/xlink" width="32" height="32" viewBox="0 0 32 32">

	<path d="M10.667 4h17.333q1.656 0 2.828 1.172t1.172 2.828v16q0 1.656-1.172 2.828t-2.828 1.172h-17.333l-10.667-12zM28 6.667h-16.135l-8.292 9.333 8.292 9.333h16.135q0.552 0 0.943-0.391t0.391-0.943v-16q0-0.552-0.391-0.943t-0.943-0.391zM25.333 12q0 0.563-0.385 0.948l-3.063 3.052 3.063 3.052q0.385 0.385 0.385 0.948 0 0.573-0.38 0.953t-0.953 0.38q-0.563 0-0.948-0.385l-3.052-3.063-3.052 3.063q-0.385 0.385-0.948 0.385-0.552 0-0.943-0.391t-0.391-0.943q0-0.542 0.385-0.948l3.062-3.052-3.063-3.052q-0.385-0.406-0.385-0.948 0-0.552 0.391-0.943t0.943-0.391q0.563 0 0.948 0.385l3.052 3.063 3.052-3.063q0.385-0.385 0.948-0.385 0.573 0 0.953 0.38t0.38 0.953z"></path>
</svg>
