<?xml version="1.0" encoding="utf-8"?>
<!DOCTYPE svg PUBLIC "-//W3C//DTD SVG 1.1//EN" "http://www.w3.org/Graphics/SVG/1.1/DTD/svg11.dtd">
<svg version="1.1" xmlns="http://www.w3.org/2000/svg" xmlns:xlink="http://www.w3.org/1999/xlink" width="32" height="32" viewBox="0 0 32 32">

	<path d="M16 1.333q2.99 0 5.703 1.161t4.677 3.125 3.125 4.677 1.161 5.703-1.161 5.703-3.125 4.677-4.677 3.125-5.703 1.161-5.703-1.161-4.677-3.125-3.125-4.677-1.161-5.703 1.161-5.703 3.125-4.677 4.677-3.125 5.703-1.161zM16 4q-2.438 0-4.661 0.953t-3.828 2.557-2.557 3.828-0.953 4.661 0.953 4.661 2.557 3.828 3.828 2.557 4.661 0.953 4.661-0.953 3.828-2.557 2.557-3.828 0.953-4.661-0.953-4.661-2.557-3.828-3.828-2.557-4.661-0.953zM16 10.667q2.208 0 3.771 1.563t1.563 3.771-1.563 3.771-3.771 1.563-3.771-1.563-1.563-3.771 1.563-3.771 3.771-1.563zM16 13.333q-1.104 0-1.885 0.781t-0.781 1.885 0.781 1.885 1.885 0.781 1.885-0.781 0.781-1.885-0.781-1.885-1.885-0.781z"></path>
</svg>
