<?xml version="1.0" encoding="utf-8"?>
<!DOCTYPE svg PUBLIC "-//W3C//DTD SVG 1.1//EN" "http://www.w3.org/Graphics/SVG/1.1/DTD/svg11.dtd">
<svg version="1.1" xmlns="http://www.w3.org/2000/svg" xmlns:xlink="http://www.w3.org/1999/xlink" width="32" height="32" viewBox="0 0 32 32">

	<path d="M20 5.333h5.333q1.656 0 2.828 1.172t1.172 2.828v18.667q0 1.656-1.172 2.828t-2.828 1.172h-18.667q-1.656 0-2.828-1.172t-1.172-2.828v-18.667q0-1.656 1.172-2.828t2.828-1.172h5.333v2.667h-5.333q-0.552 0-0.943 0.391t-0.391 0.943v18.667q0 0.552 0.391 0.943t0.943 0.391h18.667q0.552 0 0.943-0.391t0.391-0.943v-18.667q0-0.552-0.391-0.943t-0.943-0.391h-5.333v-2.667zM16 0q0.552 0 0.943 0.391t0.391 0.943v16.781l3.052-3.063q0.385-0.385 0.948-0.385 0.573 0 0.953 0.38t0.38 0.953q0 0.563-0.385 0.948l-5.333 5.333q-0.385 0.385-0.948 0.385t-0.948-0.385l-5.333-5.333q-0.385-0.406-0.385-0.948 0-0.552 0.391-0.943t0.943-0.391q0.563 0 0.948 0.385l3.052 3.062v-16.781q0-0.552 0.391-0.943t0.943-0.391z"></path>
</svg>
