<?xml version="1.0" encoding="utf-8"?>
<!DOCTYPE svg PUBLIC "-//W3C//DTD SVG 1.1//EN" "http://www.w3.org/Graphics/SVG/1.1/DTD/svg11.dtd">
<svg version="1.1" xmlns="http://www.w3.org/2000/svg" xmlns:xlink="http://www.w3.org/1999/xlink" width="32" height="32" viewBox="0 0 32 32">

	<path d="M14.667 5.333q0.552 0 0.938 0.385l9.333 9.333q0.396 0.396 0.396 0.948t-0.396 0.948l-9.333 9.333q-0.385 0.385-0.938 0.385t-0.943-0.391-0.391-0.943q0-0.563 0.385-0.948l8.385-8.385-8.385-8.385q-0.385-0.385-0.385-0.948 0-0.573 0.38-0.953t0.953-0.38zM6.667 5.333q0.552 0 0.938 0.385l9.333 9.333q0.396 0.396 0.396 0.948t-0.396 0.948l-9.333 9.333q-0.385 0.385-0.938 0.385t-0.943-0.391-0.391-0.943q0-0.563 0.385-0.948l8.385-8.385-8.385-8.385q-0.385-0.385-0.385-0.948 0-0.573 0.38-0.953t0.953-0.38z"></path>
</svg>
