<?xml version="1.0" encoding="utf-8"?>
<!DOCTYPE svg PUBLIC "-//W3C//DTD SVG 1.1//EN" "http://www.w3.org/Graphics/SVG/1.1/DTD/svg11.dtd">
<svg version="1.1" xmlns="http://www.w3.org/2000/svg" xmlns:xlink="http://www.w3.org/1999/xlink" width="32" height="32" viewBox="0 0 32 32">

	<path d="M6.667 0h13.333l9.333 9.333v18.667q0 1.656-1.172 2.828t-2.828 1.172h-18.667q-1.656 0-2.828-1.172t-1.172-2.828v-24q0-1.656 1.172-2.828t2.828-1.172zM16 14.667q0.552 0 0.943 0.391t0.391 0.943v2.667h2.667q0.552 0 0.943 0.391t0.391 0.943-0.391 0.943-0.943 0.391h-2.667v2.667q0 0.552-0.391 0.943t-0.943 0.391-0.943-0.391-0.391-0.943v-2.667h-2.667q-0.552 0-0.943-0.391t-0.391-0.943 0.391-0.943 0.943-0.391h2.667v-2.667q0-0.552 0.391-0.943t0.943-0.391zM17.333 12v-9.333h-10.667q-0.563 0-0.948 0.385t-0.385 0.948v24q0 0.563 0.385 0.948t0.948 0.385h18.667q0.563 0 0.948-0.385t0.385-0.948v-16h-9.333zM25.563 9.333l-5.563-5.563v5.563h5.563z"></path>
</svg>
