<?xml version="1.0" encoding="utf-8"?>
<!DOCTYPE svg PUBLIC "-//W3C//DTD SVG 1.1//EN" "http://www.w3.org/Graphics/SVG/1.1/DTD/svg11.dtd">
<svg version="1.1" xmlns="http://www.w3.org/2000/svg" xmlns:xlink="http://www.w3.org/1999/xlink" width="32" height="32" viewBox="0 0 32 32">

	<path d="M9.333 1.333q1.104 0 2.375 0.276t2.448 0.667l2.354 0.781t2.448 0.667 2.375 0.276q1.125 0 2.219-0.135t1.865-0.333 1.38-0.396 0.911-0.333l0.292-0.135v18.667q-0.104 0.052-0.313 0.141t-0.88 0.323-1.401 0.406-1.839 0.318-2.234 0.146q-1.104 0-2.375-0.276t-2.448-0.667l-2.354-0.781t-2.448-0.667-2.375-0.276q-1.99 0-4 0.448v8.885q0 0.552-0.391 0.943t-0.943 0.391-0.943-0.391-0.391-0.943v-26.667q0.104-0.052 0.313-0.141t0.88-0.323 1.401-0.406 1.839-0.318 2.234-0.146zM9.333 4q-2.042 0-4 0.531v13.198q2-0.396 4-0.396 1.479 0 2.958 0.339t3.365 0.964q0.24 0.083 0.901 0.307t0.969 0.323 0.901 0.271 0.995 0.25 0.922 0.146 0.99 0.068q2.042 0 4-0.531v-13.198q-2 0.396-4 0.396-1.479 0-2.958-0.339t-3.365-0.964q-0.24-0.083-0.901-0.307t-0.969-0.323-0.901-0.271-0.995-0.25-0.922-0.146-0.99-0.068z"></path>
</svg>
