<?xml version="1.0" encoding="utf-8"?>
<!DOCTYPE svg PUBLIC "-//W3C//DTD SVG 1.1//EN" "http://www.w3.org/Graphics/SVG/1.1/DTD/svg11.dtd">
<svg version="1.1" xmlns="http://www.w3.org/2000/svg" xmlns:xlink="http://www.w3.org/1999/xlink" width="32" height="32" viewBox="0 0 32 32">

	<path d="M23.542 2.667q2.177 0 4.016 1.073t2.911 2.911 1.073 4.016q0 1.563-0.599 3.036t-1.745 2.62l-13.198 13.198-13.198-13.198q-1.146-1.146-1.745-2.62t-0.599-3.036q0-2.177 1.073-4.016t2.911-2.911 4.016-1.073q1.573 0 3.036 0.594t2.62 1.75l1.885 1.885 1.885-1.885q1.146-1.146 2.62-1.745t3.036-0.599zM23.542 5.333q-1.042 0-2.021 0.396t-1.75 1.167l-3.771 3.771-3.771-3.771q-0.771-0.771-1.75-1.167t-2.021-0.396q-1.458 0-2.682 0.714t-1.938 1.938-0.714 2.682q0 1.042 0.396 2.021t1.167 1.75l11.313 11.313 11.312-11.313q0.771-0.771 1.167-1.75t0.396-2.021q0-1.458-0.714-2.682t-1.938-1.938-2.682-0.714z"></path>
</svg>
