<?xml version="1.0" encoding="utf-8"?>
<!DOCTYPE svg PUBLIC "-//W3C//DTD SVG 1.1//EN" "http://www.w3.org/Graphics/SVG/1.1/DTD/svg11.dtd">
<svg version="1.1" xmlns="http://www.w3.org/2000/svg" xmlns:xlink="http://www.w3.org/1999/xlink" width="32" height="32" viewBox="0 0 32 32">

	<path d="M16 1.333q2.875 0 5.573 1.094t4.802 3.198 3.198 4.802 1.094 5.573-1.094 5.573-3.198 4.802-4.802 3.198-5.573 1.094-5.573-1.094-4.802-3.198-3.198-4.802-1.094-5.573 1.094-5.573 3.198-4.802 4.802-3.198 5.573-1.094zM10.438 12.323l-3.813-3.813q-1.292 1.615-1.958 3.542t-0.667 3.948 0.667 3.948 1.958 3.542l3.813-3.813q-1.104-1.667-1.104-3.677t1.104-3.677zM23.49 25.375l-3.813-3.813q-1.667 1.104-3.677 1.104t-3.677-1.104l-3.813 3.813q1.615 1.292 3.542 1.958t3.948 0.667 3.948-0.667 3.542-1.958zM16 12q-1.656 0-2.828 1.172t-1.172 2.828 1.172 2.828 2.828 1.172 2.828-1.172 1.172-2.828-1.172-2.828-2.828-1.172zM16 4q-2.021 0-3.948 0.667t-3.542 1.958l3.813 3.813q1.667-1.104 3.677-1.104t3.677 1.104l3.813-3.813q-1.615-1.292-3.542-1.958t-3.948-0.667zM25.375 8.51l-3.813 3.813q1.104 1.667 1.104 3.677t-1.104 3.677l3.813 3.813q1.292-1.615 1.958-3.542t0.667-3.948-0.667-3.948-1.958-3.542z"></path>
</svg>
