<?xml version="1.0" encoding="utf-8"?>
<!DOCTYPE svg PUBLIC "-//W3C//DTD SVG 1.1//EN" "http://www.w3.org/Graphics/SVG/1.1/DTD/svg11.dtd">
<svg version="1.1" xmlns="http://www.w3.org/2000/svg" xmlns:xlink="http://www.w3.org/1999/xlink" width="32" height="32" viewBox="0 0 32 32">

	<path d="M16 1.333q2.99 0 5.703 1.161t4.677 3.125 3.125 4.677 1.161 5.703-1.161 5.703-3.125 4.677-4.677 3.125-5.703 1.161-5.703-1.161-4.677-3.125-3.125-4.677-1.161-5.703 1.161-5.703 3.125-4.677 4.677-3.125 5.703-1.161zM17.333 4.073v3.927q0 0.552-0.391 0.943t-0.943 0.391-0.943-0.391-0.391-0.943v-3.927q-2.063 0.229-3.911 1.135t-3.245 2.302-2.302 3.245-1.135 3.911h3.927q0.552 0 0.943 0.391t0.391 0.943-0.391 0.943-0.943 0.391h-3.927q0.229 2.063 1.135 3.911t2.302 3.245 3.245 2.302 3.911 1.135v-3.927q0-0.552 0.391-0.943t0.943-0.391 0.943 0.391 0.391 0.943v3.927q2.063-0.229 3.911-1.135t3.245-2.302 2.302-3.245 1.135-3.911h-3.927q-0.552 0-0.943-0.391t-0.391-0.943 0.391-0.943 0.943-0.391h3.927q-0.229-2.063-1.135-3.911t-2.302-3.245-3.245-2.302-3.911-1.135z"></path>
</svg>
