<?xml version="1.0" encoding="utf-8"?>
<!DOCTYPE svg PUBLIC "-//W3C//DTD SVG 1.1//EN" "http://www.w3.org/Graphics/SVG/1.1/DTD/svg11.dtd">
<svg version="1.1" xmlns="http://www.w3.org/2000/svg" xmlns:xlink="http://www.w3.org/1999/xlink" width="32" height="32" viewBox="0 0 32 32">

	<path d="M25.333 12q0.552 0 0.943 0.391t0.391 0.943v2.667q0 2-0.724 3.849t-1.969 3.24-2.969 2.323-3.672 1.172v2.75h4q0.552 0 0.943 0.391t0.391 0.943-0.391 0.943-0.943 0.391h-10.667q-0.552 0-0.943-0.391t-0.391-0.943 0.391-0.943 0.943-0.391h4v-2.75q-1.948-0.24-3.672-1.172t-2.969-2.323-1.969-3.24-0.724-3.849v-2.667q0-0.552 0.391-0.943t0.943-0.391 0.943 0.391 0.391 0.943v2.667q0 2.177 1.073 4.016t2.911 2.911 4.016 1.073 4.016-1.073 2.911-2.911 1.073-4.016v-2.667q0-0.552 0.391-0.943t0.943-0.391zM16 0q2.208 0 3.771 1.563t1.563 3.771v10.667q0 2.208-1.563 3.771t-3.771 1.563-3.771-1.563-1.563-3.771v-10.667q0-2.208 1.563-3.771t3.771-1.563zM16 2.667q-1.104 0-1.885 0.781t-0.781 1.885v10.667q0 1.104 0.781 1.885t1.885 0.781 1.885-0.781 0.781-1.885v-10.667q0-1.104-0.781-1.885t-1.885-0.781z"></path>
</svg>
