<?xml version="1.0" encoding="utf-8"?>
<!DOCTYPE svg PUBLIC "-//W3C//DTD SVG 1.1//EN" "http://www.w3.org/Graphics/SVG/1.1/DTD/svg11.dtd">
<svg version="1.1" xmlns="http://www.w3.org/2000/svg" xmlns:xlink="http://www.w3.org/1999/xlink" width="32" height="32" viewBox="0 0 32 32">

	<path d="M2.667 1.333q0.563 0 0.948 0.385l8.385 8.385v-6.115q0-0.552 0.391-0.943t0.943-0.391 0.943 0.391 0.391 0.943v9.333q0 0.552-0.396 0.948t-0.948 0.396h-9.333q-0.552 0-0.943-0.391t-0.391-0.943 0.391-0.943 0.943-0.391h6.115l-8.385-8.385q-0.385-0.385-0.385-0.948 0-0.573 0.38-0.953t0.953-0.38zM18.677 17.333h9.333q0.552 0 0.943 0.391t0.391 0.943-0.391 0.943-0.943 0.391h-6.115l8.375 8.385q0.396 0.396 0.396 0.948t-0.391 0.943-0.943 0.391q-0.563 0-0.948-0.385l-8.385-8.385v6.115q0 0.552-0.391 0.943t-0.943 0.391-0.943-0.391-0.391-0.943v-9.333q0-0.552 0.396-0.948t0.948-0.396z"></path>
</svg>
