<?xml version="1.0" encoding="utf-8"?>
<!DOCTYPE svg PUBLIC "-//W3C//DTD SVG 1.1//EN" "http://www.w3.org/Graphics/SVG/1.1/DTD/svg11.dtd">
<svg version="1.1" xmlns="http://www.w3.org/2000/svg" xmlns:xlink="http://www.w3.org/1999/xlink" width="32" height="32" viewBox="0 0 32 32">

	<path d="M16 2.667q0.448 0 0.885 0.031-0.885 1.906-0.885 3.969 0 1.896 0.74 3.625t1.99 2.979 2.979 1.99 3.625 0.74q2.063 0 3.969-0.885 0.031 0.438 0.031 0.885 0 1.813-0.479 3.542t-1.339 3.193-2.089 2.693-2.693 2.089-3.193 1.339-3.542 0.479-3.542-0.479-3.193-1.339-2.693-2.089-2.089-2.693-1.339-3.193-0.479-3.542 0.479-3.542 1.339-3.193 2.089-2.693 2.693-2.089 3.193-1.339 3.542-0.479zM13.375 5.656q-1.719 0.438-3.203 1.417t-2.552 2.323-1.677 3.057-0.609 3.547q0 2.167 0.844 4.141t2.276 3.406 3.406 2.276 4.141 0.844q1.833 0 3.547-0.609t3.057-1.677 2.323-2.552 1.417-3.203q-0.448 0.042-1.010 0.042-2.438 0-4.656-0.953t-3.828-2.563-2.563-3.828-0.953-4.656q0-0.563 0.042-1.010z"></path>
</svg>
