<?xml version="1.0" encoding="utf-8"?>
<!DOCTYPE svg PUBLIC "-//W3C//DTD SVG 1.1//EN" "http://www.w3.org/Graphics/SVG/1.1/DTD/svg11.dtd">
<svg version="1.1" xmlns="http://www.w3.org/2000/svg" xmlns:xlink="http://www.w3.org/1999/xlink" width="32" height="32" viewBox="0 0 32 32">

	<path d="M16 0q0.563 0 0.948 0.385l4.708 4.719q0.396 0.396 0.396 0.948t-0.391 0.943-0.943 0.391-0.948-0.396l-2.438-2.438v10.115h10.115l-2.438-2.438q-0.396-0.396-0.396-0.948t0.391-0.943 0.943-0.391 0.948 0.396l4.719 4.708q0.385 0.385 0.385 0.948t-0.385 0.938l-4.719 4.719q-0.396 0.396-0.948 0.396t-0.943-0.391-0.391-0.943 0.396-0.948l2.438-2.438h-10.115v10.115l2.438-2.438q0.396-0.396 0.948-0.396t0.943 0.391 0.391 0.943-0.396 0.948l-4.708 4.719q-0.385 0.385-0.948 0.385-0.552 0-0.938-0.385l-4.719-4.719q-0.396-0.396-0.396-0.948t0.391-0.943 0.943-0.391 0.948 0.396l2.438 2.438v-10.115h-10.115l2.438 2.438q0.396 0.396 0.396 0.948t-0.391 0.943-0.943 0.391-0.948-0.396l-4.719-4.708q-0.385-0.385-0.385-0.948t0.385-0.948l4.719-4.708q0.396-0.396 0.948-0.396t0.943 0.391 0.391 0.943-0.396 0.948l-2.438 2.438h10.115v-10.115l-2.438 2.438q-0.396 0.396-0.948 0.396t-0.943-0.391-0.391-0.943 0.396-0.948l4.708-4.719q0.385-0.385 0.948-0.385z"></path>
</svg>
