<?xml version="1.0" encoding="utf-8"?>
<!DOCTYPE svg PUBLIC "-//W3C//DTD SVG 1.1//EN" "http://www.w3.org/Graphics/SVG/1.1/DTD/svg11.dtd">
<svg version="1.1" xmlns="http://www.w3.org/2000/svg" xmlns:xlink="http://www.w3.org/1999/xlink" width="32" height="32" viewBox="0 0 32 32">

	<path d="M8 10.667l6.667-6.667v24l-6.667-6.667h-2.667q-1.656 0-2.828-1.172t-1.172-2.828v-2.615q0-1.656 1.172-2.854t2.828-1.198h2.667zM12 21.563v-11.177l-2.896 2.948h-3.771q-0.542 0-0.938 0.411t-0.396 0.974v2.615q0 0.552 0.391 0.943t0.943 0.391h3.771zM28 10.667q0.573 0 0.953 0.38t0.38 0.953q0 0.563-0.385 0.948l-3.063 3.052 3.063 3.052q0.385 0.385 0.385 0.948 0 0.573-0.38 0.953t-0.953 0.38q-0.563 0-0.948-0.385l-3.052-3.063-3.052 3.063q-0.385 0.385-0.948 0.385-0.573 0-0.953-0.38t-0.38-0.953q0-0.563 0.385-0.948l3.063-3.052-3.063-3.052q-0.385-0.385-0.385-0.948 0-0.573 0.38-0.953t0.953-0.38q0.563 0 0.948 0.385l3.052 3.063 3.052-3.063q0.385-0.385 0.948-0.385z"></path>
</svg>
