<?xml version="1.0" encoding="utf-8"?>
<!DOCTYPE svg PUBLIC "-//W3C//DTD SVG 1.1//EN" "http://www.w3.org/Graphics/SVG/1.1/DTD/svg11.dtd">
<svg version="1.1" xmlns="http://www.w3.org/2000/svg" xmlns:xlink="http://www.w3.org/1999/xlink" width="32" height="32" viewBox="0 0 32 32">

	<path d="M6.667 0h18.667q1.656 0 2.828 1.172t1.172 2.828v24q0 1.656-1.172 2.828t-2.828 1.172h-18.667q-1.656 0-2.828-1.172t-1.172-2.828v-24q0-1.656 1.172-2.828t2.828-1.172zM10.667 22.667h10.667q0.552 0 0.943 0.391t0.391 0.943-0.391 0.943-0.943 0.391h-10.667q-0.552 0-0.943-0.391t-0.391-0.943 0.391-0.943 0.943-0.391zM10.667 17.333h10.667q0.552 0 0.943 0.391t0.391 0.943-0.391 0.943-0.943 0.391h-10.667q-0.552 0-0.943-0.391t-0.391-0.943 0.391-0.943 0.943-0.391zM25.333 2.667h-18.667q-0.552 0-0.943 0.391t-0.391 0.943v24q0 0.552 0.391 0.943t0.943 0.391h18.667q0.552 0 0.943-0.391t0.391-0.943v-24q0-0.552-0.391-0.943t-0.943-0.391zM10.667 12h10.667q0.552 0 0.943 0.391t0.391 0.943-0.391 0.943-0.943 0.391h-10.667q-0.552 0-0.943-0.391t-0.391-0.943 0.391-0.943 0.943-0.391zM10.667 6.667h5.333q0.552 0 0.943 0.391t0.391 0.943-0.391 0.943-0.943 0.391h-5.333q-0.552 0-0.943-0.391t-0.391-0.943 0.391-0.943 0.943-0.391z"></path>
</svg>
