<?xml version="1.0" encoding="utf-8"?>
<!DOCTYPE svg PUBLIC "-//W3C//DTD SVG 1.1//EN" "http://www.w3.org/Graphics/SVG/1.1/DTD/svg11.dtd">
<svg version="1.1" xmlns="http://www.w3.org/2000/svg" xmlns:xlink="http://www.w3.org/1999/xlink" width="32" height="32" viewBox="0 0 32 32">

	<path d="M13.333 1.333h12q0.552 0 0.943 0.391t0.391 0.943v26.667q0 0.552-0.391 0.943t-0.943 0.391-0.943-0.391-0.391-0.943v-25.333h-2.667v25.333q0 0.552-0.391 0.943t-0.943 0.391-0.943-0.391-0.391-0.943v-12h-5.333q-2.177 0-4.016-1.073t-2.911-2.911-1.073-4.016 1.073-4.016 2.911-2.911 4.016-1.073zM18.667 14.667v-10.667h-5.333q-2.208 0-3.771 1.563t-1.563 3.771 1.563 3.771 3.771 1.563h5.333z"></path>
</svg>
