<?xml version="1.0" encoding="utf-8"?>
<!DOCTYPE svg PUBLIC "-//W3C//DTD SVG 1.1//EN" "http://www.w3.org/Graphics/SVG/1.1/DTD/svg11.dtd">
<svg version="1.1" xmlns="http://www.w3.org/2000/svg" xmlns:xlink="http://www.w3.org/1999/xlink" width="32" height="32" viewBox="0 0 32 32">

	<path d="M21.333 4q1.656 0 2.828 1.172t1.172 2.828v16q0 1.656-1.172 2.828t-2.828 1.172-2.828-1.172-1.172-2.828v-16q0-1.656 1.172-2.828t2.828-1.172zM10.667 4q1.656 0 2.828 1.172t1.172 2.828v16q0 1.656-1.172 2.828t-2.828 1.172-2.828-1.172-1.172-2.828v-16q0-1.656 1.172-2.828t2.828-1.172zM10.667 6.667q-0.552 0-0.943 0.391t-0.391 0.943v16q0 0.552 0.391 0.943t0.943 0.391 0.943-0.391 0.391-0.943v-16q0-0.552-0.391-0.943t-0.943-0.391zM21.333 6.667q-0.552 0-0.943 0.391t-0.391 0.943v16q0 0.552 0.391 0.943t0.943 0.391 0.943-0.391 0.391-0.943v-16q0-0.552-0.391-0.943t-0.943-0.391z"></path>
</svg>
