<?xml version="1.0" encoding="utf-8"?>
<!DOCTYPE svg PUBLIC "-//W3C//DTD SVG 1.1//EN" "http://www.w3.org/Graphics/SVG/1.1/DTD/svg11.dtd">
<svg version="1.1" xmlns="http://www.w3.org/2000/svg" xmlns:xlink="http://www.w3.org/1999/xlink" width="32" height="32" viewBox="0 0 32 32">

	<path d="M16 1.333q2.99 0 5.703 1.161t4.677 3.125 3.125 4.677 1.161 5.703-1.161 5.703-3.125 4.677-4.677 3.125-5.703 1.161-5.703-1.161-4.677-3.125-3.125-4.677-1.161-5.703 1.161-5.703 3.125-4.677 4.677-3.125 5.703-1.161zM14.667 17.333v-13.26q-2.219 0.25-4.193 1.286t-3.396 2.609-2.25 3.667-0.828 4.365q0 2.438 0.953 4.661t2.557 3.828 3.828 2.557 4.661 0.953q2.271 0 4.365-0.828t3.667-2.25 2.609-3.396 1.286-4.193h-13.26zM17.333 4.073v10.594h10.594q-0.229-2.063-1.135-3.911t-2.302-3.245-3.245-2.302-3.911-1.135z"></path>
</svg>
