<?xml version="1.0" encoding="utf-8"?>
<!DOCTYPE svg PUBLIC "-//W3C//DTD SVG 1.1//EN" "http://www.w3.org/Graphics/SVG/1.1/DTD/svg11.dtd">
<svg version="1.1" xmlns="http://www.w3.org/2000/svg" xmlns:xlink="http://www.w3.org/1999/xlink" width="32" height="32" viewBox="0 0 32 32">

	<path d="M25.427 7.906q1.844 1.844 2.854 4.24 1.052 2.479 1.052 5.188t-1.052 5.188q-1.010 2.396-2.854 4.24t-4.24 2.854q-2.479 1.052-5.188 1.052t-5.188-1.052q-2.396-1.010-4.24-2.854t-2.854-4.24q-1.052-2.479-1.052-5.188t1.052-5.188q1.010-2.396 2.854-4.24 0.385-0.385 0.938-0.385t0.948 0.385 0.396 0.937-0.396 0.948q-1.469 1.469-2.292 3.385-0.833 2-0.833 4.156t0.833 4.156q0.823 1.917 2.292 3.385t3.385 2.292q2 0.833 4.156 0.833t4.156-0.833q1.917-0.823 3.385-2.292t2.292-3.385q0.833-2 0.833-4.156t-0.833-4.156q-0.823-1.917-2.292-3.385-0.396-0.396-0.396-0.948t0.396-0.938 0.948-0.385 0.938 0.385zM16 1.333q0.552 0 0.943 0.391t0.391 0.943v13.333q0 0.552-0.391 0.943t-0.943 0.391-0.943-0.391-0.391-0.943v-13.333q0-0.552 0.391-0.943t0.943-0.391z"></path>
</svg>
