<?xml version="1.0" encoding="utf-8"?>
<!DOCTYPE svg PUBLIC "-//W3C//DTD SVG 1.1//EN" "http://www.w3.org/Graphics/SVG/1.1/DTD/svg11.dtd">
<svg version="1.1" xmlns="http://www.w3.org/2000/svg" xmlns:xlink="http://www.w3.org/1999/xlink" width="32" height="32" viewBox="0 0 32 32">

	<path d="M12 2.667h8q1.656 0 2.828 1.172t1.172 2.828v6.667h2.667q1.656 0 2.828 1.172t1.172 2.828v5.333q0 1.656-1.172 2.828t-2.828 1.172h-2.896q-0.417 1.177-1.448 1.922t-2.323 0.745h-8q-1.292 0-2.323-0.745t-1.448-1.922h-2.896q-1.656 0-2.828-1.172t-1.172-2.828v-5.333q0-1.656 1.172-2.828t2.828-1.172h2.667v-6.667q0-1.656 1.172-2.828t2.828-1.172zM20 24h-8q-0.552 0-0.943 0.391t-0.391 0.943 0.391 0.943 0.943 0.391h8q0.552 0 0.943-0.391t0.391-0.943-0.391-0.943-0.943-0.391zM26.667 16h-21.333q-0.552 0-0.943 0.391t-0.391 0.943v5.333q0 0.552 0.391 0.943t0.943 0.391h2.896q0.417-1.177 1.448-1.922t2.323-0.745h8q1.292 0 2.323 0.745t1.448 1.922h2.896q0.552 0 0.943-0.391t0.391-0.943v-5.333q0-0.552-0.391-0.943t-0.943-0.391zM20 5.333h-8q-0.552 0-0.943 0.391t-0.391 0.943v6.667h10.667v-6.667q0-0.552-0.391-0.943t-0.943-0.391z"></path>
</svg>
