<?xml version="1.0" encoding="utf-8"?>
<!DOCTYPE svg PUBLIC "-//W3C//DTD SVG 1.1//EN" "http://www.w3.org/Graphics/SVG/1.1/DTD/svg11.dtd">
<svg version="1.1" xmlns="http://www.w3.org/2000/svg" xmlns:xlink="http://www.w3.org/1999/xlink" width="32" height="32" viewBox="0 0 32 32">

	<path d="M1.333 17.333h8q0.552 0 0.943 0.391t0.391 0.943-0.391 0.943-0.943 0.391h-4.5l3.625 3.542q1.542 1.552 3.531 2.344 1.906 0.781 4.010 0.781t4.010-0.781q1.042-0.427 1.953-1.047t1.552-1.271 1.167-1.396 0.844-1.37 0.536-1.25q0.188-0.521 0.688-0.755t1.010-0.057q0.521 0.188 0.755 0.682t0.057 1.005q-0.438 1.333-1.271 2.646t-1.875 2.354q-1.917 1.917-4.406 2.927-2.417 0.979-5.021 0.979-2.594 0-5.021-0.979-2.49-1.010-4.406-2.927l-3.906-3.823v5.063q0 0.552-0.391 0.943t-0.943 0.391-0.943-0.391-0.391-0.943v-8q0-0.552 0.391-0.943t0.943-0.391zM16 2.667q2.594 0 5.021 0.979 2.49 1.010 4.406 2.927l0.021 0.021 3.885 3.802v-5.063q0-0.552 0.391-0.943t0.943-0.391 0.943 0.391 0.391 0.943v8q0 0.552-0.391 0.943t-0.943 0.391h-8q-0.552 0-0.943-0.391t-0.391-0.943 0.391-0.943 0.943-0.391h4.5l-3.625-3.542q-1.521-1.521-3.464-2.323t-4.078-0.802q-2.104 0-4.010 0.781-1.99 0.792-3.531 2.344-0.625 0.552-1.37 1.682t-1.151 2.307q-0.188 0.521-0.688 0.755t-1.010 0.057q-0.521-0.188-0.755-0.682t-0.057-1.005q0.438-1.333 1.271-2.646t1.875-2.354q1.917-1.917 4.406-2.927 2.427-0.979 5.021-0.979z"></path>
</svg>
