<?xml version="1.0" encoding="utf-8"?>
<!DOCTYPE svg PUBLIC "-//W3C//DTD SVG 1.1//EN" "http://www.w3.org/Graphics/SVG/1.1/DTD/svg11.dtd">
<svg version="1.1" xmlns="http://www.w3.org/2000/svg" xmlns:xlink="http://www.w3.org/1999/xlink" width="32" height="32" viewBox="0 0 32 32">

	<path d="M11.146 4.844q0.542 0 0.938 0.391t0.396 0.943-0.396 0.948l-6.208 6.208h12.792q2.438 0 4.661 0.948t3.828 2.557 2.557 3.828 0.953 4.667v1.333q0 0.552-0.391 0.943t-0.943 0.391q-0.542 0-0.938-0.396t-0.396-0.938v-1.333q0-1.896-0.74-3.625t-1.99-2.979-2.979-1.99-3.625-0.74h-12.792l6.208 6.219q0.396 0.396 0.396 0.938 0 0.552-0.391 0.948t-0.943 0.396-0.948-0.396l-8.479-8.49q-0.385-0.385-0.385-0.948 0-0.552 0.385-0.938l8.479-8.49q0.396-0.396 0.948-0.396z"></path>
</svg>
