<?xml version="1.0" encoding="utf-8"?>
<!DOCTYPE svg PUBLIC "-//W3C//DTD SVG 1.1//EN" "http://www.w3.org/Graphics/SVG/1.1/DTD/svg11.dtd">
<svg version="1.1" xmlns="http://www.w3.org/2000/svg" xmlns:xlink="http://www.w3.org/1999/xlink" width="32" height="32" viewBox="0 0 32 32">

	<path d="M24 5.333q0.552 0 0.943 0.391t0.391 0.943-0.396 0.948l-8.385 8.385 8.385 8.385q0.396 0.396 0.396 0.948t-0.391 0.943-0.943 0.391q-0.563 0-0.948-0.385l-9.333-9.333q-0.385-0.385-0.385-0.948t0.385-0.948l9.333-9.333q0.385-0.385 0.948-0.385zM16 5.333q0.552 0 0.943 0.391t0.391 0.943-0.396 0.948l-8.385 8.385 8.385 8.385q0.396 0.396 0.396 0.948t-0.391 0.943-0.943 0.391q-0.563 0-0.948-0.385l-9.333-9.333q-0.385-0.385-0.385-0.948t0.385-0.948l9.333-9.333q0.385-0.385 0.948-0.385z"></path>
</svg>
