<?xml version="1.0" encoding="utf-8"?>
<!DOCTYPE svg PUBLIC "-//W3C//DTD SVG 1.1//EN" "http://www.w3.org/Graphics/SVG/1.1/DTD/svg11.dtd">
<svg version="1.1" xmlns="http://www.w3.org/2000/svg" xmlns:xlink="http://www.w3.org/1999/xlink" width="32" height="32" viewBox="0 0 32 32">

	<path d="M16 1.333q2.729 0 5.281 0.328t4.682 0.958 3.417 1.677 1.286 2.37v18.667q0 1.323-1.286 2.37t-3.417 1.677-4.682 0.958-5.281 0.328-5.281-0.328-4.682-0.958-3.417-1.677-1.286-2.37v-18.667q0-1.323 1.286-2.37t3.417-1.677 4.682-0.958 5.281-0.328zM28 25.313v-6.073q-2.042 1.031-5.26 1.563t-6.74 0.531-6.74-0.531-5.26-1.563v6.094q0.063 0.229 0.557 0.552t1.516 0.698 2.375 0.688 3.344 0.521 4.208 0.208 4.208-0.208 3.344-0.526 2.375-0.693 1.516-0.698 0.557-0.563zM28 15.979v-6.073q-2.042 1.031-5.26 1.563t-6.74 0.531-6.74-0.531-5.26-1.563v6.094q0.063 0.229 0.557 0.552t1.516 0.698 2.375 0.688 3.344 0.521 4.208 0.208 4.208-0.208 3.339-0.521 2.37-0.688 1.521-0.703 0.563-0.568zM16 4q-2.198 0-4.177 0.208t-3.323 0.516-2.37 0.677-1.536 0.698-0.594 0.568q0.083 0.24 0.594 0.568t1.536 0.698 2.37 0.677 3.323 0.516 4.177 0.208 4.177-0.208 3.323-0.516 2.37-0.677 1.536-0.698 0.594-0.568q-0.083-0.24-0.594-0.568t-1.536-0.698-2.37-0.677-3.323-0.516-4.177-0.208z"></path>
</svg>
