<?xml version="1.0" encoding="utf-8"?>
<!DOCTYPE svg PUBLIC "-//W3C//DTD SVG 1.1//EN" "http://www.w3.org/Graphics/SVG/1.1/DTD/svg11.dtd">
<svg version="1.1" xmlns="http://www.w3.org/2000/svg" xmlns:xlink="http://www.w3.org/1999/xlink" width="32" height="32" viewBox="0 0 32 32">

	<path d="M24 2.667q2.208 0 3.771 1.563t1.563 3.771-1.563 3.771-3.771 1.563q-1.177 0-2.224-0.484t-1.797-1.349l-6.76 3.385q0.115 0.552 0.115 1.115t-0.115 1.115l6.76 3.385q0.75-0.865 1.797-1.349t2.224-0.484q2.208 0 3.771 1.563t1.563 3.771-1.563 3.771-3.771 1.563-3.771-1.563-1.563-3.771q0-0.563 0.115-1.115l-6.76-3.385q-0.75 0.865-1.797 1.349t-2.224 0.484q-2.208 0-3.771-1.563t-1.563-3.771 1.563-3.771 3.771-1.563q1.177 0 2.224 0.484t1.797 1.349l6.76-3.385q-0.115-0.552-0.115-1.115 0-2.208 1.563-3.771t3.771-1.563zM8 13.333q-1.104 0-1.885 0.781t-0.781 1.885 0.781 1.885 1.885 0.781 1.885-0.781 0.781-1.885-0.781-1.885-1.885-0.781zM24 21.333q-1.104 0-1.885 0.781t-0.781 1.885 0.781 1.885 1.885 0.781 1.885-0.781 0.781-1.885-0.781-1.885-1.885-0.781zM24 5.333q-1.104 0-1.885 0.781t-0.781 1.885 0.781 1.885 1.885 0.781 1.885-0.781 0.781-1.885-0.781-1.885-1.885-0.781z"></path>
</svg>
