<?xml version="1.0" encoding="utf-8"?>
<!DOCTYPE svg PUBLIC "-//W3C//DTD SVG 1.1//EN" "http://www.w3.org/Graphics/SVG/1.1/DTD/svg11.dtd">
<svg version="1.1" xmlns="http://www.w3.org/2000/svg" xmlns:xlink="http://www.w3.org/1999/xlink" width="32" height="32" viewBox="0 0 32 32">

	<path d="M24 0q0.552 0 0.948 0.396l5.333 5.333q0.385 0.385 0.385 0.938 0 0.563-0.385 0.948l-5.333 5.333q-0.385 0.385-0.948 0.385-0.552 0-0.943-0.391t-0.391-0.943q0-0.531 0.385-0.938l3.063-3.063h-2.115q-1.875 0-3.521 0.818t-2.76 2.234q-1.719 2.188-1.719 4.948 0 2.781-1.333 5.167-0.708 1.281-1.719 2.302-1.479 1.51-3.448 2.354t-4.167 0.844h-2.667q-0.552 0-0.943-0.391t-0.391-0.943 0.391-0.943 0.943-0.391h2.667q1.885 0 3.526-0.813t2.755-2.229q1.719-2.188 1.719-4.958 0-2.781 1.333-5.167 0.719-1.292 1.719-2.292 1.479-1.51 3.448-2.359t4.167-0.849h2.115l-3.063-3.052q-0.385-0.406-0.385-0.948 0-0.552 0.391-0.943t0.943-0.391zM24 18.667q0.552 0 0.948 0.396l5.333 5.333q0.385 0.385 0.385 0.948 0 0.552-0.385 0.938l-5.333 5.333q-0.385 0.385-0.948 0.385-0.552 0-0.943-0.385t-0.391-0.938q0-0.542 0.385-0.948l3.063-3.063h-2.115q-2.198 0-4.167-0.844t-3.448-2.354q0.802-1.177 1.333-2.51 1.115 1.417 2.755 2.229t3.526 0.813h2.115l-3.063-3.052q-0.385-0.406-0.385-0.948 0-0.552 0.391-0.943t0.943-0.391zM2.667 5.333h2.667q2.198 0 4.167 0.849t3.448 2.359q-0.813 1.198-1.333 2.51-1.115-1.417-2.76-2.234t-3.521-0.818h-2.667q-0.552 0-0.943-0.391t-0.391-0.943 0.391-0.943 0.943-0.391z"></path>
</svg>
