<?xml version="1.0" encoding="utf-8"?>
<!DOCTYPE svg PUBLIC "-//W3C//DTD SVG 1.1//EN" "http://www.w3.org/Graphics/SVG/1.1/DTD/svg11.dtd">
<svg version="1.1" xmlns="http://www.w3.org/2000/svg" xmlns:xlink="http://www.w3.org/1999/xlink" width="32" height="32" viewBox="0 0 32 32">

	<path d="M16 5.333q4.094 0 7.969 1.438t7.031 4.229q0.448 0.385 0.448 1 0 0.521-0.333 0.885l-0.063 0.063q-0.385 0.385-0.938 0.385-0.521 0-0.885-0.333-2.781-2.458-6.203-3.729t-7.026-1.271-7.026 1.271-6.203 3.729q-0.365 0.333-0.885 0.333-0.615 0-1-0.448-0.333-0.365-0.333-0.885 0-0.615 0.448-1 3.167-2.792 7.036-4.229t7.964-1.438zM16.010 21.333q1.813 0 3.365 0.917 0.313 0.188 0.49 0.495t0.177 0.661-0.188 0.667q-0.094 0.156-0.208 0.271-0.385 0.385-0.948 0.385-0.375 0-0.667-0.177-0.948-0.552-2.021-0.552-1.083 0-2.031 0.552-0.333 0.188-0.677 0.188-0.76 0-1.156-0.656-0.188-0.313-0.188-0.667 0-0.76 0.656-1.156 1.573-0.927 3.396-0.927zM16 13.344q2.521 0 4.906 0.833t4.375 2.469q0.49 0.396 0.49 1.031 0 0.479-0.302 0.844-0.063 0.083-0.083 0.104-0.385 0.385-0.938 0.385-0.49 0-0.854-0.302-1.625-1.333-3.583-2.021t-4.010-0.688-4.010 0.688-3.583 2.021q-0.365 0.302-0.844 0.302-0.635 0-1.031-0.49-0.302-0.365-0.302-0.844 0-0.635 0.49-1.031 1.979-1.635 4.375-2.469t4.906-0.833z"></path>
</svg>
