<?xml version="1.0" encoding="utf-8"?>
<!DOCTYPE svg PUBLIC "-//W3C//DTD SVG 1.1//EN" "http://www.w3.org/Graphics/SVG/1.1/DTD/svg11.dtd">
<svg version="1.1" xmlns="http://www.w3.org/2000/svg" xmlns:xlink="http://www.w3.org/1999/xlink" width="32" height="32" viewBox="0 0 32 32">

	<path d="M5.333 1.333h21.333q1.656 0 2.828 1.172t1.172 2.828v21.333q0 1.656-1.172 2.828t-2.828 1.172h-21.333q-1.656 0-2.828-1.172t-1.172-2.828v-21.333q0-1.656 1.172-2.828t2.828-1.172zM26.667 4h-21.333q-0.552 0-0.943 0.391t-0.391 0.943v21.333q0 0.552 0.391 0.943t0.943 0.391h21.333q0.552 0 0.943-0.391t0.391-0.943v-21.333q0-0.552-0.391-0.943t-0.943-0.391zM21.333 11.365q0.542 0 0.938 0.391t0.396 0.943-0.396 0.948l-6.594 6.594q-0.385 0.385-0.938 0.385-0.563 0-0.948-0.385l-3.771-3.771q-0.385-0.385-0.385-0.948 0-0.552 0.391-0.943t0.943-0.391q0.542 0 0.938 0.396l2.823 2.833 5.656-5.656q0.396-0.396 0.948-0.396z"></path>
</svg>
