<?xml version="1.0" encoding="utf-8"?>
<!DOCTYPE svg PUBLIC "-//W3C//DTD SVG 1.1//EN" "http://www.w3.org/Graphics/SVG/1.1/DTD/svg11.dtd">
<svg version="1.1" xmlns="http://www.w3.org/2000/svg" xmlns:xlink="http://www.w3.org/1999/xlink" width="32" height="32" viewBox="0 0 32 32">

	<path d="M16 8q2.177 0 4.016 1.073t2.911 2.911 1.073 4.016-1.073 4.016-2.911 2.911-4.016 1.073-4.016-1.073-2.911-2.911-1.073-4.016 1.073-4.016 2.911-2.911 4.016-1.073zM7.521 23.146q0.552 0 0.943 0.396t0.391 0.948q0 0.542-0.396 0.938l-1.885 1.885q-0.396 0.396-0.938 0.396-0.552 0-0.943-0.391t-0.391-0.943q0-0.563 0.385-0.948l1.885-1.885q0.396-0.396 0.948-0.396zM16 26.667q0.552 0 0.943 0.391t0.391 0.943v2.667q0 0.552-0.391 0.943t-0.943 0.391-0.943-0.391-0.391-0.943v-2.667q0-0.552 0.391-0.943t0.943-0.391zM1.333 14.667h2.667q0.552 0 0.943 0.391t0.391 0.943-0.391 0.943-0.943 0.391h-2.667q-0.552 0-0.943-0.391t-0.391-0.943 0.391-0.943 0.943-0.391zM16 10.667q-2.208 0-3.771 1.563t-1.563 3.771 1.563 3.771 3.771 1.563 3.771-1.563 1.563-3.771-1.563-3.771-3.771-1.563zM24.49 23.146q0.542 0 0.938 0.396l1.885 1.885q0.396 0.396 0.396 0.948 0 0.542-0.396 0.938t-0.938 0.396q-0.552 0-0.948-0.396l-1.885-1.885q-0.385-0.385-0.385-0.938t0.391-0.948 0.943-0.396zM5.635 4.292q0.542 0 0.938 0.396l1.885 1.885q0.396 0.396 0.396 0.938 0 0.552-0.391 0.943t-0.943 0.391q-0.563 0-0.948-0.385l-1.885-1.885q-0.385-0.385-0.385-0.948 0-0.552 0.391-0.943t0.943-0.391zM16 0q0.552 0 0.943 0.391t0.391 0.943v2.667q0 0.552-0.391 0.943t-0.943 0.391-0.943-0.391-0.391-0.943v-2.667q0-0.552 0.391-0.943t0.943-0.391zM28 14.667h2.667q0.552 0 0.943 0.391t0.391 0.943-0.391 0.943-0.943 0.391h-2.667q-0.552 0-0.943-0.391t-0.391-0.943 0.391-0.943 0.943-0.391zM26.375 4.292q0.542 0 0.938 0.396t0.396 0.938q0 0.552-0.396 0.948l-1.885 1.885q-0.385 0.385-0.938 0.385-0.573 0-0.953-0.38t-0.38-0.953q0-0.552 0.385-0.938l1.885-1.885q0.396-0.396 0.948-0.396z"></path>
</svg>
