<?xml version="1.0" encoding="utf-8"?>
<!DOCTYPE svg PUBLIC "-//W3C//DTD SVG 1.1//EN" "http://www.w3.org/Graphics/SVG/1.1/DTD/svg11.dtd">
<svg version="1.1" xmlns="http://www.w3.org/2000/svg" xmlns:xlink="http://www.w3.org/1999/xlink" width="32" height="32" viewBox="0 0 32 32">

	<path d="M1.333 1.333h15.083l13.083 13.073q1.167 1.167 1.167 2.823 0 1.667-1.167 2.833l-9.438 9.438q-1.167 1.167-2.823 1.167-1.667 0-2.833-1.167l-13.073-13.083v-15.083zM27.615 16.292l-12.302-12.292h-11.313v11.313l12.292 12.302q0.396 0.385 0.948 0.385t0.938-0.385l9.438-9.438q0.385-0.385 0.385-0.938t-0.385-0.948zM11.333 8q1.385 0 2.359 0.974t0.974 2.359-0.974 2.359-2.359 0.974-2.359-0.974-0.974-2.359 0.974-2.359 2.359-0.974zM11.333 10.667q-0.271 0-0.469 0.198t-0.198 0.469 0.198 0.469 0.469 0.198 0.469-0.198 0.198-0.469-0.198-0.469-0.469-0.198z"></path>
</svg>
