<?xml version="1.0" encoding="utf-8"?>
<!DOCTYPE svg PUBLIC "-//W3C//DTD SVG 1.1//EN" "http://www.w3.org/Graphics/SVG/1.1/DTD/svg11.dtd">
<svg version="1.1" xmlns="http://www.w3.org/2000/svg" xmlns:xlink="http://www.w3.org/1999/xlink" width="32" height="32" viewBox="0 0 32 32">

	<path d="M16 1.333q2.99 0 5.703 1.161t4.677 3.125 3.125 4.677 1.161 5.703-1.161 5.703-3.125 4.677-4.677 3.125-5.703 1.161-5.703-1.161-4.677-3.125-3.125-4.677-1.161-5.703 1.161-5.703 3.125-4.677 4.677-3.125 5.703-1.161zM16 4q-2.438 0-4.661 0.953t-3.828 2.557-2.557 3.828-0.953 4.661 0.953 4.661 2.557 3.828 3.828 2.557 4.661 0.953 4.661-0.953 3.828-2.557 2.557-3.828 0.953-4.661-0.953-4.661-2.557-3.828-3.828-2.557-4.661-0.953zM16 6.667q1.896 0 3.625 0.74t2.979 1.99 1.99 2.979 0.74 3.625-0.74 3.625-1.99 2.979-2.979 1.99-3.625 0.74-3.625-0.74-2.979-1.99-1.99-2.979-0.74-3.625 0.74-3.625 1.99-2.979 2.979-1.99 3.625-0.74zM16 9.333q-1.354 0-2.589 0.531t-2.125 1.422-1.422 2.125-0.531 2.589 0.531 2.589 1.422 2.125 2.125 1.422 2.589 0.531 2.589-0.531 2.125-1.422 1.422-2.125 0.531-2.589-0.531-2.589-1.422-2.125-2.125-1.422-2.589-0.531zM16 12q1.656 0 2.828 1.172t1.172 2.828-1.172 2.828-2.828 1.172-2.828-1.172-1.172-2.828 1.172-2.828 2.828-1.172zM16 14.667q-0.552 0-0.943 0.391t-0.391 0.943 0.391 0.943 0.943 0.391 0.943-0.391 0.391-0.943-0.391-0.943-0.943-0.391z"></path>
</svg>
