<?xml version="1.0" encoding="utf-8"?>
<!DOCTYPE svg PUBLIC "-//W3C//DTD SVG 1.1//EN" "http://www.w3.org/Graphics/SVG/1.1/DTD/svg11.dtd">
<svg version="1.1" xmlns="http://www.w3.org/2000/svg" xmlns:xlink="http://www.w3.org/1999/xlink" width="32" height="32" viewBox="0 0 32 32">

	<path d="M15.333 0q1.927 0 3.297 1.37t1.37 3.297v14.344q1.24 1.031 1.953 2.505t0.714 3.151q0 1.49-0.578 2.849t-1.563 2.344-2.344 1.563-2.849 0.578-2.849-0.578-2.344-1.563-1.563-2.344-0.578-2.849q0-1.677 0.714-3.151t1.953-2.505v-14.344q0-1.927 1.37-3.297t3.297-1.37zM15.333 2.667q-0.833 0-1.417 0.583t-0.583 1.417v15.792q-1.198 0.573-1.932 1.703t-0.734 2.505q0 1.927 1.37 3.297t3.297 1.37 3.297-1.37 1.37-3.297q0-1.375-0.734-2.505t-1.932-1.703v-15.792q0-0.833-0.583-1.417t-1.417-0.583z"></path>
</svg>
