<?xml version="1.0" encoding="utf-8"?>
<!DOCTYPE svg PUBLIC "-//W3C//DTD SVG 1.1//EN" "http://www.w3.org/Graphics/SVG/1.1/DTD/svg11.dtd">
<svg version="1.1" xmlns="http://www.w3.org/2000/svg" xmlns:xlink="http://www.w3.org/1999/xlink" width="32" height="32" viewBox="0 0 32 32">

	<path d="M10.667 5.333h10.667q2.167 0 4.141 0.844t3.406 2.276 2.276 3.406 0.844 4.141-0.844 4.141-2.276 3.406-3.406 2.276-4.141 0.844h-10.667q-2.167 0-4.141-0.844t-3.406-2.276-2.276-3.406-0.844-4.141 0.844-4.141 2.276-3.406 3.406-2.276 4.141-0.844zM10.667 10.667q2.208 0 3.771 1.563t1.563 3.771-1.563 3.771-3.771 1.563-3.771-1.563-1.563-3.771 1.563-3.771 3.771-1.563zM10.667 13.333q-1.104 0-1.885 0.781t-0.781 1.885 0.781 1.885 1.885 0.781 1.885-0.781 0.781-1.885-0.781-1.885-1.885-0.781zM21.333 8h-10.667q-2.177 0-4.016 1.073t-2.911 2.911-1.073 4.016 1.073 4.016 2.911 2.911 4.016 1.073h10.667q2.177 0 4.016-1.073t2.911-2.911 1.073-4.016-1.073-4.016-2.911-2.911-4.016-1.073z"></path>
</svg>
