<?xml version="1.0" encoding="utf-8"?>
<!DOCTYPE svg PUBLIC "-//W3C//DTD SVG 1.1//EN" "http://www.w3.org/Graphics/SVG/1.1/DTD/svg11.dtd">
<svg version="1.1" xmlns="http://www.w3.org/2000/svg" xmlns:xlink="http://www.w3.org/1999/xlink" width="32" height="32" viewBox="0 0 32 32">

	<path d="M16 1.333q2.344 0 4.557 0.656t4.063 1.865 3.333 2.849 2.469 3.682 1.359 4.281q0.219 1.292 0.219 2.667h-14.667v8q0 1.104 0.781 1.885t1.885 0.781 1.885-0.781 0.781-1.885q0-0.552 0.391-0.943t0.943-0.391 0.943 0.391 0.391 0.943q0 2.208-1.563 3.771t-3.771 1.563-3.771-1.563-1.563-3.771v-8h-14.667q0-1.375 0.219-2.667 0.375-2.24 1.359-4.281t2.469-3.682 3.333-2.849 4.062-1.865 4.557-0.656zM16 4q-3.167 0-5.948 1.396t-4.641 3.823-2.474 5.448h26.125q-0.615-3.021-2.474-5.448t-4.641-3.823-5.948-1.396z"></path>
</svg>
