<?xml version="1.0" encoding="utf-8"?>
<!DOCTYPE svg PUBLIC "-//W3C//DTD SVG 1.1//EN" "http://www.w3.org/Graphics/SVG/1.1/DTD/svg11.dtd">
<svg version="1.1" xmlns="http://www.w3.org/2000/svg" xmlns:xlink="http://www.w3.org/1999/xlink" width="32" height="32" viewBox="0 0 32 32">

	<path d="M4 6.667h14.667q1.656 0 2.828 1.172t1.172 2.828v2.427l9.333-5.094v16l-9.333-5.094v2.427q0 1.656-1.172 2.828t-2.828 1.172h-14.667q-1.656 0-2.828-1.172t-1.172-2.828v-10.667q0-1.656 1.172-2.828t2.828-1.172zM18.667 9.333h-14.667q-0.552 0-0.943 0.391t-0.391 0.943v10.667q0 0.552 0.391 0.943t0.943 0.391h14.667q0.552 0 0.943-0.391t0.391-0.943v-10.667q0-0.552-0.391-0.943t-0.943-0.391zM29.333 19.51v-7.021l-6.427 3.51z"></path>
</svg>
