<?xml version="1.0" encoding="utf-8"?>
<!DOCTYPE svg PUBLIC "-//W3C//DTD SVG 1.1//EN" "http://www.w3.org/Graphics/SVG/1.1/DTD/svg11.dtd">
<svg version="1.1" xmlns="http://www.w3.org/2000/svg" xmlns:xlink="http://www.w3.org/1999/xlink" width="32" height="32" viewBox="0 0 32 32">

	<path d="M6.667 10.667l6.667-6.667v24l-6.667-6.667h-2.667q-1.656 0-2.828-1.172t-1.172-2.828v-2.615q0-1.656 1.172-2.854t2.828-1.198h2.667zM10.667 21.563v-11.177l-2.896 2.948h-3.771q-0.542 0-0.938 0.411t-0.396 0.974v2.615q0 0.552 0.391 0.943t0.943 0.391h3.771zM19.375 11.552q0.385 0 0.724 0.219t0.505 0.594q0.729 1.76 0.729 3.635 0 1.906-0.729 3.615-0.156 0.375-0.495 0.599t-0.734 0.224q-0.49 0-0.911-0.37t-0.422-0.964q0-0.24 0.104-0.521 0.521-1.229 0.521-2.583 0-1.344-0.521-2.594-0.104-0.24-0.104-0.521 0-0.594 0.401-0.964t0.932-0.37zM23.448 7.833q0.75 0 1.146 0.656 1.031 1.719 1.531 3.552 0.542 1.958 0.542 3.958 0 1.99-0.542 3.969-0.51 1.854-1.531 3.552-0.385 0.646-1.146 0.646-0.521 0-0.927-0.375t-0.406-0.958q0-0.365 0.198-0.688 0.813-1.354 1.24-2.896 0.448-1.563 0.448-3.25 0-1.677-0.448-3.24-0.427-1.542-1.24-2.906-0.198-0.302-0.198-0.677 0-0.563 0.411-0.953t0.922-0.391zM27.438 4.177q0.719 0 1.104 0.583 1.698 2.49 2.578 5.354t0.88 5.885-0.88 5.885-2.578 5.354q-0.375 0.583-1.104 0.583-0.542 0-0.932-0.375t-0.391-0.958q0-0.417 0.229-0.75 2.99-4.385 2.99-9.74 0-2.625-0.76-5.104t-2.229-4.635q-0.229-0.333-0.229-0.75 0-0.583 0.391-0.958t0.932-0.375z"></path>
</svg>
