<?xml version="1.0" encoding="utf-8"?>
<!DOCTYPE svg PUBLIC "-//W3C//DTD SVG 1.1//EN" "http://www.w3.org/Graphics/SVG/1.1/DTD/svg11.dtd">
<svg version="1.1" xmlns="http://www.w3.org/2000/svg" xmlns:xlink="http://www.w3.org/1999/xlink" width="32" height="32" viewBox="0 0 32 32">

	<path d="M12 0h8q1.656 0 2.828 1.172t1.172 2.828v3.063q1.875 1.667 2.938 3.995t1.063 4.943-1.063 4.938-2.938 4v3.063q0 1.656-1.172 2.828t-2.828 1.172h-8q-1.656 0-2.828-1.172t-1.172-2.828v-3.063q-1.875-1.677-2.938-4t-1.063-4.938 1.063-4.943 2.938-3.995v-3.063q0-1.656 1.172-2.828t2.828-1.172zM21.333 28v-1.25q-2.5 1.25-5.333 1.25t-5.333-1.25v1.25q0 0.552 0.391 0.943t0.943 0.391h8q0.552 0 0.943-0.391t0.391-0.943zM16 6.667q-1.896 0-3.625 0.74t-2.979 1.99-1.99 2.979-0.74 3.625 0.74 3.625 1.99 2.979 2.979 1.99 3.625 0.74 3.625-0.74 2.979-1.99 1.99-2.979 0.74-3.625-0.74-3.625-1.99-2.979-2.979-1.99-3.625-0.74zM16 9.333q0.552 0 0.943 0.391t0.391 0.943v4.781l2.281 2.271q0.385 0.385 0.385 0.948t-0.385 0.948-0.948 0.385-0.948-0.385l-2.667-2.667q-0.385-0.385-0.385-0.948v-5.333q0-0.552 0.391-0.943t0.943-0.391zM20 2.667h-8q-0.552 0-0.943 0.391t-0.391 0.943v1.25q2.5-1.25 5.333-1.25t5.333 1.25v-1.25q0-0.552-0.391-0.943t-0.943-0.391z"></path>
</svg>
